<?xml version="1.0" encoding="utf-8"?>
<!-- Generator: Adobe Illustrator 19.0.0, SVG Export Plug-In . SVG Version: 6.00 Build 0)  -->
<svg version="1.1" id="Layer_1" xmlns="http://www.w3.org/2000/svg" xmlns:xlink="http://www.w3.org/1999/xlink" x="0px" y="0px"
	 viewBox="-399 761 400 400" style="enable-background:new -399 761 400 400;" xml:space="preserve">
<style type="text/css">
	.st0{fill:#E6CDE3;}
	.st1{fill:#F3859F;}
	.st2{fill:#C82127;}
	.st3{fill:none;}
</style>
<g>
	<g id="XMLID_616_">
		<g id="XMLID_5030_">
			<path id="XMLID_5031_" class="st0" d="M-98.1,844.8h-15.2c1.2,1,2.4,2,3.6,3c27.7,23.9,46.4,58,50,96.5h10
				C-53.1,905.3-71,870.3-98.1,844.8z M-313.4,848c-0.9,0.9-1.9,1.9-2.8,2.8l8.3-8C-309.8,844.5-311.6,846.2-313.4,848z
				 M-203.2,802.8h-0.7c-38.8,0-75.5,14.1-104.1,40h15.6c25.3-19.5,56.1-30,88.5-30h0.6c4.6,0,9.2,0.3,13.7,0.7v-0.7h40.4
				C-166,806.4-184.2,802.9-203.2,802.8z M-316.2,850.8c-13.1,13.7-23.5,29.5-30.7,46.5h10.9c7.1-15.5,17.1-29.8,29.6-42.2
				c1.5-1.5,3-2.9,4.5-4.3H-316.2z M-166.2,1097.8c-12.2,3.3-25,5-38,5h-0.6c-44-0.2-83.4-20.2-109.9-51.5h-12.8
				c28.2,37.2,72.6,61.3,122.6,61.5h0.7c23.5,0,46.2-5.2,66.8-15H-166.2z M-348.1,940.7c0.2-1.3,0.3-2.7,0.5-4h-10.1
				c-0.9,6.8-1.4,13.7-1.4,20.7c0,23.1,5,45.2,14.1,64.9h11.1c-9.8-19.6-15.2-41.6-15.2-64.9C-349.1,951.8-348.7,946.2-348.1,940.7z
				 M-59.1,959.2c-0.1,11.9-1.6,23.5-4.5,34.7c-1.4,5.3-3,10.5-4.9,15.6c-7.2,18.9-18.5,36.3-33.3,51.1
				c-7.8,7.8-16.4,14.5-25.5,20.2c-1.7,1-3.3,2-5,3h18.5c6.7-4.8,13.1-10.2,19-16.2c14.7-14.6,26.1-31.6,33.8-50.1
				c1.1-2.6,2.1-5.3,3.1-8c1.8-5.1,3.3-10.3,4.6-15.6c2.7-11.3,4.1-22.9,4.2-34.7H-59.1z"/>
		</g>
		<g id="XMLID_762_">
			<path id="XMLID_5026_" class="st0" d="M-309.8,897.3c0,20.2,0,40.3,0,60.5h16.3c0-20.2,0-40.3,0-60.5H-309.8z M-102.5,912.8h-16
				c0,10.5,0,21,0,31.5v4c0,10.6,0,21.2,0,31.9c0,10.9-2.4,13.3-13.6,13.3c-49.4,0.1-98.8,0.1-148.2,0c-10.7,0-13.1-2.4-13.2-12.8
				c0-5.5,0-10.9,0-16.4h-16.3c0,12,0,24,0,35.9c0,0.3,0,0.7,0,1.1h16.3v11.7H-307c3.9,7.9,11.9,12.4,22.7,12.4
				c15.8,0,31.6,0.1,47.4,0c4.2,0,7,0.2,6.6,5.8c-0.5,7.5,3.8,10.6,11,10.5c9-0.1,18.1-0.1,27.1,0c6.5,0.1,10.8-3,10.5-9.4
				c-0.3-6.9,3.1-6.9,8.2-6.9c16.1,0.2,32.2,0.3,48.3,0c4.7-0.1,9-1.5,12.6-3.8h-15.8v-4.6c-3.3-0.8-5.6-3.3-5.4-7.8
				c0.2-5.3,3.8-6.9,8-7.9c2.4,0.7,4.4,1.6,5.7,3.1h17.6c0.1-0.8,0.1-1.5,0.1-2.3c0-17.9,0.1-35.9,0.1-53.8v-4
				C-102.5,933.8-102.5,923.3-102.5,912.8z M-273.1,882.4c22.4,0,44.8,0,67.2,0c24.9,0,49.7,0,74.5,0c10.6,0,12.8,2.4,12.8,13v4.9
				h16c0-3.6,0-7.2,0-10.8c0-13.1-9.2-22.4-22.3-22.4c-27.1,0-54.2,0-81.3,0c-26.5,0-53.1,0-79.6,0c-9.7,0-16.9,3.6-20.8,10.2h33.3
				V882.4z"/>
			<path id="XMLID_763_" class="st0" d="M-206.8,1065.7c-18.1,0-36.1,0.2-54.2-0.1c-3.3-0.1-9.2,3.2-9.1-4.6
				c0.1-6.4,2.5-10.8,9.3-11.9c1.1-0.2,2.3,0,3.4,0c34.4,0,68.8,0,103.2,0c1.7,0,3.4-0.2,5.1,0.2c6.9,1.5,7.2,6.7,7.1,12.5
				c-0.2,6.6-5.1,3.9-8,4C-169,1065.8-187.9,1065.7-206.8,1065.7z"/>
		</g>
		<path id="XMLID_761_" class="st0" d="M-99.5,908.8h-16c0-4.2,0-8.3,0-12.5h16C-99.5,900.5-99.5,904.6-99.5,908.8z"/>
		<path id="XMLID_760_" class="st0" d="M-95.6,1008.5c-0.7,7.3-4.5,13.5-10.1,17.2h-15.8v-4.6c0.7,0.2,1.4,0.3,2.2,0.3
			c4.3,0.2,7.4-2.7,7.8-7.2c0.2-2.5-0.4-4.3-1.7-5.7H-95.6z"/>
		<path id="XMLID_759_" class="st0" d="M-281.1,872.3v5.1c-2.5,0-4.9,0-7.4,0c-11,0-13,1.9-13,12.8v2.1h-16.3v-6.2
			c0-5.5,1.2-10.1,3.4-13.8H-281.1z"/>
		<path id="XMLID_758_" class="st0" d="M-309.5,964.4h-16.3c0-2.2,0-4.4,0-6.6h16.3C-309.5,960-309.5,962.2-309.5,964.4z"/>
		<path id="XMLID_757_" class="st0" d="M-293.5,964.4c0-2.2,0-4.4,0-6.5"/>
		<rect id="XMLID_756_" x="-118.5" y="944.3" class="st0" width="16" height="4"/>
		<path id="XMLID_755_" class="st0" d="M-101.1,847.8h-15.2c-21.3-17.2-47.6-28.5-76.3-31.3v-0.7h40.4
			C-133.1,823.1-115.7,834.1-101.1,847.8z"/>
		<path id="XMLID_754_" class="st0" d="M-330.9,901.3c-5.7,12.4-9.6,25.7-11.6,39.4h-10.1c1.8-13.6,5.5-26.9,10.8-39.4H-330.9z"/>
		<path id="XMLID_753_" class="st0" d="M-322.8,1046.3h-12.8c-6.8-9-12.6-18.7-17.4-29h11.1
			C-336.7,1027.8-330.2,1037.5-322.8,1046.3z"/>
		<path id="XMLID_752_" class="st0" d="M-116.8,1080.8c-7.5,5.4-15.4,10.1-23.7,14h-28.8c11.9-3.2,23.3-7.9,33.9-14H-116.8z"/>
		<path id="XMLID_671_" class="st0" d="M-42.1,958.3c0,0.3,0,0.6,0,0.9h-10c0-0.3,0-0.6,0-0.9c0-4.7-0.2-9.3-0.6-13.9h10
			C-42.3,948.9-42.1,953.6-42.1,958.3z"/>
		<path id="XMLID_648_" class="st0" d="M-53.2,993.9c-1.3,5.3-2.8,10.5-4.6,15.6h-10.7c1.9-5.1,3.6-10.3,4.9-15.6H-53.2z"/>
		<path id="XMLID_646_" class="st0" d="M-292.4,842.8c-3.3,2.5-6.4,5.2-9.5,8h-14.3l8.3-8H-292.4z"/>
		<path id="XMLID_644_" class="st0" d="M-292.4,842.8l-9.5,8C-298.8,848-295.6,845.3-292.4,842.8z"/>
		<rect id="XMLID_643_" x="-97" y="912.8" class="st0" width="7.3" height="4.4"/>
		<rect id="XMLID_642_" x="-102.6" y="1004.5" class="st0" width="16.6" height="4"/>
		<rect id="XMLID_641_" x="-125.7" y="1011.4" class="st0" width="3.2" height="1.9"/>
		<rect id="XMLID_640_" x="-121.5" y="1038.3" class="st0" width="4.7" height="2.8"/>
		<rect id="XMLID_637_" x="-276.4" y="945.8" class="st0" width="18.7" height="9.3"/>
		<rect id="XMLID_636_" x="-243.1" y="931.8" class="st0" width="10.5" height="2"/>
		<rect id="XMLID_635_" x="-225.7" y="949.7" class="st0" width="13.9" height="5.4"/>
		<rect id="XMLID_634_" x="-184.4" y="917.2" class="st0" width="15.2" height="3"/>
		<rect id="XMLID_633_" x="-137.5" y="908.8" class="st0" width="9.1" height="4"/>
		<rect id="XMLID_632_" x="-285.3" y="892.3" class="st0" width="8.9" height="5.5"/>
		<rect id="XMLID_631_" x="-327.6" y="908.8" class="st0" width="5.9" height="7"/>
		<rect id="XMLID_630_" x="-363.5" y="902.6" class="st0" width="10.2" height="2.6"/>
		<rect id="XMLID_629_" x="-363.5" y="927.6" class="st0" width="10.2" height="3.3"/>
		<rect id="XMLID_628_" x="-372.4" y="1028.9" class="st0" width="6.7" height="9.4"/>
		<rect id="XMLID_627_" x="-352.7" y="1043.8" class="st0" width="10.8" height="5"/>
		<rect id="XMLID_626_" x="-319.5" y="1033.6" class="st0" width="8" height="4.7"/>
		<rect id="XMLID_625_" x="-169.2" y="1082.1" class="st0" width="10.2" height="5.8"/>
		<rect id="XMLID_624_" x="-128.4" y="1100.8" class="st0" width="6.8" height="6.7"/>
		<rect id="XMLID_623_" x="-204.5" y="981.1" class="st0" width="2.8" height="3.2"/>
		<rect id="XMLID_622_" x="-172.4" y="961.1" class="st0" width="8.2" height="7.3"/>
		<rect id="XMLID_621_" x="-143" y="942.6" class="st0" width="5.5" height="3.8"/>
		<rect id="XMLID_620_" x="-317.8" y="1001.7" class="st0" width="4.7" height="4.7"/>
		<rect id="XMLID_619_" x="-140.2" y="850.8" class="st0" width="14.5" height="3"/>
		<rect id="XMLID_618_" x="-176.8" y="825.5" class="st0" width="12.7" height="14.3"/>
		<rect id="XMLID_617_" x="-115.5" y="814.8" class="st0" width="22.2" height="5.5"/>
	</g>
	<g id="XMLID_5448_">
		<g id="XMLID_5494_">
			<path id="XMLID_5495_" class="st0" d="M-93.1,844.8h-15.2c1.2,1,2.4,2,3.6,3c27.7,23.9,46.4,58,50,96.5h10
				C-48.1,905.3-66,870.3-93.1,844.8z M-308.4,848c-0.9,0.9-1.9,1.9-2.8,2.8l8.3-8C-304.8,844.5-306.6,846.2-308.4,848z
				 M-198.2,802.8h-0.7c-38.8,0-75.5,14.1-104.1,40h15.6c25.3-19.5,56.1-30,88.5-30h0.6c4.6,0,9.2,0.3,13.7,0.7v-0.7h40.4
				C-161,806.4-179.2,802.9-198.2,802.8z M-311.2,850.8c-13.1,13.7-23.5,29.5-30.7,46.5h10.9c7.1-15.5,17.1-29.8,29.6-42.2
				c1.5-1.5,3-2.9,4.5-4.3H-311.2z M-161.2,1097.8c-12.2,3.3-25,5-38,5h-0.6c-44-0.2-83.4-20.2-109.9-51.5h-12.8
				c28.2,37.2,72.6,61.3,122.6,61.5h0.7c23.5,0,46.2-5.2,66.8-15H-161.2z M-343.1,940.7c0.2-1.3,0.3-2.7,0.5-4h-10.1
				c-0.9,6.8-1.4,13.7-1.4,20.7c0,23.1,5,45.2,14.1,64.9h11.1c-9.8-19.6-15.2-41.6-15.2-64.9C-344.1,951.8-343.7,946.2-343.1,940.7z
				 M-54.1,959.2c-0.1,11.9-1.6,23.5-4.5,34.7c-1.4,5.3-3,10.5-4.9,15.6c-7.2,18.9-18.5,36.3-33.3,51.1
				c-7.8,7.8-16.4,14.5-25.5,20.2c-1.7,1-3.3,2-5,3h18.5c6.7-4.8,13.1-10.2,19-16.2c14.7-14.6,26.1-31.6,33.8-50.1
				c1.1-2.6,2.1-5.3,3.1-8c1.8-5.1,3.3-10.3,4.6-15.6c2.7-11.3,4.1-22.9,4.2-34.7H-54.1z"/>
		</g>
		<g id="XMLID_5488_">
			<path id="XMLID_5490_" class="st0" d="M-304.8,897.3c0,20.2,0,40.3,0,60.5h16.3c0-20.2,0-40.3,0-60.5H-304.8z M-97.5,912.8h-16
				c0,10.5,0,21,0,31.5v4c0,10.6,0,21.2,0,31.9c0,10.9-2.4,13.3-13.6,13.3c-49.4,0.1-98.8,0.1-148.2,0c-10.7,0-13.1-2.4-13.2-12.8
				c0-5.5,0-10.9,0-16.4h-16.3c0,12,0,24,0,35.9c0,0.3,0,0.7,0,1.1h16.3v11.7H-302c3.9,7.9,11.9,12.4,22.7,12.4
				c15.8,0,31.6,0.1,47.4,0c4.2,0,7,0.2,6.6,5.8c-0.5,7.5,3.8,10.6,11,10.5c9-0.1,18.1-0.1,27.1,0c6.5,0.1,10.8-3,10.5-9.4
				c-0.3-6.9,3.1-6.9,8.2-6.9c16.1,0.2,32.2,0.3,48.3,0c4.7-0.1,9-1.5,12.6-3.8h-15.8v-4.6c-3.3-0.8-5.6-3.3-5.4-7.8
				c0.2-5.3,3.7-6.9,8-7.9c2.4,0.7,4.4,1.6,5.7,3.1h17.6c0.1-0.8,0.1-1.5,0.1-2.3c0-17.9,0.1-35.9,0.1-53.8v-4
				C-97.5,933.8-97.5,923.3-97.5,912.8z M-268.1,882.4c22.4,0,44.8,0,67.2,0c24.9,0,49.7,0,74.5,0c10.6,0,12.8,2.4,12.8,13v4.9h16
				c0-3.6,0-7.2,0-10.8c0-13.1-9.2-22.4-22.3-22.4c-27.1,0-54.2,0-81.3,0c-26.5,0-53.1,0-79.6,0c-9.7,0-16.9,3.6-20.8,10.2h33.3
				V882.4z"/>
			<path id="XMLID_5489_" class="st0" d="M-201.8,1065.7c-18.1,0-36.1,0.2-54.2-0.1c-3.3-0.1-9.2,3.2-9.1-4.6
				c0.1-6.4,2.5-10.8,9.3-11.9c1.1-0.2,2.3,0,3.4,0c34.4,0,68.8,0,103.2,0c1.7,0,3.4-0.2,5.1,0.2c6.9,1.5,7.2,6.7,7.1,12.5
				c-0.2,6.6-5.1,3.9-8,4C-164,1065.8-182.9,1065.7-201.8,1065.7z"/>
		</g>
		<path id="XMLID_5487_" class="st0" d="M-94.5,908.8h-16c0-4.2,0-8.3,0-12.5h16C-94.5,900.5-94.5,904.6-94.5,908.8z"/>
		<path id="XMLID_5486_" class="st0" d="M-90.6,1008.5c-0.7,7.3-4.5,13.5-10.1,17.2h-15.8v-4.6c0.7,0.2,1.4,0.3,2.2,0.3
			c4.3,0.2,7.4-2.7,7.8-7.2c0.2-2.5-0.4-4.3-1.7-5.7H-90.6z"/>
		<path id="XMLID_5485_" class="st0" d="M-276.1,872.3v5.1c-2.5,0-4.9,0-7.4,0c-11,0-13,1.9-13,12.8v2.1h-16.3v-6.2
			c0-5.5,1.2-10.1,3.4-13.8H-276.1z"/>
		<path id="XMLID_5484_" class="st0" d="M-304.5,964.4h-16.3c0-2.2,0-4.4,0-6.6h16.3C-304.5,960-304.5,962.2-304.5,964.4z"/>
		<path id="XMLID_5483_" class="st0" d="M-288.5,964.4c0-2.2,0-4.4,0-6.5"/>
		<rect id="XMLID_5482_" x="-113.5" y="944.3" class="st0" width="16" height="4"/>
		<path id="XMLID_5481_" class="st0" d="M-96.1,847.8h-15.2c-21.3-17.2-47.6-28.5-76.3-31.3v-0.7h40.4
			C-128.1,823.1-110.7,834.1-96.1,847.8z"/>
		<path id="XMLID_5480_" class="st0" d="M-325.9,901.3c-5.7,12.4-9.6,25.7-11.6,39.4h-10.1c1.8-13.6,5.5-26.9,10.8-39.4H-325.9z"/>
		<path id="XMLID_5479_" class="st0" d="M-317.8,1046.3h-12.8c-6.8-9-12.6-18.7-17.4-29h11.1
			C-331.7,1027.8-325.2,1037.5-317.8,1046.3z"/>
		<path id="XMLID_5478_" class="st0" d="M-111.8,1080.8c-7.5,5.4-15.4,10.1-23.7,14h-28.8c11.9-3.2,23.3-7.9,33.9-14H-111.8z"/>
		<path id="XMLID_5477_" class="st0" d="M-37.1,958.3c0,0.3,0,0.6,0,0.9h-10c0-0.3,0-0.6,0-0.9c0-4.7-0.2-9.3-0.6-13.9h10
			C-37.3,948.9-37.1,953.6-37.1,958.3z"/>
		<path id="XMLID_5476_" class="st0" d="M-48.2,993.9c-1.3,5.3-2.8,10.5-4.6,15.6h-10.7c1.9-5.1,3.6-10.3,4.9-15.6H-48.2z"/>
		<path id="XMLID_5475_" class="st0" d="M-287.4,842.8c-3.3,2.5-6.4,5.2-9.5,8h-14.3l8.3-8H-287.4z"/>
		<path id="XMLID_5474_" class="st0" d="M-287.4,842.8l-9.5,8C-293.8,848-290.6,845.3-287.4,842.8z"/>
		<rect id="XMLID_5473_" x="-92" y="912.8" class="st0" width="7.3" height="4.4"/>
		<rect id="XMLID_5472_" x="-97.6" y="1004.5" class="st0" width="16.6" height="4"/>
		<rect id="XMLID_5471_" x="-120.7" y="1011.4" class="st0" width="3.2" height="1.9"/>
		<rect id="XMLID_5470_" x="-116.5" y="1038.3" class="st0" width="4.7" height="2.8"/>
		<rect id="XMLID_5469_" x="-271.4" y="945.8" class="st0" width="18.7" height="9.3"/>
		<rect id="XMLID_5468_" x="-238.1" y="931.8" class="st0" width="10.5" height="2"/>
		<rect id="XMLID_5467_" x="-220.7" y="949.7" class="st0" width="13.9" height="5.4"/>
		<rect id="XMLID_5466_" x="-179.4" y="917.2" class="st0" width="15.2" height="3"/>
		<rect id="XMLID_5465_" x="-132.5" y="908.8" class="st0" width="9.1" height="4"/>
		<rect id="XMLID_5464_" x="-280.3" y="892.3" class="st0" width="8.9" height="5.5"/>
		<rect id="XMLID_5463_" x="-322.6" y="908.8" class="st0" width="5.9" height="7"/>
		<rect id="XMLID_5462_" x="-358.5" y="902.6" class="st0" width="10.2" height="2.6"/>
		<rect id="XMLID_5461_" x="-358.5" y="927.6" class="st0" width="10.2" height="3.3"/>
		<rect id="XMLID_5460_" x="-367.4" y="1028.9" class="st0" width="6.7" height="9.4"/>
		<rect id="XMLID_5459_" x="-347.7" y="1043.8" class="st0" width="10.8" height="5"/>
		<rect id="XMLID_5458_" x="-314.5" y="1033.6" class="st0" width="8" height="4.7"/>
		<rect id="XMLID_5457_" x="-164.2" y="1082.1" class="st0" width="10.2" height="5.8"/>
		<rect id="XMLID_5456_" x="-123.4" y="1100.8" class="st0" width="6.8" height="6.7"/>
		<rect id="XMLID_5455_" x="-199.5" y="981.1" class="st0" width="2.8" height="3.2"/>
		<rect id="XMLID_5454_" x="-167.4" y="961.1" class="st0" width="8.2" height="7.3"/>
		<rect id="XMLID_5453_" x="-138" y="942.6" class="st0" width="5.5" height="3.8"/>
		<rect id="XMLID_5452_" x="-312.8" y="1001.7" class="st0" width="4.7" height="4.7"/>
		<rect id="XMLID_5451_" x="-135.2" y="850.8" class="st0" width="14.5" height="3"/>
		<rect id="XMLID_5450_" x="-171.8" y="825.5" class="st0" width="12.7" height="14.3"/>
		<rect id="XMLID_5449_" x="-110.5" y="814.8" class="st0" width="22.2" height="5.5"/>
	</g>
	<g id="XMLID_5503_">
		<g id="XMLID_5549_">
			<path id="XMLID_5550_" class="st0" d="M-94.1,844.8h-15.2c1.2,1,2.4,2,3.6,3c27.7,23.9,46.4,58,50,96.5h10
				C-49.1,905.3-67,870.3-94.1,844.8z M-309.4,848c-0.9,0.9-1.9,1.9-2.8,2.8l8.3-8C-305.8,844.5-307.6,846.2-309.4,848z
				 M-199.2,802.8h-0.7c-38.8,0-75.5,14.1-104.1,40h15.6c25.3-19.5,56.1-30,88.5-30h0.6c4.6,0,9.2,0.3,13.7,0.7v-0.7h40.4
				C-162,806.4-180.2,802.9-199.2,802.8z M-312.2,850.8c-13.1,13.7-23.5,29.5-30.7,46.5h10.9c7.1-15.5,17.1-29.8,29.6-42.2
				c1.5-1.5,3-2.9,4.5-4.3H-312.2z M-162.2,1097.8c-12.2,3.3-25,5-38,5h-0.6c-44-0.2-83.4-20.2-109.9-51.5h-12.8
				c28.2,37.2,72.6,61.3,122.6,61.5h0.7c23.5,0,46.2-5.2,66.8-15H-162.2z M-344.1,940.7c0.2-1.3,0.3-2.7,0.5-4h-10.1
				c-0.9,6.8-1.4,13.7-1.4,20.7c0,23.1,5,45.2,14.1,64.9h11.1c-9.8-19.6-15.2-41.6-15.2-64.9C-345.1,951.8-344.7,946.2-344.1,940.7z
				 M-55.1,959.2c-0.1,11.9-1.6,23.5-4.5,34.7c-1.4,5.3-3,10.5-4.9,15.6c-7.2,18.9-18.5,36.3-33.3,51.1
				c-7.8,7.8-16.4,14.5-25.5,20.2c-1.7,1-3.3,2-5,3h18.5c6.7-4.8,13.1-10.2,19-16.2c14.7-14.6,26.1-31.6,33.8-50.1
				c1.1-2.6,2.1-5.3,3.1-8c1.8-5.1,3.3-10.3,4.6-15.6c2.7-11.3,4.1-22.9,4.2-34.7H-55.1z"/>
		</g>
		<g id="XMLID_5543_">
			<path id="XMLID_5545_" class="st0" d="M-305.8,897.3c0,20.2,0,40.3,0,60.5h16.3c0-20.2,0-40.3,0-60.5H-305.8z M-98.5,912.8h-16
				c0,10.5,0,21,0,31.5v4c0,10.6,0,21.2,0,31.9c0,10.9-2.4,13.3-13.6,13.3c-49.4,0.1-98.8,0.1-148.2,0c-10.7,0-13.1-2.4-13.2-12.8
				c0-5.5,0-10.9,0-16.4h-16.3c0,12,0,24,0,35.9c0,0.3,0,0.7,0,1.1h16.3v11.7H-303c3.9,7.9,11.9,12.4,22.7,12.4
				c15.8,0,31.6,0.1,47.4,0c4.2,0,7,0.2,6.6,5.8c-0.5,7.5,3.8,10.6,11,10.5c9-0.1,18.1-0.1,27.1,0c6.5,0.1,10.8-3,10.5-9.4
				c-0.3-6.9,3.1-6.9,8.2-6.9c16.1,0.2,32.2,0.3,48.3,0c4.7-0.1,9-1.5,12.6-3.8h-15.8v-4.6c-3.3-0.8-5.6-3.3-5.4-7.8
				c0.2-5.3,3.7-6.9,8-7.9c2.4,0.7,4.4,1.6,5.7,3.1h17.6c0.1-0.8,0.1-1.5,0.1-2.3c0-17.9,0.1-35.9,0.1-53.8v-4
				C-98.5,933.8-98.5,923.3-98.5,912.8z M-269.1,882.4c22.4,0,44.8,0,67.2,0c24.9,0,49.7,0,74.5,0c10.6,0,12.8,2.4,12.8,13v4.9h16
				c0-3.6,0-7.2,0-10.8c0-13.1-9.2-22.4-22.3-22.4c-27.1,0-54.2,0-81.3,0c-26.5,0-53.1,0-79.6,0c-9.7,0-16.9,3.6-20.8,10.2h33.3
				V882.4z"/>
			<path id="XMLID_5544_" class="st0" d="M-202.8,1065.7c-18.1,0-36.1,0.2-54.2-0.1c-3.3-0.1-9.2,3.2-9.1-4.6
				c0.1-6.4,2.5-10.8,9.3-11.9c1.1-0.2,2.3,0,3.4,0c34.4,0,68.8,0,103.2,0c1.7,0,3.4-0.2,5.1,0.2c6.9,1.5,7.2,6.7,7.1,12.5
				c-0.2,6.6-5.1,3.9-8,4C-165,1065.8-183.9,1065.7-202.8,1065.7z"/>
		</g>
		<path id="XMLID_5542_" class="st0" d="M-95.5,908.8h-16c0-4.2,0-8.3,0-12.5h16C-95.5,900.5-95.5,904.6-95.5,908.8z"/>
		<path id="XMLID_5541_" class="st0" d="M-91.6,1008.5c-0.7,7.3-4.5,13.5-10.1,17.2h-15.8v-4.6c0.7,0.2,1.4,0.3,2.2,0.3
			c4.3,0.2,7.4-2.7,7.8-7.2c0.2-2.5-0.4-4.3-1.7-5.7H-91.6z"/>
		<path id="XMLID_5540_" class="st0" d="M-277.1,872.3v5.1c-2.5,0-4.9,0-7.4,0c-11,0-13,1.9-13,12.8v2.1h-16.3v-6.2
			c0-5.5,1.2-10.1,3.4-13.8H-277.1z"/>
		<path id="XMLID_5539_" class="st0" d="M-305.5,964.4h-16.3c0-2.2,0-4.4,0-6.6h16.3C-305.5,960-305.5,962.2-305.5,964.4z"/>
		<path id="XMLID_5538_" class="st0" d="M-289.5,964.4c0-2.2,0-4.4,0-6.5"/>
		<rect id="XMLID_5537_" x="-114.5" y="944.3" class="st0" width="16" height="4"/>
		<path id="XMLID_5536_" class="st0" d="M-97.1,847.8h-15.2c-21.3-17.2-47.6-28.5-76.3-31.3v-0.7h40.4
			C-129.1,823.1-111.7,834.1-97.1,847.8z"/>
		<path id="XMLID_5535_" class="st0" d="M-326.9,901.3c-5.7,12.4-9.6,25.7-11.6,39.4h-10.1c1.8-13.6,5.5-26.9,10.8-39.4H-326.9z"/>
		<path id="XMLID_5534_" class="st0" d="M-318.8,1046.3h-12.8c-6.8-9-12.6-18.7-17.4-29h11.1
			C-332.7,1027.8-326.2,1037.5-318.8,1046.3z"/>
		<path id="XMLID_5533_" class="st0" d="M-112.8,1080.8c-7.5,5.4-15.4,10.1-23.7,14h-28.8c11.9-3.2,23.3-7.9,33.9-14H-112.8z"/>
		<path id="XMLID_5532_" class="st0" d="M-38.1,958.3c0,0.3,0,0.6,0,0.9h-10c0-0.3,0-0.6,0-0.9c0-4.7-0.2-9.3-0.6-13.9h10
			C-38.3,948.9-38.1,953.6-38.1,958.3z"/>
		<path id="XMLID_5531_" class="st0" d="M-49.2,993.9c-1.3,5.3-2.8,10.5-4.6,15.6h-10.7c1.9-5.1,3.6-10.3,4.9-15.6H-49.2z"/>
		<path id="XMLID_5530_" class="st0" d="M-288.4,842.8c-3.3,2.5-6.4,5.2-9.5,8h-14.3l8.3-8H-288.4z"/>
		<path id="XMLID_5529_" class="st0" d="M-288.4,842.8l-9.5,8C-294.8,848-291.6,845.3-288.4,842.8z"/>
		<rect id="XMLID_5528_" x="-93" y="912.8" class="st0" width="7.3" height="4.4"/>
		<rect id="XMLID_5527_" x="-98.6" y="1004.5" class="st0" width="16.6" height="4"/>
		<rect id="XMLID_5526_" x="-121.7" y="1011.4" class="st0" width="3.2" height="1.9"/>
		<rect id="XMLID_5525_" x="-117.5" y="1038.3" class="st0" width="4.7" height="2.8"/>
		<rect id="XMLID_5524_" x="-272.4" y="945.8" class="st0" width="18.7" height="9.3"/>
		<rect id="XMLID_5523_" x="-239.1" y="931.8" class="st0" width="10.5" height="2"/>
		<rect id="XMLID_5522_" x="-221.7" y="949.7" class="st0" width="13.9" height="5.4"/>
		<rect id="XMLID_5521_" x="-180.4" y="917.2" class="st0" width="15.2" height="3"/>
		<rect id="XMLID_5520_" x="-133.5" y="908.8" class="st0" width="9.1" height="4"/>
		<rect id="XMLID_5519_" x="-281.3" y="892.3" class="st0" width="8.9" height="5.5"/>
		<rect id="XMLID_5518_" x="-323.6" y="908.8" class="st0" width="5.9" height="7"/>
		<rect id="XMLID_5517_" x="-359.5" y="902.6" class="st0" width="10.2" height="2.6"/>
		<rect id="XMLID_5516_" x="-359.5" y="927.6" class="st0" width="10.2" height="3.3"/>
		<rect id="XMLID_5515_" x="-368.4" y="1028.9" class="st0" width="6.7" height="9.4"/>
		<rect id="XMLID_5514_" x="-348.7" y="1043.8" class="st0" width="10.8" height="5"/>
		<rect id="XMLID_5513_" x="-315.5" y="1033.6" class="st0" width="8" height="4.7"/>
		<rect id="XMLID_5512_" x="-165.2" y="1082.1" class="st0" width="10.2" height="5.8"/>
		<rect id="XMLID_5511_" x="-124.4" y="1100.8" class="st0" width="6.8" height="6.7"/>
		<rect id="XMLID_5510_" x="-200.5" y="981.1" class="st0" width="2.8" height="3.2"/>
		<rect id="XMLID_5509_" x="-168.4" y="961.1" class="st0" width="8.2" height="7.3"/>
		<rect id="XMLID_5508_" x="-139" y="942.6" class="st0" width="5.5" height="3.8"/>
		<rect id="XMLID_5507_" x="-313.8" y="1001.7" class="st0" width="4.7" height="4.7"/>
		<rect id="XMLID_5506_" x="-136.2" y="850.8" class="st0" width="14.5" height="3"/>
		<rect id="XMLID_5505_" x="-172.8" y="825.5" class="st0" width="12.7" height="14.3"/>
		<rect id="XMLID_5504_" x="-111.5" y="814.8" class="st0" width="22.2" height="5.5"/>
	</g>
	<g id="XMLID_5558_">
		<g id="XMLID_5604_">
			<path id="XMLID_5605_" class="st0" d="M-95.1,844.8h-15.2c1.2,1,2.4,2,3.6,3c27.7,23.9,46.4,58,50,96.5h10
				C-50.1,905.3-68,870.3-95.1,844.8z M-310.4,848c-0.9,0.9-1.9,1.9-2.8,2.8l8.3-8C-306.8,844.5-308.6,846.2-310.4,848z
				 M-200.2,802.8h-0.7c-38.8,0-75.5,14.1-104.1,40h15.6c25.3-19.5,56.1-30,88.5-30h0.6c4.6,0,9.2,0.3,13.7,0.7v-0.7h40.4
				C-163,806.4-181.2,802.9-200.2,802.8z M-313.2,850.8c-13.1,13.7-23.5,29.5-30.7,46.5h10.9c7.1-15.5,17.1-29.8,29.6-42.2
				c1.5-1.5,3-2.9,4.5-4.3H-313.2z M-163.2,1097.8c-12.2,3.3-25,5-38,5h-0.6c-44-0.2-83.4-20.2-109.9-51.5h-12.8
				c28.2,37.2,72.6,61.3,122.6,61.5h0.7c23.5,0,46.2-5.2,66.8-15H-163.2z M-345.1,940.7c0.2-1.3,0.3-2.7,0.5-4h-10.1
				c-0.9,6.8-1.4,13.7-1.4,20.7c0,23.1,5,45.2,14.1,64.9h11.1c-9.8-19.6-15.2-41.6-15.2-64.9C-346.1,951.8-345.7,946.2-345.1,940.7z
				 M-56.1,959.2c-0.1,11.9-1.6,23.5-4.5,34.7c-1.4,5.3-3,10.5-4.9,15.6c-7.2,18.9-18.5,36.3-33.3,51.1
				c-7.8,7.8-16.4,14.5-25.5,20.2c-1.7,1-3.3,2-5,3h18.5c6.7-4.8,13.1-10.2,19-16.2c14.7-14.6,26.1-31.6,33.8-50.1
				c1.1-2.6,2.1-5.3,3.1-8c1.8-5.1,3.3-10.3,4.6-15.6c2.7-11.3,4.1-22.9,4.2-34.7H-56.1z"/>
		</g>
		<g id="XMLID_5598_">
			<path id="XMLID_5600_" class="st0" d="M-306.8,897.3c0,20.2,0,40.3,0,60.5h16.3c0-20.2,0-40.3,0-60.5H-306.8z M-99.5,912.8h-16
				c0,10.5,0,21,0,31.5v4c0,10.6,0,21.2,0,31.9c0,10.9-2.4,13.3-13.6,13.3c-49.4,0.1-98.8,0.1-148.2,0c-10.7,0-13.1-2.4-13.2-12.8
				c0-5.5,0-10.9,0-16.4h-16.3c0,12,0,24,0,35.9c0,0.3,0,0.7,0,1.1h16.3v11.7H-304c3.9,7.9,11.9,12.4,22.7,12.4
				c15.8,0,31.6,0.1,47.4,0c4.2,0,7,0.2,6.6,5.8c-0.5,7.5,3.8,10.6,11,10.5c9-0.1,18.1-0.1,27.1,0c6.5,0.1,10.8-3,10.5-9.4
				c-0.3-6.9,3.1-6.9,8.2-6.9c16.1,0.2,32.2,0.3,48.3,0c4.7-0.1,9-1.5,12.6-3.8h-15.8v-4.6c-3.3-0.8-5.6-3.3-5.4-7.8
				c0.2-5.3,3.7-6.9,8-7.9c2.4,0.7,4.4,1.6,5.7,3.1h17.6c0.1-0.8,0.1-1.5,0.1-2.3c0-17.9,0.1-35.9,0.1-53.8v-4
				C-99.5,933.8-99.5,923.3-99.5,912.8z M-270.1,882.4c22.4,0,44.8,0,67.2,0c24.9,0,49.7,0,74.5,0c10.6,0,12.8,2.4,12.8,13v4.9h16
				c0-3.6,0-7.2,0-10.8c0-13.1-9.2-22.4-22.3-22.4c-27.1,0-54.2,0-81.3,0c-26.5,0-53.1,0-79.6,0c-9.7,0-16.9,3.6-20.8,10.2h33.3
				V882.4z"/>
			<path id="XMLID_5599_" class="st0" d="M-203.8,1065.7c-18.1,0-36.1,0.2-54.2-0.1c-3.3-0.1-9.2,3.2-9.1-4.6
				c0.1-6.4,2.5-10.8,9.3-11.9c1.1-0.2,2.3,0,3.4,0c34.4,0,68.8,0,103.2,0c1.7,0,3.4-0.2,5.1,0.2c6.9,1.5,7.2,6.7,7.1,12.5
				c-0.2,6.6-5.1,3.9-8,4C-166,1065.8-184.9,1065.7-203.8,1065.7z"/>
		</g>
		<path id="XMLID_5597_" class="st0" d="M-96.5,908.8h-16c0-4.2,0-8.3,0-12.5h16C-96.5,900.5-96.5,904.6-96.5,908.8z"/>
		<path id="XMLID_5596_" class="st0" d="M-92.6,1008.5c-0.7,7.3-4.5,13.5-10.1,17.2h-15.8v-4.6c0.7,0.2,1.4,0.3,2.2,0.3
			c4.3,0.2,7.4-2.7,7.8-7.2c0.2-2.5-0.4-4.3-1.7-5.7H-92.6z"/>
		<path id="XMLID_5595_" class="st0" d="M-278.1,872.3v5.1c-2.5,0-4.9,0-7.4,0c-11,0-13,1.9-13,12.8v2.1h-16.3v-6.2
			c0-5.5,1.2-10.1,3.4-13.8H-278.1z"/>
		<path id="XMLID_5594_" class="st0" d="M-306.5,964.4h-16.3c0-2.2,0-4.4,0-6.6h16.3C-306.5,960-306.5,962.2-306.5,964.4z"/>
		<path id="XMLID_5593_" class="st0" d="M-290.5,964.4c0-2.2,0-4.4,0-6.5"/>
		<rect id="XMLID_5592_" x="-115.5" y="944.3" class="st0" width="16" height="4"/>
		<path id="XMLID_5591_" class="st0" d="M-98.1,847.8h-15.2c-21.3-17.2-47.6-28.5-76.3-31.3v-0.7h40.4
			C-130.1,823.1-112.7,834.1-98.1,847.8z"/>
		<path id="XMLID_5590_" class="st0" d="M-327.9,901.3c-5.7,12.4-9.6,25.7-11.6,39.4h-10.1c1.8-13.6,5.5-26.9,10.8-39.4H-327.9z"/>
		<path id="XMLID_5589_" class="st0" d="M-319.8,1046.3h-12.8c-6.8-9-12.6-18.7-17.4-29h11.1
			C-333.7,1027.8-327.2,1037.5-319.8,1046.3z"/>
		<path id="XMLID_5588_" class="st0" d="M-113.8,1080.8c-7.5,5.4-15.4,10.1-23.7,14h-28.8c11.9-3.2,23.3-7.9,33.9-14H-113.8z"/>
		<path id="XMLID_5587_" class="st0" d="M-39.1,958.3c0,0.3,0,0.6,0,0.9h-10c0-0.3,0-0.6,0-0.9c0-4.7-0.2-9.3-0.6-13.9h10
			C-39.3,948.9-39.1,953.6-39.1,958.3z"/>
		<path id="XMLID_5586_" class="st0" d="M-50.2,993.9c-1.3,5.3-2.8,10.5-4.6,15.6h-10.7c1.9-5.1,3.6-10.3,4.9-15.6H-50.2z"/>
		<path id="XMLID_5585_" class="st0" d="M-289.4,842.8c-3.3,2.5-6.4,5.2-9.5,8h-14.3l8.3-8H-289.4z"/>
		<path id="XMLID_5584_" class="st0" d="M-289.4,842.8l-9.5,8C-295.8,848-292.6,845.3-289.4,842.8z"/>
		<rect id="XMLID_5583_" x="-94" y="912.8" class="st0" width="7.3" height="4.4"/>
		<rect id="XMLID_5582_" x="-99.6" y="1004.5" class="st0" width="16.6" height="4"/>
		<rect id="XMLID_5581_" x="-122.7" y="1011.4" class="st0" width="3.2" height="1.9"/>
		<rect id="XMLID_5580_" x="-118.5" y="1038.3" class="st0" width="4.7" height="2.8"/>
		<rect id="XMLID_5579_" x="-273.4" y="945.8" class="st0" width="18.7" height="9.3"/>
		<rect id="XMLID_5578_" x="-240.1" y="931.8" class="st0" width="10.5" height="2"/>
		<rect id="XMLID_5577_" x="-222.7" y="949.7" class="st0" width="13.9" height="5.4"/>
		<rect id="XMLID_5576_" x="-181.4" y="917.2" class="st0" width="15.2" height="3"/>
		<rect id="XMLID_5575_" x="-134.5" y="908.8" class="st0" width="9.1" height="4"/>
		<rect id="XMLID_5574_" x="-282.3" y="892.3" class="st0" width="8.9" height="5.5"/>
		<rect id="XMLID_5573_" x="-324.6" y="908.8" class="st0" width="5.9" height="7"/>
		<rect id="XMLID_5572_" x="-360.5" y="902.6" class="st0" width="10.2" height="2.6"/>
		<rect id="XMLID_5571_" x="-360.5" y="927.6" class="st0" width="10.2" height="3.3"/>
		<rect id="XMLID_5570_" x="-369.4" y="1028.9" class="st0" width="6.7" height="9.4"/>
		<rect id="XMLID_5569_" x="-349.7" y="1043.8" class="st0" width="10.8" height="5"/>
		<rect id="XMLID_5568_" x="-316.5" y="1033.6" class="st0" width="8" height="4.7"/>
		<rect id="XMLID_5567_" x="-166.2" y="1082.1" class="st0" width="10.2" height="5.8"/>
		<rect id="XMLID_5566_" x="-125.4" y="1100.8" class="st0" width="6.8" height="6.7"/>
		<rect id="XMLID_5565_" x="-201.5" y="981.1" class="st0" width="2.8" height="3.2"/>
		<rect id="XMLID_5564_" x="-169.4" y="961.1" class="st0" width="8.2" height="7.3"/>
		<rect id="XMLID_5563_" x="-140" y="942.6" class="st0" width="5.5" height="3.8"/>
		<rect id="XMLID_5562_" x="-314.8" y="1001.7" class="st0" width="4.7" height="4.7"/>
		<rect id="XMLID_5561_" x="-137.2" y="850.8" class="st0" width="14.5" height="3"/>
		<rect id="XMLID_5560_" x="-173.8" y="825.5" class="st0" width="12.7" height="14.3"/>
		<rect id="XMLID_5559_" x="-112.5" y="814.8" class="st0" width="22.2" height="5.5"/>
	</g>
	<g id="XMLID_5613_">
		<g id="XMLID_5659_">
			<path id="XMLID_5660_" class="st0" d="M-96.1,844.8h-15.2c1.2,1,2.4,2,3.6,3c27.7,23.9,46.4,58,50,96.5h10
				C-51.1,905.3-69,870.3-96.1,844.8z M-311.4,848c-0.9,0.9-1.9,1.9-2.8,2.8l8.3-8C-307.8,844.5-309.6,846.2-311.4,848z
				 M-201.2,802.8h-0.7c-38.8,0-75.5,14.1-104.1,40h15.6c25.3-19.5,56.1-30,88.5-30h0.6c4.6,0,9.2,0.3,13.7,0.7v-0.7h40.4
				C-164,806.4-182.2,802.9-201.2,802.8z M-314.2,850.8c-13.1,13.7-23.5,29.5-30.7,46.5h10.9c7.1-15.5,17.1-29.8,29.6-42.2
				c1.5-1.5,3-2.9,4.5-4.3H-314.2z M-164.2,1097.8c-12.2,3.3-25,5-38,5h-0.6c-44-0.2-83.4-20.2-109.9-51.5h-12.8
				c28.2,37.2,72.6,61.3,122.6,61.5h0.7c23.5,0,46.2-5.2,66.8-15H-164.2z M-346.1,940.7c0.2-1.3,0.3-2.7,0.5-4h-10.1
				c-0.9,6.8-1.4,13.7-1.4,20.7c0,23.1,5,45.2,14.1,64.9h11.1c-9.8-19.6-15.2-41.6-15.2-64.9C-347.1,951.8-346.7,946.2-346.1,940.7z
				 M-57.1,959.2c-0.1,11.9-1.6,23.5-4.5,34.7c-1.4,5.3-3,10.5-4.9,15.6c-7.2,18.9-18.5,36.3-33.3,51.1
				c-7.8,7.8-16.4,14.5-25.5,20.2c-1.7,1-3.3,2-5,3h18.5c6.7-4.8,13.1-10.2,19-16.2c14.7-14.6,26.1-31.6,33.8-50.1
				c1.1-2.6,2.1-5.3,3.1-8c1.8-5.1,3.3-10.3,4.6-15.6c2.7-11.3,4.1-22.9,4.2-34.7H-57.1z"/>
		</g>
		<g id="XMLID_5653_">
			<path id="XMLID_5655_" class="st0" d="M-307.8,897.3c0,20.2,0,40.3,0,60.5h16.3c0-20.2,0-40.3,0-60.5H-307.8z M-100.5,912.8h-16
				c0,10.5,0,21,0,31.5v4c0,10.6,0,21.2,0,31.9c0,10.9-2.4,13.3-13.6,13.3c-49.4,0.1-98.8,0.1-148.2,0c-10.7,0-13.1-2.4-13.2-12.8
				c0-5.5,0-10.9,0-16.4h-16.3c0,12,0,24,0,35.9c0,0.3,0,0.7,0,1.1h16.3v11.7H-305c3.9,7.9,11.9,12.4,22.7,12.4
				c15.8,0,31.6,0.1,47.4,0c4.2,0,7,0.2,6.6,5.8c-0.5,7.5,3.8,10.6,11,10.5c9-0.1,18.1-0.1,27.1,0c6.5,0.1,10.8-3,10.5-9.4
				c-0.3-6.9,3.1-6.9,8.2-6.9c16.1,0.2,32.2,0.3,48.3,0c4.7-0.1,9-1.5,12.6-3.8h-15.8v-4.6c-3.3-0.8-5.6-3.3-5.4-7.8
				c0.2-5.3,3.8-6.9,8-7.9c2.4,0.7,4.4,1.6,5.7,3.1h17.6c0.1-0.8,0.1-1.5,0.1-2.3c0-17.9,0.1-35.9,0.1-53.8v-4
				C-100.5,933.8-100.5,923.3-100.5,912.8z M-271.1,882.4c22.4,0,44.8,0,67.2,0c24.9,0,49.7,0,74.5,0c10.6,0,12.8,2.4,12.8,13v4.9
				h16c0-3.6,0-7.2,0-10.8c0-13.1-9.2-22.4-22.3-22.4c-27.1,0-54.2,0-81.3,0c-26.5,0-53.1,0-79.6,0c-9.7,0-16.9,3.6-20.8,10.2h33.3
				V882.4z"/>
			<path id="XMLID_5654_" class="st0" d="M-204.8,1065.7c-18.1,0-36.1,0.2-54.2-0.1c-3.3-0.1-9.2,3.2-9.1-4.6
				c0.1-6.4,2.5-10.8,9.3-11.9c1.1-0.2,2.3,0,3.4,0c34.4,0,68.8,0,103.2,0c1.7,0,3.4-0.2,5.1,0.2c6.9,1.5,7.2,6.7,7.1,12.5
				c-0.2,6.6-5.1,3.9-8,4C-167,1065.8-185.9,1065.7-204.8,1065.7z"/>
		</g>
		<path id="XMLID_5652_" class="st0" d="M-97.5,908.8h-16c0-4.2,0-8.3,0-12.5h16C-97.5,900.5-97.5,904.6-97.5,908.8z"/>
		<path id="XMLID_5651_" class="st0" d="M-93.6,1008.5c-0.7,7.3-4.5,13.5-10.1,17.2h-15.8v-4.6c0.7,0.2,1.4,0.3,2.2,0.3
			c4.3,0.2,7.4-2.7,7.8-7.2c0.2-2.5-0.4-4.3-1.7-5.7H-93.6z"/>
		<path id="XMLID_5650_" class="st0" d="M-279.1,872.3v5.1c-2.5,0-4.9,0-7.4,0c-11,0-13,1.9-13,12.8v2.1h-16.3v-6.2
			c0-5.5,1.2-10.1,3.4-13.8H-279.1z"/>
		<path id="XMLID_5649_" class="st0" d="M-307.5,964.4h-16.3c0-2.2,0-4.4,0-6.6h16.3C-307.5,960-307.5,962.2-307.5,964.4z"/>
		<path id="XMLID_5648_" class="st0" d="M-291.5,964.4c0-2.2,0-4.4,0-6.5"/>
		<rect id="XMLID_5647_" x="-116.5" y="944.3" class="st0" width="16" height="4"/>
		<path id="XMLID_5646_" class="st0" d="M-99.1,847.8h-15.2c-21.3-17.2-47.6-28.5-76.3-31.3v-0.7h40.4
			C-131.1,823.1-113.7,834.1-99.1,847.8z"/>
		<path id="XMLID_5645_" class="st0" d="M-328.9,901.3c-5.7,12.4-9.6,25.7-11.6,39.4h-10.1c1.8-13.6,5.5-26.9,10.8-39.4H-328.9z"/>
		<path id="XMLID_5644_" class="st0" d="M-320.8,1046.3h-12.8c-6.8-9-12.6-18.7-17.4-29h11.1
			C-334.7,1027.8-328.2,1037.5-320.8,1046.3z"/>
		<path id="XMLID_5643_" class="st0" d="M-114.8,1080.8c-7.5,5.4-15.4,10.1-23.7,14h-28.8c11.9-3.2,23.3-7.9,33.9-14H-114.8z"/>
		<path id="XMLID_5642_" class="st0" d="M-40.1,958.3c0,0.3,0,0.6,0,0.9h-10c0-0.3,0-0.6,0-0.9c0-4.7-0.2-9.3-0.6-13.9h10
			C-40.3,948.9-40.1,953.6-40.1,958.3z"/>
		<path id="XMLID_5641_" class="st0" d="M-51.2,993.9c-1.3,5.3-2.8,10.5-4.6,15.6h-10.7c1.9-5.1,3.6-10.3,4.9-15.6H-51.2z"/>
		<path id="XMLID_5640_" class="st0" d="M-290.4,842.8c-3.3,2.5-6.4,5.2-9.5,8h-14.3l8.3-8H-290.4z"/>
		<path id="XMLID_5639_" class="st0" d="M-290.4,842.8l-9.5,8C-296.8,848-293.6,845.3-290.4,842.8z"/>
		<rect id="XMLID_5638_" x="-95" y="912.8" class="st0" width="7.3" height="4.4"/>
		<rect id="XMLID_5637_" x="-100.6" y="1004.5" class="st0" width="16.6" height="4"/>
		<rect id="XMLID_5636_" x="-123.7" y="1011.4" class="st0" width="3.2" height="1.9"/>
		<rect id="XMLID_5635_" x="-119.5" y="1038.3" class="st0" width="4.7" height="2.8"/>
		<rect id="XMLID_5634_" x="-274.4" y="945.8" class="st0" width="18.7" height="9.3"/>
		<rect id="XMLID_5633_" x="-241.1" y="931.8" class="st0" width="10.5" height="2"/>
		<rect id="XMLID_5632_" x="-223.7" y="949.7" class="st0" width="13.9" height="5.4"/>
		<rect id="XMLID_5631_" x="-182.4" y="917.2" class="st0" width="15.2" height="3"/>
		<rect id="XMLID_5630_" x="-135.5" y="908.8" class="st0" width="9.1" height="4"/>
		<rect id="XMLID_5629_" x="-283.3" y="892.3" class="st0" width="8.9" height="5.5"/>
		<rect id="XMLID_5628_" x="-325.6" y="908.8" class="st0" width="5.9" height="7"/>
		<rect id="XMLID_5627_" x="-361.5" y="902.6" class="st0" width="10.2" height="2.6"/>
		<rect id="XMLID_5626_" x="-361.5" y="927.6" class="st0" width="10.2" height="3.3"/>
		<rect id="XMLID_5625_" x="-370.4" y="1028.9" class="st0" width="6.7" height="9.4"/>
		<rect id="XMLID_5624_" x="-350.7" y="1043.8" class="st0" width="10.8" height="5"/>
		<rect id="XMLID_5623_" x="-317.5" y="1033.6" class="st0" width="8" height="4.7"/>
		<rect id="XMLID_5622_" x="-167.2" y="1082.1" class="st0" width="10.2" height="5.8"/>
		<rect id="XMLID_5621_" x="-126.4" y="1100.8" class="st0" width="6.8" height="6.7"/>
		<rect id="XMLID_5620_" x="-202.5" y="981.1" class="st0" width="2.8" height="3.2"/>
		<rect id="XMLID_5619_" x="-170.4" y="961.1" class="st0" width="8.2" height="7.3"/>
		<rect id="XMLID_5618_" x="-141" y="942.6" class="st0" width="5.5" height="3.8"/>
		<rect id="XMLID_5617_" x="-315.8" y="1001.7" class="st0" width="4.7" height="4.7"/>
		<rect id="XMLID_5616_" x="-138.2" y="850.8" class="st0" width="14.5" height="3"/>
		<rect id="XMLID_5615_" x="-174.8" y="825.5" class="st0" width="12.7" height="14.3"/>
		<rect id="XMLID_5614_" x="-113.5" y="814.8" class="st0" width="22.2" height="5.5"/>
	</g>
	<g id="XMLID_5668_">
		<g id="XMLID_5714_">
			<path id="XMLID_5715_" class="st0" d="M-97.1,844.8h-15.2c1.2,1,2.4,2,3.6,3c27.7,23.9,46.4,58,50,96.5h10
				C-52.1,905.3-70,870.3-97.1,844.8z M-312.4,848c-0.9,0.9-1.9,1.9-2.8,2.8l8.3-8C-308.8,844.5-310.6,846.2-312.4,848z
				 M-202.2,802.8h-0.7c-38.8,0-75.5,14.1-104.1,40h15.6c25.3-19.5,56.1-30,88.5-30h0.6c4.6,0,9.2,0.3,13.7,0.7v-0.7h40.4
				C-165,806.4-183.2,802.9-202.2,802.8z M-315.2,850.8c-13.1,13.7-23.5,29.5-30.7,46.5h10.9c7.1-15.5,17.1-29.8,29.6-42.2
				c1.5-1.5,3-2.9,4.5-4.3H-315.2z M-165.2,1097.8c-12.2,3.3-25,5-38,5h-0.6c-44-0.2-83.4-20.2-109.9-51.5h-12.8
				c28.2,37.2,72.6,61.3,122.6,61.5h0.7c23.5,0,46.2-5.2,66.8-15H-165.2z M-347.1,940.7c0.2-1.3,0.3-2.7,0.5-4h-10.1
				c-0.9,6.8-1.4,13.7-1.4,20.7c0,23.1,5,45.2,14.1,64.9h11.1c-9.8-19.6-15.2-41.6-15.2-64.9C-348.1,951.8-347.7,946.2-347.1,940.7z
				 M-58.1,959.2c-0.1,11.9-1.6,23.5-4.5,34.7c-1.4,5.3-3,10.5-4.9,15.6c-7.2,18.9-18.5,36.3-33.3,51.1
				c-7.8,7.8-16.4,14.5-25.5,20.2c-1.7,1-3.3,2-5,3h18.5c6.7-4.8,13.1-10.2,19-16.2c14.7-14.6,26.1-31.6,33.8-50.1
				c1.1-2.6,2.1-5.3,3.1-8c1.8-5.1,3.3-10.3,4.6-15.6c2.7-11.3,4.1-22.9,4.2-34.7H-58.1z"/>
		</g>
		<g id="XMLID_5708_">
			<path id="XMLID_5710_" class="st0" d="M-308.8,897.3c0,20.2,0,40.3,0,60.5h16.3c0-20.2,0-40.3,0-60.5H-308.8z M-101.5,912.8h-16
				c0,10.5,0,21,0,31.5v4c0,10.6,0,21.2,0,31.9c0,10.9-2.4,13.3-13.6,13.3c-49.4,0.1-98.8,0.1-148.2,0c-10.7,0-13.1-2.4-13.2-12.8
				c0-5.5,0-10.9,0-16.4h-16.3c0,12,0,24,0,35.9c0,0.3,0,0.7,0,1.1h16.3v11.7H-306c3.9,7.9,11.9,12.4,22.7,12.4
				c15.8,0,31.6,0.1,47.4,0c4.2,0,7,0.2,6.6,5.8c-0.5,7.5,3.8,10.6,11,10.5c9-0.1,18.1-0.1,27.1,0c6.5,0.1,10.8-3,10.5-9.4
				c-0.3-6.9,3.1-6.9,8.2-6.9c16.1,0.2,32.2,0.3,48.3,0c4.7-0.1,9-1.5,12.6-3.8h-15.8v-4.6c-3.3-0.8-5.6-3.3-5.4-7.8
				c0.2-5.3,3.8-6.9,8-7.9c2.4,0.7,4.4,1.6,5.7,3.1h17.6c0.1-0.8,0.1-1.5,0.1-2.3c0-17.9,0.1-35.9,0.1-53.8v-4
				C-101.5,933.8-101.5,923.3-101.5,912.8z M-272.1,882.4c22.4,0,44.8,0,67.2,0c24.9,0,49.7,0,74.5,0c10.6,0,12.8,2.4,12.8,13v4.9
				h16c0-3.6,0-7.2,0-10.8c0-13.1-9.2-22.4-22.3-22.4c-27.1,0-54.2,0-81.3,0c-26.5,0-53.1,0-79.6,0c-9.7,0-16.9,3.6-20.8,10.2h33.3
				V882.4z"/>
			<path id="XMLID_5709_" class="st0" d="M-205.8,1065.7c-18.1,0-36.1,0.2-54.2-0.1c-3.3-0.1-9.2,3.2-9.1-4.6
				c0.1-6.4,2.5-10.8,9.3-11.9c1.1-0.2,2.3,0,3.4,0c34.4,0,68.8,0,103.2,0c1.7,0,3.4-0.2,5.1,0.2c6.9,1.5,7.2,6.7,7.1,12.5
				c-0.2,6.6-5.1,3.9-8,4C-168,1065.8-186.9,1065.7-205.8,1065.7z"/>
		</g>
		<path id="XMLID_5707_" class="st0" d="M-98.5,908.8h-16c0-4.2,0-8.3,0-12.5h16C-98.5,900.5-98.5,904.6-98.5,908.8z"/>
		<path id="XMLID_5706_" class="st0" d="M-94.6,1008.5c-0.7,7.3-4.5,13.5-10.1,17.2h-15.8v-4.6c0.7,0.2,1.4,0.3,2.2,0.3
			c4.3,0.2,7.4-2.7,7.8-7.2c0.2-2.5-0.4-4.3-1.7-5.7H-94.6z"/>
		<path id="XMLID_5705_" class="st0" d="M-280.1,872.3v5.1c-2.5,0-4.9,0-7.4,0c-11,0-13,1.9-13,12.8v2.1h-16.3v-6.2
			c0-5.5,1.2-10.1,3.4-13.8H-280.1z"/>
		<path id="XMLID_5704_" class="st0" d="M-308.5,964.4h-16.3c0-2.2,0-4.4,0-6.6h16.3C-308.5,960-308.5,962.2-308.5,964.4z"/>
		<path id="XMLID_5703_" class="st0" d="M-292.5,964.4c0-2.2,0-4.4,0-6.5"/>
		<rect id="XMLID_5702_" x="-117.5" y="944.3" class="st0" width="16" height="4"/>
		<path id="XMLID_5701_" class="st0" d="M-100.1,847.8h-15.2c-21.3-17.2-47.6-28.5-76.3-31.3v-0.7h40.4
			C-132.1,823.1-114.7,834.1-100.1,847.8z"/>
		<path id="XMLID_5700_" class="st0" d="M-329.9,901.3c-5.7,12.4-9.6,25.7-11.6,39.4h-10.1c1.8-13.6,5.5-26.9,10.8-39.4H-329.9z"/>
		<path id="XMLID_5699_" class="st0" d="M-321.8,1046.3h-12.8c-6.8-9-12.6-18.7-17.4-29h11.1
			C-335.7,1027.8-329.2,1037.5-321.8,1046.3z"/>
		<path id="XMLID_5698_" class="st0" d="M-115.8,1080.8c-7.5,5.4-15.4,10.1-23.7,14h-28.8c11.9-3.2,23.3-7.9,33.9-14H-115.8z"/>
		<path id="XMLID_5697_" class="st0" d="M-41.1,958.3c0,0.3,0,0.6,0,0.9h-10c0-0.3,0-0.6,0-0.9c0-4.7-0.2-9.3-0.6-13.9h10
			C-41.3,948.9-41.1,953.6-41.1,958.3z"/>
		<path id="XMLID_5696_" class="st0" d="M-52.2,993.9c-1.3,5.3-2.8,10.5-4.6,15.6h-10.7c1.9-5.1,3.6-10.3,4.9-15.6H-52.2z"/>
		<path id="XMLID_5695_" class="st0" d="M-291.4,842.8c-3.3,2.5-6.4,5.2-9.5,8h-14.3l8.3-8H-291.4z"/>
		<path id="XMLID_5694_" class="st0" d="M-291.4,842.8l-9.5,8C-297.8,848-294.6,845.3-291.4,842.8z"/>
		<rect id="XMLID_5693_" x="-96" y="912.8" class="st0" width="7.3" height="4.4"/>
		<rect id="XMLID_5692_" x="-101.6" y="1004.5" class="st0" width="16.6" height="4"/>
		<rect id="XMLID_5691_" x="-124.7" y="1011.4" class="st0" width="3.2" height="1.9"/>
		<rect id="XMLID_5690_" x="-120.5" y="1038.3" class="st0" width="4.7" height="2.8"/>
		<rect id="XMLID_5689_" x="-275.4" y="945.8" class="st0" width="18.7" height="9.3"/>
		<rect id="XMLID_5688_" x="-242.1" y="931.8" class="st0" width="10.5" height="2"/>
		<rect id="XMLID_5687_" x="-224.7" y="949.7" class="st0" width="13.9" height="5.4"/>
		<rect id="XMLID_5686_" x="-183.4" y="917.2" class="st0" width="15.2" height="3"/>
		<rect id="XMLID_5685_" x="-136.5" y="908.8" class="st0" width="9.1" height="4"/>
		<rect id="XMLID_5684_" x="-284.3" y="892.3" class="st0" width="8.9" height="5.5"/>
		<rect id="XMLID_5683_" x="-326.6" y="908.8" class="st0" width="5.9" height="7"/>
		<rect id="XMLID_5682_" x="-362.5" y="902.6" class="st0" width="10.2" height="2.6"/>
		<rect id="XMLID_5681_" x="-362.5" y="927.6" class="st0" width="10.2" height="3.3"/>
		<rect id="XMLID_5680_" x="-371.4" y="1028.9" class="st0" width="6.7" height="9.4"/>
		<rect id="XMLID_5679_" x="-351.7" y="1043.8" class="st0" width="10.8" height="5"/>
		<rect id="XMLID_5678_" x="-318.5" y="1033.6" class="st0" width="8" height="4.7"/>
		<rect id="XMLID_5677_" x="-168.2" y="1082.1" class="st0" width="10.2" height="5.8"/>
		<rect id="XMLID_5676_" x="-127.4" y="1100.8" class="st0" width="6.8" height="6.7"/>
		<rect id="XMLID_5675_" x="-203.5" y="981.1" class="st0" width="2.8" height="3.2"/>
		<rect id="XMLID_5674_" x="-171.4" y="961.1" class="st0" width="8.2" height="7.3"/>
		<rect id="XMLID_5673_" x="-142" y="942.6" class="st0" width="5.5" height="3.8"/>
		<rect id="XMLID_5672_" x="-316.8" y="1001.7" class="st0" width="4.7" height="4.7"/>
		<rect id="XMLID_5671_" x="-139.2" y="850.8" class="st0" width="14.5" height="3"/>
		<rect id="XMLID_5670_" x="-175.8" y="825.5" class="st0" width="12.7" height="14.3"/>
		<rect id="XMLID_5669_" x="-114.5" y="814.8" class="st0" width="22.2" height="5.5"/>
	</g>
	<g id="XMLID_5794_">
		<g id="XMLID_5840_">
			<path id="XMLID_5841_" class="st1" d="M-90.1,844.8h-15.2c1.2,1,2.4,2,3.6,3c27.7,23.9,46.4,58,50,96.5h10
				C-45.1,905.3-63,870.3-90.1,844.8z M-305.4,848c-0.9,0.9-1.9,1.9-2.8,2.8l8.3-8C-301.8,844.5-303.6,846.2-305.4,848z
				 M-195.2,802.8h-0.7c-38.8,0-75.5,14.1-104.1,40h15.6c25.3-19.5,56.1-30,88.5-30h0.6c4.6,0,9.2,0.3,13.7,0.7v-0.7h40.4
				C-158,806.4-176.2,802.9-195.2,802.8z M-308.2,850.8c-13.1,13.7-23.5,29.5-30.7,46.5h10.9c7.1-15.5,17.1-29.8,29.6-42.2
				c1.5-1.5,3-2.9,4.5-4.3H-308.2z M-158.2,1097.8c-12.2,3.3-25,5-38,5h-0.6c-44-0.2-83.4-20.2-109.9-51.5h-12.8
				c28.2,37.2,72.6,61.3,122.6,61.5h0.7c23.5,0,46.2-5.2,66.8-15H-158.2z M-340.1,940.7c0.2-1.3,0.3-2.7,0.5-4h-10.1
				c-0.9,6.8-1.4,13.7-1.4,20.7c0,23.1,5,45.2,14.1,64.9h11.1c-9.8-19.6-15.2-41.6-15.2-64.9C-341.1,951.8-340.7,946.2-340.1,940.7z
				 M-51.1,959.2c-0.1,11.9-1.6,23.5-4.5,34.7c-1.4,5.3-3,10.5-4.9,15.6c-7.2,18.9-18.5,36.3-33.3,51.1
				c-7.8,7.8-16.4,14.5-25.5,20.2c-1.7,1-3.3,2-5,3h18.5c6.7-4.8,13.1-10.2,19-16.2c14.7-14.6,26.1-31.6,33.8-50.1
				c1.1-2.6,2.1-5.3,3.1-8c1.8-5.1,3.3-10.3,4.6-15.6c2.7-11.3,4.1-22.9,4.2-34.7H-51.1z"/>
		</g>
		<g id="XMLID_5834_">
			<path id="XMLID_5836_" class="st1" d="M-301.8,897.3c0,20.2,0,40.3,0,60.5h16.3c0-20.2,0-40.3,0-60.5H-301.8z M-94.5,912.8h-16
				c0,10.5,0,21,0,31.5v4c0,10.6,0,21.2,0,31.9c0,10.9-2.4,13.3-13.6,13.3c-49.4,0.1-98.8,0.1-148.2,0c-10.7,0-13.1-2.4-13.2-12.8
				c0-5.5,0-10.9,0-16.4h-16.3c0,12,0,24,0,35.9c0,0.3,0,0.7,0,1.1h16.3v11.7H-299c3.9,7.9,11.9,12.4,22.7,12.4
				c15.8,0,31.6,0.1,47.4,0c4.2,0,7,0.2,6.6,5.8c-0.5,7.5,3.8,10.6,11,10.5c9-0.1,18.1-0.1,27.1,0c6.5,0.1,10.8-3,10.5-9.4
				c-0.3-6.9,3.1-6.9,8.2-6.9c16.1,0.2,32.2,0.3,48.3,0c4.7-0.1,9-1.5,12.6-3.8h-15.8v-4.6c-3.3-0.8-5.6-3.3-5.4-7.8
				c0.2-5.3,3.8-6.9,8-7.9c2.4,0.7,4.4,1.6,5.7,3.1h17.6c0.1-0.8,0.1-1.5,0.1-2.3c0-17.9,0.1-35.9,0.1-53.8v-4
				C-94.5,933.8-94.5,923.3-94.5,912.8z M-265.1,882.4c22.4,0,44.8,0,67.2,0c24.9,0,49.7,0,74.5,0c10.6,0,12.8,2.4,12.8,13v4.9h16
				c0-3.6,0-7.2,0-10.8c0-13.1-9.2-22.4-22.3-22.4c-27.1,0-54.2,0-81.3,0c-26.5,0-53.1,0-79.6,0c-9.7,0-16.9,3.6-20.8,10.2h33.3
				V882.4z"/>
			<path id="XMLID_5835_" class="st1" d="M-198.8,1065.7c-18.1,0-36.1,0.2-54.2-0.1c-3.3-0.1-9.2,3.2-9.1-4.6
				c0.1-6.4,2.5-10.8,9.3-11.9c1.1-0.2,2.3,0,3.4,0c34.4,0,68.8,0,103.2,0c1.7,0,3.4-0.2,5.1,0.2c6.9,1.5,7.2,6.7,7.1,12.5
				c-0.2,6.6-5.1,3.9-8,4C-161,1065.8-179.9,1065.7-198.8,1065.7z"/>
		</g>
		<path id="XMLID_5833_" class="st1" d="M-91.5,908.8h-16c0-4.2,0-8.3,0-12.5h16C-91.5,900.5-91.5,904.6-91.5,908.8z"/>
		<path id="XMLID_5832_" class="st1" d="M-87.6,1008.5c-0.7,7.3-4.5,13.5-10.1,17.2h-15.8v-4.6c0.7,0.2,1.4,0.3,2.2,0.3
			c4.3,0.2,7.4-2.7,7.8-7.2c0.2-2.5-0.4-4.3-1.7-5.7H-87.6z"/>
		<path id="XMLID_5831_" class="st1" d="M-273.1,872.3v5.1c-2.5,0-4.9,0-7.4,0c-11,0-13,1.9-13,12.8v2.1h-16.3v-6.2
			c0-5.5,1.2-10.1,3.4-13.8H-273.1z"/>
		<path id="XMLID_5830_" class="st1" d="M-301.5,964.4h-16.3c0-2.2,0-4.4,0-6.6h16.3C-301.5,960-301.5,962.2-301.5,964.4z"/>
		<path id="XMLID_5829_" class="st1" d="M-285.5,964.4c0-2.2,0-4.4,0-6.5"/>
		<rect id="XMLID_5828_" x="-110.5" y="944.3" class="st1" width="16" height="4"/>
		<path id="XMLID_5827_" class="st1" d="M-93.1,847.8h-15.2c-21.3-17.2-47.6-28.5-76.3-31.3v-0.7h40.4
			C-125.1,823.1-107.7,834.1-93.1,847.8z"/>
		<path id="XMLID_5826_" class="st1" d="M-322.9,901.3c-5.7,12.4-9.6,25.7-11.6,39.4h-10.1c1.8-13.6,5.5-26.9,10.8-39.4H-322.9z"/>
		<path id="XMLID_5825_" class="st1" d="M-314.8,1046.3h-12.8c-6.8-9-12.6-18.7-17.4-29h11.1
			C-328.7,1027.8-322.2,1037.5-314.8,1046.3z"/>
		<path id="XMLID_5824_" class="st1" d="M-108.8,1080.8c-7.5,5.4-15.4,10.1-23.7,14h-28.8c11.9-3.2,23.3-7.9,33.9-14H-108.8z"/>
		<path id="XMLID_5823_" class="st1" d="M-34.1,958.3c0,0.3,0,0.6,0,0.9h-10c0-0.3,0-0.6,0-0.9c0-4.7-0.2-9.3-0.6-13.9h10
			C-34.3,948.9-34.1,953.6-34.1,958.3z"/>
		<path id="XMLID_5822_" class="st1" d="M-45.2,993.9c-1.3,5.3-2.8,10.5-4.6,15.6h-10.7c1.9-5.1,3.6-10.3,4.9-15.6H-45.2z"/>
		<path id="XMLID_5821_" class="st1" d="M-284.4,842.8c-3.3,2.5-6.4,5.2-9.5,8h-14.3l8.3-8H-284.4z"/>
		<path id="XMLID_5820_" class="st1" d="M-284.4,842.8l-9.5,8C-290.8,848-287.6,845.3-284.4,842.8z"/>
		<rect id="XMLID_5819_" x="-89" y="912.8" class="st1" width="7.3" height="4.4"/>
		<rect id="XMLID_5818_" x="-94.6" y="1004.5" class="st1" width="16.6" height="4"/>
		<rect id="XMLID_5817_" x="-117.7" y="1011.4" class="st1" width="3.2" height="1.9"/>
		<rect id="XMLID_5816_" x="-113.5" y="1038.3" class="st1" width="4.7" height="2.8"/>
		<rect id="XMLID_5815_" x="-268.4" y="945.8" class="st1" width="18.7" height="9.3"/>
		<rect id="XMLID_5814_" x="-235.1" y="931.8" class="st1" width="10.5" height="2"/>
		<rect id="XMLID_5813_" x="-217.7" y="949.7" class="st1" width="13.9" height="5.4"/>
		<rect id="XMLID_5812_" x="-176.4" y="917.2" class="st1" width="15.2" height="3"/>
		<rect id="XMLID_5811_" x="-129.5" y="908.8" class="st1" width="9.1" height="4"/>
		<rect id="XMLID_5810_" x="-277.3" y="892.3" class="st1" width="8.9" height="5.5"/>
		<rect id="XMLID_5809_" x="-319.6" y="908.8" class="st1" width="5.9" height="7"/>
		<rect id="XMLID_5808_" x="-355.5" y="902.6" class="st1" width="10.2" height="2.6"/>
		<rect id="XMLID_5807_" x="-355.5" y="927.6" class="st1" width="10.2" height="3.3"/>
		<rect id="XMLID_5806_" x="-364.4" y="1028.9" class="st1" width="6.7" height="9.4"/>
		<rect id="XMLID_5805_" x="-344.7" y="1043.8" class="st1" width="10.8" height="5"/>
		<rect id="XMLID_5804_" x="-311.5" y="1033.6" class="st1" width="8" height="4.7"/>
		<rect id="XMLID_5803_" x="-161.2" y="1082.1" class="st1" width="10.2" height="5.8"/>
		<rect id="XMLID_5802_" x="-120.4" y="1100.8" class="st1" width="6.8" height="6.7"/>
		<rect id="XMLID_5801_" x="-196.5" y="981.1" class="st1" width="2.8" height="3.2"/>
		<rect id="XMLID_5800_" x="-164.4" y="961.1" class="st1" width="8.2" height="7.3"/>
		<rect id="XMLID_5799_" x="-135" y="942.6" class="st1" width="5.5" height="3.8"/>
		<rect id="XMLID_5798_" x="-309.8" y="1001.7" class="st1" width="4.7" height="4.7"/>
		<rect id="XMLID_5797_" x="-132.2" y="850.8" class="st1" width="14.5" height="3"/>
		<rect id="XMLID_5796_" x="-168.8" y="825.5" class="st1" width="12.7" height="14.3"/>
		<rect id="XMLID_5795_" x="-107.5" y="814.8" class="st1" width="22.2" height="5.5"/>
	</g>
	<g id="XMLID_16_">
		<g id="XMLID_341_">
			<path id="XMLID_265_" class="st2" d="M-95.1,844.8h-15.2c1.2,1,2.4,2,3.6,3c27.7,23.9,46.4,58,50,96.5h10
				C-50.1,905.3-68,870.3-95.1,844.8z M-310.4,848c-0.9,0.9-1.9,1.9-2.8,2.8l8.3-8C-306.8,844.5-308.6,846.2-310.4,848z
				 M-200.2,802.8h-0.7c-38.8,0-75.5,14.1-104.1,40h15.6c25.3-19.5,56.1-30,88.5-30h0.6c4.6,0,9.2,0.3,13.7,0.7v-0.7h40.4
				C-163,806.4-181.2,802.9-200.2,802.8z M-313.2,850.8c-13.1,13.7-23.5,29.5-30.7,46.5h10.9c7.1-15.5,17.1-29.8,29.6-42.2
				c1.5-1.5,3-2.9,4.5-4.3H-313.2z M-163.2,1097.8c-12.2,3.3-25,5-38,5h-0.6c-44-0.2-83.4-20.2-109.9-51.5h-12.8
				c28.2,37.2,72.6,61.3,122.6,61.5h0.7c23.5,0,46.2-5.2,66.8-15H-163.2z M-345.1,940.7c0.2-1.3,0.3-2.7,0.5-4h-10.1
				c-0.9,6.8-1.4,13.7-1.4,20.7c0,23.1,5,45.2,14.1,64.9h11.1c-9.8-19.6-15.2-41.6-15.2-64.9C-346.1,951.8-345.7,946.2-345.1,940.7z
				 M-56.1,959.2c-0.1,11.9-1.6,23.5-4.5,34.7c-1.4,5.3-3,10.5-4.9,15.6c-7.2,18.9-18.5,36.3-33.3,51.1
				c-7.8,7.8-16.4,14.5-25.5,20.2c-1.7,1-3.3,2-5,3h18.5c6.7-4.8,13.1-10.2,19-16.2c14.7-14.6,26.1-31.6,33.8-50.1
				c1.1-2.6,2.1-5.3,3.1-8c1.8-5.1,3.3-10.3,4.6-15.6c2.7-11.3,4.1-22.9,4.2-34.7H-56.1z"/>
		</g>
		<g id="XMLID_1401_">
			<path id="XMLID_5086_" class="st2" d="M-306.8,897.3c0,20.2,0,40.3,0,60.5h16.3c0-20.2,0-40.3,0-60.5H-306.8z M-99.5,912.8h-16
				c0,10.5,0,21,0,31.5v4c0,10.6,0,21.2,0,31.9c0,10.9-2.4,13.3-13.6,13.3c-49.4,0.1-98.8,0.1-148.2,0c-10.7,0-13.1-2.4-13.2-12.8
				c0-5.5,0-10.9,0-16.4h-16.3c0,12,0,24,0,35.9c0,0.3,0,0.7,0,1.1h16.3v11.7H-304c3.9,7.9,11.9,12.4,22.7,12.4
				c15.8,0,31.6,0.1,47.4,0c4.2,0,7,0.2,6.6,5.8c-0.5,7.5,3.8,10.6,11,10.5c9-0.1,18.1-0.1,27.1,0c6.5,0.1,10.8-3,10.5-9.4
				c-0.3-6.9,3.1-6.9,8.2-6.9c16.1,0.2,32.2,0.3,48.3,0c4.7-0.1,9-1.5,12.6-3.8h-15.8v-4.6c-3.3-0.8-5.6-3.3-5.4-7.8
				c0.2-5.3,3.7-6.9,8-7.9c2.4,0.7,4.4,1.6,5.7,3.1h17.6c0.1-0.8,0.1-1.5,0.1-2.3c0-17.9,0.1-35.9,0.1-53.8v-4
				C-99.5,933.8-99.5,923.3-99.5,912.8z M-270.1,882.4c22.4,0,44.8,0,67.2,0c24.9,0,49.7,0,74.5,0c10.6,0,12.8,2.4,12.8,13v4.9h16
				c0-3.6,0-7.2,0-10.8c0-13.1-9.2-22.4-22.3-22.4c-27.1,0-54.2,0-81.3,0c-26.5,0-53.1,0-79.6,0c-9.7,0-16.9,3.6-20.8,10.2h33.3
				V882.4z"/>
			<path id="XMLID_337_" class="st2" d="M-203.8,1065.7c-18.1,0-36.1,0.2-54.2-0.1c-3.3-0.1-9.2,3.2-9.1-4.6
				c0.1-6.4,2.5-10.8,9.3-11.9c1.1-0.2,2.3,0,3.4,0c34.4,0,68.8,0,103.2,0c1.7,0,3.4-0.2,5.1,0.2c6.9,1.5,7.2,6.7,7.1,12.5
				c-0.2,6.6-5.1,3.9-8,4C-166,1065.8-184.9,1065.7-203.8,1065.7z"/>
		</g>
		<path id="XMLID_5084_" class="st2" d="M-96.5,908.8h-16c0-4.2,0-8.3,0-12.5h16C-96.5,900.5-96.5,904.6-96.5,908.8z"/>
		<path id="XMLID_5083_" class="st2" d="M-92.6,1008.5c-0.7,7.3-4.5,13.5-10.1,17.2h-15.8v-4.6c0.7,0.2,1.4,0.3,2.2,0.3
			c4.3,0.2,7.4-2.7,7.8-7.2c0.2-2.5-0.4-4.3-1.7-5.7H-92.6z"/>
		<path id="XMLID_5091_" class="st2" d="M-278.1,872.3v5.1c-2.5,0-4.9,0-7.4,0c-11,0-13,1.9-13,12.8v2.1h-16.3v-6.2
			c0-5.5,1.2-10.1,3.4-13.8H-278.1z"/>
		<path id="XMLID_5081_" class="st2" d="M-306.5,964.4h-16.3c0-2.2,0-4.4,0-6.6h16.3C-306.5,960-306.5,962.2-306.5,964.4z"/>
		<path id="XMLID_340_" class="st3" d="M-290.5,964.4c0-2.2,0-4.4,0-6.5"/>
		<rect id="XMLID_434_" x="-115.5" y="944.3" class="st2" width="16" height="4"/>
		<path id="XMLID_5090_" class="st2" d="M-98.1,847.8h-15.2c-21.3-17.2-47.6-28.5-76.3-31.3v-0.7h40.4
			C-130.1,823.1-112.7,834.1-98.1,847.8z"/>
		<path id="XMLID_338_" class="st2" d="M-327.9,901.3c-5.7,12.4-9.6,25.7-11.6,39.4h-10.1c1.8-13.6,5.5-26.9,10.8-39.4H-327.9z"/>
		<path id="XMLID_353_" class="st2" d="M-319.8,1046.3h-12.8c-6.8-9-12.6-18.7-17.4-29h11.1
			C-333.7,1027.8-327.2,1037.5-319.8,1046.3z"/>
		<path id="XMLID_435_" class="st2" d="M-113.8,1080.8c-7.5,5.4-15.4,10.1-23.7,14h-28.8c11.9-3.2,23.3-7.9,33.9-14H-113.8z"/>
		<path id="XMLID_5087_" class="st2" d="M-39.1,958.3c0,0.3,0,0.6,0,0.9h-10c0-0.3,0-0.6,0-0.9c0-4.7-0.2-9.3-0.6-13.9h10
			C-39.3,948.9-39.1,953.6-39.1,958.3z"/>
		<path id="XMLID_5088_" class="st2" d="M-50.2,993.9c-1.3,5.3-2.8,10.5-4.6,15.6h-10.7c1.9-5.1,3.6-10.3,4.9-15.6H-50.2z"/>
		<path id="XMLID_5092_" class="st2" d="M-289.4,842.8c-3.3,2.5-6.4,5.2-9.5,8h-14.3l8.3-8H-289.4z"/>
		<path id="XMLID_5089_" class="st2" d="M-289.4,842.8l-9.5,8C-295.8,848-292.6,845.3-289.4,842.8z"/>
		<rect id="XMLID_248_" x="-94" y="912.8" class="st2" width="7.3" height="4.4"/>
		<rect id="XMLID_259_" x="-99.6" y="1004.5" class="st2" width="16.6" height="4"/>
		<rect id="XMLID_272_" x="-122.7" y="1011.4" class="st2" width="3.2" height="1.9"/>
		<rect id="XMLID_335_" x="-118.5" y="1038.3" class="st2" width="4.7" height="2.8"/>
		<rect id="XMLID_336_" x="-273.4" y="945.8" class="st2" width="18.7" height="9.3"/>
		<rect id="XMLID_420_" x="-240.1" y="931.8" class="st2" width="10.5" height="2"/>
		<rect id="XMLID_423_" x="-222.7" y="949.7" class="st2" width="13.9" height="5.4"/>
		<rect id="XMLID_425_" x="-181.4" y="917.2" class="st2" width="15.2" height="3"/>
		<rect id="XMLID_445_" x="-134.5" y="908.8" class="st2" width="9.1" height="4"/>
		<rect id="XMLID_473_" x="-282.3" y="892.3" class="st2" width="8.9" height="5.5"/>
		<rect id="XMLID_474_" x="-324.6" y="908.8" class="st2" width="5.9" height="7"/>
		<rect id="XMLID_475_" x="-360.5" y="902.6" class="st2" width="10.2" height="2.6"/>
		<rect id="XMLID_477_" x="-360.5" y="927.6" class="st2" width="10.2" height="3.3"/>
		<rect id="XMLID_478_" x="-369.4" y="1028.9" class="st2" width="6.7" height="9.4"/>
		<rect id="XMLID_479_" x="-349.7" y="1043.8" class="st2" width="10.8" height="5"/>
		<rect id="XMLID_480_" x="-316.5" y="1033.6" class="st2" width="8" height="4.7"/>
		<rect id="XMLID_481_" x="-166.2" y="1082.1" class="st2" width="10.2" height="5.8"/>
		<rect id="XMLID_482_" x="-125.4" y="1100.8" class="st2" width="6.8" height="6.7"/>
		<rect id="XMLID_483_" x="-201.5" y="981.1" class="st2" width="2.8" height="3.2"/>
		<rect id="XMLID_485_" x="-169.4" y="961.1" class="st2" width="8.2" height="7.3"/>
		<rect id="XMLID_487_" x="-140" y="942.6" class="st2" width="5.5" height="3.8"/>
		<rect id="XMLID_494_" x="-314.8" y="1001.7" class="st2" width="4.7" height="4.7"/>
		<rect id="XMLID_495_" x="-137.2" y="850.8" class="st2" width="14.5" height="3"/>
		<rect id="XMLID_496_" x="-173.8" y="825.5" class="st2" width="12.7" height="14.3"/>
		<rect id="XMLID_497_" x="-112.5" y="814.8" class="st2" width="22.2" height="5.5"/>
	</g>
	<g id="XMLID_499_">
		<g id="XMLID_545_">
			<path id="XMLID_546_" class="st2" d="M-94.1,844.8h-15.2c1.2,1,2.4,2,3.6,3c27.7,23.9,46.4,58,50,96.5h10
				C-49.1,905.3-67,870.3-94.1,844.8z M-309.4,848c-0.9,0.9-1.9,1.9-2.8,2.8l8.3-8C-305.8,844.5-307.6,846.2-309.4,848z
				 M-199.2,802.8h-0.7c-38.8,0-75.5,14.1-104.1,40h15.6c25.3-19.5,56.1-30,88.5-30h0.6c4.6,0,9.2,0.3,13.7,0.7v-0.7h40.4
				C-162,806.4-180.2,802.9-199.2,802.8z M-312.2,850.8c-13.1,13.7-23.5,29.5-30.7,46.5h10.9c7.1-15.5,17.1-29.8,29.6-42.2
				c1.5-1.5,3-2.9,4.5-4.3H-312.2z M-162.2,1097.8c-12.2,3.3-25,5-38,5h-0.6c-44-0.2-83.4-20.2-109.9-51.5h-12.8
				c28.2,37.2,72.6,61.3,122.6,61.5h0.7c23.5,0,46.2-5.2,66.8-15H-162.2z M-344.1,940.7c0.2-1.3,0.3-2.7,0.5-4h-10.1
				c-0.9,6.8-1.4,13.7-1.4,20.7c0,23.1,5,45.2,14.1,64.9h11.1c-9.8-19.6-15.2-41.6-15.2-64.9C-345.1,951.8-344.7,946.2-344.1,940.7z
				 M-55.1,959.2c-0.1,11.9-1.6,23.5-4.5,34.7c-1.4,5.3-3,10.5-4.9,15.6c-7.2,18.9-18.5,36.3-33.3,51.1
				c-7.8,7.8-16.4,14.5-25.5,20.2c-1.7,1-3.3,2-5,3h18.5c6.7-4.8,13.1-10.2,19-16.2c14.7-14.6,26.1-31.6,33.8-50.1
				c1.1-2.6,2.1-5.3,3.1-8c1.8-5.1,3.3-10.3,4.6-15.6c2.7-11.3,4.1-22.9,4.2-34.7H-55.1z"/>
		</g>
		<g id="XMLID_539_">
			<path id="XMLID_541_" class="st2" d="M-305.8,897.3c0,20.2,0,40.3,0,60.5h16.3c0-20.2,0-40.3,0-60.5H-305.8z M-98.5,912.8h-16
				c0,10.5,0,21,0,31.5v4c0,10.6,0,21.2,0,31.9c0,10.9-2.4,13.3-13.6,13.3c-49.4,0.1-98.8,0.1-148.2,0c-10.7,0-13.1-2.4-13.2-12.8
				c0-5.5,0-10.9,0-16.4h-16.3c0,12,0,24,0,35.9c0,0.3,0,0.7,0,1.1h16.3v11.7H-303c3.9,7.9,11.9,12.4,22.7,12.4
				c15.8,0,31.6,0.1,47.4,0c4.2,0,7,0.2,6.6,5.8c-0.5,7.5,3.8,10.6,11,10.5c9-0.1,18.1-0.1,27.1,0c6.5,0.1,10.8-3,10.5-9.4
				c-0.3-6.9,3.1-6.9,8.2-6.9c16.1,0.2,32.2,0.3,48.3,0c4.7-0.1,9-1.5,12.6-3.8h-15.8v-4.6c-3.3-0.8-5.6-3.3-5.4-7.8
				c0.2-5.3,3.7-6.9,8-7.9c2.4,0.7,4.4,1.6,5.7,3.1h17.6c0.1-0.8,0.1-1.5,0.1-2.3c0-17.9,0.1-35.9,0.1-53.8v-4
				C-98.5,933.8-98.5,923.3-98.5,912.8z M-269.1,882.4c22.4,0,44.8,0,67.2,0c24.9,0,49.7,0,74.5,0c10.6,0,12.8,2.4,12.8,13v4.9h16
				c0-3.6,0-7.2,0-10.8c0-13.1-9.2-22.4-22.3-22.4c-27.1,0-54.2,0-81.3,0c-26.5,0-53.1,0-79.6,0c-9.7,0-16.9,3.6-20.8,10.2h33.3
				V882.4z"/>
			<path id="XMLID_540_" class="st2" d="M-202.8,1065.7c-18.1,0-36.1,0.2-54.2-0.1c-3.3-0.1-9.2,3.2-9.1-4.6
				c0.1-6.4,2.5-10.8,9.3-11.9c1.1-0.2,2.3,0,3.4,0c34.4,0,68.8,0,103.2,0c1.7,0,3.4-0.2,5.1,0.2c6.9,1.5,7.2,6.7,7.1,12.5
				c-0.2,6.6-5.1,3.9-8,4C-165,1065.8-183.9,1065.7-202.8,1065.7z"/>
		</g>
		<path id="XMLID_538_" class="st2" d="M-95.5,908.8h-16c0-4.2,0-8.3,0-12.5h16C-95.5,900.5-95.5,904.6-95.5,908.8z"/>
		<path id="XMLID_537_" class="st2" d="M-91.6,1008.5c-0.7,7.3-4.5,13.5-10.1,17.2h-15.8v-4.6c0.7,0.2,1.4,0.3,2.2,0.3
			c4.3,0.2,7.4-2.7,7.8-7.2c0.2-2.5-0.4-4.3-1.7-5.7H-91.6z"/>
		<path id="XMLID_536_" class="st2" d="M-277.1,872.3v5.1c-2.5,0-4.9,0-7.4,0c-11,0-13,1.9-13,12.8v2.1h-16.3v-6.2
			c0-5.5,1.2-10.1,3.4-13.8H-277.1z"/>
		<path id="XMLID_535_" class="st2" d="M-305.5,964.4h-16.3c0-2.2,0-4.4,0-6.6h16.3C-305.5,960-305.5,962.2-305.5,964.4z"/>
		<path id="XMLID_534_" class="st3" d="M-289.5,964.4c0-2.2,0-4.4,0-6.5"/>
		<rect id="XMLID_533_" x="-114.5" y="944.3" class="st2" width="16" height="4"/>
		<path id="XMLID_532_" class="st2" d="M-97.1,847.8h-15.2c-21.3-17.2-47.6-28.5-76.3-31.3v-0.7h40.4
			C-129.1,823.1-111.7,834.1-97.1,847.8z"/>
		<path id="XMLID_531_" class="st2" d="M-326.9,901.3c-5.7,12.4-9.6,25.7-11.6,39.4h-10.1c1.8-13.6,5.5-26.9,10.8-39.4H-326.9z"/>
		<path id="XMLID_530_" class="st2" d="M-318.8,1046.3h-12.8c-6.8-9-12.6-18.7-17.4-29h11.1
			C-332.7,1027.8-326.2,1037.5-318.8,1046.3z"/>
		<path id="XMLID_529_" class="st2" d="M-112.8,1080.8c-7.5,5.4-15.4,10.1-23.7,14h-28.8c11.9-3.2,23.3-7.9,33.9-14H-112.8z"/>
		<path id="XMLID_528_" class="st2" d="M-38.1,958.3c0,0.3,0,0.6,0,0.9h-10c0-0.3,0-0.6,0-0.9c0-4.7-0.2-9.3-0.6-13.9h10
			C-38.3,948.9-38.1,953.6-38.1,958.3z"/>
		<path id="XMLID_527_" class="st2" d="M-49.2,993.9c-1.3,5.3-2.8,10.5-4.6,15.6h-10.7c1.9-5.1,3.6-10.3,4.9-15.6H-49.2z"/>
		<path id="XMLID_526_" class="st2" d="M-288.4,842.8c-3.3,2.5-6.4,5.2-9.5,8h-14.3l8.3-8H-288.4z"/>
		<path id="XMLID_525_" class="st2" d="M-288.4,842.8l-9.5,8C-294.8,848-291.6,845.3-288.4,842.8z"/>
		<rect id="XMLID_524_" x="-93" y="912.8" class="st2" width="7.3" height="4.4"/>
		<rect id="XMLID_523_" x="-98.6" y="1004.5" class="st2" width="16.6" height="4"/>
		<rect id="XMLID_522_" x="-121.7" y="1011.4" class="st2" width="3.2" height="1.9"/>
		<rect id="XMLID_521_" x="-117.5" y="1038.3" class="st2" width="4.7" height="2.8"/>
		<rect id="XMLID_520_" x="-272.4" y="945.8" class="st2" width="18.7" height="9.3"/>
		<rect id="XMLID_519_" x="-239.1" y="931.8" class="st2" width="10.5" height="2"/>
		<rect id="XMLID_518_" x="-221.7" y="949.7" class="st2" width="13.9" height="5.4"/>
		<rect id="XMLID_517_" x="-180.4" y="917.2" class="st2" width="15.2" height="3"/>
		<rect id="XMLID_516_" x="-133.5" y="908.8" class="st2" width="9.1" height="4"/>
		<rect id="XMLID_515_" x="-281.3" y="892.3" class="st2" width="8.9" height="5.5"/>
		<rect id="XMLID_514_" x="-323.6" y="908.8" class="st2" width="5.9" height="7"/>
		<rect id="XMLID_513_" x="-359.5" y="902.6" class="st2" width="10.2" height="2.6"/>
		<rect id="XMLID_512_" x="-359.5" y="927.6" class="st2" width="10.2" height="3.3"/>
		<rect id="XMLID_511_" x="-368.4" y="1028.9" class="st2" width="6.7" height="9.4"/>
		<rect id="XMLID_510_" x="-348.7" y="1043.8" class="st2" width="10.8" height="5"/>
		<rect id="XMLID_509_" x="-315.5" y="1033.6" class="st2" width="8" height="4.7"/>
		<rect id="XMLID_508_" x="-165.2" y="1082.1" class="st2" width="10.2" height="5.8"/>
		<rect id="XMLID_507_" x="-124.4" y="1100.8" class="st2" width="6.8" height="6.7"/>
		<rect id="XMLID_506_" x="-200.5" y="981.1" class="st2" width="2.8" height="3.2"/>
		<rect id="XMLID_505_" x="-168.4" y="961.1" class="st2" width="8.2" height="7.3"/>
		<rect id="XMLID_504_" x="-139" y="942.6" class="st2" width="5.5" height="3.8"/>
		<rect id="XMLID_503_" x="-313.8" y="1001.7" class="st2" width="4.7" height="4.7"/>
		<rect id="XMLID_502_" x="-136.2" y="850.8" class="st2" width="14.5" height="3"/>
		<rect id="XMLID_501_" x="-172.8" y="825.5" class="st2" width="12.7" height="14.3"/>
		<rect id="XMLID_500_" x="-111.5" y="814.8" class="st2" width="22.2" height="5.5"/>
	</g>
	<g id="XMLID_554_">
		<g id="XMLID_605_">
			<path id="XMLID_606_" class="st2" d="M-93.1,844.8h-15.2c1.2,1,2.4,2,3.6,3c27.7,23.9,46.4,58,50,96.5h10
				C-48.1,905.3-66,870.3-93.1,844.8z M-308.4,848c-0.9,0.9-1.9,1.9-2.8,2.8l8.3-8C-304.8,844.5-306.6,846.2-308.4,848z
				 M-198.2,802.8h-0.7c-38.8,0-75.5,14.1-104.1,40h15.6c25.3-19.5,56.1-30,88.5-30h0.6c4.6,0,9.2,0.3,13.7,0.7v-0.7h40.4
				C-161,806.4-179.2,802.9-198.2,802.8z M-311.2,850.8c-13.1,13.7-23.5,29.5-30.7,46.5h10.9c7.1-15.5,17.1-29.8,29.6-42.2
				c1.5-1.5,3-2.9,4.5-4.3H-311.2z M-161.2,1097.8c-12.2,3.3-25,5-38,5h-0.6c-44-0.2-83.4-20.2-109.9-51.5h-12.8
				c28.2,37.2,72.6,61.3,122.6,61.5h0.7c23.5,0,46.2-5.2,66.8-15H-161.2z M-343.1,940.7c0.2-1.3,0.3-2.7,0.5-4h-10.1
				c-0.9,6.8-1.4,13.7-1.4,20.7c0,23.1,5,45.2,14.1,64.9h11.1c-9.8-19.6-15.2-41.6-15.2-64.9C-344.1,951.8-343.7,946.2-343.1,940.7z
				 M-54.1,959.2c-0.1,11.9-1.6,23.5-4.5,34.7c-1.4,5.3-3,10.5-4.9,15.6c-7.2,18.9-18.5,36.3-33.3,51.1
				c-7.8,7.8-16.4,14.5-25.5,20.2c-1.7,1-3.3,2-5,3h18.5c6.7-4.8,13.1-10.2,19-16.2c14.7-14.6,26.1-31.6,33.8-50.1
				c1.1-2.6,2.1-5.3,3.1-8c1.8-5.1,3.3-10.3,4.6-15.6c2.7-11.3,4.1-22.9,4.2-34.7H-54.1z"/>
		</g>
		<g id="XMLID_599_">
			<path id="XMLID_601_" class="st2" d="M-304.8,897.3c0,20.2,0,40.3,0,60.5h16.3c0-20.2,0-40.3,0-60.5H-304.8z M-97.5,912.8h-16
				c0,10.5,0,21,0,31.5v4c0,10.6,0,21.2,0,31.9c0,10.9-2.4,13.3-13.6,13.3c-49.4,0.1-98.8,0.1-148.2,0c-10.7,0-13.1-2.4-13.2-12.8
				c0-5.5,0-10.9,0-16.4h-16.3c0,12,0,24,0,35.9c0,0.3,0,0.7,0,1.1h16.3v11.7H-302c3.9,7.9,11.9,12.4,22.7,12.4
				c15.8,0,31.6,0.1,47.4,0c4.2,0,7,0.2,6.6,5.8c-0.5,7.5,3.8,10.6,11,10.5c9-0.1,18.1-0.1,27.1,0c6.5,0.1,10.8-3,10.5-9.4
				c-0.3-6.9,3.1-6.9,8.2-6.9c16.1,0.2,32.2,0.3,48.3,0c4.7-0.1,9-1.5,12.6-3.8h-15.8v-4.6c-3.3-0.8-5.6-3.3-5.4-7.8
				c0.2-5.3,3.7-6.9,8-7.9c2.4,0.7,4.4,1.6,5.7,3.1h17.6c0.1-0.8,0.1-1.5,0.1-2.3c0-17.9,0.1-35.9,0.1-53.8v-4
				C-97.5,933.8-97.5,923.3-97.5,912.8z M-268.1,882.4c22.4,0,44.8,0,67.2,0c24.9,0,49.7,0,74.5,0c10.6,0,12.8,2.4,12.8,13v4.9h16
				c0-3.6,0-7.2,0-10.8c0-13.1-9.2-22.4-22.3-22.4c-27.1,0-54.2,0-81.3,0c-26.5,0-53.1,0-79.6,0c-9.7,0-16.9,3.6-20.8,10.2h33.3
				V882.4z"/>
			<path id="XMLID_600_" class="st2" d="M-201.8,1065.7c-18.1,0-36.1,0.2-54.2-0.1c-3.3-0.1-9.2,3.2-9.1-4.6
				c0.1-6.4,2.5-10.8,9.3-11.9c1.1-0.2,2.3,0,3.4,0c34.4,0,68.8,0,103.2,0c1.7,0,3.4-0.2,5.1,0.2c6.9,1.5,7.2,6.7,7.1,12.5
				c-0.2,6.6-5.1,3.9-8,4C-164,1065.8-182.9,1065.7-201.8,1065.7z"/>
		</g>
		<path id="XMLID_598_" class="st2" d="M-94.5,908.8h-16c0-4.2,0-8.3,0-12.5h16C-94.5,900.5-94.5,904.6-94.5,908.8z"/>
		<path id="XMLID_597_" class="st2" d="M-90.6,1008.5c-0.7,7.3-4.5,13.5-10.1,17.2h-15.8v-4.6c0.7,0.2,1.4,0.3,2.2,0.3
			c4.3,0.2,7.4-2.7,7.8-7.2c0.2-2.5-0.4-4.3-1.7-5.7H-90.6z"/>
		<path id="XMLID_596_" class="st2" d="M-276.1,872.3v5.1c-2.5,0-4.9,0-7.4,0c-11,0-13,1.9-13,12.8v2.1h-16.3v-6.2
			c0-5.5,1.2-10.1,3.4-13.8H-276.1z"/>
		<path id="XMLID_595_" class="st2" d="M-304.5,964.4h-16.3c0-2.2,0-4.4,0-6.6h16.3C-304.5,960-304.5,962.2-304.5,964.4z"/>
		<path id="XMLID_594_" class="st3" d="M-288.5,964.4c0-2.2,0-4.4,0-6.5"/>
		<rect id="XMLID_592_" x="-113.5" y="944.3" class="st2" width="16" height="4"/>
		<path id="XMLID_590_" class="st2" d="M-96.1,847.8h-15.2c-21.3-17.2-47.6-28.5-76.3-31.3v-0.7h40.4
			C-128.1,823.1-110.7,834.1-96.1,847.8z"/>
		<path id="XMLID_589_" class="st2" d="M-325.9,901.3c-5.7,12.4-9.6,25.7-11.6,39.4h-10.1c1.8-13.6,5.5-26.9,10.8-39.4H-325.9z"/>
		<path id="XMLID_588_" class="st2" d="M-317.8,1046.3h-12.8c-6.8-9-12.6-18.7-17.4-29h11.1
			C-331.7,1027.8-325.2,1037.5-317.8,1046.3z"/>
		<path id="XMLID_587_" class="st2" d="M-111.8,1080.8c-7.5,5.4-15.4,10.1-23.7,14h-28.8c11.9-3.2,23.3-7.9,33.9-14H-111.8z"/>
		<path id="XMLID_586_" class="st2" d="M-37.1,958.3c0,0.3,0,0.6,0,0.9h-10c0-0.3,0-0.6,0-0.9c0-4.7-0.2-9.3-0.6-13.9h10
			C-37.3,948.9-37.1,953.6-37.1,958.3z"/>
		<path id="XMLID_583_" class="st2" d="M-48.2,993.9c-1.3,5.3-2.8,10.5-4.6,15.6h-10.7c1.9-5.1,3.6-10.3,4.9-15.6H-48.2z"/>
		<path id="XMLID_582_" class="st2" d="M-287.4,842.8c-3.3,2.5-6.4,5.2-9.5,8h-14.3l8.3-8H-287.4z"/>
		<path id="XMLID_581_" class="st2" d="M-287.4,842.8l-9.5,8C-293.8,848-290.6,845.3-287.4,842.8z"/>
		<rect id="XMLID_580_" x="-92" y="912.8" class="st2" width="7.3" height="4.4"/>
		<rect id="XMLID_578_" x="-97.6" y="1004.5" class="st2" width="16.6" height="4"/>
		<rect id="XMLID_577_" x="-120.7" y="1011.4" class="st2" width="3.2" height="1.9"/>
		<rect id="XMLID_576_" x="-116.5" y="1038.3" class="st2" width="4.7" height="2.8"/>
		<rect id="XMLID_575_" x="-271.4" y="945.8" class="st2" width="18.7" height="9.3"/>
		<rect id="XMLID_574_" x="-238.1" y="931.8" class="st2" width="10.5" height="2"/>
		<rect id="XMLID_573_" x="-220.7" y="949.7" class="st2" width="13.9" height="5.4"/>
		<rect id="XMLID_572_" x="-179.4" y="917.2" class="st2" width="15.2" height="3"/>
		<rect id="XMLID_571_" x="-132.5" y="908.8" class="st2" width="9.1" height="4"/>
		<rect id="XMLID_570_" x="-280.3" y="892.3" class="st2" width="8.9" height="5.5"/>
		<rect id="XMLID_569_" x="-322.6" y="908.8" class="st2" width="5.9" height="7"/>
		<rect id="XMLID_568_" x="-358.5" y="902.6" class="st2" width="10.2" height="2.6"/>
		<rect id="XMLID_567_" x="-358.5" y="927.6" class="st2" width="10.2" height="3.3"/>
		<rect id="XMLID_566_" x="-367.4" y="1028.9" class="st2" width="6.7" height="9.4"/>
		<rect id="XMLID_565_" x="-347.7" y="1043.8" class="st2" width="10.8" height="5"/>
		<rect id="XMLID_564_" x="-314.5" y="1033.6" class="st2" width="8" height="4.7"/>
		<rect id="XMLID_563_" x="-164.2" y="1082.1" class="st2" width="10.2" height="5.8"/>
		<rect id="XMLID_562_" x="-123.4" y="1100.8" class="st2" width="6.8" height="6.7"/>
		<rect id="XMLID_561_" x="-199.5" y="981.1" class="st2" width="2.8" height="3.2"/>
		<rect id="XMLID_560_" x="-167.4" y="961.1" class="st2" width="8.2" height="7.3"/>
		<rect id="XMLID_559_" x="-138" y="942.6" class="st2" width="5.5" height="3.8"/>
		<rect id="XMLID_558_" x="-312.8" y="1001.7" class="st2" width="4.7" height="4.7"/>
		<rect id="XMLID_557_" x="-135.2" y="850.8" class="st2" width="14.5" height="3"/>
		<rect id="XMLID_556_" x="-171.8" y="825.5" class="st2" width="12.7" height="14.3"/>
		<rect id="XMLID_555_" x="-110.5" y="814.8" class="st2" width="22.2" height="5.5"/>
	</g>
</g>
</svg>
