<?xml version="1.0" encoding="utf-8"?>
<!-- Generator: Adobe Illustrator 19.0.0, SVG Export Plug-In . SVG Version: 6.00 Build 0)  -->
<svg version="1.1" id="Layer_1" xmlns="http://www.w3.org/2000/svg" xmlns:xlink="http://www.w3.org/1999/xlink" x="0px" y="0px"
	 viewBox="-399 761 400 400" style="enable-background:new -399 761 400 400;" xml:space="preserve">
<style type="text/css">
	.st0{fill:#FF869F;}
	.st1{fill:#F1CDFF;}
	.st2{fill:#C8000F;}
	.st3{fill:#AA0014;}
	.st4{fill:#960008;}
</style>
<g>
	<g id="XMLID_146_">
		<g id="XMLID_199_">
			<path id="XMLID_200_" class="st0" d="M-330.3,893.8h-11.2c-9.8,20.5-15,43.2-15,66.6c0,14.3,1.9,28.2,5.6,41.4h10.4
				c-3.9-13.1-6-27-6-41.4C-346.5,936.8-340.9,914.1-330.3,893.8z M-201,805.5h-0.4c-13.5,0-26.7,1.7-39.3,5h1.2v10
				c12.3-3.3,25.1-5,38.2-5h0.4c39.5,0.1,75.3,16.1,101.4,41.9h13.8C-114.2,825.7-155.3,805.6-201,805.5z M-275,824l34.3-13.5
				C-252.7,813.6-264.2,818.1-275,824z M-275,824c-13,7-25.2,16-36,26.8c-6.3,6.3-12,13.1-17.1,20.2h12.5c3.6-4.6,7.5-9,11.7-13.1
				c15.4-15.3,33.5-26.8,53.4-33.9H-275z M-50.4,926.2h-7.2v-10.3h4.4c-4.6-15.4-11.6-29.8-20.6-42.8H-86
				c18.5,24.4,29.5,54.8,29.5,87.6c0,38.7-15.2,75.2-42.6,102.5c-2.2,2.2-4.5,4.3-6.8,6.4h14.6c14.3-14.5,25.5-31.3,33.1-49.5
				c7.7-18.6,11.8-38.7,11.8-59.4C-46.5,948.8-47.9,937.3-50.4,926.2z M-201.7,1105.5h-0.4c-21.2-0.1-41.3-4.7-59.5-13h-21.1
				c23.5,14.5,51.1,22.9,80.6,23h0.4c29.2,0,57.2-8,81.4-23h-21.2C-160.1,1101-180.5,1105.5-201.7,1105.5z M-336.5,1013.4v23.2
				c6.8,12.1,15.2,23.1,24.9,32.9h14.5C-314.3,1054.3-328,1035.1-336.5,1013.4z M-53.1,915.8l2.7,10.3
				C-51.2,922.7-52.1,919.2-53.1,915.8z"/>
		</g>
		<g id="XMLID_192_">
			<path id="XMLID_196_" class="st0" d="M-229.5,1013.5c-2-1.3-3.4-0.2-3.3,1.9c0.6,12.5-1.9,25.1,1.3,37.4
				c1.7-10,0.5-20.1,0.7-30.2c0.1-5.6,1.8-6.3,6.5-3.6c7.3,4.2,13.8,9.6,22,12.1C-210.1,1023.3-220.5,1019.6-229.5,1013.5z
				 M-127.4,902.4c-0.3,0.2-0.6,0.4-1,0.6c0.1-0.1,0.3-0.2,0.4-0.3C-127.8,902.6-127.6,902.5-127.4,902.4c-0.1-0.2-0.3-0.3-0.4-0.4
				c-1.3,0.5-2.8,0.7-3.8,1.5c-42.2,33.3-84.4,66.8-126.5,100.1c3,0.9,4.7-1.3,6.6-2.8c18.1-14.3,36.4-28.4,54.4-42.8
				c20.3-16.2,40.9-32,61-48.5c-33.2,30.3-63.7,63.3-95.8,94.7c-2.5,2.4-4.5,5.2-4.5,8.8c0.2,12.9-1.8,26,1.7,38.7
				c0.1-11.6,0.4-23.1,0.1-34.7c-0.1-5.3,1.6-9,5.3-12.6c27.1-26.8,53.9-53.9,80.9-80.8c6.8-6.8,13.8-13.3,20.7-19.9
				c0.2,0,0.3-0.2,0.5-0.6C-127.2,902.9-127.2,902.6-127.4,902.4z"/>
			<path id="XMLID_195_" class="st0" d="M-104.2,888.4c-8.7,27-17.5,53.9-26.2,80.9h-40.1v10.3h36.8c-5.2,15.9-10.3,31.9-15.5,47.9
				h-26.3v7.6h23.9c-1.3,3.9-2.5,7.8-3.7,11.7c-2.2,6.9-4.1,9.2-11,4.3c-9-6.3-18.8-11.4-28.2-17c-2.4-1.4-4.5-3.7-7.6-2.9
				c-7.8-7.8-18.3-11.5-27.2-17.6c-2-1.3-3.4-0.2-3.3,1.9c0.6,12.5-1.9,25.1,1.3,37.4c-2.1,2.6-3,1.8-3.3-1.1
				c0.1-11.6,0.4-23.1,0.1-34.7c-0.1-5.3,1.6-9,5.3-12.6c27.1-26.8,53.9-53.9,80.9-80.8c6.8-6.8,13.8-13.3,20.7-19.9
				c0.2,0,0.3-0.2,0.5-0.6c0.1-0.3,0.1-0.5-0.1-0.7c1.3-1,2.2-2.4,3.6-3.3c-1.5,0.8-2.3,2.2-3.7,3.2c-0.1-0.1-0.2-0.2-0.3-0.3
				c-1.3,0.5-2.8,0.7-3.8,1.5c-42.2,33.3-84.4,66.8-126.5,100.1c-23.7-5.2-47.3-10.3-72.8-15.9c5.3-2.6,10.4-5,15.4-7.5v3.7h40.8
				v-15.7h-15.9c0,0,0,0,0.1,0c26.8-12.8,53.7-25.5,80.5-38.3h19.9v-3.2h-13.3c3.3-1.5,6.5-3.1,9.8-4.7h14.4v-6.3h-1.1
				c23.3-11,46.5-22.1,69.8-33.1c2.4-1.2,5.2-4.2,7.6-2C-100.7,882.8-103.4,885.9-104.2,888.4z"/>
			<path id="XMLID_194_" class="st0" d="M-127.3,903.1c-0.2,0.4-0.3,0.6-0.5,0.6c-6.9,6.6-13.9,13.1-20.7,19.9
				c-27,26.9-53.9,53.9-80.9,80.8c-3.7,3.7-5.4,7.4-5.3,12.6c0.3,11.6,0,23.1-0.1,34.7c-7.8-16-15.6-32-23.4-48
				c42.2-33.4,84.3-66.8,126.5-100.1c1-0.8,2.5-1,3.8-1.5c0.1,0.1,0.3,0.2,0.3,0.3c0,0,0,0.1,0.1,0.1
				C-127.2,902.6-127.2,902.9-127.3,903.1z"/>
			<path id="XMLID_193_" class="st0" d="M-202.3,1031.1c-9.7,7.2-19.5,14.5-29.2,21.7c-3.2-12.4-0.7-25-1.3-37.4
				c-0.1-2,1.3-3.2,3.3-1.9C-220.5,1019.6-210.1,1023.3-202.3,1031.1z"/>
		</g>
		<path id="XMLID_191_" class="st0" d="M-124.4,966.3c-1.1,3.4-2.2,6.9-3.3,10.3h-36.8v-10.3H-124.4z"/>
		<rect id="XMLID_190_" x="-130.2" y="988.8" class="st0" width="6.3" height="6.3"/>
		<rect id="XMLID_189_" x="-51.3" y="908.7" class="st0" width="8.2" height="8.2"/>
		<rect id="XMLID_188_" x="-41.8" y="927.4" class="st0" width="3.3" height="3.3"/>
		<rect id="XMLID_187_" x="-117.7" y="954.8" class="st0" width="6.3" height="6.3"/>
		<rect id="XMLID_186_" x="-112.4" y="919" class="st0" width="6.3" height="6.3"/>
		<rect id="XMLID_183_" x="-229.3" y="919" class="st0" width="10.7" height="6.3"/>
		<rect id="XMLID_182_" x="-315.5" y="950.3" class="st0" width="11.8" height="4.5"/>
		<rect id="XMLID_181_" x="-368.3" y="1032.8" class="st0" width="11.8" height="4.5"/>
		<path id="XMLID_172_" class="st0" d="M-280.9,965.5v15.7h-40.8v-3.7c8.5-4.1,16.7-8.1,24.8-12H-280.9z"/>
		<path id="XMLID_171_" class="st0" d="M-68.7,871H-81c-4.2-5.5-8.7-10.7-13.6-15.6h13.8C-76.5,860.4-72.4,865.5-68.7,871z"/>
		<rect id="XMLID_170_" x="-216.5" y="893.8" class="st0" width="7.7" height="7.7"/>
		<path id="XMLID_165_" class="st0" d="M-342.1,1016.4v23.2c-6.2-10.9-11-22.5-14.4-34.8h10.4
			C-345,1008.7-343.6,1012.6-342.1,1016.4z"/>
		<path id="XMLID_163_" class="st0" d="M-145.2,1031.5c-0.8,2.5-1.6,5-2.4,7.6h-23.9v-7.6H-145.2z"/>
		<path id="XMLID_162_" class="st0" d="M-310.6,876.8c-5.6,7.2-10.6,14.8-14.7,22.8h-11.2c3.8-7.9,8.3-15.5,13.4-22.8H-310.6z"/>
		<path id="XMLID_160_" class="st0" d="M-240.1,830.8v10l-0.1,0l0,0c-3.7,1-7.3,2.1-10.9,3.4h-24.5l34.3-13.5H-240.1z"/>
		<path id="XMLID_152_" class="st0" d="M-239.7,820.6l-10.9,3.4C-247,822.7-243.3,821.6-239.7,820.6z"/>
		<path id="XMLID_151_" class="st0" d="M-81.4,1066.5c-0.2,0.3-0.5,0.5-0.7,0.7c-8.6,8.6-18,16-28.1,22.3h-21.2
			c12.8-5.8,24.7-13.5,35.5-23H-81.4z"/>
		<path id="XMLID_150_" class="st0" d="M-287.1,1066.5c10.6,9.3,22.5,17.1,35.5,23h-21.1c-10.5-6.5-20.2-14.2-28.9-23H-287.1z"/>
		<rect id="XMLID_149_" x="-303.8" y="1086.8" class="st0" width="14.4" height="12"/>
		<rect id="XMLID_148_" x="-105.9" y="1096.2" class="st0" width="13" height="11.7"/>
		<rect id="XMLID_147_" x="-124.4" y="1104" class="st0" width="4.2" height="3.9"/>
	</g>
	<g id="XMLID_85_">
		<g id="XMLID_129_">
			<path id="XMLID_130_" class="st1" d="M-322.5,893.8h-11.2c-9.8,20.5-15,43.2-15,66.6c0,14.3,1.9,28.2,5.6,41.4h10.4
				c-3.9-13.1-6-27-6-41.4C-338.7,936.8-333.1,914.1-322.5,893.8z M-193.2,805.5h-0.4c-13.5,0-26.7,1.7-39.3,5h1.2v10
				c12.3-3.3,25.1-5,38.2-5h0.4c39.5,0.1,75.3,16.1,101.4,41.9h13.8C-106.4,825.7-147.5,805.6-193.2,805.5z M-267.2,824l34.3-13.5
				C-244.9,813.6-256.4,818.1-267.2,824z M-267.2,824c-13,7-25.2,16-36,26.8c-6.3,6.3-12,13.1-17.1,20.2h12.5
				c3.6-4.6,7.5-9,11.7-13.1c15.4-15.3,33.5-26.8,53.4-33.9H-267.2z M-42.6,926.2h-7.2v-10.3h4.4C-50,900.4-57,886-65.9,873h-12.3
				c18.5,24.4,29.5,54.8,29.5,87.6c0,38.7-15.2,75.2-42.6,102.5c-2.2,2.2-4.5,4.3-6.8,6.4h14.6c14.3-14.5,25.5-31.3,33.1-49.5
				c7.7-18.6,11.8-38.7,11.8-59.4C-38.7,948.8-40.1,937.3-42.6,926.2z M-193.9,1105.5h-0.4c-21.2-0.1-41.3-4.7-59.5-13h-21.1
				c23.5,14.5,51.1,22.9,80.6,23h0.4c29.2,0,57.2-8,81.4-23h-21.2C-152.3,1101-172.7,1105.5-193.9,1105.5z M-328.7,1013.4v23.2
				c6.8,12.1,15.2,23.1,24.9,32.9h14.5C-306.5,1054.3-320.2,1035.1-328.7,1013.4z M-45.3,915.8l2.7,10.3
				C-43.4,922.7-44.3,919.2-45.3,915.8z"/>
		</g>
		<g id="XMLID_122_">
			<path id="XMLID_126_" class="st1" d="M-221.7,1013.5c-2-1.3-3.4-0.2-3.3,1.9c0.6,12.5-1.9,25.1,1.3,37.4
				c1.7-10,0.5-20.1,0.7-30.2c0.1-5.6,1.8-6.3,6.5-3.6c7.3,4.2,13.8,9.6,22,12.1C-202.3,1023.3-212.7,1019.6-221.7,1013.5z
				 M-119.6,902.4c-0.3,0.2-0.6,0.4-1,0.6c0.1-0.1,0.3-0.2,0.4-0.3C-120,902.6-119.8,902.5-119.6,902.4c-0.1-0.2-0.3-0.3-0.4-0.4
				c-1.3,0.5-2.8,0.7-3.8,1.5c-42.2,33.3-84.4,66.8-126.5,100.1c3,0.9,4.7-1.3,6.6-2.8c18.1-14.3,36.4-28.4,54.4-42.8
				c20.3-16.2,40.9-32,61-48.5c-33.2,30.3-63.7,63.3-95.8,94.7c-2.5,2.4-4.5,5.2-4.5,8.8c0.2,12.9-1.8,26,1.7,38.7
				c0.1-11.6,0.4-23.1,0.1-34.7c-0.1-5.3,1.6-9,5.3-12.6c27.1-26.8,53.9-53.9,80.9-80.8c6.8-6.8,13.8-13.3,20.7-19.9
				c0.2,0,0.3-0.2,0.5-0.6C-119.4,902.9-119.4,902.6-119.6,902.4z"/>
			<path id="XMLID_125_" class="st1" d="M-96.4,888.4c-8.7,27-17.5,53.9-26.2,80.9h-40.1v10.3h36.8c-5.2,15.9-10.3,31.9-15.5,47.9
				h-26.3v7.6h23.9c-1.3,3.9-2.5,7.8-3.7,11.7c-2.2,6.9-4.1,9.2-11,4.3c-9-6.3-18.8-11.4-28.2-17c-2.4-1.4-4.5-3.7-7.6-2.9
				c-7.8-7.8-18.3-11.5-27.2-17.6c-2-1.3-3.4-0.2-3.3,1.9c0.6,12.5-1.9,25.1,1.3,37.4c-2.1,2.6-3,1.8-3.3-1.1
				c0.1-11.6,0.4-23.1,0.1-34.7c-0.1-5.3,1.6-9,5.3-12.6c27.1-26.8,53.9-53.9,80.9-80.8c6.8-6.8,13.8-13.3,20.7-19.9
				c0.2,0,0.3-0.2,0.5-0.6c0.1-0.3,0.1-0.5-0.1-0.7c1.3-1,2.2-2.4,3.6-3.3c-1.5,0.8-2.3,2.2-3.7,3.2c-0.1-0.1-0.2-0.2-0.3-0.3
				c-1.3,0.5-2.8,0.7-3.8,1.5c-42.2,33.3-84.4,66.8-126.5,100.1c-23.7-5.2-47.3-10.3-72.8-15.9c5.3-2.6,10.4-5,15.4-7.5v3.7h40.8
				v-15.7h-15.9c0,0,0,0,0.1,0c26.8-12.8,53.7-25.5,80.5-38.3h19.9v-3.2h-13.3c3.3-1.5,6.5-3.1,9.8-4.7h14.4v-6.3h-1.1
				c23.3-11,46.5-22.1,69.8-33.1c2.4-1.2,5.2-4.2,7.6-2C-92.9,882.8-95.6,885.9-96.4,888.4z"/>
			<path id="XMLID_124_" class="st1" d="M-119.5,903.1c-0.2,0.4-0.3,0.6-0.5,0.6c-6.9,6.6-13.9,13.1-20.7,19.9
				c-27,26.9-53.9,53.9-80.9,80.8c-3.7,3.7-5.4,7.4-5.3,12.6c0.3,11.6,0,23.1-0.1,34.7c-7.8-16-15.6-32-23.4-48
				c42.2-33.4,84.3-66.8,126.5-100.1c1-0.8,2.5-1,3.8-1.5c0.1,0.1,0.3,0.2,0.3,0.3c0,0,0,0.1,0.1,0.1
				C-119.4,902.6-119.4,902.9-119.5,903.1z"/>
			<path id="XMLID_123_" class="st1" d="M-194.5,1031.1c-9.7,7.2-19.5,14.5-29.2,21.7c-3.2-12.4-0.7-25-1.3-37.4
				c-0.1-2,1.3-3.2,3.3-1.9C-212.7,1019.6-202.3,1023.3-194.5,1031.1z"/>
		</g>
		<path id="XMLID_121_" class="st1" d="M-116.6,966.3c-1.1,3.4-2.2,6.9-3.3,10.3h-36.8v-10.3H-116.6z"/>
		<rect id="XMLID_120_" x="-122.4" y="988.8" class="st1" width="6.3" height="6.3"/>
		<rect id="XMLID_119_" x="-43.5" y="908.7" class="st1" width="8.2" height="8.2"/>
		<rect id="XMLID_118_" x="-34" y="927.4" class="st1" width="3.3" height="3.3"/>
		<rect id="XMLID_117_" x="-109.9" y="954.8" class="st1" width="6.3" height="6.3"/>
		<rect id="XMLID_116_" x="-104.6" y="919" class="st1" width="6.3" height="6.3"/>
		<rect id="XMLID_113_" x="-221.5" y="919" class="st1" width="10.7" height="6.3"/>
		<rect id="XMLID_112_" x="-307.7" y="950.3" class="st1" width="11.8" height="4.5"/>
		<rect id="XMLID_108_" x="-360.5" y="1032.8" class="st1" width="11.8" height="4.5"/>
		<path id="XMLID_107_" class="st1" d="M-273.1,965.5v15.7h-40.8v-3.7c8.5-4.1,16.7-8.1,24.8-12H-273.1z"/>
		<path id="XMLID_105_" class="st1" d="M-60.9,871h-12.3c-4.2-5.5-8.7-10.7-13.6-15.6h13.8C-68.7,860.4-64.6,865.5-60.9,871z"/>
		<rect id="XMLID_100_" x="-208.7" y="893.8" class="st1" width="7.7" height="7.7"/>
		<path id="XMLID_96_" class="st1" d="M-334.3,1016.4v23.2c-6.2-10.9-11-22.5-14.4-34.8h10.4
			C-337.2,1008.7-335.8,1012.6-334.3,1016.4z"/>
		<path id="XMLID_94_" class="st1" d="M-137.4,1031.5c-0.8,2.5-1.6,5-2.4,7.6h-23.9v-7.6H-137.4z"/>
		<path id="XMLID_93_" class="st1" d="M-302.8,876.8c-5.6,7.2-10.6,14.8-14.7,22.8h-11.2c3.8-7.9,8.3-15.5,13.4-22.8H-302.8z"/>
		<path id="XMLID_92_" class="st1" d="M-232.3,830.8v10l-0.1,0l0,0c-3.7,1-7.3,2.1-10.9,3.4h-24.5l34.3-13.5H-232.3z"/>
		<path id="XMLID_91_" class="st1" d="M-231.9,820.6l-10.9,3.4C-239.2,822.7-235.5,821.6-231.9,820.6z"/>
		<path id="XMLID_90_" class="st1" d="M-73.6,1066.5c-0.2,0.3-0.5,0.5-0.7,0.7c-8.6,8.6-18,16-28.1,22.3h-21.2
			c12.8-5.8,24.7-13.5,35.5-23H-73.6z"/>
		<path id="XMLID_89_" class="st1" d="M-279.3,1066.5c10.6,9.3,22.5,17.1,35.5,23h-21.1c-10.5-6.5-20.2-14.2-28.9-23H-279.3z"/>
		<rect id="XMLID_88_" x="-296" y="1086.8" class="st1" width="14.4" height="12"/>
		<rect id="XMLID_87_" x="-98.1" y="1096.2" class="st1" width="13" height="11.7"/>
		<rect id="XMLID_86_" x="-116.6" y="1104" class="st1" width="4.2" height="3.9"/>
	</g>
	<g id="XMLID_16_">
		<g id="XMLID_66_">
			<path id="XMLID_67_" class="st2" d="M-326.2,893.8h-11.2c-9.8,20.5-15,43.2-15,66.6c0,14.3,1.9,28.2,5.6,41.4h10.4
				c-3.9-13.1-6-27-6-41.4C-342.4,936.8-336.8,914.1-326.2,893.8z M-196.9,805.5h-0.4c-13.5,0-26.7,1.7-39.3,5h1.2v10
				c12.3-3.3,25.1-5,38.2-5h0.4c39.5,0.1,75.3,16.1,101.4,41.9h13.8C-110,825.7-151.2,805.6-196.9,805.5z M-270.9,824l34.3-13.5
				C-248.6,813.6-260.1,818.1-270.9,824z M-270.9,824c-13,7-25.2,16-36,26.8c-6.3,6.3-12,13.1-17.1,20.2h12.5
				c3.6-4.6,7.5-9,11.7-13.1c15.4-15.3,33.5-26.8,53.4-33.9H-270.9z M-46.3,926.2h-7.2v-10.3h4.4c-4.6-15.4-11.6-29.8-20.6-42.8
				h-12.3c18.5,24.4,29.5,54.8,29.5,87.6c0,38.7-15.2,75.2-42.6,102.5c-2.2,2.2-4.5,4.3-6.8,6.4h14.6c14.3-14.5,25.5-31.3,33.1-49.5
				c7.7-18.6,11.8-38.7,11.8-59.4C-42.4,948.8-43.7,937.3-46.3,926.2z M-197.6,1105.5h-0.4c-21.2-0.1-41.3-4.7-59.5-13h-21.1
				c23.5,14.5,51.1,22.9,80.6,23h0.4c29.2,0,57.2-8,81.4-23h-21.2C-156,1101-176.4,1105.5-197.6,1105.5z M-332.4,1013.4v23.2
				c6.8,12.1,15.2,23.1,24.9,32.9h14.5C-310.2,1054.3-323.9,1035.1-332.4,1013.4z M-49,915.8l2.7,10.3
				C-47.1,922.7-48,919.2-49,915.8z"/>
		</g>
		<g id="XMLID_57_">
			<path id="XMLID_61_" class="st2" d="M-225.3,1013.5c-2-1.3-3.4-0.2-3.3,1.9c0.6,12.5-1.9,25.1,1.3,37.4c1.7-10,0.5-20.1,0.7-30.2
				c0.1-5.6,1.8-6.3,6.5-3.6c7.3,4.2,13.8,9.6,22,12.1C-206,1023.3-216.4,1019.6-225.3,1013.5z M-123.3,902.4
				c-0.3,0.2-0.6,0.4-1,0.6c0.1-0.1,0.3-0.2,0.4-0.3C-123.7,902.6-123.5,902.5-123.3,902.4c-0.1-0.2-0.3-0.3-0.4-0.4
				c-1.3,0.5-2.8,0.7-3.8,1.5c-42.2,33.3-84.4,66.8-126.5,100.1c3,0.9,4.7-1.3,6.6-2.8c18.1-14.3,36.4-28.4,54.4-42.8
				c20.3-16.2,40.9-32,61-48.5c-33.2,30.3-63.7,63.3-95.8,94.7c-2.5,2.4-4.5,5.2-4.5,8.8c0.2,12.9-1.8,26,1.7,38.7
				c0.1-11.6,0.4-23.1,0.1-34.7c-0.1-5.3,1.6-9,5.3-12.6c27.1-26.8,53.9-53.9,80.9-80.8c6.8-6.8,13.8-13.3,20.7-19.9
				c0.2,0,0.3-0.2,0.5-0.6C-123.1,902.9-123.1,902.6-123.3,902.4z"/>
			<path id="XMLID_60_" class="st2" d="M-100.1,888.4c-8.7,27-17.5,53.9-26.2,80.9h-40.1v10.3h36.8c-5.2,15.9-10.3,31.9-15.5,47.9
				h-26.3v7.6h23.9c-1.3,3.9-2.5,7.8-3.7,11.7c-2.2,6.9-4.1,9.2-11,4.3c-9-6.3-18.8-11.4-28.2-17c-2.4-1.4-4.5-3.7-7.6-2.9
				c-7.8-7.8-18.3-11.5-27.2-17.6c-2-1.3-3.4-0.2-3.3,1.9c0.6,12.5-1.9,25.1,1.3,37.4c-2.1,2.6-3,1.8-3.3-1.1
				c0.1-11.6,0.4-23.1,0.1-34.7c-0.1-5.3,1.6-9,5.3-12.6c27.1-26.8,53.9-53.9,80.9-80.8c6.8-6.8,13.8-13.3,20.7-19.9
				c0.2,0,0.3-0.2,0.5-0.6c0.1-0.3,0.1-0.5-0.1-0.7c1.3-1,2.2-2.4,3.6-3.3c-1.5,0.8-2.3,2.2-3.7,3.2c-0.1-0.1-0.2-0.2-0.3-0.3
				c-1.3,0.5-2.8,0.7-3.8,1.5c-42.2,33.3-84.4,66.8-126.5,100.1c-23.7-5.2-47.3-10.3-72.8-15.9c5.3-2.6,10.4-5,15.4-7.5v3.7h40.8
				v-15.7h-15.9c0,0,0,0,0.1,0c26.8-12.8,53.7-25.5,80.5-38.3h19.9v-3.2h-13.3c3.3-1.5,6.5-3.1,9.8-4.7h14.4v-6.3h-1.1
				c23.3-11,46.5-22.1,69.8-33.1c2.4-1.2,5.2-4.2,7.6-2C-96.6,882.8-99.3,885.9-100.1,888.4z"/>
			<path id="XMLID_59_" class="st3" d="M-123.2,903.1c-0.2,0.4-0.3,0.6-0.5,0.6c-6.9,6.6-13.9,13.1-20.7,19.9
				c-27,26.9-53.9,53.9-80.9,80.8c-3.7,3.7-5.4,7.4-5.3,12.6c0.3,11.6,0,23.1-0.1,34.7c-7.8-16-15.6-32-23.4-48
				c42.2-33.4,84.3-66.8,126.5-100.1c1-0.8,2.5-1,3.8-1.5c0.1,0.1,0.3,0.2,0.3,0.3c0,0,0,0.1,0.1,0.1
				C-123.1,902.6-123.1,902.9-123.2,903.1z"/>
			<path id="XMLID_58_" class="st4" d="M-198.2,1031.1c-9.7,7.2-19.5,14.5-29.2,21.7c-3.2-12.4-0.7-25-1.3-37.4
				c-0.1-2,1.3-3.2,3.3-1.9C-216.4,1019.6-206,1023.3-198.2,1031.1z"/>
		</g>
		<path id="XMLID_56_" class="st2" d="M-120.3,966.3c-1.1,3.4-2.2,6.9-3.3,10.3h-36.8v-10.3H-120.3z"/>
		<rect id="XMLID_55_" x="-126.1" y="988.8" class="st2" width="6.3" height="6.3"/>
		<rect id="XMLID_54_" x="-47.2" y="908.7" class="st2" width="8.2" height="8.2"/>
		<rect id="XMLID_53_" x="-37.7" y="927.4" class="st2" width="3.3" height="3.3"/>
		<rect id="XMLID_52_" x="-113.6" y="954.8" class="st2" width="6.3" height="6.3"/>
		<rect id="XMLID_51_" x="-108.3" y="919" class="st2" width="6.3" height="6.3"/>
		<rect id="XMLID_49_" x="-225.2" y="919" class="st2" width="10.7" height="6.3"/>
		<rect id="XMLID_48_" x="-311.4" y="950.3" class="st2" width="11.8" height="4.5"/>
		<rect id="XMLID_47_" x="-364.2" y="1032.8" class="st2" width="11.8" height="4.5"/>
		<path id="XMLID_46_" class="st2" d="M-276.8,965.5v15.7h-40.8v-3.7c8.5-4.1,16.7-8.1,24.8-12H-276.8z"/>
		<path id="XMLID_45_" class="st2" d="M-64.6,871h-12.3c-4.2-5.5-8.7-10.7-13.6-15.6h13.8C-72.4,860.4-68.3,865.5-64.6,871z"/>
		<rect id="XMLID_42_" x="-212.4" y="893.8" class="st2" width="7.7" height="7.7"/>
		<path id="XMLID_41_" class="st2" d="M-338,1016.4v23.2c-6.2-10.9-11-22.5-14.4-34.8h10.4C-340.8,1008.7-339.5,1012.6-338,1016.4z"
			/>
		<path id="XMLID_40_" class="st2" d="M-141.1,1031.5c-0.8,2.5-1.6,5-2.4,7.6h-23.9v-7.6H-141.1z"/>
		<path id="XMLID_38_" class="st2" d="M-306.5,876.8c-5.6,7.2-10.6,14.8-14.7,22.8h-11.2c3.8-7.9,8.3-15.5,13.4-22.8H-306.5z"/>
		<path id="XMLID_37_" class="st2" d="M-236,830.8v10l-0.1,0l0,0c-3.7,1-7.3,2.1-10.9,3.4h-24.5l34.3-13.5H-236z"/>
		<path id="XMLID_35_" class="st2" d="M-235.6,820.6l-10.9,3.4C-242.9,822.7-239.2,821.6-235.6,820.6z"/>
		<path id="XMLID_33_" class="st2" d="M-77.3,1066.5c-0.2,0.3-0.5,0.5-0.7,0.7c-8.6,8.6-18,16-28.1,22.3h-21.2
			c12.8-5.8,24.7-13.5,35.5-23H-77.3z"/>
		<path id="XMLID_31_" class="st2" d="M-282.9,1066.5c10.6,9.3,22.5,17.1,35.5,23h-21.1c-10.5-6.5-20.2-14.2-28.9-23H-282.9z"/>
		<rect id="XMLID_30_" x="-299.7" y="1086.8" class="st2" width="14.4" height="12"/>
		<rect id="XMLID_28_" x="-101.8" y="1096.2" class="st2" width="13" height="11.7"/>
		<rect id="XMLID_19_" x="-120.3" y="1104" class="st2" width="4.2" height="3.9"/>
	</g>
</g>
</svg>
