<?xml version="1.0" encoding="utf-8"?>
<!-- Generator: Adobe Illustrator 19.0.0, SVG Export Plug-In . SVG Version: 6.00 Build 0)  -->
<svg version="1.1" id="Layer_1" xmlns="http://www.w3.org/2000/svg" xmlns:xlink="http://www.w3.org/1999/xlink" x="0px" y="0px"
	 viewBox="-399 761 400 400" style="enable-background:new -399 761 400 400;" xml:space="preserve">
<style type="text/css">
	.st0{fill:#E6CDE3;}
	.st1{fill:#F3859F;}
	.st2{fill:#C82127;}
</style>
<g>
	<g id="XMLID_833_">
		<g id="XMLID_877_">
			<g id="XMLID_920_">
				<path id="XMLID_921_" class="st0" d="M-337.7,1034.2c2.8,5.2,5.9,10.1,9.2,14.9L-337.7,1034.2z M-200.5,805.6h-0.7
					c-26.1,0-51.3,6.4-73.7,18.5h24.5c15.6-5.6,32.2-8.5,49.2-8.5h0.6c49.5,0.2,93.2,25.4,119.1,63.7h11.9
					C-96.7,835.3-145.2,805.8-200.5,805.6z M-310.7,850.8c-20.6,20.5-34.8,45.8-41.4,73.3h10.3c6.4-24.9,19.4-47.6,38.1-66.2
					c7.1-7.1,14.8-13.3,23-18.7h-17.1C-302.2,842.8-306.5,846.6-310.7,850.8z M-346.3,960.2c0-4.1,0.2-8.1,0.5-12.1h-10
					c-0.3,4-0.5,8-0.5,12.1c0,26.7,6.7,51.9,18.5,73.9h11.5C-339.1,1012.3-346.4,987.1-346.3,960.2z M-131.3,1087.6
					c-21.3,11.8-45.2,18-70.2,18h-0.6c-46.3-0.2-87.5-22.3-113.9-56.5h-12.4c27.9,40,74.1,66.3,126.3,66.5h0.7
					c32.3,0,63.1-9.8,89.1-28H-131.3z M-58.5,985.8c-5.1,29.2-19.1,56.1-40.6,77.5c-4.4,4.4-9.1,8.5-14,12.2h15.6
					c1.8-1.7,3.7-3.4,5.4-5.2c14.7-14.6,26.1-31.6,33.8-50.1c4.6-11,7.9-22.5,9.8-34.4H-58.5z M-62.3,892.3h-11.2
					c11,20.5,17.2,43.9,17.2,68.8c0,3.5-0.1,6.9-0.4,10.3h10c0.2-3.4,0.3-6.9,0.4-10.3C-46.3,936.4-52,913-62.3,892.3z"/>
			</g>
			<rect id="XMLID_919_" x="-160.6" y="977.8" class="st0" width="1.7" height="2.3"/>
			<rect id="XMLID_918_" x="-164.4" y="946.1" class="st0" width="1.8" height="3.5"/>
			<rect id="XMLID_917_" x="-115.3" y="1020.8" class="st0" width="4.5" height="4.8"/>
			<rect id="XMLID_916_" x="-107.9" y="982.5" class="st0" width="24.5" height="3.4"/>
			<path id="XMLID_915_" class="st0" d="M-117.9,930.9h-16.9v-6.8h16.3c0.4,1.4,0.5,2.9,0.6,4.4
				C-117.9,929.3-117.9,930.1-117.9,930.9z"/>
			<rect id="XMLID_914_" x="-115.3" y="930.9" class="st0" width="2.3" height="2.7"/>
			<rect id="XMLID_913_" x="-109.1" y="919.1" class="st0" width="11" height="2"/>
			<rect id="XMLID_912_" x="-110.8" y="992.8" class="st0" width="4" height="0.7"/>
			<rect id="XMLID_911_" x="-114.4" y="997.1" class="st0" width="1.3" height="1.2"/>
			<rect id="XMLID_910_" x="-286.9" y="973.6" class="st0" width="21" height="4.3"/>
			<rect id="XMLID_909_" x="-293.8" y="980.1" class="st0" width="7" height="5.8"/>
			<rect id="XMLID_908_" x="-298.1" y="965.1" class="st0" width="4.3" height="1"/>
			<rect id="XMLID_907_" x="-286.9" y="936.1" class="st0" width="1.2" height="6.5"/>
			<rect id="XMLID_906_" x="-300.2" y="941.3" class="st0" width="2.1" height="0.2"/>
			<rect id="XMLID_905_" x="-285.9" y="994.8" class="st0" width="18" height="7.4"/>
			<rect id="XMLID_904_" x="-306.3" y="1002.3" class="st0" width="7.2" height="2"/>
			<rect id="XMLID_903_" x="-290.3" y="1004.3" class="st0" width="2.3" height="5.1"/>
			<rect id="XMLID_902_" x="-193.3" y="897.5" class="st0" width="5.5" height="2.1"/>
			<path id="XMLID_901_" class="st0" d="M-56.3,890.3h-11.2c-2.4-4.5-5-8.8-7.9-13h11.9C-60.9,881.5-58.5,885.8-56.3,890.3z"/>
			<rect id="XMLID_900_" x="-81.7" y="906.5" class="st0" width="3.7" height="2.4"/>
			<rect id="XMLID_899_" x="-60.7" y="869.3" class="st0" width="8.3" height="6.3"/>
			<rect id="XMLID_898_" x="-46.3" y="897.5" class="st0" width="3" height="2.1"/>
			<path id="XMLID_897_" class="st0" d="M-51.7,973.3c-0.3,4.9-0.9,9.7-1.7,14.5h-10.1l1.8-14.5H-51.7z"/>
			<rect id="XMLID_896_" x="-70" y="967.1" class="st0" width="4.2" height="4.3"/>
			<rect id="XMLID_895_" x="-44.8" y="979" class="st0" width="4.2" height="1.1"/>
			<rect id="XMLID_894_" x="-75.4" y="992.5" class="st0" width="5.4" height="6"/>
			<path id="XMLID_893_" class="st0" d="M-321.1,1055.1h-12.4l-9.2-14.9c0-0.1,0-0.1-0.1-0.2h11.5
				C-328.2,1045.2-324.8,1050.3-321.1,1055.1z"/>
			<path id="XMLID_892_" class="st0" d="M-337.7,1034.2l-0.1-0.2h0C-337.7,1034.1-337.7,1034.1-337.7,1034.2z"/>
			<rect id="XMLID_891_" x="-308.3" y="1040" class="st0" width="10.3" height="7.5"/>
			<rect id="XMLID_890_" x="-348.8" y="1034" class="st0" width="2" height="7.6"/>
			<path id="XMLID_889_" class="st0" d="M-336.7,920.1c-2,7.8-3.4,15.8-4.1,24h-10c0.6-8.2,1.9-16.2,3.8-24H-336.7z"/>
			<rect id="XMLID_888_" x="-336.7" y="949.9" class="st0" width="4.8" height="3.7"/>
			<rect id="XMLID_887_" x="-330.7" y="927.5" class="st0" width="11.3" height="3.4"/>
			<path id="XMLID_886_" class="st0" d="M-94.5,1078.6c-4.8,4.3-9.8,8.3-15,12h-18.9c6.4-3.5,12.5-7.5,18.3-12H-94.5z"/>
			<rect id="XMLID_885_" x="-95.6" y="1084.6" class="st0" width="4.6" height="3.3"/>
			<rect id="XMLID_884_" x="-91" y="1077.9" class="st0" width="8.2" height="2"/>
			<rect id="XMLID_883_" x="-127.2" y="1075.6" class="st0" width="2.8" height="2.3"/>
			<rect id="XMLID_882_" x="-98.2" y="1100.3" class="st0" width="9.7" height="3.3"/>
			<path id="XMLID_881_" class="st0" d="M-247.3,827.1c-10.6,3.8-20.8,8.9-30.3,15.1h-17.1c7.2-5.7,14.9-10.8,22.9-15.1H-247.3z"/>
			<rect id="XMLID_880_" x="-257.3" y="855.3" class="st0" width="7.3" height="3.3"/>
			<rect id="XMLID_879_" x="-298.1" y="819.1" class="st0" width="11.2" height="2.9"/>
			<rect id="XMLID_878_" x="-310" y="834.2" class="st0" width="3.7" height="1.2"/>
		</g>
		<g id="XMLID_862_">
			<g id="XMLID_872_">
				<g id="XMLID_873_">
					<path id="XMLID_874_" class="st0" d="M-100.3,911.9l-13.3-13.4h-49.8v-8.3h41.5l-25.4-25.4c-2.2-2.2-5.7-2.2-7.8,0l-25,25
						c-2.2,2.2-2.2,5.7,0,7.8l47.1,47.1c1.1,1.1,2.5,1.6,3.9,1.6c1.4,0,2.8-0.5,3.9-1.6l25-25C-98.2,917.6-98.2,914.1-100.3,911.9z
						 M-128.3,927.5h-14.3v-8.4h14.3V927.5z"/>
				</g>
			</g>
			<g id="XMLID_866_">
				<g id="XMLID_867_">
					<path id="XMLID_868_" class="st0" d="M-146.7,964.5l5.9-11.8c-0.1-0.1-0.2-0.1-0.2-0.2l-47.1-47.1c-0.1-0.1-0.1-0.2-0.2-0.2
						l-27.6,13.8h18.2v13.2h-33v-5.8l-10.7,5.3c-1.2,0.6-2.2,1.6-2.7,2.9l-44,109.9l41.3-41.4h-5.7v-7.8h13.5l18.3-18.3
						c-1-2.2-1.7-4.6-1.7-7.1c0-9.2,7.5-16.6,16.6-16.6c9.2,0,16.6,7.5,16.6,16.6c0,9.2-7.5,16.6-16.6,16.6c-2.6,0-5-0.6-7.1-1.7
						l-10.4,10.4h23.1v7.8h-30.9l-49.2,49.2l109.9-44c1.3-0.5,2.3-1.5,2.9-2.7l17.3-34.5h-12.5v-6.8H-146.7z M-170,946.4h-17.8v-2.3
						h17.8V946.4z"/>
				</g>
			</g>
			<g id="XMLID_863_">
				<g id="XMLID_864_">
					<path id="XMLID_865_" class="st0" d="M-205.6,964.5c-3.1,0-5.5,2.5-5.5,5.5s2.5,5.5,5.5,5.5c3.1,0,5.5-2.5,5.5-5.5
						C-200,967-202.5,964.5-205.6,964.5z"/>
				</g>
			</g>
		</g>
		<polygon id="XMLID_856_" class="st0" points="-134.7,960.5 -138.1,967.3 -150.6,967.3 -150.6,960.5 		"/>
		<polygon id="XMLID_853_" class="st0" points="-201.7,913.1 -201.7,926.3 -234.7,926.3 -234.7,920.5 -219.8,913.1 		"/>
		<polygon id="XMLID_852_" class="st0" points="-194,997.5 -194,1005.3 -224.9,1005.3 -217.1,997.5 		"/>
		<polygon id="XMLID_851_" class="st0" points="-104.7,901.5 -154.5,901.5 -154.5,893.3 -113,893.3 		"/>
		<rect id="XMLID_850_" x="-145" y="913.1" class="st0" width="6.7" height="6"/>
		<rect id="XMLID_847_" x="-145" y="975.7" class="st0" width="4.7" height="3.8"/>
		<rect id="XMLID_836_" x="-164.4" y="865.6" class="st0" width="1.8" height="1.7"/>
		<rect id="XMLID_835_" x="-134.7" y="872.4" class="st0" width="10.4" height="1.5"/>
	</g>
	<g id="XMLID_942_">
		<g id="XMLID_966_">
			<g id="XMLID_3690_">
				<path id="XMLID_3691_" class="st1" d="M-331.7,1034.2c2.8,5.2,5.9,10.1,9.2,14.9L-331.7,1034.2z M-194.5,805.6h-0.7
					c-26.1,0-51.3,6.4-73.7,18.5h24.5c15.6-5.6,32.2-8.5,49.2-8.5h0.6c49.5,0.2,93.2,25.4,119.1,63.7h11.9
					C-90.7,835.3-139.2,805.8-194.5,805.6z M-304.7,850.8c-20.6,20.5-34.8,45.8-41.4,73.3h10.3c6.4-24.9,19.4-47.6,38.1-66.2
					c7.1-7.1,14.8-13.3,23-18.7h-17.1C-296.2,842.8-300.5,846.6-304.7,850.8z M-340.3,960.2c0-4.1,0.2-8.1,0.5-12.1h-10
					c-0.3,4-0.5,8-0.5,12.1c0,26.7,6.7,51.9,18.5,73.9h11.5C-333.1,1012.3-340.4,987.1-340.3,960.2z M-125.3,1087.6
					c-21.2,11.8-45.2,18-70.2,18h-0.6c-46.3-0.2-87.5-22.3-113.9-56.5h-12.4c27.9,40,74.1,66.3,126.3,66.5h0.7
					c32.3,0,63.1-9.8,89.1-28H-125.3z M-52.5,985.8c-5.1,29.2-19.1,56.1-40.6,77.5c-4.4,4.4-9.1,8.5-14,12.2h15.6
					c1.8-1.7,3.7-3.4,5.4-5.2c14.7-14.6,26.1-31.6,33.8-50.1c4.6-11,7.9-22.5,9.8-34.4H-52.5z M-56.3,892.3h-11.2
					c11,20.5,17.2,43.9,17.2,68.8c0,3.5-0.1,6.9-0.4,10.3h10c0.2-3.4,0.3-6.9,0.4-10.3C-40.3,936.4-46,913-56.3,892.3z"/>
			</g>
			<rect id="XMLID_3689_" x="-154.6" y="977.8" class="st1" width="1.7" height="2.3"/>
			<rect id="XMLID_3688_" x="-158.4" y="946.1" class="st1" width="1.8" height="3.5"/>
			<rect id="XMLID_3687_" x="-109.3" y="1020.8" class="st1" width="4.5" height="4.8"/>
			<rect id="XMLID_3686_" x="-101.9" y="982.5" class="st1" width="24.5" height="3.4"/>
			<path id="XMLID_3685_" class="st1" d="M-111.9,930.9h-16.9v-6.8h16.3c0.4,1.4,0.5,2.9,0.6,4.4
				C-111.9,929.3-111.9,930.1-111.9,930.9z"/>
			<rect id="XMLID_3684_" x="-109.3" y="930.9" class="st1" width="2.3" height="2.7"/>
			<rect id="XMLID_3683_" x="-103.1" y="919.1" class="st1" width="11" height="2"/>
			<rect id="XMLID_3682_" x="-104.8" y="992.8" class="st1" width="4" height="0.7"/>
			<rect id="XMLID_3681_" x="-108.4" y="997.1" class="st1" width="1.3" height="1.2"/>
			<rect id="XMLID_3680_" x="-280.9" y="973.6" class="st1" width="21" height="4.3"/>
			<rect id="XMLID_3679_" x="-287.8" y="980.1" class="st1" width="7" height="5.8"/>
			<rect id="XMLID_3678_" x="-292.1" y="965.1" class="st1" width="4.3" height="1"/>
			<rect id="XMLID_3677_" x="-280.9" y="936.1" class="st1" width="1.2" height="6.5"/>
			<rect id="XMLID_3676_" x="-294.2" y="941.3" class="st1" width="2.1" height="0.2"/>
			<rect id="XMLID_3675_" x="-279.9" y="994.8" class="st1" width="18" height="7.4"/>
			<rect id="XMLID_3674_" x="-300.3" y="1002.3" class="st1" width="7.2" height="2"/>
			<rect id="XMLID_3673_" x="-284.3" y="1004.3" class="st1" width="2.3" height="5.1"/>
			<rect id="XMLID_3672_" x="-187.3" y="897.5" class="st1" width="5.5" height="2.1"/>
			<path id="XMLID_3671_" class="st1" d="M-50.3,890.3h-11.2c-2.4-4.5-5-8.8-7.9-13h11.9C-54.9,881.5-52.5,885.8-50.3,890.3z"/>
			<rect id="XMLID_3670_" x="-75.7" y="906.5" class="st1" width="3.7" height="2.4"/>
			<rect id="XMLID_2518_" x="-54.7" y="869.3" class="st1" width="8.3" height="6.3"/>
			<rect id="XMLID_2460_" x="-40.3" y="897.5" class="st1" width="3" height="2.1"/>
			<path id="XMLID_2459_" class="st1" d="M-45.7,973.3c-0.3,4.9-0.9,9.7-1.7,14.5h-10.1l1.8-14.5H-45.7z"/>
			<rect id="XMLID_2458_" x="-64" y="967.1" class="st1" width="4.2" height="4.3"/>
			<rect id="XMLID_2457_" x="-38.8" y="979" class="st1" width="4.2" height="1.1"/>
			<rect id="XMLID_2453_" x="-69.4" y="992.5" class="st1" width="5.4" height="6"/>
			<path id="XMLID_1209_" class="st1" d="M-315.1,1055.1h-12.4l-9.2-14.9c0-0.1,0-0.1-0.1-0.2h11.5
				C-322.2,1045.2-318.8,1050.3-315.1,1055.1z"/>
			<path id="XMLID_1207_" class="st1" d="M-331.7,1034.2l-0.1-0.2h0C-331.7,1034.1-331.7,1034.1-331.7,1034.2z"/>
			<rect id="XMLID_1201_" x="-302.3" y="1040" class="st1" width="10.3" height="7.5"/>
			<rect id="XMLID_1200_" x="-342.8" y="1034" class="st1" width="2" height="7.6"/>
			<path id="XMLID_1024_" class="st1" d="M-330.7,920.1c-2,7.8-3.4,15.8-4.1,24h-10c0.6-8.2,1.9-16.2,3.8-24H-330.7z"/>
			<rect id="XMLID_1015_" x="-330.7" y="949.9" class="st1" width="4.8" height="3.7"/>
			<rect id="XMLID_976_" x="-324.7" y="927.5" class="st1" width="11.3" height="3.4"/>
			<path id="XMLID_975_" class="st1" d="M-88.5,1078.6c-4.8,4.3-9.8,8.3-15,12h-18.9c6.4-3.5,12.5-7.5,18.3-12H-88.5z"/>
			<rect id="XMLID_974_" x="-89.6" y="1084.6" class="st1" width="4.6" height="3.3"/>
			<rect id="XMLID_973_" x="-85" y="1077.9" class="st1" width="8.2" height="2"/>
			<rect id="XMLID_972_" x="-121.2" y="1075.6" class="st1" width="2.8" height="2.3"/>
			<rect id="XMLID_971_" x="-92.2" y="1100.3" class="st1" width="9.7" height="3.3"/>
			<path id="XMLID_970_" class="st1" d="M-241.3,827.1c-10.6,3.8-20.8,8.9-30.3,15.1h-17.1c7.2-5.7,14.9-10.8,22.9-15.1H-241.3z"/>
			<rect id="XMLID_969_" x="-251.3" y="855.3" class="st1" width="7.3" height="3.3"/>
			<rect id="XMLID_968_" x="-292.1" y="819.1" class="st1" width="11.2" height="2.9"/>
			<rect id="XMLID_967_" x="-304" y="834.2" class="st1" width="3.7" height="1.2"/>
		</g>
		<g id="XMLID_951_">
			<g id="XMLID_961_">
				<g id="XMLID_962_">
					<path id="XMLID_963_" class="st1" d="M-94.3,911.9l-13.3-13.4h-49.8v-8.3h41.5l-25.4-25.4c-2.2-2.2-5.7-2.2-7.8,0l-25,25
						c-2.2,2.2-2.2,5.7,0,7.8l47.1,47.1c1.1,1.1,2.5,1.6,3.9,1.6c1.4,0,2.8-0.5,3.9-1.6l25-25C-92.2,917.6-92.2,914.1-94.3,911.9z
						 M-122.3,927.5h-14.3v-8.4h14.3V927.5z"/>
				</g>
			</g>
			<g id="XMLID_955_">
				<g id="XMLID_956_">
					<path id="XMLID_957_" class="st1" d="M-140.7,964.5l5.9-11.8c-0.1-0.1-0.2-0.1-0.2-0.2l-47.1-47.1c-0.1-0.1-0.1-0.2-0.2-0.2
						l-27.6,13.8h18.2v13.2h-33v-5.8l-10.7,5.3c-1.2,0.6-2.2,1.6-2.7,2.9l-44,109.9l41.3-41.4h-5.7v-7.8h13.5l18.3-18.3
						c-1-2.2-1.7-4.6-1.7-7.1c0-9.2,7.5-16.6,16.6-16.6c9.2,0,16.6,7.5,16.6,16.6c0,9.2-7.5,16.6-16.6,16.6c-2.6,0-5-0.6-7.1-1.7
						l-10.4,10.4h23.1v7.8h-30.9l-49.2,49.2l109.9-44c1.3-0.5,2.3-1.5,2.9-2.7l17.3-34.5h-12.5v-6.8H-140.7z M-164,946.4h-17.8v-2.3
						h17.8V946.4z"/>
				</g>
			</g>
			<g id="XMLID_952_">
				<g id="XMLID_953_">
					<path id="XMLID_954_" class="st1" d="M-199.6,964.5c-3.1,0-5.5,2.5-5.5,5.5s2.5,5.5,5.5,5.5c3.1,0,5.5-2.5,5.5-5.5
						C-194,967-196.5,964.5-199.6,964.5z"/>
				</g>
			</g>
		</g>
		<polygon id="XMLID_950_" class="st1" points="-128.7,960.5 -132.1,967.3 -144.6,967.3 -144.6,960.5 		"/>
		<polygon id="XMLID_949_" class="st1" points="-195.7,913.1 -195.7,926.3 -228.7,926.3 -228.7,920.5 -213.8,913.1 		"/>
		<polygon id="XMLID_948_" class="st1" points="-188,997.5 -188,1005.3 -218.9,1005.3 -211.1,997.5 		"/>
		<polygon id="XMLID_947_" class="st1" points="-98.7,901.5 -148.5,901.5 -148.5,893.3 -107,893.3 		"/>
		<rect id="XMLID_946_" x="-139" y="913.1" class="st1" width="6.7" height="6"/>
		<rect id="XMLID_945_" x="-139" y="975.7" class="st1" width="4.7" height="3.8"/>
		<rect id="XMLID_944_" x="-158.4" y="865.6" class="st1" width="1.8" height="1.7"/>
		<rect id="XMLID_943_" x="-128.7" y="872.4" class="st1" width="10.4" height="1.5"/>
	</g>
	<g id="XMLID_819_">
		<g id="XMLID_776_">
			<g id="XMLID_838_">
				<path id="XMLID_839_" class="st2" d="M-334.7,1034.2c2.8,5.2,5.9,10.1,9.2,14.9L-334.7,1034.2z M-197.5,805.6h-0.7
					c-26.1,0-51.3,6.4-73.7,18.5h24.5c15.6-5.6,32.2-8.5,49.2-8.5h0.6c49.5,0.2,93.2,25.4,119.1,63.7h11.9
					C-93.7,835.3-142.2,805.8-197.5,805.6z M-307.7,850.8c-20.6,20.5-34.8,45.8-41.4,73.3h10.3c6.4-24.9,19.4-47.6,38.1-66.2
					c7.1-7.1,14.8-13.3,23-18.7h-17.1C-299.2,842.8-303.5,846.6-307.7,850.8z M-343.3,960.2c0-4.1,0.2-8.1,0.5-12.1h-10
					c-0.3,4-0.5,8-0.5,12.1c0,26.7,6.7,51.9,18.5,73.9h11.5C-336.1,1012.3-343.4,987.1-343.3,960.2z M-128.3,1087.6
					c-21.3,11.8-45.2,18-70.2,18h-0.6c-46.3-0.2-87.5-22.3-113.9-56.5h-12.4c27.9,40,74.1,66.3,126.3,66.5h0.7
					c32.3,0,63.1-9.8,89.1-28H-128.3z M-55.5,985.8c-5.1,29.2-19.1,56.1-40.6,77.5c-4.4,4.4-9.1,8.5-14,12.2h15.6
					c1.8-1.7,3.7-3.4,5.4-5.2c14.7-14.6,26.1-31.6,33.8-50.1c4.6-11,7.9-22.5,9.8-34.4H-55.5z M-59.3,892.3h-11.2
					c11,20.5,17.2,43.9,17.2,68.8c0,3.5-0.1,6.9-0.4,10.3h10c0.2-3.4,0.3-6.9,0.4-10.3C-43.3,936.4-49,913-59.3,892.3z"/>
			</g>
			<rect id="XMLID_821_" x="-157.6" y="977.8" class="st2" width="1.7" height="2.3"/>
			<rect id="XMLID_820_" x="-161.4" y="946.1" class="st2" width="1.8" height="3.5"/>
			<rect id="XMLID_816_" x="-112.3" y="1020.8" class="st2" width="4.5" height="4.8"/>
			<rect id="XMLID_815_" x="-104.9" y="982.5" class="st2" width="24.5" height="3.4"/>
			<path id="XMLID_814_" class="st2" d="M-114.9,930.9h-16.9v-6.8h16.3c0.4,1.4,0.5,2.9,0.6,4.4
				C-114.9,929.3-114.9,930.1-114.9,930.9z"/>
			<rect id="XMLID_813_" x="-112.3" y="930.9" class="st2" width="2.3" height="2.7"/>
			<rect id="XMLID_812_" x="-106.1" y="919.1" class="st2" width="11" height="2"/>
			<rect id="XMLID_811_" x="-107.8" y="992.8" class="st2" width="4" height="0.7"/>
			<rect id="XMLID_810_" x="-111.4" y="997.1" class="st2" width="1.3" height="1.2"/>
			<rect id="XMLID_809_" x="-283.9" y="973.6" class="st2" width="21" height="4.3"/>
			<rect id="XMLID_808_" x="-290.8" y="980.1" class="st2" width="7" height="5.8"/>
			<rect id="XMLID_807_" x="-295.1" y="965.1" class="st2" width="4.3" height="1"/>
			<rect id="XMLID_806_" x="-283.9" y="936.1" class="st2" width="1.2" height="6.5"/>
			<rect id="XMLID_805_" x="-297.2" y="941.3" class="st2" width="2.1" height="0.2"/>
			<rect id="XMLID_804_" x="-282.9" y="994.8" class="st2" width="18" height="7.4"/>
			<rect id="XMLID_803_" x="-303.3" y="1002.3" class="st2" width="7.2" height="2"/>
			<rect id="XMLID_802_" x="-287.3" y="1004.3" class="st2" width="2.3" height="5.1"/>
			<rect id="XMLID_801_" x="-190.3" y="897.5" class="st2" width="5.5" height="2.1"/>
			<path id="XMLID_800_" class="st2" d="M-53.3,890.3h-11.2c-2.4-4.5-5-8.8-7.9-13h11.9C-57.9,881.5-55.5,885.8-53.3,890.3z"/>
			<rect id="XMLID_799_" x="-78.7" y="906.5" class="st2" width="3.7" height="2.4"/>
			<rect id="XMLID_798_" x="-57.7" y="869.3" class="st2" width="8.3" height="6.3"/>
			<rect id="XMLID_797_" x="-43.3" y="897.5" class="st2" width="3" height="2.1"/>
			<path id="XMLID_796_" class="st2" d="M-48.7,973.3c-0.3,4.9-0.9,9.7-1.7,14.5h-10.1l1.8-14.5H-48.7z"/>
			<rect id="XMLID_795_" x="-67" y="967.1" class="st2" width="4.2" height="4.3"/>
			<rect id="XMLID_794_" x="-41.8" y="979" class="st2" width="4.2" height="1.1"/>
			<rect id="XMLID_793_" x="-72.4" y="992.5" class="st2" width="5.4" height="6"/>
			<path id="XMLID_792_" class="st2" d="M-318.1,1055.1h-12.4l-9.2-14.9c0-0.1,0-0.1-0.1-0.2h11.5
				C-325.2,1045.2-321.8,1050.3-318.1,1055.1z"/>
			<path id="XMLID_791_" class="st2" d="M-334.7,1034.2l-0.1-0.2h0C-334.7,1034.1-334.7,1034.1-334.7,1034.2z"/>
			<rect id="XMLID_790_" x="-305.3" y="1040" class="st2" width="10.3" height="7.5"/>
			<rect id="XMLID_789_" x="-345.8" y="1034" class="st2" width="2" height="7.6"/>
			<path id="XMLID_788_" class="st2" d="M-333.7,920.1c-2,7.8-3.4,15.8-4.1,24h-10c0.6-8.2,1.9-16.2,3.8-24H-333.7z"/>
			<rect id="XMLID_787_" x="-333.7" y="949.9" class="st2" width="4.8" height="3.7"/>
			<rect id="XMLID_786_" x="-327.7" y="927.5" class="st2" width="11.3" height="3.4"/>
			<path id="XMLID_785_" class="st2" d="M-91.5,1078.6c-4.8,4.3-9.8,8.3-15,12h-18.9c6.4-3.5,12.5-7.5,18.3-12H-91.5z"/>
			<rect id="XMLID_784_" x="-92.6" y="1084.6" class="st2" width="4.6" height="3.3"/>
			<rect id="XMLID_783_" x="-88" y="1077.9" class="st2" width="8.2" height="2"/>
			<rect id="XMLID_782_" x="-124.2" y="1075.6" class="st2" width="2.8" height="2.3"/>
			<rect id="XMLID_781_" x="-95.2" y="1100.3" class="st2" width="9.7" height="3.3"/>
			<path id="XMLID_780_" class="st2" d="M-244.3,827.1c-10.6,3.8-20.8,8.9-30.3,15.1h-17.1c7.2-5.7,14.9-10.8,22.9-15.1H-244.3z"/>
			<rect id="XMLID_779_" x="-254.3" y="855.3" class="st2" width="7.3" height="3.3"/>
			<rect id="XMLID_778_" x="-295.1" y="819.1" class="st2" width="11.2" height="2.9"/>
			<rect id="XMLID_777_" x="-307" y="834.2" class="st2" width="3.7" height="1.2"/>
		</g>
		<g id="XMLID_822_">
			<g id="XMLID_831_">
				<g id="XMLID_832_">
					<path id="XMLID_859_" class="st2" d="M-97.3,911.9l-13.3-13.4h-49.8v-8.3h41.5l-25.4-25.4c-2.2-2.2-5.7-2.2-7.8,0l-25,25
						c-2.2,2.2-2.2,5.7,0,7.8l47.1,47.1c1.1,1.1,2.5,1.6,3.9,1.6c1.4,0,2.8-0.5,3.9-1.6l25-25C-95.2,917.6-95.2,914.1-97.3,911.9z
						 M-125.3,927.5h-14.3v-8.4h14.3V927.5z"/>
				</g>
			</g>
			<g id="XMLID_828_">
				<g id="XMLID_829_">
					<path id="XMLID_858_" class="st2" d="M-143.7,964.5l5.9-11.8c-0.1-0.1-0.2-0.1-0.2-0.2l-47.1-47.1c-0.1-0.1-0.1-0.2-0.2-0.2
						l-27.6,13.8h18.2v13.2h-33v-5.8l-10.7,5.3c-1.2,0.6-2.2,1.6-2.7,2.9l-44,109.9l41.3-41.4h-5.7v-7.8h13.5l18.3-18.3
						c-1-2.2-1.7-4.6-1.7-7.1c0-9.2,7.5-16.6,16.6-16.6c9.2,0,16.6,7.5,16.6,16.6c0,9.2-7.5,16.6-16.6,16.6c-2.6,0-5-0.6-7.1-1.7
						l-10.4,10.4h23.1v7.8h-30.9l-49.2,49.2l109.9-44c1.3-0.5,2.3-1.5,2.9-2.7l17.3-34.5h-12.5v-6.8H-143.7z M-167,946.4h-17.8v-2.3
						h17.8V946.4z"/>
				</g>
			</g>
			<g id="XMLID_825_">
				<g id="XMLID_826_">
					<path id="XMLID_817_" class="st2" d="M-202.6,964.5c-3.1,0-5.5,2.5-5.5,5.5s2.5,5.5,5.5,5.5c3.1,0,5.5-2.5,5.5-5.5
						C-197,967-199.5,964.5-202.6,964.5z"/>
				</g>
			</g>
		</g>
		<polygon id="XMLID_834_" class="st2" points="-131.7,960.5 -135.1,967.3 -147.6,967.3 -147.6,960.5 		"/>
		<polygon id="XMLID_849_" class="st2" points="-198.7,913.1 -198.7,926.3 -231.7,926.3 -231.7,920.5 -216.8,913.1 		"/>
		<polygon id="XMLID_848_" class="st2" points="-191,997.5 -191,1005.3 -221.9,1005.3 -214.1,997.5 		"/>
		<polygon id="XMLID_837_" class="st2" points="-101.7,901.5 -151.5,901.5 -151.5,893.3 -110,893.3 		"/>
		<rect id="XMLID_818_" x="-142" y="913.1" class="st2" width="6.7" height="6"/>
		<rect id="XMLID_823_" x="-142" y="975.7" class="st2" width="4.7" height="3.8"/>
		<rect id="XMLID_824_" x="-161.4" y="865.6" class="st2" width="1.8" height="1.7"/>
		<rect id="XMLID_827_" x="-131.7" y="872.4" class="st2" width="10.4" height="1.5"/>
	</g>
</g>
</svg>
