<?xml version="1.0" encoding="utf-8"?>
<!-- Generator: Adobe Illustrator 19.0.0, SVG Export Plug-In . SVG Version: 6.00 Build 0)  -->
<svg version="1.1" id="Layer_1" xmlns="http://www.w3.org/2000/svg" xmlns:xlink="http://www.w3.org/1999/xlink" x="0px" y="0px"
	 viewBox="-399 761 400 400" style="enable-background:new -399 761 400 400;" xml:space="preserve">
<style type="text/css">
	.st0{fill:#F1CDFF;}
	.st1{fill:#FF869F;}
	.st2{fill:#C8000F;}
</style>
<g>
	<g id="XMLID_672_">
		<g id="XMLID_745_">
			<path id="XMLID_746_" class="st0" d="M-215.1,811h-0.5c-19.1,0-37.7,3.4-55.1,10h21.6v3.8c10.8-2.5,22-3.8,33.5-3.8h0.5
				c41.4,0.1,78.8,17.8,105.1,46h13.3C-125,832.9-167.6,811.1-215.1,811z M-71,911h-10.8c7,17.1,10.9,35.7,10.8,55.3
				c0,20.8-4.4,40.8-12.7,59.2h10.9c7.7-18.5,11.8-38.6,11.8-59.2C-60.8,946.8-64.4,928.2-71,911z M-328.9,860
				c-17.4,18.5-29.8,40.5-36.4,64.5h10.4c6.8-22.9,19.3-43.8,36.7-61.2c1.1-1.1,2.3-2.2,3.4-3.3H-328.9z M-369.8,983.9
				c2.8,24.2,11.2,46.6,23.8,66.1h12.1c-13.7-19.1-22.8-41.7-25.8-66.1H-369.8z M-91.1,1040.1c-6.2,10.3-13.7,19.9-22.4,28.6
				c-27.5,27.4-64.1,42.4-103,42.3c-26.5-0.1-51.4-7.4-72.7-20h-18.1c25.5,18.8,56.9,29.9,90.8,30h0.6c41.4,0,80.3-16,109.5-45.2
				c10.8-10.7,19.8-22.8,26.9-35.7H-91.1z"/>
		</g>
		<path id="XMLID_741_" class="st0" d="M-153.4,971v5h7.4v-5H-153.4z M-270.4,927.6v2.7h7.5v-2.7H-270.4z M-308.6,975.1
			c-1.4,1-2.9,2-4.5,2.9h7.2c1.2-0.9,2.3-1.8,3.4-2.8l0.2-0.1H-308.6z"/>
		<path id="XMLID_732_" class="st0" d="M-94.4,988.6v-4.4c-31.8,0-46-28.2-50.6-37.2v-6.4c0-0.1-0.1-0.1-0.1-0.2v-6.8h-15.2v-8.7
			h15.2v-2.4h-0.3l-0.4-1.6l-2.2-9.6v-0.2h-0.5v0.2l-1.3,4.7h-3.4l-2.8-12.4h0.4l-0.1-1.3h-1.8l-0.1,1.3h0.4l-3.3,12.4h-3.3
			l-1.1-4.7v-0.2h-0.5v0.2l-2.9,11.2h-0.2v11.6h-94.3v-3.8h-7.5v-2.7h7.5v-5.1h-0.2l-3-11.2v-0.2h-0.5v0.2l-1.1,4.7h-3.4l-3.3-12.4
			h0.4l-0.1-1.3h-1.8l-0.1,1.3h0.4l-2.9,12.4h-3.4l-1.2-4.7v-0.2h-0.5v0.2l-1,4.2l-0.7,3h4.3v6.4h-5.5v10h9v5h-9v0.5
			c0,0.1-0.1,0.1-0.1,0.2v6.4c-2.9,5.7-9.5,19-22.1,28.1h6.2c1.3-1.2,2.6-2.4,3.8-3.7v24.3h-15.3v-12.6c2.9-1.5,5.5-3.2,8-5.1h-7.2
			c-6.6,3.8-14.6,6.3-24.3,6.3v3.6l0.1,0.7c7.4,0,13.9-1.5,19.5-3.8v10.9h-19.3v4.6h43.8v17h12.3v12.1h24.5v-20.8l40-9.4h1.2l40,9.4
			v16.9h5.3v3.8h31.5v-8.4h-3.1v-8.1h3.1v-12.6h43.8v-4.6H-114v-11C-108.3,987.1-101.8,988.6-94.4,988.6z M-285.5,995.7h-9.3v-28.5
			c4-4.9,7.1-9.7,9.3-13.3V995.7z M-253,1002.1v-4.9h23.9L-253,1002.1z M-180.3,1002.1l-23.9-4.9h23.9V1002.1z M-167.7,992.5h-96
			v-9.1h-11.1v-14.7h11.1v-15l0.9-2.8v-5.9h94.3v5.9l0.9,2.8V992.5z M-136.8,995.7h-9.1V976h-7.4v-5h7.4v-17
			c2.2,3.5,5.1,8.2,9.1,12.9V995.7z M-117.8,995.7h-15.3v-24.6c4.2,4.4,9.2,8.6,15.3,11.8V995.7z"/>
		<rect id="XMLID_731_" x="-156.4" y="920.9" class="st0" width="15.2" height="8.7"/>
		<rect id="XMLID_730_" x="-260.4" y="922.6" class="st0" width="7.5" height="2.7"/>
		<rect id="XMLID_729_" x="-272.9" y="966.7" class="st0" width="11.1" height="14.7"/>
		<rect id="XMLID_728_" x="-298.1" y="1018.4" class="st0" width="12.3" height="12.1"/>
		<rect id="XMLID_727_" x="-138.4" y="1015.9" class="st0" width="3.1" height="8.1"/>
		<rect id="XMLID_726_" x="-200.1" y="1017.7" class="st0" width="5.3" height="3.8"/>
		<rect id="XMLID_725_" x="-147.4" y="975" class="st0" width="7.4" height="5"/>
		<polygon id="XMLID_724_" class="st0" points="-306.4,971.1 -306.5,971.2 -309.9,974 -317,974 -312.6,971.1 		"/>
		<rect id="XMLID_723_" x="-299.3" y="942" class="st0" width="9" height="5"/>
		<polygon id="XMLID_722_" class="st0" points="-283.9,915.6 -283.9,921.9 -289.3,921.9 -289.3,919.6 -289.1,919.6 -288.1,915.6 		
			"/>
		<rect id="XMLID_721_" x="-256.6" y="963.2" class="st0" width="2.3" height="3.4"/>
		<rect id="XMLID_720_" x="-256.6" y="971.1" class="st0" width="3.7" height="1.4"/>
		<rect id="XMLID_719_" x="-256.6" y="927.6" class="st0" width="1.1" height="1.3"/>
		<rect id="XMLID_718_" x="-298.1" y="949.7" class="st0" width="1.8" height="2"/>
		<rect id="XMLID_717_" x="-286.6" y="938" class="st0" width="2.7" height="2"/>
		<rect id="XMLID_716_" x="-289.3" y="924" class="st0" width="4.1" height="1"/>
		<rect id="XMLID_715_" x="-151.6" y="931.5" class="st0" width="5.7" height="0.8"/>
		<rect id="XMLID_714_" x="-141.1" y="934.5" class="st0" width="2.7" height="3.5"/>
		<rect id="XMLID_713_" x="-142.4" y="971" class="st0" width="1.2" height="0.8"/>
		<rect id="XMLID_712_" x="-135.3" y="1012" class="st0" width="1.2" height="1.3"/>
		<rect id="XMLID_711_" x="-183.4" y="1030.5" class="st0" width="7.5" height="1.8"/>
		<rect id="XMLID_710_" x="-283.9" y="1032.2" class="st0" width="4" height="2.3"/>
		<rect id="XMLID_709_" x="-236.9" y="966" class="st0" width="22" height="2.7"/>
		<rect id="XMLID_708_" x="-218.9" y="971.1" class="st0" width="5.5" height="1.4"/>
		<rect id="XMLID_707_" x="-254.8" y="1012" class="st0" width="5.7" height="1.3"/>
		<rect id="XMLID_706_" x="-262.9" y="1021.5" class="st0" width="18.3" height="1.3"/>
		<rect id="XMLID_705_" x="-319.4" y="989.2" class="st0" width="11.6" height="1"/>
		<rect id="XMLID_704_" x="-285.2" y="1021.5" class="st0" width="2.4" height="2.6"/>
		<rect id="XMLID_703_" x="-296.4" y="1034.5" class="st0" width="7" height="1.3"/>
		<rect id="XMLID_702_" x="-139.9" y="1033.4" class="st0" width="3.1" height="1.8"/>
		<rect id="XMLID_701_" x="-142.4" y="983.4" class="st0" width="2.6" height="0.9"/>
		<rect id="XMLID_700_" x="-131.4" y="984.3" class="st0" width="6.8" height="1"/>
		<rect id="XMLID_699_" x="-127.9" y="987.1" class="st0" width="2.5" height="0.4"/>
		<path id="XMLID_698_" class="st0" d="M-66,906h-10.8c-6.7-16.4-16.4-31.3-28.3-44h13.3C-80.8,875-72.1,889.9-66,906z"/>
		<path id="XMLID_697_" class="st0" d="M-355.9,968.7c0,6.1,0.4,12.2,1.1,18.2h-10.1c-0.7-6-1-12-1-18.2c0-14.1,1.9-28,5.6-41.2
			h10.4C-353.8,940.7-355.8,954.5-355.9,968.7z"/>
		<path id="XMLID_696_" class="st0" d="M-295.3,1096h-18.1c-15.2-11.2-28.3-25.1-38.6-41h12.1
			C-328.1,1071.6-312.9,1085.6-295.3,1096z"/>
		<path id="XMLID_695_" class="st0" d="M-77.6,1022.5c-2.1,5-4.4,9.8-7,14.6h-11.5c2.8-4.7,5.3-9.6,7.6-14.6H-77.6z"/>
		<path id="XMLID_694_" class="st0" d="M-245.1,823v3.8c-24.4,5.7-47,17.7-65.7,35.2h-14.1c1.2-1.3,2.4-2.5,3.7-3.8
			c15.8-15.7,34.3-27.6,54.5-35.2H-245.1z"/>
		<rect id="XMLID_693_" x="-319.4" y="1059.3" class="st0" width="7.6" height="4.2"/>
		<rect id="XMLID_692_" x="-308.9" y="1074" class="st0" width="8.8" height="1.5"/>
		<rect id="XMLID_691_" x="-302.4" y="1080.5" class="st0" width="3" height="2.5"/>
		<rect id="XMLID_690_" x="-372.1" y="1009" class="st0" width="2.3" height="3"/>
		<rect id="XMLID_689_" x="-378.9" y="944.5" class="st0" width="7.9" height="2.5"/>
		<rect id="XMLID_688_" x="-385.6" y="961.5" class="st0" width="4.3" height="4.5"/>
		<rect id="XMLID_687_" x="-377.6" y="970" class="st0" width="1" height="1"/>
		<rect id="XMLID_686_" x="-388.1" y="978" class="st0" width="4.6" height="2"/>
		<rect id="XMLID_685_" x="-347.6" y="956" class="st0" width="5" height="3.8"/>
		<rect id="XMLID_684_" x="-314.8" y="827.2" class="st0" width="8.4" height="1.3"/>
		<rect id="XMLID_683_" x="-322.4" y="839" class="st0" width="3" height="3.5"/>
		<rect id="XMLID_682_" x="-292.4" y="853.5" class="st0" width="5.8" height="2.3"/>
		<rect id="XMLID_681_" x="-278.4" y="848" class="st0" width="3.5" height="2.8"/>
		<rect id="XMLID_680_" x="-111.4" y="884" class="st0" width="12" height="3"/>
		<rect id="XMLID_679_" x="-105" y="902.5" class="st0" width="10.6" height="6"/>
		<rect id="XMLID_678_" x="-66" y="880.5" class="st0" width="5.1" height="6.5"/>
		<rect id="XMLID_677_" x="-60.9" y="911" class="st0" width="7" height="4.6"/>
		<rect id="XMLID_676_" x="-68.4" y="1034.2" class="st0" width="14.5" height="2.8"/>
		<rect id="XMLID_675_" x="-109.4" y="1037.1" class="st0" width="4.3" height="3"/>
		<rect id="XMLID_674_" x="-72.2" y="1046.5" class="st0" width="3.8" height="5.5"/>
		<rect id="XMLID_673_" x="-61.1" y="1020" class="st0" width="7.3" height="4.1"/>
	</g>
	<g id="XMLID_3753_">
		<g id="XMLID_3826_">
			<path id="XMLID_3827_" class="st0" d="M-212.1,811h-0.5c-19.1,0-37.7,3.4-55.1,10h21.6v3.8c10.8-2.5,22-3.8,33.5-3.8h0.5
				c41.4,0.1,78.8,17.8,105.1,46h13.3C-122,832.9-164.6,811.1-212.1,811z M-68,911h-10.8c7,17.1,10.9,35.7,10.8,55.3
				c0,20.8-4.4,40.8-12.7,59.2h10.9c7.7-18.5,11.8-38.6,11.8-59.2C-57.8,946.8-61.4,928.2-68,911z M-325.9,860
				c-17.4,18.5-29.8,40.5-36.4,64.5h10.4c6.8-22.9,19.3-43.8,36.7-61.2c1.1-1.1,2.3-2.2,3.4-3.3H-325.9z M-366.8,983.9
				c2.8,24.2,11.2,46.6,23.8,66.1h12.1c-13.7-19.1-22.8-41.7-25.8-66.1H-366.8z M-88.1,1040.1c-6.2,10.3-13.7,19.9-22.4,28.6
				c-27.5,27.4-64.1,42.4-103,42.3c-26.5-0.1-51.4-7.4-72.7-20h-18.1c25.5,18.8,56.9,29.9,90.8,30h0.6c41.4,0,80.3-16,109.5-45.2
				c10.8-10.7,19.8-22.8,26.9-35.7H-88.1z"/>
		</g>
		<path id="XMLID_3822_" class="st0" d="M-150.4,971v5h7.4v-5H-150.4z M-267.4,927.6v2.7h7.5v-2.7H-267.4z M-305.6,975.1
			c-1.4,1-2.9,2-4.5,2.9h7.2c1.2-0.9,2.3-1.8,3.4-2.8l0.2-0.1H-305.6z"/>
		<path id="XMLID_3813_" class="st0" d="M-91.4,988.6v-4.4c-31.8,0-46-28.2-50.6-37.2v-6.4c0-0.1-0.1-0.1-0.1-0.2v-6.8h-15.2v-8.7
			h15.2v-2.4h-0.3l-0.4-1.6l-2.2-9.6v-0.2h-0.5v0.2l-1.3,4.7h-3.4l-2.8-12.4h0.4l-0.1-1.3h-1.8l-0.1,1.3h0.4l-3.3,12.4h-3.3
			l-1.1-4.7v-0.2h-0.5v0.2l-2.9,11.2h-0.2v11.6h-94.3v-3.8h-7.5v-2.7h7.5v-5.1h-0.2l-3-11.2v-0.2h-0.5v0.2l-1.1,4.7h-3.4l-3.3-12.4
			h0.4l-0.1-1.3h-1.8l-0.1,1.3h0.4l-2.9,12.4h-3.4l-1.2-4.7v-0.2h-0.5v0.2l-1,4.2l-0.7,3h4.3v6.4h-5.5v10h9v5h-9v0.5
			c0,0.1-0.1,0.1-0.1,0.2v6.4c-2.9,5.7-9.5,19-22.1,28.1h6.2c1.3-1.2,2.6-2.4,3.8-3.7v24.3h-15.3v-12.6c2.9-1.5,5.5-3.2,8-5.1h-7.2
			c-6.6,3.8-14.6,6.3-24.3,6.3v3.6l0.1,0.7c7.4,0,13.9-1.5,19.5-3.8v10.9h-19.3v4.6h43.8v17h12.3v12.1h24.5v-20.8l40-9.4h1.2l40,9.4
			v16.9h5.3v3.8h31.5v-8.4h-3.1v-8.1h3.1v-12.6h43.8v-4.6H-111v-11C-105.3,987.1-98.8,988.6-91.4,988.6z M-282.5,995.7h-9.3v-28.5
			c4-4.9,7.1-9.7,9.3-13.3V995.7z M-250,1002.1v-4.9h23.9L-250,1002.1z M-177.3,1002.1l-23.9-4.9h23.9V1002.1z M-164.7,992.5h-96
			v-9.1h-11.1v-14.7h11.1v-15l0.9-2.8v-5.9h94.3v5.9l0.9,2.8V992.5z M-133.8,995.7h-9.1V976h-7.4v-5h7.4v-17
			c2.2,3.5,5.1,8.2,9.1,12.9V995.7z M-114.8,995.7h-15.3v-24.6c4.2,4.4,9.2,8.6,15.3,11.8V995.7z"/>
		<rect id="XMLID_3812_" x="-153.4" y="920.9" class="st0" width="15.2" height="8.7"/>
		<rect id="XMLID_3811_" x="-257.4" y="922.6" class="st0" width="7.5" height="2.7"/>
		<rect id="XMLID_3810_" x="-269.9" y="966.7" class="st0" width="11.1" height="14.7"/>
		<rect id="XMLID_3809_" x="-295.1" y="1018.4" class="st0" width="12.3" height="12.1"/>
		<rect id="XMLID_3808_" x="-135.4" y="1015.9" class="st0" width="3.1" height="8.1"/>
		<rect id="XMLID_3807_" x="-197.1" y="1017.7" class="st0" width="5.3" height="3.8"/>
		<rect id="XMLID_3806_" x="-144.4" y="975" class="st0" width="7.4" height="5"/>
		<polygon id="XMLID_3805_" class="st0" points="-303.4,971.1 -303.5,971.2 -306.9,974 -314,974 -309.6,971.1 		"/>
		<rect id="XMLID_3804_" x="-296.3" y="942" class="st0" width="9" height="5"/>
		<polygon id="XMLID_3803_" class="st0" points="-280.9,915.6 -280.9,921.9 -286.3,921.9 -286.3,919.6 -286.1,919.6 -285.1,915.6 		
			"/>
		<rect id="XMLID_3802_" x="-253.6" y="963.2" class="st0" width="2.3" height="3.4"/>
		<rect id="XMLID_3801_" x="-253.6" y="971.1" class="st0" width="3.7" height="1.4"/>
		<rect id="XMLID_3800_" x="-253.6" y="927.6" class="st0" width="1.1" height="1.3"/>
		<rect id="XMLID_3799_" x="-295.1" y="949.7" class="st0" width="1.8" height="2"/>
		<rect id="XMLID_3798_" x="-283.6" y="938" class="st0" width="2.7" height="2"/>
		<rect id="XMLID_3797_" x="-286.3" y="924" class="st0" width="4.1" height="1"/>
		<rect id="XMLID_3796_" x="-148.6" y="931.5" class="st0" width="5.7" height="0.8"/>
		<rect id="XMLID_3795_" x="-138.1" y="934.5" class="st0" width="2.7" height="3.5"/>
		<rect id="XMLID_3794_" x="-139.4" y="971" class="st0" width="1.2" height="0.8"/>
		<rect id="XMLID_3793_" x="-132.3" y="1012" class="st0" width="1.2" height="1.3"/>
		<rect id="XMLID_3792_" x="-180.4" y="1030.5" class="st0" width="7.5" height="1.8"/>
		<rect id="XMLID_3791_" x="-280.9" y="1032.2" class="st0" width="4" height="2.3"/>
		<rect id="XMLID_3790_" x="-233.9" y="966" class="st0" width="22" height="2.7"/>
		<rect id="XMLID_3789_" x="-215.9" y="971.1" class="st0" width="5.5" height="1.4"/>
		<rect id="XMLID_3788_" x="-251.8" y="1012" class="st0" width="5.7" height="1.3"/>
		<rect id="XMLID_3787_" x="-259.9" y="1021.5" class="st0" width="18.3" height="1.3"/>
		<rect id="XMLID_3786_" x="-316.4" y="989.2" class="st0" width="11.6" height="1"/>
		<rect id="XMLID_3785_" x="-282.2" y="1021.5" class="st0" width="2.4" height="2.6"/>
		<rect id="XMLID_3784_" x="-293.4" y="1034.5" class="st0" width="7" height="1.3"/>
		<rect id="XMLID_3783_" x="-136.9" y="1033.4" class="st0" width="3.1" height="1.8"/>
		<rect id="XMLID_3782_" x="-139.4" y="983.4" class="st0" width="2.6" height="0.9"/>
		<rect id="XMLID_3781_" x="-128.4" y="984.3" class="st0" width="6.8" height="1"/>
		<rect id="XMLID_3780_" x="-124.9" y="987.1" class="st0" width="2.5" height="0.4"/>
		<path id="XMLID_3779_" class="st0" d="M-63,906h-10.8c-6.7-16.4-16.4-31.3-28.3-44h13.3C-77.8,875-69.1,889.9-63,906z"/>
		<path id="XMLID_3778_" class="st0" d="M-352.9,968.7c0,6.1,0.4,12.2,1.1,18.2h-10.1c-0.7-6-1-12-1-18.2c0-14.1,1.9-28,5.6-41.2
			h10.4C-350.8,940.7-352.8,954.5-352.9,968.7z"/>
		<path id="XMLID_3777_" class="st0" d="M-292.3,1096h-18.1c-15.2-11.2-28.3-25.1-38.6-41h12.1
			C-325.1,1071.6-309.9,1085.6-292.3,1096z"/>
		<path id="XMLID_3776_" class="st0" d="M-74.6,1022.5c-2.1,5-4.4,9.8-7,14.6h-11.5c2.8-4.7,5.3-9.6,7.6-14.6H-74.6z"/>
		<path id="XMLID_3775_" class="st0" d="M-242.1,823v3.8c-24.4,5.7-47,17.7-65.7,35.2h-14.1c1.2-1.3,2.4-2.5,3.7-3.8
			c15.8-15.7,34.3-27.6,54.5-35.2H-242.1z"/>
		<rect id="XMLID_3774_" x="-316.4" y="1059.3" class="st0" width="7.6" height="4.2"/>
		<rect id="XMLID_3773_" x="-305.9" y="1074" class="st0" width="8.8" height="1.5"/>
		<rect id="XMLID_3772_" x="-299.4" y="1080.5" class="st0" width="3" height="2.5"/>
		<rect id="XMLID_3771_" x="-369.1" y="1009" class="st0" width="2.3" height="3"/>
		<rect id="XMLID_3770_" x="-375.9" y="944.5" class="st0" width="7.9" height="2.5"/>
		<rect id="XMLID_3769_" x="-382.6" y="961.5" class="st0" width="4.3" height="4.5"/>
		<rect id="XMLID_3768_" x="-374.6" y="970" class="st0" width="1" height="1"/>
		<rect id="XMLID_3767_" x="-385.1" y="978" class="st0" width="4.6" height="2"/>
		<rect id="XMLID_3766_" x="-344.6" y="956" class="st0" width="5" height="3.8"/>
		<rect id="XMLID_3765_" x="-311.8" y="827.2" class="st0" width="8.4" height="1.3"/>
		<rect id="XMLID_3764_" x="-319.4" y="839" class="st0" width="3" height="3.5"/>
		<rect id="XMLID_3763_" x="-289.4" y="853.5" class="st0" width="5.8" height="2.3"/>
		<rect id="XMLID_3762_" x="-275.4" y="848" class="st0" width="3.5" height="2.8"/>
		<rect id="XMLID_3761_" x="-108.4" y="884" class="st0" width="12" height="3"/>
		<rect id="XMLID_3760_" x="-102" y="902.5" class="st0" width="10.6" height="6"/>
		<rect id="XMLID_3759_" x="-63" y="880.5" class="st0" width="5.1" height="6.5"/>
		<rect id="XMLID_3758_" x="-57.9" y="911" class="st0" width="7" height="4.6"/>
		<rect id="XMLID_3757_" x="-65.4" y="1034.2" class="st0" width="14.5" height="2.8"/>
		<rect id="XMLID_3756_" x="-106.4" y="1037.1" class="st0" width="4.3" height="3"/>
		<rect id="XMLID_3755_" x="-69.2" y="1046.5" class="st0" width="3.8" height="5.5"/>
		<rect id="XMLID_3754_" x="-58.1" y="1020" class="st0" width="7.3" height="4.1"/>
	</g>
	<g id="XMLID_3833_">
		<g id="XMLID_4036_">
			<path id="XMLID_4037_" class="st0" d="M-213.1,811h-0.5c-19.1,0-37.7,3.4-55.1,10h21.6v3.8c10.8-2.5,22-3.8,33.5-3.8h0.5
				c41.4,0.1,78.8,17.8,105.1,46h13.3C-123,832.9-165.6,811.1-213.1,811z M-69,911h-10.8c7,17.1,10.9,35.7,10.8,55.3
				c0,20.8-4.4,40.8-12.7,59.2h10.9c7.7-18.5,11.8-38.6,11.8-59.2C-58.8,946.8-62.4,928.2-69,911z M-326.9,860
				c-17.4,18.5-29.8,40.5-36.4,64.5h10.4c6.8-22.9,19.3-43.8,36.7-61.2c1.1-1.1,2.3-2.2,3.4-3.3H-326.9z M-367.8,983.9
				c2.8,24.2,11.2,46.6,23.8,66.1h12.1c-13.7-19.1-22.8-41.7-25.8-66.1H-367.8z M-89.1,1040.1c-6.2,10.3-13.7,19.9-22.4,28.6
				c-27.5,27.4-64.1,42.4-103,42.3c-26.5-0.1-51.4-7.4-72.7-20h-18.1c25.5,18.8,56.9,29.9,90.8,30h0.6c41.4,0,80.3-16,109.5-45.2
				c10.8-10.7,19.8-22.8,26.9-35.7H-89.1z"/>
		</g>
		<path id="XMLID_4032_" class="st0" d="M-151.4,971v5h7.4v-5H-151.4z M-268.4,927.6v2.7h7.5v-2.7H-268.4z M-306.6,975.1
			c-1.4,1-2.9,2-4.5,2.9h7.2c1.2-0.9,2.3-1.8,3.4-2.8l0.2-0.1H-306.6z"/>
		<path id="XMLID_4023_" class="st0" d="M-92.4,988.6v-4.4c-31.8,0-46-28.2-50.6-37.2v-6.4c0-0.1-0.1-0.1-0.1-0.2v-6.8h-15.2v-8.7
			h15.2v-2.4h-0.3l-0.4-1.6l-2.2-9.6v-0.2h-0.5v0.2l-1.3,4.7h-3.4l-2.8-12.4h0.4l-0.1-1.3h-1.8l-0.1,1.3h0.4l-3.3,12.4h-3.3
			l-1.1-4.7v-0.2h-0.5v0.2l-2.9,11.2h-0.2v11.6h-94.3v-3.8h-7.5v-2.7h7.5v-5.1h-0.2l-3-11.2v-0.2h-0.5v0.2l-1.1,4.7h-3.4l-3.3-12.4
			h0.4l-0.1-1.3h-1.8l-0.1,1.3h0.4l-2.9,12.4h-3.4l-1.2-4.7v-0.2h-0.5v0.2l-1,4.2l-0.7,3h4.3v6.4h-5.5v10h9v5h-9v0.5
			c0,0.1-0.1,0.1-0.1,0.2v6.4c-2.9,5.7-9.5,19-22.1,28.1h6.2c1.3-1.2,2.6-2.4,3.8-3.7v24.3h-15.3v-12.6c2.9-1.5,5.5-3.2,8-5.1h-7.2
			c-6.6,3.8-14.6,6.3-24.3,6.3v3.6l0.1,0.7c7.4,0,13.9-1.5,19.5-3.8v10.9h-19.3v4.6h43.8v17h12.3v12.1h24.5v-20.8l40-9.4h1.2l40,9.4
			v16.9h5.3v3.8h31.5v-8.4h-3.1v-8.1h3.1v-12.6h43.8v-4.6H-112v-11C-106.3,987.1-99.8,988.6-92.4,988.6z M-283.5,995.7h-9.3v-28.5
			c4-4.9,7.1-9.7,9.3-13.3V995.7z M-251,1002.1v-4.9h23.9L-251,1002.1z M-178.3,1002.1l-23.9-4.9h23.9V1002.1z M-165.7,992.5h-96
			v-9.1h-11.1v-14.7h11.1v-15l0.9-2.8v-5.9h94.3v5.9l0.9,2.8V992.5z M-134.8,995.7h-9.1V976h-7.4v-5h7.4v-17
			c2.2,3.5,5.1,8.2,9.1,12.9V995.7z M-115.8,995.7h-15.3v-24.6c4.2,4.4,9.2,8.6,15.3,11.8V995.7z"/>
		<rect id="XMLID_4022_" x="-154.4" y="920.9" class="st0" width="15.2" height="8.7"/>
		<rect id="XMLID_4021_" x="-258.4" y="922.6" class="st0" width="7.5" height="2.7"/>
		<rect id="XMLID_4020_" x="-270.9" y="966.7" class="st0" width="11.1" height="14.7"/>
		<rect id="XMLID_4019_" x="-296.1" y="1018.4" class="st0" width="12.3" height="12.1"/>
		<rect id="XMLID_4018_" x="-136.4" y="1015.9" class="st0" width="3.1" height="8.1"/>
		<rect id="XMLID_4017_" x="-198.1" y="1017.7" class="st0" width="5.3" height="3.8"/>
		<rect id="XMLID_4016_" x="-145.4" y="975" class="st0" width="7.4" height="5"/>
		<polygon id="XMLID_4015_" class="st0" points="-304.4,971.1 -304.5,971.2 -307.9,974 -315,974 -310.6,971.1 		"/>
		<rect id="XMLID_3920_" x="-297.3" y="942" class="st0" width="9" height="5"/>
		<polygon id="XMLID_3919_" class="st0" points="-281.9,915.6 -281.9,921.9 -287.3,921.9 -287.3,919.6 -287.1,919.6 -286.1,915.6 		
			"/>
		<rect id="XMLID_3918_" x="-254.6" y="963.2" class="st0" width="2.3" height="3.4"/>
		<rect id="XMLID_3917_" x="-254.6" y="971.1" class="st0" width="3.7" height="1.4"/>
		<rect id="XMLID_3916_" x="-254.6" y="927.6" class="st0" width="1.1" height="1.3"/>
		<rect id="XMLID_3915_" x="-296.1" y="949.7" class="st0" width="1.8" height="2"/>
		<rect id="XMLID_3914_" x="-284.6" y="938" class="st0" width="2.7" height="2"/>
		<rect id="XMLID_3913_" x="-287.3" y="924" class="st0" width="4.1" height="1"/>
		<rect id="XMLID_3912_" x="-149.6" y="931.5" class="st0" width="5.7" height="0.8"/>
		<rect id="XMLID_3911_" x="-139.1" y="934.5" class="st0" width="2.7" height="3.5"/>
		<rect id="XMLID_3910_" x="-140.4" y="971" class="st0" width="1.2" height="0.8"/>
		<rect id="XMLID_3909_" x="-133.3" y="1012" class="st0" width="1.2" height="1.3"/>
		<rect id="XMLID_3908_" x="-181.4" y="1030.5" class="st0" width="7.5" height="1.8"/>
		<rect id="XMLID_3871_" x="-281.9" y="1032.2" class="st0" width="4" height="2.3"/>
		<rect id="XMLID_3870_" x="-234.9" y="966" class="st0" width="22" height="2.7"/>
		<rect id="XMLID_3869_" x="-216.9" y="971.1" class="st0" width="5.5" height="1.4"/>
		<rect id="XMLID_3868_" x="-252.8" y="1012" class="st0" width="5.7" height="1.3"/>
		<rect id="XMLID_3867_" x="-260.9" y="1021.5" class="st0" width="18.3" height="1.3"/>
		<rect id="XMLID_3866_" x="-317.4" y="989.2" class="st0" width="11.6" height="1"/>
		<rect id="XMLID_3865_" x="-283.2" y="1021.5" class="st0" width="2.4" height="2.6"/>
		<rect id="XMLID_3864_" x="-294.4" y="1034.5" class="st0" width="7" height="1.3"/>
		<rect id="XMLID_3863_" x="-137.9" y="1033.4" class="st0" width="3.1" height="1.8"/>
		<rect id="XMLID_3862_" x="-140.4" y="983.4" class="st0" width="2.6" height="0.9"/>
		<rect id="XMLID_3861_" x="-129.4" y="984.3" class="st0" width="6.8" height="1"/>
		<rect id="XMLID_3860_" x="-125.9" y="987.1" class="st0" width="2.5" height="0.4"/>
		<path id="XMLID_3859_" class="st0" d="M-64,906h-10.8c-6.7-16.4-16.4-31.3-28.3-44h13.3C-78.8,875-70.1,889.9-64,906z"/>
		<path id="XMLID_3858_" class="st0" d="M-353.9,968.7c0,6.1,0.4,12.2,1.1,18.2h-10.1c-0.7-6-1-12-1-18.2c0-14.1,1.9-28,5.6-41.2
			h10.4C-351.8,940.7-353.8,954.5-353.9,968.7z"/>
		<path id="XMLID_3857_" class="st0" d="M-293.3,1096h-18.1c-15.2-11.2-28.3-25.1-38.6-41h12.1
			C-326.1,1071.6-310.9,1085.6-293.3,1096z"/>
		<path id="XMLID_3856_" class="st0" d="M-75.6,1022.5c-2.1,5-4.4,9.8-7,14.6h-11.5c2.8-4.7,5.3-9.6,7.6-14.6H-75.6z"/>
		<path id="XMLID_3855_" class="st0" d="M-243.1,823v3.8c-24.4,5.7-47,17.7-65.7,35.2h-14.1c1.2-1.3,2.4-2.5,3.7-3.8
			c15.8-15.7,34.3-27.6,54.5-35.2H-243.1z"/>
		<rect id="XMLID_3854_" x="-317.4" y="1059.3" class="st0" width="7.6" height="4.2"/>
		<rect id="XMLID_3853_" x="-306.9" y="1074" class="st0" width="8.8" height="1.5"/>
		<rect id="XMLID_3852_" x="-300.4" y="1080.5" class="st0" width="3" height="2.5"/>
		<rect id="XMLID_3851_" x="-370.1" y="1009" class="st0" width="2.3" height="3"/>
		<rect id="XMLID_3850_" x="-376.9" y="944.5" class="st0" width="7.9" height="2.5"/>
		<rect id="XMLID_3849_" x="-383.6" y="961.5" class="st0" width="4.3" height="4.5"/>
		<rect id="XMLID_3848_" x="-375.6" y="970" class="st0" width="1" height="1"/>
		<rect id="XMLID_3847_" x="-386.1" y="978" class="st0" width="4.6" height="2"/>
		<rect id="XMLID_3846_" x="-345.6" y="956" class="st0" width="5" height="3.8"/>
		<rect id="XMLID_3845_" x="-312.8" y="827.2" class="st0" width="8.4" height="1.3"/>
		<rect id="XMLID_3844_" x="-320.4" y="839" class="st0" width="3" height="3.5"/>
		<rect id="XMLID_3843_" x="-290.4" y="853.5" class="st0" width="5.8" height="2.3"/>
		<rect id="XMLID_3842_" x="-276.4" y="848" class="st0" width="3.5" height="2.8"/>
		<rect id="XMLID_3841_" x="-109.4" y="884" class="st0" width="12" height="3"/>
		<rect id="XMLID_3840_" x="-103" y="902.5" class="st0" width="10.6" height="6"/>
		<rect id="XMLID_3839_" x="-64" y="880.5" class="st0" width="5.1" height="6.5"/>
		<rect id="XMLID_3838_" x="-58.9" y="911" class="st0" width="7" height="4.6"/>
		<rect id="XMLID_3837_" x="-66.4" y="1034.2" class="st0" width="14.5" height="2.8"/>
		<rect id="XMLID_3836_" x="-107.4" y="1037.1" class="st0" width="4.3" height="3"/>
		<rect id="XMLID_3835_" x="-70.2" y="1046.5" class="st0" width="3.8" height="5.5"/>
		<rect id="XMLID_3834_" x="-59.1" y="1020" class="st0" width="7.3" height="4.1"/>
	</g>
	<g id="XMLID_4190_">
		<g id="XMLID_4263_">
			<path id="XMLID_4264_" class="st0" d="M-214.1,811h-0.5c-19.1,0-37.7,3.4-55.1,10h21.6v3.8c10.8-2.5,22-3.8,33.5-3.8h0.5
				c41.4,0.1,78.8,17.8,105.1,46h13.3C-124,832.9-166.6,811.1-214.1,811z M-70,911h-10.8c7,17.1,10.9,35.7,10.8,55.3
				c0,20.8-4.4,40.8-12.7,59.2h10.9c7.7-18.5,11.8-38.6,11.8-59.2C-59.8,946.8-63.4,928.2-70,911z M-327.9,860
				c-17.4,18.5-29.8,40.5-36.4,64.5h10.4c6.8-22.9,19.3-43.8,36.7-61.2c1.1-1.1,2.3-2.2,3.4-3.3H-327.9z M-368.8,983.9
				c2.8,24.2,11.2,46.6,23.8,66.1h12.1c-13.7-19.1-22.8-41.7-25.8-66.1H-368.8z M-90.1,1040.1c-6.2,10.3-13.7,19.9-22.4,28.6
				c-27.5,27.4-64.1,42.4-103,42.3c-26.5-0.1-51.4-7.4-72.7-20h-18.1c25.5,18.8,56.9,29.9,90.8,30h0.6c41.4,0,80.3-16,109.5-45.2
				c10.8-10.7,19.8-22.8,26.9-35.7H-90.1z"/>
		</g>
		<path id="XMLID_4259_" class="st0" d="M-152.4,971v5h7.4v-5H-152.4z M-269.4,927.6v2.7h7.5v-2.7H-269.4z M-307.6,975.1
			c-1.4,1-2.9,2-4.5,2.9h7.2c1.2-0.9,2.3-1.8,3.4-2.8l0.2-0.1H-307.6z"/>
		<path id="XMLID_4250_" class="st0" d="M-93.4,988.6v-4.4c-31.8,0-46-28.2-50.6-37.2v-6.4c0-0.1-0.1-0.1-0.1-0.2v-6.8h-15.2v-8.7
			h15.2v-2.4h-0.3l-0.4-1.6l-2.2-9.6v-0.2h-0.5v0.2l-1.3,4.7h-3.4l-2.8-12.4h0.4l-0.1-1.3h-1.8l-0.1,1.3h0.4l-3.3,12.4h-3.3
			l-1.1-4.7v-0.2h-0.5v0.2l-2.9,11.2h-0.2v11.6h-94.3v-3.8h-7.5v-2.7h7.5v-5.1h-0.2l-3-11.2v-0.2h-0.5v0.2l-1.1,4.7h-3.4l-3.3-12.4
			h0.4l-0.1-1.3h-1.8l-0.1,1.3h0.4l-2.9,12.4h-3.4l-1.2-4.7v-0.2h-0.5v0.2l-1,4.2l-0.7,3h4.3v6.4h-5.5v10h9v5h-9v0.5
			c0,0.1-0.1,0.1-0.1,0.2v6.4c-2.9,5.7-9.5,19-22.1,28.1h6.2c1.3-1.2,2.6-2.4,3.8-3.7v24.3h-15.3v-12.6c2.9-1.5,5.5-3.2,8-5.1h-7.2
			c-6.6,3.8-14.6,6.3-24.3,6.3v3.6l0.1,0.7c7.4,0,13.9-1.5,19.5-3.8v10.9h-19.3v4.6h43.8v17h12.3v12.1h24.5v-20.8l40-9.4h1.2l40,9.4
			v16.9h5.3v3.8h31.5v-8.4h-3.1v-8.1h3.1v-12.6h43.8v-4.6H-113v-11C-107.3,987.1-100.8,988.6-93.4,988.6z M-284.5,995.7h-9.3v-28.5
			c4-4.9,7.1-9.7,9.3-13.3V995.7z M-252,1002.1v-4.9h23.9L-252,1002.1z M-179.3,1002.1l-23.9-4.9h23.9V1002.1z M-166.7,992.5h-96
			v-9.1h-11.1v-14.7h11.1v-15l0.9-2.8v-5.9h94.3v5.9l0.9,2.8V992.5z M-135.8,995.7h-9.1V976h-7.4v-5h7.4v-17
			c2.2,3.5,5.1,8.2,9.1,12.9V995.7z M-116.8,995.7h-15.3v-24.6c4.2,4.4,9.2,8.6,15.3,11.8V995.7z"/>
		<rect id="XMLID_4249_" x="-155.4" y="920.9" class="st0" width="15.2" height="8.7"/>
		<rect id="XMLID_4248_" x="-259.4" y="922.6" class="st0" width="7.5" height="2.7"/>
		<rect id="XMLID_4247_" x="-271.9" y="966.7" class="st0" width="11.1" height="14.7"/>
		<rect id="XMLID_4246_" x="-297.1" y="1018.4" class="st0" width="12.3" height="12.1"/>
		<rect id="XMLID_4245_" x="-137.4" y="1015.9" class="st0" width="3.1" height="8.1"/>
		<rect id="XMLID_4244_" x="-199.1" y="1017.7" class="st0" width="5.3" height="3.8"/>
		<rect id="XMLID_4243_" x="-146.4" y="975" class="st0" width="7.4" height="5"/>
		<polygon id="XMLID_4242_" class="st0" points="-305.4,971.1 -305.5,971.2 -308.9,974 -316,974 -311.6,971.1 		"/>
		<rect id="XMLID_4241_" x="-298.3" y="942" class="st0" width="9" height="5"/>
		<polygon id="XMLID_4240_" class="st0" points="-282.9,915.6 -282.9,921.9 -288.3,921.9 -288.3,919.6 -288.1,919.6 -287.1,915.6 		
			"/>
		<rect id="XMLID_4239_" x="-255.6" y="963.2" class="st0" width="2.3" height="3.4"/>
		<rect id="XMLID_4238_" x="-255.6" y="971.1" class="st0" width="3.7" height="1.4"/>
		<rect id="XMLID_4237_" x="-255.6" y="927.6" class="st0" width="1.1" height="1.3"/>
		<rect id="XMLID_4236_" x="-297.1" y="949.7" class="st0" width="1.8" height="2"/>
		<rect id="XMLID_4235_" x="-285.6" y="938" class="st0" width="2.7" height="2"/>
		<rect id="XMLID_4234_" x="-288.3" y="924" class="st0" width="4.1" height="1"/>
		<rect id="XMLID_4233_" x="-150.6" y="931.5" class="st0" width="5.7" height="0.8"/>
		<rect id="XMLID_4232_" x="-140.1" y="934.5" class="st0" width="2.7" height="3.5"/>
		<rect id="XMLID_4231_" x="-141.4" y="971" class="st0" width="1.2" height="0.8"/>
		<rect id="XMLID_4230_" x="-134.3" y="1012" class="st0" width="1.2" height="1.3"/>
		<rect id="XMLID_4229_" x="-182.4" y="1030.5" class="st0" width="7.5" height="1.8"/>
		<rect id="XMLID_4228_" x="-282.9" y="1032.2" class="st0" width="4" height="2.3"/>
		<rect id="XMLID_4227_" x="-235.9" y="966" class="st0" width="22" height="2.7"/>
		<rect id="XMLID_4226_" x="-217.9" y="971.1" class="st0" width="5.5" height="1.4"/>
		<rect id="XMLID_4225_" x="-253.8" y="1012" class="st0" width="5.7" height="1.3"/>
		<rect id="XMLID_4224_" x="-261.9" y="1021.5" class="st0" width="18.3" height="1.3"/>
		<rect id="XMLID_4223_" x="-318.4" y="989.2" class="st0" width="11.6" height="1"/>
		<rect id="XMLID_4222_" x="-284.2" y="1021.5" class="st0" width="2.4" height="2.6"/>
		<rect id="XMLID_4221_" x="-295.4" y="1034.5" class="st0" width="7" height="1.3"/>
		<rect id="XMLID_4220_" x="-138.9" y="1033.4" class="st0" width="3.1" height="1.8"/>
		<rect id="XMLID_4219_" x="-141.4" y="983.4" class="st0" width="2.6" height="0.9"/>
		<rect id="XMLID_4218_" x="-130.4" y="984.3" class="st0" width="6.8" height="1"/>
		<rect id="XMLID_4217_" x="-126.9" y="987.1" class="st0" width="2.5" height="0.4"/>
		<path id="XMLID_4216_" class="st0" d="M-65,906h-10.8c-6.7-16.4-16.4-31.3-28.3-44h13.3C-79.8,875-71.1,889.9-65,906z"/>
		<path id="XMLID_4215_" class="st0" d="M-354.9,968.7c0,6.1,0.4,12.2,1.1,18.2h-10.1c-0.7-6-1-12-1-18.2c0-14.1,1.9-28,5.6-41.2
			h10.4C-352.8,940.7-354.8,954.5-354.9,968.7z"/>
		<path id="XMLID_4214_" class="st0" d="M-294.3,1096h-18.1c-15.2-11.2-28.3-25.1-38.6-41h12.1
			C-327.1,1071.6-311.9,1085.6-294.3,1096z"/>
		<path id="XMLID_4213_" class="st0" d="M-76.6,1022.5c-2.1,5-4.4,9.8-7,14.6h-11.5c2.8-4.7,5.3-9.6,7.6-14.6H-76.6z"/>
		<path id="XMLID_4212_" class="st0" d="M-244.1,823v3.8c-24.4,5.7-47,17.7-65.7,35.2h-14.1c1.2-1.3,2.4-2.5,3.7-3.8
			c15.8-15.7,34.3-27.6,54.5-35.2H-244.1z"/>
		<rect id="XMLID_4211_" x="-318.4" y="1059.3" class="st0" width="7.6" height="4.2"/>
		<rect id="XMLID_4210_" x="-307.9" y="1074" class="st0" width="8.8" height="1.5"/>
		<rect id="XMLID_4209_" x="-301.4" y="1080.5" class="st0" width="3" height="2.5"/>
		<rect id="XMLID_4208_" x="-371.1" y="1009" class="st0" width="2.3" height="3"/>
		<rect id="XMLID_4207_" x="-377.9" y="944.5" class="st0" width="7.9" height="2.5"/>
		<rect id="XMLID_4206_" x="-384.6" y="961.5" class="st0" width="4.3" height="4.5"/>
		<rect id="XMLID_4205_" x="-376.6" y="970" class="st0" width="1" height="1"/>
		<rect id="XMLID_4204_" x="-387.1" y="978" class="st0" width="4.6" height="2"/>
		<rect id="XMLID_4203_" x="-346.6" y="956" class="st0" width="5" height="3.8"/>
		<rect id="XMLID_4202_" x="-313.8" y="827.2" class="st0" width="8.4" height="1.3"/>
		<rect id="XMLID_4201_" x="-321.4" y="839" class="st0" width="3" height="3.5"/>
		<rect id="XMLID_4200_" x="-291.4" y="853.5" class="st0" width="5.8" height="2.3"/>
		<rect id="XMLID_4199_" x="-277.4" y="848" class="st0" width="3.5" height="2.8"/>
		<rect id="XMLID_4198_" x="-110.4" y="884" class="st0" width="12" height="3"/>
		<rect id="XMLID_4197_" x="-104" y="902.5" class="st0" width="10.6" height="6"/>
		<rect id="XMLID_4196_" x="-65" y="880.5" class="st0" width="5.1" height="6.5"/>
		<rect id="XMLID_4195_" x="-59.9" y="911" class="st0" width="7" height="4.6"/>
		<rect id="XMLID_4194_" x="-67.4" y="1034.2" class="st0" width="14.5" height="2.8"/>
		<rect id="XMLID_4193_" x="-108.4" y="1037.1" class="st0" width="4.3" height="3"/>
		<rect id="XMLID_4192_" x="-71.2" y="1046.5" class="st0" width="3.8" height="5.5"/>
		<rect id="XMLID_4191_" x="-60.1" y="1020" class="st0" width="7.3" height="4.1"/>
	</g>
	<g id="XMLID_4350_">
		<g id="XMLID_5022_">
			<path id="XMLID_5023_" class="st1" d="M-209.1,811h-0.5c-19.1,0-37.7,3.4-55.1,10h21.6v3.8c10.8-2.5,22-3.8,33.5-3.8h0.5
				c41.4,0.1,78.8,17.8,105.1,46h13.3C-119,832.9-161.6,811.1-209.1,811z M-65,911h-10.8c7,17.1,10.9,35.7,10.8,55.3
				c0,20.8-4.4,40.8-12.7,59.2h10.9c7.7-18.5,11.8-38.6,11.8-59.2C-54.8,946.8-58.4,928.2-65,911z M-322.9,860
				c-17.4,18.5-29.8,40.5-36.4,64.5h10.4c6.8-22.9,19.3-43.8,36.7-61.2c1.1-1.1,2.3-2.2,3.4-3.3H-322.9z M-363.8,983.9
				c2.8,24.2,11.2,46.6,23.8,66.1h12.1c-13.7-19.1-22.8-41.7-25.8-66.1H-363.8z M-85.1,1040.1c-6.2,10.3-13.7,19.9-22.4,28.6
				c-27.5,27.4-64.1,42.4-103,42.3c-26.5-0.1-51.4-7.4-72.7-20h-18.1c25.5,18.8,56.9,29.9,90.8,30h0.6c41.4,0,80.3-16,109.5-45.2
				c10.8-10.7,19.8-22.8,26.9-35.7H-85.1z"/>
		</g>
		<path id="XMLID_5018_" class="st1" d="M-147.4,971v5h7.4v-5H-147.4z M-264.4,927.6v2.7h7.5v-2.7H-264.4z M-302.6,975.1
			c-1.4,1-2.9,2-4.5,2.9h7.2c1.2-0.9,2.3-1.8,3.4-2.8l0.2-0.1H-302.6z"/>
		<path id="XMLID_5009_" class="st1" d="M-88.4,988.6v-4.4c-31.8,0-46-28.2-50.6-37.2v-6.4c0-0.1-0.1-0.1-0.1-0.2v-6.8h-15.2v-8.7
			h15.2v-2.4h-0.3l-0.4-1.6l-2.2-9.6v-0.2h-0.5v0.2l-1.3,4.7h-3.4l-2.8-12.4h0.4l-0.1-1.3h-1.8l-0.1,1.3h0.4l-3.3,12.4h-3.3
			l-1.1-4.7v-0.2h-0.5v0.2l-2.9,11.2h-0.2v11.6h-94.3v-3.8h-7.5v-2.7h7.5v-5.1h-0.2l-3-11.2v-0.2h-0.5v0.2l-1.1,4.7h-3.4l-3.3-12.4
			h0.4l-0.1-1.3h-1.8l-0.1,1.3h0.4l-2.9,12.4h-3.4l-1.2-4.7v-0.2h-0.5v0.2l-1,4.2l-0.7,3h4.3v6.4h-5.5v10h9v5h-9v0.5
			c0,0.1-0.1,0.1-0.1,0.2v6.4c-2.9,5.7-9.5,19-22.1,28.1h6.2c1.3-1.2,2.6-2.4,3.8-3.7v24.3h-15.3v-12.6c2.9-1.5,5.5-3.2,8-5.1h-7.2
			c-6.6,3.8-14.6,6.3-24.3,6.3v3.6l0.1,0.7c7.4,0,13.9-1.5,19.5-3.8v10.9h-19.3v4.6h43.8v17h12.3v12.1h24.5v-20.8l40-9.4h1.2l40,9.4
			v16.9h5.3v3.8h31.5v-8.4h-3.1v-8.1h3.1v-12.6h43.8v-4.6H-108v-11C-102.3,987.1-95.8,988.6-88.4,988.6z M-279.5,995.7h-9.3v-28.5
			c4-4.9,7.1-9.7,9.3-13.3V995.7z M-247,1002.1v-4.9h23.9L-247,1002.1z M-174.3,1002.1l-23.9-4.9h23.9V1002.1z M-161.7,992.5h-96
			v-9.1h-11.1v-14.7h11.1v-15l0.9-2.8v-5.9h94.3v5.9l0.9,2.8V992.5z M-130.8,995.7h-9.1V976h-7.4v-5h7.4v-17
			c2.2,3.5,5.1,8.2,9.1,12.9V995.7z M-111.8,995.7h-15.3v-24.6c4.2,4.4,9.3,8.6,15.3,11.8V995.7z"/>
		<rect id="XMLID_5008_" x="-150.4" y="920.9" class="st1" width="15.2" height="8.7"/>
		<rect id="XMLID_5007_" x="-254.4" y="922.6" class="st1" width="7.5" height="2.7"/>
		<rect id="XMLID_5006_" x="-266.9" y="966.7" class="st1" width="11.1" height="14.7"/>
		<rect id="XMLID_5005_" x="-292.1" y="1018.4" class="st1" width="12.3" height="12.1"/>
		<rect id="XMLID_5004_" x="-132.4" y="1015.9" class="st1" width="3.1" height="8.1"/>
		<rect id="XMLID_5003_" x="-194.1" y="1017.7" class="st1" width="5.3" height="3.8"/>
		<rect id="XMLID_5002_" x="-141.4" y="975" class="st1" width="7.4" height="5"/>
		<polygon id="XMLID_5001_" class="st1" points="-300.4,971.1 -300.5,971.2 -303.9,974 -311,974 -306.6,971.1 		"/>
		<rect id="XMLID_4401_" x="-293.3" y="942" class="st1" width="9" height="5"/>
		<polygon id="XMLID_4400_" class="st1" points="-277.9,915.6 -277.9,921.9 -283.3,921.9 -283.3,919.6 -283.1,919.6 -282.1,915.6 		
			"/>
		<rect id="XMLID_4399_" x="-250.6" y="963.2" class="st1" width="2.3" height="3.4"/>
		<rect id="XMLID_4398_" x="-250.6" y="971.1" class="st1" width="3.7" height="1.4"/>
		<rect id="XMLID_4397_" x="-250.6" y="927.6" class="st1" width="1.1" height="1.3"/>
		<rect id="XMLID_4396_" x="-292.1" y="949.7" class="st1" width="1.8" height="2"/>
		<rect id="XMLID_4395_" x="-280.6" y="938" class="st1" width="2.7" height="2"/>
		<rect id="XMLID_4394_" x="-283.3" y="924" class="st1" width="4.1" height="1"/>
		<rect id="XMLID_4393_" x="-145.6" y="931.5" class="st1" width="5.7" height="0.8"/>
		<rect id="XMLID_4392_" x="-135.1" y="934.5" class="st1" width="2.7" height="3.5"/>
		<rect id="XMLID_4391_" x="-136.4" y="971" class="st1" width="1.2" height="0.8"/>
		<rect id="XMLID_4390_" x="-129.3" y="1012" class="st1" width="1.2" height="1.3"/>
		<rect id="XMLID_4389_" x="-177.4" y="1030.5" class="st1" width="7.5" height="1.8"/>
		<rect id="XMLID_4388_" x="-277.9" y="1032.2" class="st1" width="4" height="2.3"/>
		<rect id="XMLID_4387_" x="-230.9" y="966" class="st1" width="22" height="2.7"/>
		<rect id="XMLID_4386_" x="-212.9" y="971.1" class="st1" width="5.5" height="1.4"/>
		<rect id="XMLID_4385_" x="-248.8" y="1012" class="st1" width="5.7" height="1.3"/>
		<rect id="XMLID_4384_" x="-256.9" y="1021.5" class="st1" width="18.3" height="1.3"/>
		<rect id="XMLID_4383_" x="-313.4" y="989.2" class="st1" width="11.6" height="1"/>
		<rect id="XMLID_4382_" x="-279.2" y="1021.5" class="st1" width="2.4" height="2.6"/>
		<rect id="XMLID_4381_" x="-290.4" y="1034.5" class="st1" width="7" height="1.3"/>
		<rect id="XMLID_4380_" x="-133.9" y="1033.4" class="st1" width="3.1" height="1.8"/>
		<rect id="XMLID_4379_" x="-136.4" y="983.4" class="st1" width="2.6" height="0.9"/>
		<rect id="XMLID_4378_" x="-125.4" y="984.3" class="st1" width="6.8" height="1"/>
		<rect id="XMLID_4377_" x="-121.9" y="987.1" class="st1" width="2.5" height="0.4"/>
		<path id="XMLID_4376_" class="st1" d="M-60,906h-10.8c-6.7-16.4-16.4-31.3-28.3-44h13.3C-74.8,875-66.1,889.9-60,906z"/>
		<path id="XMLID_4375_" class="st1" d="M-349.9,968.7c0,6.1,0.4,12.2,1.1,18.2h-10.1c-0.7-6-1-12-1-18.2c0-14.1,1.9-28,5.6-41.2
			h10.4C-347.8,940.7-349.8,954.5-349.9,968.7z"/>
		<path id="XMLID_4374_" class="st1" d="M-289.3,1096h-18.1c-15.2-11.2-28.3-25.1-38.6-41h12.1
			C-322.1,1071.6-306.9,1085.6-289.3,1096z"/>
		<path id="XMLID_4373_" class="st1" d="M-71.6,1022.5c-2.1,5-4.4,9.8-7,14.6h-11.5c2.8-4.7,5.3-9.6,7.6-14.6H-71.6z"/>
		<path id="XMLID_4372_" class="st1" d="M-239.1,823v3.8c-24.4,5.7-47,17.7-65.7,35.2h-14.1c1.2-1.3,2.4-2.5,3.7-3.8
			c15.8-15.7,34.3-27.6,54.5-35.2H-239.1z"/>
		<rect id="XMLID_4371_" x="-313.4" y="1059.3" class="st1" width="7.6" height="4.2"/>
		<rect id="XMLID_4370_" x="-302.9" y="1074" class="st1" width="8.8" height="1.5"/>
		<rect id="XMLID_4369_" x="-296.4" y="1080.5" class="st1" width="3" height="2.5"/>
		<rect id="XMLID_4368_" x="-366.1" y="1009" class="st1" width="2.3" height="3"/>
		<rect id="XMLID_4367_" x="-372.9" y="944.5" class="st1" width="7.9" height="2.5"/>
		<rect id="XMLID_4366_" x="-379.6" y="961.5" class="st1" width="4.3" height="4.5"/>
		<rect id="XMLID_4365_" x="-371.6" y="970" class="st1" width="1" height="1"/>
		<rect id="XMLID_4364_" x="-382.1" y="978" class="st1" width="4.6" height="2"/>
		<rect id="XMLID_4363_" x="-341.6" y="956" class="st1" width="5" height="3.8"/>
		<rect id="XMLID_4362_" x="-308.8" y="827.2" class="st1" width="8.4" height="1.3"/>
		<rect id="XMLID_4361_" x="-316.4" y="839" class="st1" width="3" height="3.5"/>
		<rect id="XMLID_4360_" x="-286.4" y="853.5" class="st1" width="5.8" height="2.3"/>
		<rect id="XMLID_4359_" x="-272.4" y="848" class="st1" width="3.5" height="2.8"/>
		<rect id="XMLID_4358_" x="-105.4" y="884" class="st1" width="12" height="3"/>
		<rect id="XMLID_4357_" x="-99" y="902.5" class="st1" width="10.6" height="6"/>
		<rect id="XMLID_4356_" x="-60" y="880.5" class="st1" width="5.1" height="6.5"/>
		<rect id="XMLID_4355_" x="-54.9" y="911" class="st1" width="7" height="4.6"/>
		<rect id="XMLID_4354_" x="-62.4" y="1034.2" class="st1" width="14.5" height="2.8"/>
		<rect id="XMLID_4353_" x="-103.4" y="1037.1" class="st1" width="4.3" height="3"/>
		<rect id="XMLID_4352_" x="-66.2" y="1046.5" class="st1" width="3.8" height="5.5"/>
		<rect id="XMLID_4351_" x="-55.1" y="1020" class="st1" width="7.3" height="4.1"/>
	</g>
	<g id="XMLID_670_">
		<g id="XMLID_977_">
			<path id="XMLID_196_" class="st2" d="M-212,811h-0.5c-19.1,0-37.7,3.4-55.1,10h21.6v3.8c10.8-2.5,22-3.8,33.5-3.8h0.5
				c41.4,0.1,78.8,17.8,105.1,46h13.3C-121.9,832.9-164.4,811.1-212,811z M-67.8,911h-10.8c7,17.1,10.9,35.7,10.8,55.3
				c0,20.8-4.4,40.8-12.7,59.2h10.9c7.7-18.5,11.8-38.6,11.8-59.2C-57.7,946.8-61.3,928.2-67.8,911z M-325.8,860
				c-17.4,18.5-29.8,40.5-36.4,64.5h10.4c6.8-22.9,19.3-43.8,36.7-61.2c1.1-1.1,2.3-2.2,3.4-3.3H-325.8z M-366.7,983.9
				c2.8,24.2,11.2,46.6,23.8,66.1h12.1c-13.7-19.1-22.8-41.7-25.8-66.1H-366.7z M-88,1040.1c-6.2,10.3-13.7,19.9-22.4,28.6
				c-27.5,27.4-64.1,42.4-103,42.3c-26.5-0.1-51.4-7.4-72.7-20h-18.1c25.5,18.8,56.9,29.9,90.8,30h0.6c41.4,0,80.3-16,109.5-45.2
				c10.8-10.7,19.8-22.8,26.9-35.7H-88z"/>
		</g>
		<path id="XMLID_421_" class="st2" d="M-150.2,971v5h7.4v-5H-150.2z M-267.2,927.6v2.7h7.5v-2.7H-267.2z M-305.4,975.1
			c-1.4,1-2.9,2-4.5,2.9h7.2c1.2-0.9,2.3-1.8,3.4-2.8l0.2-0.1H-305.4z"/>
		<path id="XMLID_462_" class="st2" d="M-91.3,988.6v-4.4c-31.8,0-46-28.2-50.6-37.2v-6.4c0-0.1-0.1-0.1-0.1-0.2v-6.8h-15.2v-8.7
			h15.2v-2.4h-0.3l-0.4-1.6l-2.2-9.6v-0.2h-0.5v0.2l-1.3,4.7h-3.4l-2.8-12.4h0.4l-0.1-1.3h-1.8l-0.1,1.3h0.4l-3.3,12.4h-3.3
			l-1.1-4.7v-0.2h-0.5v0.2l-2.9,11.2h-0.2v11.6h-94.3v-3.8h-7.5v-2.7h7.5v-5.1h-0.2l-3-11.2v-0.2h-0.5v0.2l-1.1,4.7h-3.4l-3.3-12.4
			h0.4l-0.1-1.3h-1.8l-0.1,1.3h0.4l-2.9,12.4h-3.4l-1.2-4.7v-0.2h-0.5v0.2l-1,4.2l-0.7,3h4.3v6.4h-5.5v10h9v5h-9v0.5
			c0,0.1-0.1,0.1-0.1,0.2v6.4c-2.9,5.7-9.5,19-22.1,28.1h6.2c1.3-1.2,2.6-2.4,3.8-3.7v24.3h-15.3v-12.6c2.9-1.5,5.5-3.2,8-5.1h-7.2
			c-6.6,3.8-14.6,6.3-24.3,6.3v3.6l0.1,0.7c7.4,0,13.9-1.5,19.5-3.8v10.9h-19.3v4.6h43.8v17h12.3v12.1h24.5v-20.8l40-9.4h1.2l40,9.4
			v16.9h5.3v3.8h31.5v-8.4h-3.1v-8.1h3.1v-12.6h43.8v-4.6h-19.5v-11C-105.1,987.1-98.7,988.6-91.3,988.6z M-282.4,995.7h-9.3v-28.5
			c4-4.9,7.1-9.7,9.3-13.3V995.7z M-249.8,1002.1v-4.9h23.9L-249.8,1002.1z M-177.2,1002.1l-23.9-4.9h23.9V1002.1z M-164.6,992.5
			h-96v-9.1h-11.1v-14.7h11.1v-15l0.9-2.8v-5.9h94.3v5.9l0.9,2.8V992.5z M-133.7,995.7h-9.1V976h-7.4v-5h7.4v-17
			c2.2,3.5,5.1,8.2,9.1,12.9V995.7z M-114.7,995.7H-130v-24.6c4.2,4.4,9.3,8.6,15.3,11.8V995.7z"/>
		<rect id="XMLID_443_" x="-153.2" y="920.9" class="st2" width="15.2" height="8.7"/>
		<rect id="XMLID_439_" x="-257.2" y="922.6" class="st2" width="7.5" height="2.7"/>
		<rect id="XMLID_438_" x="-269.7" y="966.7" class="st2" width="11.1" height="14.7"/>
		<rect id="XMLID_437_" x="-295" y="1018.4" class="st2" width="12.3" height="12.1"/>
		<rect id="XMLID_370_" x="-135.3" y="1015.9" class="st2" width="3.1" height="8.1"/>
		<rect id="XMLID_424_" x="-197" y="1017.7" class="st2" width="5.3" height="3.8"/>
		<rect id="XMLID_430_" x="-144.2" y="975" class="st2" width="7.4" height="5"/>
		<polygon id="XMLID_431_" class="st2" points="-303.2,971.1 -303.4,971.2 -306.8,974 -313.9,974 -309.4,971.1 		"/>
		<rect id="XMLID_429_" x="-296.2" y="942" class="st2" width="9" height="5"/>
		<polygon id="XMLID_422_" class="st2" points="-280.7,915.6 -280.7,921.9 -286.2,921.9 -286.2,919.6 -285.9,919.6 -285,915.6 		"/>
		<rect id="XMLID_181_" x="-253.5" y="963.2" class="st2" width="2.3" height="3.4"/>
		<rect id="XMLID_261_" x="-253.5" y="971.1" class="st2" width="3.7" height="1.4"/>
		<rect id="XMLID_264_" x="-253.5" y="927.6" class="st2" width="1.1" height="1.3"/>
		<rect id="XMLID_281_" x="-295" y="949.7" class="st2" width="1.8" height="2"/>
		<rect id="XMLID_283_" x="-283.5" y="938" class="st2" width="2.7" height="2"/>
		<rect id="XMLID_284_" x="-286.2" y="924" class="st2" width="4.1" height="1"/>
		<rect id="XMLID_410_" x="-148.5" y="931.5" class="st2" width="5.7" height="0.8"/>
		<rect id="XMLID_413_" x="-138" y="934.5" class="st2" width="2.7" height="3.5"/>
		<rect id="XMLID_426_" x="-139.2" y="971" class="st2" width="1.2" height="0.8"/>
		<rect id="XMLID_427_" x="-132.2" y="1012" class="st2" width="1.2" height="1.3"/>
		<rect id="XMLID_428_" x="-180.2" y="1030.5" class="st2" width="7.5" height="1.8"/>
		<rect id="XMLID_432_" x="-280.7" y="1032.2" class="st2" width="4" height="2.3"/>
		<rect id="XMLID_436_" x="-233.7" y="966" class="st2" width="22" height="2.7"/>
		<rect id="XMLID_444_" x="-215.7" y="971.1" class="st2" width="5.5" height="1.4"/>
		<rect id="XMLID_446_" x="-251.6" y="1012" class="st2" width="5.7" height="1.3"/>
		<rect id="XMLID_448_" x="-259.8" y="1021.5" class="st2" width="18.3" height="1.3"/>
		<rect id="XMLID_455_" x="-316.2" y="989.2" class="st2" width="11.6" height="1"/>
		<rect id="XMLID_456_" x="-282.1" y="1021.5" class="st2" width="2.4" height="2.6"/>
		<rect id="XMLID_457_" x="-293.2" y="1034.5" class="st2" width="7" height="1.3"/>
		<rect id="XMLID_458_" x="-136.8" y="1033.4" class="st2" width="3.1" height="1.8"/>
		<rect id="XMLID_459_" x="-139.2" y="983.4" class="st2" width="2.6" height="0.9"/>
		<rect id="XMLID_460_" x="-128.2" y="984.3" class="st2" width="6.8" height="1"/>
		<rect id="XMLID_461_" x="-124.8" y="987.1" class="st2" width="2.5" height="0.4"/>
		<path id="XMLID_449_" class="st2" d="M-62.8,906h-10.8c-6.7-16.4-16.4-31.3-28.3-44h13.3C-77.7,875-69,889.9-62.8,906z"/>
		<path id="XMLID_453_" class="st2" d="M-352.7,968.7c0,6.1,0.4,12.2,1.1,18.2h-10.1c-0.7-6-1-12-1-18.2c0-14.1,1.9-28,5.6-41.2
			h10.4C-350.7,940.7-352.7,954.5-352.7,968.7z"/>
		<path id="XMLID_463_" class="st2" d="M-292.2,1096h-18.1c-15.2-11.2-28.3-25.1-38.6-41h12.1C-325,1071.6-309.8,1085.6-292.2,1096z
			"/>
		<path id="XMLID_447_" class="st2" d="M-74.5,1022.5c-2.1,5-4.4,9.8-7,14.6H-93c2.8-4.7,5.3-9.6,7.6-14.6H-74.5z"/>
		<path id="XMLID_452_" class="st2" d="M-242,823v3.8c-24.4,5.7-47,17.7-65.7,35.2h-14.1c1.2-1.3,2.4-2.5,3.7-3.8
			c15.8-15.7,34.3-27.6,54.5-35.2H-242z"/>
		<rect id="XMLID_649_" x="-316.2" y="1059.3" class="st2" width="7.6" height="4.2"/>
		<rect id="XMLID_650_" x="-305.7" y="1074" class="st2" width="8.8" height="1.5"/>
		<rect id="XMLID_651_" x="-299.2" y="1080.5" class="st2" width="3" height="2.5"/>
		<rect id="XMLID_652_" x="-369" y="1009" class="st2" width="2.3" height="3"/>
		<rect id="XMLID_653_" x="-375.7" y="944.5" class="st2" width="7.9" height="2.5"/>
		<rect id="XMLID_654_" x="-382.5" y="961.5" class="st2" width="4.3" height="4.5"/>
		<rect id="XMLID_655_" x="-374.5" y="970" class="st2" width="1" height="1"/>
		<rect id="XMLID_656_" x="-385" y="978" class="st2" width="4.6" height="2"/>
		<rect id="XMLID_657_" x="-344.5" y="956" class="st2" width="5" height="3.8"/>
		<rect id="XMLID_658_" x="-311.6" y="827.2" class="st2" width="8.4" height="1.3"/>
		<rect id="XMLID_659_" x="-319.2" y="839" class="st2" width="3" height="3.5"/>
		<rect id="XMLID_660_" x="-289.2" y="853.5" class="st2" width="5.8" height="2.3"/>
		<rect id="XMLID_661_" x="-275.2" y="848" class="st2" width="3.5" height="2.8"/>
		<rect id="XMLID_662_" x="-108.2" y="884" class="st2" width="12" height="3"/>
		<rect id="XMLID_663_" x="-101.9" y="902.5" class="st2" width="10.6" height="6"/>
		<rect id="XMLID_664_" x="-62.8" y="880.5" class="st2" width="5.1" height="6.5"/>
		<rect id="XMLID_665_" x="-57.7" y="911" class="st2" width="7" height="4.6"/>
		<rect id="XMLID_666_" x="-65.2" y="1034.2" class="st2" width="14.5" height="2.8"/>
		<rect id="XMLID_667_" x="-106.2" y="1037.1" class="st2" width="4.3" height="3"/>
		<rect id="XMLID_668_" x="-69.1" y="1046.5" class="st2" width="3.8" height="5.5"/>
		<rect id="XMLID_669_" x="-58" y="1020" class="st2" width="7.3" height="4.1"/>
	</g>
</g>
</svg>
