<?xml version="1.0" encoding="utf-8"?>
<!-- Generator: Adobe Illustrator 19.0.0, SVG Export Plug-In . SVG Version: 6.00 Build 0)  -->
<svg version="1.1" id="Layer_1" xmlns="http://www.w3.org/2000/svg" xmlns:xlink="http://www.w3.org/1999/xlink" x="0px" y="0px"
	 viewBox="-399 761 400 400" style="enable-background:new -399 761 400 400;" xml:space="preserve">
<style type="text/css">
	.st0{fill:#F3859F;}
	.st1{fill:#E6CDE3;}
	.st2{fill:#C82127;}
</style>
<g id="XMLID_2363_">
	<g id="XMLID_2415_">
		<path id="XMLID_2416_" class="st0" d="M-201.8,806h-0.8c-26.2,0-51.3,6.4-73.7,18.5h13.2v4.6c18.7-8.6,39.3-13.1,60.5-13.1h0.8
			c46.9,0.2,88.6,23,114.9,58.1h12.3C-102.3,833.3-148.9,806.3-201.8,806z M-345.3,988.1h-10.2c6.6,36.8,26.1,69.2,53.7,92.2h16.5
			C-315.9,1059-338,1026.2-345.3,988.1z M-301.8,1080.3c5.2,4.3,10.8,8.4,16.5,12L-301.8,1080.3z M-64.5,891.3h-11.3
			c11.5,20.9,18,44.9,17.9,70.4c-0.1,28-8.1,54.9-23,77.9h11.8c13.8-23.4,21.2-50,21.3-77.9C-47.8,936.4-53.8,912.5-64.5,891.3z
			 M-100.7,1063.8c-27.4,27.2-63.8,42.2-102.4,42.2h-0.8c-21.6-0.1-42.1-5-60.5-13.7h-20.8c23.6,14.9,51.4,23.5,81.2,23.7h0.9
			c41.3,0,80.2-16,109.5-45.1c5.7-5.6,10.9-11.7,15.6-18h-12.7C-93.9,1056.7-97.2,1060.4-100.7,1063.8z M-306.3,845.6
			c-2,1.8-3.9,3.6-5.8,5.5c-26.5,26.3-42.3,60.4-45.3,97.2h10c2.9-34.1,17.7-65.7,42.3-90c4.6-4.5,9.4-8.7,14.4-12.6H-306.3z"/>
	</g>
	<g id="XMLID_2403_">
		<path id="XMLID_2414_" class="st0" d="M-240.5,867.3h-10.2c6.4-14,20.1-23,35.6-22.4c2.6,0.1,6.4-1.2,6.3,3.4
			c-0.1,3.6-3.2,3.9-6.1,4.4C-227.3,854.7-235.5,859.5-240.5,867.3z"/>
		<path id="XMLID_2411_" class="st0" d="M-195.8,890.3c0.8-4.6-3.3-3.5-5.9-3.5c-13-0.1-26-0.2-39,0c-4.7,0.1-5.8-1.5-4.9-6
			c0.5-2.7,1.2-5.1,2-7.4h-9.5c-0.6,2.3-1.1,4.6-1.4,7c-0.6,5.4-2.6,6.5-7.3,6.4c-10.7-0.2-21.5-0.2-32.2,0
			c-2.4,0.1-6.8-1.8-6.6,2.6c0.2,3.8-3.9,9.5,3,11.3c2.9,0.8,2.5,2.5,2.6,4.3c0.7,9.5,1.5,19,2.2,28.5h21.3v6.6h-20.8
			c0.6,7.9,1.2,15.9,1.8,23.8c1.9,25.1,3.9,50.3,5.5,75.4h13.5v10.8c14.3-0.2,28.8,0,44.7,0c-5.1-5.4-9.2-9.3-11.5-14.4
			c-2.4-5.2-5.6-8.9-10.6-12.2c-13-8.6-12.6-27.8-1-36.9h-10.1v-4.8h17.8c1.5-1.3,2.6-2.8,3.7-4.7c6.1-10.7,14.5-18.9,27.4-20.5
			c4.3-0.5,4.6-2.5,4.8-6.1c0.6-8.9,1.4-17.9,2.2-26.8h-20.3v-14h21.5c0.1-1,0.2-2,0.3-3c0-0.3,0-0.5,0.1-0.8
			c0.2-2.3-0.8-4.8,3.3-5.3C-192.3,899.6-196.4,893.8-195.8,890.3z M-250.8,907h-11.3v-5h11.3V907z"/>
		<path id="XMLID_2407_" class="st0" d="M-99.5,989c-22.6-0.1-45.2,0-67.8,0c-22.9,0-45.8,0-68.6,0c-10.1,0-16,5.7-16.3,15.4
			c-0.2,9.1,6.4,16.2,15.7,16.2c45.8,0.1,91.5,0.1,137.3,0c10.1,0,14.8-5.6,14.7-16.5C-84.7,993.8-89.4,989-99.5,989z M-98.6,1006
			c-6.4,5.2-13.3,8.1-20.9,3.2c-10.2-6.5-19.5-6.8-29.7,0.6c-7.2,5.3-15.8,4.9-23.1-0.1c-8-5.4-15.6-5.7-23.6-0.7
			c-5.7,3.5-10.7,2.9-16.3-1.2c-8.9-6.5-15.4-5.6-23.4,1.8c-1.6,1.4-2.8,4.4-5.4,2.4c-2.9-2.3-0.5-4.6,1.1-6.5
			c4.3-4.8,9.6-7.8,16-8.1c4.8,0.3,9,1.8,12.8,4.5c4.9,3.3,9.5,3.9,14.8,0.4c7.2-4.8,14.9-4.9,22.3-0.1c9.3,6,18.3,6.6,27.4-0.5
			c8-6.2,16.5-4.9,24.6-0.3c6.9,4,13.2,6.4,20,0c1.5-1.4,3.8-1.9,5.1,0.3C-95.9,1003.5-97.1,1004.9-98.6,1006z"/>
		<path id="XMLID_2406_" class="st0" d="M-130.4,1046.9v6.3c-0.8,0-1.5,0-2.3,0c-11.6-0.3-23.2-0.3-34.8-0.2v-6H-130.4z"/>
		<path id="XMLID_2405_" class="st0" d="M-100.6,1027.3c-6.5,14-16,22.5-31.7,22.9v-6.3h-37.1v6c-11.5,0-23.1,0.1-34.6,0.1
			c-14.9-0.1-25.4-8-30.2-22.7H-100.6z"/>
		<path id="XMLID_2404_" class="st0" d="M-102.7,981.7h-130.7c6.4-12,14.9-19.3,28-19.3c24.3-0.2,48.7-0.2,73,0v7.1h20.8
			C-108.3,972.5-105.4,976.6-102.7,981.7z"/>
	</g>
	<path id="XMLID_2402_" class="st0" d="M-199.8,906.7c-0.4,4.7-0.8,9.3-1.2,14h-20.3v-14H-199.8z"/>
	<path id="XMLID_2401_" class="st0" d="M-274.4,1041.3v10.8c-2.1,0-4.2,0.1-6.3,0.1c-5,0.1-6.7-1.1-7-6.3c-0.1-1.5-0.2-3.1-0.3-4.6
		H-274.4z"/>
	<path id="XMLID_2400_" class="st0" d="M-110.6,967.5h-20.8v-7.1c0.8,0,1.6,0,2.3,0C-121.7,960.4-115.7,962.7-110.6,967.5z"/>
	<path id="XMLID_2399_" class="st0" d="M-291.4,933.4v6.6h-20.8c-0.2-2.2-0.3-4.4-0.5-6.6H-291.4z"/>
	<path id="XMLID_2398_" class="st0" d="M-232.1,981.7c-0.9,0.8-2,1.5-3.2,2c-1.6,0.8-3.1,1.7-4.5,2.7h-10.1v-4.8H-232.1z"/>
	<rect id="XMLID_2397_" x="-193.4" y="923.7" class="st0" width="9.5" height="3"/>
	<rect id="XMLID_2396_" x="-197.4" y="909.7" class="st0" width="4" height="2.7"/>
	<rect id="XMLID_2395_" x="-131.4" y="953" class="st0" width="3.5" height="1.5"/>
	<rect id="XMLID_2394_" x="-105.9" y="972" class="st0" width="16.5" height="3"/>
	<rect id="XMLID_2393_" x="-131.4" y="1057.5" class="st0" width="8" height="3.5"/>
	<rect id="XMLID_2392_" x="-291.4" y="1054.7" class="st0" width="5.5" height="4.6"/>
	<rect id="XMLID_2391_" x="-304.4" y="947.4" class="st0" width="2.9" height="3.1"/>
	<rect id="XMLID_2390_" x="-232.1" y="984.8" class="st0" width="1.4" height="1.7"/>
	<rect id="XMLID_2389_" x="-201.2" y="933.4" class="st0" width="6.1" height="3.3"/>
	<rect id="XMLID_2388_" x="-114.6" y="954.5" class="st0" width="2.3" height="4.2"/>
	<rect id="XMLID_2387_" x="-152.2" y="1063" class="st0" width="5.7" height="2.3"/>
	<rect id="XMLID_2386_" x="-164.9" y="1057" class="st0" width="4.3" height="4"/>
	<rect id="XMLID_2385_" x="-302.9" y="1041.3" class="st0" width="9.4" height="2.7"/>
	<rect id="XMLID_2384_" x="-302.1" y="1054.7" class="st0" width="3.8" height="2.3"/>
	<rect id="XMLID_2383_" x="-309.9" y="920.7" class="st0" width="6.9" height="3"/>
	<rect id="XMLID_2382_" x="-327.2" y="953" class="st0" width="8.7" height="3.6"/>
	<path id="XMLID_2381_" class="st0" d="M-237.5,870.3c-1.2,1.8-2.2,3.8-3,6l0,0h-9.5c0.6-2.1,1.3-4.1,2.2-6H-237.5z"/>
	<path id="XMLID_2380_" class="st0" d="M-240.5,867.3l-3,6C-242.7,871.1-241.7,869.1-240.5,867.3z"/>
	<rect id="XMLID_2379_" x="-263.9" y="863.3" class="st0" width="3.7" height="4"/>
	<rect id="XMLID_2378_" x="-231.4" y="876.3" class="st0" width="6.5" height="1.7"/>
	<rect id="XMLID_2377_" x="-281.1" y="878" class="st0" width="13.3" height="3"/>
	<path id="XMLID_2376_" class="st0" d="M-60.5,887.3h-11.3c-3.3-6-7-11.7-11.1-17.2h12.3C-66.9,875.6-63.5,881.3-60.5,887.3z"/>
	<path id="XMLID_2375_" class="st0" d="M-349.3,992.1h-10.2c-1.6-9-2.4-18.3-2.4-27.8c0-4,0.2-8.1,0.5-12.1h10
		c-0.3,4-0.5,8-0.5,12.1C-351.9,973.8-351,983.1-349.3,992.1z"/>
	<path id="XMLID_2374_" class="st0" d="M-345.3,988.1c-1.7-9-2.6-18.3-2.6-27.8c0-4.1,0.2-8.1,0.5-12.1L-345.3,988.1z"/>
	<path id="XMLID_2373_" class="st0" d="M-260.5,1087.3h-20.8l-16.5-12h16.5C-274.7,1079.8-267.8,1083.9-260.5,1087.3z"/>
	<path id="XMLID_2372_" class="st0" d="M-74.2,1034.5c-2.7,4.6-5.7,9.1-8.9,13.4h-12.7c3.5-4.3,6.8-8.8,9.8-13.4H-74.2z"/>
	<path id="XMLID_2371_" class="st0" d="M-267.1,832.5v4.6c-9.7,4.4-19,10-27.6,16.5h-15.7c9.3-8.3,19.3-15.4,30.1-21.2H-267.1z"/>
	<rect id="XMLID_2370_" x="-55.9" y="873.3" class="st0" width="8" height="3.8"/>
	<rect id="XMLID_2369_" x="-53.9" y="893" class="st0" width="2" height="3.1"/>
	<rect id="XMLID_2368_" x="-68.4" y="1047.9" class="st0" width="7.9" height="6.7"/>
	<rect id="XMLID_2367_" x="-256.4" y="1086.3" class="st0" width="12.7" height="1"/>
	<rect id="XMLID_2366_" x="-332.4" y="975" class="st0" width="5.2" height="5"/>
	<rect id="XMLID_2365_" x="-274.4" y="852.7" class="st0" width="6.5" height="2.3"/>
	<rect id="XMLID_2364_" x="-297.8" y="827.5" class="st0" width="7.1" height="5"/>
</g>
<g id="XMLID_2152_">
	<g id="XMLID_2342_">
		<path id="XMLID_2343_" class="st1" d="M-209,806h-0.8c-26.2,0-51.3,6.4-73.7,18.5h13.2v4.6c18.7-8.6,39.3-13.1,60.5-13.1h0.8
			c46.9,0.2,88.6,23,114.9,58.1h12.3C-109.6,833.3-156.2,806.3-209,806z M-352.6,988.1h-10.2c6.6,36.8,26.1,69.2,53.7,92.2h16.5
			C-323.2,1059-345.3,1026.2-352.6,988.1z M-309,1080.3c5.2,4.3,10.8,8.4,16.5,12L-309,1080.3z M-71.8,891.3h-11.3
			c11.5,20.9,18,44.9,17.9,70.4c-0.1,28-8.1,54.9-23,77.9h11.8c13.8-23.4,21.2-50,21.3-77.9C-55.1,936.4-61.1,912.5-71.8,891.3z
			 M-108,1063.8c-27.4,27.2-63.8,42.2-102.4,42.2h-0.8c-21.6-0.1-42.1-5-60.5-13.7h-20.8c23.6,14.9,51.4,23.5,81.2,23.7h0.9
			c41.3,0,80.2-16,109.5-45.1c5.7-5.6,10.9-11.7,15.6-18H-98C-101.2,1056.7-104.5,1060.4-108,1063.8z M-313.6,845.6
			c-2,1.8-3.9,3.6-5.8,5.5c-26.5,26.3-42.3,60.4-45.3,97.2h10c2.9-34.1,17.7-65.7,42.3-90c4.6-4.5,9.4-8.7,14.4-12.6H-313.6z"/>
	</g>
	<g id="XMLID_2330_">
		<path id="XMLID_2341_" class="st1" d="M-247.8,867.3H-258c6.4-14,20.1-23,35.6-22.4c2.6,0.1,6.4-1.2,6.3,3.4
			c-0.1,3.6-3.2,3.9-6.1,4.4C-234.5,854.7-242.8,859.5-247.8,867.3z"/>
		<path id="XMLID_2338_" class="st1" d="M-203.1,890.3c0.8-4.6-3.3-3.5-5.9-3.5c-13-0.1-26-0.2-39,0c-4.7,0.1-5.8-1.5-4.9-6
			c0.5-2.7,1.2-5.1,2-7.4h-9.5c-0.6,2.3-1.1,4.6-1.4,7c-0.6,5.4-2.6,6.5-7.3,6.4c-10.7-0.2-21.5-0.2-32.2,0
			c-2.4,0.1-6.8-1.8-6.6,2.6c0.2,3.8-3.9,9.5,3,11.3c2.9,0.8,2.5,2.5,2.6,4.3c0.7,9.5,1.5,19,2.2,28.5h21.3v6.6h-20.8
			c0.6,7.9,1.2,15.9,1.8,23.8c1.9,25.1,3.9,50.3,5.5,75.4h13.5v10.8c14.3-0.2,28.8,0,44.7,0c-5.1-5.4-9.2-9.3-11.5-14.4
			c-2.4-5.2-5.6-8.9-10.6-12.2c-13-8.6-12.6-27.8-1-36.9h-10.1v-4.8h17.8c1.5-1.3,2.6-2.8,3.7-4.7c6.1-10.7,14.5-18.9,27.4-20.5
			c4.3-0.5,4.6-2.5,4.8-6.1c0.6-8.9,1.4-17.9,2.2-26.8h-20.3v-14h21.5c0.1-1,0.2-2,0.3-3c0-0.3,0-0.5,0.1-0.8
			c0.2-2.3-0.8-4.8,3.3-5.3C-199.5,899.6-203.7,893.8-203.1,890.3z M-258,907h-11.3v-5h11.3V907z"/>
		<path id="XMLID_2334_" class="st1" d="M-106.8,989c-22.6-0.1-45.2,0-67.8,0c-22.9,0-45.8,0-68.6,0c-10.1,0-16,5.7-16.3,15.4
			c-0.2,9.1,6.4,16.2,15.7,16.2c45.8,0.1,91.5,0.1,137.3,0c10.1,0,14.8-5.6,14.7-16.5C-91.9,993.8-96.6,989-106.8,989z M-105.8,1006
			c-6.4,5.2-13.3,8.1-20.9,3.2c-10.2-6.5-19.5-6.8-29.7,0.6c-7.2,5.3-15.8,4.9-23.1-0.1c-8-5.4-15.6-5.7-23.6-0.7
			c-5.7,3.5-10.7,2.9-16.3-1.2c-8.9-6.5-15.4-5.6-23.4,1.8c-1.6,1.4-2.8,4.4-5.4,2.4c-2.9-2.3-0.5-4.6,1.1-6.5
			c4.3-4.8,9.6-7.8,16-8.1c4.8,0.3,9,1.8,12.8,4.5c4.9,3.3,9.5,3.9,14.8,0.4c7.2-4.8,14.9-4.9,22.3-0.1c9.3,6,18.3,6.6,27.4-0.5
			c8-6.2,16.5-4.9,24.6-0.3c6.9,4,13.2,6.4,20,0c1.5-1.4,3.8-1.9,5.1,0.3C-103.2,1003.5-104.4,1004.9-105.8,1006z"/>
		<path id="XMLID_2333_" class="st1" d="M-137.7,1046.9v6.3c-0.8,0-1.5,0-2.3,0c-11.6-0.3-23.2-0.3-34.8-0.2v-6H-137.7z"/>
		<path id="XMLID_2332_" class="st1" d="M-107.9,1027.3c-6.5,14-16,22.5-31.7,22.9v-6.3h-37.1v6c-11.5,0-23.1,0.1-34.6,0.1
			c-14.9-0.1-25.4-8-30.2-22.7H-107.9z"/>
		<path id="XMLID_2331_" class="st1" d="M-110,981.7h-130.7c6.4-12,14.9-19.3,28-19.3c24.3-0.2,48.7-0.2,73,0v7.1h20.8
			C-115.6,972.5-112.6,976.6-110,981.7z"/>
	</g>
	<path id="XMLID_2329_" class="st1" d="M-207.1,906.7c-0.4,4.7-0.8,9.3-1.2,14h-20.3v-14H-207.1z"/>
	<path id="XMLID_2328_" class="st1" d="M-281.7,1041.3v10.8c-2.1,0-4.2,0.1-6.3,0.1c-5,0.1-6.7-1.1-7-6.3c-0.1-1.5-0.2-3.1-0.3-4.6
		H-281.7z"/>
	<path id="XMLID_2322_" class="st1" d="M-117.8,967.5h-20.8v-7.1c0.8,0,1.6,0,2.3,0C-129,960.4-123,962.7-117.8,967.5z"/>
	<path id="XMLID_2310_" class="st1" d="M-298.7,933.4v6.6h-20.8c-0.2-2.2-0.3-4.4-0.5-6.6H-298.7z"/>
	<path id="XMLID_2306_" class="st1" d="M-239.4,981.7c-0.9,0.8-2,1.5-3.2,2c-1.6,0.8-3.1,1.7-4.5,2.7h-10.1v-4.8H-239.4z"/>
	<rect id="XMLID_2305_" x="-200.7" y="923.7" class="st1" width="9.5" height="3"/>
	<rect id="XMLID_2304_" x="-204.7" y="909.7" class="st1" width="4" height="2.7"/>
	<rect id="XMLID_2300_" x="-138.7" y="953" class="st1" width="3.5" height="1.5"/>
	<rect id="XMLID_2299_" x="-113.2" y="972" class="st1" width="16.5" height="3"/>
	<rect id="XMLID_2294_" x="-138.7" y="1057.5" class="st1" width="8" height="3.5"/>
	<rect id="XMLID_2267_" x="-298.7" y="1054.7" class="st1" width="5.5" height="4.6"/>
	<rect id="XMLID_2266_" x="-311.7" y="947.4" class="st1" width="2.9" height="3.1"/>
	<rect id="XMLID_2265_" x="-239.4" y="984.8" class="st1" width="1.4" height="1.7"/>
	<rect id="XMLID_2264_" x="-208.5" y="933.4" class="st1" width="6.1" height="3.3"/>
	<rect id="XMLID_2263_" x="-121.8" y="954.5" class="st1" width="2.3" height="4.2"/>
	<rect id="XMLID_2262_" x="-159.5" y="1063" class="st1" width="5.7" height="2.3"/>
	<rect id="XMLID_2261_" x="-172.2" y="1057" class="st1" width="4.3" height="4"/>
	<rect id="XMLID_2260_" x="-310.2" y="1041.3" class="st1" width="9.4" height="2.7"/>
	<rect id="XMLID_2259_" x="-309.3" y="1054.7" class="st1" width="3.8" height="2.3"/>
	<rect id="XMLID_2258_" x="-317.2" y="920.7" class="st1" width="6.9" height="3"/>
	<rect id="XMLID_2257_" x="-334.5" y="953" class="st1" width="8.7" height="3.6"/>
	<path id="XMLID_2256_" class="st1" d="M-244.8,870.3c-1.2,1.8-2.2,3.8-3,6l0,0h-9.5c0.6-2.1,1.3-4.1,2.2-6H-244.8z"/>
	<path id="XMLID_2203_" class="st1" d="M-247.8,867.3l-3,6C-250,871.1-249,869.1-247.8,867.3z"/>
	<rect id="XMLID_2202_" x="-271.2" y="863.3" class="st1" width="3.7" height="4"/>
	<rect id="XMLID_2201_" x="-238.7" y="876.3" class="st1" width="6.5" height="1.7"/>
	<rect id="XMLID_2200_" x="-288.4" y="878" class="st1" width="13.3" height="3"/>
	<path id="XMLID_2199_" class="st1" d="M-67.8,887.3h-11.3c-3.3-6-7-11.7-11.1-17.2h12.3C-74.2,875.6-70.8,881.3-67.8,887.3z"/>
	<path id="XMLID_2198_" class="st1" d="M-356.6,992.1h-10.2c-1.6-9-2.4-18.3-2.4-27.8c0-4,0.2-8.1,0.5-12.1h10
		c-0.3,4-0.5,8-0.5,12.1C-359.2,973.8-358.3,983.1-356.6,992.1z"/>
	<path id="XMLID_2197_" class="st1" d="M-352.6,988.1c-1.7-9-2.6-18.3-2.6-27.8c0-4.1,0.2-8.1,0.5-12.1L-352.6,988.1z"/>
	<path id="XMLID_2196_" class="st1" d="M-267.8,1087.3h-20.8l-16.5-12h16.5C-282,1079.8-275,1083.9-267.8,1087.3z"/>
	<path id="XMLID_2195_" class="st1" d="M-81.4,1034.5c-2.7,4.6-5.7,9.1-8.9,13.4H-103c3.5-4.3,6.8-8.8,9.8-13.4H-81.4z"/>
	<path id="XMLID_2194_" class="st1" d="M-274.4,832.5v4.6c-9.7,4.4-19,10-27.6,16.5h-15.7c9.3-8.3,19.3-15.4,30.1-21.2H-274.4z"/>
	<rect id="XMLID_2193_" x="-63.2" y="873.3" class="st1" width="8" height="3.8"/>
	<rect id="XMLID_2192_" x="-61.2" y="893" class="st1" width="2" height="3.1"/>
	<rect id="XMLID_2191_" x="-75.7" y="1047.9" class="st1" width="7.9" height="6.7"/>
	<rect id="XMLID_2156_" x="-263.7" y="1086.3" class="st1" width="12.7" height="1"/>
	<rect id="XMLID_2155_" x="-339.7" y="975" class="st1" width="5.2" height="5"/>
	<rect id="XMLID_2154_" x="-281.7" y="852.7" class="st1" width="6.5" height="2.3"/>
	<rect id="XMLID_2153_" x="-305" y="827.5" class="st1" width="7.1" height="5"/>
</g>
<g id="XMLID_2150_">
	<g id="XMLID_369_">
		<path id="XMLID_2307_" class="st2" d="M-205.8,806h-0.8c-26.2,0-51.3,6.4-73.7,18.5h13.2v4.6c18.7-8.6,39.3-13.1,60.5-13.1h0.8
			c46.9,0.2,88.6,23,114.9,58.1h12.3C-106.3,833.3-152.9,806.3-205.8,806z M-349.3,988.1h-10.2c6.6,36.8,26.1,69.2,53.7,92.2h16.5
			C-319.9,1059-342,1026.2-349.3,988.1z M-305.8,1080.3c5.2,4.3,10.8,8.4,16.5,12L-305.8,1080.3z M-68.5,891.3h-11.3
			c11.5,20.9,18,44.9,17.9,70.4c-0.1,28-8.1,54.9-23,77.9h11.8c13.8-23.4,21.2-50,21.3-77.9C-51.8,936.4-57.8,912.5-68.5,891.3z
			 M-104.7,1063.8c-27.4,27.2-63.8,42.2-102.4,42.2h-0.8c-21.6-0.1-42.1-5-60.5-13.7h-20.8c23.6,14.9,51.4,23.5,81.2,23.7h0.9
			c41.3,0,80.2-16,109.5-45.1c5.7-5.6,10.9-11.7,15.6-18h-12.7C-97.9,1056.7-101.2,1060.4-104.7,1063.8z M-310.3,845.6
			c-2,1.8-3.9,3.6-5.8,5.5c-26.5,26.3-42.3,60.4-45.3,97.2h10c2.9-34.1,17.7-65.7,42.3-90c4.6-4.5,9.4-8.7,14.4-12.6H-310.3z"/>
	</g>
	<g id="XMLID_1387_">
		<path id="XMLID_2303_" class="st2" d="M-244.5,867.3h-10.2c6.4-14,20.1-23,35.6-22.4c2.6,0.1,6.4-1.2,6.3,3.4
			c-0.1,3.6-3.2,3.9-6.1,4.4C-231.3,854.7-239.5,859.5-244.5,867.3z"/>
		<path id="XMLID_2316_" class="st2" d="M-199.8,890.3c0.8-4.6-3.3-3.5-5.9-3.5c-13-0.1-26-0.2-39,0c-4.7,0.1-5.8-1.5-4.9-6
			c0.5-2.7,1.2-5.1,2-7.4h-9.5c-0.6,2.3-1.1,4.6-1.4,7c-0.6,5.4-2.6,6.5-7.3,6.4c-10.7-0.2-21.5-0.2-32.2,0
			c-2.4,0.1-6.8-1.8-6.6,2.6c0.2,3.8-3.9,9.5,3,11.3c2.9,0.8,2.5,2.5,2.6,4.3c0.7,9.5,1.5,19,2.2,28.5h21.3v6.6h-20.8
			c0.6,7.9,1.2,15.9,1.8,23.8c1.9,25.1,3.9,50.3,5.5,75.4h13.5v10.8c14.3-0.2,28.8,0,44.7,0c-5.1-5.4-9.2-9.3-11.5-14.4
			c-2.4-5.2-5.6-8.9-10.6-12.2c-13-8.6-12.6-27.8-1-36.9h-10.1v-4.8h17.8c1.5-1.3,2.6-2.8,3.7-4.7c6.1-10.7,14.5-18.9,27.4-20.5
			c4.3-0.5,4.6-2.5,4.8-6.1c0.6-8.9,1.4-17.9,2.2-26.8h-20.3v-14h21.5c0.1-1,0.2-2,0.3-3c0-0.3,0-0.5,0.1-0.8
			c0.2-2.3-0.8-4.8,3.3-5.3C-196.3,899.6-200.4,893.8-199.8,890.3z M-254.8,907h-11.3v-5h11.3V907z"/>
		<path id="XMLID_2135_" class="st2" d="M-103.5,989c-22.6-0.1-45.2,0-67.8,0c-22.9,0-45.8,0-68.6,0c-10.1,0-16,5.7-16.3,15.4
			c-0.2,9.1,6.4,16.2,15.7,16.2c45.8,0.1,91.5,0.1,137.3,0c10.1,0,14.8-5.6,14.7-16.5C-88.7,993.8-93.4,989-103.5,989z M-102.6,1006
			c-6.4,5.2-13.3,8.1-20.9,3.2c-10.2-6.5-19.5-6.8-29.7,0.6c-7.2,5.3-15.8,4.9-23.1-0.1c-8-5.4-15.6-5.7-23.6-0.7
			c-5.7,3.5-10.7,2.9-16.3-1.2c-8.9-6.5-15.4-5.6-23.4,1.8c-1.6,1.4-2.8,4.4-5.4,2.4c-2.9-2.3-0.5-4.6,1.1-6.5
			c4.3-4.8,9.6-7.8,16-8.1c4.8,0.3,9,1.8,12.8,4.5c4.9,3.3,9.5,3.9,14.8,0.4c7.2-4.8,14.9-4.9,22.3-0.1c9.3,6,18.3,6.6,27.4-0.5
			c8-6.2,16.5-4.9,24.6-0.3c6.9,4,13.2,6.4,20,0c1.5-1.4,3.8-1.9,5.1,0.3C-99.9,1003.5-101.1,1004.9-102.6,1006z"/>
		<path id="XMLID_2133_" class="st2" d="M-134.4,1046.9v6.3c-0.8,0-1.5,0-2.3,0c-11.6-0.3-23.2-0.3-34.8-0.2v-6H-134.4z"/>
		<path id="XMLID_2132_" class="st2" d="M-104.6,1027.3c-6.5,14-16,22.5-31.7,22.9v-6.3h-37.1v6c-11.5,0-23.1,0.1-34.6,0.1
			c-14.9-0.1-25.4-8-30.2-22.7H-104.6z"/>
		<path id="XMLID_207_" class="st2" d="M-106.7,981.7h-130.7c6.4-12,14.9-19.3,28-19.3c24.3-0.2,48.7-0.2,73,0v7.1h20.8
			C-112.3,972.5-109.4,976.6-106.7,981.7z"/>
	</g>
	<path id="XMLID_1281_" class="st2" d="M-203.8,906.7c-0.4,4.7-0.8,9.3-1.2,14h-20.3v-14H-203.8z"/>
	<path id="XMLID_1288_" class="st2" d="M-278.4,1041.3v10.8c-2.1,0-4.2,0.1-6.3,0.1c-5,0.1-6.7-1.1-7-6.3c-0.1-1.5-0.2-3.1-0.3-4.6
		H-278.4z"/>
	<path id="XMLID_2134_" class="st2" d="M-114.6,967.5h-20.8v-7.1c0.8,0,1.6,0,2.3,0C-125.7,960.4-119.7,962.7-114.6,967.5z"/>
	<path id="XMLID_1010_" class="st2" d="M-295.4,933.4v6.6h-20.8c-0.2-2.2-0.3-4.4-0.5-6.6H-295.4z"/>
	<path id="XMLID_1286_" class="st2" d="M-236.1,981.7c-0.9,0.8-2,1.5-3.2,2c-1.6,0.8-3.1,1.7-4.5,2.7h-10.1v-4.8H-236.1z"/>
	<rect id="XMLID_140_" x="-197.4" y="923.7" class="st2" width="9.5" height="3"/>
	<rect id="XMLID_194_" x="-201.4" y="909.7" class="st2" width="4" height="2.7"/>
	<rect id="XMLID_203_" x="-135.4" y="953" class="st2" width="3.5" height="1.5"/>
	<rect id="XMLID_204_" x="-109.9" y="972" class="st2" width="16.5" height="3"/>
	<rect id="XMLID_205_" x="-135.4" y="1057.5" class="st2" width="8" height="3.5"/>
	<rect id="XMLID_206_" x="-295.4" y="1054.7" class="st2" width="5.5" height="4.6"/>
	<rect id="XMLID_2131_" x="-308.4" y="947.4" class="st2" width="2.9" height="3.1"/>
	<rect id="XMLID_2137_" x="-236.1" y="984.8" class="st2" width="1.4" height="1.7"/>
	<rect id="XMLID_2138_" x="-205.2" y="933.4" class="st2" width="6.1" height="3.3"/>
	<rect id="XMLID_2140_" x="-118.5" y="954.5" class="st2" width="2.3" height="4.2"/>
	<rect id="XMLID_2142_" x="-156.2" y="1063" class="st2" width="5.7" height="2.3"/>
	<rect id="XMLID_2143_" x="-168.9" y="1057" class="st2" width="4.3" height="4"/>
	<rect id="XMLID_2295_" x="-306.9" y="1041.3" class="st2" width="9.4" height="2.7"/>
	<rect id="XMLID_2296_" x="-306.1" y="1054.7" class="st2" width="3.8" height="2.3"/>
	<rect id="XMLID_2297_" x="-313.9" y="920.7" class="st2" width="6.9" height="3"/>
	<rect id="XMLID_2298_" x="-331.2" y="953" class="st2" width="8.7" height="3.6"/>
	<path id="XMLID_2302_" class="st2" d="M-241.5,870.3c-1.2,1.8-2.2,3.8-3,6l0,0h-9.5c0.6-2.1,1.3-4.1,2.2-6H-241.5z"/>
	<path id="XMLID_2301_" class="st2" d="M-244.5,867.3l-3,6C-246.7,871.1-245.7,869.1-244.5,867.3z"/>
	<rect id="XMLID_2136_" x="-267.9" y="863.3" class="st2" width="3.7" height="4"/>
	<rect id="XMLID_2139_" x="-235.4" y="876.3" class="st2" width="6.5" height="1.7"/>
	<rect id="XMLID_2141_" x="-285.1" y="878" class="st2" width="13.3" height="3"/>
	<path id="XMLID_2319_" class="st2" d="M-64.5,887.3h-11.3c-3.3-6-7-11.7-11.1-17.2h12.3C-70.9,875.6-67.5,881.3-64.5,887.3z"/>
	<path id="XMLID_2320_" class="st2" d="M-353.3,992.1h-10.2c-1.6-9-2.4-18.3-2.4-27.8c0-4,0.2-8.1,0.5-12.1h10
		c-0.3,4-0.5,8-0.5,12.1C-355.9,973.8-355,983.1-353.3,992.1z"/>
	<path id="XMLID_2312_" class="st2" d="M-349.3,988.1c-1.7-9-2.6-18.3-2.6-27.8c0-4.1,0.2-8.1,0.5-12.1L-349.3,988.1z"/>
	<path id="XMLID_2309_" class="st2" d="M-264.5,1087.3h-20.8l-16.5-12h16.5C-278.7,1079.8-271.8,1083.9-264.5,1087.3z"/>
	<path id="XMLID_2308_" class="st2" d="M-78.2,1034.5c-2.7,4.6-5.7,9.1-8.9,13.4h-12.7c3.5-4.3,6.8-8.8,9.8-13.4H-78.2z"/>
	<path id="XMLID_2311_" class="st2" d="M-271.1,832.5v4.6c-9.7,4.4-19,10-27.6,16.5h-15.7c9.3-8.3,19.3-15.4,30.1-21.2H-271.1z"/>
	<rect id="XMLID_1673_" x="-59.9" y="873.3" class="st2" width="8" height="3.8"/>
	<rect id="XMLID_2144_" x="-57.9" y="893" class="st2" width="2" height="3.1"/>
	<rect id="XMLID_2145_" x="-72.4" y="1047.9" class="st2" width="7.9" height="6.7"/>
	<rect id="XMLID_2146_" x="-260.4" y="1086.3" class="st2" width="12.7" height="1"/>
	<rect id="XMLID_2147_" x="-336.4" y="975" class="st2" width="5.2" height="5"/>
	<rect id="XMLID_2148_" x="-278.4" y="852.7" class="st2" width="6.5" height="2.3"/>
	<rect id="XMLID_2149_" x="-301.8" y="827.5" class="st2" width="7.1" height="5"/>
</g>
</svg>
