<?xml version="1.0" encoding="utf-8"?>
<!-- Generator: Adobe Illustrator 19.0.0, SVG Export Plug-In . SVG Version: 6.00 Build 0)  -->
<svg version="1.1" id="Layer_1" xmlns="http://www.w3.org/2000/svg" xmlns:xlink="http://www.w3.org/1999/xlink" x="0px" y="0px"
	 viewBox="-399 761 400 400" style="enable-background:new -399 761 400 400;" xml:space="preserve">
<style type="text/css">
	.st0{fill:#F3859F;}
	.st1{fill:#E6CDE3;}
	.st2{fill:#C82127;}
</style>
<g>
	<g id="XMLID_1373_">
		<g id="XMLID_1656_">
			<path id="XMLID_1657_" class="st0" d="M-328.5,1025.6c2.8,5.2,5.9,10.1,9.2,14.9L-328.5,1025.6z M-191.3,797h-0.7
				c-26.1,0-51.3,6.4-73.7,18.5h24.5c15.6-5.6,32.2-8.5,49.2-8.5h0.6c49.5,0.2,93.2,25.4,119.1,63.7h11.9
				C-87.5,826.7-136,797.3-191.3,797z M-301.5,842.2c-20.6,20.5-34.8,45.8-41.4,73.3h10.3c6.4-24.9,19.4-47.6,38.1-66.2
				c7.1-7.1,14.8-13.3,23-18.7h-17.1C-293,834.2-297.3,838.1-301.5,842.2z M-337.1,951.6c0-4.1,0.2-8.1,0.5-12.1h-10
				c-0.3,4-0.5,8-0.5,12.1c0,26.7,6.7,51.9,18.5,73.9h11.5C-329.9,1003.8-337.2,978.5-337.1,951.6z M-122.1,1079
				c-21.2,11.8-45.2,18-70.2,18h-0.6c-46.3-0.2-87.5-22.3-113.9-56.5h-12.4c27.9,40,74.1,66.3,126.3,66.5h0.7
				c32.3,0,63.1-9.8,89.1-28H-122.1z M-49.3,977.3c-5.1,29.2-19.1,56.1-40.6,77.5c-4.4,4.4-9.1,8.5-14,12.2h15.6
				c1.8-1.7,3.7-3.4,5.4-5.2c14.7-14.6,26.1-31.6,33.8-50.1c4.6-11,7.9-22.6,9.8-34.4H-49.3z M-53.1,883.7h-11.2
				c11,20.5,17.2,43.9,17.2,68.8c0,3.5-0.1,6.9-0.4,10.3h10c0.2-3.4,0.3-6.9,0.4-10.3C-37.1,927.8-42.8,904.4-53.1,883.7z"/>
		</g>
		<g id="XMLID_1422_">
			<path id="XMLID_1655_" class="st0" d="M-110.4,1001.8c-1.4,4.5-4.7,7.7-9.6,8.9c-1.4,0.4-2.7,0.4-4.1,0.4c-45.4,0-90.8,0-136.2,0
				c-7.2,0-12.2-3.7-13.9-10.3c-0.3-1.3-0.4-2.6-0.4-3.9v-5.3h18v-7.4h-18c0-5,0-9.9,0-14.9h21V965h-21c0-6.7,0-13.4,0-20
				c0-1.1,0.1-1.5,1.4-1.5c20.7,0.1,41.3,0,62,0c0.2,0,0.4,0,0.8,0c-8.1,19.4,1.1,35.9,10.8,43.2c11.1,8.3,24.5,9.9,36.6,4.5v10.6
				H-110.4z"/>
			<path id="XMLID_1654_" class="st0" d="M-109.6,945.2c-0.1,13.2-0.1,26.5-0.1,39.7h-43.7c4.9-4.4,8.4-10,10.3-16.6
				c2.4-8.4,1.8-16.6-1.8-24.8h4.7c9.6,0,19.2,0,28.8,0C-110.1,943.5-109.6,943.7-109.6,945.2z"/>
			<path id="XMLID_1650_" class="st0" d="M-109.7,923.4h-16.9v-6.8h16.3c-0.4-1.6-1.2-3.2-2.3-4.6c-3-3.8-7-5.3-11.7-5.2
				c-22.7,0-45.3,0-68,0c-22.5,0-45,0-67.4,0c-0.9,0-1.8,0-2.6,0.1c-6.6,0.4-12,5.7-12.3,12.3c0,0.2,0,0.4,0,0.6c0,0.6,0,1.2,0,1.8
				c0,0.4,0,0.8,0,1.2h10.8v1.8h-10.8c0,4.6,0,9.1,0,13.7c0,1.3,0.3,1.6,1.6,1.6c21.1,0,42.1,0,63.2,0c1.1,0,1.7-0.3,2.3-1.2
				c2.9-4.6,6.7-8.3,11.4-11.1c9.2-5.5,18.9-6.8,29.2-3.7c8.3,2.6,14.8,7.7,19.5,14.9c0.4,0.7,0.9,1.1,1.8,1.1c11.6,0,23.2,0,34.7,0
				c1.1,0,1.4-0.3,1.4-1.4C-109.7,933.5-109.7,928.4-109.7,923.4z M-187.1,915.4h-29.5v-2.8h29.5V915.4z"/>
			<path id="XMLID_1649_" class="st0" d="M-155.6,965l0.9-4.5C-154.9,962.1-155.2,963.6-155.6,965z"/>
			<path id="XMLID_1645_" class="st0" d="M-175.9,935.3c-13.4-0.7-24.1,9.1-24.8,22.7c-0.6,11.4,9.6,22.6,21.1,23.2
				c11.4,0.6,20.9-6.1,23.9-16.2h-9.4v-4.5h10.3c0.1-0.5,0.1-0.9,0.1-1.4C-154,947.3-164.1,935.9-175.9,935.3z M-173.1,952h-4.5
				v-4.3h4.5V952z"/>
			<path id="XMLID_1425_" class="st0" d="M-165,904.8h-55.3c2.7-3.9,5.3-7.7,7.8-11.4c0.4-0.5,0.8-0.5,1.3-0.5c8,0,16.1,0,24.1,0
				v2.1h5.5v-2.1h8.2c0.5,0,1-0.1,1.3,0.5C-169.8,897.2-167.4,900.9-165,904.8z"/>
			<path id="XMLID_1424_" class="st0" d="M-126.5,904.8c-7.4,0-14.5,0-21.8,0c0.9-2.1,1.8-4.1,2.6-6.2c0.2-0.6,0.6-0.6,1.2-0.6
				c4.8,0,9.7,0,14.5,0c0.7,0,1,0.2,1.2,0.8C-128.1,900.8-127.3,902.7-126.5,904.8z"/>
			<path id="XMLID_1423_" class="st0" d="M-253.6,904.8c0-0.2-0.1-0.3,0-0.3c1.1-4.1,1.1-4.1,5.4-4.1c2.3,0,4.5,0.1,6.8,0
				c1.2-0.1,1.6,0.4,1.8,1.5c0.6,3,0.7,3-2.3,3C-245.8,904.8-249.7,904.8-253.6,904.8z"/>
		</g>
		<polygon id="XMLID_1421_" class="st0" points="-149.7,958.5 -150.6,963 -160,963 -160,958.5 		"/>
		<rect id="XMLID_1420_" x="-151.4" y="969.3" class="st0" width="1.7" height="2.3"/>
		<rect id="XMLID_1419_" x="-155.2" y="937.5" class="st0" width="1.8" height="3.5"/>
		<path id="XMLID_1416_" class="st0" d="M-152.4,983.9c-1.4,1.2-2.9,2.4-4.5,3.4c-1.7,1.1-3.5,2.1-5.3,2.9v10.6h52.7
			c0.5-1.6,0.7-3.3,0.7-5.1c0-3.9,0-7.8,0-11.7H-152.4z M-115.1,993.5h-3.7v-3.8h3.7V993.5z"/>
		<rect id="XMLID_1415_" x="-106.1" y="1012.2" class="st0" width="4.5" height="4.8"/>
		<rect id="XMLID_1414_" x="-98.7" y="973.9" class="st0" width="24.5" height="3.4"/>
		<path id="XMLID_1413_" class="st0" d="M-108.7,922.4h-16.9v-6.8h16.3c0.4,1.4,0.5,2.9,0.6,4.4
			C-108.7,920.7-108.7,921.5-108.7,922.4z"/>
		<rect id="XMLID_1412_" x="-106.1" y="922.4" class="st0" width="2.3" height="2.7"/>
		<rect id="XMLID_1411_" x="-99.9" y="910.5" class="st0" width="11" height="2"/>
		<rect id="XMLID_1410_" x="-101.6" y="984.2" class="st0" width="4" height="0.7"/>
		<rect id="XMLID_1409_" x="-105.2" y="988.5" class="st0" width="1.3" height="1.2"/>
		<rect id="XMLID_1408_" x="-277.7" y="965" class="st0" width="21" height="4.3"/>
		<rect id="XMLID_1407_" x="-284.6" y="971.5" class="st0" width="7" height="5.8"/>
		<rect id="XMLID_1406_" x="-288.9" y="956.5" class="st0" width="4.3" height="1"/>
		<rect id="XMLID_1405_" x="-277.7" y="927.5" class="st0" width="1.2" height="6.5"/>
		<rect id="XMLID_1404_" x="-291" y="932.7" class="st0" width="2.1" height="0.2"/>
		<rect id="XMLID_1403_" x="-276.7" y="986.2" class="st0" width="18" height="7.4"/>
		<rect id="XMLID_1402_" x="-297.1" y="993.7" class="st0" width="7.2" height="2"/>
		<rect id="XMLID_1400_" x="-281.1" y="995.7" class="st0" width="2.3" height="5.1"/>
		<rect id="XMLID_1399_" x="-184.1" y="888.9" class="st0" width="5.5" height="2.1"/>
		<path id="XMLID_1398_" class="st0" d="M-47.1,881.7h-11.2c-2.4-4.5-5-8.8-7.9-13h11.9C-51.7,872.9-49.3,877.2-47.1,881.7z"/>
		<rect id="XMLID_1397_" x="-72.5" y="898" class="st0" width="3.7" height="2.4"/>
		<rect id="XMLID_1396_" x="-51.5" y="860.7" class="st0" width="8.3" height="6.3"/>
		<rect id="XMLID_1395_" x="-37.1" y="888.9" class="st0" width="3" height="2.1"/>
		<path id="XMLID_1394_" class="st0" d="M-42.5,964.8c-0.3,4.9-0.9,9.7-1.7,14.5h-10.1l1.8-14.5H-42.5z"/>
		<rect id="XMLID_1393_" x="-60.8" y="958.5" class="st0" width="4.2" height="4.3"/>
		<rect id="XMLID_1392_" x="-35.6" y="970.4" class="st0" width="4.2" height="1.1"/>
		<rect id="XMLID_1391_" x="-66.2" y="983.9" class="st0" width="5.4" height="6"/>
		<path id="XMLID_1390_" class="st0" d="M-311.9,1046.5h-12.4l-9.2-14.9c0-0.1,0-0.1-0.1-0.2h11.5
			C-319,1036.7-315.6,1041.7-311.9,1046.5z"/>
		<path id="XMLID_1389_" class="st0" d="M-328.5,1025.6l-0.1-0.2h0C-328.5,1025.5-328.5,1025.5-328.5,1025.6z"/>
		<rect id="XMLID_1388_" x="-299.1" y="1031.4" class="st0" width="10.3" height="7.5"/>
		<rect id="XMLID_1386_" x="-339.6" y="1025.4" class="st0" width="2" height="7.6"/>
		<path id="XMLID_1385_" class="st0" d="M-327.5,911.5c-2,7.8-3.4,15.8-4.1,24h-10c0.6-8.2,1.9-16.2,3.8-24H-327.5z"/>
		<rect id="XMLID_1384_" x="-327.5" y="941.4" class="st0" width="4.8" height="3.7"/>
		<rect id="XMLID_1383_" x="-321.5" y="918.9" class="st0" width="11.3" height="3.4"/>
		<path id="XMLID_1382_" class="st0" d="M-85.3,1070c-4.8,4.3-9.8,8.3-15,12h-18.9c6.4-3.5,12.5-7.5,18.3-12H-85.3z"/>
		<rect id="XMLID_1381_" x="-86.4" y="1076" class="st0" width="4.6" height="3.3"/>
		<rect id="XMLID_1380_" x="-81.8" y="1069.4" class="st0" width="8.2" height="2"/>
		<rect id="XMLID_1379_" x="-118" y="1067" class="st0" width="2.8" height="2.3"/>
		<rect id="XMLID_1378_" x="-89" y="1091.7" class="st0" width="9.7" height="3.3"/>
		<path id="XMLID_1377_" class="st0" d="M-238.1,818.5c-10.6,3.8-20.8,8.9-30.3,15.1h-17.1c7.2-5.7,14.9-10.8,22.9-15.1H-238.1z"/>
		<rect id="XMLID_1376_" x="-248.1" y="846.7" class="st0" width="7.3" height="3.3"/>
		<rect id="XMLID_1375_" x="-288.9" y="810.5" class="st0" width="11.2" height="2.9"/>
		<rect id="XMLID_1374_" x="-300.8" y="825.6" class="st0" width="3.7" height="1.2"/>
	</g>
	<g id="XMLID_1052_">
		<g id="XMLID_1301_">
			<path id="XMLID_1302_" class="st1" d="M-335.4,1025.6c2.8,5.2,5.9,10.1,9.2,14.9L-335.4,1025.6z M-198.2,797h-0.7
				c-26.1,0-51.3,6.4-73.7,18.5h24.5c15.6-5.6,32.2-8.5,49.2-8.5h0.6c49.5,0.2,93.2,25.4,119.1,63.7h11.9
				C-94.4,826.7-142.9,797.3-198.2,797z M-308.4,842.2c-20.6,20.5-34.8,45.8-41.4,73.3h10.3c6.4-24.9,19.4-47.6,38.1-66.2
				c7.1-7.1,14.8-13.3,23-18.7h-17.1C-299.9,834.2-304.3,838.1-308.4,842.2z M-344.1,951.6c0-4.1,0.2-8.1,0.5-12.1h-10
				c-0.3,4-0.5,8-0.5,12.1c0,26.7,6.7,51.9,18.5,73.9h11.5C-336.8,1003.8-344.1,978.5-344.1,951.6z M-129.1,1079
				c-21.3,11.8-45.2,18-70.2,18h-0.6c-46.3-0.2-87.5-22.3-113.9-56.5h-12.4c27.9,40,74.1,66.3,126.3,66.5h0.7
				c32.3,0,63.1-9.8,89.1-28H-129.1z M-56.2,977.3c-5.1,29.2-19.1,56.1-40.6,77.5c-4.4,4.4-9.1,8.5-14,12.2h15.6
				c1.8-1.7,3.7-3.4,5.4-5.2c14.7-14.6,26.1-31.6,33.8-50.1c4.6-11,7.9-22.6,9.8-34.4H-56.2z M-60,883.7h-11.2
				c11,20.5,17.2,43.9,17.2,68.8c0,3.5-0.1,6.9-0.4,10.3h10c0.2-3.4,0.3-6.9,0.4-10.3C-44,927.8-49.8,904.4-60,883.7z"/>
		</g>
		<g id="XMLID_1276_">
			<path id="XMLID_1300_" class="st1" d="M-117.4,1001.8c-1.4,4.5-4.7,7.7-9.6,8.9c-1.4,0.4-2.7,0.4-4.1,0.4c-45.4,0-90.8,0-136.2,0
				c-7.2,0-12.2-3.7-13.9-10.3c-0.3-1.3-0.4-2.6-0.4-3.9v-5.3h18v-7.4h-18c0-5,0-9.9,0-14.9h21V965h-21c0-6.7,0-13.4,0-20
				c0-1.1,0.1-1.5,1.4-1.5c20.7,0.1,41.3,0,62,0c0.2,0,0.4,0,0.8,0c-8.1,19.4,1.1,35.9,10.8,43.2c11.1,8.3,24.5,9.9,36.6,4.5v10.6
				H-117.4z"/>
			<path id="XMLID_1299_" class="st1" d="M-116.5,945.2c-0.1,13.2-0.1,26.5-0.1,39.7h-43.7c4.9-4.4,8.4-10,10.3-16.6
				c2.4-8.4,1.8-16.6-1.8-24.8h4.7c9.6,0,19.2,0,28.8,0C-117,943.5-116.5,943.7-116.5,945.2z"/>
			<path id="XMLID_1295_" class="st1" d="M-116.6,923.4h-16.9v-6.8h16.3c-0.4-1.6-1.2-3.2-2.3-4.6c-3-3.8-7-5.3-11.7-5.2
				c-22.7,0-45.3,0-68,0c-22.5,0-45,0-67.4,0c-0.9,0-1.8,0-2.6,0.1c-6.6,0.4-12,5.7-12.3,12.3c0,0.2,0,0.4,0,0.6c0,0.6,0,1.2,0,1.8
				c0,0.4,0,0.8,0,1.2h10.8v1.8h-10.8c0,4.6,0,9.1,0,13.7c0,1.3,0.3,1.6,1.6,1.6c21,0,42.1,0,63.2,0c1.1,0,1.7-0.3,2.3-1.2
				c2.9-4.6,6.7-8.3,11.4-11.1c9.2-5.5,18.9-6.8,29.2-3.7c8.3,2.6,14.8,7.7,19.5,14.9c0.4,0.7,0.9,1.1,1.8,1.1c11.6,0,23.2,0,34.7,0
				c1.1,0,1.4-0.3,1.4-1.4C-116.6,933.5-116.6,928.4-116.6,923.4z M-194.1,915.4h-29.5v-2.8h29.5V915.4z"/>
			<path id="XMLID_1294_" class="st1" d="M-162.6,965l0.9-4.5C-161.8,962.1-162.1,963.6-162.6,965z"/>
			<path id="XMLID_1285_" class="st1" d="M-182.8,935.3c-13.4-0.7-24.1,9.1-24.8,22.7c-0.6,11.4,9.6,22.6,21.1,23.2
				c11.4,0.6,20.9-6.1,23.9-16.2h-9.4v-4.5h10.3c0.1-0.5,0.1-0.9,0.1-1.4C-160.9,947.3-171.1,935.9-182.8,935.3z M-180.1,952h-4.5
				v-4.3h4.5V952z"/>
			<path id="XMLID_1279_" class="st1" d="M-172,904.8h-55.3c2.7-3.9,5.3-7.7,7.8-11.4c0.4-0.5,0.8-0.5,1.3-0.5c8,0,16.1,0,24.1,0
				v2.1h5.5v-2.1h8.2c0.5,0,1-0.1,1.3,0.5C-176.7,897.2-174.4,900.9-172,904.8z"/>
			<path id="XMLID_1278_" class="st1" d="M-133.5,904.8c-7.4,0-14.5,0-21.8,0c0.9-2.1,1.8-4.1,2.6-6.2c0.2-0.6,0.6-0.6,1.2-0.6
				c4.8,0,9.7,0,14.5,0c0.7,0,1,0.2,1.2,0.8C-135,900.8-134.3,902.7-133.5,904.8z"/>
			<path id="XMLID_1277_" class="st1" d="M-260.5,904.8c0-0.2-0.1-0.3,0-0.3c1.1-4.1,1.1-4.1,5.4-4.1c2.3,0,4.5,0.1,6.8,0
				c1.2-0.1,1.6,0.4,1.8,1.5c0.6,3,0.7,3-2.3,3C-252.8,904.8-256.6,904.8-260.5,904.8z"/>
		</g>
		<polygon id="XMLID_1275_" class="st1" points="-156.7,958.5 -157.6,963 -167,963 -167,958.5 		"/>
		<rect id="XMLID_1272_" x="-158.3" y="969.3" class="st1" width="1.7" height="2.3"/>
		<rect id="XMLID_1270_" x="-162.1" y="937.5" class="st1" width="1.8" height="3.5"/>
		<path id="XMLID_1266_" class="st1" d="M-159.3,983.9c-1.4,1.2-2.9,2.4-4.5,3.4c-1.7,1.1-3.5,2.1-5.3,2.9v10.6h52.7
			c0.5-1.6,0.7-3.3,0.7-5.1c0-3.9,0-7.8,0-11.7H-159.3z M-122.1,993.5h-3.7v-3.8h3.7V993.5z"/>
		<rect id="XMLID_1224_" x="-113.1" y="1012.2" class="st1" width="4.5" height="4.8"/>
		<rect id="XMLID_1223_" x="-105.6" y="973.9" class="st1" width="24.5" height="3.4"/>
		<path id="XMLID_1222_" class="st1" d="M-115.6,922.4h-16.9v-6.8h16.3c0.4,1.4,0.5,2.9,0.6,4.4
			C-115.6,920.7-115.6,921.5-115.6,922.4z"/>
		<rect id="XMLID_1221_" x="-113.1" y="922.4" class="st1" width="2.3" height="2.7"/>
		<rect id="XMLID_1220_" x="-106.8" y="910.5" class="st1" width="11" height="2"/>
		<rect id="XMLID_1219_" x="-108.6" y="984.2" class="st1" width="4" height="0.7"/>
		<rect id="XMLID_1218_" x="-112.1" y="988.5" class="st1" width="1.3" height="1.2"/>
		<rect id="XMLID_1217_" x="-284.6" y="965" class="st1" width="21" height="4.3"/>
		<rect id="XMLID_1216_" x="-291.6" y="971.5" class="st1" width="7" height="5.8"/>
		<rect id="XMLID_1215_" x="-295.8" y="956.5" class="st1" width="4.3" height="1"/>
		<rect id="XMLID_1214_" x="-284.6" y="927.5" class="st1" width="1.2" height="6.5"/>
		<rect id="XMLID_1213_" x="-297.9" y="932.7" class="st1" width="2.1" height="0.2"/>
		<rect id="XMLID_1212_" x="-283.6" y="986.2" class="st1" width="18" height="7.4"/>
		<rect id="XMLID_1211_" x="-304.1" y="993.7" class="st1" width="7.2" height="2"/>
		<rect id="XMLID_1210_" x="-288.1" y="995.7" class="st1" width="2.3" height="5.1"/>
		<rect id="XMLID_1208_" x="-191.1" y="888.9" class="st1" width="5.5" height="2.1"/>
		<path id="XMLID_1206_" class="st1" d="M-54,881.7h-11.2c-2.4-4.5-5-8.8-7.9-13h11.9C-58.6,872.9-56.2,877.2-54,881.7z"/>
		<rect id="XMLID_1205_" x="-79.4" y="898" class="st1" width="3.7" height="2.4"/>
		<rect id="XMLID_1204_" x="-58.4" y="860.7" class="st1" width="8.3" height="6.3"/>
		<rect id="XMLID_1203_" x="-44.1" y="888.9" class="st1" width="3" height="2.1"/>
		<path id="XMLID_1202_" class="st1" d="M-49.4,964.8c-0.3,4.9-0.9,9.7-1.7,14.5h-10.1l1.8-14.5H-49.4z"/>
		<rect id="XMLID_1199_" x="-67.7" y="958.5" class="st1" width="4.2" height="4.3"/>
		<rect id="XMLID_1197_" x="-42.6" y="970.4" class="st1" width="4.2" height="1.1"/>
		<rect id="XMLID_1196_" x="-73.1" y="983.9" class="st1" width="5.4" height="6"/>
		<path id="XMLID_1194_" class="st1" d="M-318.8,1046.5h-12.4l-9.2-14.9c0-0.1,0-0.1-0.1-0.2h11.5
			C-325.9,1036.7-322.5,1041.7-318.8,1046.5z"/>
		<path id="XMLID_1193_" class="st1" d="M-335.4,1025.6l-0.1-0.2h0C-335.5,1025.5-335.5,1025.5-335.4,1025.6z"/>
		<rect id="XMLID_1149_" x="-306.1" y="1031.4" class="st1" width="10.3" height="7.5"/>
		<rect id="XMLID_1147_" x="-346.6" y="1025.4" class="st1" width="2" height="7.6"/>
		<path id="XMLID_1146_" class="st1" d="M-334.5,911.5c-2,7.8-3.4,15.8-4.1,24h-10c0.6-8.2,1.9-16.2,3.8-24H-334.5z"/>
		<rect id="XMLID_1145_" x="-334.5" y="941.4" class="st1" width="4.8" height="3.7"/>
		<rect id="XMLID_1144_" x="-328.4" y="918.9" class="st1" width="11.3" height="3.4"/>
		<path id="XMLID_1143_" class="st1" d="M-92.2,1070c-4.8,4.3-9.8,8.3-15,12h-18.9c6.4-3.5,12.5-7.5,18.3-12H-92.2z"/>
		<rect id="XMLID_1121_" x="-93.3" y="1076" class="st1" width="4.6" height="3.3"/>
		<rect id="XMLID_1120_" x="-88.7" y="1069.4" class="st1" width="8.2" height="2"/>
		<rect id="XMLID_1113_" x="-124.9" y="1067" class="st1" width="2.8" height="2.3"/>
		<rect id="XMLID_1110_" x="-95.9" y="1091.7" class="st1" width="9.7" height="3.3"/>
		<path id="XMLID_1109_" class="st1" d="M-245,818.5c-10.6,3.8-20.8,8.9-30.3,15.1h-17.1c7.2-5.7,14.9-10.8,22.9-15.1H-245z"/>
		<rect id="XMLID_1099_" x="-255.1" y="846.7" class="st1" width="7.3" height="3.3"/>
		<rect id="XMLID_1068_" x="-295.8" y="810.5" class="st1" width="11.2" height="2.9"/>
		<rect id="XMLID_1061_" x="-307.7" y="825.6" class="st1" width="3.7" height="1.2"/>
	</g>
	<g id="XMLID_1018_">
		<g id="XMLID_367_">
			<path id="XMLID_1330_" class="st2" d="M-332.2,1025.6c2.8,5.2,5.9,10.1,9.2,14.9L-332.2,1025.6z M-195,797h-0.7
				c-26.1,0-51.3,6.4-73.7,18.5h24.5c15.6-5.6,32.2-8.5,49.2-8.5h0.6c49.5,0.2,93.2,25.4,119.1,63.7H-64
				C-91.2,826.7-139.7,797.3-195,797z M-305.2,842.2c-20.6,20.5-34.8,45.8-41.4,73.3h10.3c6.4-24.9,19.4-47.6,38.1-66.2
				c7.1-7.1,14.8-13.3,23-18.7h-17.1C-296.7,834.2-301.1,838.1-305.2,842.2z M-340.9,951.6c0-4.1,0.2-8.1,0.5-12.1h-10
				c-0.3,4-0.5,8-0.5,12.1c0,26.7,6.7,51.9,18.5,73.9h11.5C-333.6,1003.8-340.9,978.5-340.9,951.6z M-125.9,1079
				c-21.3,11.8-45.2,18-70.2,18h-0.6c-46.3-0.2-87.5-22.3-113.9-56.5H-323c27.9,40,74.1,66.3,126.3,66.5h0.7
				c32.3,0,63.1-9.8,89.1-28H-125.9z M-53.1,977.3c-5.1,29.2-19.1,56.1-40.6,77.5c-4.4,4.4-9.1,8.5-14,12.2H-92
				c1.8-1.7,3.7-3.4,5.4-5.2c14.7-14.6,26.1-31.6,33.8-50.1c4.6-11,7.9-22.6,9.8-34.4H-53.1z M-56.8,883.7H-68
				c11,20.5,17.2,43.9,17.2,68.8c0,3.5-0.1,6.9-0.4,10.3h10c0.2-3.4,0.3-6.9,0.4-10.3C-40.8,927.8-46.6,904.4-56.8,883.7z"/>
		</g>
		<g id="XMLID_123_">
			<path id="XMLID_1338_" class="st2" d="M-114.2,1001.8c-1.4,4.5-4.7,7.7-9.6,8.9c-1.4,0.4-2.7,0.4-4.1,0.4c-45.4,0-90.8,0-136.2,0
				c-7.2,0-12.2-3.7-13.9-10.3c-0.3-1.3-0.4-2.6-0.4-3.9v-5.3h18v-7.4h-18c0-5,0-9.9,0-14.9h21V965h-21c0-6.7,0-13.4,0-20
				c0-1.1,0.1-1.5,1.4-1.5c20.7,0.1,41.3,0,62,0c0.2,0,0.4,0,0.8,0c-8.1,19.4,1.1,35.9,10.8,43.2c11.1,8.3,24.5,9.9,36.6,4.5v10.6
				H-114.2z"/>
			<path id="XMLID_1327_" class="st2" d="M-113.3,945.2c-0.1,13.2-0.1,26.5-0.1,39.7h-43.7c4.9-4.4,8.4-10,10.3-16.6
				c2.4-8.4,1.8-16.6-1.8-24.8h4.7c9.6,0,19.2,0,28.8,0C-113.8,943.5-113.3,943.7-113.3,945.2z"/>
			<path id="XMLID_1335_" class="st2" d="M-113.4,923.4h-16.9v-6.8h16.3c-0.4-1.6-1.2-3.2-2.3-4.6c-3-3.8-7-5.3-11.7-5.2
				c-22.7,0-45.3,0-68,0c-22.5,0-45,0-67.4,0c-0.9,0-1.8,0-2.6,0.1c-6.6,0.4-12,5.7-12.3,12.3c0,0.2,0,0.4,0,0.6c0,0.6,0,1.2,0,1.8
				c0,0.4,0,0.8,0,1.2h10.8v1.8h-10.8c0,4.6,0,9.1,0,13.7c0,1.3,0.3,1.6,1.6,1.6c21.1,0,42.1,0,63.2,0c1.1,0,1.7-0.3,2.3-1.2
				c2.9-4.6,6.7-8.3,11.4-11.1c9.2-5.5,18.9-6.8,29.2-3.7c8.3,2.6,14.8,7.7,19.5,14.9c0.4,0.7,0.9,1.1,1.8,1.1c11.6,0,23.2,0,34.7,0
				c1.1,0,1.4-0.3,1.4-1.4C-113.4,933.5-113.4,928.4-113.4,923.4z M-190.9,915.4h-29.5v-2.8h29.5V915.4z"/>
			<path id="XMLID_1323_" class="st2" d="M-159.4,965l0.9-4.5C-158.6,962.1-158.9,963.6-159.4,965z"/>
			<path id="XMLID_1337_" class="st2" d="M-179.6,935.3c-13.4-0.7-24.1,9.1-24.8,22.7c-0.6,11.4,9.6,22.6,21.1,23.2
				c11.4,0.6,20.9-6.1,23.9-16.2h-9.4v-4.5h10.3c0.1-0.5,0.1-0.9,0.1-1.4C-157.7,947.3-167.9,935.9-179.6,935.3z M-176.9,952h-4.5
				v-4.3h4.5V952z"/>
			<path id="XMLID_1341_" class="st2" d="M-168.8,904.8h-55.3c2.7-3.9,5.3-7.7,7.8-11.4c0.4-0.5,0.8-0.5,1.3-0.5c8,0,16.1,0,24.1,0
				v2.1h5.5v-2.1h8.2c0.5,0,1-0.1,1.3,0.5C-173.5,897.2-171.2,900.9-168.8,904.8z"/>
			<path id="XMLID_125_" class="st2" d="M-130.3,904.8c-7.4,0-14.5,0-21.8,0c0.9-2.1,1.8-4.1,2.6-6.2c0.2-0.6,0.6-0.6,1.2-0.6
				c4.8,0,9.7,0,14.5,0c0.7,0,1,0.2,1.2,0.8C-131.8,900.8-131.1,902.7-130.3,904.8z"/>
			<path id="XMLID_124_" class="st2" d="M-257.3,904.8c0-0.2-0.1-0.3,0-0.3c1.1-4.1,1.1-4.1,5.4-4.1c2.3,0,4.5,0.1,6.8,0
				c1.2-0.1,1.6,0.4,1.8,1.5c0.6,3,0.7,3-2.3,3C-249.6,904.8-253.4,904.8-257.3,904.8z"/>
		</g>
		<polygon id="XMLID_1322_" class="st2" points="-153.5,958.5 -154.4,963 -163.8,963 -163.8,958.5 		"/>
		<rect id="XMLID_31_" x="-155.1" y="969.3" class="st2" width="1.7" height="2.3"/>
		<rect id="XMLID_126_" x="-158.9" y="937.5" class="st2" width="1.8" height="3.5"/>
		<path id="XMLID_1344_" class="st2" d="M-156.1,983.9c-1.4,1.2-2.9,2.4-4.5,3.4c-1.7,1.1-3.5,2.1-5.3,2.9v10.6h52.7
			c0.5-1.6,0.7-3.3,0.7-5.1c0-3.9,0-7.8,0-11.7H-156.1z M-118.9,993.5h-3.7v-3.8h3.7V993.5z"/>
		<rect id="XMLID_128_" x="-109.9" y="1012.2" class="st2" width="4.5" height="4.8"/>
		<rect id="XMLID_364_" x="-102.4" y="973.9" class="st2" width="24.5" height="3.4"/>
		<path id="XMLID_1324_" class="st2" d="M-112.4,922.4h-16.9v-6.8h16.3c0.4,1.4,0.5,2.9,0.6,4.4
			C-112.4,920.7-112.4,921.5-112.4,922.4z"/>
		<rect id="XMLID_127_" x="-109.9" y="922.4" class="st2" width="2.3" height="2.7"/>
		<rect id="XMLID_1283_" x="-103.6" y="910.5" class="st2" width="11" height="2"/>
		<rect id="XMLID_1292_" x="-105.4" y="984.2" class="st2" width="4" height="0.7"/>
		<rect id="XMLID_1318_" x="-108.9" y="988.5" class="st2" width="1.3" height="1.2"/>
		<rect id="XMLID_1331_" x="-281.4" y="965" class="st2" width="21" height="4.3"/>
		<rect id="XMLID_1319_" x="-288.4" y="971.5" class="st2" width="7" height="5.8"/>
		<rect id="XMLID_1321_" x="-292.6" y="956.5" class="st2" width="4.3" height="1"/>
		<rect id="XMLID_1325_" x="-281.4" y="927.5" class="st2" width="1.2" height="6.5"/>
		<rect id="XMLID_1326_" x="-294.7" y="932.7" class="st2" width="2.1" height="0.2"/>
		<rect id="XMLID_1339_" x="-280.4" y="986.2" class="st2" width="18" height="7.4"/>
		<rect id="XMLID_1328_" x="-300.9" y="993.7" class="st2" width="7.2" height="2"/>
		<rect id="XMLID_1329_" x="-284.9" y="995.7" class="st2" width="2.3" height="5.1"/>
		<rect id="XMLID_1345_" x="-187.9" y="888.9" class="st2" width="5.5" height="2.1"/>
		<path id="XMLID_1348_" class="st2" d="M-50.8,881.7H-62c-2.4-4.5-5-8.8-7.9-13H-58C-55.4,872.9-53,877.2-50.8,881.7z"/>
		<rect id="XMLID_360_" x="-76.2" y="898" class="st2" width="3.7" height="2.4"/>
		<rect id="XMLID_1332_" x="-55.2" y="860.7" class="st2" width="8.3" height="6.3"/>
		<rect id="XMLID_1333_" x="-40.9" y="888.9" class="st2" width="3" height="2.1"/>
		<path id="XMLID_1355_" class="st2" d="M-46.2,964.8c-0.3,4.9-0.9,9.7-1.7,14.5h-10.1l1.8-14.5H-46.2z"/>
		<rect id="XMLID_1336_" x="-64.5" y="958.5" class="st2" width="4.2" height="4.3"/>
		<rect id="XMLID_1340_" x="-39.4" y="970.4" class="st2" width="4.2" height="1.1"/>
		<rect id="XMLID_1346_" x="-69.9" y="983.9" class="st2" width="5.4" height="6"/>
		<path id="XMLID_209_" class="st2" d="M-315.6,1046.5H-328l-9.2-14.9c0-0.1,0-0.1-0.1-0.2h11.5
			C-322.8,1036.7-319.3,1041.7-315.6,1046.5z"/>
		<path id="XMLID_208_" class="st2" d="M-332.2,1025.6l-0.1-0.2h0C-332.3,1025.5-332.3,1025.5-332.2,1025.6z"/>
		<rect id="XMLID_63_" x="-302.9" y="1031.4" class="st2" width="10.3" height="7.5"/>
		<rect id="XMLID_195_" x="-343.4" y="1025.4" class="st2" width="2" height="7.6"/>
		<path id="XMLID_212_" class="st2" d="M-331.3,911.5c-2,7.8-3.4,15.8-4.1,24h-10c0.6-8.2,1.9-16.2,3.8-24H-331.3z"/>
		<rect id="XMLID_197_" x="-331.3" y="941.4" class="st2" width="4.8" height="3.7"/>
		<rect id="XMLID_198_" x="-325.2" y="918.9" class="st2" width="11.3" height="3.4"/>
		<path id="XMLID_1066_" class="st2" d="M-89,1070c-4.8,4.3-9.8,8.3-15,12h-18.9c6.4-3.5,12.5-7.5,18.3-12H-89z"/>
		<rect id="XMLID_199_" x="-90.1" y="1076" class="st2" width="4.6" height="3.3"/>
		<rect id="XMLID_200_" x="-85.5" y="1069.4" class="st2" width="8.2" height="2"/>
		<rect id="XMLID_201_" x="-121.7" y="1067" class="st2" width="2.8" height="2.3"/>
		<rect id="XMLID_202_" x="-92.7" y="1091.7" class="st2" width="9.7" height="3.3"/>
		<path id="XMLID_1080_" class="st2" d="M-241.8,818.5c-10.6,3.8-20.8,8.9-30.3,15.1h-17.1c7.2-5.7,14.9-10.8,22.9-15.1H-241.8z"/>
		<rect id="XMLID_210_" x="-251.9" y="846.7" class="st2" width="7.3" height="3.3"/>
		<rect id="XMLID_211_" x="-292.6" y="810.5" class="st2" width="11.2" height="2.9"/>
		<rect id="XMLID_1003_" x="-304.5" y="825.6" class="st2" width="3.7" height="1.2"/>
	</g>
</g>
</svg>
