<?xml version="1.0" encoding="utf-8"?>
<!-- Generator: Adobe Illustrator 19.0.0, SVG Export Plug-In . SVG Version: 6.00 Build 0)  -->
<svg version="1.1" id="Layer_1" xmlns="http://www.w3.org/2000/svg" xmlns:xlink="http://www.w3.org/1999/xlink" x="0px" y="0px"
	 viewBox="-399 761 400 400" style="enable-background:new -399 761 400 400;" xml:space="preserve">
<style type="text/css">
	.st0{fill:#E6CDE3;}
	.st1{fill:#F3859F;}
	.st2{fill:#C82127;}
</style>
<g>
	<g id="XMLID_1961_">
		<g id="XMLID_2030_">
			<path id="XMLID_2031_" class="st0" d="M-105.3,851.4h-15.5c32.5,25.3,54,64.2,56,108h10C-56.6,916.7-75.7,878.4-105.3,851.4z
				 M-208.9,810.9h-0.6c-41.4,0-80.3,16-109.6,45.2c-29.4,29.2-45.6,68.1-45.6,109.5c0,15.6,2.3,30.8,6.6,45h10.5
				c-4.6-14.2-7.1-29.3-7.1-45c0.1-38.7,15.2-75.1,42.7-102.4c27.4-27.3,63.8-42.3,102.5-42.3h0.5c21.6,0.1,42.1,4.9,60.4,13.5h20.9
				C-151.2,819.6-179.1,811-208.9,810.9z M-343.5,1021.5h-10.8c6.8,17.5,16.6,33.5,28.9,47.3h13.8
				C-325.2,1055.5-336.1,1039.4-343.5,1021.5z M-64.7,968.6c-0.7,37.8-15.8,73.2-42.7,100c-0.1,0.1-0.2,0.2-0.3,0.3h13.8
				c24.8-27.7,38.5-62.9,39.2-100.3H-64.7z M-209.8,1110.9h-0.5c-30.9-0.1-59.5-10-83-26.7h-16.3c26.9,22.8,61.5,36.5,99.3,36.7h0.6
				c37.1,0,72.3-12.9,100.3-36.7h-16.3C-150.2,1101.6-179.3,1110.9-209.8,1110.9z"/>
		</g>
		<g id="XMLID_2020_">
			<path id="XMLID_2029_" class="st0" d="M-187.8,1009.8h-43.8c-3.3,0-5.9,2.6-5.9,5.9c0,3.3,2.6,5.9,5.9,5.9h43.8
				c3.3,0,5.9-2.6,5.9-5.9C-181.9,1012.4-184.5,1009.8-187.8,1009.8z"/>
			<path id="XMLID_2028_" class="st0" d="M-200.4,1036.4v2h13.1c-2.4,3.5-6.4,5.9-10.9,6.2v3.2c0,3.6-2.9,6.6-6.6,6.6h-9.8
				c-3.6,0-6.6-2.9-6.6-6.6v-3.2c-7.4-0.5-13.3-6.7-13.3-14.2h49.6c0,2.2-0.5,4.2-1.3,6H-200.4z"/>
			<path id="XMLID_2021_" class="st0" d="M-176.7,937.1v-9.2h25.5c-4.2-28.6-28.8-50.5-58.5-50.5c-32.7,0-59.1,26.5-59.1,59.1
				c0,8.5,1.8,16.6,5,23.9h29.3v20.8H-250c4.7,6.5,9.2,13.3,13.2,20.2h54.2c5.8-9.9,12.3-19.4,19.4-28.3
				c7.8-9.9,12.5-22.3,12.7-35.9H-176.7z M-247.6,936c0,3.3-2.6,5.9-5.9,5.9c-3.3,0-5.9-2.6-5.9-5.9c0-27.5,22.4-49.9,49.9-49.9
				c3.3,0,5.9,2.6,5.9,5.9s-2.7,5.9-5.9,5.9C-230.6,897.9-247.6,915-247.6,936z M-217.9,914h18.8v6.6h-18.8V914z M-180,950.4h-10.5
				v-0.8h10.5V950.4z M-180,947.4h-29.7v-1.8h29.7V947.4z"/>
		</g>
		<path id="XMLID_2019_" class="st0" d="M-146.5,934.5v0.6h-26.1v-9.2h25.5C-146.8,928.7-146.5,931.6-146.5,934.5z"/>
		<rect id="XMLID_2018_" x="-143" y="944.6" class="st0" width="2.3" height="3.7"/>
		<rect id="XMLID_2017_" x="-137.7" y="925.9" class="st0" width="10.3" height="4.6"/>
		<rect id="XMLID_2016_" x="-141.8" y="918.2" class="st0" width="9.3" height="2.3"/>
		<rect id="XMLID_2015_" x="-214.9" y="911" class="st0" width="18.8" height="6.6"/>
		<path id="XMLID_2014_" class="st0" d="M-237.5,963.4v20.8H-253c-2-2.8-4-5.5-6.1-8.2c-3-3.8-5.6-8.1-7.6-12.6H-237.5z"/>
		<rect id="XMLID_2013_" x="-273.4" y="957.1" class="st0" width="6.7" height="2.3"/>
		<rect id="XMLID_2012_" x="-282.4" y="968.6" class="st0" width="5.8" height="5.1"/>
		<rect id="XMLID_2011_" x="-268.8" y="973.6" class="st0" width="11" height="3.1"/>
		<rect id="XMLID_2010_" x="-233.5" y="895.7" class="st0" width="3.2" height="2"/>
		<rect id="XMLID_2009_" x="-219.8" y="893.7" class="st0" width="8.5" height="1.2"/>
		<rect id="XMLID_2008_" x="-258.3" y="917.3" class="st0" width="6.2" height="0.9"/>
		<path id="XMLID_2007_" class="st0" d="M-112.3,852.4h-15.5c-8.5-6.7-17.8-12.4-27.7-17h20.9C-126.7,840.4-119.2,846.1-112.3,852.4
			z"/>
		<rect id="XMLID_2006_" x="-133.9" y="859.6" class="st0" width="12.9" height="2"/>
		<rect id="XMLID_2005_" x="-143" y="849.2" class="st0" width="3.7" height="3.2"/>
		<rect id="XMLID_2004_" x="-121" y="832.2" class="st0" width="8.7" height="1.7"/>
		<rect id="XMLID_2003_" x="-104.7" y="845.9" class="st0" width="4.3" height="1.8"/>
		<path id="XMLID_2002_" class="st0" d="M-40.7,966.2c0,0.8,0,1.6,0,2.4h-10c0-0.8,0-1.6,0-2.5V966c0-2.2-0.1-4.4-0.1-6.6h10
			C-40.7,961.6-40.7,963.9-40.7,966.2z"/>
		<rect id="XMLID_2001_" x="-83.7" y="968.6" class="st0" width="5.7" height="5.1"/>
		<rect id="XMLID_2000_" x="-50.8" y="975.2" class="st0" width="14.8" height="1.6"/>
		<path id="XMLID_1999_" class="st0" d="M-325.5,1021.5h-10.8c-1.4-3.6-2.7-7.2-3.8-11h10.5l0,0.1
			C-328.4,1014.4-327,1018-325.5,1021.5z"/>
		<path id="XMLID_1998_" class="st0" d="M-343.5,1021.5c-1.5-3.5-2.8-7.2-4-10.9L-343.5,1021.5z"/>
		<rect id="XMLID_1997_" x="-364.7" y="1018.6" class="st0" width="10.4" height="1.5"/>
		<rect id="XMLID_1996_" x="-371.4" y="1007.4" class="st0" width="2.3" height="2.4"/>
		<path id="XMLID_1995_" class="st0" d="M-296.4,1084.2h-16.3c-5.6-4.7-10.8-9.9-15.7-15.3h13.8
			C-309,1074.5-302.9,1079.6-296.4,1084.2z"/>
		<path id="XMLID_1994_" class="st0" d="M-96.9,1068.9c-2.1,2.3-4.2,4.6-6.4,6.8c-3,3-6.1,5.8-9.3,8.5h-16.3
			c6.4-4.6,12.5-9.7,18.2-15.3H-96.9z"/>
		<rect id="XMLID_1993_" x="-292.3" y="1076.6" class="st0" width="7" height="2"/>
		<rect id="XMLID_1992_" x="-122.3" y="1060.6" class="st0" width="1.6" height="1.7"/>
		<rect id="XMLID_1991_" x="-128.9" y="1076.6" class="st0" width="5.2" height="1"/>
		<rect id="XMLID_1984_" x="-96.9" y="1077.6" class="st0" width="11.5" height="1"/>
		<rect id="XMLID_1983_" x="-325.5" y="894.3" class="st0" width="18.9" height="3.4"/>
		<rect id="XMLID_1982_" x="-371.4" y="911.9" class="st0" width="2.3" height="5.7"/>
		<rect id="XMLID_1981_" x="-382" y="958.3" class="st0" width="36.5" height="3.4"/>
		<rect id="XMLID_1980_" x="-316.1" y="833.9" class="st0" width="49.4" height="1.5"/>
		<path id="XMLID_1979_" class="st0" d="M-182.2,1039.4c-0.3,0.7-0.7,1.4-1.1,2h-13.1v-2H-182.2z"/>
		<rect id="XMLID_1978_" x="-183.5" y="1035.2" class="st0" width="2.3" height="0.7"/>
		<rect id="XMLID_1977_" x="-178.8" y="1032.2" class="st0" width="0.7" height="0.8"/>
		<rect id="XMLID_1976_" x="-184.3" y="1044.8" class="st0" width="2" height="1"/>
	</g>
	<g id="XMLID_2063_">
		<g id="XMLID_2112_">
			<path id="XMLID_2113_" class="st1" d="M-98.6,851.4h-15.5c32.5,25.3,54,64.2,56,108h10C-49.9,916.7-69,878.4-98.6,851.4z
				 M-202.2,810.9h-0.6c-41.4,0-80.3,16-109.6,45.2c-29.4,29.2-45.6,68.1-45.6,109.5c0,15.6,2.3,30.8,6.6,45h10.5
				c-4.6-14.2-7.1-29.3-7.1-45c0.1-38.7,15.2-75.1,42.7-102.4c27.4-27.3,63.8-42.3,102.5-42.3h0.5c21.6,0.1,42.1,4.9,60.4,13.5h20.9
				C-144.5,819.6-172.4,811-202.2,810.9z M-336.8,1021.5h-10.8c6.8,17.5,16.6,33.5,28.9,47.3h13.8
				C-318.4,1055.5-329.4,1039.4-336.8,1021.5z M-58,968.6c-0.7,37.8-15.8,73.2-42.7,100c-0.1,0.1-0.2,0.2-0.3,0.3h13.8
				c24.8-27.7,38.5-62.9,39.2-100.3H-58z M-203.1,1110.9h-0.5c-30.9-0.1-59.5-10-83-26.7H-303c26.9,22.8,61.5,36.5,99.3,36.7h0.6
				c37.1,0,72.3-12.9,100.3-36.7h-16.3C-143.5,1101.6-172.6,1110.9-203.1,1110.9z"/>
		</g>
		<g id="XMLID_2102_">
			<path id="XMLID_2111_" class="st1" d="M-181.1,1009.8h-43.8c-3.3,0-5.9,2.6-5.9,5.9c0,3.3,2.6,5.9,5.9,5.9h43.8
				c3.3,0,5.9-2.6,5.9-5.9C-175.2,1012.4-177.8,1009.8-181.1,1009.8z"/>
			<path id="XMLID_2110_" class="st1" d="M-193.7,1036.4v2h13.1c-2.4,3.5-6.4,5.9-10.9,6.2v3.2c0,3.6-2.9,6.6-6.6,6.6h-9.8
				c-3.6,0-6.6-2.9-6.6-6.6v-3.2c-7.4-0.5-13.3-6.7-13.3-14.2h49.6c0,2.2-0.5,4.2-1.3,6H-193.7z"/>
			<path id="XMLID_2103_" class="st1" d="M-170,937.1v-9.2h25.5c-4.2-28.6-28.8-50.5-58.5-50.5c-32.7,0-59.1,26.5-59.1,59.1
				c0,8.5,1.8,16.6,5,23.9h29.3v20.8h-15.5c4.7,6.5,9.2,13.3,13.2,20.2h54.2c5.8-9.9,12.3-19.4,19.4-28.3
				c7.8-9.9,12.5-22.3,12.7-35.9H-170z M-240.9,936c0,3.3-2.6,5.9-5.9,5.9s-5.9-2.6-5.9-5.9c0-27.5,22.4-49.9,49.9-49.9
				c3.3,0,5.9,2.6,5.9,5.9s-2.7,5.9-5.9,5.9C-223.8,897.9-240.9,915-240.9,936z M-211.2,914h18.8v6.6h-18.8V914z M-173.3,950.4
				h-10.5v-0.8h10.5V950.4z M-173.3,947.4H-203v-1.8h29.7V947.4z"/>
		</g>
		<path id="XMLID_2101_" class="st1" d="M-139.8,934.5v0.6H-166v-9.2h25.5C-140,928.7-139.8,931.6-139.8,934.5z"/>
		<rect id="XMLID_2100_" x="-136.3" y="944.6" class="st1" width="2.3" height="3.7"/>
		<rect id="XMLID_2099_" x="-131" y="925.9" class="st1" width="10.3" height="4.6"/>
		<rect id="XMLID_2098_" x="-135.1" y="918.2" class="st1" width="9.3" height="2.3"/>
		<rect id="XMLID_2097_" x="-208.2" y="911" class="st1" width="18.8" height="6.6"/>
		<path id="XMLID_2096_" class="st1" d="M-230.7,963.4v20.8h-15.5c-2-2.8-4-5.5-6.1-8.2c-3-3.8-5.6-8.1-7.6-12.6H-230.7z"/>
		<rect id="XMLID_2095_" x="-266.7" y="957.1" class="st1" width="6.7" height="2.3"/>
		<rect id="XMLID_2094_" x="-275.7" y="968.6" class="st1" width="5.8" height="5.1"/>
		<rect id="XMLID_2093_" x="-262.1" y="973.6" class="st1" width="11" height="3.1"/>
		<rect id="XMLID_2092_" x="-226.8" y="895.7" class="st1" width="3.2" height="2"/>
		<rect id="XMLID_2091_" x="-213.1" y="893.7" class="st1" width="8.5" height="1.2"/>
		<rect id="XMLID_2090_" x="-251.6" y="917.3" class="st1" width="6.2" height="0.9"/>
		<path id="XMLID_2089_" class="st1" d="M-105.6,852.4h-15.5c-8.5-6.7-17.8-12.4-27.7-17h20.9C-120,840.4-112.5,846.1-105.6,852.4z"
			/>
		<rect id="XMLID_2088_" x="-127.2" y="859.6" class="st1" width="12.9" height="2"/>
		<rect id="XMLID_2087_" x="-136.3" y="849.2" class="st1" width="3.7" height="3.2"/>
		<rect id="XMLID_2086_" x="-114.3" y="832.2" class="st1" width="8.7" height="1.7"/>
		<rect id="XMLID_2085_" x="-98" y="845.9" class="st1" width="4.3" height="1.8"/>
		<path id="XMLID_2084_" class="st1" d="M-34,966.2c0,0.8,0,1.6,0,2.4h-10c0-0.8,0-1.6,0-2.5V966c0-2.2-0.1-4.4-0.1-6.6h10
			C-34,961.6-34,963.9-34,966.2z"/>
		<rect id="XMLID_2083_" x="-77" y="968.6" class="st1" width="5.7" height="5.1"/>
		<rect id="XMLID_2082_" x="-44.1" y="975.2" class="st1" width="14.8" height="1.6"/>
		<path id="XMLID_2081_" class="st1" d="M-318.8,1021.5h-10.8c-1.4-3.6-2.7-7.2-3.8-11h10.5l0,0.1
			C-321.6,1014.4-320.3,1018-318.8,1021.5z"/>
		<path id="XMLID_2080_" class="st1" d="M-336.8,1021.5c-1.5-3.5-2.8-7.2-4-10.9L-336.8,1021.5z"/>
		<rect id="XMLID_2079_" x="-358" y="1018.6" class="st1" width="10.4" height="1.5"/>
		<rect id="XMLID_2078_" x="-364.7" y="1007.4" class="st1" width="2.3" height="2.4"/>
		<path id="XMLID_2077_" class="st1" d="M-289.7,1084.2H-306c-5.6-4.7-10.8-9.9-15.7-15.3h13.8
			C-302.3,1074.5-296.2,1079.6-289.7,1084.2z"/>
		<path id="XMLID_2076_" class="st1" d="M-90.1,1068.9c-2.1,2.3-4.2,4.6-6.4,6.8c-3,3-6.1,5.8-9.3,8.5h-16.3
			c6.4-4.6,12.5-9.7,18.2-15.3H-90.1z"/>
		<rect id="XMLID_2075_" x="-285.6" y="1076.6" class="st1" width="7" height="2"/>
		<rect id="XMLID_2074_" x="-115.6" y="1060.6" class="st1" width="1.6" height="1.7"/>
		<rect id="XMLID_2073_" x="-122.2" y="1076.6" class="st1" width="5.2" height="1"/>
		<rect id="XMLID_2072_" x="-90.1" y="1077.6" class="st1" width="11.5" height="1"/>
		<rect id="XMLID_2071_" x="-318.8" y="894.3" class="st1" width="18.9" height="3.4"/>
		<rect id="XMLID_2070_" x="-364.7" y="911.9" class="st1" width="2.3" height="5.7"/>
		<rect id="XMLID_2069_" x="-375.3" y="958.3" class="st1" width="36.5" height="3.4"/>
		<rect id="XMLID_2068_" x="-309.4" y="833.9" class="st1" width="49.4" height="1.5"/>
		<path id="XMLID_2067_" class="st1" d="M-175.5,1039.4c-0.3,0.7-0.7,1.4-1.1,2h-13.1v-2H-175.5z"/>
		<rect id="XMLID_2066_" x="-176.8" y="1035.2" class="st1" width="2.3" height="0.7"/>
		<rect id="XMLID_2065_" x="-172" y="1032.2" class="st1" width="0.7" height="0.8"/>
		<rect id="XMLID_2064_" x="-177.6" y="1044.8" class="st1" width="2" height="1"/>
	</g>
	<g id="XMLID_1958_">
		<g id="XMLID_365_">
			<path id="XMLID_152_" class="st2" d="M-102,851.4h-15.5c32.5,25.3,54,64.2,56,108h10C-53.3,916.7-72.4,878.4-102,851.4z
				 M-205.6,810.9h-0.6c-41.4,0-80.3,16-109.6,45.2c-29.4,29.2-45.6,68.1-45.6,109.5c0,15.6,2.3,30.8,6.6,45h10.5
				c-4.6-14.2-7.1-29.3-7.1-45c0.1-38.7,15.2-75.1,42.7-102.4c27.4-27.3,63.8-42.3,102.5-42.3h0.5c21.6,0.1,42.1,4.9,60.4,13.5h20.9
				C-148,819.6-175.8,811-205.6,810.9z M-340.2,1021.5H-351c6.8,17.5,16.6,33.5,28.9,47.3h13.8
				C-321.9,1055.5-332.8,1039.4-340.2,1021.5z M-61.4,968.6c-0.7,37.8-15.8,73.2-42.7,100c-0.1,0.1-0.2,0.2-0.3,0.3h13.8
				c24.8-27.7,38.5-62.9,39.2-100.3H-61.4z M-206.6,1110.9h-0.5c-30.9-0.1-59.5-10-83-26.7h-16.3c26.9,22.8,61.5,36.5,99.3,36.7h0.6
				c37.1,0,72.3-12.9,100.3-36.7h-16.3C-147,1101.6-176,1110.9-206.6,1110.9z"/>
		</g>
		<g id="XMLID_146_">
			<path id="XMLID_151_" class="st2" d="M-184.5,1009.8h-43.8c-3.3,0-5.9,2.6-5.9,5.9c0,3.3,2.6,5.9,5.9,5.9h43.8
				c3.3,0,5.9-2.6,5.9-5.9C-178.6,1012.4-181.2,1009.8-184.5,1009.8z"/>
			<path id="XMLID_1963_" class="st2" d="M-197.1,1036.4v2h13.1c-2.4,3.5-6.4,5.9-10.9,6.2v3.2c0,3.6-2.9,6.6-6.6,6.6h-9.8
				c-3.6,0-6.6-2.9-6.6-6.6v-3.2c-7.4-0.5-13.3-6.7-13.3-14.2h49.6c0,2.2-0.5,4.2-1.3,6H-197.1z"/>
			<path id="XMLID_147_" class="st2" d="M-173.4,937.1v-9.2h25.5c-4.2-28.6-28.8-50.5-58.5-50.5c-32.7,0-59.1,26.5-59.1,59.1
				c0,8.5,1.8,16.6,5,23.9h29.3v20.8h-15.5c4.7,6.5,9.2,13.3,13.2,20.2h54.2c5.8-9.9,12.3-19.4,19.4-28.3
				c7.8-9.9,12.5-22.3,12.7-35.9H-173.4z M-244.3,936c0,3.3-2.6,5.9-5.9,5.9s-5.9-2.6-5.9-5.9c0-27.5,22.4-49.9,49.9-49.9
				c3.3,0,5.9,2.6,5.9,5.9s-2.7,5.9-5.9,5.9C-227.3,897.9-244.3,915-244.3,936z M-214.6,914h18.8v6.6h-18.8V914z M-176.7,950.4
				h-10.5v-0.8h10.5V950.4z M-176.7,947.4h-29.7v-1.8h29.7V947.4z"/>
		</g>
		<path id="XMLID_1938_" class="st2" d="M-143.3,934.5v0.6h-26.1v-9.2h25.5C-143.5,928.7-143.3,931.6-143.3,934.5z"/>
		<rect id="XMLID_96_" x="-139.7" y="944.6" class="st2" width="2.3" height="3.7"/>
		<rect id="XMLID_148_" x="-134.4" y="925.9" class="st2" width="10.3" height="4.6"/>
		<rect id="XMLID_149_" x="-138.5" y="918.2" class="st2" width="9.3" height="2.3"/>
		<rect id="XMLID_1946_" x="-211.6" y="911" class="st2" width="18.8" height="6.6"/>
		<path id="XMLID_1942_" class="st2" d="M-234.2,963.4v20.8h-15.5c-2-2.8-4-5.5-6.1-8.2c-3-3.8-5.6-8.1-7.6-12.6H-234.2z"/>
		<rect id="XMLID_1716_" x="-270.1" y="957.1" class="st2" width="6.7" height="2.3"/>
		<rect id="XMLID_1717_" x="-279.1" y="968.6" class="st2" width="5.8" height="5.1"/>
		<rect id="XMLID_1937_" x="-265.5" y="973.6" class="st2" width="11" height="3.1"/>
		<rect id="XMLID_1939_" x="-230.2" y="895.7" class="st2" width="3.2" height="2"/>
		<rect id="XMLID_1940_" x="-216.5" y="893.7" class="st2" width="8.5" height="1.2"/>
		<rect id="XMLID_1941_" x="-255" y="917.3" class="st2" width="6.2" height="0.9"/>
		<path id="XMLID_1949_" class="st2" d="M-109,852.4h-15.5c-8.5-6.7-17.8-12.4-27.7-17h20.9C-123.4,840.4-115.9,846.1-109,852.4z"/>
		<rect id="XMLID_1017_" x="-130.6" y="859.6" class="st2" width="12.9" height="2"/>
		<rect id="XMLID_1022_" x="-139.7" y="849.2" class="st2" width="3.7" height="3.2"/>
		<rect id="XMLID_1943_" x="-117.7" y="832.2" class="st2" width="8.7" height="1.7"/>
		<rect id="XMLID_1944_" x="-101.4" y="845.9" class="st2" width="4.3" height="1.8"/>
		<path id="XMLID_1954_" class="st2" d="M-37.4,966.2c0,0.8,0,1.6,0,2.4h-10c0-0.8,0-1.6,0-2.5V966c0-2.2-0.1-4.4-0.1-6.6h10
			C-37.4,961.6-37.4,963.9-37.4,966.2z"/>
		<rect id="XMLID_1945_" x="-80.4" y="968.6" class="st2" width="5.7" height="5.1"/>
		<rect id="XMLID_1947_" x="-47.5" y="975.2" class="st2" width="14.8" height="1.6"/>
		<path id="XMLID_1962_" class="st2" d="M-322.2,1021.5H-333c-1.4-3.6-2.7-7.2-3.8-11h10.5l0,0.1
			C-325.1,1014.4-323.7,1018-322.2,1021.5z"/>
		<path id="XMLID_1960_" class="st2" d="M-340.2,1021.5c-1.5-3.5-2.8-7.2-4-10.9L-340.2,1021.5z"/>
		<rect id="XMLID_1948_" x="-361.4" y="1018.6" class="st2" width="10.4" height="1.5"/>
		<rect id="XMLID_1950_" x="-368.1" y="1007.4" class="st2" width="2.3" height="2.4"/>
		<path id="XMLID_1967_" class="st2" d="M-298.1,1084.2h-16.3c-5.6-4.7-10.8-9.9-15.7-15.3h13.8
			C-310.7,1074.5-304.6,1079.6-298.1,1084.2z"/>
		<path id="XMLID_1969_" class="st2" d="M-98.6,1068.9c-2.1,2.3-4.2,4.6-6.4,6.8c-3,3-6.1,5.8-9.3,8.5h-16.3
			c6.4-4.6,12.5-9.7,18.2-15.3H-98.6z"/>
		<rect id="XMLID_1951_" x="-289" y="1076.6" class="st2" width="7" height="2"/>
		<rect id="XMLID_1952_" x="-119" y="1060.6" class="st2" width="1.6" height="1.7"/>
		<rect id="XMLID_1953_" x="-125.6" y="1076.6" class="st2" width="5.2" height="1"/>
		<rect id="XMLID_1955_" x="-93.6" y="1077.6" class="st2" width="11.5" height="1"/>
		<rect id="XMLID_1964_" x="-322.2" y="894.3" class="st2" width="18.9" height="3.4"/>
		<rect id="XMLID_1965_" x="-368.1" y="911.9" class="st2" width="2.3" height="5.7"/>
		<rect id="XMLID_1966_" x="-378.7" y="958.3" class="st2" width="36.5" height="3.4"/>
		<rect id="XMLID_1972_" x="-312.8" y="833.9" class="st2" width="49.4" height="1.5"/>
		<path id="XMLID_1975_" class="st2" d="M-178.9,1039.4c-0.3,0.7-0.7,1.4-1.1,2h-13.1v-2H-178.9z"/>
		<rect id="XMLID_150_" x="-180.2" y="1035.2" class="st2" width="2.3" height="0.7"/>
		<rect id="XMLID_1956_" x="-175.5" y="1032.2" class="st2" width="0.7" height="0.8"/>
		<rect id="XMLID_1957_" x="-181" y="1044.8" class="st2" width="2" height="1"/>
	</g>
</g>
</svg>
