<?xml version="1.0" encoding="utf-8"?>
<!-- Generator: Adobe Illustrator 19.0.0, SVG Export Plug-In . SVG Version: 6.00 Build 0)  -->
<svg version="1.1" id="Layer_1" xmlns="http://www.w3.org/2000/svg" xmlns:xlink="http://www.w3.org/1999/xlink" x="0px" y="0px"
	 viewBox="-399 761 400 400" style="enable-background:new -399 761 400 400;" xml:space="preserve">
<style type="text/css">
	.st0{fill:#F3859F;}
	.st1{fill:#E6CDE3;}
	.st2{fill:#C82127;}
</style>
<g>
	<g id="XMLID_2204_">
		<g id="XMLID_2248_">
			<path id="XMLID_2249_" class="st0" d="M-49.5,929.7h-10.4c3.8,12.9,5.8,26.5,5.7,40.6c0,16.4-2.8,32.3-8,47.4h10.5
				c4.9-15.1,7.4-31,7.4-47.4C-44.1,956.3-46,942.6-49.5,929.7z M-341.4,997.9h-10.2c4,21.9,12.7,42.3,24.9,60h12.4
				C-327.6,1040.6-337.1,1020.2-341.4,997.9z M-77,1048.2c-5.6,8.7-12.3,16.9-19.8,24.5c-11.6,11.5-24.8,20.9-39.1,27.8h20.4
				c9.2-5.9,17.8-12.8,25.7-20.7c9.6-9.6,17.8-20.2,24.5-31.6H-77z M-295.2,1078.5h-14.5c28,28.6,66.9,46.3,109.8,46.5h0.6
				c12.3,0,24.5-1.4,36.2-4.2v-10.3c-11.8,3-24.2,4.6-36.7,4.5C-236.4,1114.9-269.8,1101.1-295.2,1078.5z M-310,861.7
				c-24.3,24.8-39.3,56.3-43.2,90.3h10.1c3.9-32,18.3-61.6,41.6-84.7c2-1.9,4-3.8,6-5.6H-310z M-198.4,815
				c-29.2-0.1-57.2,7.8-81.5,22.7h21.4c18.5-8.3,38.7-12.7,59.5-12.7h0.5c59.4,0.2,110.5,36.5,132.6,88H-55
				C-77.7,855.8-133.4,815.2-198.4,815z"/>
		</g>
		<path id="XMLID_2247_" class="st0" d="M-149.3,930.3c0,3.4,0,6.8,0,10.2c0,2.9-1.2,4.1-4.1,4.1c-5.5,0-10.9,0-16.4,0
			c-1.3,0-1.8,0.3-2.1,1.7c-1.1,5.6-3,10.5-5.6,14.7h-8.9v4h6.1c-5.4,6.7-12.8,11.5-22,14.8c-4.5,1.6-9.2,2.5-14,3.1
			c0,0.6,0.5,0.8,0.8,1.1c5.7,6.1,11.2,12.4,16.7,18.7H-212v3.8h16.5c10.1,11.8,20,23.8,29.8,35.8c1,1.2,1.4,2.3,0.7,3.8
			c-0.7,1.5-1.8,2.2-3.5,2.2c-7.1,0-14.2,0-21.2,0c-1.5,0-2.5-0.7-3.4-1.7c-12-14.4-24.2-28.8-36.6-42.9c-4.3-4.9-8.7-9.8-13.2-14.7
			h3.9v-10.3h-10c0.1-3.8,0-7.6,0-11.3c0-2.6,1.4-4,4.1-4c6.5-0.1,12.9,0.3,19.4-0.3c6.3-0.6,12.4-2,17.9-5.5
			c4.4-2.8,7.5-6.6,9.2-11.6c0.4-1.2,0.1-1.3-1-1.3c-15.1,0-30.2,0-45.2,0c-3.3,0-4.4-1.1-4.4-4.4v-2.9h31.7V932H-249v-1.7
			c0-2.9,1.1-4.1,4.1-4.1h45.3c-0.8-1.9-1.9-3.3-3.2-4.6c-4-4-9-5.8-14.3-6.9c-4.2-0.9-8.5-1-12.8-1c-4.8,0-9.6,0-14.4,0
			c-3.4,0-4.6-1.2-4.6-4.5c0-4.3,0.1-8.7,0-13c-0.1-2.1,0.6-3.5,2.5-4.4h94.8c1.8,1,2.4,2.6,2.3,4.7c0,0.2,0,0.4,0,0.6h-26v5h25.9
			c0,1.3,0,2.5,0,3.8c0,3.3-1.1,4.4-4.4,4.4h-24.7c-0.3,0.5,0.1,0.7,0.2,0.9c3,4.1,5,8.7,6.1,13.7c0.3,1.3,0.8,1.5,2,1.5
			c5.6-0.1,11.2,0,16.8,0C-150.4,926.2-149.3,927.4-149.3,930.3z"/>
		<path id="XMLID_2246_" class="st0" d="M-173.4,959c-0.8,1.4-1.8,2.7-2.8,4h-6.1v-4H-173.4z"/>
		<polygon id="XMLID_2245_" class="st0" points="-185.4,1006.5 -202,1006.5 -202,1002.7 -188.7,1002.7 		"/>
		<path id="XMLID_2244_" class="st0" d="M-58.5,932.7h-10.4c-1.7-5.7-3.7-11.3-6-16.7H-64C-61.9,921.4-60,927-58.5,932.7z"/>
		<path id="XMLID_2243_" class="st0" d="M-249,978.7V989h-3.9c-1.5-1.6-3-3.3-4.6-4.9c-1.1-1.2-1.6-2.4-1.6-4.1c0-0.4,0-0.9,0-1.3
			H-249z"/>
		<path id="XMLID_2242_" class="st0" d="M-229.3,932v5.3H-261c0-1.8,0-3.5,0-5.3H-229.3z"/>
		<rect id="XMLID_2241_" x="-262.6" y="944" class="st0" width="3.6" height="2"/>
		<rect id="XMLID_2240_" x="-274" y="921.3" class="st0" width="9.3" height="1.7"/>
		<rect id="XMLID_2239_" x="-269.3" y="932" class="st0" width="3.3" height="5.3"/>
		<rect id="XMLID_2238_" x="-173.4" y="966.7" class="st0" width="3.1" height="4.6"/>
		<rect id="XMLID_2237_" x="-197.6" y="996.3" class="st0" width="7.3" height="1.6"/>
		<rect id="XMLID_2236_" x="-249" y="997.9" class="st0" width="5.4" height="3.4"/>
		<path id="XMLID_2235_" class="st0" d="M-139.5,902h-25.9v-5h26C-139.5,898.7-139.5,900.3-139.5,902z"/>
		<rect id="XMLID_2234_" x="-146.9" y="909" class="st0" width="3.5" height="2.3"/>
		<rect id="XMLID_2233_" x="-145.1" y="890.2" class="st0" width="7" height="1.5"/>
		<rect id="XMLID_2232_" x="-165.4" y="916.7" class="st0" width="4.5" height="4.6"/>
		<rect id="XMLID_2231_" x="-218" y="1029.6" class="st0" width="8" height="6.8"/>
		<rect id="XMLID_2230_" x="-237.3" y="1029.6" class="st0" width="8" height="3.4"/>
		<rect id="XMLID_2229_" x="-186.6" y="1010.5" class="st0" width="2.8" height="1.8"/>
		<path id="XMLID_2228_" class="st0" d="M-47.6,1021.7c-3.4,10.7-8,20.9-13.7,30.6H-73c6.2-9.6,11.2-19.8,14.9-30.6H-47.6z"/>
		<rect id="XMLID_2227_" x="-85.4" y="1032.9" class="st0" width="7.9" height="4"/>
		<rect id="XMLID_2226_" x="-42.6" y="1052.2" class="st0" width="3.7" height="11.4"/>
		<rect id="XMLID_2225_" x="-58.5" y="916" class="st0" width="5.4" height="5.3"/>
		<rect id="XMLID_2224_" x="-40.8" y="902" class="st0" width="1.8" height="0"/>
		<rect id="XMLID_2223_" x="-25.3" y="932" class="st0" width="2" height="0"/>
		<rect id="XMLID_2222_" x="-44.1" y="909" class="st0" width="10.2" height="7"/>
		<path id="XMLID_2221_" class="st0" d="M-262.5,832.7c-13.3,6-25.8,14-37,24H-314c0.5-0.5,1-1,1.4-1.5c8.8-8.7,18.4-16.3,28.7-22.5
			H-262.5z"/>
		<rect id="XMLID_2220_" x="-279.9" y="856.7" class="st0" width="15.2" height="5"/>
		<rect id="XMLID_2219_" x="-262.6" y="844.7" class="st0" width="3.6" height="4"/>
		<rect id="XMLID_2218_" x="-286.6" y="868" class="st0" width="9" height="1.7"/>
		<rect id="XMLID_2217_" x="-321.6" y="843" class="st0" width="5.3" height="3.7"/>
		<path id="XMLID_2216_" class="st0" d="M-344.4,1000.9h-10.2c-1.7-9.2-2.6-18.6-2.5-28.3c0-6,0.4-11.9,1-17.7h10.1
			c-0.7,5.8-1.1,11.7-1.1,17.7C-347.2,982.4-346.2,991.8-344.4,1000.9z"/>
		<rect id="XMLID_2215_" x="-337.1" y="981" class="st0" width="5.5" height="2.8"/>
		<rect id="XMLID_2214_" x="-341.6" y="963" class="st0" width="7.3" height="6"/>
		<rect id="XMLID_2213_" x="-330.3" y="971.2" class="st0" width="9.7" height="1.7"/>
		<rect id="XMLID_2212_" x="-365" y="950.8" class="st0" width="4.2" height="1.2"/>
		<rect id="XMLID_2211_" x="-362.9" y="1005.3" class="st0" width="2.1" height="2.7"/>
		<path id="XMLID_2210_" class="st0" d="M-289.2,1080.5h-14.5c-6.2-6.3-11.9-13.2-17-20.5h12.4
			C-302.6,1067.4-296.2,1074.3-289.2,1080.5z"/>
		<rect id="XMLID_2209_" x="-298.1" y="1058" class="st0" width="6" height="5.7"/>
		<rect id="XMLID_2208_" x="-277.6" y="1073" class="st0" width="16.6" height="5"/>
		<path id="XMLID_2207_" class="st0" d="M-111.5,1104.5c-14.6,9.4-30.7,16.3-47.7,20.3v-10.3c9.4-2.4,18.5-5.7,27.3-10H-111.5z"/>
		<rect id="XMLID_2206_" x="-159.1" y="1100.5" class="st0" width="6.7" height="4"/>
		<rect id="XMLID_2205_" x="-138.1" y="1124.8" class="st0" width="6" height="8.2"/>
	</g>
	<g id="XMLID_1674_">
		<g id="XMLID_2183_">
			<path id="XMLID_2184_" class="st1" d="M-56.2,929.7h-10.4c3.7,12.9,5.7,26.5,5.7,40.6c0,16.4-2.8,32.3-8,47.4h10.5
				c4.9-15.1,7.4-31,7.4-47.4C-50.9,956.3-52.7,942.6-56.2,929.7z M-348.2,997.9h-10.2c4,21.9,12.7,42.3,24.9,60h12.4
				C-334.3,1040.6-343.8,1020.2-348.2,997.9z M-83.8,1048.2c-5.6,8.7-12.3,16.9-19.8,24.5c-11.6,11.5-24.8,20.9-39.1,27.8h20.4
				c9.2-5.9,17.8-12.8,25.7-20.7c9.6-9.6,17.8-20.2,24.5-31.6H-83.8z M-301.9,1078.5h-14.5c28,28.6,66.9,46.3,109.8,46.5h0.6
				c12.3,0,24.5-1.4,36.2-4.2v-10.3c-11.8,3-24.2,4.6-36.7,4.5C-243.1,1114.9-276.5,1101.1-301.9,1078.5z M-316.7,861.7
				C-341,886.5-356,918-359.9,952h10.1c3.9-32,18.3-61.6,41.6-84.7c2-1.9,4-3.8,6-5.6H-316.7z M-205.1,815
				c-29.2-0.1-57.2,7.8-81.5,22.7h21.4c18.5-8.3,38.7-12.7,59.6-12.7h0.5c59.4,0.2,110.5,36.5,132.6,88h10.8
				C-84.4,855.8-140.1,815.2-205.1,815z"/>
		</g>
		<path id="XMLID_2182_" class="st1" d="M-156,930.3c0,3.4,0,6.8,0,10.2c0,2.9-1.2,4.1-4.1,4.1c-5.5,0-10.9,0-16.4,0
			c-1.3,0-1.8,0.3-2.1,1.7c-1.1,5.6-3,10.5-5.6,14.7h-8.9v4h6.1c-5.4,6.7-12.8,11.5-22,14.8c-4.5,1.6-9.2,2.5-14,3.1
			c0,0.6,0.5,0.8,0.8,1.1c5.7,6.1,11.2,12.4,16.7,18.7h-13.2v3.8h16.5c10.1,11.8,20,23.8,29.8,35.8c1,1.2,1.4,2.3,0.7,3.8
			c-0.7,1.5-1.8,2.2-3.5,2.2c-7.1,0-14.2,0-21.2,0c-1.5,0-2.5-0.7-3.4-1.7c-12-14.4-24.2-28.8-36.6-42.9c-4.3-4.9-8.7-9.8-13.2-14.7
			h3.9v-10.3h-10c0.1-3.8,0-7.6,0-11.3c0-2.6,1.4-4,4.1-4c6.5-0.1,12.9,0.3,19.4-0.3c6.3-0.6,12.4-2,17.9-5.5
			c4.4-2.8,7.5-6.6,9.2-11.6c0.4-1.2,0.1-1.3-1-1.3c-15.1,0-30.2,0-45.2,0c-3.3,0-4.4-1.1-4.4-4.4v-2.9h31.7V932h-31.7v-1.7
			c0-2.9,1.1-4.1,4.1-4.1h45.3c-0.8-1.9-1.9-3.3-3.2-4.6c-4-4-9-5.8-14.3-6.9c-4.2-0.9-8.5-1-12.8-1c-4.8,0-9.6,0-14.4,0
			c-3.4,0-4.6-1.2-4.6-4.5c0-4.3,0.1-8.7,0-13c-0.1-2.1,0.6-3.5,2.5-4.4h94.8c1.8,1,2.4,2.6,2.3,4.7c0,0.2,0,0.4,0,0.6h-26v5h25.9
			c0,1.3,0,2.5,0,3.8c0,3.3-1.1,4.4-4.4,4.4h-24.7c-0.3,0.5,0.1,0.7,0.2,0.9c3,4.1,5,8.7,6.1,13.7c0.3,1.3,0.8,1.5,2,1.5
			c5.6-0.1,11.2,0,16.8,0C-157.1,926.2-156,927.4-156,930.3z"/>
		<path id="XMLID_2181_" class="st1" d="M-180.1,959c-0.8,1.4-1.8,2.7-2.8,4h-6.1v-4H-180.1z"/>
		<polygon id="XMLID_2180_" class="st1" points="-192.2,1006.5 -208.7,1006.5 -208.7,1002.7 -195.5,1002.7 		"/>
		<path id="XMLID_2179_" class="st1" d="M-65.2,932.7h-10.4c-1.7-5.7-3.7-11.3-6-16.7h10.8C-68.6,921.4-66.8,927-65.2,932.7z"/>
		<path id="XMLID_2178_" class="st1" d="M-255.7,978.7V989h-3.9c-1.5-1.6-3-3.3-4.6-4.9c-1.1-1.2-1.6-2.4-1.6-4.1c0-0.4,0-0.9,0-1.3
			H-255.7z"/>
		<path id="XMLID_2177_" class="st1" d="M-236,932v5.3h-31.7c0-1.8,0-3.5,0-5.3H-236z"/>
		<rect id="XMLID_2176_" x="-269.4" y="944" class="st1" width="3.6" height="2"/>
		<rect id="XMLID_2175_" x="-280.7" y="921.3" class="st1" width="9.3" height="1.7"/>
		<rect id="XMLID_2174_" x="-276" y="932" class="st1" width="3.3" height="5.3"/>
		<rect id="XMLID_2173_" x="-180.1" y="966.7" class="st1" width="3.1" height="4.6"/>
		<rect id="XMLID_2172_" x="-204.4" y="996.3" class="st1" width="7.3" height="1.6"/>
		<rect id="XMLID_2171_" x="-255.8" y="997.9" class="st1" width="5.4" height="3.4"/>
		<path id="XMLID_2170_" class="st1" d="M-146.2,902h-25.9v-5h26C-146.2,898.7-146.2,900.3-146.2,902z"/>
		<rect id="XMLID_2169_" x="-153.6" y="909" class="st1" width="3.5" height="2.3"/>
		<rect id="XMLID_2168_" x="-151.9" y="890.2" class="st1" width="7" height="1.5"/>
		<rect id="XMLID_2167_" x="-172.1" y="916.7" class="st1" width="4.5" height="4.6"/>
		<rect id="XMLID_2166_" x="-224.7" y="1029.6" class="st1" width="8" height="6.8"/>
		<rect id="XMLID_2165_" x="-244" y="1029.6" class="st1" width="8" height="3.4"/>
		<rect id="XMLID_2163_" x="-193.4" y="1010.5" class="st1" width="2.8" height="1.8"/>
		<path id="XMLID_2161_" class="st1" d="M-54.3,1021.7c-3.4,10.7-8,20.9-13.7,30.6h-11.8c6.2-9.6,11.2-19.8,14.9-30.6H-54.3z"/>
		<rect id="XMLID_2159_" x="-92.1" y="1032.9" class="st1" width="7.9" height="4"/>
		<rect id="XMLID_2158_" x="-49.4" y="1052.2" class="st1" width="3.7" height="11.4"/>
		<rect id="XMLID_2157_" x="-65.2" y="916" class="st1" width="5.4" height="5.3"/>
		<rect id="XMLID_1702_" x="-47.5" y="902" class="st1" width="1.8" height="0"/>
		<rect id="XMLID_1701_" x="-32" y="932" class="st1" width="2" height="0"/>
		<rect id="XMLID_1700_" x="-50.9" y="909" class="st1" width="10.2" height="7"/>
		<path id="XMLID_1699_" class="st1" d="M-269.2,832.7c-13.3,6-25.8,14-37,24h-14.5c0.5-0.5,1-1,1.4-1.5
			c8.8-8.7,18.4-16.3,28.7-22.5H-269.2z"/>
		<rect id="XMLID_1698_" x="-286.6" y="856.7" class="st1" width="15.2" height="5"/>
		<rect id="XMLID_1697_" x="-269.4" y="844.7" class="st1" width="3.6" height="4"/>
		<rect id="XMLID_1696_" x="-293.4" y="868" class="st1" width="9" height="1.7"/>
		<rect id="XMLID_1695_" x="-328.4" y="843" class="st1" width="5.3" height="3.7"/>
		<path id="XMLID_1694_" class="st1" d="M-351.2,1000.9h-10.2c-1.7-9.2-2.6-18.6-2.5-28.3c0-6,0.4-11.9,1-17.7h10.1
			c-0.7,5.8-1.1,11.7-1.1,17.7C-353.9,982.4-353,991.8-351.2,1000.9z"/>
		<rect id="XMLID_1693_" x="-343.9" y="981" class="st1" width="5.5" height="2.8"/>
		<rect id="XMLID_1692_" x="-348.4" y="963" class="st1" width="7.3" height="6"/>
		<rect id="XMLID_1691_" x="-337" y="971.2" class="st1" width="9.7" height="1.7"/>
		<rect id="XMLID_1690_" x="-371.7" y="950.8" class="st1" width="4.2" height="1.2"/>
		<rect id="XMLID_1689_" x="-369.6" y="1005.3" class="st1" width="2.1" height="2.7"/>
		<path id="XMLID_1688_" class="st1" d="M-295.9,1080.5h-14.5c-6.2-6.3-11.9-13.2-17-20.5h12.4
			C-309.4,1067.4-303,1074.3-295.9,1080.5z"/>
		<rect id="XMLID_1687_" x="-304.9" y="1058" class="st1" width="6" height="5.7"/>
		<rect id="XMLID_1685_" x="-284.4" y="1073" class="st1" width="16.6" height="5"/>
		<path id="XMLID_1679_" class="st1" d="M-118.2,1104.5c-14.6,9.4-30.7,16.3-47.7,20.3v-10.3c9.4-2.4,18.5-5.7,27.3-10H-118.2z"/>
		<rect id="XMLID_1676_" x="-165.9" y="1100.5" class="st1" width="6.7" height="4"/>
		<rect id="XMLID_1675_" x="-144.9" y="1124.8" class="st1" width="6" height="8.2"/>
	</g>
	<g id="XMLID_1672_">
		<g id="XMLID_172_">
			<path id="XMLID_1317_" class="st2" d="M-53,929.7h-10.4c3.8,12.9,5.8,26.5,5.7,40.6c0,16.4-2.8,32.3-8,47.4h10.5
				c4.9-15.1,7.4-31,7.4-47.4C-47.7,956.3-49.5,942.6-53,929.7z M-345,997.9h-10.2c4,21.9,12.7,42.3,24.9,60h12.4
				C-331.2,1040.6-340.6,1020.2-345,997.9z M-80.6,1048.2c-5.6,8.7-12.3,16.9-19.8,24.5c-11.6,11.5-24.8,20.9-39.1,27.8h20.4
				c9.2-5.9,17.8-12.8,25.7-20.7c9.6-9.6,17.8-20.2,24.5-31.6H-80.6z M-298.8,1078.5h-14.5c28,28.6,66.9,46.3,109.8,46.5h0.6
				c12.3,0,24.5-1.4,36.2-4.2v-10.3c-11.8,3-24.2,4.6-36.7,4.5C-239.9,1114.9-273.3,1101.1-298.8,1078.5z M-313.5,861.7
				c-24.3,24.8-39.3,56.3-43.2,90.3h10.1c3.9-32,18.3-61.6,41.6-84.7c2-1.9,4-3.8,6-5.6H-313.5z M-202,815
				c-29.2-0.1-57.2,7.8-81.5,22.7h21.4c18.5-8.3,38.7-12.7,59.5-12.7h0.5c59.4,0.2,110.5,36.5,132.6,88h10.8
				C-81.3,855.8-137,815.2-202,815z"/>
		</g>
		<path id="XMLID_1313_" class="st2" d="M-152.8,930.3c0,3.4,0,6.8,0,10.2c0,2.9-1.2,4.1-4.1,4.1c-5.5,0-10.9,0-16.4,0
			c-1.3,0-1.8,0.3-2.1,1.7c-1.1,5.6-3,10.5-5.6,14.7h-8.9v4h6.1c-5.4,6.7-12.8,11.5-22,14.8c-4.5,1.6-9.2,2.5-14,3.1
			c0,0.6,0.5,0.8,0.8,1.1c5.7,6.1,11.2,12.4,16.7,18.7h-13.2v3.8h16.5c10.1,11.8,20,23.8,29.8,35.8c1,1.2,1.4,2.3,0.7,3.8
			c-0.7,1.5-1.8,2.2-3.5,2.2c-7.1,0-14.2,0-21.2,0c-1.5,0-2.5-0.7-3.4-1.7c-12-14.4-24.2-28.8-36.6-42.9c-4.3-4.9-8.7-9.8-13.2-14.7
			h3.9v-10.3h-10c0.1-3.8,0-7.6,0-11.3c0-2.6,1.4-4,4.1-4c6.5-0.1,12.9,0.3,19.4-0.3c6.3-0.6,12.4-2,17.9-5.5
			c4.4-2.8,7.5-6.6,9.2-11.6c0.4-1.2,0.1-1.3-1-1.3c-15.1,0-30.2,0-45.2,0c-3.3,0-4.4-1.1-4.4-4.4v-2.9h31.7V932h-31.7v-1.7
			c0-2.9,1.1-4.1,4.1-4.1h45.3c-0.8-1.9-1.9-3.3-3.2-4.6c-4-4-9-5.8-14.3-6.9c-4.2-0.9-8.5-1-12.8-1c-4.8,0-9.6,0-14.4,0
			c-3.4,0-4.6-1.2-4.6-4.5c0-4.3,0.1-8.7,0-13c-0.1-2.1,0.6-3.5,2.5-4.4h94.8c1.8,1,2.4,2.6,2.3,4.7c0,0.2,0,0.4,0,0.6h-26v5h25.9
			c0,1.3,0,2.5,0,3.8c0,3.3-1.1,4.4-4.4,4.4H-182c-0.3,0.5,0.1,0.7,0.2,0.9c3,4.1,5,8.7,6.1,13.7c0.3,1.3,0.8,1.5,2,1.5
			c5.6-0.1,11.2,0,16.8,0C-154,926.2-152.8,927.4-152.8,930.3z"/>
		<path id="XMLID_2160_" class="st2" d="M-177,959c-0.8,1.4-1.8,2.7-2.8,4h-6.1v-4H-177z"/>
		<polygon id="XMLID_2162_" class="st2" points="-189,1006.5 -205.5,1006.5 -205.5,1002.7 -192.3,1002.7 		"/>
		<path id="XMLID_1365_" class="st2" d="M-62,932.7h-10.4c-1.7-5.7-3.7-11.3-6-16.7h10.8C-65.4,921.4-63.6,927-62,932.7z"/>
		<path id="XMLID_2164_" class="st2" d="M-252.5,978.7V989h-3.9c-1.5-1.6-3-3.3-4.6-4.9c-1.1-1.2-1.6-2.4-1.6-4.1c0-0.4,0-0.9,0-1.3
			H-252.5z"/>
		<path id="XMLID_1308_" class="st2" d="M-232.9,932v5.3h-31.7c0-1.8,0-3.5,0-5.3H-232.9z"/>
		<rect id="XMLID_162_" x="-266.2" y="944" class="st2" width="3.6" height="2"/>
		<rect id="XMLID_170_" x="-277.5" y="921.3" class="st2" width="9.3" height="1.7"/>
		<rect id="XMLID_171_" x="-272.9" y="932" class="st2" width="3.3" height="5.3"/>
		<rect id="XMLID_1043_" x="-177" y="966.7" class="st2" width="3.1" height="4.6"/>
		<rect id="XMLID_1290_" x="-201.2" y="996.3" class="st2" width="7.3" height="1.6"/>
		<rect id="XMLID_1305_" x="-252.6" y="997.9" class="st2" width="5.4" height="3.4"/>
		<path id="XMLID_1314_" class="st2" d="M-143,902h-25.9v-5h26C-143,898.7-143,900.3-143,902z"/>
		<rect id="XMLID_1306_" x="-150.4" y="909" class="st2" width="3.5" height="2.3"/>
		<rect id="XMLID_1307_" x="-148.7" y="890.2" class="st2" width="7" height="1.5"/>
		<rect id="XMLID_1309_" x="-168.9" y="916.7" class="st2" width="4.5" height="4.6"/>
		<rect id="XMLID_1310_" x="-221.5" y="1029.6" class="st2" width="8" height="6.8"/>
		<rect id="XMLID_1311_" x="-240.9" y="1029.6" class="st2" width="8" height="3.4"/>
		<rect id="XMLID_1312_" x="-190.2" y="1010.5" class="st2" width="2.8" height="1.8"/>
		<path id="XMLID_1364_" class="st2" d="M-51.1,1021.7c-3.4,10.7-8,20.9-13.7,30.6h-11.8c6.2-9.6,11.2-19.8,14.9-30.6H-51.1z"/>
		<rect id="XMLID_1282_" x="-88.9" y="1032.9" class="st2" width="7.9" height="4"/>
		<rect id="XMLID_1315_" x="-46.2" y="1052.2" class="st2" width="3.7" height="11.4"/>
		<rect id="XMLID_1316_" x="-62" y="916" class="st2" width="5.4" height="5.3"/>
		<rect id="XMLID_1360_" x="-44.4" y="902" class="st2" width="1.8" height="0"/>
		<rect id="XMLID_1361_" x="-28.9" y="932" class="st2" width="2" height="0"/>
		<rect id="XMLID_1362_" x="-47.7" y="909" class="st2" width="10.2" height="7"/>
		<path id="XMLID_1665_" class="st2" d="M-266.1,832.7c-13.3,6-25.8,14-37,24h-14.5c0.5-0.5,1-1,1.4-1.5
			c8.8-8.7,18.4-16.3,28.7-22.5H-266.1z"/>
		<rect id="XMLID_1363_" x="-283.4" y="856.7" class="st2" width="15.2" height="5"/>
		<rect id="XMLID_1366_" x="-266.2" y="844.7" class="st2" width="3.6" height="4"/>
		<rect id="XMLID_1367_" x="-290.2" y="868" class="st2" width="9" height="1.7"/>
		<rect id="XMLID_1368_" x="-325.2" y="843" class="st2" width="5.3" height="3.7"/>
		<path id="XMLID_1671_" class="st2" d="M-348,1000.9h-10.2c-1.7-9.2-2.6-18.6-2.5-28.3c0-6,0.4-11.9,1-17.7h10.1
			c-0.7,5.8-1.1,11.7-1.1,17.7C-350.7,982.4-349.8,991.8-348,1000.9z"/>
		<rect id="XMLID_1369_" x="-340.7" y="981" class="st2" width="5.5" height="2.8"/>
		<rect id="XMLID_1370_" x="-345.2" y="963" class="st2" width="7.3" height="6"/>
		<rect id="XMLID_1371_" x="-333.9" y="971.2" class="st2" width="9.7" height="1.7"/>
		<rect id="XMLID_1372_" x="-368.5" y="950.8" class="st2" width="4.2" height="1.2"/>
		<rect id="XMLID_1666_" x="-366.4" y="1005.3" class="st2" width="2.1" height="2.7"/>
		<path id="XMLID_1678_" class="st2" d="M-292.8,1080.5h-14.5c-6.2-6.3-11.9-13.2-17-20.5h12.4
			C-306.2,1067.4-299.8,1074.3-292.8,1080.5z"/>
		<rect id="XMLID_1667_" x="-301.7" y="1058" class="st2" width="6" height="5.7"/>
		<rect id="XMLID_1668_" x="-281.2" y="1073" class="st2" width="16.6" height="5"/>
		<path id="XMLID_1682_" class="st2" d="M-115,1104.5c-14.6,9.4-30.7,16.3-47.7,20.3v-10.3c9.4-2.4,18.5-5.7,27.3-10H-115z"/>
		<rect id="XMLID_1669_" x="-162.7" y="1100.5" class="st2" width="6.7" height="4"/>
		<rect id="XMLID_1670_" x="-141.7" y="1124.8" class="st2" width="6" height="8.2"/>
	</g>
</g>
</svg>
