<?xml version="1.0" encoding="utf-8"?>
<!-- Generator: Adobe Illustrator 19.0.0, SVG Export Plug-In . SVG Version: 6.00 Build 0)  -->
<svg version="1.1" id="Layer_1" xmlns="http://www.w3.org/2000/svg" xmlns:xlink="http://www.w3.org/1999/xlink" x="0px" y="0px"
	 viewBox="-399 761 400 400" style="enable-background:new -399 761 400 400;" xml:space="preserve">
<style type="text/css">
	.st0{fill:#E6CDE3;}
	.st1{fill:#F3859F;}
	.st2{fill:#C82127;}
</style>
<g>
	<g id="XMLID_2129_">
		<g id="XMLID_2510_">
			<path id="XMLID_2511_" class="st0" d="M-196.6,815.3h-0.6c-41.4,0-80.3,16-109.6,45.2c-16.6,16.5-29,36.1-36.6,57.5h10.7
				c7.2-18.7,18.4-35.9,33-50.5c27.4-27.3,63.8-42.3,102.5-42.3h0.5c26.9,0.1,52.1,7.6,73.6,20.5h17.9
				C-130.7,826.8-162.4,815.4-196.6,815.3z M-121.3,1093.8c-22.7,14-48.9,21.5-76.2,21.5h-0.5c-31.1-0.1-59.9-10.1-83.5-27h-16.2
				c26.9,23,61.7,36.9,99.7,37h0.6c34.3,0,67-11.1,93.9-31.5H-121.3z M-103.7,1093.8c3.1-2.4,6.1-4.9,9.1-7.5L-103.7,1093.8z
				 M-75.8,874.3h-13c22.7,25.7,36.5,59.4,36.4,96.3c0,16-2.6,31.6-7.6,46.4h10.5c4.7-14.8,7.1-30.4,7.1-46.4
				C-42.3,934.3-54.8,900.8-75.8,874.3z M-71.1,1041.8c-6.4,11.3-14.4,21.8-23.9,31.2c-4.9,4.8-10,9.3-15.3,13.3h15.8
				c2.3-2,4.4-4.1,6.6-6.2c11.5-11.4,21-24.3,28.3-38.3H-71.1z M-342.3,970c0-9.6,1-19.1,2.8-28.4h-10.2c-1.7,9.3-2.6,18.7-2.6,28.3
				c0,38.2,13.8,73.2,36.7,100.3h13.4C-327.1,1044.2-342.4,1008.9-342.3,970z"/>
		</g>
		<path id="XMLID_2447_" class="st0" d="M-218.8,935.5c-0.4-0.8-1.3-1.3-2.2-0.9c0,0-1.9,0.8-4.1,0.8v3.3c2.9,0,5.2-1,5.4-1
			C-218.8,937.3-218.4,936.3-218.8,935.5z M-145.4,934.8c0.6-2.6,0.6-5.1,0.1-7.4h-3.4c0.7,2.3,0.7,4.8-0.1,7.6
			c-0.2,0.7,0.1,1.4,0.6,1.8c0,0,4.4,3.3,3.4,10.3c-0.3,2.5-1.7,4.4-3.8,5.4c-3.1,1.4-7.3,0.9-10.9-1.4c-7.7-4.9-19-5-24.7-0.2
			c-2.8,2.3-6.8,5.3-9.5,4.7c-1.2-0.3-2.3-1.3-3.1-3.1c-0.4-0.8-1.4-1.2-2.2-0.8c-0.8,0.4-1.2,1.4-0.8,2.2c1.3,2.8,3.1,4.4,5.4,4.9
			c0.3,0.1,0.6,0.1,0.9,0.1c3.9,0.3,7.9-2.6,11.5-5.5c4.5-3.8,14.5-3.6,20.8,0.5c4.5,2.8,10,3.5,14.1,1.6c3.2-1.5,5.2-4.3,5.7-8
			C-140.6,940.5-143.8,936.4-145.4,934.8z M-218.8,935.5c-0.4-0.8-1.3-1.3-2.2-0.9c0,0-1.9,0.8-4.1,0.8v3.3c2.9,0,5.2-1,5.4-1
			C-218.8,937.3-218.4,936.3-218.8,935.5z M-145.4,934.8c0.6-2.6,0.6-5.1,0.1-7.4h-3.4c0.7,2.3,0.7,4.8-0.1,7.6
			c-0.2,0.7,0.1,1.4,0.6,1.8c0,0,4.4,3.3,3.4,10.3c-0.3,2.5-1.7,4.4-3.8,5.4c-3.1,1.4-7.3,0.9-10.9-1.4c-7.7-4.9-19-5-24.7-0.2
			c-2.8,2.3-6.8,5.3-9.5,4.7c-1.2-0.3-2.3-1.3-3.1-3.1c-0.4-0.8-1.4-1.2-2.2-0.8c-0.8,0.4-1.2,1.4-0.8,2.2c1.3,2.8,3.1,4.4,5.4,4.9
			c0.3,0.1,0.6,0.1,0.9,0.1c3.9,0.3,7.9-2.6,11.5-5.5c4.5-3.8,14.5-3.6,20.8,0.5c4.5,2.8,10,3.5,14.1,1.6c3.2-1.5,5.2-4.3,5.7-8
			C-140.6,940.5-143.8,936.4-145.4,934.8z M-218.8,935.5c-0.4-0.8-1.3-1.3-2.2-0.9c0,0-1.9,0.8-4.1,0.8v3.3c2.9,0,5.2-1,5.4-1
			C-218.8,937.3-218.4,936.3-218.8,935.5z M-145.4,934.8c0.6-2.6,0.6-5.1,0.1-7.4h-3.4c0.7,2.3,0.7,4.8-0.1,7.6
			c-0.2,0.7,0.1,1.4,0.6,1.8c0,0,4.4,3.3,3.4,10.3c-0.3,2.5-1.7,4.4-3.8,5.4c-3.1,1.4-7.3,0.9-10.9-1.4c-7.7-4.9-19-5-24.7-0.2
			c-2.8,2.3-6.8,5.3-9.5,4.7c-1.2-0.3-2.3-1.3-3.1-3.1c-0.4-0.8-1.4-1.2-2.2-0.8c-0.8,0.4-1.2,1.4-0.8,2.2c1.3,2.8,3.1,4.4,5.4,4.9
			c0.3,0.1,0.6,0.1,0.9,0.1c3.9,0.3,7.9-2.6,11.5-5.5c4.5-3.8,14.5-3.6,20.8,0.5c4.5,2.8,10,3.5,14.1,1.6c3.2-1.5,5.2-4.3,5.7-8
			C-140.6,940.5-143.8,936.4-145.4,934.8z M-218.8,935.5c-0.4-0.8-1.3-1.3-2.2-0.9c0,0-1.9,0.8-4.1,0.8v3.3c2.9,0,5.2-1,5.4-1
			C-218.8,937.3-218.4,936.3-218.8,935.5z M-145.4,934.8c0.6-2.6,0.6-5.1,0.1-7.4h-3.4c0.7,2.3,0.7,4.8-0.1,7.6
			c-0.2,0.7,0.1,1.4,0.6,1.8c0,0,4.4,3.3,3.4,10.3c-0.3,2.5-1.7,4.4-3.8,5.4c-3.1,1.4-7.3,0.9-10.9-1.4c-7.7-4.9-19-5-24.7-0.2
			c-2.8,2.3-6.8,5.3-9.5,4.7c-1.2-0.3-2.3-1.3-3.1-3.1c-0.4-0.8-1.4-1.2-2.2-0.8c-0.8,0.4-1.2,1.4-0.8,2.2c1.3,2.8,3.1,4.4,5.4,4.9
			c0.3,0.1,0.6,0.1,0.9,0.1c3.9,0.3,7.9-2.6,11.5-5.5c4.5-3.8,14.5-3.6,20.8,0.5c4.5,2.8,10,3.5,14.1,1.6c3.2-1.5,5.2-4.3,5.7-8
			C-140.6,940.5-143.8,936.4-145.4,934.8z M-218.8,935.5c-0.4-0.8-1.3-1.3-2.2-0.9c0,0-1.9,0.8-4.1,0.8v3.3c2.9,0,5.2-1,5.4-1
			C-218.8,937.3-218.4,936.3-218.8,935.5z M-145.4,934.8c0.6-2.6,0.6-5.1,0.1-7.4h-3.4c0.7,2.3,0.7,4.8-0.1,7.6
			c-0.2,0.7,0.1,1.4,0.6,1.8c0,0,4.4,3.3,3.4,10.3c-0.3,2.5-1.7,4.4-3.8,5.4c-3.1,1.4-7.3,0.9-10.9-1.4c-7.7-4.9-19-5-24.7-0.2
			c-2.8,2.3-6.8,5.3-9.5,4.7c-1.2-0.3-2.3-1.3-3.1-3.1c-0.4-0.8-1.4-1.2-2.2-0.8c-0.8,0.4-1.2,1.4-0.8,2.2c1.3,2.8,3.1,4.4,5.4,4.9
			c0.3,0.1,0.6,0.1,0.9,0.1c3.9,0.3,7.9-2.6,11.5-5.5c4.5-3.8,14.5-3.6,20.8,0.5c4.5,2.8,10,3.5,14.1,1.6c3.2-1.5,5.2-4.3,5.7-8
			C-140.6,940.5-143.8,936.4-145.4,934.8z M-218.8,935.5c-0.4-0.8-1.3-1.3-2.2-0.9c0,0-1.9,0.8-4.1,0.8v3.3c2.9,0,5.2-1,5.4-1
			C-218.8,937.3-218.4,936.3-218.8,935.5z M-145.4,934.8c0.6-2.6,0.6-5.1,0.1-7.4h-3.4c0.7,2.3,0.7,4.8-0.1,7.6
			c-0.2,0.7,0.1,1.4,0.6,1.8c0,0,4.4,3.3,3.4,10.3c-0.3,2.5-1.7,4.4-3.8,5.4c-3.1,1.4-7.3,0.9-10.9-1.4c-7.7-4.9-19-5-24.7-0.2
			c-2.8,2.3-6.8,5.3-9.5,4.7c-1.2-0.3-2.3-1.3-3.1-3.1c-0.4-0.8-1.4-1.2-2.2-0.8c-0.8,0.4-1.2,1.4-0.8,2.2c1.3,2.8,3.1,4.4,5.4,4.9
			c0.3,0.1,0.6,0.1,0.9,0.1c3.9,0.3,7.9-2.6,11.5-5.5c4.5-3.8,14.5-3.6,20.8,0.5c4.5,2.8,10,3.5,14.1,1.6c3.2-1.5,5.2-4.3,5.7-8
			C-140.6,940.5-143.8,936.4-145.4,934.8z M-218.8,935.5c-0.4-0.8-1.3-1.3-2.2-0.9c0,0-1.9,0.8-4.1,0.8v3.3c2.9,0,5.2-1,5.4-1
			C-218.8,937.3-218.4,936.3-218.8,935.5z M-145.4,934.8c0.6-2.6,0.6-5.1,0.1-7.4h-3.4c0.7,2.3,0.7,4.8-0.1,7.6
			c-0.2,0.7,0.1,1.4,0.6,1.8c0,0,4.4,3.3,3.4,10.3c-0.3,2.5-1.7,4.4-3.8,5.4c-3.1,1.4-7.3,0.9-10.9-1.4c-7.7-4.9-19-5-24.7-0.2
			c-2.8,2.3-6.8,5.3-9.5,4.7c-1.2-0.3-2.3-1.3-3.1-3.1c-0.4-0.8-1.4-1.2-2.2-0.8c-0.8,0.4-1.2,1.4-0.8,2.2c1.3,2.8,3.1,4.4,5.4,4.9
			c0.3,0.1,0.6,0.1,0.9,0.1c3.9,0.3,7.9-2.6,11.5-5.5c4.5-3.8,14.5-3.6,20.8,0.5c4.5,2.8,10,3.5,14.1,1.6c3.2-1.5,5.2-4.3,5.7-8
			C-140.6,940.5-143.8,936.4-145.4,934.8z M-154.5,1015c1.7-5.3,3.5-8.7,3.5-8.7s35.7-31.8,24.4-75.9c-0.3-1-0.6-2.1-0.9-3.1h-8.2
			c2.1,3,4.2,7.8,4.4,14.9c0.4,13.8-7.7,20.6-13.8,21.6c0,0,3.2,14.8-11.5,20.6c0,0-2.1,8.2-13,7.7c-9.4-0.5-18.1-4.4-22-13.1
			c1.9,0.5,4.6,1.2,7.6,1.4c5.4,0.4,11.8-0.4,16-5.5c0-0.1,0.1-0.1,0.1-0.2c2.3-3.8,3-7.1,2-9.9c-1.3-3.5-4.6-4.7-4.8-4.7
			c-0.9-0.3-1.8,0.2-2.1,1.1c-0.3,0.9,0.2,1.8,1,2.1c0,0,2,0.7,2.7,2.7c0.6,1.7,0.1,4.1-1.6,6.9c-6.8,8-21.7,2.4-22.3,2.1
			c0-0.2-0.1-0.4-0.1-0.5c0,0-22.3,1.5-24.2-15.1c0.4-0.3,0.7-0.9,0.6-1.4c0-0.5-0.7-11.7,12-14c0.7-0.1,1.3-0.7,1.4-1.4
			c0-0.1,1-6.8,6.5-7.9c5.8-1.2,9.7,2.2,9.9,2.4c0.6,0.5,1.5,0.6,2.1,0.1c0.5-0.3,11.2-8.1,20.6,3.4c0.6,0.7,1.6,0.8,2.3,0.2
			c0.7-0.6,0.8-1.6,0.2-2.4c-4.4-5.4-9.1-7.2-13.3-7.4c0.2-2.5,1.2-10.1,8.3-11.9c4-1,8.5-0.4,12,1.5v-3.7
			c-3.9-1.7-8.5-2.1-12.7-1.1c-0.2-2.4-1.2-5-2.8-7.1c-1.7-2.3-5-5.3-10.7-6.3c-6.8-1.1-11.7,2.5-14,5.6c-2-1.3-5.8-2.8-12.2-1.2
			c-6.7,1.6-9.5,6.4-10.3,9.8c-4.8-1.7-10-1.1-13.8,1.9c-4.2,3.2-5.4,8.3-3.4,13.6c0.4,1,0.9,1.8,1.4,2.6h5c-1.5-0.7-2.6-2-3.3-3.8
			c-1.5-3.9-0.7-7.5,2.3-9.7c3.1-2.4,8.9-3.4,14,0.3c8.6,6.2,7.7,19,7.7,19.7c-6.8,1.9-9.9,6.1-11.3,9.9c-3.5,0.5-10.6,0.5-17-5.4
			h-24.1c0.1,1,0.3,2,0.5,3c1,5.7,2.5,9.9,2.8,11.7c0.1,0.8,0.1,1.6,0,2.6c-0.1,0.6-0.3,1.3-0.5,2h4.7v10.7h-9.7
			c-2.5,4.4-5.3,8.5-6.6,10.8c-3.1,5.2-1.7,7.1,3.3,9.1s2.8,2.3,3,5.4c0.2,3.1,4.9,3.3,4.9,3.3s-2.9,0.6-2.8,3.5
			c0.1,2.9,4.4,5.1,4.4,5.1c2.9,2.8-1.4,6.5,2.8,13.1s5.9,1.4,23.6,0.7c9.1-0.4,13.3,6.2,15.2,12.6c0.3,1,0.6,2,0.8,3h22.5v5h-21.8
			c0.2,2.3,0.1,3.8,0.1,3.8l0,2.1h62.8c-7.7-9.3-8.2-20.7-6.6-29.9c0.1-0.7,0.2-1.4,0.4-2h-24.2v-6.3H-154.5z M-213.2,918.7
			c-0.3-0.2-0.7-0.5-1-0.7c0.3-1.8,1.6-6.6,7.9-8.1c7.8-1.8,10.3,1.4,10.4,1.5c0.3,0.5,0.9,0.7,1.5,0.7c0.6,0,1.1-0.4,1.4-0.9
			c0.1-0.3,3.8-6.9,11.6-5.6c8.6,1.4,10.9,8.4,10.7,11.4c-5.8,3.2-7.5,10-7.6,14c-3.3,0.5-6,1.8-7.4,2.6c-1.9-1.3-6.1-3.5-11.7-2.3
			c-3.3,0.7-5.4,2.6-6.8,4.7C-204.8,930.9-206.8,923.4-213.2,918.7z M-226.6,984v-4.7h22.3v4.7H-226.6z M-208.3,996.7v7.6h-5.9v-7.6
			H-208.3z M-146.3,901.5c-24-17.8-63-18.3-89.5-3.5c-18.4,10.3-23.9,24.4-24.6,36.7h17.5c-4.8-13.8,4.5-25.8,15.8-27
			c0,0,6.2-17.2,28.1-10c0,0,15.8-11.5,31.2,3.4c0,0,8.4-1.3,16.7,4.4h9.6C-143,904-144.6,902.7-146.3,901.5z M-145.4,934.8
			c0.6-2.6,0.6-5.1,0.1-7.4h-3.4c0.7,2.3,0.7,4.8-0.1,7.6c-0.2,0.7,0.1,1.4,0.6,1.8c0,0,4.4,3.3,3.4,10.3c-0.3,2.5-1.7,4.4-3.8,5.4
			c-3.1,1.4-7.3,0.9-10.9-1.4c-7.7-4.9-19-5-24.7-0.2c-2.8,2.3-6.8,5.3-9.5,4.7c-1.2-0.3-2.3-1.3-3.1-3.1c-0.4-0.8-1.4-1.2-2.2-0.8
			c-0.8,0.4-1.2,1.4-0.8,2.2c1.3,2.8,3.1,4.4,5.4,4.9c0.3,0.1,0.6,0.1,0.9,0.1c3.9,0.3,7.9-2.6,11.5-5.5c4.5-3.8,14.5-3.6,20.8,0.5
			c4.5,2.8,10,3.5,14.1,1.6c3.2-1.5,5.2-4.3,5.7-8C-140.6,940.5-143.8,936.4-145.4,934.8z M-260.2,937.7l-0.1-3c-0.1,1-0.1,2-0.1,3
			c0,2.8,0.2,5.5,0.6,8L-260.2,937.7z M-218.8,935.5c-0.4-0.8-1.3-1.3-2.2-0.9c0,0-1.9,0.8-4.1,0.8v3.3c2.9,0,5.2-1,5.4-1
			C-218.8,937.3-218.4,936.3-218.8,935.5z M-145.4,934.8c0.6-2.6,0.6-5.1,0.1-7.4h-3.4c0.7,2.3,0.7,4.8-0.1,7.6
			c-0.2,0.7,0.1,1.4,0.6,1.8c0,0,4.4,3.3,3.4,10.3c-0.3,2.5-1.7,4.4-3.8,5.4c-3.1,1.4-7.3,0.9-10.9-1.4c-7.7-4.9-19-5-24.7-0.2
			c-2.8,2.3-6.8,5.3-9.5,4.7c-1.2-0.3-2.3-1.3-3.1-3.1c-0.4-0.8-1.4-1.2-2.2-0.8c-0.8,0.4-1.2,1.4-0.8,2.2c1.3,2.8,3.1,4.4,5.4,4.9
			c0.3,0.1,0.6,0.1,0.9,0.1c3.9,0.3,7.9-2.6,11.5-5.5c4.5-3.8,14.5-3.6,20.8,0.5c4.5,2.8,10,3.5,14.1,1.6c3.2-1.5,5.2-4.3,5.7-8
			C-140.6,940.5-143.8,936.4-145.4,934.8z M-218.8,935.5c-0.4-0.8-1.3-1.3-2.2-0.9c0,0-1.9,0.8-4.1,0.8v3.3c2.9,0,5.2-1,5.4-1
			C-218.8,937.3-218.4,936.3-218.8,935.5z M-145.4,934.8c0.6-2.6,0.6-5.1,0.1-7.4h-3.4c0.7,2.3,0.7,4.8-0.1,7.6
			c-0.2,0.7,0.1,1.4,0.6,1.8c0,0,4.4,3.3,3.4,10.3c-0.3,2.5-1.7,4.4-3.8,5.4c-3.1,1.4-7.3,0.9-10.9-1.4c-7.7-4.9-19-5-24.7-0.2
			c-2.8,2.3-6.8,5.3-9.5,4.7c-1.2-0.3-2.3-1.3-3.1-3.1c-0.4-0.8-1.4-1.2-2.2-0.8c-0.8,0.4-1.2,1.4-0.8,2.2c1.3,2.8,3.1,4.4,5.4,4.9
			c0.3,0.1,0.6,0.1,0.9,0.1c3.9,0.3,7.9-2.6,11.5-5.5c4.5-3.8,14.5-3.6,20.8,0.5c4.5,2.8,10,3.5,14.1,1.6c3.2-1.5,5.2-4.3,5.7-8
			C-140.6,940.5-143.8,936.4-145.4,934.8z M-218.8,935.5c-0.4-0.8-1.3-1.3-2.2-0.9c0,0-1.9,0.8-4.1,0.8v3.3c2.9,0,5.2-1,5.4-1
			C-218.8,937.3-218.4,936.3-218.8,935.5z M-145.4,934.8c0.6-2.6,0.6-5.1,0.1-7.4h-3.4c0.7,2.3,0.7,4.8-0.1,7.6
			c-0.2,0.7,0.1,1.4,0.6,1.8c0,0,4.4,3.3,3.4,10.3c-0.3,2.5-1.7,4.4-3.8,5.4c-3.1,1.4-7.3,0.9-10.9-1.4c-7.7-4.9-19-5-24.7-0.2
			c-2.8,2.3-6.8,5.3-9.5,4.7c-1.2-0.3-2.3-1.3-3.1-3.1c-0.4-0.8-1.4-1.2-2.2-0.8c-0.8,0.4-1.2,1.4-0.8,2.2c1.3,2.8,3.1,4.4,5.4,4.9
			c0.3,0.1,0.6,0.1,0.9,0.1c3.9,0.3,7.9-2.6,11.5-5.5c4.5-3.8,14.5-3.6,20.8,0.5c4.5,2.8,10,3.5,14.1,1.6c3.2-1.5,5.2-4.3,5.7-8
			C-140.6,940.5-143.8,936.4-145.4,934.8z M-218.8,935.5c-0.4-0.8-1.3-1.3-2.2-0.9c0,0-1.9,0.8-4.1,0.8v3.3c2.9,0,5.2-1,5.4-1
			C-218.8,937.3-218.4,936.3-218.8,935.5z M-145.4,934.8c0.6-2.6,0.6-5.1,0.1-7.4h-3.4c0.7,2.3,0.7,4.8-0.1,7.6
			c-0.2,0.7,0.1,1.4,0.6,1.8c0,0,4.4,3.3,3.4,10.3c-0.3,2.5-1.7,4.4-3.8,5.4c-3.1,1.4-7.3,0.9-10.9-1.4c-7.7-4.9-19-5-24.7-0.2
			c-2.8,2.3-6.8,5.3-9.5,4.7c-1.2-0.3-2.3-1.3-3.1-3.1c-0.4-0.8-1.4-1.2-2.2-0.8c-0.8,0.4-1.2,1.4-0.8,2.2c1.3,2.8,3.1,4.4,5.4,4.9
			c0.3,0.1,0.6,0.1,0.9,0.1c3.9,0.3,7.9-2.6,11.5-5.5c4.5-3.8,14.5-3.6,20.8,0.5c4.5,2.8,10,3.5,14.1,1.6c3.2-1.5,5.2-4.3,5.7-8
			C-140.6,940.5-143.8,936.4-145.4,934.8z M-218.8,935.5c-0.4-0.8-1.3-1.3-2.2-0.9c0,0-1.9,0.8-4.1,0.8v3.3c2.9,0,5.2-1,5.4-1
			C-218.8,937.3-218.4,936.3-218.8,935.5z"/>
		<path id="XMLID_2446_" class="st0" d="M-141.3,923.3h-3.4c-0.5-1.6-1.4-3.1-2.6-4.4c-0.9-1-2-1.8-3.3-2.4v-3.7
			c2.2,0.9,4.1,2.2,5.7,3.8C-143.2,918.6-141.9,920.8-141.3,923.3z"/>
		<path id="XMLID_2445_" class="st0" d="M-123.5,923.3h-8.2c-2-2.9-3.8-4.1-3.8-4.1s-0.9-6.6-6.9-13.7c-1.5-1.6-3-3-4.6-4h9.6
			C-131.2,907.3-126.3,914.6-123.5,923.3z"/>
		<path id="XMLID_2444_" class="st0" d="M-148.5,1017c-0.6,1.9-1.2,4-1.7,6.3h-24.2v-6.3H-148.5z"/>
		<path id="XMLID_2443_" class="st0" d="M-256.3,963v10.7h-9.7c2.1-3.6,4-7.5,5-10.7H-256.3z"/>
		<path id="XMLID_2442_" class="st0" d="M-193,1039.3v5h-21.8c-0.1-1.4-0.3-3.2-0.7-5H-193z"/>
		<path id="XMLID_2441_" class="st0" d="M-238.8,948.7h-24.1l-0.5-11h17.5c0.5,1.6,1.3,3.2,2.2,4.8
			C-242.1,945-240.5,947.1-238.8,948.7z"/>
		<path id="XMLID_2440_" class="st0" d="M-228,938.3v3.3c-1.3,0-2.7-0.2-4.1-0.8c-1.6-0.7-3-1.8-4-3.2h5c0.1,0.1,0.2,0.1,0.3,0.1
			C-229.9,938.2-228.9,938.3-228,938.3z"/>
		<path id="XMLID_2439_" class="st0" d="M-225,934.7v0.7c-0.9,0-1.9-0.1-2.9-0.5c-0.1,0-0.2-0.1-0.3-0.1H-225z"/>
		<rect id="XMLID_2438_" x="-191" y="918.1" class="st0" width="3" height="2.7"/>
		<rect id="XMLID_2437_" x="-178.3" y="936.6" class="st0" width="4" height="3.6"/>
		<rect id="XMLID_2436_" x="-164.3" y="959" class="st0" width="8.7" height="2"/>
		<rect id="XMLID_2435_" x="-138.3" y="893.3" class="st0" width="11" height="4"/>
		<rect id="XMLID_2434_" x="-120.3" y="923.3" class="st0" width="3" height="4"/>
		<rect id="XMLID_2433_" x="-146" y="1013.7" class="st0" width="2.3" height="0.3"/>
		<rect id="XMLID_2432_" x="-144.8" y="1024.7" class="st0" width="6.5" height="5.3"/>
		<rect id="XMLID_2431_" x="-147" y="1036.3" class="st0" width="3.4" height="5.5"/>
		<rect id="XMLID_2430_" x="-135.3" y="1011" class="st0" width="2.4" height="3"/>
		<rect id="XMLID_2429_" x="-118.8" y="909.7" class="st0" width="5.8" height="3.2"/>
		<rect id="XMLID_2428_" x="-270.3" y="928.7" class="st0" width="4.2" height="4.7"/>
		<rect id="XMLID_2427_" x="-281.7" y="941.7" class="st0" width="11.4" height="4"/>
		<rect id="XMLID_2426_" x="-274" y="967" class="st0" width="5.8" height="1.3"/>
		<rect id="XMLID_2425_" x="-281.7" y="977.7" class="st0" width="7.7" height="6.3"/>
		<rect id="XMLID_2424_" x="-225" y="1041.8" class="st0" width="0" height="4.2"/>
		<rect id="XMLID_2423_" x="-232.1" y="882" class="st0" width="4.1" height="3.3"/>
		<rect id="XMLID_2362_" x="-211.3" y="874.3" class="st0" width="7" height="5"/>
		<rect id="XMLID_2361_" x="-228" y="1043.9" class="st0" width="6.2" height="2.1"/>
		<rect id="XMLID_2360_" x="-223.5" y="1037.5" class="st0" width="1.7" height="1.6"/>
		<rect id="XMLID_2359_" x="-225" y="1054" class="st0" width="7.5" height="1.3"/>
		<rect id="XMLID_2358_" x="-217.5" y="1047.3" class="st0" width="2" height="1.7"/>
		<rect id="XMLID_2357_" x="-204.3" y="961" class="st0" width="3.4" height="3.3"/>
		<path id="XMLID_2356_" class="st0" d="M-71.8,870.3h-13c-9.9-11.2-21.4-20.8-34.3-28.5h17.9C-90.1,850-80.2,859.6-71.8,870.3z"/>
		<path id="XMLID_2355_" class="st0" d="M-328.7,922.1c-2.9,7.6-5.2,15.5-6.8,23.6h-10.2c1.5-8,3.6-15.9,6.4-23.6H-328.7z"/>
		<path id="XMLID_2354_" class="st0" d="M-332.7,918.1l-6.8,23.6C-337.9,933.6-335.6,925.7-332.7,918.1z"/>
		<path id="XMLID_2353_" class="st0" d="M-278.5,1079.3h-16.2c-6.4-5.5-12.4-11.5-17.9-18h13.4C-292.9,1068-286,1074-278.5,1079.3z"
			/>
		<path id="XMLID_2352_" class="st0" d="M-54.4,1020c-2.7,8.6-6.1,16.9-10.3,24.8h-11.4c4.5-7.9,8.2-16.2,11.2-24.8H-54.4z"/>
		<path id="XMLID_2351_" class="st0" d="M-84.6,1086.3l-9.1,7.5h-17.7c3.8-2.3,7.4-4.8,11-7.5H-84.6z"/>
		<rect id="XMLID_2350_" x="-327.3" y="943.2" class="st0" width="5.6" height="2.5"/>
		<rect id="XMLID_2280_" x="-359.8" y="901.5" class="st0" width="4.5" height="8.2"/>
		<rect id="XMLID_2279_" x="-321.7" y="909.7" class="st0" width="5.8" height="2.7"/>
		<rect id="XMLID_2278_" x="-94.6" y="836.8" class="st0" width="10" height="5"/>
		<rect id="XMLID_2277_" x="-127.3" y="864.3" class="st0" width="7" height="2.4"/>
		<rect id="XMLID_2276_" x="-54.4" y="870.3" class="st0" width="4.1" height="6.5"/>
		<rect id="XMLID_2275_" x="-50.3" y="1023.3" class="st0" width="8" height="4"/>
		<rect id="XMLID_2274_" x="-91.8" y="1032.4" class="st0" width="3.1" height="3.9"/>
		<rect id="XMLID_2273_" x="-91.8" y="1099.8" class="st0" width="3.1" height="4"/>
		<rect id="XMLID_2272_" x="-71.8" y="1090.1" class="st0" width="3.4" height="0"/>
		<rect id="XMLID_2271_" x="-321.7" y="1081.3" class="st0" width="9" height="2"/>
		<rect id="XMLID_2270_" x="-332.7" y="1066.8" class="st0" width="4" height="3.5"/>
		<rect id="XMLID_2269_" x="-290.8" y="1053.2" class="st0" width="4.5" height="4.1"/>
		<rect id="XMLID_2268_" x="-312.7" y="1099.8" class="st0" width="4.3" height="0"/>
		<rect id="XMLID_2151_" x="-343.4" y="1050.6" class="st0" width="3.8" height="5.7"/>
		<rect id="XMLID_2130_" x="-315.8" y="1090.1" class="st0" width="7.5" height="9.8"/>
	</g>
	<g id="XMLID_2531_">
		<g id="XMLID_2616_">
			<path id="XMLID_2617_" class="st1" d="M-191.8,815.3h-0.6c-41.4,0-80.3,16-109.6,45.2c-16.6,16.5-29,36.1-36.6,57.5h10.7
				c7.2-18.7,18.4-35.9,33-50.5c27.4-27.3,63.8-42.3,102.5-42.3h0.5c26.9,0.1,52.1,7.6,73.6,20.5h17.9
				C-125.9,826.8-157.6,815.4-191.8,815.3z M-116.5,1093.8c-22.7,14-48.9,21.5-76.2,21.5h-0.5c-31.1-0.1-59.9-10.1-83.5-27H-293
				c26.9,23,61.7,36.9,99.7,37h0.6c34.3,0,67-11.1,93.9-31.5H-116.5z M-98.9,1093.8c3.1-2.4,6.1-4.9,9.1-7.5L-98.9,1093.8z
				 M-71,874.3h-13c22.7,25.7,36.5,59.4,36.4,96.3c0,16-2.6,31.6-7.6,46.4h10.5c4.7-14.8,7.1-30.4,7.1-46.4
				C-37.5,934.3-50,900.8-71,874.3z M-66.3,1041.8c-6.4,11.3-14.4,21.8-23.9,31.2c-4.9,4.8-10,9.3-15.3,13.3h15.8
				c2.3-2,4.4-4.1,6.6-6.2c11.5-11.4,21-24.3,28.3-38.3H-66.3z M-337.6,970c0-9.6,1-19.1,2.8-28.4h-10.2c-1.7,9.3-2.6,18.7-2.6,28.3
				c0,38.2,13.8,73.2,36.7,100.3h13.4C-322.3,1044.2-337.6,1008.9-337.6,970z"/>
		</g>
		<path id="XMLID_2584_" class="st1" d="M-214,935.5c-0.4-0.8-1.3-1.3-2.2-0.9c0,0-1.9,0.8-4.1,0.8v3.3c2.9,0,5.2-1,5.4-1
			C-214,937.3-213.6,936.3-214,935.5z M-140.7,934.8c0.6-2.6,0.6-5.1,0.1-7.4h-3.4c0.7,2.3,0.7,4.8-0.1,7.6
			c-0.2,0.7,0.1,1.4,0.6,1.8c0,0,4.4,3.3,3.4,10.3c-0.3,2.5-1.7,4.4-3.8,5.4c-3.1,1.4-7.3,0.9-10.9-1.4c-7.7-4.9-19-5-24.7-0.2
			c-2.8,2.3-6.8,5.3-9.5,4.7c-1.2-0.3-2.3-1.3-3.1-3.1c-0.4-0.8-1.4-1.2-2.2-0.8c-0.8,0.4-1.2,1.4-0.8,2.2c1.3,2.8,3.1,4.4,5.4,4.9
			c0.3,0.1,0.6,0.1,0.9,0.1c3.9,0.3,7.9-2.6,11.5-5.5c4.5-3.8,14.5-3.6,20.8,0.5c4.5,2.8,10,3.5,14.1,1.6c3.2-1.5,5.2-4.3,5.7-8
			C-135.8,940.5-139,936.4-140.7,934.8z M-214,935.5c-0.4-0.8-1.3-1.3-2.2-0.9c0,0-1.9,0.8-4.1,0.8v3.3c2.9,0,5.2-1,5.4-1
			C-214,937.3-213.6,936.3-214,935.5z M-140.7,934.8c0.6-2.6,0.6-5.1,0.1-7.4h-3.4c0.7,2.3,0.7,4.8-0.1,7.6
			c-0.2,0.7,0.1,1.4,0.6,1.8c0,0,4.4,3.3,3.4,10.3c-0.3,2.5-1.7,4.4-3.8,5.4c-3.1,1.4-7.3,0.9-10.9-1.4c-7.7-4.9-19-5-24.7-0.2
			c-2.8,2.3-6.8,5.3-9.5,4.7c-1.2-0.3-2.3-1.3-3.1-3.1c-0.4-0.8-1.4-1.2-2.2-0.8c-0.8,0.4-1.2,1.4-0.8,2.2c1.3,2.8,3.1,4.4,5.4,4.9
			c0.3,0.1,0.6,0.1,0.9,0.1c3.9,0.3,7.9-2.6,11.5-5.5c4.5-3.8,14.5-3.6,20.8,0.5c4.5,2.8,10,3.5,14.1,1.6c3.2-1.5,5.2-4.3,5.7-8
			C-135.8,940.5-139,936.4-140.7,934.8z M-214,935.5c-0.4-0.8-1.3-1.3-2.2-0.9c0,0-1.9,0.8-4.1,0.8v3.3c2.9,0,5.2-1,5.4-1
			C-214,937.3-213.6,936.3-214,935.5z M-140.7,934.8c0.6-2.6,0.6-5.1,0.1-7.4h-3.4c0.7,2.3,0.7,4.8-0.1,7.6
			c-0.2,0.7,0.1,1.4,0.6,1.8c0,0,4.4,3.3,3.4,10.3c-0.3,2.5-1.7,4.4-3.8,5.4c-3.1,1.4-7.3,0.9-10.9-1.4c-7.7-4.9-19-5-24.7-0.2
			c-2.8,2.3-6.8,5.3-9.5,4.7c-1.2-0.3-2.3-1.3-3.1-3.1c-0.4-0.8-1.4-1.2-2.2-0.8c-0.8,0.4-1.2,1.4-0.8,2.2c1.3,2.8,3.1,4.4,5.4,4.9
			c0.3,0.1,0.6,0.1,0.9,0.1c3.9,0.3,7.9-2.6,11.5-5.5c4.5-3.8,14.5-3.6,20.8,0.5c4.5,2.8,10,3.5,14.1,1.6c3.2-1.5,5.2-4.3,5.7-8
			C-135.8,940.5-139,936.4-140.7,934.8z M-214,935.5c-0.4-0.8-1.3-1.3-2.2-0.9c0,0-1.9,0.8-4.1,0.8v3.3c2.9,0,5.2-1,5.4-1
			C-214,937.3-213.6,936.3-214,935.5z M-140.7,934.8c0.6-2.6,0.6-5.1,0.1-7.4h-3.4c0.7,2.3,0.7,4.8-0.1,7.6
			c-0.2,0.7,0.1,1.4,0.6,1.8c0,0,4.4,3.3,3.4,10.3c-0.3,2.5-1.7,4.4-3.8,5.4c-3.1,1.4-7.3,0.9-10.9-1.4c-7.7-4.9-19-5-24.7-0.2
			c-2.8,2.3-6.8,5.3-9.5,4.7c-1.2-0.3-2.3-1.3-3.1-3.1c-0.4-0.8-1.4-1.2-2.2-0.8c-0.8,0.4-1.2,1.4-0.8,2.2c1.3,2.8,3.1,4.4,5.4,4.9
			c0.3,0.1,0.6,0.1,0.9,0.1c3.9,0.3,7.9-2.6,11.5-5.5c4.5-3.8,14.5-3.6,20.8,0.5c4.5,2.8,10,3.5,14.1,1.6c3.2-1.5,5.2-4.3,5.7-8
			C-135.8,940.5-139,936.4-140.7,934.8z M-214,935.5c-0.4-0.8-1.3-1.3-2.2-0.9c0,0-1.9,0.8-4.1,0.8v3.3c2.9,0,5.2-1,5.4-1
			C-214,937.3-213.6,936.3-214,935.5z M-140.7,934.8c0.6-2.6,0.6-5.1,0.1-7.4h-3.4c0.7,2.3,0.7,4.8-0.1,7.6
			c-0.2,0.7,0.1,1.4,0.6,1.8c0,0,4.4,3.3,3.4,10.3c-0.3,2.5-1.7,4.4-3.8,5.4c-3.1,1.4-7.3,0.9-10.9-1.4c-7.7-4.9-19-5-24.7-0.2
			c-2.8,2.3-6.8,5.3-9.5,4.7c-1.2-0.3-2.3-1.3-3.1-3.1c-0.4-0.8-1.4-1.2-2.2-0.8c-0.8,0.4-1.2,1.4-0.8,2.2c1.3,2.8,3.1,4.4,5.4,4.9
			c0.3,0.1,0.6,0.1,0.9,0.1c3.9,0.3,7.9-2.6,11.5-5.5c4.5-3.8,14.5-3.6,20.8,0.5c4.5,2.8,10,3.5,14.1,1.6c3.2-1.5,5.2-4.3,5.7-8
			C-135.8,940.5-139,936.4-140.7,934.8z M-214,935.5c-0.4-0.8-1.3-1.3-2.2-0.9c0,0-1.9,0.8-4.1,0.8v3.3c2.9,0,5.2-1,5.4-1
			C-214,937.3-213.6,936.3-214,935.5z M-140.7,934.8c0.6-2.6,0.6-5.1,0.1-7.4h-3.4c0.7,2.3,0.7,4.8-0.1,7.6
			c-0.2,0.7,0.1,1.4,0.6,1.8c0,0,4.4,3.3,3.4,10.3c-0.3,2.5-1.7,4.4-3.8,5.4c-3.1,1.4-7.3,0.9-10.9-1.4c-7.7-4.9-19-5-24.7-0.2
			c-2.8,2.3-6.8,5.3-9.5,4.7c-1.2-0.3-2.3-1.3-3.1-3.1c-0.4-0.8-1.4-1.2-2.2-0.8c-0.8,0.4-1.2,1.4-0.8,2.2c1.3,2.8,3.1,4.4,5.4,4.9
			c0.3,0.1,0.6,0.1,0.9,0.1c3.9,0.3,7.9-2.6,11.5-5.5c4.5-3.8,14.5-3.6,20.8,0.5c4.5,2.8,10,3.5,14.1,1.6c3.2-1.5,5.2-4.3,5.7-8
			C-135.8,940.5-139,936.4-140.7,934.8z M-214,935.5c-0.4-0.8-1.3-1.3-2.2-0.9c0,0-1.9,0.8-4.1,0.8v3.3c2.9,0,5.2-1,5.4-1
			C-214,937.3-213.6,936.3-214,935.5z M-140.7,934.8c0.6-2.6,0.6-5.1,0.1-7.4h-3.4c0.7,2.3,0.7,4.8-0.1,7.6
			c-0.2,0.7,0.1,1.4,0.6,1.8c0,0,4.4,3.3,3.4,10.3c-0.3,2.5-1.7,4.4-3.8,5.4c-3.1,1.4-7.3,0.9-10.9-1.4c-7.7-4.9-19-5-24.7-0.2
			c-2.8,2.3-6.8,5.3-9.5,4.7c-1.2-0.3-2.3-1.3-3.1-3.1c-0.4-0.8-1.4-1.2-2.2-0.8c-0.8,0.4-1.2,1.4-0.8,2.2c1.3,2.8,3.1,4.4,5.4,4.9
			c0.3,0.1,0.6,0.1,0.9,0.1c3.9,0.3,7.9-2.6,11.5-5.5c4.5-3.8,14.5-3.6,20.8,0.5c4.5,2.8,10,3.5,14.1,1.6c3.2-1.5,5.2-4.3,5.7-8
			C-135.8,940.5-139,936.4-140.7,934.8z M-149.7,1015c1.7-5.3,3.5-8.7,3.5-8.7s35.7-31.8,24.4-75.9c-0.3-1-0.6-2.1-0.9-3.1h-8.2
			c2.1,3,4.2,7.8,4.4,14.9c0.4,13.8-7.7,20.6-13.8,21.6c0,0,3.2,14.8-11.5,20.6c0,0-2.1,8.2-13,7.7c-9.4-0.5-18.1-4.4-22-13.1
			c1.9,0.5,4.6,1.2,7.6,1.4c5.4,0.4,11.8-0.4,16-5.5c0-0.1,0.1-0.1,0.1-0.2c2.3-3.8,3-7.1,2-9.9c-1.3-3.5-4.6-4.7-4.8-4.7
			c-0.9-0.3-1.8,0.2-2.1,1.1c-0.3,0.9,0.2,1.8,1,2.1c0,0,2,0.7,2.7,2.7c0.6,1.7,0.1,4.1-1.6,6.9c-6.8,8-21.7,2.4-22.3,2.1
			c0-0.2-0.1-0.4-0.1-0.5c0,0-22.3,1.5-24.2-15.1c0.4-0.3,0.7-0.9,0.6-1.4c0-0.5-0.7-11.7,12-14c0.7-0.1,1.3-0.7,1.4-1.4
			c0-0.1,1-6.8,6.5-7.9c5.8-1.2,9.7,2.2,9.9,2.4c0.6,0.5,1.5,0.6,2.1,0.1c0.5-0.3,11.2-8.1,20.6,3.4c0.6,0.7,1.6,0.8,2.3,0.2
			c0.7-0.6,0.8-1.6,0.2-2.4c-4.4-5.4-9.1-7.2-13.3-7.4c0.2-2.5,1.2-10.1,8.3-11.9c4-1,8.5-0.4,12,1.5v-3.7
			c-3.9-1.7-8.5-2.1-12.7-1.1c-0.2-2.4-1.2-5-2.8-7.1c-1.7-2.3-5-5.3-10.7-6.3c-6.8-1.1-11.7,2.5-14,5.6c-2-1.3-5.8-2.8-12.2-1.2
			c-6.7,1.6-9.5,6.4-10.3,9.8c-4.8-1.7-10-1.1-13.8,1.9c-4.2,3.2-5.4,8.3-3.4,13.6c0.4,1,0.9,1.8,1.4,2.6h5c-1.5-0.7-2.6-2-3.3-3.8
			c-1.5-3.9-0.7-7.5,2.3-9.7c3.1-2.4,8.9-3.4,14,0.3c8.6,6.2,7.7,19,7.7,19.7c-6.8,1.9-9.9,6.1-11.3,9.9c-3.5,0.5-10.6,0.5-17-5.4
			h-24.1c0.1,1,0.3,2,0.5,3c1,5.7,2.5,9.9,2.8,11.7c0.1,0.8,0.1,1.6,0,2.6c-0.1,0.6-0.3,1.3-0.5,2h4.7v10.7h-9.7
			c-2.5,4.4-5.3,8.5-6.6,10.8c-3.1,5.2-1.7,7.1,3.3,9.1c4.9,2.1,2.8,2.3,3,5.4c0.2,3.1,4.9,3.3,4.9,3.3s-2.9,0.6-2.8,3.5
			c0.1,2.9,4.4,5.1,4.4,5.1c2.9,2.8-1.4,6.5,2.8,13.1s5.9,1.4,23.6,0.7c9.1-0.4,13.3,6.2,15.2,12.6c0.3,1,0.6,2,0.8,3h22.5v5h-21.8
			c0.2,2.3,0.1,3.8,0.1,3.8l0,2.1h62.8c-7.7-9.3-8.2-20.7-6.6-29.9c0.1-0.7,0.2-1.4,0.4-2h-24.2v-6.3H-149.7z M-208.4,918.7
			c-0.3-0.2-0.7-0.5-1-0.7c0.3-1.8,1.6-6.6,7.9-8.1c7.8-1.8,10.3,1.4,10.4,1.5c0.3,0.5,0.9,0.7,1.5,0.7c0.6,0,1.1-0.4,1.4-0.9
			c0.1-0.3,3.8-6.9,11.6-5.6c8.6,1.4,10.9,8.4,10.7,11.4c-5.8,3.2-7.5,10-7.6,14c-3.3,0.5-6,1.8-7.4,2.6c-1.9-1.3-6.1-3.5-11.7-2.3
			c-3.3,0.7-5.4,2.6-6.8,4.7C-200,930.9-202,923.4-208.4,918.7z M-221.8,984v-4.7h22.3v4.7H-221.8z M-203.6,996.7v7.6h-5.9v-7.6
			H-203.6z M-141.5,901.5c-24-17.8-63-18.3-89.5-3.5c-18.4,10.3-23.9,24.4-24.6,36.7h17.5c-4.8-13.8,4.5-25.8,15.8-27
			c0,0,6.2-17.2,28.1-10c0,0,15.8-11.5,31.2,3.4c0,0,8.4-1.3,16.7,4.4h9.6C-138.2,904-139.8,902.7-141.5,901.5z M-140.7,934.8
			c0.6-2.6,0.6-5.1,0.1-7.4h-3.4c0.7,2.3,0.7,4.8-0.1,7.6c-0.2,0.7,0.1,1.4,0.6,1.8c0,0,4.4,3.3,3.4,10.3c-0.3,2.5-1.7,4.4-3.8,5.4
			c-3.1,1.4-7.3,0.9-10.9-1.4c-7.7-4.9-19-5-24.7-0.2c-2.8,2.3-6.8,5.3-9.5,4.7c-1.2-0.3-2.3-1.3-3.1-3.1c-0.4-0.8-1.4-1.2-2.2-0.8
			c-0.8,0.4-1.2,1.4-0.8,2.2c1.3,2.8,3.1,4.4,5.4,4.9c0.3,0.1,0.6,0.1,0.9,0.1c3.9,0.3,7.9-2.6,11.5-5.5c4.5-3.8,14.5-3.6,20.8,0.5
			c4.5,2.8,10,3.5,14.1,1.6c3.2-1.5,5.2-4.3,5.7-8C-135.8,940.5-139,936.4-140.7,934.8z M-255.4,937.7l-0.1-3c-0.1,1-0.1,2-0.1,3
			c0,2.8,0.2,5.5,0.6,8L-255.4,937.7z M-214,935.5c-0.4-0.8-1.3-1.3-2.2-0.9c0,0-1.9,0.8-4.1,0.8v3.3c2.9,0,5.2-1,5.4-1
			C-214,937.3-213.6,936.3-214,935.5z M-140.7,934.8c0.6-2.6,0.6-5.1,0.1-7.4h-3.4c0.7,2.3,0.7,4.8-0.1,7.6
			c-0.2,0.7,0.1,1.4,0.6,1.8c0,0,4.4,3.3,3.4,10.3c-0.3,2.5-1.7,4.4-3.8,5.4c-3.1,1.4-7.3,0.9-10.9-1.4c-7.7-4.9-19-5-24.7-0.2
			c-2.8,2.3-6.8,5.3-9.5,4.7c-1.2-0.3-2.3-1.3-3.1-3.1c-0.4-0.8-1.4-1.2-2.2-0.8c-0.8,0.4-1.2,1.4-0.8,2.2c1.3,2.8,3.1,4.4,5.4,4.9
			c0.3,0.1,0.6,0.1,0.9,0.1c3.9,0.3,7.9-2.6,11.5-5.5c4.5-3.8,14.5-3.6,20.8,0.5c4.5,2.8,10,3.5,14.1,1.6c3.2-1.5,5.2-4.3,5.7-8
			C-135.8,940.5-139,936.4-140.7,934.8z M-214,935.5c-0.4-0.8-1.3-1.3-2.2-0.9c0,0-1.9,0.8-4.1,0.8v3.3c2.9,0,5.2-1,5.4-1
			C-214,937.3-213.6,936.3-214,935.5z M-140.7,934.8c0.6-2.6,0.6-5.1,0.1-7.4h-3.4c0.7,2.3,0.7,4.8-0.1,7.6
			c-0.2,0.7,0.1,1.4,0.6,1.8c0,0,4.4,3.3,3.4,10.3c-0.3,2.5-1.7,4.4-3.8,5.4c-3.1,1.4-7.3,0.9-10.9-1.4c-7.7-4.9-19-5-24.7-0.2
			c-2.8,2.3-6.8,5.3-9.5,4.7c-1.2-0.3-2.3-1.3-3.1-3.1c-0.4-0.8-1.4-1.2-2.2-0.8c-0.8,0.4-1.2,1.4-0.8,2.2c1.3,2.8,3.1,4.4,5.4,4.9
			c0.3,0.1,0.6,0.1,0.9,0.1c3.9,0.3,7.9-2.6,11.5-5.5c4.5-3.8,14.5-3.6,20.8,0.5c4.5,2.8,10,3.5,14.1,1.6c3.2-1.5,5.2-4.3,5.7-8
			C-135.8,940.5-139,936.4-140.7,934.8z M-214,935.5c-0.4-0.8-1.3-1.3-2.2-0.9c0,0-1.9,0.8-4.1,0.8v3.3c2.9,0,5.2-1,5.4-1
			C-214,937.3-213.6,936.3-214,935.5z M-140.7,934.8c0.6-2.6,0.6-5.1,0.1-7.4h-3.4c0.7,2.3,0.7,4.8-0.1,7.6
			c-0.2,0.7,0.1,1.4,0.6,1.8c0,0,4.4,3.3,3.4,10.3c-0.3,2.5-1.7,4.4-3.8,5.4c-3.1,1.4-7.3,0.9-10.9-1.4c-7.7-4.9-19-5-24.7-0.2
			c-2.8,2.3-6.8,5.3-9.5,4.7c-1.2-0.3-2.3-1.3-3.1-3.1c-0.4-0.8-1.4-1.2-2.2-0.8c-0.8,0.4-1.2,1.4-0.8,2.2c1.3,2.8,3.1,4.4,5.4,4.9
			c0.3,0.1,0.6,0.1,0.9,0.1c3.9,0.3,7.9-2.6,11.5-5.5c4.5-3.8,14.5-3.6,20.8,0.5c4.5,2.8,10,3.5,14.1,1.6c3.2-1.5,5.2-4.3,5.7-8
			C-135.8,940.5-139,936.4-140.7,934.8z M-214,935.5c-0.4-0.8-1.3-1.3-2.2-0.9c0,0-1.9,0.8-4.1,0.8v3.3c2.9,0,5.2-1,5.4-1
			C-214,937.3-213.6,936.3-214,935.5z M-140.7,934.8c0.6-2.6,0.6-5.1,0.1-7.4h-3.4c0.7,2.3,0.7,4.8-0.1,7.6
			c-0.2,0.7,0.1,1.4,0.6,1.8c0,0,4.4,3.3,3.4,10.3c-0.3,2.5-1.7,4.4-3.8,5.4c-3.1,1.4-7.3,0.9-10.9-1.4c-7.7-4.9-19-5-24.7-0.2
			c-2.8,2.3-6.8,5.3-9.5,4.7c-1.2-0.3-2.3-1.3-3.1-3.1c-0.4-0.8-1.4-1.2-2.2-0.8c-0.8,0.4-1.2,1.4-0.8,2.2c1.3,2.8,3.1,4.4,5.4,4.9
			c0.3,0.1,0.6,0.1,0.9,0.1c3.9,0.3,7.9-2.6,11.5-5.5c4.5-3.8,14.5-3.6,20.8,0.5c4.5,2.8,10,3.5,14.1,1.6c3.2-1.5,5.2-4.3,5.7-8
			C-135.8,940.5-139,936.4-140.7,934.8z M-214,935.5c-0.4-0.8-1.3-1.3-2.2-0.9c0,0-1.9,0.8-4.1,0.8v3.3c2.9,0,5.2-1,5.4-1
			C-214,937.3-213.6,936.3-214,935.5z"/>
		<path id="XMLID_2583_" class="st1" d="M-136.6,923.3h-3.4c-0.5-1.6-1.4-3.1-2.6-4.4c-0.9-1-2-1.8-3.3-2.4v-3.7
			c2.2,0.9,4.1,2.2,5.7,3.8C-138.4,918.6-137.1,920.8-136.6,923.3z"/>
		<path id="XMLID_2582_" class="st1" d="M-118.7,923.3h-8.2c-2-2.9-3.8-4.1-3.8-4.1s-0.9-6.6-6.9-13.7c-1.5-1.6-3-3-4.6-4h9.6
			C-126.4,907.3-121.5,914.6-118.7,923.3z"/>
		<path id="XMLID_2581_" class="st1" d="M-143.7,1017c-0.6,1.9-1.2,4-1.7,6.3h-24.2v-6.3H-143.7z"/>
		<path id="XMLID_2580_" class="st1" d="M-251.6,963v10.7h-9.7c2.1-3.6,4-7.5,5-10.7H-251.6z"/>
		<path id="XMLID_2579_" class="st1" d="M-188.2,1039.3v5h-21.8c-0.1-1.4-0.3-3.2-0.7-5H-188.2z"/>
		<path id="XMLID_2578_" class="st1" d="M-234,948.7h-24.1l-0.5-11h17.5c0.5,1.6,1.3,3.2,2.2,4.8C-237.4,945-235.7,947.1-234,948.7z
			"/>
		<path id="XMLID_2577_" class="st1" d="M-223.2,938.3v3.3c-1.3,0-2.7-0.2-4.1-0.8c-1.6-0.7-3-1.8-4-3.2h5c0.1,0.1,0.2,0.1,0.3,0.1
			C-225.1,938.2-224.2,938.3-223.2,938.3z"/>
		<path id="XMLID_2576_" class="st1" d="M-220.2,934.7v0.7c-0.9,0-1.9-0.1-2.9-0.5c-0.1,0-0.2-0.1-0.3-0.1H-220.2z"/>
		<rect id="XMLID_2575_" x="-186.2" y="918.1" class="st1" width="3" height="2.7"/>
		<rect id="XMLID_2574_" x="-173.6" y="936.6" class="st1" width="4" height="3.6"/>
		<rect id="XMLID_2573_" x="-159.6" y="959" class="st1" width="8.7" height="2"/>
		<rect id="XMLID_2572_" x="-133.6" y="893.3" class="st1" width="11" height="4"/>
		<rect id="XMLID_2571_" x="-115.6" y="923.3" class="st1" width="3" height="4"/>
		<rect id="XMLID_2570_" x="-141.2" y="1013.7" class="st1" width="2.3" height="0.3"/>
		<rect id="XMLID_2569_" x="-140" y="1024.7" class="st1" width="6.5" height="5.3"/>
		<rect id="XMLID_2568_" x="-142.3" y="1036.3" class="st1" width="3.4" height="5.5"/>
		<rect id="XMLID_2567_" x="-130.5" y="1011" class="st1" width="2.4" height="3"/>
		<rect id="XMLID_2566_" x="-114.1" y="909.7" class="st1" width="5.8" height="3.2"/>
		<rect id="XMLID_2565_" x="-265.5" y="928.7" class="st1" width="4.2" height="4.7"/>
		<rect id="XMLID_2564_" x="-276.9" y="941.7" class="st1" width="11.4" height="4"/>
		<rect id="XMLID_2563_" x="-269.2" y="967" class="st1" width="5.8" height="1.3"/>
		<rect id="XMLID_2562_" x="-276.9" y="977.7" class="st1" width="7.7" height="6.3"/>
		<rect id="XMLID_2561_" x="-220.2" y="1041.8" class="st1" width="0" height="4.2"/>
		<rect id="XMLID_2560_" x="-227.3" y="882" class="st1" width="4.1" height="3.3"/>
		<rect id="XMLID_2559_" x="-206.5" y="874.3" class="st1" width="7" height="5"/>
		<rect id="XMLID_2558_" x="-223.2" y="1043.9" class="st1" width="6.2" height="2.1"/>
		<rect id="XMLID_2557_" x="-218.7" y="1037.5" class="st1" width="1.7" height="1.6"/>
		<rect id="XMLID_2556_" x="-220.2" y="1054" class="st1" width="7.5" height="1.3"/>
		<rect id="XMLID_2555_" x="-212.7" y="1047.3" class="st1" width="2" height="1.7"/>
		<rect id="XMLID_2554_" x="-199.5" y="961" class="st1" width="3.4" height="3.3"/>
		<path id="XMLID_2553_" class="st1" d="M-67,870.3h-13c-9.9-11.2-21.4-20.8-34.3-28.5h17.9C-85.3,850-75.4,859.6-67,870.3z"/>
		<path id="XMLID_2552_" class="st1" d="M-323.9,922.1c-2.9,7.6-5.2,15.5-6.8,23.6h-10.2c1.5-8,3.6-15.9,6.4-23.6H-323.9z"/>
		<path id="XMLID_2551_" class="st1" d="M-327.9,918.1l-6.8,23.6C-333.1,933.6-330.8,925.7-327.9,918.1z"/>
		<path id="XMLID_2550_" class="st1" d="M-273.8,1079.3H-290c-6.4-5.5-12.4-11.5-17.9-18h13.4C-288.1,1068-281.2,1074-273.8,1079.3z
			"/>
		<path id="XMLID_2549_" class="st1" d="M-49.7,1020c-2.7,8.6-6.1,16.9-10.3,24.8h-11.4c4.5-7.9,8.2-16.2,11.2-24.8H-49.7z"/>
		<path id="XMLID_2548_" class="st1" d="M-79.8,1086.3l-9.1,7.5h-17.7c3.8-2.3,7.4-4.8,11-7.5H-79.8z"/>
		<rect id="XMLID_2547_" x="-322.5" y="943.2" class="st1" width="5.6" height="2.5"/>
		<rect id="XMLID_2546_" x="-355.1" y="901.5" class="st1" width="4.5" height="8.2"/>
		<rect id="XMLID_2545_" x="-316.9" y="909.7" class="st1" width="5.8" height="2.7"/>
		<rect id="XMLID_2544_" x="-89.8" y="836.8" class="st1" width="10" height="5"/>
		<rect id="XMLID_2543_" x="-122.6" y="864.3" class="st1" width="7" height="2.4"/>
		<rect id="XMLID_2542_" x="-49.7" y="870.3" class="st1" width="4.1" height="6.5"/>
		<rect id="XMLID_2541_" x="-45.6" y="1023.3" class="st1" width="8" height="4"/>
		<rect id="XMLID_2540_" x="-87.1" y="1032.4" class="st1" width="3.1" height="3.9"/>
		<rect id="XMLID_2539_" x="-87.1" y="1099.8" class="st1" width="3.1" height="4"/>
		<rect id="XMLID_2538_" x="-67" y="1090.1" class="st1" width="3.4" height="0"/>
		<rect id="XMLID_2537_" x="-316.9" y="1081.3" class="st1" width="9" height="2"/>
		<rect id="XMLID_2536_" x="-327.9" y="1066.8" class="st1" width="4" height="3.5"/>
		<rect id="XMLID_2535_" x="-286.1" y="1053.2" class="st1" width="4.5" height="4.1"/>
		<rect id="XMLID_2534_" x="-307.9" y="1099.8" class="st1" width="4.3" height="0"/>
		<rect id="XMLID_2533_" x="-338.6" y="1050.6" class="st1" width="3.8" height="5.7"/>
		<rect id="XMLID_2532_" x="-311.1" y="1090.1" class="st1" width="7.5" height="9.8"/>
	</g>
	<g id="XMLID_2127_">
		<g id="XMLID_2293_">
			<path id="XMLID_2461_" class="st2" d="M-194.4,815.3h-0.6c-41.4,0-80.3,16-109.6,45.2c-16.6,16.5-29,36.1-36.6,57.5h10.7
				c7.2-18.7,18.4-35.9,33-50.5c27.4-27.3,63.8-42.3,102.5-42.3h0.5c26.9,0.1,52.1,7.6,73.6,20.5h17.9
				C-128.4,826.8-160.1,815.4-194.4,815.3z M-119.1,1093.8c-22.7,14-48.9,21.5-76.2,21.5h-0.5c-31.1-0.1-59.9-10.1-83.5-27h-16.2
				c26.9,23,61.7,36.9,99.7,37h0.6c34.3,0,67-11.1,93.9-31.5H-119.1z M-101.4,1093.8c3.1-2.4,6.1-4.9,9.1-7.5L-101.4,1093.8z
				 M-73.5,874.3h-13c22.7,25.7,36.5,59.4,36.4,96.3c0,16-2.6,31.6-7.6,46.4h10.5c4.7-14.8,7.1-30.4,7.1-46.4
				C-40,934.3-52.5,900.8-73.5,874.3z M-68.9,1041.8c-6.4,11.3-14.4,21.8-23.9,31.2c-4.9,4.8-10,9.3-15.3,13.3h15.8
				c2.3-2,4.4-4.1,6.6-6.2c11.5-11.4,21-24.3,28.3-38.3H-68.9z M-340.1,970c0-9.6,1-19.1,2.8-28.4h-10.2c-1.7,9.3-2.6,18.7-2.6,28.3
				c0,38.2,13.8,73.2,36.7,100.3h13.4C-324.9,1044.2-340.1,1008.9-340.1,970z"/>
		</g>
		<path id="XMLID_2289_" class="st2" d="M-216.5,935.5c-0.4-0.8-1.3-1.3-2.2-0.9c0,0-1.9,0.8-4.1,0.8v3.3c2.9,0,5.2-1,5.4-1
			C-216.6,937.3-216.2,936.3-216.5,935.5z M-143.2,934.8c0.6-2.6,0.6-5.1,0.1-7.4h-3.4c0.7,2.3,0.7,4.8-0.1,7.6
			c-0.2,0.7,0.1,1.4,0.6,1.8c0,0,4.4,3.3,3.4,10.3c-0.3,2.5-1.7,4.4-3.8,5.4c-3.1,1.4-7.3,0.9-10.9-1.4c-7.7-4.9-19-5-24.7-0.2
			c-2.8,2.3-6.8,5.3-9.5,4.7c-1.2-0.3-2.3-1.3-3.1-3.1c-0.4-0.8-1.4-1.2-2.2-0.8c-0.8,0.4-1.2,1.4-0.8,2.2c1.3,2.8,3.1,4.4,5.4,4.9
			c0.3,0.1,0.6,0.1,0.9,0.1c3.9,0.3,7.9-2.6,11.5-5.5c4.5-3.8,14.5-3.6,20.8,0.5c4.5,2.8,10,3.5,14.1,1.6c3.2-1.5,5.2-4.3,5.7-8
			C-138.3,940.5-141.6,936.4-143.2,934.8z M-216.5,935.5c-0.4-0.8-1.3-1.3-2.2-0.9c0,0-1.9,0.8-4.1,0.8v3.3c2.9,0,5.2-1,5.4-1
			C-216.6,937.3-216.2,936.3-216.5,935.5z M-143.2,934.8c0.6-2.6,0.6-5.1,0.1-7.4h-3.4c0.7,2.3,0.7,4.8-0.1,7.6
			c-0.2,0.7,0.1,1.4,0.6,1.8c0,0,4.4,3.3,3.4,10.3c-0.3,2.5-1.7,4.4-3.8,5.4c-3.1,1.4-7.3,0.9-10.9-1.4c-7.7-4.9-19-5-24.7-0.2
			c-2.8,2.3-6.8,5.3-9.5,4.7c-1.2-0.3-2.3-1.3-3.1-3.1c-0.4-0.8-1.4-1.2-2.2-0.8c-0.8,0.4-1.2,1.4-0.8,2.2c1.3,2.8,3.1,4.4,5.4,4.9
			c0.3,0.1,0.6,0.1,0.9,0.1c3.9,0.3,7.9-2.6,11.5-5.5c4.5-3.8,14.5-3.6,20.8,0.5c4.5,2.8,10,3.5,14.1,1.6c3.2-1.5,5.2-4.3,5.7-8
			C-138.3,940.5-141.6,936.4-143.2,934.8z M-216.5,935.5c-0.4-0.8-1.3-1.3-2.2-0.9c0,0-1.9,0.8-4.1,0.8v3.3c2.9,0,5.2-1,5.4-1
			C-216.6,937.3-216.2,936.3-216.5,935.5z M-143.2,934.8c0.6-2.6,0.6-5.1,0.1-7.4h-3.4c0.7,2.3,0.7,4.8-0.1,7.6
			c-0.2,0.7,0.1,1.4,0.6,1.8c0,0,4.4,3.3,3.4,10.3c-0.3,2.5-1.7,4.4-3.8,5.4c-3.1,1.4-7.3,0.9-10.9-1.4c-7.7-4.9-19-5-24.7-0.2
			c-2.8,2.3-6.8,5.3-9.5,4.7c-1.2-0.3-2.3-1.3-3.1-3.1c-0.4-0.8-1.4-1.2-2.2-0.8c-0.8,0.4-1.2,1.4-0.8,2.2c1.3,2.8,3.1,4.4,5.4,4.9
			c0.3,0.1,0.6,0.1,0.9,0.1c3.9,0.3,7.9-2.6,11.5-5.5c4.5-3.8,14.5-3.6,20.8,0.5c4.5,2.8,10,3.5,14.1,1.6c3.2-1.5,5.2-4.3,5.7-8
			C-138.3,940.5-141.6,936.4-143.2,934.8z M-216.5,935.5c-0.4-0.8-1.3-1.3-2.2-0.9c0,0-1.9,0.8-4.1,0.8v3.3c2.9,0,5.2-1,5.4-1
			C-216.6,937.3-216.2,936.3-216.5,935.5z M-143.2,934.8c0.6-2.6,0.6-5.1,0.1-7.4h-3.4c0.7,2.3,0.7,4.8-0.1,7.6
			c-0.2,0.7,0.1,1.4,0.6,1.8c0,0,4.4,3.3,3.4,10.3c-0.3,2.5-1.7,4.4-3.8,5.4c-3.1,1.4-7.3,0.9-10.9-1.4c-7.7-4.9-19-5-24.7-0.2
			c-2.8,2.3-6.8,5.3-9.5,4.7c-1.2-0.3-2.3-1.3-3.1-3.1c-0.4-0.8-1.4-1.2-2.2-0.8c-0.8,0.4-1.2,1.4-0.8,2.2c1.3,2.8,3.1,4.4,5.4,4.9
			c0.3,0.1,0.6,0.1,0.9,0.1c3.9,0.3,7.9-2.6,11.5-5.5c4.5-3.8,14.5-3.6,20.8,0.5c4.5,2.8,10,3.5,14.1,1.6c3.2-1.5,5.2-4.3,5.7-8
			C-138.3,940.5-141.6,936.4-143.2,934.8z M-216.5,935.5c-0.4-0.8-1.3-1.3-2.2-0.9c0,0-1.9,0.8-4.1,0.8v3.3c2.9,0,5.2-1,5.4-1
			C-216.6,937.3-216.2,936.3-216.5,935.5z M-143.2,934.8c0.6-2.6,0.6-5.1,0.1-7.4h-3.4c0.7,2.3,0.7,4.8-0.1,7.6
			c-0.2,0.7,0.1,1.4,0.6,1.8c0,0,4.4,3.3,3.4,10.3c-0.3,2.5-1.7,4.4-3.8,5.4c-3.1,1.4-7.3,0.9-10.9-1.4c-7.7-4.9-19-5-24.7-0.2
			c-2.8,2.3-6.8,5.3-9.5,4.7c-1.2-0.3-2.3-1.3-3.1-3.1c-0.4-0.8-1.4-1.2-2.2-0.8c-0.8,0.4-1.2,1.4-0.8,2.2c1.3,2.8,3.1,4.4,5.4,4.9
			c0.3,0.1,0.6,0.1,0.9,0.1c3.9,0.3,7.9-2.6,11.5-5.5c4.5-3.8,14.5-3.6,20.8,0.5c4.5,2.8,10,3.5,14.1,1.6c3.2-1.5,5.2-4.3,5.7-8
			C-138.3,940.5-141.6,936.4-143.2,934.8z M-216.5,935.5c-0.4-0.8-1.3-1.3-2.2-0.9c0,0-1.9,0.8-4.1,0.8v3.3c2.9,0,5.2-1,5.4-1
			C-216.6,937.3-216.2,936.3-216.5,935.5z M-143.2,934.8c0.6-2.6,0.6-5.1,0.1-7.4h-3.4c0.7,2.3,0.7,4.8-0.1,7.6
			c-0.2,0.7,0.1,1.4,0.6,1.8c0,0,4.4,3.3,3.4,10.3c-0.3,2.5-1.7,4.4-3.8,5.4c-3.1,1.4-7.3,0.9-10.9-1.4c-7.7-4.9-19-5-24.7-0.2
			c-2.8,2.3-6.8,5.3-9.5,4.7c-1.2-0.3-2.3-1.3-3.1-3.1c-0.4-0.8-1.4-1.2-2.2-0.8c-0.8,0.4-1.2,1.4-0.8,2.2c1.3,2.8,3.1,4.4,5.4,4.9
			c0.3,0.1,0.6,0.1,0.9,0.1c3.9,0.3,7.9-2.6,11.5-5.5c4.5-3.8,14.5-3.6,20.8,0.5c4.5,2.8,10,3.5,14.1,1.6c3.2-1.5,5.2-4.3,5.7-8
			C-138.3,940.5-141.6,936.4-143.2,934.8z M-216.5,935.5c-0.4-0.8-1.3-1.3-2.2-0.9c0,0-1.9,0.8-4.1,0.8v3.3c2.9,0,5.2-1,5.4-1
			C-216.6,937.3-216.2,936.3-216.5,935.5z M-143.2,934.8c0.6-2.6,0.6-5.1,0.1-7.4h-3.4c0.7,2.3,0.7,4.8-0.1,7.6
			c-0.2,0.7,0.1,1.4,0.6,1.8c0,0,4.4,3.3,3.4,10.3c-0.3,2.5-1.7,4.4-3.8,5.4c-3.1,1.4-7.3,0.9-10.9-1.4c-7.7-4.9-19-5-24.7-0.2
			c-2.8,2.3-6.8,5.3-9.5,4.7c-1.2-0.3-2.3-1.3-3.1-3.1c-0.4-0.8-1.4-1.2-2.2-0.8c-0.8,0.4-1.2,1.4-0.8,2.2c1.3,2.8,3.1,4.4,5.4,4.9
			c0.3,0.1,0.6,0.1,0.9,0.1c3.9,0.3,7.9-2.6,11.5-5.5c4.5-3.8,14.5-3.6,20.8,0.5c4.5,2.8,10,3.5,14.1,1.6c3.2-1.5,5.2-4.3,5.7-8
			C-138.3,940.5-141.6,936.4-143.2,934.8z M-152.2,1015c1.7-5.3,3.5-8.7,3.5-8.7s35.7-31.8,24.4-75.9c-0.3-1-0.6-2.1-0.9-3.1h-8.2
			c2.1,3,4.2,7.8,4.4,14.9c0.4,13.8-7.7,20.6-13.8,21.6c0,0,3.2,14.8-11.5,20.6c0,0-2.1,8.2-13,7.7c-9.4-0.5-18.1-4.4-22-13.1
			c1.9,0.5,4.6,1.2,7.6,1.4c5.4,0.4,11.8-0.4,16-5.5c0-0.1,0.1-0.1,0.1-0.2c2.3-3.8,3-7.1,2-9.9c-1.3-3.5-4.6-4.7-4.8-4.7
			c-0.9-0.3-1.8,0.2-2.1,1.1c-0.3,0.9,0.2,1.8,1,2.1c0,0,2,0.7,2.7,2.7c0.6,1.7,0.1,4.1-1.6,6.9c-6.8,8-21.7,2.4-22.3,2.1
			c0-0.2-0.1-0.4-0.1-0.5c0,0-22.3,1.5-24.2-15.1c0.4-0.3,0.7-0.9,0.6-1.4c0-0.5-0.7-11.7,12-14c0.7-0.1,1.3-0.7,1.4-1.4
			c0-0.1,1-6.8,6.5-7.9c5.8-1.2,9.7,2.2,9.9,2.4c0.6,0.5,1.5,0.6,2.1,0.1c0.5-0.3,11.2-8.1,20.6,3.4c0.6,0.7,1.6,0.8,2.3,0.2
			c0.7-0.6,0.8-1.6,0.2-2.4c-4.4-5.4-9.1-7.2-13.3-7.4c0.2-2.5,1.2-10.1,8.3-11.9c4-1,8.5-0.4,12,1.5v-3.7
			c-3.9-1.7-8.5-2.1-12.7-1.1c-0.2-2.4-1.2-5-2.8-7.1c-1.7-2.3-5-5.3-10.7-6.3c-6.8-1.1-11.7,2.5-14,5.6c-2-1.3-5.8-2.8-12.2-1.2
			c-6.7,1.6-9.5,6.4-10.3,9.8c-4.8-1.7-10-1.1-13.8,1.9c-4.2,3.2-5.4,8.3-3.4,13.6c0.4,1,0.9,1.8,1.4,2.6h5c-1.5-0.7-2.6-2-3.3-3.8
			c-1.5-3.9-0.7-7.5,2.3-9.7c3.1-2.4,8.9-3.4,14,0.3c8.6,6.2,7.7,19,7.7,19.7c-6.8,1.9-9.9,6.1-11.3,9.9c-3.5,0.5-10.6,0.5-16.9-5.4
			h-24.1c0.1,1,0.3,2,0.5,3c1,5.7,2.5,9.9,2.8,11.7c0.1,0.8,0.1,1.6,0,2.6c-0.1,0.6-0.3,1.3-0.5,2h4.7v10.7h-9.7
			c-2.5,4.4-5.3,8.5-6.6,10.8c-3.1,5.2-1.7,7.1,3.3,9.1s2.8,2.3,3,5.4c0.2,3.1,4.9,3.3,4.9,3.3s-2.9,0.6-2.8,3.5
			c0.1,2.9,4.4,5.1,4.4,5.1c2.9,2.8-1.4,6.5,2.8,13.1s5.9,1.4,23.6,0.7c9.1-0.4,13.3,6.2,15.2,12.6c0.3,1,0.6,2,0.8,3h22.5v5h-21.8
			c0.2,2.3,0.1,3.8,0.1,3.8l0,2.1h62.8c-7.7-9.3-8.2-20.7-6.6-29.9c0.1-0.7,0.2-1.4,0.4-2h-24.2v-6.3H-152.2z M-211,918.7
			c-0.3-0.2-0.7-0.5-1-0.7c0.3-1.8,1.6-6.6,7.9-8.1c7.8-1.8,10.3,1.4,10.4,1.5c0.3,0.5,0.9,0.7,1.5,0.7c0.6,0,1.1-0.4,1.4-0.9
			c0.1-0.3,3.8-6.9,11.6-5.6c8.6,1.4,10.9,8.4,10.7,11.4c-5.8,3.2-7.5,10-7.6,14c-3.3,0.5-6,1.8-7.4,2.6c-1.9-1.3-6.1-3.5-11.7-2.3
			c-3.3,0.7-5.4,2.6-6.8,4.7C-202.6,930.9-204.5,923.4-211,918.7z M-224.3,984v-4.7h22.3v4.7H-224.3z M-206.1,996.7v7.6h-5.9v-7.6
			H-206.1z M-144,901.5c-24-17.8-63-18.3-89.5-3.5c-18.4,10.3-23.9,24.4-24.6,36.7h17.5c-4.8-13.8,4.5-25.8,15.8-27
			c0,0,6.2-17.2,28.1-10c0,0,15.8-11.5,31.2,3.4c0,0,8.4-1.3,16.7,4.4h9.6C-140.7,904-142.3,902.7-144,901.5z M-143.2,934.8
			c0.6-2.6,0.6-5.1,0.1-7.4h-3.4c0.7,2.3,0.7,4.8-0.1,7.6c-0.2,0.7,0.1,1.4,0.6,1.8c0,0,4.4,3.3,3.4,10.3c-0.3,2.5-1.7,4.4-3.8,5.4
			c-3.1,1.4-7.3,0.9-10.9-1.4c-7.7-4.9-19-5-24.7-0.2c-2.8,2.3-6.8,5.3-9.5,4.7c-1.2-0.3-2.3-1.3-3.1-3.1c-0.4-0.8-1.4-1.2-2.2-0.8
			c-0.8,0.4-1.2,1.4-0.8,2.2c1.3,2.8,3.1,4.4,5.4,4.9c0.3,0.1,0.6,0.1,0.9,0.1c3.9,0.3,7.9-2.6,11.5-5.5c4.5-3.8,14.5-3.6,20.8,0.5
			c4.5,2.8,10,3.5,14.1,1.6c3.2-1.5,5.2-4.3,5.7-8C-138.3,940.5-141.6,936.4-143.2,934.8z M-258,937.7l-0.1-3c-0.1,1-0.1,2-0.1,3
			c0,2.8,0.2,5.5,0.6,8L-258,937.7z M-216.5,935.5c-0.4-0.8-1.3-1.3-2.2-0.9c0,0-1.9,0.8-4.1,0.8v3.3c2.9,0,5.2-1,5.4-1
			C-216.6,937.3-216.2,936.3-216.5,935.5z M-143.2,934.8c0.6-2.6,0.6-5.1,0.1-7.4h-3.4c0.7,2.3,0.7,4.8-0.1,7.6
			c-0.2,0.7,0.1,1.4,0.6,1.8c0,0,4.4,3.3,3.4,10.3c-0.3,2.5-1.7,4.4-3.8,5.4c-3.1,1.4-7.3,0.9-10.9-1.4c-7.7-4.9-19-5-24.7-0.2
			c-2.8,2.3-6.8,5.3-9.5,4.7c-1.2-0.3-2.3-1.3-3.1-3.1c-0.4-0.8-1.4-1.2-2.2-0.8c-0.8,0.4-1.2,1.4-0.8,2.2c1.3,2.8,3.1,4.4,5.4,4.9
			c0.3,0.1,0.6,0.1,0.9,0.1c3.9,0.3,7.9-2.6,11.5-5.5c4.5-3.8,14.5-3.6,20.8,0.5c4.5,2.8,10,3.5,14.1,1.6c3.2-1.5,5.2-4.3,5.7-8
			C-138.3,940.5-141.6,936.4-143.2,934.8z M-216.5,935.5c-0.4-0.8-1.3-1.3-2.2-0.9c0,0-1.9,0.8-4.1,0.8v3.3c2.9,0,5.2-1,5.4-1
			C-216.6,937.3-216.2,936.3-216.5,935.5z M-143.2,934.8c0.6-2.6,0.6-5.1,0.1-7.4h-3.4c0.7,2.3,0.7,4.8-0.1,7.6
			c-0.2,0.7,0.1,1.4,0.6,1.8c0,0,4.4,3.3,3.4,10.3c-0.3,2.5-1.7,4.4-3.8,5.4c-3.1,1.4-7.3,0.9-10.9-1.4c-7.7-4.9-19-5-24.7-0.2
			c-2.8,2.3-6.8,5.3-9.5,4.7c-1.2-0.3-2.3-1.3-3.1-3.1c-0.4-0.8-1.4-1.2-2.2-0.8c-0.8,0.4-1.2,1.4-0.8,2.2c1.3,2.8,3.1,4.4,5.4,4.9
			c0.3,0.1,0.6,0.1,0.9,0.1c3.9,0.3,7.9-2.6,11.5-5.5c4.5-3.8,14.5-3.6,20.8,0.5c4.5,2.8,10,3.5,14.1,1.6c3.2-1.5,5.2-4.3,5.7-8
			C-138.3,940.5-141.6,936.4-143.2,934.8z M-216.5,935.5c-0.4-0.8-1.3-1.3-2.2-0.9c0,0-1.9,0.8-4.1,0.8v3.3c2.9,0,5.2-1,5.4-1
			C-216.6,937.3-216.2,936.3-216.5,935.5z M-143.2,934.8c0.6-2.6,0.6-5.1,0.1-7.4h-3.4c0.7,2.3,0.7,4.8-0.1,7.6
			c-0.2,0.7,0.1,1.4,0.6,1.8c0,0,4.4,3.3,3.4,10.3c-0.3,2.5-1.7,4.4-3.8,5.4c-3.1,1.4-7.3,0.9-10.9-1.4c-7.7-4.9-19-5-24.7-0.2
			c-2.8,2.3-6.8,5.3-9.5,4.7c-1.2-0.3-2.3-1.3-3.1-3.1c-0.4-0.8-1.4-1.2-2.2-0.8c-0.8,0.4-1.2,1.4-0.8,2.2c1.3,2.8,3.1,4.4,5.4,4.9
			c0.3,0.1,0.6,0.1,0.9,0.1c3.9,0.3,7.9-2.6,11.5-5.5c4.5-3.8,14.5-3.6,20.8,0.5c4.5,2.8,10,3.5,14.1,1.6c3.2-1.5,5.2-4.3,5.7-8
			C-138.3,940.5-141.6,936.4-143.2,934.8z M-216.5,935.5c-0.4-0.8-1.3-1.3-2.2-0.9c0,0-1.9,0.8-4.1,0.8v3.3c2.9,0,5.2-1,5.4-1
			C-216.6,937.3-216.2,936.3-216.5,935.5z M-143.2,934.8c0.6-2.6,0.6-5.1,0.1-7.4h-3.4c0.7,2.3,0.7,4.8-0.1,7.6
			c-0.2,0.7,0.1,1.4,0.6,1.8c0,0,4.4,3.3,3.4,10.3c-0.3,2.5-1.7,4.4-3.8,5.4c-3.1,1.4-7.3,0.9-10.9-1.4c-7.7-4.9-19-5-24.7-0.2
			c-2.8,2.3-6.8,5.3-9.5,4.7c-1.2-0.3-2.3-1.3-3.1-3.1c-0.4-0.8-1.4-1.2-2.2-0.8c-0.8,0.4-1.2,1.4-0.8,2.2c1.3,2.8,3.1,4.4,5.4,4.9
			c0.3,0.1,0.6,0.1,0.9,0.1c3.9,0.3,7.9-2.6,11.5-5.5c4.5-3.8,14.5-3.6,20.8,0.5c4.5,2.8,10,3.5,14.1,1.6c3.2-1.5,5.2-4.3,5.7-8
			C-138.3,940.5-141.6,936.4-143.2,934.8z M-216.5,935.5c-0.4-0.8-1.3-1.3-2.2-0.9c0,0-1.9,0.8-4.1,0.8v3.3c2.9,0,5.2-1,5.4-1
			C-216.6,937.3-216.2,936.3-216.5,935.5z"/>
		<path id="XMLID_368_" class="st2" d="M-139.1,923.3h-3.4c-0.5-1.6-1.4-3.1-2.6-4.4c-0.9-1-2-1.8-3.3-2.4v-3.7
			c2.2,0.9,4.1,2.2,5.7,3.8C-140.9,918.6-139.7,920.8-139.1,923.3z"/>
		<path id="XMLID_1005_" class="st2" d="M-121.3,923.3h-8.2c-2-2.9-3.8-4.1-3.8-4.1s-0.9-6.6-6.9-13.7c-1.5-1.6-3-3-4.6-4h9.6
			C-128.9,907.3-124.1,914.6-121.3,923.3z"/>
		<path id="XMLID_240_" class="st2" d="M-146.2,1017c-0.6,1.9-1.2,4-1.7,6.3h-24.2v-6.3H-146.2z"/>
		<path id="XMLID_334_" class="st2" d="M-254.1,963v10.7h-9.7c2.1-3.6,4-7.5,5-10.7H-254.1z"/>
		<path id="XMLID_257_" class="st2" d="M-190.8,1039.3v5h-21.8c-0.1-1.4-0.3-3.2-0.7-5H-190.8z"/>
		<path id="XMLID_1284_" class="st2" d="M-236.5,948.7h-24.1l-0.5-11h17.5c0.5,1.6,1.3,3.2,2.2,4.8
			C-239.9,945-238.2,947.1-236.5,948.7z"/>
		<path id="XMLID_1709_" class="st2" d="M-225.8,938.3v3.3c-1.3,0-2.7-0.2-4.1-0.8c-1.6-0.7-3-1.8-4-3.2h5c0.1,0.1,0.2,0.1,0.3,0.1
			C-227.7,938.2-226.7,938.3-225.8,938.3z"/>
		<path id="XMLID_1706_" class="st2" d="M-222.8,934.7v0.7c-0.9,0-1.9-0.1-2.9-0.5c-0.1,0-0.2-0.1-0.3-0.1H-222.8z"/>
		<rect id="XMLID_225_" x="-188.8" y="918.1" class="st2" width="3" height="2.7"/>
		<rect id="XMLID_230_" x="-176.1" y="936.6" class="st2" width="4" height="3.6"/>
		<rect id="XMLID_231_" x="-162.1" y="959" class="st2" width="8.7" height="2"/>
		<rect id="XMLID_1705_" x="-136.1" y="893.3" class="st2" width="11" height="4"/>
		<rect id="XMLID_1710_" x="-118.1" y="923.3" class="st2" width="3" height="4"/>
		<rect id="XMLID_2051_" x="-143.8" y="1013.7" class="st2" width="2.3" height="0.3"/>
		<rect id="XMLID_2052_" x="-142.6" y="1024.7" class="st2" width="6.5" height="5.3"/>
		<rect id="XMLID_2053_" x="-144.8" y="1036.3" class="st2" width="3.4" height="5.5"/>
		<rect id="XMLID_2056_" x="-133" y="1011" class="st2" width="2.4" height="3"/>
		<rect id="XMLID_2058_" x="-116.6" y="909.7" class="st2" width="5.8" height="3.2"/>
		<rect id="XMLID_2061_" x="-268" y="928.7" class="st2" width="4.2" height="4.7"/>
		<rect id="XMLID_2281_" x="-279.4" y="941.7" class="st2" width="11.4" height="4"/>
		<rect id="XMLID_2282_" x="-271.8" y="967" class="st2" width="5.8" height="1.3"/>
		<rect id="XMLID_2283_" x="-279.4" y="977.7" class="st2" width="7.7" height="6.3"/>
		<rect id="XMLID_2284_" x="-222.8" y="1041.8" class="st2" width="0" height="4.2"/>
		<rect id="XMLID_2285_" x="-229.8" y="882" class="st2" width="4.1" height="3.3"/>
		<rect id="XMLID_2286_" x="-209" y="874.3" class="st2" width="7" height="5"/>
		<rect id="XMLID_2287_" x="-225.8" y="1043.9" class="st2" width="6.2" height="2.1"/>
		<rect id="XMLID_2288_" x="-221.3" y="1037.5" class="st2" width="1.7" height="1.6"/>
		<rect id="XMLID_2290_" x="-222.8" y="1054" class="st2" width="7.5" height="1.3"/>
		<rect id="XMLID_2291_" x="-215.3" y="1047.3" class="st2" width="2" height="1.7"/>
		<rect id="XMLID_2292_" x="-202" y="961" class="st2" width="3.4" height="3.3"/>
		<path id="XMLID_1713_" class="st2" d="M-69.5,870.3h-13c-9.9-11.2-21.4-20.8-34.3-28.5h17.9C-87.9,850-78,859.6-69.5,870.3z"/>
		<path id="XMLID_2469_" class="st2" d="M-326.4,922.1c-2.9,7.6-5.2,15.5-6.8,23.6h-10.2c1.5-8,3.6-15.9,6.4-23.6H-326.4z"/>
		<path id="XMLID_2462_" class="st2" d="M-330.4,918.1l-6.8,23.6C-335.7,933.6-333.4,925.7-330.4,918.1z"/>
		<path id="XMLID_2060_" class="st2" d="M-276.3,1079.3h-16.2c-6.4-5.5-12.4-11.5-17.9-18h13.4C-290.7,1068-283.7,1074-276.3,1079.3
			z"/>
		<path id="XMLID_1707_" class="st2" d="M-52.2,1020c-2.7,8.6-6.1,16.9-10.3,24.8h-11.4c4.5-7.9,8.2-16.2,11.2-24.8H-52.2z"/>
		<path id="XMLID_2465_" class="st2" d="M-82.3,1086.3l-9.1,7.5h-17.7c3.8-2.3,7.4-4.8,11-7.5H-82.3z"/>
		<rect id="XMLID_120_" x="-325" y="943.2" class="st2" width="5.6" height="2.5"/>
		<rect id="XMLID_160_" x="-357.6" y="901.5" class="st2" width="4.5" height="8.2"/>
		<rect id="XMLID_165_" x="-319.4" y="909.7" class="st2" width="5.8" height="2.7"/>
		<rect id="XMLID_371_" x="-92.3" y="836.8" class="st2" width="10" height="5"/>
		<rect id="XMLID_1703_" x="-125.1" y="864.3" class="st2" width="7" height="2.4"/>
		<rect id="XMLID_1704_" x="-52.2" y="870.3" class="st2" width="4.1" height="6.5"/>
		<rect id="XMLID_1711_" x="-48.1" y="1023.3" class="st2" width="8" height="4"/>
		<rect id="XMLID_2062_" x="-89.6" y="1032.4" class="st2" width="3.1" height="3.9"/>
		<rect id="XMLID_2119_" x="-89.6" y="1099.8" class="st2" width="3.1" height="4"/>
		<rect id="XMLID_2120_" x="-69.5" y="1090.1" class="st2" width="3.4" height="0"/>
		<rect id="XMLID_2121_" x="-319.4" y="1081.3" class="st2" width="9" height="2"/>
		<rect id="XMLID_2122_" x="-330.4" y="1066.8" class="st2" width="4" height="3.5"/>
		<rect id="XMLID_2123_" x="-288.6" y="1053.2" class="st2" width="4.5" height="4.1"/>
		<rect id="XMLID_2124_" x="-310.4" y="1099.8" class="st2" width="4.3" height="0"/>
		<rect id="XMLID_2125_" x="-341.1" y="1050.6" class="st2" width="3.8" height="5.7"/>
		<rect id="XMLID_2126_" x="-313.6" y="1090.1" class="st2" width="7.5" height="9.8"/>
	</g>
</g>
</svg>
