<?xml version="1.0" encoding="utf-8"?>
<!-- Generator: Adobe Illustrator 19.0.0, SVG Export Plug-In . SVG Version: 6.00 Build 0)  -->
<svg version="1.1" id="Layer_1" xmlns="http://www.w3.org/2000/svg" xmlns:xlink="http://www.w3.org/1999/xlink" x="0px" y="0px"
	 viewBox="-399 761 400 400" style="enable-background:new -399 761 400 400;" xml:space="preserve">
<style type="text/css">
	.st0{fill:#F3859F;}
	.st1{fill:#E6CDE3;}
	.st2{fill:#C82127;}
</style>
<g>
	<g id="XMLID_2673_">
		<g id="XMLID_4005_">
			<path id="XMLID_4006_" class="st0" d="M-258.4,834.5c-14.5,7.3-27.9,16.9-39.7,28.7c-2.2,2.2-4.4,4.5-6.5,6.8h13.8
				c16.8-16.7,37-28.7,59-35.5H-258.4z M-333.8,972.5c0-2.5,0.1-5.1,0.2-7.6h-10c-0.1,2.5-0.2,5-0.2,7.6c0,25.2,5.9,49,16.6,70.1
				h11.3C-327.3,1021.8-333.8,997.9-333.8,972.5z M-49.8,1014.4c-6.8,23-19.3,44-36.8,61.3c-15.3,15.2-33.5,26.6-53.3,33.7h24.5
				c13-7,25.1-15.9,35.8-26.7c19.4-19.3,33.1-42.8,40.1-68.4H-49.8z M-34.4,959.5h-10c0.4,4.5,0.6,9,0.6,13.5v0.3
				c0,10.6-1.2,21.1-3.4,31.2H-37c2.1-10.2,3.2-20.6,3.2-31.2C-33.8,968.7-34,964.1-34.4,959.5z M-187.9,818h-0.7
				c-13.5,0-26.6,1.7-39.3,5h39.1v5h0.8c31.1,0.1,59.8,10.1,83.4,27h16.2C-115.3,832-150,818.1-187.9,818z M-61.3,885h-12.4
				c9.3,12.2,16.7,25.8,21.9,40.6h10.5C-46,911-52.8,897.3-61.3,885z M-157.2,1114.5c-10.3,2.3-21,3.5-31.8,3.5h-0.6
				c-48.3-0.2-91.1-24.3-117.3-61H-319c27.5,42.5,75.2,70.8,129.3,71h0.7c22.2,0,43.8-4.6,63.5-13.5H-157.2z M-319.1,889
				c-12.9,19.8-20.9,42.3-23.7,65.9h10.1c2.9-23.9,11.7-46.4,25.7-65.9H-319.1z"/>
		</g>
		<g id="XMLID_3951_">
			<path id="XMLID_4003_" class="st0" d="M-162.8,899.7v-7.5h-15.7v8.4h-48.8c-0.3-0.4-0.6-0.9-0.9-1.3c-1.4-1.5-3-2.7-4.9-3.5
				c-1.9-0.8-3.9-1.2-5.9-1.3c-0.6,0-1.1,0.2-1.7,0.3c0,0-0.1,0-0.1,0c-1.1,0.1-2.2,0.3-3.2,0.8c-0.3,0.1-0.6,0.3-0.8,0.4h6.1v3.2
				c0.1,0,0.1,0,0.2,0c2.3,0.1,4.4,0.9,6.1,2.6c1,1,1.9,1.9,2.4,3.3c0.4,0.9,0.7,1.8,0.7,2.8v1c0,2.4-0.9,4.5-2.6,6.2
				c-0.5,0.5-0.9,1-1.5,1.3c-1.3,0.9-2.8,1.5-4.5,1.5c-0.3,0-0.5,0.2-0.7,0.2c-0.4-0.1-0.7-0.3-0.9-0.2c-1.9,0.1-3.4-0.8-4.9-1.8
				c-1.5-1-2.2-2.4-2.9-3.9c-0.2-0.5-0.5-1-0.5-1.5c0-0.4,0-0.7,0-1.1h-4.9c0,0.3,0.1,0.7,0.1,1.1c0.3,1.7,0.8,3.3,1.6,4.9
				c1.1,2,2.5,3.6,4.3,4.9c2.3,1.5,4.9,2.5,7.7,2.4c1,0,1.9,0,2.9,0c1.8,2,3.8,3.8,5.6,5.8c1.5,1.8,3.3,3.3,4.9,5
				c1.6,1.7,3.2,3.4,4.8,5.1c1.7,1.9,3.6,3.6,5.3,5.5c2.2,2.5,4.7,4.8,7,7.3c1.4,1.6,2.9,3,4.4,4.5h3.5v3.2h19v4.3h11v-15.3h-25.8
				c-0.5-0.4-1-0.8-1.4-1.2c-0.7-0.8-1.3-1.6-2.1-2.3c-1.1-1.1-2.1-2.2-3.2-3.3h-12.2v-12.7c-1.5-1.8-3.4-3.4-5-5.1
				c-1.7-1.7-3.3-3.5-5-5.2c-0.5-0.5-1-1-1.6-1.6c0.1-0.3,0-0.7,0.2-0.9c0.7-0.7,0.9-1.7,1.3-2.5c0.3-0.8,0.5-1.8,0.6-2.7
				c0.1-1.3,0-2.7,0-4.1c0-0.3-0.1-0.6-0.2-0.9h46.5v8.3c4.4,0.2,14.5,0.1,15.6-0.1v-7.7h-4.3v3.3c-0.2,0.2-0.3,0.3-0.4,0.4h-5.1
				V896h5.1c0.1,0.1,0.3,0.3,0.4,0.4v3.3H-162.8z"/>
			<path id="XMLID_4002_" class="st0" d="M-151.1,992.3v1.7h23.9v2.9h-120.1c-0.1-0.5,0-1.1-0.1-1.6c0-0.6,0-1.1,0-1.8h82.9v-2.9
				h-82.8v-2.9h71.5v-2.9h-71c0.4-0.6,0.3-1.2,0.7-1.7c0.6-0.7,1-1.6,1.7-2.2c1.3-1.1,2.6-2,4.2-2.5c0.9-0.3,1.8-0.4,2.7-0.4
				c26.5,0,53.1,0,79.6,0c0.1,0,0.3,0,0.5,0v12.2h3.2v-12.1h2.6v12.1h3.5v-12.1h2.6c0.1,2,0,4,0,6c0,2,0,4.1,0,6.1h3.5V978h2.3v12.2
				h3.5V978c1.1,0.4,2.2,0.4,3.2,0.9c0.9,0.4,1.7,0.7,2.3,1.4c1,1,2,1.9,2.7,3.3c0.4,0.9,0.8,1.8,0.8,2.9c0,2,0,4,0,5.9H-151.1z"/>
			<path id="XMLID_4001_" class="st0" d="M-161.1,965c0,3.7,0,7.3,0,11c-18.5,0-37,0-55.5,0c0-3.7,0-7.3,0-11
				C-198.1,965-179.6,965-161.1,965z"/>
			<path id="XMLID_4000_" class="st0" d="M-226.8,1028c0-1,0-2.1,0-3.1c0.2-0.1,0.5-0.3,0.7-0.3c0.3-0.1,0.7,0,1,0
				c25.6,0,51.3,0,77.1,0c0,0.6,0,1.1,0,1.7c0,0.6,0,1.1,0,1.8C-174.2,1028-200.5,1028-226.8,1028z"/>
			<path id="XMLID_3998_" class="st0" d="M-120,1026.5h3.3c0-0.1,0-0.3,0-0.3c-2.3-4.1-4.6-7.9-6.8-11.7h-13.9
				c-0.6,1.1-1.3,2.1-1.9,3.2c-0.9,1.7-1.9,3.3-2.9,4.9c-0.6,1-1,2-1.6,3c-0.3,0.6-0.3,0.9,0,1.5c0.4,0.9,1.1,1.7,1.4,2.6
				c0.3,0.9,0.9,1.7,1.4,2.5c1.1,2.1,2.4,4.1,3.6,6.1h14c0-0.2,0-0.3,0.1-0.4c1.5-1.9,2.5-4.1,3.7-6.2c0.2-0.4,0.4-0.8,0.7-1.2
				c0.1-0.2,0.3-0.4,0.4-0.6h-1.9c-0.6,1.8-1.7,3.3-3.2,4.7c-1.2,1.1-2.8,1.7-4.3,2.3c-1.3-0.1-2.5,0.8-3.8,0
				c-1.5,0.1-2.7-0.6-4-1.2c-1.1-0.5-1.8-1.5-2.7-2.3c-1.3-1.1-1.7-2.8-2.5-4.2c0.1-1.2-0.6-2.3-0.3-3.5c0.3-1.1,0.2-2.2,0.8-3.3
				c0.7-1.3,1.4-2.5,2.4-3.5c1.1-1.1,2.4-2,3.9-2.5c0.8-0.2,1.6-0.5,2.4-0.5c0.8,0,1.6,0,2.3,0c0.8,0,2,0.4,3,0.8
				c1.4,0.6,2.6,1.4,3.6,2.5c1.3,1.4,2.1,3.2,2.6,5C-119.8,1024.8-120,1025.7-120,1026.5L-120,1026.5z"/>
			<path id="XMLID_3994_" class="st0" d="M-229.7,1025.6c-0.8-1.4-1.6-2.7-2.3-4.1c-0.4-0.6-0.7-1.3-1-1.9c-0.5-1-1.1-1.8-1.7-2.8
				c-0.3-0.5-0.6-1.1-0.8-1.7c-0.1-0.3-0.4-0.5-0.6-0.7h-13.7c-2.4,3.8-4.5,7.8-6.9,11.7c0,0.1-0.1,0.4,0,0.6
				c0.6,0.7,0.8,1.5,1.3,2.2c1.1,1.6,2,3.4,3,5c0.5,0.8,0.9,1.7,1.4,2.5c0.4,0.6,0.8,1.2,1.2,1.8h13.8c2.4-3.9,4.6-8,7.1-12.1
				C-229.2,1025.9-229.6,1025.8-229.7,1025.6z M-234.1,1032.2c-0.3,0.5-0.8,0.9-1.2,1.4c-0.8,1-1.8,1.8-3,2.3
				c-1.1,0.5-2.2,1-3.4,0.9c-0.4,0-0.9,0.3-1.3,0.3c-1.7-0.2-3.5-0.4-5-1.3c-1.9-1-3.4-2.5-4.4-4.4c-0.8-1.6-1.5-3.3-1.2-5.2
				c0-0.9,0-1.8,0.2-2.7c0.3-1.2,0.9-2.2,1.5-3.2c1.2-2.1,3.2-3.2,5.4-4.2c0.6-0.3,1.3-0.3,2-0.4c0.8-0.1,1.6-0.1,2.5,0
				c2,0.1,3.8,0.7,5.4,2c0.2,0.2,0.4,0.3,0.6,0.5c1,1,1.9,1.9,2.5,3.2c0.2,0.3,0.3,0.6,0.4,0.9c0.2,0.6,0.5,1.2,0.6,1.9
				c0,0.5,0.2,1,0.3,1.5C-232.2,1028.1-233,1030.2-234.1,1032.2z"/>
			<path id="XMLID_3993_" class="st0" d="M-172,1053.6c-0.1-0.1-0.2-0.2-0.4-0.4c0-4.2,0-8.4,0-12.7c0.3-0.1,0.6-0.2,0.9-0.3
				c1.7,0,3.4,0,5.1,0c0,4.4,0,8.9,0,13.3C-168.2,1053.6-170.1,1053.6-172,1053.6z"/>
			<path id="XMLID_3992_" class="st0" d="M-220.6,1040.7c0.2-0.2,0.3-0.3,0.4-0.4c1.9,0,3.7,0,5.7,0c0,4.4,0,8.8,0,13.3
				c-1.9,0.1-3.8,0-5.6,0.1c-0.2-0.2-0.3-0.3-0.4-0.4C-220.6,1049.1-220.6,1044.9-220.6,1040.7z"/>
			<path id="XMLID_3991_" class="st0" d="M-214.6,1012.3c-2,0-4,0-6,0c0-4.3,0-8.6,0-13c2-0.1,4,0,6-0.1
				C-214.6,1003.6-214.6,1007.9-214.6,1012.3z"/>
			<path id="XMLID_3990_" class="st0" d="M-166.3,999.3c0,4.4,0,8.7,0,13c-2,0-4,0-6,0c0-4.3,0-8.7,0-13.1
				C-170.3,999.3-168.3,999.2-166.3,999.3z"/>
			<path id="XMLID_3989_" class="st0" d="M-184.3,1053.6c0-4.4,0-8.8,0-13.3c1.9,0,3.8,0,5.7,0c0.2,1.2,0.3,9.2,0.1,13.3
				C-180.4,1053.6-182.3,1053.6-184.3,1053.6z"/>
			<path id="XMLID_3987_" class="st0" d="M-232.6,1053.6c0-4.4,0-8.8,0-13.3c1.9,0,3.8,0,5.7,0c0.2,1.2,0.3,8.8,0.1,13.3
				C-228.7,1053.6-230.6,1053.6-232.6,1053.6z"/>
			<path id="XMLID_3986_" class="st0" d="M-208.4,1040.3c1.9,0,3.8,0,5.7,0c0,4.4,0,8.8,0,13.3c-1.9,0.1-3.8,0-5.7,0.1
				C-208.4,1049.2-208.4,1044.8-208.4,1040.3z"/>
			<path id="XMLID_3985_" class="st0" d="M-160.1,1053.6c0-4.4,0-8.8,0-13.3c1,0,2-0.1,3,0c0.9,0.1,1.9-0.4,2.8,0.3
				c0,4.3,0,8.6,0,13C-156.3,1053.6-158.1,1053.6-160.1,1053.6z"/>
			<path id="XMLID_3984_" class="st0" d="M-196.2,1053.6c0-4.4,0-8.8,0-13.3c1.8,0,3.6,0,5.4,0c0.1,0.1,0.2,0.2,0.4,0.4
				c0,4.2,0,8.4,0,12.6c-0.1,0.1-0.2,0.2-0.4,0.4C-192.5,1053.6-194.3,1053.6-196.2,1053.6z"/>
			<path id="XMLID_3983_" class="st0" d="M-142.1,1053.2c-0.2,0.2-0.3,0.3-0.4,0.4c-1.8,0-3.6,0-5.4,0c0-4.4,0-8.8,0-13.3
				c0,0,0,0,0.1-0.1c0,0,0.1,0,0.1,0c1.7,0,3.5,0,5.1,0c0.5,0.3,0.5,0.6,0.5,1c0,2.7,0,5.4,0,8.1
				C-142.1,1050.7-142.1,1052-142.1,1053.2z"/>
			<path id="XMLID_3982_" class="st0" d="M-130.2,1040.3c0,4.4,0,8.8,0,13.3c-1,0-2,0.1-3,0c-0.9-0.1-1.9,0.4-2.8-0.3
				c0-4.2,0-8.4,0-12.6c0.1-0.1,0.2-0.2,0.4-0.4C-133.9,1040.3-132.1,1040.3-130.2,1040.3z"/>
			<path id="XMLID_3981_" class="st0" d="M-238.8,1053.3c-0.2,0.2-0.3,0.3-0.4,0.4c-1.8,0-3.6,0-5.4,0c0-4.4,0-8.8,0-13.3
				c1.8-0.1,3.6,0,5.3-0.1c0.2,0.2,0.3,0.3,0.4,0.4C-238.8,1044.8-238.8,1049-238.8,1053.3z"/>
			<path id="XMLID_3980_" class="st0" d="M-255.2,1040.1c1.3,0.1,2.6,0.2,3.9,0.3c0.1,0.1,0.2,0.2,0.3,0.3c0,4.3,0,8.5,0,12.9
				c-1.2,0.4-2.4-0.3-3.7-0.3c-1.2,0-2.3-0.4-3.6-0.6c0.1-0.8,0.1-1.7,0.4-2.3c0.3-0.6,0.2-1.3,0.5-1.8c0.3-0.5,0.1-1.3,0.4-1.7
				c0.6-1.2,0.7-2.5,1.1-3.8C-255.6,1042.1-255.4,1041.1-255.2,1040.1z"/>
			<path id="XMLID_3979_" class="st0" d="M-251,1010v2.3c-1.4,0.1-2.8,0.2-4.2,0.3c-0.2-0.9-0.4-1.7-0.5-2.6H-251z"/>
			<path id="XMLID_3978_" class="st0" d="M-269.1,1034.5c-0.6,0.3-1.1,0.5-1.7,0.7c-1.7,0.7-3.2,1.6-4.9,2.3
				c-0.3,0.1-0.5,0.1-0.8,0.2c-0.6-1.3-1-2.3-1.3-3.2H-269.1z"/>
			<path id="XMLID_3977_" class="st0" d="M-264.6,1032.2c-0.3,0.1-0.6,0.3-0.9,0.4v-3.3C-265.1,1030.3-264.9,1031.3-264.6,1032.2z"
				/>
			<path id="XMLID_3976_" class="st0" d="M-264.6,1020.4c-0.4,1.3-0.7,2.6-1.1,3.9c-1.2-0.2-2.6-0.5-4-0.6c-0.9-0.1-1.8-0.1-2.7-0.5
				c0,0-0.1,0-0.1,0c-0.7,0-1.5-0.1-2.2-0.2c-0.7-0.2-1.5-0.1-2.2-0.3c-0.4-0.1-0.9,0-1.3,0c-0.2-0.2-0.3-0.3-0.5-0.5
				c0.5-2.4,1.2-4.8,2.2-7.2c0.4,0.2,0.8,0.5,1.2,0.7c2,0.7,3.9,1.8,5.9,2.7c1.3,0.6,2.5,1.2,3.8,1.7
				C-265.3,1020.1-265,1020.2-264.6,1020.4z"/>
			<path id="XMLID_3975_" class="st0" d="M-123.2,999.2c1,0.2,1.8,0.3,2.7,0.5c0.8,0.2,1.7,0.3,2.5,0.6c0.8,0.3,1.6,0.7,2.4,0.9
				c-1.7,4-3.3,7.9-5,12c-1.1-0.3-2.3-0.7-3.6-1c0.1-1.1-0.3-2.2,0.3-3.4c0,0,0-0.1,0-0.1c0.1-1.4,0.2-2.8,0.3-4.2
				c0.1-0.6,0.2-1.2,0.3-1.8c0.1-0.5-0.1-1.1,0.2-1.7C-123,1000.7-123.2,1000-123.2,999.2z"/>
			<path id="XMLID_3974_" class="st0" d="M-115.7,1051.5c-2.4,0.9-4.9,1.6-7.6,1.9c0.2-1.4-0.4-2.6-0.3-3.9c0.1-0.6-0.2-1.3-0.3-2
				c-0.1-0.7,0.2-1.4-0.3-2.1c0,0,0-0.1,0-0.1c-0.1-1.7-0.2-3.3-0.4-4.9c1.3-0.3,2.5-0.7,3.7-1
				C-119.1,1043.4-117.4,1047.5-115.7,1051.5z"/>
			<path id="XMLID_3973_" class="st0" d="M-136,999.3c1.9,0,3.8,0,5.7,0c0,4.3,0,8.6,0,13c-1.9,0.1-3.8,0-5.7,0.1
				C-136,1008-136,1003.7-136,999.3z"/>
			<path id="XMLID_3972_" class="st0" d="M-147.9,999.3c1.9,0,3.8,0,5.7,0c0,4.3,0,8.6,0,13c-1.9,0.1-3.8,0-5.7,0.1
				C-147.9,1008-147.9,1003.7-147.9,999.3z"/>
			<path id="XMLID_3971_" class="st0" d="M-154.4,1012.3c-1.9,0-3.8,0-5.7,0c0-4.3,0-8.6,0-13c1.9-0.1,3.8,0,5.7-0.1
				C-154.4,1003.6-154.4,1007.9-154.4,1012.3z"/>
			<path id="XMLID_3970_" class="st0" d="M-184.3,999.3c1.9,0,3.8,0,5.7,0c0,4.3,0,8.6,0,13c0,0,0,0-0.1,0.1c0,0-0.1,0-0.1,0
				c-1.8,0-3.7,0-5.5,0C-184.3,1008-184.3,1003.7-184.3,999.3z"/>
			<path id="XMLID_3969_" class="st0" d="M-196.2,999.3c1.9,0,3.8,0,5.7,0c0,4.3,0,8.6,0,13c-1.9,0.1-3.8,0-5.7,0.1
				C-196.2,1008-196.2,1003.7-196.2,999.3z"/>
			<path id="XMLID_3968_" class="st0" d="M-208.4,1012.3c0-4.3,0-8.6,0-13c1.9,0,3.8,0,5.7,0c0.2,1.2,0.3,8.8,0.1,13
				C-204.6,1012.3-206.4,1012.3-208.4,1012.3z"/>
			<path id="XMLID_3967_" class="st0" d="M-226.8,1012.3c-1.9,0-3.8,0-5.7,0c0-4.3,0-8.6,0-13c1.9-0.1,3.8,0,5.7-0.1
				C-226.8,1003.6-226.8,1007.9-226.8,1012.3z"/>
			<path id="XMLID_3966_" class="st0" d="M-244.5,999.3c1.9,0,3.8,0,5.8,0c0,0.4,0,0.8,0,1.3c0,3.5,0,7.1,0,10.6
				c0,0.4,0.1,0.9-0.5,1.2c-1.7,0-3.5,0-5.3,0C-244.5,1008-244.5,1003.6-244.5,999.3z"/>
			<path id="XMLID_3965_" class="st0" d="M-116.8,1037.3c0.3-1.2,1.8-1.6,2.1-2.8c1-0.2,1.6,0.5,2.1,0.9c1,0.9,2.2,1.4,3.2,2.2
				c1.6,1.2,3.4,2.2,5.1,3.4c0.2,0.1,0.4,0.2,0.6,0.3c0,0.2,0.1,0.5,0,0.6c-1.6,1.7-2.7,4-4.9,5.1c-0.9-1-1.9-1.9-2.7-2.9
				c-0.8-0.9-1.5-1.9-2.3-2.8C-114.7,1040-115.7,1038.7-116.8,1037.3z"/>
			<path id="XMLID_3964_" class="st0" d="M-259.2,1014.2c-0.9,0.8-1.8,1.6-2.9,2.6c-2.6-2.3-5.1-4.6-7.7-6.8h8
				C-260.9,1011.4-260.1,1012.8-259.2,1014.2z"/>
			<path id="XMLID_3963_" class="st0" d="M-262.3,1035.9c1.1,0.9,2.1,1.6,3.1,2.4c-2.2,3.6-4.5,7.3-6.7,11c-2.4-1.1-4.1-2.9-5.9-4.8
				c1-0.9,1.7-2,2.9-2.6c0.1-0.1,0.2-0.2,0.3-0.3c1.1-1.1,2.2-2.2,3.5-3.2C-264.1,1037.8-263.2,1036.8-262.3,1035.9z"/>
			<path id="XMLID_3962_" class="st0" d="M-103.7,1010.9c0,0.1,0,0.3,0,0.5c-3.6,2.4-7.1,4.7-10.6,7.1c-0.8-0.9-1.6-1.8-2.5-2.9
				c0.2-0.3,0.4-0.8,0.7-1.1c1.3-1.7,2.8-3.3,4.1-5c0.6-0.8,1.3-1.5,1.9-2.3c0.4-0.5,0.9-1.1,1.4-1.7
				C-106.9,1007.3-105.1,1008.8-103.7,1010.9z"/>
			<path id="XMLID_3961_" class="st0" d="M-99.1,1029.8c-0.2,1.4-0.6,2.8-0.8,4.3c-2.3-0.9-4.8-1.2-7.1-2.3
				c-1.5-0.1-2.9-0.8-4.3-1.2c-0.3-0.1-0.7-0.2-1.2-0.4c0-0.2,0.1-0.3,0.1-0.5c0.1-0.6,0.2-1.1,0.3-1.7h13
				C-99,1028.7-99.1,1029.3-99.1,1029.8z"/>
			<path id="XMLID_3960_" class="st0" d="M-100,1018.6c0.3,1.1,0.5,2,0.7,2.8c0.2,0.9,0.3,1.8,0.4,2.6c-1.2,0.2-9,0.3-13.2,0.1
				c-0.1-0.6-0.2-1.2-0.4-1.9C-108.3,1021.2-104.3,1019.7-100,1018.6z"/>
			<path id="XMLID_3959_" class="st0" d="M-232.9,908.7c0.1,3.2-2.5,5.9-5.8,5.9c-3.2,0-5.5-2.1-6-5.1h5.9v-6.8c0.1,0,0.1,0,0.2,0
				C-235.7,902.6-232.7,905.1-232.9,908.7z"/>
			<path id="XMLID_3957_" class="st0" d="M-125.4,1029.8c-0.3,0.3-0.6,0.5-0.9,0.9c0.1-0.3,0.1-0.6,0.1-0.9h-4v-3.3h4
				c-0.2-0.8-0.5-1.6-1-2.3c-1.3-1.9-3-3.3-5.6-3.7c2-0.8,3.7-0.6,5.3,0.1c1.4,0.8,2.5,2,3,3.4c0.2,0.7,0.4,1.3,0.4,1.9
				c0,0.2,0,0.4,0,0.6h1.5c0-0.4-0.2-0.8-0.3-1.3c-0.2-1.4-0.4-2.2-1.2-3.3c-0.9-1.2-2-2.3-3.4-2.8c-1.5-0.5-3.1-0.9-4.9-0.4
				c-1.5,0.5-2.9,1.1-3.9,2.2c-1.3,1.5-2.3,3.2-2.1,5.4c-0.1,1.5,0.4,2.8,1.1,4.1c1,1.7,2.4,2.7,4.2,3.4c0.4,0.2,0.9-0.2,1.2,0.3
				c0.9,0,1.9,0.2,2.7,0c1.6-0.4,3.1-1.2,4.4-2.5c0.6-0.6,0.9-1.2,1.2-1.8H-125.4z"/>
			<path id="XMLID_3953_" class="st0" d="M-237.6,1020.7c-1.4-1.4-3.2-2.3-5.3-2.3c-2.3,0-4.3,0.9-5.9,2.6c-1.3,1.3-2.3,3.8-2.2,5.5
				c0.3,4.2,3.2,7.5,7.9,7.6c2.2,0.1,4.1-0.8,5.7-2.4c1.4-1.5,2.1-3.3,2.1-5.7C-235.1,1024.1-236.1,1022.2-237.6,1020.7z
				 M-238.7,1030.5c0-0.4-0.1-0.8,0-1.1c0.3-0.8,0.2-1.6,0-2.4c-0.2-1-0.5-1.8-0.9-2.7c-1-1.8-2.4-3-4.3-3.6
				c-0.3-0.1-0.6-0.3-0.9-0.4c1-0.6,2.1-0.5,3.2-0.3c2.1,0.3,3.4,1.6,4.4,3.4C-235.9,1026-237,1029.2-238.7,1030.5z"/>
		</g>
		<path id="XMLID_3950_" class="st0" d="M-200.1,938.3h-12.2v-12.7c2.5,3,5.5,5.5,8.1,8.4C-202.9,935.4-201.5,936.9-200.1,938.3z"/>
		<path id="XMLID_3949_" class="st0" d="M-204.7,958v3.2c-1.1-0.3-1.3-1-1.8-1.5c-0.6-0.6-1.2-1.1-1.7-1.7H-204.7z"/>
		<rect id="XMLID_3948_" x="-184.3" y="889" class="st0" width="2.9" height="2"/>
		<rect id="XMLID_3946_" x="-172.3" y="879.3" class="st0" width="6" height="2.3"/>
		<rect id="XMLID_3945_" x="-157.3" y="892.2" class="st0" width="2.9" height="3.8"/>
		<rect id="XMLID_3944_" x="-157.3" y="911.6" class="st0" width="4.1" height="2.9"/>
		<rect id="XMLID_3943_" x="-162.8" y="936.3" class="st0" width="1.8" height="2"/>
		<rect id="XMLID_3942_" x="-151.1" y="953.3" class="st0" width="7" height="4.2"/>
		<rect id="XMLID_3941_" x="-130.4" y="966.6" class="st0" width="6.3" height="3.8"/>
		<rect id="XMLID_3940_" x="-112.5" y="980.3" class="st0" width="4.7" height="1.5"/>
		<rect id="XMLID_3939_" x="-99" y="994" class="st0" width="2.2" height="0"/>
		<rect id="XMLID_3938_" x="-95.5" y="992.3" class="st0" width="0.7" height="0"/>
		<rect id="XMLID_3937_" x="-267.8" y="955.4" class="st0" width="8.6" height="2.1"/>
		<rect id="XMLID_3936_" x="-286.8" y="973" class="st0" width="6" height="2.7"/>
		<path id="XMLID_3935_" class="st0" d="M-261.8,1010h-8c-0.7-0.6-1.4-1.3-2.1-1.9c1.7-1.9,3.7-3.5,5.9-4.9
			C-264.6,1005.5-263.2,1007.7-261.8,1010z"/>
		<path id="XMLID_3934_" class="st0" d="M-251,999.3v10.7h-4.8c-0.1-0.5-0.3-1.1-0.5-1.6c-0.5-1.4-0.8-2.8-1.1-4.2
			c-0.3-1.4-1-2.8-0.9-4.3C-255.8,999.4-253.5,999.1-251,999.3z"/>
		<path id="XMLID_3921_" class="st0" d="M-268.5,1026.3v3.3l-3.7,1.8h-8.5c-0.4-1.4-0.7-2.5-1-4c1.2-0.2,2.3-0.5,3.3-0.6
			c1.1-0.1,2.1-0.3,3.2-0.4c1.1-0.1,2.1-0.4,3.3-0.5c1.1-0.1,2.1-0.2,3.1-0.3C-268.6,1025.8-268.5,1026.1-268.5,1026.3z"/>
		<path id="XMLID_3907_" class="st0" d="M-265.5,1032.7c-1.2,0.6-2.4,1.2-3.7,1.8L-265.5,1032.7z"/>
		<path id="XMLID_3906_" class="st0" d="M-265.5,1032.7c-1.2,0.6-2.4,1.2-3.7,1.8L-265.5,1032.7z"/>
		<path id="XMLID_3905_" class="st0" d="M-120.6,1026.5C-120.6,1026.5-120.6,1026.5-120.6,1026.5c-0.2,1.2-0.4,2.3-0.9,3.3h-1.9
			c0.1-0.2,0.2-0.3,0.3-0.5c0.2-0.5,0.6-1,0.8-1.6c0.1-0.4,0.2-0.8,0.3-1.3H-120.6z"/>
		<path id="XMLID_3904_" class="st0" d="M-124.2,1029.8h-4v-3.3h4C-124,1027.5-124,1028.7-124.2,1029.8z"/>
		<path id="XMLID_3903_" class="st0" d="M-114.8,1026.5c0,0.1,0,0.2-0.1,0.2c-0.7,1-1.3,2.1-1.8,3.1h-1.9c0.3-1,0.5-2.2,0.5-3.3
			H-114.8z"/>
		<path id="XMLID_3902_" class="st0" d="M-97.1,1029.8h-13.3c0.1-0.6,0.2-1.1,0.3-1.7h13C-97,1028.7-97.1,1029.3-97.1,1029.8z"/>
		<path id="XMLID_3901_" class="st0" d="M-224,1019.5h-4.6v-4.7h1.9c0.5,0.9,1.2,1.8,1.7,2.8C-224.7,1018.2-224.4,1018.9-224,1019.5
			z"/>
		<rect id="XMLID_3900_" x="-141.1" y="992.3" class="st0" width="23.9" height="1.7"/>
		<path id="XMLID_3899_" class="st0" d="M-240.8,893v3.2c-0.9,0-1.8,0.2-2.6,0.3c-0.6,0.3-1.2,0.6-1.8,0.8c-1.8,0.9-3,2.3-4,4.1
			c-0.9,1.6-0.9,3.3-0.8,5.1h-4.9c-0.1-0.5-0.1-1-0.1-1.5c0-0.6,0.1-1.2,0.3-1.8c0.5-2,1.1-4,2.5-5.7c1.5-1.9,3.3-3.5,5.4-4.6
			H-240.8z"/>
		<path id="XMLID_3898_" class="st0" d="M-240.8,899.6v6.8h-5.9c-0.1-0.3-0.1-0.6-0.1-0.9c0-1.6,0.6-3.1,1.9-4.3
			C-243.7,900.2-242.3,899.7-240.8,899.6z"/>
		<rect id="XMLID_3897_" x="-198.1" y="940.6" class="st0" width="4.8" height="2.7"/>
		<rect id="XMLID_3896_" x="-198.1" y="929.6" class="st0" width="1.9" height="2.3"/>
		<rect id="XMLID_3356_" x="-214.6" y="953.3" class="st0" width="2.3" height="3.2"/>
		<rect id="XMLID_3355_" x="-290.5" y="1019.6" class="st0" width="6.7" height="5.6"/>
		<rect id="XMLID_3354_" x="-224" y="1032.7" class="st0" width="1.6" height="1.4"/>
		<rect id="XMLID_3353_" x="-216.6" y="1015.8" class="st0" width="4.2" height="2.6"/>
		<rect id="XMLID_3352_" x="-280.8" y="1037.7" class="st0" width="2.2" height="1.8"/>
		<rect id="XMLID_3351_" x="-107.8" y="1051.3" class="st0" width="4.1" height="2.4"/>
		<rect id="XMLID_3350_" x="-184.3" y="1064" class="st0" width="8.8" height="4.7"/>
		<rect id="XMLID_3349_" x="-147.9" y="1066.3" class="st0" width="6.8" height="2.3"/>
		<rect id="XMLID_3348_" x="-252.9" y="890" class="st0" width="11.3" height="1"/>
		<rect id="XMLID_3347_" x="-268.5" y="902.6" class="st0" width="6.7" height="3.8"/>
		<rect id="XMLID_3346_" x="-261.8" y="918" class="st0" width="2.6" height="1"/>
		<rect id="XMLID_3345_" x="-269.8" y="890.5" class="st0" width="4.3" height="2.5"/>
		<rect id="XMLID_3344_" x="-190.5" y="908.6" class="st0" width="1.7" height="0"/>
		<rect id="XMLID_3343_" x="-261.8" y="990.5" class="st0" width="3.6" height="3.4"/>
		<rect id="XMLID_3342_" x="-228.7" y="963.4" class="st0" width="2.3" height="1.6"/>
		<rect id="XMLID_3341_" x="-153.1" y="968.5" class="st0" width="11" height="4.4"/>
		<rect id="XMLID_3340_" x="-115.7" y="987.4" class="st0" width="3.1" height="3.1"/>
		<path id="XMLID_3339_" class="st0" d="M-61.3,885h-12.4c-8.8-11.5-19.2-21.6-30.9-30h16.2C-78.1,863.7-69,873.8-61.3,885z"/>
		<path id="XMLID_3338_" class="st0" d="M-30,1004.6c-0.7,3.3-1.5,6.6-2.4,9.8h-10.4c1-3.2,1.8-6.5,2.5-9.8H-30z"/>
		<path id="XMLID_3337_" class="st0" d="M-301.9,1053H-314c-3-4.6-5.7-9.4-8.2-14.3h11.3C-308.2,1043.6-305.2,1048.4-301.9,1053z"/>
		<path id="XMLID_3336_" class="st0" d="M-102.3,1109.5c-3.3,1.8-6.8,3.5-10.2,5h-31.7c5.9-1.3,11.7-3,17.4-5H-102.3z"/>
		<path id="XMLID_3335_" class="st0" d="M-139.8,1109.5c-5.7,2-11.5,3.7-17.4,5L-139.8,1109.5z"/>
		<path id="XMLID_3334_" class="st0" d="M-290.8,870c-0.1,0.1-0.2,0.2-0.3,0.3c-5.9,5.9-11.2,12.1-15.9,18.7h-12.1
			c4.3-6.7,9.2-13,14.5-19H-290.8z"/>
		<path id="XMLID_3333_" class="st0" d="M-322.7,954.9c-0.4,3.3-0.7,6.7-0.9,10.1h-10c0.2-3.4,0.5-6.7,0.8-10.1H-322.7z"/>
		<path id="XMLID_3332_" class="st0" d="M-39.4,961.5h-10c-1.1-11.8-3.6-23.2-7.4-34h10.5C-42.7,938.4-40.4,949.8-39.4,961.5z"/>
		<path id="XMLID_3331_" class="st0" d="M-193.8,817v5c-14.8,0-29.3,2.2-43,6.5h-26.6c9.7-4.9,20-8.8,30.5-11.5H-193.8z"/>
		<rect id="XMLID_2793_" x="-89.6" y="1109.5" class="st0" width="6.6" height="2.5"/>
		<rect id="XMLID_2713_" x="-69.3" y="996.9" class="st0" width="8" height="6.9"/>
		<rect id="XMLID_2712_" x="-33.8" y="931.9" class="st0" width="3.8" height="5.4"/>
		<rect id="XMLID_2711_" x="-216.6" y="831.4" class="st0" width="13.9" height="9"/>
		<rect id="XMLID_2710_" x="-361.8" y="954.9" class="st0" width="3.5" height="2.7"/>
		<rect id="XMLID_2709_" x="-358.3" y="973" class="st0" width="9" height="2.7"/>
		<rect id="XMLID_2699_" x="-337.8" y="1051.3" class="st0" width="8" height="2.4"/>
		<rect id="XMLID_2691_" x="-294.8" y="1052.5" class="st0" width="4" height="4.5"/>
		<rect id="XMLID_2689_" x="-127.3" y="1123" class="st0" width="7.2" height="5"/>
		<rect id="XMLID_2687_" x="-148.5" y="1098" class="st0" width="4.4" height="4"/>
		<rect id="XMLID_2678_" x="-166.3" y="1106" class="st0" width="12" height="3.5"/>
		<rect id="XMLID_2677_" x="-188.8" y="842.5" class="st0" width="6" height="2"/>
		<rect id="XMLID_2676_" x="-244.9" y="847" class="st0" width="9.7" height="3"/>
		<rect id="XMLID_2675_" x="-241.6" y="806" class="st0" width="5" height="6.5"/>
		<rect id="XMLID_2674_" x="-275" y="815" class="st0" width="5.9" height="2"/>
	</g>
	<g id="XMLID_4174_">
		<g id="XMLID_4511_">
			<path id="XMLID_4512_" class="st1" d="M-264.5,834.5c-14.5,7.3-27.9,16.9-39.7,28.7c-2.2,2.2-4.4,4.5-6.5,6.8h13.8
				c16.8-16.7,37-28.7,59-35.5H-264.5z M-339.9,972.5c0-2.5,0.1-5.1,0.2-7.6h-10c-0.1,2.5-0.2,5-0.2,7.6c0,25.2,5.9,49,16.6,70.1
				h11.3C-333.4,1021.8-339.9,997.9-339.9,972.5z M-55.9,1014.4c-6.8,23-19.3,44-36.8,61.3c-15.3,15.2-33.5,26.6-53.3,33.7h24.5
				c13-7,25.1-15.9,35.8-26.7c19.4-19.3,33.1-42.8,40.1-68.4H-55.9z M-40.5,959.5h-10c0.4,4.5,0.6,9,0.6,13.5v0.3
				c0,10.6-1.2,21.1-3.4,31.2h10.2c2.1-10.2,3.2-20.6,3.2-31.2C-39.9,968.7-40.1,964.1-40.5,959.5z M-194,818h-0.7
				c-13.5,0-26.6,1.7-39.3,5h39.1v5h0.8c31.1,0.1,59.8,10.1,83.4,27h16.2C-121.4,832-156.1,818.1-194,818z M-67.4,885h-12.4
				c9.3,12.2,16.7,25.8,21.9,40.6h10.5C-52.1,911-58.9,897.3-67.4,885z M-163.3,1114.5c-10.3,2.3-21,3.5-31.8,3.5h-0.6
				c-48.3-0.2-91.1-24.3-117.3-61h-12.1c27.5,42.5,75.2,70.8,129.3,71h0.7c22.2,0,43.8-4.6,63.5-13.5H-163.3z M-325.2,889
				c-12.9,19.8-20.9,42.3-23.7,65.9h10.1c2.9-23.9,11.7-46.4,25.7-65.9H-325.2z"/>
		</g>
		<g id="XMLID_4459_">
			<path id="XMLID_4509_" class="st1" d="M-168.9,899.7v-7.5h-15.7v8.4h-48.8c-0.3-0.4-0.6-0.9-0.9-1.3c-1.4-1.5-3-2.7-4.9-3.5
				c-1.9-0.8-3.9-1.2-5.9-1.3c-0.6,0-1.1,0.2-1.7,0.3c0,0-0.1,0-0.1,0c-1.1,0.1-2.2,0.3-3.2,0.8c-0.3,0.1-0.6,0.3-0.8,0.4h6.1v3.2
				c0.1,0,0.1,0,0.2,0c2.3,0.1,4.4,0.9,6.1,2.6c1,1,1.9,1.9,2.4,3.3c0.4,0.9,0.7,1.8,0.7,2.8v1c0,2.4-0.9,4.5-2.6,6.2
				c-0.5,0.5-0.9,1-1.5,1.3c-1.3,0.9-2.8,1.5-4.5,1.5c-0.3,0-0.5,0.2-0.7,0.2c-0.4-0.1-0.7-0.3-0.9-0.2c-1.9,0.1-3.4-0.8-4.9-1.8
				c-1.5-1-2.2-2.4-2.9-3.9c-0.2-0.5-0.5-1-0.5-1.5c0-0.4,0-0.7,0-1.1h-4.9c0,0.3,0.1,0.7,0.1,1.1c0.3,1.7,0.8,3.3,1.6,4.9
				c1.1,2,2.5,3.6,4.3,4.9c2.3,1.5,4.9,2.5,7.7,2.4c1,0,1.9,0,2.9,0c1.8,2,3.8,3.8,5.6,5.8c1.5,1.8,3.3,3.3,4.9,5
				c1.6,1.7,3.2,3.4,4.8,5.1c1.7,1.9,3.6,3.6,5.3,5.5c2.2,2.5,4.7,4.8,7,7.3c1.4,1.6,2.9,3,4.4,4.5h3.5v3.2h19v4.3h11v-15.3h-25.8
				c-0.5-0.4-1-0.8-1.4-1.2c-0.7-0.8-1.3-1.6-2.1-2.3c-1.1-1.1-2.1-2.2-3.2-3.3h-12.2v-12.7c-1.5-1.8-3.4-3.4-5-5.1
				c-1.7-1.7-3.3-3.5-5-5.2c-0.5-0.5-1-1-1.6-1.6c0.1-0.3,0-0.7,0.2-0.9c0.7-0.7,0.9-1.7,1.3-2.5c0.3-0.8,0.5-1.8,0.6-2.7
				c0.1-1.3,0-2.7,0-4.1c0-0.3-0.1-0.6-0.2-0.9h46.5v8.3c4.4,0.2,14.5,0.1,15.6-0.1v-7.7h-4.3v3.3c-0.2,0.2-0.3,0.3-0.4,0.4h-5.1
				V896h5.1c0.1,0.1,0.3,0.3,0.4,0.4v3.3H-168.9z"/>
			<path id="XMLID_4508_" class="st1" d="M-157.2,992.3v1.7h23.9v2.9h-120.1c-0.1-0.5,0-1.1-0.1-1.6c0-0.6,0-1.1,0-1.8h82.9v-2.9
				h-82.8v-2.9h71.5v-2.9h-71c0.4-0.6,0.3-1.2,0.7-1.7c0.6-0.7,1-1.6,1.7-2.2c1.3-1.1,2.6-2,4.2-2.5c0.9-0.3,1.8-0.4,2.7-0.4
				c26.5,0,53.1,0,79.6,0c0.1,0,0.3,0,0.5,0v12.2h3.2v-12.1h2.6v12.1h3.5v-12.1h2.6c0.1,2,0,4,0,6c0,2,0,4.1,0,6.1h3.5V978h2.3v12.2
				h3.5V978c1.1,0.4,2.2,0.4,3.2,0.9c0.9,0.4,1.7,0.7,2.3,1.4c1,1,2,1.9,2.7,3.3c0.4,0.9,0.8,1.8,0.8,2.9c0,2,0,4,0,5.9H-157.2z"/>
			<path id="XMLID_4507_" class="st1" d="M-167.2,965c0,3.7,0,7.3,0,11c-18.5,0-37,0-55.5,0c0-3.7,0-7.3,0-11
				C-204.2,965-185.7,965-167.2,965z"/>
			<path id="XMLID_4506_" class="st1" d="M-232.9,1028c0-1,0-2.1,0-3.1c0.2-0.1,0.5-0.3,0.7-0.3c0.3-0.1,0.7,0,1,0
				c25.6,0,51.3,0,77.1,0c0,0.6,0,1.1,0,1.7c0,0.6,0,1.1,0,1.8C-180.3,1028-206.6,1028-232.9,1028z"/>
			<path id="XMLID_4504_" class="st1" d="M-126.1,1026.5h3.3c0-0.1,0-0.3,0-0.3c-2.3-4.1-4.6-7.9-6.8-11.7h-13.9
				c-0.6,1.1-1.3,2.1-1.9,3.2c-0.9,1.7-1.9,3.3-2.9,4.9c-0.6,1-1,2-1.6,3c-0.3,0.6-0.3,0.9,0,1.5c0.4,0.9,1.1,1.7,1.4,2.6
				c0.3,0.9,0.9,1.7,1.4,2.5c1.1,2.1,2.4,4.1,3.6,6.1h14c0-0.2,0-0.3,0.1-0.4c1.5-1.9,2.5-4.1,3.7-6.2c0.2-0.4,0.4-0.8,0.7-1.2
				c0.1-0.2,0.3-0.4,0.4-0.6h-1.9c-0.6,1.8-1.7,3.3-3.2,4.7c-1.2,1.1-2.8,1.7-4.3,2.3c-1.3-0.1-2.5,0.8-3.8,0
				c-1.5,0.1-2.7-0.6-4-1.2c-1.1-0.5-1.8-1.5-2.7-2.3c-1.3-1.1-1.7-2.8-2.5-4.2c0.1-1.2-0.6-2.3-0.3-3.5c0.3-1.1,0.2-2.2,0.8-3.3
				c0.7-1.3,1.4-2.5,2.4-3.5c1.1-1.1,2.4-2,3.9-2.5c0.8-0.2,1.6-0.5,2.4-0.5c0.8,0,1.6,0,2.3,0c0.8,0,2,0.4,3,0.8
				c1.4,0.6,2.6,1.4,3.6,2.5c1.3,1.4,2.1,3.2,2.6,5C-125.9,1024.8-126.1,1025.7-126.1,1026.5L-126.1,1026.5z"/>
			<path id="XMLID_4500_" class="st1" d="M-235.8,1025.6c-0.8-1.4-1.6-2.7-2.3-4.1c-0.4-0.6-0.7-1.3-1-1.9c-0.5-1-1.1-1.8-1.7-2.8
				c-0.3-0.5-0.6-1.1-0.8-1.7c-0.1-0.3-0.4-0.5-0.6-0.7H-256c-2.4,3.8-4.5,7.8-6.9,11.7c0,0.1-0.1,0.4,0,0.6
				c0.6,0.7,0.8,1.5,1.3,2.2c1.1,1.6,2,3.4,3,5c0.5,0.8,0.9,1.7,1.4,2.5c0.4,0.6,0.8,1.2,1.2,1.8h13.8c2.4-3.9,4.6-8,7.1-12.1
				C-235.3,1025.9-235.7,1025.8-235.8,1025.6z M-240.2,1032.2c-0.3,0.5-0.8,0.9-1.2,1.4c-0.8,1-1.8,1.8-3,2.3
				c-1.1,0.5-2.2,1-3.4,0.9c-0.4,0-0.9,0.3-1.3,0.3c-1.7-0.2-3.5-0.4-5-1.3c-1.9-1-3.4-2.5-4.4-4.4c-0.8-1.6-1.5-3.3-1.2-5.2
				c0-0.9,0-1.8,0.2-2.7c0.3-1.2,0.9-2.2,1.5-3.2c1.2-2.1,3.2-3.2,5.4-4.2c0.6-0.3,1.3-0.3,2-0.4c0.8-0.1,1.6-0.1,2.5,0
				c2,0.1,3.8,0.7,5.4,2c0.2,0.2,0.4,0.3,0.6,0.5c1,1,1.9,1.9,2.5,3.2c0.2,0.3,0.3,0.6,0.4,0.9c0.2,0.6,0.5,1.2,0.6,1.9
				c0,0.5,0.2,1,0.3,1.5C-238.3,1028.1-239.1,1030.2-240.2,1032.2z"/>
			<path id="XMLID_4499_" class="st1" d="M-178.1,1053.6c-0.1-0.1-0.2-0.2-0.4-0.4c0-4.2,0-8.4,0-12.7c0.3-0.1,0.6-0.2,0.9-0.3
				c1.7,0,3.4,0,5.1,0c0,4.4,0,8.9,0,13.3C-174.3,1053.6-176.2,1053.6-178.1,1053.6z"/>
			<path id="XMLID_4498_" class="st1" d="M-226.7,1040.7c0.2-0.2,0.3-0.3,0.4-0.4c1.9,0,3.7,0,5.7,0c0,4.4,0,8.8,0,13.3
				c-1.9,0.1-3.8,0-5.6,0.1c-0.2-0.2-0.3-0.3-0.4-0.4C-226.7,1049.1-226.7,1044.9-226.7,1040.7z"/>
			<path id="XMLID_4497_" class="st1" d="M-220.7,1012.3c-2,0-4,0-6,0c0-4.3,0-8.6,0-13c2-0.1,4,0,6-0.1
				C-220.7,1003.6-220.7,1007.9-220.7,1012.3z"/>
			<path id="XMLID_4496_" class="st1" d="M-172.4,999.3c0,4.4,0,8.7,0,13c-2,0-4,0-6,0c0-4.3,0-8.7,0-13.1
				C-176.4,999.3-174.4,999.2-172.4,999.3z"/>
			<path id="XMLID_4495_" class="st1" d="M-190.4,1053.6c0-4.4,0-8.8,0-13.3c1.9,0,3.8,0,5.7,0c0.2,1.2,0.3,9.2,0.1,13.3
				C-186.5,1053.6-188.4,1053.6-190.4,1053.6z"/>
			<path id="XMLID_4494_" class="st1" d="M-238.7,1053.6c0-4.4,0-8.8,0-13.3c1.9,0,3.8,0,5.7,0c0.2,1.2,0.3,8.8,0.1,13.3
				C-234.8,1053.6-236.7,1053.6-238.7,1053.6z"/>
			<path id="XMLID_4493_" class="st1" d="M-214.5,1040.3c1.9,0,3.8,0,5.7,0c0,4.4,0,8.8,0,13.3c-1.9,0.1-3.8,0-5.7,0.1
				C-214.5,1049.2-214.5,1044.8-214.5,1040.3z"/>
			<path id="XMLID_4492_" class="st1" d="M-166.2,1053.6c0-4.4,0-8.8,0-13.3c1,0,2-0.1,3,0c0.9,0.1,1.9-0.4,2.8,0.3
				c0,4.3,0,8.6,0,13C-162.4,1053.6-164.2,1053.6-166.2,1053.6z"/>
			<path id="XMLID_4491_" class="st1" d="M-202.3,1053.6c0-4.4,0-8.8,0-13.3c1.8,0,3.6,0,5.4,0c0.1,0.1,0.2,0.2,0.4,0.4
				c0,4.2,0,8.4,0,12.6c-0.1,0.1-0.2,0.2-0.4,0.4C-198.6,1053.6-200.4,1053.6-202.3,1053.6z"/>
			<path id="XMLID_4490_" class="st1" d="M-148.2,1053.2c-0.2,0.2-0.3,0.3-0.4,0.4c-1.8,0-3.6,0-5.4,0c0-4.4,0-8.8,0-13.3
				c0,0,0,0,0.1-0.1c0,0,0.1,0,0.1,0c1.7,0,3.5,0,5.1,0c0.5,0.3,0.5,0.6,0.5,1c0,2.7,0,5.4,0,8.1
				C-148.2,1050.7-148.2,1052-148.2,1053.2z"/>
			<path id="XMLID_4489_" class="st1" d="M-136.3,1040.3c0,4.4,0,8.8,0,13.3c-1,0-2,0.1-3,0c-0.9-0.1-1.9,0.4-2.8-0.3
				c0-4.2,0-8.4,0-12.6c0.1-0.1,0.2-0.2,0.4-0.4C-140,1040.3-138.2,1040.3-136.3,1040.3z"/>
			<path id="XMLID_4488_" class="st1" d="M-244.9,1053.3c-0.2,0.2-0.3,0.3-0.4,0.4c-1.8,0-3.6,0-5.4,0c0-4.4,0-8.8,0-13.3
				c1.8-0.1,3.6,0,5.3-0.1c0.2,0.2,0.3,0.3,0.4,0.4C-244.9,1044.8-244.9,1049-244.9,1053.3z"/>
			<path id="XMLID_4487_" class="st1" d="M-261.3,1040.1c1.3,0.1,2.6,0.2,3.9,0.3c0.1,0.1,0.2,0.2,0.3,0.3c0,4.3,0,8.5,0,12.9
				c-1.2,0.4-2.4-0.3-3.7-0.3c-1.2,0-2.3-0.4-3.6-0.6c0.1-0.8,0.1-1.7,0.4-2.3c0.3-0.6,0.2-1.3,0.5-1.8c0.3-0.5,0.1-1.3,0.4-1.7
				c0.6-1.2,0.7-2.5,1.1-3.8C-261.7,1042.1-261.5,1041.1-261.3,1040.1z"/>
			<path id="XMLID_4486_" class="st1" d="M-257.1,1010v2.3c-1.4,0.1-2.8,0.2-4.2,0.3c-0.2-0.9-0.4-1.7-0.5-2.6H-257.1z"/>
			<path id="XMLID_4485_" class="st1" d="M-275.2,1034.5c-0.6,0.3-1.1,0.5-1.7,0.7c-1.7,0.7-3.2,1.6-4.9,2.3
				c-0.3,0.1-0.5,0.1-0.8,0.2c-0.6-1.3-1-2.3-1.3-3.2H-275.2z"/>
			<path id="XMLID_4484_" class="st1" d="M-270.7,1032.2c-0.3,0.1-0.6,0.3-0.9,0.4v-3.3C-271.2,1030.3-271,1031.3-270.7,1032.2z"/>
			<path id="XMLID_4483_" class="st1" d="M-270.7,1020.4c-0.4,1.3-0.7,2.6-1.1,3.9c-1.2-0.2-2.6-0.5-4-0.6c-0.9-0.1-1.8-0.1-2.7-0.5
				c0,0-0.1,0-0.1,0c-0.7,0-1.5-0.1-2.2-0.2c-0.7-0.2-1.5-0.1-2.2-0.3c-0.4-0.1-0.9,0-1.3,0c-0.2-0.2-0.3-0.3-0.5-0.5
				c0.5-2.4,1.2-4.8,2.2-7.2c0.4,0.2,0.8,0.5,1.2,0.7c2,0.7,3.9,1.8,5.9,2.7c1.3,0.6,2.5,1.2,3.8,1.7
				C-271.4,1020.1-271.1,1020.2-270.7,1020.4z"/>
			<path id="XMLID_4482_" class="st1" d="M-129.3,999.2c1,0.2,1.8,0.3,2.7,0.5c0.8,0.2,1.7,0.3,2.5,0.6c0.8,0.3,1.6,0.7,2.4,0.9
				c-1.7,4-3.3,7.9-5,12c-1.1-0.3-2.3-0.7-3.6-1c0.1-1.1-0.3-2.2,0.3-3.4c0,0,0-0.1,0-0.1c0.1-1.4,0.2-2.8,0.3-4.2
				c0.1-0.6,0.2-1.2,0.3-1.8c0.1-0.5-0.1-1.1,0.2-1.7C-129.1,1000.7-129.3,1000-129.3,999.2z"/>
			<path id="XMLID_4481_" class="st1" d="M-121.8,1051.5c-2.4,0.9-4.9,1.6-7.6,1.9c0.2-1.4-0.4-2.6-0.3-3.9c0.1-0.6-0.2-1.3-0.3-2
				c-0.1-0.7,0.2-1.4-0.3-2.1c0,0,0-0.1,0-0.1c-0.1-1.7-0.2-3.3-0.4-4.9c1.3-0.3,2.5-0.7,3.7-1
				C-125.2,1043.4-123.5,1047.5-121.8,1051.5z"/>
			<path id="XMLID_4480_" class="st1" d="M-142.1,999.3c1.9,0,3.8,0,5.7,0c0,4.3,0,8.6,0,13c-1.9,0.1-3.8,0-5.7,0.1
				C-142.1,1008-142.1,1003.7-142.1,999.3z"/>
			<path id="XMLID_4479_" class="st1" d="M-154,999.3c1.9,0,3.8,0,5.7,0c0,4.3,0,8.6,0,13c-1.9,0.1-3.8,0-5.7,0.1
				C-154,1008-154,1003.7-154,999.3z"/>
			<path id="XMLID_4478_" class="st1" d="M-160.5,1012.3c-1.9,0-3.8,0-5.7,0c0-4.3,0-8.6,0-13c1.9-0.1,3.8,0,5.7-0.1
				C-160.5,1003.6-160.5,1007.9-160.5,1012.3z"/>
			<path id="XMLID_4477_" class="st1" d="M-190.4,999.3c1.9,0,3.8,0,5.7,0c0,4.3,0,8.6,0,13c0,0,0,0-0.1,0.1c0,0-0.1,0-0.1,0
				c-1.8,0-3.7,0-5.5,0C-190.4,1008-190.4,1003.7-190.4,999.3z"/>
			<path id="XMLID_4476_" class="st1" d="M-202.3,999.3c1.9,0,3.8,0,5.7,0c0,4.3,0,8.6,0,13c-1.9,0.1-3.8,0-5.7,0.1
				C-202.3,1008-202.3,1003.7-202.3,999.3z"/>
			<path id="XMLID_4475_" class="st1" d="M-214.5,1012.3c0-4.3,0-8.6,0-13c1.9,0,3.8,0,5.7,0c0.2,1.2,0.3,8.8,0.1,13
				C-210.7,1012.3-212.5,1012.3-214.5,1012.3z"/>
			<path id="XMLID_4474_" class="st1" d="M-232.9,1012.3c-1.9,0-3.8,0-5.7,0c0-4.3,0-8.6,0-13c1.9-0.1,3.8,0,5.7-0.1
				C-232.9,1003.6-232.9,1007.9-232.9,1012.3z"/>
			<path id="XMLID_4473_" class="st1" d="M-250.6,999.3c1.9,0,3.8,0,5.8,0c0,0.4,0,0.8,0,1.3c0,3.5,0,7.1,0,10.6
				c0,0.4,0.1,0.9-0.5,1.2c-1.7,0-3.5,0-5.3,0C-250.6,1008-250.6,1003.6-250.6,999.3z"/>
			<path id="XMLID_4472_" class="st1" d="M-122.9,1037.3c0.3-1.2,1.8-1.6,2.1-2.8c1-0.2,1.6,0.5,2.1,0.9c1,0.9,2.2,1.4,3.2,2.2
				c1.6,1.2,3.4,2.2,5.1,3.4c0.2,0.1,0.4,0.2,0.6,0.3c0,0.2,0.1,0.5,0,0.6c-1.6,1.7-2.7,4-4.9,5.1c-0.9-1-1.9-1.9-2.7-2.9
				c-0.8-0.9-1.5-1.9-2.3-2.8C-120.8,1040-121.8,1038.7-122.9,1037.3z"/>
			<path id="XMLID_4471_" class="st1" d="M-265.3,1014.2c-0.9,0.8-1.8,1.6-2.9,2.6c-2.6-2.3-5.1-4.6-7.7-6.8h8
				C-267,1011.4-266.2,1012.8-265.3,1014.2z"/>
			<path id="XMLID_4470_" class="st1" d="M-268.4,1035.9c1.1,0.9,2.1,1.6,3.1,2.4c-2.2,3.6-4.5,7.3-6.7,11c-2.4-1.1-4.1-2.9-5.9-4.8
				c1-0.9,1.7-2,2.9-2.6c0.1-0.1,0.2-0.2,0.3-0.3c1.1-1.1,2.2-2.2,3.5-3.2C-270.2,1037.8-269.3,1036.8-268.4,1035.9z"/>
			<path id="XMLID_4469_" class="st1" d="M-109.8,1010.9c0,0.1,0,0.3,0,0.5c-3.6,2.4-7.1,4.7-10.6,7.1c-0.8-0.9-1.6-1.8-2.5-2.9
				c0.2-0.3,0.4-0.8,0.7-1.1c1.3-1.7,2.8-3.3,4.1-5c0.6-0.8,1.3-1.5,1.9-2.3c0.4-0.5,0.9-1.1,1.4-1.7
				C-113,1007.3-111.2,1008.8-109.8,1010.9z"/>
			<path id="XMLID_4468_" class="st1" d="M-105.2,1029.8c-0.2,1.4-0.6,2.8-0.8,4.3c-2.3-0.9-4.8-1.2-7.1-2.3
				c-1.5-0.1-2.9-0.8-4.3-1.2c-0.3-0.1-0.7-0.2-1.2-0.4c0-0.2,0.1-0.3,0.1-0.5c0.1-0.6,0.2-1.1,0.3-1.7h13
				C-105.1,1028.7-105.2,1029.3-105.2,1029.8z"/>
			<path id="XMLID_4467_" class="st1" d="M-106.1,1018.6c0.3,1.1,0.5,2,0.7,2.8c0.2,0.9,0.3,1.8,0.4,2.6c-1.2,0.2-9,0.3-13.2,0.1
				c-0.1-0.6-0.2-1.2-0.4-1.9C-114.4,1021.2-110.4,1019.7-106.1,1018.6z"/>
			<path id="XMLID_4466_" class="st1" d="M-239,908.7c0.1,3.2-2.5,5.9-5.8,5.9c-3.2,0-5.5-2.1-6-5.1h5.9v-6.8c0.1,0,0.1,0,0.2,0
				C-241.8,902.6-238.8,905.1-239,908.7z"/>
			<path id="XMLID_4464_" class="st1" d="M-131.5,1029.8c-0.3,0.3-0.6,0.5-0.9,0.9c0.1-0.3,0.1-0.6,0.1-0.9h-4v-3.3h4
				c-0.2-0.8-0.5-1.6-1-2.3c-1.3-1.9-3-3.3-5.6-3.7c2-0.8,3.7-0.6,5.3,0.1c1.4,0.8,2.5,2,3,3.4c0.2,0.7,0.4,1.3,0.4,1.9
				c0,0.2,0,0.4,0,0.6h1.5c0-0.4-0.2-0.8-0.3-1.3c-0.2-1.4-0.4-2.2-1.2-3.3c-0.9-1.2-2-2.3-3.4-2.8c-1.5-0.5-3.1-0.9-4.9-0.4
				c-1.5,0.5-2.9,1.1-3.9,2.2c-1.3,1.5-2.3,3.2-2.1,5.4c-0.1,1.5,0.4,2.8,1.1,4.1c1,1.7,2.4,2.7,4.2,3.4c0.4,0.2,0.9-0.2,1.2,0.3
				c0.9,0,1.9,0.2,2.7,0c1.6-0.4,3.1-1.2,4.4-2.5c0.6-0.6,0.9-1.2,1.2-1.8H-131.5z"/>
			<path id="XMLID_4460_" class="st1" d="M-243.7,1020.7c-1.4-1.4-3.2-2.3-5.3-2.3c-2.3,0-4.3,0.9-5.9,2.6c-1.3,1.3-2.3,3.8-2.2,5.5
				c0.3,4.2,3.2,7.5,7.9,7.6c2.2,0.1,4.1-0.8,5.7-2.4c1.4-1.5,2.1-3.3,2.1-5.7C-241.2,1024.1-242.2,1022.2-243.7,1020.7z
				 M-244.8,1030.5c0-0.4-0.1-0.8,0-1.1c0.3-0.8,0.2-1.6,0-2.4c-0.2-1-0.5-1.8-0.9-2.7c-1-1.8-2.4-3-4.3-3.6
				c-0.3-0.1-0.6-0.3-0.9-0.4c1-0.6,2.1-0.5,3.2-0.3c2.1,0.3,3.4,1.6,4.4,3.4C-242,1026-243.1,1029.2-244.8,1030.5z"/>
		</g>
		<path id="XMLID_4458_" class="st1" d="M-206.2,938.3h-12.2v-12.7c2.5,3,5.5,5.5,8.1,8.4C-209,935.4-207.6,936.9-206.2,938.3z"/>
		<path id="XMLID_4457_" class="st1" d="M-210.8,958v3.2c-1.1-0.3-1.3-1-1.8-1.5c-0.6-0.6-1.2-1.1-1.7-1.7H-210.8z"/>
		<rect id="XMLID_4456_" x="-190.4" y="889" class="st1" width="2.9" height="2"/>
		<rect id="XMLID_4455_" x="-178.4" y="879.3" class="st1" width="6" height="2.3"/>
		<rect id="XMLID_4454_" x="-163.4" y="892.2" class="st1" width="2.9" height="3.8"/>
		<rect id="XMLID_4453_" x="-163.4" y="911.6" class="st1" width="4.1" height="2.9"/>
		<rect id="XMLID_4452_" x="-168.9" y="936.3" class="st1" width="1.8" height="2"/>
		<rect id="XMLID_4451_" x="-157.2" y="953.3" class="st1" width="7" height="4.2"/>
		<rect id="XMLID_4450_" x="-136.5" y="966.6" class="st1" width="6.3" height="3.8"/>
		<rect id="XMLID_4449_" x="-118.6" y="980.3" class="st1" width="4.7" height="1.5"/>
		<rect id="XMLID_4448_" x="-105.1" y="994" class="st1" width="2.2" height="0"/>
		<rect id="XMLID_4447_" x="-101.6" y="992.3" class="st1" width="0.7" height="0"/>
		<rect id="XMLID_4446_" x="-273.9" y="955.4" class="st1" width="8.6" height="2.1"/>
		<rect id="XMLID_4445_" x="-292.9" y="973" class="st1" width="6" height="2.7"/>
		<path id="XMLID_4444_" class="st1" d="M-267.9,1010h-8c-0.7-0.6-1.4-1.3-2.1-1.9c1.7-1.9,3.7-3.5,5.9-4.9
			C-270.7,1005.5-269.3,1007.7-267.9,1010z"/>
		<path id="XMLID_4443_" class="st1" d="M-257.1,999.3v10.7h-4.8c-0.1-0.5-0.3-1.1-0.5-1.6c-0.5-1.4-0.8-2.8-1.1-4.2
			c-0.3-1.4-1-2.8-0.9-4.3C-261.9,999.4-259.6,999.1-257.1,999.3z"/>
		<path id="XMLID_4442_" class="st1" d="M-274.6,1026.3v3.3l-3.7,1.8h-8.5c-0.4-1.4-0.7-2.5-1-4c1.2-0.2,2.3-0.5,3.3-0.6
			c1.1-0.1,2.1-0.3,3.2-0.4c1.1-0.1,2.1-0.4,3.3-0.5c1.1-0.1,2.1-0.2,3.1-0.3C-274.7,1025.8-274.6,1026.1-274.6,1026.3z"/>
		<path id="XMLID_4441_" class="st1" d="M-271.6,1032.7c-1.2,0.6-2.4,1.2-3.7,1.8L-271.6,1032.7z"/>
		<path id="XMLID_4440_" class="st1" d="M-271.6,1032.7c-1.2,0.6-2.4,1.2-3.7,1.8L-271.6,1032.7z"/>
		<path id="XMLID_4439_" class="st1" d="M-126.7,1026.5C-126.7,1026.5-126.7,1026.5-126.7,1026.5c-0.2,1.2-0.4,2.3-0.9,3.3h-1.9
			c0.1-0.2,0.2-0.3,0.3-0.5c0.2-0.5,0.6-1,0.8-1.6c0.1-0.4,0.2-0.8,0.3-1.3H-126.7z"/>
		<path id="XMLID_4438_" class="st1" d="M-130.3,1029.8h-4v-3.3h4C-130.1,1027.5-130.1,1028.7-130.3,1029.8z"/>
		<path id="XMLID_4437_" class="st1" d="M-120.9,1026.5c0,0.1,0,0.2-0.1,0.2c-0.7,1-1.3,2.1-1.8,3.1h-1.9c0.3-1,0.5-2.2,0.5-3.3
			H-120.9z"/>
		<path id="XMLID_4436_" class="st1" d="M-103.2,1029.8h-13.3c0.1-0.6,0.2-1.1,0.3-1.7h13C-103.1,1028.7-103.2,1029.3-103.2,1029.8z
			"/>
		<path id="XMLID_4435_" class="st1" d="M-230.1,1019.5h-4.6v-4.7h1.9c0.5,0.9,1.2,1.8,1.7,2.8
			C-230.8,1018.2-230.5,1018.9-230.1,1019.5z"/>
		<rect id="XMLID_4434_" x="-147.2" y="992.3" class="st1" width="23.9" height="1.7"/>
		<path id="XMLID_4433_" class="st1" d="M-246.9,893v3.2c-0.9,0-1.8,0.2-2.6,0.3c-0.6,0.3-1.2,0.6-1.8,0.8c-1.8,0.9-3,2.3-4,4.1
			c-0.9,1.6-0.9,3.3-0.8,5.1h-4.9c-0.1-0.5-0.1-1-0.1-1.5c0-0.6,0.1-1.2,0.3-1.8c0.5-2,1.1-4,2.5-5.7c1.5-1.9,3.3-3.5,5.4-4.6
			H-246.9z"/>
		<path id="XMLID_4432_" class="st1" d="M-246.9,899.6v6.8h-5.9c-0.1-0.3-0.1-0.6-0.1-0.9c0-1.6,0.6-3.1,1.9-4.3
			C-249.8,900.2-248.4,899.7-246.9,899.6z"/>
		<rect id="XMLID_4431_" x="-204.2" y="940.6" class="st1" width="4.8" height="2.7"/>
		<rect id="XMLID_4430_" x="-204.2" y="929.6" class="st1" width="1.9" height="2.3"/>
		<rect id="XMLID_4429_" x="-220.7" y="953.3" class="st1" width="2.3" height="3.2"/>
		<rect id="XMLID_4428_" x="-296.6" y="1019.6" class="st1" width="6.7" height="5.6"/>
		<rect id="XMLID_4427_" x="-230.1" y="1032.7" class="st1" width="1.6" height="1.4"/>
		<rect id="XMLID_4426_" x="-222.7" y="1015.8" class="st1" width="4.2" height="2.6"/>
		<rect id="XMLID_4425_" x="-286.9" y="1037.7" class="st1" width="2.2" height="1.8"/>
		<rect id="XMLID_4424_" x="-113.9" y="1051.3" class="st1" width="4.1" height="2.4"/>
		<rect id="XMLID_4423_" x="-190.4" y="1064" class="st1" width="8.8" height="4.7"/>
		<rect id="XMLID_4422_" x="-154" y="1066.3" class="st1" width="6.8" height="2.3"/>
		<rect id="XMLID_4421_" x="-259" y="890" class="st1" width="11.3" height="1"/>
		<rect id="XMLID_4420_" x="-274.6" y="902.6" class="st1" width="6.7" height="3.8"/>
		<rect id="XMLID_4419_" x="-267.9" y="918" class="st1" width="2.6" height="1"/>
		<rect id="XMLID_4418_" x="-275.9" y="890.5" class="st1" width="4.3" height="2.5"/>
		<rect id="XMLID_4417_" x="-196.6" y="908.6" class="st1" width="1.7" height="0"/>
		<rect id="XMLID_4416_" x="-267.9" y="990.5" class="st1" width="3.6" height="3.4"/>
		<rect id="XMLID_4415_" x="-234.8" y="963.4" class="st1" width="2.3" height="1.6"/>
		<rect id="XMLID_4414_" x="-159.2" y="968.5" class="st1" width="11" height="4.4"/>
		<rect id="XMLID_4413_" x="-121.8" y="987.4" class="st1" width="3.1" height="3.1"/>
		<path id="XMLID_4412_" class="st1" d="M-67.4,885h-12.4c-8.8-11.5-19.2-21.6-30.9-30h16.2C-84.2,863.7-75.1,873.8-67.4,885z"/>
		<path id="XMLID_4411_" class="st1" d="M-36.1,1004.6c-0.7,3.3-1.5,6.6-2.4,9.8h-10.4c1-3.2,1.8-6.5,2.5-9.8H-36.1z"/>
		<path id="XMLID_4410_" class="st1" d="M-308,1053h-12.1c-3-4.6-5.7-9.4-8.2-14.3h11.3C-314.3,1043.6-311.3,1048.4-308,1053z"/>
		<path id="XMLID_4409_" class="st1" d="M-108.4,1109.5c-3.3,1.8-6.8,3.5-10.2,5h-31.7c5.9-1.3,11.7-3,17.4-5H-108.4z"/>
		<path id="XMLID_4408_" class="st1" d="M-145.9,1109.5c-5.7,2-11.5,3.7-17.4,5L-145.9,1109.5z"/>
		<path id="XMLID_4407_" class="st1" d="M-296.9,870c-0.1,0.1-0.2,0.2-0.3,0.3c-5.9,5.9-11.2,12.1-15.9,18.7h-12.1
			c4.3-6.7,9.2-13,14.5-19H-296.9z"/>
		<path id="XMLID_4406_" class="st1" d="M-328.8,954.9c-0.4,3.3-0.7,6.7-0.9,10.1h-10c0.2-3.4,0.5-6.7,0.8-10.1H-328.8z"/>
		<path id="XMLID_4405_" class="st1" d="M-45.5,961.5h-10c-1.1-11.8-3.6-23.2-7.4-34h10.5C-48.8,938.4-46.5,949.8-45.5,961.5z"/>
		<path id="XMLID_4404_" class="st1" d="M-199.9,817v5c-14.8,0-29.3,2.2-43,6.5h-26.6c9.7-4.9,20-8.8,30.5-11.5H-199.9z"/>
		<rect id="XMLID_4403_" x="-95.7" y="1109.5" class="st1" width="6.6" height="2.5"/>
		<rect id="XMLID_4402_" x="-75.4" y="996.9" class="st1" width="8" height="6.9"/>
		<rect id="XMLID_4187_" x="-39.9" y="931.9" class="st1" width="3.8" height="5.4"/>
		<rect id="XMLID_4186_" x="-222.7" y="831.4" class="st1" width="13.9" height="9"/>
		<rect id="XMLID_4185_" x="-367.9" y="954.9" class="st1" width="3.5" height="2.7"/>
		<rect id="XMLID_4184_" x="-364.4" y="973" class="st1" width="9" height="2.7"/>
		<rect id="XMLID_4183_" x="-343.9" y="1051.3" class="st1" width="8" height="2.4"/>
		<rect id="XMLID_4182_" x="-300.9" y="1052.5" class="st1" width="4" height="4.5"/>
		<rect id="XMLID_4181_" x="-133.4" y="1123" class="st1" width="7.2" height="5"/>
		<rect id="XMLID_4180_" x="-154.6" y="1098" class="st1" width="4.4" height="4"/>
		<rect id="XMLID_4179_" x="-172.4" y="1106" class="st1" width="12" height="3.5"/>
		<rect id="XMLID_4178_" x="-194.9" y="842.5" class="st1" width="6" height="2"/>
		<rect id="XMLID_4177_" x="-251" y="847" class="st1" width="9.7" height="3"/>
		<rect id="XMLID_4176_" x="-247.7" y="806" class="st1" width="5" height="6.5"/>
		<rect id="XMLID_4175_" x="-281.1" y="815" class="st1" width="5.9" height="2"/>
	</g>
	<g id="XMLID_2671_">
		<g id="XMLID_417_">
			<path id="XMLID_273_" class="st2" d="M-261.6,834.5c-14.5,7.3-27.9,16.9-39.7,28.7c-2.2,2.2-4.4,4.5-6.5,6.8h13.8
				c16.8-16.7,37-28.7,59-35.5H-261.6z M-337,972.5c0-2.5,0.1-5.1,0.2-7.6h-10c-0.1,2.5-0.2,5-0.2,7.6c0,25.2,5.9,49,16.6,70.1h11.3
				C-330.5,1021.8-337,997.9-337,972.5z M-52.9,1014.4c-6.8,23-19.3,44-36.8,61.3c-15.3,15.2-33.5,26.6-53.3,33.7h24.5
				c13-7,25.1-15.9,35.8-26.7c19.4-19.3,33.1-42.8,40.1-68.4H-52.9z M-37.6,959.5h-10c0.4,4.5,0.6,9,0.6,13.5v0.3
				c0,10.6-1.2,21.1-3.4,31.2h10.2c2.1-10.2,3.2-20.6,3.2-31.2C-37,968.7-37.2,964.1-37.6,959.5z M-191.1,818h-0.7
				c-13.5,0-26.6,1.7-39.3,5h39.1v5h0.8c31.1,0.1,59.8,10.1,83.4,27h16.2C-118.4,832-153.2,818.1-191.1,818z M-64.5,885h-12.4
				c9.3,12.2,16.7,25.8,21.9,40.6h10.5C-49.1,911-55.9,897.3-64.5,885z M-160.4,1114.5c-10.3,2.3-21,3.5-31.8,3.5h-0.6
				c-48.3-0.2-91.1-24.3-117.3-61h-12.1c27.5,42.5,75.2,70.8,129.3,71h0.7c22.2,0,43.8-4.6,63.5-13.5H-160.4z M-322.3,889
				c-12.9,19.8-20.9,42.3-23.7,65.9h10.1c2.9-23.9,11.7-46.4,25.7-65.9H-322.3z"/>
		</g>
		<g id="XMLID_278_">
			<path id="XMLID_411_" class="st2" d="M-166,899.7v-7.5h-15.7v8.4h-48.8c-0.3-0.4-0.6-0.9-0.9-1.3c-1.4-1.5-3-2.7-4.9-3.5
				c-1.9-0.8-3.9-1.2-5.9-1.3c-0.6,0-1.1,0.2-1.7,0.3c0,0-0.1,0-0.1,0c-1.1,0.1-2.2,0.3-3.2,0.8c-0.3,0.1-0.6,0.3-0.8,0.4h6.1v3.2
				c0.1,0,0.1,0,0.2,0c2.3,0.1,4.4,0.9,6.1,2.6c1,1,1.9,1.9,2.4,3.3c0.4,0.9,0.7,1.8,0.7,2.8v1c0,2.4-0.9,4.5-2.6,6.2
				c-0.5,0.5-0.9,1-1.5,1.3c-1.3,0.9-2.8,1.5-4.5,1.5c-0.3,0-0.5,0.2-0.7,0.2c-0.4-0.1-0.7-0.3-0.9-0.2c-1.9,0.1-3.4-0.8-4.9-1.8
				c-1.5-1-2.2-2.4-2.9-3.9c-0.2-0.5-0.5-1-0.5-1.5c0-0.4,0-0.7,0-1.1h-4.9c0,0.3,0.1,0.7,0.1,1.1c0.3,1.7,0.8,3.3,1.6,4.9
				c1.1,2,2.5,3.6,4.3,4.9c2.3,1.5,4.9,2.5,7.7,2.4c1,0,1.9,0,2.9,0c1.8,2,3.8,3.8,5.6,5.8c1.5,1.8,3.3,3.3,4.9,5
				c1.6,1.7,3.2,3.4,4.8,5.1c1.7,1.9,3.6,3.6,5.3,5.5c2.2,2.5,4.7,4.8,7,7.3c1.4,1.6,2.9,3,4.4,4.5h3.5v3.2h19v4.3h11v-15.3h-25.8
				c-0.5-0.4-1-0.8-1.4-1.2c-0.7-0.8-1.3-1.6-2.1-2.3c-1.1-1.1-2.1-2.2-3.2-3.3h-12.2v-12.7c-1.5-1.8-3.4-3.4-5-5.1
				c-1.7-1.7-3.3-3.5-5-5.2c-0.5-0.5-1-1-1.6-1.6c0.1-0.3,0-0.7,0.2-0.9c0.7-0.7,0.9-1.7,1.3-2.5c0.3-0.8,0.5-1.8,0.6-2.7
				c0.1-1.3,0-2.7,0-4.1c0-0.3-0.1-0.6-0.2-0.9h46.5v8.3c4.4,0.2,14.5,0.1,15.6-0.1v-7.7h-4.3v3.3c-0.2,0.2-0.3,0.3-0.4,0.4h-5.1
				V896h5.1c0.1,0.1,0.3,0.3,0.4,0.4v3.3H-166z"/>
			<path id="XMLID_2629_" class="st2" d="M-154.3,992.3v1.7h23.9v2.9h-120.1c-0.1-0.5,0-1.1-0.1-1.6c0-0.6,0-1.1,0-1.8h82.9v-2.9
				h-82.8v-2.9h71.5v-2.9h-71c0.4-0.6,0.3-1.2,0.7-1.7c0.6-0.7,1-1.6,1.7-2.2c1.3-1.1,2.6-2,4.2-2.5c0.9-0.3,1.8-0.4,2.7-0.4
				c26.5,0,53.1,0,79.6,0c0.1,0,0.3,0,0.5,0v12.2h3.2v-12.1h2.6v12.1h3.5v-12.1h2.6c0.1,2,0,4,0,6c0,2,0,4.1,0,6.1h3.5V978h2.3v12.2
				h3.5V978c1.1,0.4,2.2,0.4,3.2,0.9c0.9,0.4,1.7,0.7,2.3,1.4c1,1,2,1.9,2.7,3.3c0.4,0.9,0.8,1.8,0.8,2.9c0,2,0,4,0,5.9H-154.3z"/>
			<path id="XMLID_409_" class="st2" d="M-164.2,965c0,3.7,0,7.3,0,11c-18.5,0-37,0-55.5,0c0-3.7,0-7.3,0-11
				C-201.3,965-182.8,965-164.2,965z"/>
			<path id="XMLID_408_" class="st2" d="M-229.9,1028c0-1,0-2.1,0-3.1c0.2-0.1,0.5-0.3,0.7-0.3c0.3-0.1,0.7,0,1,0
				c25.6,0,51.3,0,77.1,0c0,0.6,0,1.1,0,1.7c0,0.6,0,1.1,0,1.8C-177.4,1028-203.7,1028-229.9,1028z"/>
			<path id="XMLID_405_" class="st2" d="M-123.2,1026.5h3.3c0-0.1,0-0.3,0-0.3c-2.3-4.1-4.6-7.9-6.8-11.7h-13.9
				c-0.6,1.1-1.3,2.1-1.9,3.2c-0.9,1.7-1.9,3.3-2.9,4.9c-0.6,1-1,2-1.6,3c-0.3,0.6-0.3,0.9,0,1.5c0.4,0.9,1.1,1.7,1.4,2.6
				c0.3,0.9,0.9,1.7,1.4,2.5c1.1,2.1,2.4,4.1,3.6,6.1h14c0-0.2,0-0.3,0.1-0.4c1.5-1.9,2.5-4.1,3.7-6.2c0.2-0.4,0.4-0.8,0.7-1.2
				c0.1-0.2,0.3-0.4,0.4-0.6h-1.9c-0.6,1.8-1.7,3.3-3.2,4.7c-1.2,1.1-2.8,1.7-4.3,2.3c-1.3-0.1-2.5,0.8-3.8,0
				c-1.5,0.1-2.7-0.6-4-1.2c-1.1-0.5-1.8-1.5-2.7-2.3c-1.3-1.1-1.7-2.8-2.5-4.2c0.1-1.2-0.6-2.3-0.3-3.5c0.3-1.1,0.2-2.2,0.8-3.3
				c0.7-1.3,1.4-2.5,2.4-3.5c1.1-1.1,2.4-2,3.9-2.5c0.8-0.2,1.6-0.5,2.4-0.5c0.8,0,1.6,0,2.3,0c0.8,0,2,0.4,3,0.8
				c1.4,0.6,2.6,1.4,3.6,2.5c1.3,1.4,2.1,3.2,2.6,5C-123,1024.8-123.2,1025.7-123.2,1026.5L-123.2,1026.5z"/>
			<path id="XMLID_402_" class="st2" d="M-232.9,1025.6c-0.8-1.4-1.6-2.7-2.3-4.1c-0.4-0.6-0.7-1.3-1-1.9c-0.5-1-1.1-1.8-1.7-2.8
				c-0.3-0.5-0.6-1.1-0.8-1.7c-0.1-0.3-0.4-0.5-0.6-0.7h-13.7c-2.4,3.8-4.5,7.8-6.9,11.7c0,0.1-0.1,0.4,0,0.6
				c0.6,0.7,0.8,1.5,1.3,2.2c1.1,1.6,2,3.4,3,5c0.5,0.8,0.9,1.7,1.4,2.5c0.4,0.6,0.8,1.2,1.2,1.8h13.8c2.4-3.9,4.6-8,7.1-12.1
				C-232.4,1025.9-232.7,1025.8-232.9,1025.6z M-237.3,1032.2c-0.3,0.5-0.8,0.9-1.2,1.4c-0.8,1-1.8,1.8-3,2.3
				c-1.1,0.5-2.2,1-3.4,0.9c-0.4,0-0.9,0.3-1.3,0.3c-1.7-0.2-3.5-0.4-5-1.3c-1.9-1-3.4-2.5-4.4-4.4c-0.8-1.6-1.5-3.3-1.2-5.2
				c0-0.9,0-1.8,0.2-2.7c0.3-1.2,0.9-2.2,1.5-3.2c1.2-2.1,3.2-3.2,5.4-4.2c0.6-0.3,1.3-0.3,2-0.4c0.8-0.1,1.6-0.1,2.5,0
				c2,0.1,3.8,0.7,5.4,2c0.2,0.2,0.4,0.3,0.6,0.5c1,1,1.9,1.9,2.5,3.2c0.2,0.3,0.3,0.6,0.4,0.9c0.2,0.6,0.5,1.2,0.6,1.9
				c0,0.5,0.2,1,0.3,1.5C-235.4,1028.1-236.1,1030.2-237.3,1032.2z"/>
			<path id="XMLID_401_" class="st2" d="M-175.2,1053.6c-0.1-0.1-0.2-0.2-0.4-0.4c0-4.2,0-8.4,0-12.7c0.3-0.1,0.6-0.2,0.9-0.3
				c1.7,0,3.4,0,5.1,0c0,4.4,0,8.9,0,13.3C-171.4,1053.6-173.2,1053.6-175.2,1053.6z"/>
			<path id="XMLID_400_" class="st2" d="M-223.8,1040.7c0.2-0.2,0.3-0.3,0.4-0.4c1.9,0,3.7,0,5.7,0c0,4.4,0,8.8,0,13.3
				c-1.9,0.1-3.8,0-5.6,0.1c-0.2-0.2-0.3-0.3-0.4-0.4C-223.8,1049.1-223.8,1044.9-223.8,1040.7z"/>
			<path id="XMLID_399_" class="st2" d="M-217.8,1012.3c-2,0-4,0-6,0c0-4.3,0-8.6,0-13c2-0.1,4,0,6-0.1
				C-217.8,1003.6-217.8,1007.9-217.8,1012.3z"/>
			<path id="XMLID_398_" class="st2" d="M-169.5,999.3c0,4.4,0,8.7,0,13c-2,0-4,0-6,0c0-4.3,0-8.7,0-13.1
				C-173.5,999.3-171.5,999.2-169.5,999.3z"/>
			<path id="XMLID_397_" class="st2" d="M-187.5,1053.6c0-4.4,0-8.8,0-13.3c1.9,0,3.8,0,5.7,0c0.2,1.2,0.3,9.2,0.1,13.3
				C-183.6,1053.6-185.5,1053.6-187.5,1053.6z"/>
			<path id="XMLID_396_" class="st2" d="M-235.8,1053.6c0-4.4,0-8.8,0-13.3c1.9,0,3.8,0,5.7,0c0.2,1.2,0.3,8.8,0.1,13.3
				C-231.9,1053.6-233.8,1053.6-235.8,1053.6z"/>
			<path id="XMLID_395_" class="st2" d="M-211.6,1040.3c1.9,0,3.8,0,5.7,0c0,4.4,0,8.8,0,13.3c-1.9,0.1-3.8,0-5.7,0.1
				C-211.6,1049.2-211.6,1044.8-211.6,1040.3z"/>
			<path id="XMLID_394_" class="st2" d="M-163.3,1053.6c0-4.4,0-8.8,0-13.3c1,0,2-0.1,3,0c0.9,0.1,1.9-0.4,2.8,0.3c0,4.3,0,8.6,0,13
				C-159.4,1053.6-161.3,1053.6-163.3,1053.6z"/>
			<path id="XMLID_393_" class="st2" d="M-199.4,1053.6c0-4.4,0-8.8,0-13.3c1.8,0,3.6,0,5.4,0c0.1,0.1,0.2,0.2,0.4,0.4
				c0,4.2,0,8.4,0,12.6c-0.1,0.1-0.2,0.2-0.4,0.4C-195.7,1053.6-197.5,1053.6-199.4,1053.6z"/>
			<path id="XMLID_392_" class="st2" d="M-145.3,1053.2c-0.2,0.2-0.3,0.3-0.4,0.4c-1.8,0-3.6,0-5.4,0c0-4.4,0-8.8,0-13.3
				c0,0,0,0,0.1-0.1c0,0,0.1,0,0.1,0c1.7,0,3.5,0,5.1,0c0.5,0.3,0.5,0.6,0.5,1c0,2.7,0,5.4,0,8.1
				C-145.3,1050.7-145.3,1052-145.3,1053.2z"/>
			<path id="XMLID_391_" class="st2" d="M-133.4,1040.3c0,4.4,0,8.8,0,13.3c-1,0-2,0.1-3,0c-0.9-0.1-1.9,0.4-2.8-0.3
				c0-4.2,0-8.4,0-12.6c0.1-0.1,0.2-0.2,0.4-0.4C-137.1,1040.3-135.3,1040.3-133.4,1040.3z"/>
			<path id="XMLID_390_" class="st2" d="M-241.9,1053.3c-0.2,0.2-0.3,0.3-0.4,0.4c-1.8,0-3.6,0-5.4,0c0-4.4,0-8.8,0-13.3
				c1.8-0.1,3.6,0,5.3-0.1c0.2,0.2,0.3,0.3,0.4,0.4C-241.9,1044.8-241.9,1049-241.9,1053.3z"/>
			<path id="XMLID_389_" class="st2" d="M-258.4,1040.1c1.3,0.1,2.6,0.2,3.9,0.3c0.1,0.1,0.2,0.2,0.3,0.3c0,4.3,0,8.5,0,12.9
				c-1.2,0.4-2.4-0.3-3.7-0.3c-1.2,0-2.3-0.4-3.6-0.6c0.1-0.8,0.1-1.7,0.4-2.3c0.3-0.6,0.2-1.3,0.5-1.8c0.3-0.5,0.1-1.3,0.4-1.7
				c0.6-1.2,0.7-2.5,1.1-3.8C-258.8,1042.1-258.6,1041.1-258.4,1040.1z"/>
			<path id="XMLID_388_" class="st2" d="M-254.2,1010v2.3c-1.4,0.1-2.8,0.2-4.2,0.3c-0.2-0.9-0.4-1.7-0.5-2.6H-254.2z"/>
			<path id="XMLID_2450_" class="st2" d="M-272.3,1034.5c-0.6,0.3-1.1,0.5-1.7,0.7c-1.7,0.7-3.2,1.6-4.9,2.3
				c-0.3,0.1-0.5,0.1-0.8,0.2c-0.6-1.3-1-2.3-1.3-3.2H-272.3z"/>
			<path id="XMLID_441_" class="st2" d="M-267.8,1032.2c-0.3,0.1-0.6,0.3-0.9,0.4v-3.3C-268.3,1030.3-268,1031.3-267.8,1032.2z"/>
			<path id="XMLID_386_" class="st2" d="M-267.8,1020.4c-0.4,1.3-0.7,2.6-1.1,3.9c-1.2-0.2-2.6-0.5-4-0.6c-0.9-0.1-1.8-0.1-2.7-0.5
				c0,0-0.1,0-0.1,0c-0.7,0-1.5-0.1-2.2-0.2c-0.7-0.2-1.5-0.1-2.2-0.3c-0.4-0.1-0.9,0-1.3,0c-0.2-0.2-0.3-0.3-0.5-0.5
				c0.5-2.4,1.2-4.8,2.2-7.2c0.4,0.2,0.8,0.5,1.2,0.7c2,0.7,3.9,1.8,5.9,2.7c1.3,0.6,2.5,1.2,3.8,1.7
				C-268.5,1020.1-268.2,1020.2-267.8,1020.4z"/>
			<path id="XMLID_385_" class="st2" d="M-126.4,999.2c1,0.2,1.8,0.3,2.7,0.5c0.8,0.2,1.7,0.3,2.5,0.6c0.8,0.3,1.6,0.7,2.4,0.9
				c-1.7,4-3.3,7.9-5,12c-1.1-0.3-2.3-0.7-3.6-1c0.1-1.1-0.3-2.2,0.3-3.4c0,0,0-0.1,0-0.1c0.1-1.4,0.2-2.8,0.3-4.2
				c0.1-0.6,0.2-1.2,0.3-1.8c0.1-0.5-0.1-1.1,0.2-1.7C-126.2,1000.7-126.4,1000-126.4,999.2z"/>
			<path id="XMLID_384_" class="st2" d="M-118.8,1051.5c-2.4,0.9-4.9,1.6-7.6,1.9c0.2-1.4-0.4-2.6-0.3-3.9c0.1-0.6-0.2-1.3-0.3-2
				c-0.1-0.7,0.2-1.4-0.3-2.1c0,0,0-0.1,0-0.1c-0.1-1.7-0.2-3.3-0.4-4.9c1.3-0.3,2.5-0.7,3.7-1
				C-122.2,1043.4-120.5,1047.5-118.8,1051.5z"/>
			<path id="XMLID_383_" class="st2" d="M-139.1,999.3c1.9,0,3.8,0,5.7,0c0,4.3,0,8.6,0,13c-1.9,0.1-3.8,0-5.7,0.1
				C-139.1,1008-139.1,1003.7-139.1,999.3z"/>
			<path id="XMLID_382_" class="st2" d="M-151.1,999.3c1.9,0,3.8,0,5.7,0c0,4.3,0,8.6,0,13c-1.9,0.1-3.8,0-5.7,0.1
				C-151.1,1008-151.1,1003.7-151.1,999.3z"/>
			<path id="XMLID_381_" class="st2" d="M-157.6,1012.3c-1.9,0-3.8,0-5.7,0c0-4.3,0-8.6,0-13c1.9-0.1,3.8,0,5.7-0.1
				C-157.6,1003.6-157.6,1007.9-157.6,1012.3z"/>
			<path id="XMLID_380_" class="st2" d="M-187.4,999.3c1.9,0,3.8,0,5.7,0c0,4.3,0,8.6,0,13c0,0,0,0-0.1,0.1c0,0-0.1,0-0.1,0
				c-1.8,0-3.7,0-5.5,0C-187.4,1008-187.4,1003.7-187.4,999.3z"/>
			<path id="XMLID_294_" class="st2" d="M-199.4,999.3c1.9,0,3.8,0,5.7,0c0,4.3,0,8.6,0,13c-1.9,0.1-3.8,0-5.7,0.1
				C-199.4,1008-199.4,1003.7-199.4,999.3z"/>
			<path id="XMLID_378_" class="st2" d="M-211.6,1012.3c0-4.3,0-8.6,0-13c1.9,0,3.8,0,5.7,0c0.2,1.2,0.3,8.8,0.1,13
				C-207.7,1012.3-209.6,1012.3-211.6,1012.3z"/>
			<path id="XMLID_377_" class="st2" d="M-230,1012.3c-1.9,0-3.8,0-5.7,0c0-4.3,0-8.6,0-13c1.9-0.1,3.8,0,5.7-0.1
				C-230,1003.6-230,1007.9-230,1012.3z"/>
			<path id="XMLID_293_" class="st2" d="M-247.7,999.3c1.9,0,3.8,0,5.8,0c0,0.4,0,0.8,0,1.3c0,3.5,0,7.1,0,10.6
				c0,0.4,0.1,0.9-0.5,1.2c-1.7,0-3.5,0-5.3,0C-247.7,1008-247.7,1003.6-247.7,999.3z"/>
			<path id="XMLID_375_" class="st2" d="M-120,1037.3c0.3-1.2,1.8-1.6,2.1-2.8c1-0.2,1.6,0.5,2.1,0.9c1,0.9,2.2,1.4,3.2,2.2
				c1.6,1.2,3.4,2.2,5.1,3.4c0.2,0.1,0.4,0.2,0.6,0.3c0,0.2,0.1,0.5,0,0.6c-1.6,1.7-2.7,4-4.9,5.1c-0.9-1-1.9-1.9-2.7-2.9
				c-0.8-0.9-1.5-1.9-2.3-2.8C-117.9,1040-118.9,1038.7-120,1037.3z"/>
			<path id="XMLID_291_" class="st2" d="M-262.4,1014.2c-0.9,0.8-1.8,1.6-2.9,2.6c-2.6-2.3-5.1-4.6-7.7-6.8h8
				C-264.1,1011.4-263.2,1012.8-262.4,1014.2z"/>
			<path id="XMLID_292_" class="st2" d="M-265.4,1035.9c1.1,0.9,2.1,1.6,3.1,2.4c-2.2,3.6-4.5,7.3-6.7,11c-2.4-1.1-4.1-2.9-5.9-4.8
				c1-0.9,1.7-2,2.9-2.6c0.1-0.1,0.2-0.2,0.3-0.3c1.1-1.1,2.2-2.2,3.5-3.2C-267.3,1037.8-266.4,1036.8-265.4,1035.9z"/>
			<path id="XMLID_372_" class="st2" d="M-106.9,1010.9c0,0.1,0,0.3,0,0.5c-3.6,2.4-7.1,4.7-10.6,7.1c-0.8-0.9-1.6-1.8-2.5-2.9
				c0.2-0.3,0.4-0.8,0.7-1.1c1.3-1.7,2.8-3.3,4.1-5c0.6-0.8,1.3-1.5,1.9-2.3c0.4-0.5,0.9-1.1,1.4-1.7
				C-110.1,1007.3-108.3,1008.8-106.9,1010.9z"/>
			<path id="XMLID_3947_" class="st2" d="M-102.3,1029.8c-0.2,1.4-0.6,2.8-0.8,4.3c-2.3-0.9-4.8-1.2-7.1-2.3
				c-1.5-0.1-2.9-0.8-4.3-1.2c-0.3-0.1-0.7-0.2-1.2-0.4c0-0.2,0.1-0.3,0.1-0.5c0.1-0.6,0.2-1.1,0.3-1.7h13
				C-102.2,1028.7-102.2,1029.3-102.3,1029.8z"/>
			<path id="XMLID_290_" class="st2" d="M-103.2,1018.6c0.3,1.1,0.5,2,0.7,2.8c0.2,0.9,0.3,1.8,0.4,2.6c-1.2,0.2-9,0.3-13.2,0.1
				c-0.1-0.6-0.2-1.2-0.4-1.9C-111.5,1021.2-107.4,1019.7-103.2,1018.6z"/>
			<path id="XMLID_376_" class="st2" d="M-236.1,908.7c0.1,3.2-2.5,5.9-5.8,5.9c-3.2,0-5.5-2.1-6-5.1h5.9v-6.8c0.1,0,0.1,0,0.2,0
				C-238.9,902.6-235.9,905.1-236.1,908.7z"/>
			<path id="XMLID_286_" class="st2" d="M-128.6,1029.8c-0.3,0.3-0.6,0.5-0.9,0.9c0.1-0.3,0.1-0.6,0.1-0.9h-4v-3.3h4
				c-0.2-0.8-0.5-1.6-1-2.3c-1.3-1.9-3-3.3-5.6-3.7c2-0.8,3.7-0.6,5.3,0.1c1.4,0.8,2.5,2,3,3.4c0.2,0.7,0.4,1.3,0.4,1.9
				c0,0.2,0,0.4,0,0.6h1.5c0-0.4-0.2-0.8-0.3-1.3c-0.2-1.4-0.4-2.2-1.2-3.3c-0.9-1.2-2-2.3-3.4-2.8c-1.5-0.5-3.1-0.9-4.9-0.4
				c-1.5,0.5-2.9,1.1-3.9,2.2c-1.3,1.5-2.3,3.2-2.1,5.4c-0.1,1.5,0.4,2.8,1.1,4.1c1,1.7,2.4,2.7,4.2,3.4c0.4,0.2,0.9-0.2,1.2,0.3
				c0.9,0,1.9,0.2,2.7,0c1.6-0.4,3.1-1.2,4.4-2.5c0.6-0.6,0.9-1.2,1.2-1.8H-128.6z"/>
			<path id="XMLID_282_" class="st2" d="M-240.7,1020.7c-1.4-1.4-3.2-2.3-5.3-2.3c-2.3,0-4.3,0.9-5.9,2.6c-1.3,1.3-2.3,3.8-2.2,5.5
				c0.3,4.2,3.2,7.5,7.9,7.6c2.2,0.1,4.1-0.8,5.7-2.4c1.4-1.5,2.1-3.3,2.1-5.7C-238.3,1024.1-239.3,1022.2-240.7,1020.7z
				 M-241.9,1030.5c0-0.4-0.1-0.8,0-1.1c0.3-0.8,0.2-1.6,0-2.4c-0.2-1-0.5-1.8-0.9-2.7c-1-1.8-2.4-3-4.3-3.6
				c-0.3-0.1-0.6-0.3-0.9-0.4c1-0.6,2.1-0.5,3.2-0.3c2.1,0.3,3.4,1.6,4.4,3.4C-239.1,1026-240.2,1029.2-241.9,1030.5z"/>
		</g>
		<path id="XMLID_288_" class="st2" d="M-203.3,938.3h-12.2v-12.7c2.5,3,5.5,5.5,8.1,8.4C-206,935.4-204.7,936.9-203.3,938.3z"/>
		<path id="XMLID_299_" class="st2" d="M-207.9,958v3.2c-1.1-0.3-1.3-1-1.8-1.5c-0.6-0.6-1.2-1.1-1.7-1.7H-207.9z"/>
		<rect id="XMLID_3922_" x="-187.4" y="889" class="st2" width="2.9" height="2"/>
		<rect id="XMLID_3923_" x="-175.5" y="879.3" class="st2" width="6" height="2.3"/>
		<rect id="XMLID_3924_" x="-160.4" y="892.2" class="st2" width="2.9" height="3.8"/>
		<rect id="XMLID_3925_" x="-160.4" y="911.6" class="st2" width="4.1" height="2.9"/>
		<rect id="XMLID_3926_" x="-166" y="936.3" class="st2" width="1.8" height="2"/>
		<rect id="XMLID_3927_" x="-154.3" y="953.3" class="st2" width="7" height="4.2"/>
		<rect id="XMLID_3928_" x="-133.6" y="966.6" class="st2" width="6.3" height="3.8"/>
		<rect id="XMLID_3929_" x="-115.7" y="980.3" class="st2" width="4.7" height="1.5"/>
		<rect id="XMLID_3930_" x="-102.2" y="994" class="st2" width="2.2" height="0"/>
		<rect id="XMLID_3931_" x="-98.6" y="992.3" class="st2" width="0.7" height="0"/>
		<rect id="XMLID_3932_" x="-271" y="955.4" class="st2" width="8.6" height="2.1"/>
		<rect id="XMLID_3933_" x="-290" y="973" class="st2" width="6" height="2.7"/>
		<path id="XMLID_374_" class="st2" d="M-265,1010h-8c-0.7-0.6-1.4-1.3-2.1-1.9c1.7-1.9,3.7-3.5,5.9-4.9
			C-267.7,1005.5-266.3,1007.7-265,1010z"/>
		<path id="XMLID_404_" class="st2" d="M-254.2,999.3v10.7h-4.8c-0.1-0.5-0.3-1.1-0.5-1.6c-0.5-1.4-0.8-2.8-1.1-4.2
			c-0.3-1.4-1-2.8-0.9-4.3C-259,999.4-256.7,999.1-254.2,999.3z"/>
		<path id="XMLID_2454_" class="st2" d="M-271.6,1026.3v3.3l-3.7,1.8h-8.5c-0.4-1.4-0.7-2.5-1-4c1.2-0.2,2.3-0.5,3.3-0.6
			c1.1-0.1,2.1-0.3,3.2-0.4c1.1-0.1,2.1-0.4,3.3-0.5c1.1-0.1,2.1-0.2,3.1-0.3C-271.8,1025.8-271.7,1026.1-271.6,1026.3z"/>
		<path id="XMLID_414_" class="st2" d="M-268.6,1032.7c-1.2,0.6-2.4,1.2-3.7,1.8L-268.6,1032.7z"/>
		<path id="XMLID_406_" class="st2" d="M-268.6,1032.7c-1.2,0.6-2.4,1.2-3.7,1.8L-268.6,1032.7z"/>
		<path id="XMLID_296_" class="st2" d="M-123.8,1026.5C-123.8,1026.5-123.8,1026.5-123.8,1026.5c-0.2,1.2-0.4,2.3-0.9,3.3h-1.9
			c0.1-0.2,0.2-0.3,0.3-0.5c0.2-0.5,0.6-1,0.8-1.6c0.1-0.4,0.2-0.8,0.3-1.3H-123.8z"/>
		<path id="XMLID_289_" class="st2" d="M-127.4,1029.8h-4v-3.3h4C-127.2,1027.5-127.2,1028.7-127.4,1029.8z"/>
		<path id="XMLID_287_" class="st2" d="M-117.9,1026.5c0,0.1,0,0.2-0.1,0.2c-0.7,1-1.3,2.1-1.8,3.1h-1.9c0.3-1,0.5-2.2,0.5-3.3
			H-117.9z"/>
		<path id="XMLID_3952_" class="st2" d="M-100.3,1029.8h-13.3c0.1-0.6,0.2-1.1,0.3-1.7h13C-100.2,1028.7-100.2,1029.3-100.3,1029.8z
			"/>
		<path id="XMLID_2448_" class="st2" d="M-227.2,1019.5h-4.6v-4.7h1.9c0.5,0.9,1.2,1.8,1.7,2.8
			C-227.9,1018.2-227.6,1018.9-227.2,1019.5z"/>
		<rect id="XMLID_2630_" x="-144.3" y="992.3" class="st2" width="23.9" height="1.7"/>
		<path id="XMLID_412_" class="st2" d="M-243.9,893v3.2c-0.9,0-1.8,0.2-2.6,0.3c-0.6,0.3-1.2,0.6-1.8,0.8c-1.8,0.9-3,2.3-4,4.1
			c-0.9,1.6-0.9,3.3-0.8,5.1h-4.9c-0.1-0.5-0.1-1-0.1-1.5c0-0.6,0.1-1.2,0.3-1.8c0.5-2,1.1-4,2.5-5.7c1.5-1.9,3.3-3.5,5.4-4.6
			H-243.9z"/>
		<path id="XMLID_387_" class="st2" d="M-243.9,899.6v6.8h-5.9c-0.1-0.3-0.1-0.6-0.1-0.9c0-1.6,0.6-3.1,1.9-4.3
			C-246.8,900.2-245.5,899.7-243.9,899.6z"/>
		<rect id="XMLID_297_" x="-201.3" y="940.6" class="st2" width="4.8" height="2.7"/>
		<rect id="XMLID_373_" x="-201.3" y="929.6" class="st2" width="1.9" height="2.3"/>
		<rect id="XMLID_2530_" x="-217.8" y="953.3" class="st2" width="2.3" height="3.2"/>
		<rect id="XMLID_2624_" x="-293.6" y="1019.6" class="st2" width="6.7" height="5.6"/>
		<rect id="XMLID_2625_" x="-227.2" y="1032.7" class="st2" width="1.6" height="1.4"/>
		<rect id="XMLID_2626_" x="-219.8" y="1015.8" class="st2" width="4.2" height="2.6"/>
		<rect id="XMLID_2627_" x="-284" y="1037.7" class="st2" width="2.2" height="1.8"/>
		<rect id="XMLID_2628_" x="-111" y="1051.3" class="st2" width="4.1" height="2.4"/>
		<rect id="XMLID_2631_" x="-187.5" y="1064" class="st2" width="8.8" height="4.7"/>
		<rect id="XMLID_2632_" x="-151.1" y="1066.3" class="st2" width="6.8" height="2.3"/>
		<rect id="XMLID_2633_" x="-256.1" y="890" class="st2" width="11.3" height="1"/>
		<rect id="XMLID_2634_" x="-271.6" y="902.6" class="st2" width="6.7" height="3.8"/>
		<rect id="XMLID_2635_" x="-265" y="918" class="st2" width="2.6" height="1"/>
		<rect id="XMLID_2636_" x="-272.9" y="890.5" class="st2" width="4.3" height="2.5"/>
		<rect id="XMLID_2637_" x="-193.6" y="908.6" class="st2" width="1.7" height="0"/>
		<rect id="XMLID_2638_" x="-265" y="990.5" class="st2" width="3.6" height="3.4"/>
		<rect id="XMLID_2639_" x="-231.8" y="963.4" class="st2" width="2.3" height="1.6"/>
		<rect id="XMLID_2640_" x="-156.3" y="968.5" class="st2" width="11" height="4.4"/>
		<rect id="XMLID_2641_" x="-118.8" y="987.4" class="st2" width="3.1" height="3.1"/>
		<path id="XMLID_2644_" class="st2" d="M-64.5,885h-12.4c-8.8-11.5-19.2-21.6-30.9-30h16.2C-81.3,863.7-72.2,873.8-64.5,885z"/>
		<path id="XMLID_2455_" class="st2" d="M-33.2,1004.6c-0.7,3.3-1.5,6.6-2.4,9.8h-10.4c1-3.2,1.8-6.5,2.5-9.8H-33.2z"/>
		<path id="XMLID_2456_" class="st2" d="M-305.1,1053h-12.1c-3-4.6-5.7-9.4-8.2-14.3h11.3C-311.3,1043.6-308.3,1048.4-305.1,1053z"
			/>
		<path id="XMLID_2649_" class="st2" d="M-105.5,1109.5c-3.3,1.8-6.8,3.5-10.2,5h-31.7c5.9-1.3,11.7-3,17.4-5H-105.5z"/>
		<path id="XMLID_2449_" class="st2" d="M-143,1109.5c-5.7,2-11.5,3.7-17.4,5L-143,1109.5z"/>
		<path id="XMLID_2452_" class="st2" d="M-294,870c-0.1,0.1-0.2,0.2-0.3,0.3c-5.9,5.9-11.2,12.1-15.9,18.7h-12.1
			c4.3-6.7,9.2-13,14.5-19H-294z"/>
		<path id="XMLID_2645_" class="st2" d="M-325.9,954.9c-0.4,3.3-0.7,6.7-0.9,10.1h-10c0.2-3.4,0.5-6.7,0.8-10.1H-325.9z"/>
		<path id="XMLID_2646_" class="st2" d="M-42.6,961.5h-10c-1.1-11.8-3.6-23.2-7.4-34h10.5C-45.9,938.4-43.6,949.8-42.6,961.5z"/>
		<path id="XMLID_2643_" class="st2" d="M-197,817v5c-14.8,0-29.3,2.2-43,6.5h-26.6c9.7-4.9,19.9-8.8,30.5-11.5H-197z"/>
		<rect id="XMLID_298_" x="-92.8" y="1109.5" class="st2" width="6.6" height="2.5"/>
		<rect id="XMLID_300_" x="-72.5" y="996.9" class="st2" width="8" height="6.9"/>
		<rect id="XMLID_306_" x="-37" y="931.9" class="st2" width="3.8" height="5.4"/>
		<rect id="XMLID_379_" x="-219.8" y="831.4" class="st2" width="13.9" height="9"/>
		<rect id="XMLID_403_" x="-365" y="954.9" class="st2" width="3.5" height="2.7"/>
		<rect id="XMLID_407_" x="-361.5" y="973" class="st2" width="9" height="2.7"/>
		<rect id="XMLID_2128_" x="-341" y="1051.3" class="st2" width="8" height="2.4"/>
		<rect id="XMLID_2451_" x="-298" y="1052.5" class="st2" width="4" height="4.5"/>
		<rect id="XMLID_2650_" x="-130.4" y="1123" class="st2" width="7.2" height="5"/>
		<rect id="XMLID_2657_" x="-151.7" y="1098" class="st2" width="4.4" height="4"/>
		<rect id="XMLID_2658_" x="-169.5" y="1106" class="st2" width="12" height="3.5"/>
		<rect id="XMLID_2660_" x="-192" y="842.5" class="st2" width="6" height="2"/>
		<rect id="XMLID_2664_" x="-248" y="847" class="st2" width="9.7" height="3"/>
		<rect id="XMLID_2665_" x="-244.8" y="806" class="st2" width="5" height="6.5"/>
		<rect id="XMLID_2670_" x="-278.2" y="815" class="st2" width="5.9" height="2"/>
	</g>
</g>
</svg>
