<?xml version="1.0" encoding="iso-8859-1"?>
<!-- Generator: Adobe Illustrator 19.0.0, SVG Export Plug-In . SVG Version: 6.00 Build 0)  -->
<svg version="1.1" id="Layer_1" xmlns="http://www.w3.org/2000/svg" xmlns:xlink="http://www.w3.org/1999/xlink" x="0px" y="0px"
	 viewBox="-119 481.5 959.5 959.5" style="enable-background:new -119 481.5 959.5 959.5;" xml:space="preserve">
<title>accomodation</title>
<g>
	<g>
		<g>
			<path style="fill:#FF93A2;" d="M90.85,610.7l45.3-30.6C120.45,589.4,105.35,599.6,90.85,610.7z M-81.35,985.8
				c1.1,19.9,3.5,39.5,7.2,58.9L-81.35,985.8z M137.05,610.7h-46.2c-15.2,11.7-29.8,24.5-43.5,38.2c-40.6,40.6-72.4,87.8-94.7,140.4
				c-23,54.5-34.7,112.3-34.7,172c0,8.2,0.2,16.4,0.7,24.5h26.4c-0.5-8.1-0.7-16.3-0.7-24.5C-55.65,814.1,21.25,684.5,137.05,610.7z
				 M96.55,1316.2c4,3,8.1,5.9,12.3,8.8L96.55,1316.2z M-47.25,1044.6h-26.9c5.8,30.3,14.8,59.9,26.9,88.6
				c22.3,52.6,54.1,99.8,94.7,140.4c15.5,15.5,31.9,29.7,49.2,42.5v-13.3h27C37.15,1243-25.55,1151.2-47.25,1044.6z M766.85,789.3
				c-5.6-13.2-11.7-26-18.5-38.5h-30.5c29.7,50.4,49.1,107.6,55.3,168.6h26.4C795.35,874.6,784.45,831,766.85,789.3z M672.15,648.9
				c-40.6-40.6-87.8-72.4-140.4-94.7c-54.5-23-112.3-34.7-172-34.7c-59.6,0-117.5,11.7-172,34.7c-17.8,7.5-35,16.2-51.6,25.9h58.3
				c50.7-22.1,106.6-34.3,165.3-34.3c137.9,0,260.3,67.5,335.9,171.3h32.3C711.85,692.7,693.15,669.9,672.15,648.9z M774.45,985.8
				c-4.2,71.1-26.2,137.4-61.8,194.5c-5.6,9-11.6,17.8-17.8,26.3c-75.7,103.1-197.7,170.1-335.1,170.1
				c-72.7,0-141.1-18.8-200.6-51.7h-50.3c24.7,17,51,31.5,78.9,43.3c54.5,23,112.3,34.7,172,34.7c59.6,0,117.5-11.7,172-34.7
				c52.6-22.3,99.8-54.1,140.4-94.7c20.7-20.7,39.1-43.1,55.1-67.1c5.7-8.6,11.2-17.4,16.3-26.3c8.6-15.1,16.4-30.8,23.2-47
				c19.9-47,31.3-96.5,34.1-147.5h-26.4V985.8z"/>
		</g>
		<path style="fill:#FF93A2;" d="M-60.75,1044.6h-26.9l-7.2-58.9h26.4C-67.25,1005.8-64.65,1025.5-60.75,1044.6z"/>
		<path style="fill:#FF93A2;" d="M754.35,734h-30.5c-6.8-11.6-14.2-22.9-22.2-33.7h32.3C741.25,711.2,748.05,722.4,754.35,734z"/>
		<path style="fill:#FF93A2;" d="M815.75,954.9c0,8.2-0.2,16.4-0.7,24.5h-26.4c0.5-8.1,0.7-16.3,0.7-24.5c0-14.1-0.7-28.1-2.1-41.9
			h26.5C815.05,926.8,815.75,940.8,815.75,954.9z"/>
		<path style="fill:#FF93A2;" d="M801.55,919.4v41.9c0-14.1-0.7-28-1.9-41.9H801.55z"/>
		<path style="fill:#FF93A2;" d="M800.85,985.8c0.5-8.1,0.7-16.3,0.7-24.5v24.5H800.85z"/>
		<path style="fill:#FF93A2;" d="M200.25,587.8c-20,8.7-39.2,18.9-57.4,30.6h-46.3l45.3-30.6H200.25z"/>
		<path style="fill:#FF93A2;" d="M168.35,1314h-50.3l-12.3-8.8v-13.3h27C144.25,1299.8,156.15,1307.2,168.35,1314z"/>
		<path style="fill:#FF93A2;" d="M752.35,1233.3c-5.1,9-10.6,17.8-16.3,26.3h-32.4c6.3-8.5,12.2-17.3,17.8-26.3H752.35z"/>
		<rect x="614.55" y="1117.8" style="fill:#FF93A2;" width="16.3" height="8.6"/>
		<rect x="333.55" y="1239.7" style="fill:#FF93A2;" width="35.2" height="6.7"/>
		<rect x="-56.15" y="1010" style="fill:#FF93A2;" width="12.6" height="5.2"/>
		<rect x="96.55" y="580.2" style="fill:#FF93A2;" width="20.8" height="11.7"/>
		<rect x="689.75" y="734" style="fill:#FF93A2;" width="7.4" height="36.6"/>
		<rect x="752.35" y="925.7" style="fill:#FF93A2;" width="18.5" height="14.6"/>
		<rect x="741.45" y="979.3" style="fill:#FF93A2;" width="11" height="20.1"/>
		<rect x="815.75" y="895.2" style="fill:#FF93A2;" width="21.5" height="7.4"/>
		<rect x="741.45" y="1199.7" style="fill:#FF93A2;" width="20.2" height="16.9"/>
		<rect x="689.75" y="1180.4" style="fill:#FF93A2;" width="45.3" height="14"/>
		<rect x="622.65" y="1255.5" style="fill:#FF93A2;" width="8.1" height="10.5"/>
		<rect x="562.25" y="1273.4" style="fill:#FF93A2;" width="24.2" height="7.4"/>
		<rect x="90.85" y="1344" style="fill:#FF93A2;" width="22.7" height="9.5"/>
		<rect x="66.05" y="1314" style="fill:#FF93A2;" width="10.5" height="20.5"/>
		<rect x="-106.75" y="1063.8" style="fill:#FF93A2;" width="11.9" height="12.6"/>
		<rect x="-112.05" y="961.3" style="fill:#FF93A2;" width="17.2" height="12.2"/>
		<rect x="136.15" y="1246.4" style="fill:#FF93A2;" width="12.2" height="9.1"/>
		<rect x="369.65" y="682.4" style="fill:#FF93A2;" width="14.7" height="11.6"/>
	</g>
	<g>
		<path style="fill:#FF93A2;" d="M243.35,1055.7h-42.2c-2.6,0-4.7,2.1-4.7,4.7v81.3c0,2.3,1.6,4.2,3.7,4.6c0.3,0.1,0.7,0.1,1,0.1
			h42.2c0.3,0,0.7,0,1-0.1c2.1-0.5,3.8-2.3,3.8-4.6v-81.3C248.15,1057.9,245.95,1055.7,243.35,1055.7z M238.65,1137.1h-32.7v-71.8
			h32.7V1137.1z"/>
	</g>
	<g>
		<path style="fill:#FF93A2;" d="M548.35,1055.7h-42.2c-2.6,0-4.7,2.1-4.7,4.7v81.3c0,2.3,1.6,4.2,3.7,4.6c0.3,0.1,0.7,0.1,1,0.1
			h42.2c0.4,0,0.7,0,1-0.1c2.1-0.5,3.7-2.4,3.7-4.6v-81.3C553.05,1057.9,550.95,1055.7,548.35,1055.7z M543.55,1137.1h-32.7v-71.8
			h32.7V1137.1z"/>
	</g>
	<g>
		<path style="fill:#FF93A2;" d="M352.85,1011.7v106.2h12.6v-106.2H352.85z M352.85,902.6v58.7h12.6v-58.7H352.85z M359.15,786.7
			H85.45c-3.5,0-6.3,2.8-6.3,6.3h89.3v6.4h184.5v95.8h12.6V793C365.45,789.5,362.65,786.7,359.15,786.7z M79.05,1011.7h12.6V827.8
			h-12.6V1011.7z M238.65,1133.8v3.3h-32.7v-3.3H91.75v-88.6h-12.7v94.9c0,3.5,2.8,6.3,6.3,6.3h249.9v-12.6H238.65L238.65,1133.8z"
			/>
	</g>
	<g>
		<path style="fill:#FF93A2;" d="M318.85,985.3h-34c-2.6,0-4.7,2.1-4.7,4.7v33.8c0,2.6,2.1,4.7,4.7,4.7h34c2.6,0,4.7-2.1,4.7-4.7
			V990C323.65,987.4,321.55,985.3,318.85,985.3z M314.15,1019.1h-24.5v-24.3h24.5V1019.1z"/>
	</g>
	<g>
		<path style="fill:#FF93A2;" d="M265.85,985.3h-34c-2.6,0-4.7,2.1-4.7,4.7v33.8c0,2.6,2.1,4.7,4.7,4.7h34c2.6,0,4.7-2.1,4.7-4.7
			V990C270.55,987.4,268.45,985.3,265.85,985.3z M261.05,1019.1h-24.5v-24.3h24.5V1019.1z"/>
	</g>
	<g>
		<path style="fill:#FF93A2;" d="M639.75,1041.8h-28c-2.6,0-4.7,2.1-4.7,4.7v27.9c0,2.6,2.1,4.7,4.7,4.7h28c2.6,0,4.7-2.1,4.7-4.7
			v-27.9C644.45,1043.9,642.35,1041.8,639.75,1041.8z M634.95,1069.7h-18.5v-18.4h18.5V1069.7z"/>
	</g>
	<g>
		<path style="fill:#FF93A2;" d="M592.05,1041.8h-28c-2.6,0-4.7,2.1-4.7,4.7v27.9c0,2.6,2.1,4.7,4.7,4.7h28c2.6,0,4.7-2.1,4.7-4.7
			v-27.9C596.85,1043.9,594.75,1041.8,592.05,1041.8z M587.35,1069.7h-18.5v-18.4h18.5V1069.7z"/>
	</g>
	<g>
		<path style="fill:#FF93A2;" d="M639.75,1002.2h-25.2v18.7h-7.5v13.9c0,2.6,2.1,4.7,4.7,4.7h28c2.6,0,4.7-2.1,4.7-4.7v-27.9
			C644.45,1004.3,642.35,1002.2,639.75,1002.2z M634.95,1030.1h-18.5v-18.4h18.5V1030.1z"/>
	</g>
	<g>
		<path style="fill:#FF93A2;" d="M594.65,1020.9v9.2h-18.5v-9.2h-9.5v13.9c0,2.6,2.1,4.7,4.7,4.7h28c2.6,0,4.7-2.1,4.7-4.7v-13.9
			H594.65z"/>
	</g>
	<g>
		<path style="fill:#FF93A2;" d="M554.35,1020.9v9.2h-18.5v-9.2h-9.5v13.9c0,2.6,2.1,4.7,4.7,4.7h28c2.6,0,4.7-2.1,4.7-4.7v-13.9
			H554.35z"/>
	</g>
	<g>
		<path style="fill:#FF93A2;" d="M514.05,1020.9v9.2h-18.5v-18.4h5.9v-9.5h-10.6c-2.6,0-4.7,2.1-4.7,4.7v27.9c0,2.6,2.1,4.7,4.7,4.7
			h28c2.6,0,4.7-2.1,4.7-4.7v-13.9H514.05z"/>
	</g>
	<g>
		<path style="fill:#FF93A2;" d="M438.15,1041.8h-28c-2.6,0-4.7,2.1-4.7,4.7v27.9c0,2.6,2.1,4.7,4.7,4.7h28c2.6,0,4.7-2.1,4.7-4.7
			v-27.9C442.85,1043.9,440.75,1041.8,438.15,1041.8z M433.35,1069.7h-18.5v-18.4h18.5V1069.7z"/>
	</g>
	<g>
		<path style="fill:#FF93A2;" d="M492.45,1041.8h-28c-2.6,0-4.7,2.1-4.7,4.7v27.9c0,2.6,2.1,4.7,4.7,4.7h28c2.6,0,4.7-2.1,4.7-4.7
			v-27.9C497.25,1043.9,495.05,1041.8,492.45,1041.8z M487.75,1069.7h-18.5v-18.4h18.5V1069.7z"/>
	</g>
	<g>
		<path style="fill:#FF93A2;" d="M438.15,1002.2h-28c-2.6,0-4.7,2.1-4.7,4.7v27.9c0,2.6,2.1,4.7,4.7,4.7h28c2.6,0,4.7-2.1,4.7-4.7
			v-27.9C442.85,1004.3,440.75,1002.2,438.15,1002.2z M433.35,1030.1h-18.5v-18.4h18.5V1030.1z"/>
	</g>
	<g>
		<path style="fill:#FF93A2;" d="M478.45,1002.2h-28c-2.6,0-4.7,2.1-4.7,4.7v27.9c0,2.6,2.1,4.7,4.7,4.7h28c2.6,0,4.7-2.1,4.7-4.7
			v-27.9C483.15,1004.3,481.05,1002.2,478.45,1002.2z M473.75,1030.1h-18.5v-18.4h18.5V1030.1z"/>
	</g>
	<g>
		<path style="fill:#FF93A2;" d="M639.75,964.4h-28c-2.6,0-4.7,2.1-4.7,4.7v10.2h7.5v22.5h25.2c2.6,0,4.7-2.1,4.7-4.7v-27.9
			C644.45,966.6,642.35,964.4,639.75,964.4z M634.95,992.3h-18.5v-18.4h18.5V992.3z"/>
	</g>
	<g>
		<path style="fill:#FF93A2;" d="M599.45,964.4h-28c-2.6,0-4.7,2.1-4.7,4.7v10.2h9.5v-5.4h18.5v5.4h9.5v-10.2
			C604.15,966.6,602.05,964.4,599.45,964.4z"/>
	</g>
	<g>
		<path style="fill:#FF93A2;" d="M559.05,964.4h-28c-2.6,0-4.7,2.1-4.7,4.7v10.2h9.5v-5.4h18.5v5.4h9.5v-10.2
			C563.85,966.6,561.75,964.4,559.05,964.4z"/>
	</g>
	<g>
		<path style="fill:#FF93A2;" d="M518.75,964.4h-28c-2.6,0-4.7,2.1-4.7,4.7V997c0,2.6,2.1,4.7,4.7,4.7h10.6v-9.5h-5.9v-18.4h18.5
			v5.4h9.5V969C523.55,966.6,521.35,964.4,518.75,964.4z"/>
	</g>
	<g>
		<path style="fill:#FF93A2;" d="M438.15,964.4h-28c-2.6,0-4.7,2.1-4.7,4.7V997c0,2.6,2.1,4.7,4.7,4.7h28c2.6,0,4.7-2.1,4.7-4.7
			v-27.9C442.85,966.6,440.75,964.4,438.15,964.4z M433.35,992.3h-18.5v-18.4h18.5V992.3z"/>
	</g>
	<g>
		<path style="fill:#FF93A2;" d="M478.45,964.4h-28c-2.6,0-4.7,2.1-4.7,4.7V997c0,2.6,2.1,4.7,4.7,4.7h28c2.6,0,4.7-2.1,4.7-4.7
			v-27.9C483.15,966.6,481.05,964.4,478.45,964.4z M473.75,992.3h-18.5v-18.4h18.5V992.3z"/>
	</g>
	<g>
		<path style="fill:#FF93A2;" d="M340.05,1070.6h-34c-2.6,0-4.7,2.1-4.7,4.7v33.8c0,2.6,2.1,4.7,4.7,4.7h34c2.6,0,4.7-2.1,4.7-4.7
			v-33.8C344.75,1072.7,342.65,1070.6,340.05,1070.6z M335.35,1104.4h-24.5V1080h24.5V1104.4z"/>
	</g>
	<g>
		<path style="fill:#FF93A2;" d="M286.95,1070.6h-34c-2.6,0-4.7,2.1-4.7,4.7v33.8c0,2.6,2.1,4.7,4.7,4.7h34c2.6,0,4.7-2.1,4.7-4.7
			v-33.8C291.65,1072.7,289.55,1070.6,286.95,1070.6z M282.25,1104.4h-24.5V1080h24.5V1104.4z"/>
	</g>
	<g>
		<path style="fill:#FF93A2;" d="M190.15,1070.6h-34c-2.6,0-4.7,2.1-4.7,4.7v33.8c0,2.6,2.1,4.7,4.7,4.7h34c2.6,0,4.7-2.1,4.7-4.7
			v-33.8C194.95,1072.7,192.85,1070.6,190.15,1070.6z M185.45,1104.4h-24.5V1080h24.5V1104.4z"/>
	</g>
	<g>
		<path style="fill:#FF93A2;" d="M137.15,1070.6h-34c-2.6,0-4.7,2.1-4.7,4.7v33.8c0,2.6,2.1,4.7,4.7,4.7h34c2.6,0,4.7-2.1,4.7-4.7
			v-33.8C141.85,1072.7,139.75,1070.6,137.15,1070.6z M132.35,1104.4h-24.5V1080h24.5V1104.4z"/>
	</g>
	<g>
		<path style="fill:#FF93A2;" d="M212.75,985.3h-34c-2.6,0-4.7,2.1-4.7,4.7v33.8c0,2.6,2.1,4.7,4.7,4.7h34c2.6,0,4.7-2.1,4.7-4.7
			V990C217.45,987.4,215.35,985.3,212.75,985.3z M207.95,1019.1h-24.5v-24.3h24.5V1019.1z"/>
	</g>
	<g>
		<path style="fill:#FF93A2;" d="M159.65,985.3h-34c-2.6,0-4.7,2.1-4.7,4.7v33.8c0,2.6,2.1,4.7,4.7,4.7h34c2.6,0,4.7-2.1,4.7-4.7
			V990C164.45,987.4,162.25,985.3,159.65,985.3z M154.95,1019.1h-24.5v-24.3h24.5V1019.1z"/>
	</g>
	<g>
		<path style="fill:#FF93A2;" d="M318.85,929.6h-34c-2.6,0-4.7,2.1-4.7,4.7v33.8c0,2.6,2.1,4.7,4.7,4.7h34c2.6,0,4.7-2.1,4.7-4.7
			v-33.8C323.65,931.8,321.55,929.6,318.85,929.6z M314.15,963.4h-24.5v-24.3h24.5V963.4z"/>
	</g>
	<g>
		<path style="fill:#FF93A2;" d="M265.85,929.6h-34c-2.6,0-4.7,2.1-4.7,4.7v33.8c0,2.6,2.1,4.7,4.7,4.7h34c2.6,0,4.7-2.1,4.7-4.7
			v-33.8C270.55,931.8,268.45,929.6,265.85,929.6z M261.05,963.4h-24.5v-24.3h24.5V963.4z"/>
	</g>
	<g>
		<path style="fill:#FF93A2;" d="M212.75,929.6h-34c-2.6,0-4.7,2.1-4.7,4.7v33.8c0,2.6,2.1,4.7,4.7,4.7h34c2.6,0,4.7-2.1,4.7-4.7
			v-33.8C217.45,931.8,215.35,929.6,212.75,929.6z M207.95,963.4h-24.5v-24.3h24.5V963.4z"/>
	</g>
	<g>
		<path style="fill:#FF93A2;" d="M159.65,929.6h-34c-2.6,0-4.7,2.1-4.7,4.7v33.8c0,2.6,2.1,4.7,4.7,4.7h34c2.6,0,4.7-2.1,4.7-4.7
			v-33.8C164.45,931.8,162.25,929.6,159.65,929.6z M154.95,963.4h-24.5v-24.3h24.5V963.4z"/>
	</g>
	<g>
		<path style="fill:#FF93A2;" d="M323.65,895.2v-16.5c0-2.6-2.1-4.7-4.7-4.7h-34c-2.6,0-4.7,2.1-4.7,4.7v33.8c0,2.6,2.1,4.7,4.7,4.7
			h34c2.6,0,4.7-2.1,4.7-4.7v-10h-9.5v5.2h-24.5v-24.3h24.5v11.7h9.5V895.2z"/>
	</g>
	<g>
		<path style="fill:#FF93A2;" d="M265.85,874h-34c-2.6,0-4.7,2.1-4.7,4.7v33.8c0,2.6,2.1,4.7,4.7,4.7h34c2.6,0,4.7-2.1,4.7-4.7
			v-33.8C270.55,876.1,268.45,874,265.85,874z M261.05,907.8h-24.5v-24.3h24.5V907.8z"/>
	</g>
	<g>
		<path style="fill:#FF93A2;" d="M212.75,874h-34c-2.6,0-4.7,2.1-4.7,4.7v33.8c0,2.6,2.1,4.7,4.7,4.7h34c2.6,0,4.7-2.1,4.7-4.7
			v-33.8C217.45,876.1,215.35,874,212.75,874z M207.95,907.8h-24.5v-24.3h24.5V907.8z"/>
	</g>
	<g>
		<path style="fill:#FF93A2;" d="M159.65,874h-34c-2.6,0-4.7,2.1-4.7,4.7v33.8c0,2.6,2.1,4.7,4.7,4.7h34c2.6,0,4.7-2.1,4.7-4.7
			v-33.8C164.45,876.1,162.25,874,159.65,874z M154.95,907.8h-24.5v-24.3h24.5V907.8z"/>
	</g>
	<g>
		<path style="fill:#FF93A2;" d="M318.85,818.3h-34c-2.6,0-4.7,2.1-4.7,4.7v33.8c0,2.6,2.1,4.7,4.7,4.7h34c2.6,0,4.7-2.1,4.7-4.7
			V823C323.65,820.4,321.55,818.3,318.85,818.3z M314.15,852.1h-24.5v-24.3h24.5V852.1z"/>
	</g>
	<g>
		<path style="fill:#FF93A2;" d="M265.85,818.3h-34c-2.6,0-4.7,2.1-4.7,4.7v33.8c0,2.6,2.1,4.7,4.7,4.7h34c2.6,0,4.7-2.1,4.7-4.7
			V823C270.55,820.4,268.45,818.3,265.85,818.3z M261.05,852.1h-24.5v-24.3h24.5V852.1z"/>
	</g>
	<g>
		<path style="fill:#FF93A2;" d="M212.75,818.3h-34c-2.6,0-4.7,2.1-4.7,4.7v33.8c0,2.6,2.1,4.7,4.7,4.7h34c2.6,0,4.7-2.1,4.7-4.7
			V823C217.45,820.4,215.35,818.3,212.75,818.3z M207.95,852.1h-24.5v-24.3h24.5V852.1z"/>
	</g>
	<g>
		<path style="fill:#FF93A2;" d="M159.65,818.3h-34c-2.6,0-4.7,2.1-4.7,4.7v33.8c0,2.6,2.1,4.7,4.7,4.7h34c2.6,0,4.7-2.1,4.7-4.7
			V823C164.45,820.4,162.25,818.3,159.65,818.3z M154.95,852.1h-24.5v-24.3h24.5V852.1z"/>
	</g>
	<g>
		<path style="fill:#FF93A2;" d="M664.25,944h-273.7c-3.5,0-6.3,2.8-6.3,6.3v167.5h12.6V956.7h261.1v177.1h-236.4v12.6h242.7
			c3.5,0,6.3-2.8,6.3-6.3V950.3C670.55,946.9,667.75,944,664.25,944z"/>
	</g>
	<rect x="318.85" y="913.6" style="fill:#FF93A2;" width="9.5" height="7.4"/>
	<rect x="365.45" y="895.2" style="fill:#FF93A2;" width="44.8" height="7.4"/>
	<rect x="72.75" y="1022.8" style="fill:#FF93A2;" width="12.6" height="33.6"/>
	<rect x="424.15" y="814.1" style="fill:#FF93A2;" width="13.6" height="13.7"/>
	<rect x="527.35" y="925.7" style="fill:#FF93A2;" width="32" height="13.4"/>
	<path style="fill:#FF93A2;" d="M530.85,986.7v17.7c0,2.6-2.1,4.7-4.7,4.7h-17.4v-9.5h12.7v-13h9.4V986.7z"/>
	<path style="fill:#FF93A2;" d="M530.85,1014.3v13.9h-9.5v-9.2h-12.7v-9.5h17.4C528.75,1009.6,530.85,1011.7,530.85,1014.3z"/>
	<path style="fill:#FF93A2;" d="M571.25,986.7v17.7c0,2.6-2.1,4.7-4.7,4.7h-28c-2.6,0-4.7-2.1-4.7-4.7v-17.7h9.5v13h18.5v-13H571.25
		z"/>
	<path style="fill:#FF93A2;" d="M563.85,1006.9v13.9h-9.5v-9.2h-18.5v9.2h-9.5v-13.9c0-2.6,2.1-4.7,4.7-4.7h28
		C561.75,1002.2,563.85,1004.3,563.85,1006.9z"/>
	<path style="fill:#FF93A2;" d="M611.55,986.7v17.7c0,2.6-2.1,4.7-4.7,4.7h-28c-2.6,0-4.7-2.1-4.7-4.7v-17.7h9.5v13h18.5v-13H611.55
		z"/>
	<path style="fill:#FF93A2;" d="M604.15,1006.9v13.9h-9.5v-9.2h-18.5v9.2h-9.5v-13.9c0-2.6,2.1-4.7,4.7-4.7h28
		C602.05,1002.2,604.15,1004.3,604.15,1006.9z"/>
	<path style="fill:#FF93A2;" d="M621.85,986.7v22.5h-2.8c-2.6,0-4.7-2.1-4.7-4.7v-17.7h7.5V986.7z"/>
	<path style="fill:#FF93A2;" d="M621.85,1009.6v18.7h-7.5v-13.9c0-2.6,2.1-4.7,4.7-4.7h2.8V1009.6z"/>
	<path style="fill:#FF93A2;" d="M355.75,1142.6v22.3c0,3.5-2.8,6.3-6.3,6.3h-23.9v-12.6h17.6v-16L355.75,1142.6L355.75,1142.6z"/>
	<path style="fill:#FF93A2;" d="M411.85,1158.6v12.6h-31.1c-3.5,0-6.3-2.8-6.3-6.3v-22.3h12.6v16H411.85L411.85,1158.6z"/>
	<path style="fill:#FF93A2;" d="M164.45,823.1v4.7h-43.5v-4.7c0-2.6,2.1-4.7,4.7-4.7h34C162.25,818.3,164.45,820.4,164.45,823.1z"/>
	<polygon style="fill:#FF93A2;" points="147.35,800.9 147.35,807.3 70.75,807.3 70.75,835.7 58.15,835.7 58.15,800.9 	"/>
	<rect x="333.55" y="979.3" style="fill:#FF93A2;" width="11.3" height="7.4"/>
	<rect x="365.45" y="985.8" style="fill:#FF93A2;" width="3.2" height="9"/>
	<rect x="296.55" y="1044.6" style="fill:#FF93A2;" width="7.7" height="6.6"/>
	<rect x="508.75" y="985.3" style="fill:#FF93A2;" width="5.5" height="7"/>
	<rect x="553.05" y="988.8" style="fill:#FF93A2;" width="0" height="3.5"/>
	<rect x="519.85" y="1045.2" style="fill:#FF93A2;" width="11.1" height="2.7"/>
	<polygon style="fill:#FF93A2;" points="547.95,1020.9 551.75,1020.9 551.75,1020.9 	"/>
	<rect x="585.45" y="1018.9" style="fill:#FF93A2;" width="0" height="6.2"/>
	<rect x="587.35" y="989.4" style="fill:#FF93A2;" width="5.4" height="2.9"/>
	<rect x="626.75" y="1022" style="fill:#FF93A2;" width="8.3" height="11.5"/>
	<rect x="657.95" y="1027.8" style="fill:#FF93A2;" width="35.5" height="11.8"/>
	<rect x="689.75" y="1060.5" style="fill:#FF93A2;" width="7.4" height="13.1"/>
	<rect x="340.65" y="961.3" style="fill:#FF93A2;" width="4.1" height="2.1"/>
	<rect x="257.75" y="810.4" style="fill:#FF93A2;" width="19.1" height="3.7"/>
	<rect x="335.35" y="861.6" style="fill:#FF93A2;" width="5.3" height="27.2"/>
	<polygon style="fill:#FF93A2;" points="222.25,1048 236.55,1048 236.55,1048 	"/>
	<g>
		<g>
			<path style="fill:#FECAFF;" d="M70.85,610.7l45.3-30.6C100.45,589.4,85.35,599.6,70.85,610.7z M-101.35,985.8
				c1.1,19.9,3.5,39.5,7.2,58.9L-101.35,985.8z M117.05,610.7h-46.2c-15.2,11.7-29.8,24.5-43.5,38.2
				c-40.6,40.6-72.4,87.8-94.7,140.4c-23,54.5-34.7,112.3-34.7,172c0,8.2,0.2,16.4,0.7,24.5h26.4c-0.5-8.1-0.7-16.3-0.7-24.5
				C-75.75,814.1,1.25,684.5,117.05,610.7z M76.55,1316.2c4,3,8.1,5.9,12.3,8.8L76.55,1316.2z M-67.35,1044.6h-26.9
				c5.8,30.3,14.8,59.9,26.9,88.6c22.3,52.6,54.1,99.8,94.7,140.4c15.5,15.5,31.9,29.7,49.2,42.5v-13.3h27
				C17.15,1243-45.55,1151.2-67.35,1044.6z M746.75,789.3c-5.6-13.2-11.7-26-18.5-38.5h-30.5c29.7,50.4,49.1,107.6,55.3,168.6h26.5
				C775.35,874.6,764.35,831,746.75,789.3z M652.15,648.9c-40.6-40.6-87.8-72.4-140.4-94.7c-54.5-23-112.3-34.7-172-34.7
				c-59.6,0-117.5,11.7-172,34.7c-17.8,7.5-35,16.2-51.6,25.9h58.3c50.7-22.1,106.6-34.3,165.3-34.3c137.9,0,260.3,67.5,335.9,171.3
				h32.3C691.75,692.7,673.15,669.9,652.15,648.9z M754.45,985.8c-4.2,71.1-26.2,137.4-61.8,194.5c-5.6,9-11.6,17.8-17.8,26.3
				c-75.7,103.1-197.7,170.1-335.1,170.1c-72.7,0-141.1-18.8-200.6-51.7h-50.3c24.7,17,51,31.5,78.9,43.3
				c54.5,23,112.3,34.7,172,34.7c59.6,0,117.5-11.7,172-34.7c52.6-22.3,99.8-54.1,140.4-94.7c20.7-20.7,39.1-43.1,55.1-67.1
				c5.7-8.6,11.2-17.4,16.3-26.3c8.6-15.1,16.4-30.8,23.2-47c19.9-47,31.3-96.5,34.1-147.5h-26.4V985.8z"/>
		</g>
		<path style="fill:#FECAFF;" d="M-80.75,1044.6h-26.9l-7.2-58.9h26.4C-87.25,1005.8-84.65,1025.5-80.75,1044.6z"/>
		<path style="fill:#FECAFF;" d="M734.25,734h-30.5c-6.8-11.6-14.2-22.9-22.2-33.7h32.3C721.25,711.2,728.05,722.4,734.25,734z"/>
		<path style="fill:#FECAFF;" d="M795.75,954.9c0,8.2-0.2,16.4-0.7,24.5h-26.4c0.5-8.1,0.7-16.3,0.7-24.5c0-14.1-0.7-28.1-2.1-41.9
			h26.5C795.05,926.8,795.75,940.8,795.75,954.9z"/>
		<path style="fill:#FECAFF;" d="M781.55,919.4v41.9c0-14.1-0.7-28-1.9-41.9H781.55z"/>
		<path style="fill:#FECAFF;" d="M780.85,985.8c0.5-8.1,0.7-16.3,0.7-24.5v24.5H780.85z"/>
		<path style="fill:#FECAFF;" d="M180.25,587.8c-20,8.7-39.2,18.9-57.4,30.6h-46.3l45.3-30.6H180.25z"/>
		<path style="fill:#FECAFF;" d="M148.35,1314h-50.3l-12.3-8.8v-13.3h27C124.25,1299.8,136.05,1307.2,148.35,1314z"/>
		<path style="fill:#FECAFF;" d="M732.35,1233.3c-5.1,9-10.6,17.8-16.3,26.3h-32.4c6.3-8.5,12.2-17.3,17.8-26.3H732.35z"/>
		<rect x="594.45" y="1117.8" style="fill:#FECAFF;" width="16.3" height="8.6"/>
		<rect x="313.55" y="1239.7" style="fill:#FECAFF;" width="35.2" height="6.7"/>
		<rect x="-76.15" y="1010" style="fill:#FECAFF;" width="12.6" height="5.2"/>
		<rect x="76.55" y="580.2" style="fill:#FECAFF;" width="20.8" height="11.7"/>
		<rect x="669.75" y="734" style="fill:#FECAFF;" width="7.4" height="36.6"/>
		<rect x="732.35" y="925.7" style="fill:#FECAFF;" width="18.5" height="14.6"/>
		<rect x="721.35" y="979.3" style="fill:#FECAFF;" width="11" height="20.1"/>
		<rect x="795.75" y="895.2" style="fill:#FECAFF;" width="21.5" height="7.4"/>
		<rect x="721.35" y="1199.7" style="fill:#FECAFF;" width="20.2" height="16.9"/>
		<rect x="669.75" y="1180.4" style="fill:#FECAFF;" width="45.3" height="14"/>
		<rect x="602.65" y="1255.5" style="fill:#FECAFF;" width="8.1" height="10.5"/>
		<rect x="542.25" y="1273.4" style="fill:#FECAFF;" width="24.2" height="7.4"/>
		<rect x="70.85" y="1344" style="fill:#FECAFF;" width="22.7" height="9.5"/>
		<rect x="46.05" y="1314" style="fill:#FECAFF;" width="10.5" height="20.5"/>
		<rect x="-126.75" y="1063.8" style="fill:#FECAFF;" width="11.9" height="12.6"/>
		<rect x="-132.05" y="961.3" style="fill:#FECAFF;" width="17.2" height="12.2"/>
		<rect x="116.15" y="1246.4" style="fill:#FECAFF;" width="12.2" height="9.1"/>
		<rect x="349.65" y="682.4" style="fill:#FECAFF;" width="14.7" height="11.6"/>
	</g>
	<g>
		<path style="fill:#FECAFF;" d="M223.35,1055.7h-42.2c-2.6,0-4.7,2.1-4.7,4.7v81.3c0,2.3,1.6,4.2,3.7,4.6c0.3,0.1,0.7,0.1,1,0.1
			h42.2c0.3,0,0.7,0,1-0.1c2.1-0.5,3.8-2.3,3.8-4.6v-81.3C228.15,1057.9,225.95,1055.7,223.35,1055.7z M218.65,1137.1h-32.7v-71.8
			h32.7V1137.1z"/>
	</g>
	<g>
		<path style="fill:#FECAFF;" d="M528.35,1055.7h-42.2c-2.6,0-4.7,2.1-4.7,4.7v81.3c0,2.3,1.6,4.2,3.7,4.6c0.3,0.1,0.7,0.1,1,0.1
			h42.2c0.4,0,0.7,0,1-0.1c2.1-0.5,3.7-2.4,3.7-4.6v-81.3C533.05,1057.9,530.95,1055.7,528.35,1055.7z M523.55,1137.1h-32.7v-71.8
			h32.7V1137.1z"/>
	</g>
	<g>
		<path style="fill:#FECAFF;" d="M332.85,1011.7v106.2h12.6v-106.2H332.85z M332.85,902.6v58.7h12.6v-58.7H332.85z M339.15,786.7
			H65.45c-3.5,0-6.3,2.8-6.3,6.3h89.3v6.4h184.5v95.8h12.6V793C345.45,789.5,342.65,786.7,339.15,786.7z M59.05,1011.7h12.6V827.8
			h-12.6V1011.7z M218.65,1133.8v3.3h-32.7v-3.3H71.75v-88.6h-12.7v94.9c0,3.5,2.8,6.3,6.3,6.3h249.9v-12.6H218.65L218.65,1133.8z"
			/>
	</g>
	<g>
		<path style="fill:#FECAFF;" d="M298.85,985.3h-34c-2.6,0-4.7,2.1-4.7,4.7v33.8c0,2.6,2.1,4.7,4.7,4.7h34c2.6,0,4.7-2.1,4.7-4.7
			V990C303.65,987.4,301.55,985.3,298.85,985.3z M294.15,1019.1h-24.5v-24.3h24.5V1019.1z"/>
	</g>
	<g>
		<path style="fill:#FECAFF;" d="M245.75,985.3h-34c-2.6,0-4.7,2.1-4.7,4.7v33.8c0,2.6,2.1,4.7,4.7,4.7h34c2.6,0,4.7-2.1,4.7-4.7
			V990C250.55,987.4,248.45,985.3,245.75,985.3z M241.05,1019.1h-24.5v-24.3h24.5V1019.1z"/>
	</g>
	<g>
		<path style="fill:#FECAFF;" d="M619.75,1041.8h-28c-2.6,0-4.7,2.1-4.7,4.7v27.9c0,2.6,2.1,4.7,4.7,4.7h28c2.6,0,4.7-2.1,4.7-4.7
			v-27.9C624.45,1043.9,622.35,1041.8,619.75,1041.8z M614.95,1069.7h-18.5v-18.4h18.5V1069.7z"/>
	</g>
	<g>
		<path style="fill:#FECAFF;" d="M572.05,1041.8h-28c-2.6,0-4.7,2.1-4.7,4.7v27.9c0,2.6,2.1,4.7,4.7,4.7h28c2.6,0,4.7-2.1,4.7-4.7
			v-27.9C576.85,1043.9,574.75,1041.8,572.05,1041.8z M567.35,1069.7h-18.5v-18.4h18.5V1069.7z"/>
	</g>
	<g>
		<path style="fill:#FECAFF;" d="M619.75,1002.2h-25.2v18.7h-7.5v13.9c0,2.6,2.1,4.7,4.7,4.7h28c2.6,0,4.7-2.1,4.7-4.7v-27.9
			C624.45,1004.3,622.35,1002.2,619.75,1002.2z M614.95,1030.1h-18.5v-18.4h18.5V1030.1z"/>
	</g>
	<g>
		<path style="fill:#FECAFF;" d="M574.65,1020.9v9.2h-18.5v-9.2h-9.5v13.9c0,2.6,2.1,4.7,4.7,4.7h28c2.6,0,4.7-2.1,4.7-4.7v-13.9
			H574.65z"/>
	</g>
	<g>
		<path style="fill:#FECAFF;" d="M534.35,1020.9v9.2h-18.5v-9.2h-9.5v13.9c0,2.6,2.1,4.7,4.7,4.7h28c2.6,0,4.7-2.1,4.7-4.7v-13.9
			H534.35z"/>
	</g>
	<g>
		<path style="fill:#FECAFF;" d="M494.05,1020.9v9.2h-18.5v-18.4h5.9v-9.5h-10.6c-2.6,0-4.7,2.1-4.7,4.7v27.9c0,2.6,2.1,4.7,4.7,4.7
			h28c2.6,0,4.7-2.1,4.7-4.7v-13.9H494.05z"/>
	</g>
	<g>
		<path style="fill:#FECAFF;" d="M418.15,1041.8h-28c-2.6,0-4.7,2.1-4.7,4.7v27.9c0,2.6,2.1,4.7,4.7,4.7h28c2.6,0,4.7-2.1,4.7-4.7
			v-27.9C422.85,1043.9,420.75,1041.8,418.15,1041.8z M413.35,1069.7h-18.5v-18.4h18.5V1069.7z"/>
	</g>
	<g>
		<path style="fill:#FECAFF;" d="M472.45,1041.8h-28c-2.6,0-4.7,2.1-4.7,4.7v27.9c0,2.6,2.1,4.7,4.7,4.7h28c2.6,0,4.7-2.1,4.7-4.7
			v-27.9C477.15,1043.9,475.05,1041.8,472.45,1041.8z M467.75,1069.7h-18.5v-18.4h18.5V1069.7z"/>
	</g>
	<g>
		<path style="fill:#FECAFF;" d="M418.15,1002.2h-28c-2.6,0-4.7,2.1-4.7,4.7v27.9c0,2.6,2.1,4.7,4.7,4.7h28c2.6,0,4.7-2.1,4.7-4.7
			v-27.9C422.85,1004.3,420.75,1002.2,418.15,1002.2z M413.35,1030.1h-18.5v-18.4h18.5V1030.1z"/>
	</g>
	<g>
		<path style="fill:#FECAFF;" d="M458.45,1002.2h-28c-2.6,0-4.7,2.1-4.7,4.7v27.9c0,2.6,2.1,4.7,4.7,4.7h28c2.6,0,4.7-2.1,4.7-4.7
			v-27.9C463.15,1004.3,461.05,1002.2,458.45,1002.2z M453.65,1030.1h-18.5v-18.4h18.5V1030.1z"/>
	</g>
	<g>
		<path style="fill:#FECAFF;" d="M619.75,964.4h-28c-2.6,0-4.7,2.1-4.7,4.7v10.2h7.5v22.5h25.2c2.6,0,4.7-2.1,4.7-4.7v-27.9
			C624.45,966.6,622.35,964.4,619.75,964.4z M614.95,992.3h-18.5v-18.4h18.5V992.3z"/>
	</g>
	<g>
		<path style="fill:#FECAFF;" d="M579.45,964.4h-28c-2.6,0-4.7,2.1-4.7,4.7v10.2h9.5v-5.4h18.5v5.4h9.5v-10.2
			C584.15,966.6,582.05,964.4,579.45,964.4z"/>
	</g>
	<g>
		<path style="fill:#FECAFF;" d="M539.05,964.4h-28c-2.6,0-4.7,2.1-4.7,4.7v10.2h9.5v-5.4h18.5v5.4h9.5v-10.2
			C543.85,966.6,541.65,964.4,539.05,964.4z"/>
	</g>
	<g>
		<path style="fill:#FECAFF;" d="M498.75,964.4h-28c-2.6,0-4.7,2.1-4.7,4.7V997c0,2.6,2.1,4.7,4.7,4.7h10.6v-9.5h-5.9v-18.4h18.5
			v5.4h9.5V969C503.45,966.6,501.35,964.4,498.75,964.4z"/>
	</g>
	<g>
		<path style="fill:#FECAFF;" d="M418.15,964.4h-28c-2.6,0-4.7,2.1-4.7,4.7V997c0,2.6,2.1,4.7,4.7,4.7h28c2.6,0,4.7-2.1,4.7-4.7
			v-27.9C422.85,966.6,420.75,964.4,418.15,964.4z M413.35,992.3h-18.5v-18.4h18.5V992.3z"/>
	</g>
	<g>
		<path style="fill:#FECAFF;" d="M458.45,964.4h-28c-2.6,0-4.7,2.1-4.7,4.7V997c0,2.6,2.1,4.7,4.7,4.7h28c2.6,0,4.7-2.1,4.7-4.7
			v-27.9C463.15,966.6,461.05,964.4,458.45,964.4z M453.65,992.3h-18.5v-18.4h18.5V992.3z"/>
	</g>
	<g>
		<path style="fill:#FECAFF;" d="M320.05,1070.6h-34c-2.6,0-4.7,2.1-4.7,4.7v33.8c0,2.6,2.1,4.7,4.7,4.7h34c2.6,0,4.7-2.1,4.7-4.7
			v-33.8C324.75,1072.7,322.65,1070.6,320.05,1070.6z M315.25,1104.4h-24.5V1080h24.5V1104.4z"/>
	</g>
	<g>
		<path style="fill:#FECAFF;" d="M266.95,1070.6h-34c-2.6,0-4.7,2.1-4.7,4.7v33.8c0,2.6,2.1,4.7,4.7,4.7h34c2.6,0,4.7-2.1,4.7-4.7
			v-33.8C271.65,1072.7,269.55,1070.6,266.95,1070.6z M262.15,1104.4h-24.5V1080h24.5V1104.4z"/>
	</g>
	<g>
		<path style="fill:#FECAFF;" d="M170.15,1070.6h-34c-2.6,0-4.7,2.1-4.7,4.7v33.8c0,2.6,2.1,4.7,4.7,4.7h34c2.6,0,4.7-2.1,4.7-4.7
			v-33.8C174.95,1072.7,172.75,1070.6,170.15,1070.6z M165.45,1104.4h-24.5V1080h24.5V1104.4z"/>
	</g>
	<g>
		<path style="fill:#FECAFF;" d="M117.15,1070.6h-34c-2.6,0-4.7,2.1-4.7,4.7v33.8c0,2.6,2.1,4.7,4.7,4.7h34c2.6,0,4.7-2.1,4.7-4.7
			v-33.8C121.85,1072.7,119.75,1070.6,117.15,1070.6z M112.35,1104.4h-24.5V1080h24.5V1104.4z"/>
	</g>
	<g>
		<path style="fill:#FECAFF;" d="M192.75,985.3h-34c-2.6,0-4.7,2.1-4.7,4.7v33.8c0,2.6,2.1,4.7,4.7,4.7h34c2.6,0,4.7-2.1,4.7-4.7
			V990C197.45,987.4,195.35,985.3,192.75,985.3z M187.95,1019.1h-24.5v-24.3h24.5V1019.1z"/>
	</g>
	<g>
		<path style="fill:#FECAFF;" d="M139.65,985.3h-34c-2.6,0-4.7,2.1-4.7,4.7v33.8c0,2.6,2.1,4.7,4.7,4.7h34c2.6,0,4.7-2.1,4.7-4.7
			V990C144.35,987.4,142.25,985.3,139.65,985.3z M134.95,1019.1h-24.5v-24.3h24.5V1019.1z"/>
	</g>
	<g>
		<path style="fill:#FECAFF;" d="M298.85,929.6h-34c-2.6,0-4.7,2.1-4.7,4.7v33.8c0,2.6,2.1,4.7,4.7,4.7h34c2.6,0,4.7-2.1,4.7-4.7
			v-33.8C303.65,931.8,301.55,929.6,298.85,929.6z M294.15,963.4h-24.5v-24.3h24.5V963.4z"/>
	</g>
	<g>
		<path style="fill:#FECAFF;" d="M245.75,929.6h-34c-2.6,0-4.7,2.1-4.7,4.7v33.8c0,2.6,2.1,4.7,4.7,4.7h34c2.6,0,4.7-2.1,4.7-4.7
			v-33.8C250.55,931.8,248.45,929.6,245.75,929.6z M241.05,963.4h-24.5v-24.3h24.5V963.4z"/>
	</g>
	<g>
		<path style="fill:#FECAFF;" d="M192.75,929.6h-34c-2.6,0-4.7,2.1-4.7,4.7v33.8c0,2.6,2.1,4.7,4.7,4.7h34c2.6,0,4.7-2.1,4.7-4.7
			v-33.8C197.45,931.8,195.35,929.6,192.75,929.6z M187.95,963.4h-24.5v-24.3h24.5V963.4z"/>
	</g>
	<g>
		<path style="fill:#FECAFF;" d="M139.65,929.6h-34c-2.6,0-4.7,2.1-4.7,4.7v33.8c0,2.6,2.1,4.7,4.7,4.7h34c2.6,0,4.7-2.1,4.7-4.7
			v-33.8C144.35,931.8,142.25,929.6,139.65,929.6z M134.95,963.4h-24.5v-24.3h24.5V963.4z"/>
	</g>
	<g>
		<path style="fill:#FECAFF;" d="M303.65,895.2v-16.5c0-2.6-2.1-4.7-4.7-4.7h-34c-2.6,0-4.7,2.1-4.7,4.7v33.8c0,2.6,2.1,4.7,4.7,4.7
			h34c2.6,0,4.7-2.1,4.7-4.7v-10h-9.5v5.2h-24.5v-24.3h24.5v11.7h9.5V895.2z"/>
	</g>
	<g>
		<path style="fill:#FECAFF;" d="M245.75,874h-34c-2.6,0-4.7,2.1-4.7,4.7v33.8c0,2.6,2.1,4.7,4.7,4.7h34c2.6,0,4.7-2.1,4.7-4.7
			v-33.8C250.55,876.1,248.45,874,245.75,874z M241.05,907.8h-24.5v-24.3h24.5V907.8z"/>
	</g>
	<g>
		<path style="fill:#FECAFF;" d="M192.75,874h-34c-2.6,0-4.7,2.1-4.7,4.7v33.8c0,2.6,2.1,4.7,4.7,4.7h34c2.6,0,4.7-2.1,4.7-4.7
			v-33.8C197.45,876.1,195.35,874,192.75,874z M187.95,907.8h-24.5v-24.3h24.5V907.8z"/>
	</g>
	<g>
		<path style="fill:#FECAFF;" d="M139.65,874h-34c-2.6,0-4.7,2.1-4.7,4.7v33.8c0,2.6,2.1,4.7,4.7,4.7h34c2.6,0,4.7-2.1,4.7-4.7
			v-33.8C144.35,876.1,142.25,874,139.65,874z M134.95,907.8h-24.5v-24.3h24.5V907.8z"/>
	</g>
	<g>
		<path style="fill:#FECAFF;" d="M298.85,818.3h-34c-2.6,0-4.7,2.1-4.7,4.7v33.8c0,2.6,2.1,4.7,4.7,4.7h34c2.6,0,4.7-2.1,4.7-4.7
			V823C303.65,820.4,301.55,818.3,298.85,818.3z M294.15,852.1h-24.5v-24.3h24.5V852.1z"/>
	</g>
	<g>
		<path style="fill:#FECAFF;" d="M245.75,818.3h-34c-2.6,0-4.7,2.1-4.7,4.7v33.8c0,2.6,2.1,4.7,4.7,4.7h34c2.6,0,4.7-2.1,4.7-4.7
			V823C250.55,820.4,248.45,818.3,245.75,818.3z M241.05,852.1h-24.5v-24.3h24.5V852.1z"/>
	</g>
	<g>
		<path style="fill:#FECAFF;" d="M192.75,818.3h-34c-2.6,0-4.7,2.1-4.7,4.7v33.8c0,2.6,2.1,4.7,4.7,4.7h34c2.6,0,4.7-2.1,4.7-4.7
			V823C197.45,820.4,195.35,818.3,192.75,818.3z M187.95,852.1h-24.5v-24.3h24.5V852.1z"/>
	</g>
	<g>
		<path style="fill:#FECAFF;" d="M139.65,818.3h-34c-2.6,0-4.7,2.1-4.7,4.7v33.8c0,2.6,2.1,4.7,4.7,4.7h34c2.6,0,4.7-2.1,4.7-4.7
			V823C144.35,820.4,142.25,818.3,139.65,818.3z M134.95,852.1h-24.5v-24.3h24.5V852.1z"/>
	</g>
	<g>
		<path style="fill:#FECAFF;" d="M644.25,944h-273.8c-3.5,0-6.3,2.8-6.3,6.3v167.5h12.6V956.7h261.1v177.1h-236.3v12.6h242.7
			c3.5,0,6.3-2.8,6.3-6.3V950.3C650.55,946.9,647.75,944,644.25,944z"/>
	</g>
	<rect x="298.85" y="913.6" style="fill:#FECAFF;" width="9.5" height="7.4"/>
	<rect x="345.45" y="895.2" style="fill:#FECAFF;" width="44.8" height="7.4"/>
	<rect x="52.75" y="1022.8" style="fill:#FECAFF;" width="12.6" height="33.6"/>
	<rect x="404.05" y="814.1" style="fill:#FECAFF;" width="13.6" height="13.7"/>
	<rect x="507.35" y="925.7" style="fill:#FECAFF;" width="32" height="13.4"/>
	<path style="fill:#FECAFF;" d="M510.85,986.7v17.7c0,2.6-2.1,4.7-4.7,4.7h-17.4v-9.5h12.7v-13h9.4V986.7z"/>
	<path style="fill:#FECAFF;" d="M510.85,1014.3v13.9h-9.5v-9.2h-12.7v-9.5h17.4C508.75,1009.6,510.85,1011.7,510.85,1014.3z"/>
	<path style="fill:#FECAFF;" d="M551.15,986.7v17.7c0,2.6-2.1,4.7-4.7,4.7h-28c-2.6,0-4.7-2.1-4.7-4.7v-17.7h9.5v13h18.5v-13H551.15
		z"/>
	<path style="fill:#FECAFF;" d="M543.85,1006.9v13.9h-9.5v-9.2h-18.5v9.2h-9.5v-13.9c0-2.6,2.1-4.7,4.7-4.7h28
		C541.65,1002.2,543.85,1004.3,543.85,1006.9z"/>
	<path style="fill:#FECAFF;" d="M591.55,986.7v17.7c0,2.6-2.1,4.7-4.7,4.7h-28c-2.6,0-4.7-2.1-4.7-4.7v-17.7h9.5v13h18.5v-13H591.55
		z"/>
	<path style="fill:#FECAFF;" d="M584.15,1006.9v13.9h-9.5v-9.2h-18.5v9.2h-9.5v-13.9c0-2.6,2.1-4.7,4.7-4.7h28
		C582.05,1002.2,584.15,1004.3,584.15,1006.9z"/>
	<path style="fill:#FECAFF;" d="M601.85,986.7v22.5h-2.8c-2.6,0-4.7-2.1-4.7-4.7v-17.7h7.5V986.7z"/>
	<path style="fill:#FECAFF;" d="M601.85,1009.6v18.7h-7.5v-13.9c0-2.6,2.1-4.7,4.7-4.7h2.8V1009.6z"/>
	<path style="fill:#FECAFF;" d="M335.75,1142.6v22.3c0,3.5-2.8,6.3-6.3,6.3h-23.9v-12.6h17.6v-16L335.75,1142.6L335.75,1142.6z"/>
	<path style="fill:#FECAFF;" d="M391.85,1158.6v12.6h-31.1c-3.5,0-6.3-2.8-6.3-6.3v-22.3h12.6v16H391.85L391.85,1158.6z"/>
	<path style="fill:#FECAFF;" d="M144.35,823.1v4.7h-43.5v-4.7c0-2.6,2.1-4.7,4.7-4.7h34C142.25,818.3,144.35,820.4,144.35,823.1z"/>
	<polygon style="fill:#FECAFF;" points="127.35,800.9 127.35,807.3 50.75,807.3 50.75,835.7 38.05,835.7 38.05,800.9 	"/>
	<rect x="313.55" y="979.3" style="fill:#FECAFF;" width="11.3" height="7.4"/>
	<rect x="345.45" y="985.8" style="fill:#FECAFF;" width="3.2" height="9"/>
	<rect x="276.45" y="1044.6" style="fill:#FECAFF;" width="7.7" height="6.6"/>
	<rect x="488.75" y="985.3" style="fill:#FECAFF;" width="5.5" height="7"/>
	<rect x="533.05" y="988.8" style="fill:#FECAFF;" width="0" height="3.5"/>
	<rect x="499.85" y="1045.2" style="fill:#FECAFF;" width="11.1" height="2.7"/>
	<polygon style="fill:#FECAFF;" points="527.95,1020.9 531.75,1020.9 531.75,1020.9 	"/>
	<rect x="565.35" y="1018.9" style="fill:#FECAFF;" width="0" height="6.2"/>
	<rect x="567.35" y="989.4" style="fill:#FECAFF;" width="5.4" height="2.9"/>
	<rect x="606.65" y="1022" style="fill:#FECAFF;" width="8.3" height="11.5"/>
	<rect x="637.95" y="1027.8" style="fill:#FECAFF;" width="35.5" height="11.8"/>
	<rect x="669.75" y="1060.5" style="fill:#FECAFF;" width="7.4" height="13.1"/>
	<rect x="320.65" y="961.3" style="fill:#FECAFF;" width="4.1" height="2.1"/>
	<rect x="237.65" y="810.4" style="fill:#FECAFF;" width="19.1" height="3.7"/>
	<rect x="315.25" y="861.6" style="fill:#FECAFF;" width="5.3" height="27.2"/>
	<polygon style="fill:#FECAFF;" points="202.25,1048 216.55,1048 216.55,1048 	"/>
	<g>
		<g>
			<path style="fill:#C8000F;" d="M80.35,610.7l45.3-30.6C109.95,589.4,94.75,599.6,80.35,610.7z M-91.95,985.8
				c1.1,19.9,3.5,39.5,7.2,58.9L-91.95,985.8z M126.55,610.7h-46.2c-15.2,11.7-29.8,24.5-43.5,38.2c-40.6,40.6-72.4,87.8-94.7,140.4
				c-23,54.5-34.7,112.3-34.7,172c0,8.2,0.2,16.4,0.7,24.5h26.4c-0.5-8.1-0.7-16.3-0.7-24.5C-66.25,814.1,10.75,684.5,126.55,610.7z
				 M86.05,1316.2c4,3,8.1,5.9,12.3,8.8L86.05,1316.2z M-57.85,1044.6h-26.9c5.8,30.3,14.8,59.9,26.9,88.6
				c22.3,52.6,54.1,99.8,94.7,140.4c15.5,15.5,31.9,29.7,49.2,42.5v-13.3h27C26.65,1243-36.05,1151.2-57.85,1044.6z M756.25,789.3
				c-5.6-13.2-11.7-26-18.5-38.5h-30.5c29.7,50.4,49.1,107.6,55.3,168.6h26.5C784.85,874.6,773.85,831,756.25,789.3z M661.65,648.9
				c-40.6-40.6-87.8-72.4-140.4-94.7c-54.5-23-112.3-34.7-172-34.7c-59.6,0-117.5,11.7-172,34.7c-17.8,7.5-35,16.2-51.6,25.9h58.3
				c50.7-22.1,106.6-34.3,165.3-34.3c137.9,0,260.3,67.5,335.9,171.3h32.3C701.25,692.7,682.65,669.9,661.65,648.9z M763.95,985.8
				c-4.2,71.1-26.2,137.4-61.8,194.5c-5.6,9-11.6,17.8-17.8,26.3c-75.7,103.1-197.7,170.1-335.1,170.1
				c-72.7,0-141.1-18.8-200.6-51.7h-50.3c24.7,17,51,31.5,78.9,43.3c54.5,23,112.3,34.7,172,34.7c59.6,0,117.5-11.7,172-34.7
				c52.6-22.3,99.8-54.1,140.4-94.7c20.7-20.7,39.1-43.1,55.1-67.1c5.7-8.6,11.2-17.4,16.3-26.3c8.6-15.1,16.4-30.8,23.2-47
				c19.9-47,31.3-96.5,34.1-147.5h-26.4V985.8z"/>
		</g>
		<path style="fill:#C8000F;" d="M-71.25,1044.6h-26.9l-7.2-58.9h26.4C-77.85,1005.8-75.25,1025.5-71.25,1044.6z"/>
		<path style="fill:#C8000F;" d="M743.75,734h-30.5c-6.8-11.6-14.2-22.9-22.2-33.7h32.3C730.75,711.2,737.55,722.4,743.75,734z"/>
		<path style="fill:#C8000F;" d="M805.25,954.9c0,8.2-0.2,16.4-0.7,24.5h-26.4c0.5-8.1,0.7-16.3,0.7-24.5c0-14.1-0.7-28.1-2.1-41.9
			h26.5C804.55,926.8,805.25,940.8,805.25,954.9z"/>
		<path style="fill:#C8000F;" d="M790.95,919.4v41.9c0-14.1-0.7-28-1.9-41.9H790.95z"/>
		<path style="fill:#C8000F;" d="M790.35,985.8c0.5-8.1,0.7-16.3,0.7-24.5v24.5H790.35z"/>
		<path style="fill:#C8000F;" d="M189.65,587.8c-20,8.7-39.2,18.9-57.4,30.6h-46.2l45.3-30.6H189.65z"/>
		<path style="fill:#C8000F;" d="M157.85,1314h-50.3l-12.3-8.8v-13.3h27C133.65,1299.8,145.55,1307.2,157.85,1314z"/>
		<path style="fill:#C8000F;" d="M741.85,1233.3c-5.1,9-10.6,17.8-16.3,26.3h-32.4c6.3-8.5,12.2-17.3,17.8-26.3H741.85z"/>
		<rect x="603.95" y="1117.8" style="fill:#C8000F;" width="16.3" height="8.6"/>
		<rect x="322.95" y="1239.7" style="fill:#C8000F;" width="35.2" height="6.7"/>
		<rect x="-66.75" y="1010" style="fill:#C8000F;" width="12.6" height="5.2"/>
		<rect x="86.05" y="580.2" style="fill:#C8000F;" width="20.8" height="11.7"/>
		<rect x="679.25" y="734" style="fill:#C8000F;" width="7.4" height="36.6"/>
		<rect x="741.85" y="925.7" style="fill:#C8000F;" width="18.5" height="14.6"/>
		<rect x="730.85" y="979.3" style="fill:#C8000F;" width="11" height="20.1"/>
		<rect x="805.25" y="895.2" style="fill:#C8000F;" width="21.5" height="7.4"/>
		<rect x="730.85" y="1199.7" style="fill:#C8000F;" width="20.2" height="16.9"/>
		<rect x="679.25" y="1180.4" style="fill:#C8000F;" width="45.3" height="14"/>
		<rect x="612.15" y="1255.5" style="fill:#C8000F;" width="8.1" height="10.5"/>
		<rect x="551.75" y="1273.4" style="fill:#C8000F;" width="24.2" height="7.4"/>
		<rect x="80.35" y="1344" style="fill:#C8000F;" width="22.7" height="9.5"/>
		<rect x="55.55" y="1314" style="fill:#C8000F;" width="10.5" height="20.5"/>
		<rect x="-117.25" y="1063.8" style="fill:#C8000F;" width="11.9" height="12.6"/>
		<rect x="-122.55" y="961.3" style="fill:#C8000F;" width="17.2" height="12.2"/>
		<rect x="125.65" y="1246.4" style="fill:#C8000F;" width="12.2" height="9.1"/>
		<rect x="359.15" y="682.4" style="fill:#C8000F;" width="14.7" height="11.6"/>
	</g>
	<g>
		<path style="fill:#C8000F;" d="M232.85,1055.7h-42.2c-2.6,0-4.7,2.1-4.7,4.7v81.3c0,2.3,1.6,4.2,3.7,4.6c0.3,0.1,0.7,0.1,1,0.1
			h42.2c0.3,0,0.7,0,1-0.1c2.1-0.5,3.8-2.3,3.8-4.6v-81.3C237.55,1057.9,235.45,1055.7,232.85,1055.7z M228.15,1137.1h-32.7v-71.8
			h32.7V1137.1z"/>
	</g>
	<g>
		<path style="fill:#C8000F;" d="M537.75,1055.7h-42.2c-2.6,0-4.7,2.1-4.7,4.7v81.3c0,2.3,1.6,4.2,3.7,4.6c0.3,0.1,0.7,0.1,1,0.1
			h42.2c0.4,0,0.7,0,1-0.1c2.1-0.5,3.7-2.4,3.7-4.6v-81.3C542.55,1057.9,540.45,1055.7,537.75,1055.7z M533.05,1137.1h-32.7v-71.8
			h32.7V1137.1z"/>
	</g>
	<g>
		<path style="fill:#C8000F;" d="M342.35,1011.7v106.2h12.6v-106.2H342.35z M342.35,902.6v58.7h12.6v-58.7H342.35z M348.65,786.7
			H74.85c-3.5,0-6.3,2.8-6.3,6.3h89.3v6.4h184.5v95.8h12.6V793C354.95,789.5,352.15,786.7,348.65,786.7z M68.55,1011.7h12.6V827.8
			h-12.6V1011.7z M228.15,1133.8v3.3h-32.7v-3.3H81.25v-88.6h-12.7v94.9c0,3.5,2.8,6.3,6.3,6.3h249.9v-12.6H228.15L228.15,1133.8z"
			/>
	</g>
	<g>
		<path style="fill:#C8000F;" d="M308.35,985.3h-34c-2.6,0-4.7,2.1-4.7,4.7v33.8c0,2.6,2.1,4.7,4.7,4.7h34c2.6,0,4.7-2.1,4.7-4.7
			V990C313.15,987.4,310.95,985.3,308.35,985.3z M303.65,1019.1h-24.5v-24.3h24.5V1019.1z"/>
	</g>
	<g>
		<path style="fill:#C8000F;" d="M255.25,985.3h-34c-2.6,0-4.7,2.1-4.7,4.7v33.8c0,2.6,2.1,4.7,4.7,4.7h34c2.6,0,4.7-2.1,4.7-4.7
			V990C260.05,987.4,257.95,985.3,255.25,985.3z M250.55,1019.1h-24.5v-24.3h24.5V1019.1z"/>
	</g>
	<g>
		<path style="fill:#C8000F;" d="M629.25,1041.8h-28c-2.6,0-4.7,2.1-4.7,4.7v27.9c0,2.6,2.1,4.7,4.7,4.7h28c2.6,0,4.7-2.1,4.7-4.7
			v-27.9C633.95,1043.9,631.85,1041.8,629.25,1041.8z M624.45,1069.7h-18.5v-18.4h18.5V1069.7z"/>
	</g>
	<g>
		<path style="fill:#C8000F;" d="M581.55,1041.8h-28c-2.6,0-4.7,2.1-4.7,4.7v27.9c0,2.6,2.1,4.7,4.7,4.7h28c2.6,0,4.7-2.1,4.7-4.7
			v-27.9C586.35,1043.9,584.15,1041.8,581.55,1041.8z M576.85,1069.7h-18.5v-18.4h18.5V1069.7z"/>
	</g>
	<g>
		<path style="fill:#C8000F;" d="M629.25,1002.2h-25.2v18.7h-7.5v13.9c0,2.6,2.1,4.7,4.7,4.7h28c2.6,0,4.7-2.1,4.7-4.7v-27.9
			C633.95,1004.3,631.85,1002.2,629.25,1002.2z M624.45,1030.1h-18.5v-18.4h18.5V1030.1z"/>
	</g>
	<g>
		<path style="fill:#C8000F;" d="M584.15,1020.9v9.2h-18.5v-9.2h-9.5v13.9c0,2.6,2.1,4.7,4.7,4.7h28c2.6,0,4.7-2.1,4.7-4.7v-13.9
			H584.15z"/>
	</g>
	<g>
		<path style="fill:#C8000F;" d="M543.85,1020.9v9.2h-18.5v-9.2h-9.5v13.9c0,2.6,2.1,4.7,4.7,4.7h28c2.6,0,4.7-2.1,4.7-4.7v-13.9
			H543.85z"/>
	</g>
	<g>
		<path style="fill:#C8000F;" d="M503.45,1020.9v9.2h-18.5v-18.4h5.9v-9.5h-10.6c-2.6,0-4.7,2.1-4.7,4.7v27.9c0,2.6,2.1,4.7,4.7,4.7
			h28c2.6,0,4.7-2.1,4.7-4.7v-13.9H503.45z"/>
	</g>
	<g>
		<path style="fill:#C8000F;" d="M427.55,1041.8h-28c-2.6,0-4.7,2.1-4.7,4.7v27.9c0,2.6,2.1,4.7,4.7,4.7h28c2.6,0,4.7-2.1,4.7-4.7
			v-27.9C432.35,1043.9,430.25,1041.8,427.55,1041.8z M422.85,1069.7h-18.5v-18.4h18.5V1069.7z"/>
	</g>
	<g>
		<path style="fill:#C8000F;" d="M481.95,1041.8h-28c-2.6,0-4.7,2.1-4.7,4.7v27.9c0,2.6,2.1,4.7,4.7,4.7h28c2.6,0,4.7-2.1,4.7-4.7
			v-27.9C486.65,1043.9,484.55,1041.8,481.95,1041.8z M477.15,1069.7h-18.5v-18.4h18.5V1069.7z"/>
	</g>
	<g>
		<path style="fill:#C8000F;" d="M427.55,1002.2h-28c-2.6,0-4.7,2.1-4.7,4.7v27.9c0,2.6,2.1,4.7,4.7,4.7h28c2.6,0,4.7-2.1,4.7-4.7
			v-27.9C432.35,1004.3,430.25,1002.2,427.55,1002.2z M422.85,1030.1h-18.5v-18.4h18.5V1030.1z"/>
	</g>
	<g>
		<path style="fill:#C8000F;" d="M467.95,1002.2h-28c-2.6,0-4.7,2.1-4.7,4.7v27.9c0,2.6,2.1,4.7,4.7,4.7h28c2.6,0,4.7-2.1,4.7-4.7
			v-27.9C472.65,1004.3,470.55,1002.2,467.95,1002.2z M463.15,1030.1h-18.5v-18.4h18.5V1030.1z"/>
	</g>
	<g>
		<path style="fill:#C8000F;" d="M629.25,964.4h-28c-2.6,0-4.7,2.1-4.7,4.7v10.2h7.5v22.5h25.2c2.6,0,4.7-2.1,4.7-4.7v-27.9
			C633.95,966.6,631.85,964.4,629.25,964.4z M624.45,992.3h-18.5v-18.4h18.5V992.3z"/>
	</g>
	<g>
		<path style="fill:#C8000F;" d="M588.85,964.4h-28c-2.6,0-4.7,2.1-4.7,4.7v10.2h9.5v-5.4h18.5v5.4h9.5v-10.2
			C593.65,966.6,591.55,964.4,588.85,964.4z"/>
	</g>
	<g>
		<path style="fill:#C8000F;" d="M548.55,964.4h-28c-2.6,0-4.7,2.1-4.7,4.7v10.2h9.5v-5.4h18.5v5.4h9.5v-10.2
			C553.35,966.6,551.15,964.4,548.55,964.4z"/>
	</g>
	<g>
		<path style="fill:#C8000F;" d="M508.25,964.4h-28c-2.6,0-4.7,2.1-4.7,4.7V997c0,2.6,2.1,4.7,4.7,4.7h10.6v-9.5h-5.9v-18.4h18.5
			v5.4h9.5V969C512.95,966.6,510.85,964.4,508.25,964.4z"/>
	</g>
	<g>
		<path style="fill:#C8000F;" d="M427.55,964.4h-28c-2.6,0-4.7,2.1-4.7,4.7V997c0,2.6,2.1,4.7,4.7,4.7h28c2.6,0,4.7-2.1,4.7-4.7
			v-27.9C432.35,966.6,430.25,964.4,427.55,964.4z M422.85,992.3h-18.5v-18.4h18.5V992.3z"/>
	</g>
	<g>
		<path style="fill:#C8000F;" d="M467.95,964.4h-28c-2.6,0-4.7,2.1-4.7,4.7V997c0,2.6,2.1,4.7,4.7,4.7h28c2.6,0,4.7-2.1,4.7-4.7
			v-27.9C472.65,966.6,470.55,964.4,467.95,964.4z M463.15,992.3h-18.5v-18.4h18.5V992.3z"/>
	</g>
	<g>
		<path style="fill:#C8000F;" d="M329.55,1070.6h-34c-2.6,0-4.7,2.1-4.7,4.7v33.8c0,2.6,2.1,4.7,4.7,4.7h34c2.6,0,4.7-2.1,4.7-4.7
			v-33.8C334.25,1072.7,332.15,1070.6,329.55,1070.6z M324.75,1104.4h-24.5V1080h24.5V1104.4z"/>
	</g>
	<g>
		<path style="fill:#C8000F;" d="M276.45,1070.6h-34c-2.6,0-4.7,2.1-4.7,4.7v33.8c0,2.6,2.1,4.7,4.7,4.7h34c2.6,0,4.7-2.1,4.7-4.7
			v-33.8C281.15,1072.7,279.05,1070.6,276.45,1070.6z M271.65,1104.4h-24.5V1080h24.5V1104.4z"/>
	</g>
	<g>
		<path style="fill:#C8000F;" d="M179.65,1070.6h-34c-2.6,0-4.7,2.1-4.7,4.7v33.8c0,2.6,2.1,4.7,4.7,4.7h34c2.6,0,4.7-2.1,4.7-4.7
			v-33.8C184.35,1072.7,182.25,1070.6,179.65,1070.6z M174.95,1104.4h-24.5V1080h24.5V1104.4z"/>
	</g>
	<g>
		<path style="fill:#C8000F;" d="M126.55,1070.6h-34c-2.6,0-4.7,2.1-4.7,4.7v33.8c0,2.6,2.1,4.7,4.7,4.7h34c2.6,0,4.7-2.1,4.7-4.7
			v-33.8C131.35,1072.7,129.25,1070.6,126.55,1070.6z M121.85,1104.4h-24.5V1080h24.5V1104.4z"/>
	</g>
	<g>
		<path style="fill:#C8000F;" d="M202.25,985.3h-34c-2.6,0-4.7,2.1-4.7,4.7v33.8c0,2.6,2.1,4.7,4.7,4.7h34c2.6,0,4.7-2.1,4.7-4.7
			V990C206.95,987.4,204.85,985.3,202.25,985.3z M197.45,1019.1h-24.5v-24.3h24.5V1019.1z"/>
	</g>
	<g>
		<path style="fill:#C8000F;" d="M149.15,985.3h-34c-2.6,0-4.7,2.1-4.7,4.7v33.8c0,2.6,2.1,4.7,4.7,4.7h34c2.6,0,4.7-2.1,4.7-4.7
			V990C153.85,987.4,151.75,985.3,149.15,985.3z M144.35,1019.1h-24.5v-24.3h24.5V1019.1z"/>
	</g>
	<g>
		<path style="fill:#C8000F;" d="M308.35,929.6h-34c-2.6,0-4.7,2.1-4.7,4.7v33.8c0,2.6,2.1,4.7,4.7,4.7h34c2.6,0,4.7-2.1,4.7-4.7
			v-33.8C313.15,931.8,310.95,929.6,308.35,929.6z M303.65,963.4h-24.5v-24.3h24.5V963.4z"/>
	</g>
	<g>
		<path style="fill:#C8000F;" d="M255.25,929.6h-34c-2.6,0-4.7,2.1-4.7,4.7v33.8c0,2.6,2.1,4.7,4.7,4.7h34c2.6,0,4.7-2.1,4.7-4.7
			v-33.8C260.05,931.8,257.95,929.6,255.25,929.6z M250.55,963.4h-24.5v-24.3h24.5V963.4z"/>
	</g>
	<g>
		<path style="fill:#C8000F;" d="M202.25,929.6h-34c-2.6,0-4.7,2.1-4.7,4.7v33.8c0,2.6,2.1,4.7,4.7,4.7h34c2.6,0,4.7-2.1,4.7-4.7
			v-33.8C206.95,931.8,204.85,929.6,202.25,929.6z M197.45,963.4h-24.5v-24.3h24.5V963.4z"/>
	</g>
	<g>
		<path style="fill:#C8000F;" d="M149.15,929.6h-34c-2.6,0-4.7,2.1-4.7,4.7v33.8c0,2.6,2.1,4.7,4.7,4.7h34c2.6,0,4.7-2.1,4.7-4.7
			v-33.8C153.85,931.8,151.75,929.6,149.15,929.6z M144.35,963.4h-24.5v-24.3h24.5V963.4z"/>
	</g>
	<g>
		<path style="fill:#C8000F;" d="M313.15,895.2v-16.5c0-2.6-2.1-4.7-4.7-4.7h-34c-2.6,0-4.7,2.1-4.7,4.7v33.8c0,2.6,2.1,4.7,4.7,4.7
			h34c2.6,0,4.7-2.1,4.7-4.7v-10h-9.5v5.2h-24.5v-24.3h24.5v11.7h9.5V895.2z"/>
	</g>
	<g>
		<path style="fill:#C8000F;" d="M255.25,874h-34c-2.6,0-4.7,2.1-4.7,4.7v33.8c0,2.6,2.1,4.7,4.7,4.7h34c2.6,0,4.7-2.1,4.7-4.7
			v-33.8C260.05,876.1,257.95,874,255.25,874z M250.55,907.8h-24.5v-24.3h24.5V907.8z"/>
	</g>
	<g>
		<path style="fill:#C8000F;" d="M202.25,874h-34c-2.6,0-4.7,2.1-4.7,4.7v33.8c0,2.6,2.1,4.7,4.7,4.7h34c2.6,0,4.7-2.1,4.7-4.7
			v-33.8C206.95,876.1,204.85,874,202.25,874z M197.45,907.8h-24.5v-24.3h24.5V907.8z"/>
	</g>
	<g>
		<path style="fill:#C8000F;" d="M149.15,874h-34c-2.6,0-4.7,2.1-4.7,4.7v33.8c0,2.6,2.1,4.7,4.7,4.7h34c2.6,0,4.7-2.1,4.7-4.7
			v-33.8C153.85,876.1,151.75,874,149.15,874z M144.35,907.8h-24.5v-24.3h24.5V907.8z"/>
	</g>
	<g>
		<path style="fill:#C8000F;" d="M308.35,818.3h-34c-2.6,0-4.7,2.1-4.7,4.7v33.8c0,2.6,2.1,4.7,4.7,4.7h34c2.6,0,4.7-2.1,4.7-4.7
			V823C313.15,820.4,310.95,818.3,308.35,818.3z M303.65,852.1h-24.5v-24.3h24.5V852.1z"/>
	</g>
	<g>
		<path style="fill:#C8000F;" d="M255.25,818.3h-34c-2.6,0-4.7,2.1-4.7,4.7v33.8c0,2.6,2.1,4.7,4.7,4.7h34c2.6,0,4.7-2.1,4.7-4.7
			V823C260.05,820.4,257.95,818.3,255.25,818.3z M250.55,852.1h-24.5v-24.3h24.5V852.1z"/>
	</g>
	<g>
		<path style="fill:#C8000F;" d="M202.25,818.3h-34c-2.6,0-4.7,2.1-4.7,4.7v33.8c0,2.6,2.1,4.7,4.7,4.7h34c2.6,0,4.7-2.1,4.7-4.7
			V823C206.95,820.4,204.85,818.3,202.25,818.3z M197.45,852.1h-24.5v-24.3h24.5V852.1z"/>
	</g>
	<g>
		<path style="fill:#C8000F;" d="M149.15,818.3h-34c-2.6,0-4.7,2.1-4.7,4.7v33.8c0,2.6,2.1,4.7,4.7,4.7h34c2.6,0,4.7-2.1,4.7-4.7
			V823C153.85,820.4,151.75,818.3,149.15,818.3z M144.35,852.1h-24.5v-24.3h24.5V852.1z"/>
	</g>
	<g>
		<path style="fill:#C8000F;" d="M653.75,944h-273.8c-3.5,0-6.3,2.8-6.3,6.3v167.5h12.6V956.7h261.1v177.1h-236.3v12.6h242.7
			c3.5,0,6.3-2.8,6.3-6.3V950.3C660.05,946.9,657.25,944,653.75,944z"/>
	</g>
	<rect x="308.35" y="913.6" style="fill:#C8000F;" width="9.5" height="7.4"/>
	<rect x="354.95" y="895.2" style="fill:#C8000F;" width="44.8" height="7.4"/>
	<rect x="62.25" y="1022.8" style="fill:#C8000F;" width="12.6" height="33.6"/>
	<rect x="413.55" y="814.1" style="fill:#C8000F;" width="13.6" height="13.7"/>
	<rect x="516.85" y="925.7" style="fill:#C8000F;" width="32" height="13.4"/>
	<path style="fill:#C8000F;" d="M520.35,986.7v17.7c0,2.6-2.1,4.7-4.7,4.7h-17.4v-9.5h12.7v-13h9.4V986.7z"/>
	<path style="fill:#C8000F;" d="M520.35,1014.3v13.9h-9.5v-9.2h-12.7v-9.5h17.4C518.25,1009.6,520.35,1011.7,520.35,1014.3z"/>
	<path style="fill:#C8000F;" d="M560.65,986.7v17.7c0,2.6-2.1,4.7-4.7,4.7h-28c-2.6,0-4.7-2.1-4.7-4.7v-17.7h9.5v13h18.5v-13H560.65
		z"/>
	<path style="fill:#C8000F;" d="M553.35,1006.9v13.9h-9.5v-9.2h-18.5v9.2h-9.5v-13.9c0-2.6,2.1-4.7,4.7-4.7h28
		C551.15,1002.2,553.35,1004.3,553.35,1006.9z"/>
	<path style="fill:#C8000F;" d="M601.05,986.7v17.7c0,2.6-2.1,4.7-4.7,4.7h-28c-2.6,0-4.7-2.1-4.7-4.7v-17.7h9.5v13h18.4v-13H601.05
		z"/>
	<path style="fill:#C8000F;" d="M593.65,1006.9v13.9h-9.5v-9.2h-18.5v9.2h-9.5v-13.9c0-2.6,2.1-4.7,4.7-4.7h28
		C591.55,1002.2,593.65,1004.3,593.65,1006.9z"/>
	<path style="fill:#C8000F;" d="M611.35,986.7v22.5h-2.8c-2.6,0-4.7-2.1-4.7-4.7v-17.7h7.5V986.7z"/>
	<path style="fill:#C8000F;" d="M611.35,1009.6v18.7h-7.5v-13.9c0-2.6,2.1-4.7,4.7-4.7h2.8V1009.6z"/>
	<path style="fill:#C8000F;" d="M345.25,1142.6v22.3c0,3.5-2.8,6.3-6.3,6.3h-23.9v-12.6h17.5v-16L345.25,1142.6L345.25,1142.6z"/>
	<path style="fill:#C8000F;" d="M401.25,1158.6v12.6h-31.1c-3.5,0-6.3-2.8-6.3-6.3v-22.3h12.7v16H401.25L401.25,1158.6z"/>
	<path style="fill:#C8000F;" d="M153.85,823.1v4.7h-43.5v-4.7c0-2.6,2.1-4.7,4.7-4.7h34C151.75,818.3,153.85,820.4,153.85,823.1z"/>
	<polygon style="fill:#C8000F;" points="136.85,800.9 136.85,807.3 60.25,807.3 60.25,835.7 47.55,835.7 47.55,800.9 	"/>
	<rect x="322.95" y="979.3" style="fill:#C8000F;" width="11.3" height="7.4"/>
	<rect x="354.95" y="985.8" style="fill:#C8000F;" width="3.2" height="9"/>
	<rect x="285.95" y="1044.6" style="fill:#C8000F;" width="7.7" height="6.6"/>
	<rect x="498.25" y="985.3" style="fill:#C8000F;" width="5.5" height="7"/>
	<rect x="542.55" y="988.8" style="fill:#C8000F;" width="0" height="3.5"/>
	<rect x="509.25" y="1045.2" style="fill:#C8000F;" width="11.1" height="2.7"/>
	<polygon style="fill:#C8000F;" points="537.45,1020.9 541.25,1020.9 541.25,1020.9 	"/>
	<rect x="574.85" y="1018.9" style="fill:#C8000F;" width="0" height="6.2"/>
	<rect x="576.85" y="989.4" style="fill:#C8000F;" width="5.4" height="2.9"/>
	<rect x="616.15" y="1022" style="fill:#C8000F;" width="8.3" height="11.5"/>
	<rect x="647.35" y="1027.8" style="fill:#C8000F;" width="35.5" height="11.8"/>
	<rect x="679.25" y="1060.5" style="fill:#C8000F;" width="7.4" height="13.1"/>
	<rect x="330.15" y="961.3" style="fill:#C8000F;" width="4.1" height="2.1"/>
	<rect x="247.15" y="810.4" style="fill:#C8000F;" width="19.1" height="3.7"/>
	<rect x="324.75" y="861.6" style="fill:#C8000F;" width="5.3" height="27.2"/>
	<polygon style="fill:#C8000F;" points="211.75,1048 226.05,1048 226.05,1048 	"/>
</g>
</svg>
