<?xml version="1.0" encoding="utf-8"?>
<!-- Generator: Adobe Illustrator 19.0.0, SVG Export Plug-In . SVG Version: 6.00 Build 0)  -->
<svg version="1.1" id="Layer_1" xmlns="http://www.w3.org/2000/svg" xmlns:xlink="http://www.w3.org/1999/xlink" x="0px" y="0px"
	 viewBox="-119 481.5 959.5 959.5" style="enable-background:new -119 481.5 959.5 959.5;" xml:space="preserve">
<style type="text/css">
	.st0{fill:#FF93A2;}
	.st1{fill:#FECAFF;}
	.st2{fill:#C8000F;}
</style>
<title>campus ambassador</title>
<g>
	<rect x="85.4" y="1007.8" class="st0" width="12" height="31.8"/>
	<g>
		<g>
			<path class="st0" d="M111.5,616.7l43-29C139.6,596.4,125.3,606.1,111.5,616.7z M-51.9,972.7c1,18.9,3.3,37.5,6.8,55.9
				L-51.9,972.7z M155.4,616.7h-43.9c-14.5,11.1-28.2,23.2-41.3,36.3c-38.5,38.5-68.7,83.3-89.9,133.3c-21.9,51.7-33,106.6-33,163.2
				c0,7.8,0.2,15.5,0.6,23.2h25c-0.5-7.7-0.7-15.4-0.7-23.2C-27.6,809.7,45.5,686.7,155.4,616.7z M117,1286.3
				c3.8,2.9,7.7,5.6,11.7,8.4L117,1286.3z M-19.6,1028.5h-25.5c5.5,28.8,14,56.9,25.5,84.1c21.1,49.9,51.4,94.8,89.9,133.3
				c14.7,14.7,30.3,28.1,46.7,40.4v-12.6h25.6C60.6,1216.8,1.1,1129.7-19.6,1028.5z M753.1,786.2c-5.3-12.5-11.1-24.7-17.6-36.5
				h-28.9c28.2,47.8,46.6,102.1,52.5,160h25.1C780.2,867.1,769.8,825.7,753.1,786.2z M663.3,652.9c-38.5-38.5-83.4-68.7-133.3-89.9
				c-51.7-21.9-106.6-33-163.2-33c-56.6,0-111.5,11.1-163.2,33c-16.9,7.2-33.3,15.4-49,24.6h55.3c48.1-20.9,101.1-32.5,156.9-32.5
				c130.9,0,247.1,64.1,318.8,162.5h30.7C700.9,694.5,683.2,672.9,663.3,652.9z M760.4,972.7c-3.9,67.4-24.9,130.4-58.7,184.6
				c-5.3,8.6-11,16.9-16.9,25c-71.8,97.8-187.6,161.5-318,161.5c-69,0-133.9-17.8-190.4-49.1h-47.7c23.4,16.2,48.4,29.9,74.9,41.1
				c51.7,21.9,106.6,33,163.2,33c56.6,0,111.5-11.1,163.2-33c49.9-21.1,94.8-51.3,133.3-89.8c19.6-19.6,37.1-40.9,52.3-63.7
				c5.5-8.1,10.6-16.5,15.5-25c8.2-14.4,15.6-29.2,22.1-44.6c18.9-44.6,29.7-91.6,32.3-140H760.4z"/>
		</g>
		<path class="st0" d="M-32.3,1028.5h-25.5l-6.8-55.9h25C-38.5,991.7-36.1,1010.3-32.3,1028.5z"/>
		<path class="st0" d="M741.2,733.7h-28.9c-6.5-11-13.5-21.7-21-32H722C728.9,712,735.3,722.7,741.2,733.7z"/>
		<path class="st0" d="M799.6,943.3c0,7.8-0.2,15.5-0.6,23.2h-25c0.5-7.7,0.7-15.4,0.7-23.2c0-13.4-0.7-26.7-2-39.8h25.1
			C798.9,916.7,799.6,930,799.6,943.3z"/>
		<path class="st0" d="M786.1,909.7v39.8c0-13.4-0.6-26.6-1.9-39.8H786.1z"/>
		<path class="st0" d="M785.4,972.7c0.4-7.7,0.6-15.5,0.6-23.2v23.2H785.4z"/>
		<path class="st0" d="M215.3,594.9c-19,8.3-37.2,18-54.5,29H117l43-29H215.3z"/>
		<path class="st0" d="M185.1,1284.2h-47.7l-11.7-8.4v-12.6h25.6C162.2,1270.7,173.5,1277.7,185.1,1284.2z"/>
		<path class="st0" d="M739.4,1207.5c-4.9,8.5-10,16.9-15.5,25h-30.8c6-8.1,11.6-16.4,16.9-25H739.4z"/>
		<rect x="608.6" y="1098" class="st0" width="15.4" height="8.1"/>
		<rect x="341.9" y="1213.7" class="st0" width="33.4" height="6.4"/>
		<rect x="-28" y="995.7" class="st0" width="12" height="4.9"/>
		<rect x="117" y="587.7" class="st0" width="19.7" height="11.1"/>
		<rect x="680" y="733.7" class="st0" width="7" height="34.8"/>
		<rect x="739.4" y="915.7" class="st0" width="17.6" height="13.9"/>
		<rect x="729" y="966.6" class="st0" width="10.4" height="19.1"/>
		<rect x="799.6" y="886.7" class="st0" width="20.4" height="7"/>
		<rect x="729" y="1175.7" class="st0" width="19.2" height="16"/>
		<rect x="680" y="1157.4" class="st0" width="43" height="13.3"/>
		<rect x="616.3" y="1228.7" class="st0" width="7.7" height="10"/>
		<rect x="559" y="1245.7" class="st0" width="23" height="7"/>
		<rect x="111.5" y="1312.7" class="st0" width="21.5" height="9"/>
		<rect x="88" y="1284.2" class="st0" width="10" height="19.5"/>
		<rect x="-76" y="1046.7" class="st0" width="11.3" height="12"/>
		<rect x="-81" y="949.4" class="st0" width="16.3" height="11.6"/>
		<rect x="154.6" y="1220" class="st0" width="11.6" height="8.6"/>
		<rect x="376.2" y="684.7" class="st0" width="13.9" height="11"/>
	</g>
	<g>
		<path class="st0" d="M146.3,883.7c-1.6-1.5-3.7-2.4-6-2.4h-2.6c-1.8,0-3.6,0.6-5,1.5c-2.3,1.6-3.8,4.3-3.8,7.3v73.8
			c0,4.9,4,8.8,8.8,8.8h2.6c4.9,0,8.8-4,8.8-8.8v-73.8C149.1,887.6,148.1,885.3,146.3,883.7z M139.1,962.7h-0.3v-71.4h0.3V962.7z"/>
	</g>
	<g>
		<path class="st0" d="M176.3,882.8c-1.4-1-3.1-1.5-4.9-1.5h-2.6c-2.3,0-4.4,0.9-6,2.4c-1.7,1.6-2.8,3.9-2.8,6.4v73.8
			c0,4.9,4,8.8,8.8,8.8h2.6c4.9,0,8.8-4,8.8-8.8v-73.8C180.2,887.1,178.7,884.4,176.3,882.8z M170.2,962.7h-0.3v-71.4h0.3V962.7z"/>
	</g>
	<g>
		<path class="st0" d="M169.7,792.3h-30.5c-14,0-25.4,11.4-25.4,25.4v40.7c0,11.7,8,21.7,18.9,24.5c2.1,0.6,4.3,0.8,6.5,0.8h30.5
			c2.3,0,4.5-0.3,6.6-0.9c10.8-2.9,18.7-12.8,18.7-24.5v-40.7C195,803.7,183.7,792.3,169.7,792.3z M185,858.3
			c0,8.5-6.9,15.4-15.4,15.4h-30.5c-8.5,0-15.4-6.9-15.4-15.4v-40.7c0-8.5,6.9-15.4,15.4-15.4h30.5c8.5,0,15.4,6.9,15.4,15.4V858.3z
			"/>
	</g>
	<g>
		<path class="st0" d="M154.4,741.7c-13.9,0-25.2,11.3-25.2,25.2c0,13.9,11.3,25.2,25.2,25.2c13.9,0,25.1-11.3,25.1-25.2
			C179.6,753,168.3,741.7,154.4,741.7z M154.4,782.1c-8.4,0-15.2-6.8-15.2-15.2c0-8.4,6.8-15.2,15.2-15.2c8.3,0,15.1,6.8,15.1,15.2
			C169.6,775.3,162.8,782.1,154.4,782.1z"/>
	</g>
	<g>
		<path class="st0" d="M217.6,974.1c-1.6-1.5-3.7-2.4-6-2.4h-2.7c-1.8,0-3.6,0.6-5,1.5c-1.9,1.3-3.3,3.3-3.7,5.7h20
			C219.9,977,218.9,975.3,217.6,974.1z M210.4,1010v43.1h-0.3V1010h-10v44.3c0,4.9,3.9,8.8,8.8,8.8h2.7c4.9,0,8.8-3.9,8.8-8.8V1010
			H210.4z"/>
	</g>
	<g>
		<path class="st0" d="M247.5,973.2c-1.4-1-3.1-1.5-4.9-1.5H240c-2.3,0-4.5,0.9-6,2.4c-1.3,1.3-2.3,2.9-2.6,4.8h20
			C250.9,976.5,249.5,974.5,247.5,973.2z M241.4,1010v43.1h-0.3V1010h-10v44.3c0,4.9,3.9,8.8,8.8,8.8h2.6c4.9,0,8.8-3.9,8.8-8.8
			V1010H241.4z"/>
	</g>
	<g>
		<path class="st0" d="M240.9,882.7h-30.5c-14,0-25.4,11.4-25.4,25.4v40.7c0,11.8,8,21.7,18.9,24.5c2.1,0.6,4.3,0.9,6.5,0.9h30.5
			c2.3,0,4.5-0.3,6.7-0.9c10.8-2.9,18.7-12.8,18.7-24.5V908C266.3,894,254.9,882.7,240.9,882.7z M256.3,948.7
			c0,8.5-6.9,15.4-15.4,15.4h-30.5c-8.5,0-15.4-6.9-15.4-15.4V908c0-8.5,6.9-15.4,15.4-15.4h30.5c8.5,0,15.4,6.9,15.4,15.4V948.7z"
			/>
	</g>
	<g>
		<path class="st0" d="M225.7,832.1c-13.9,0-25.2,11.3-25.2,25.2s11.3,25.2,25.2,25.2s25.2-11.3,25.2-25.2S239.5,832.1,225.7,832.1z
			 M225.7,872.4c-8.4,0-15.2-6.8-15.2-15.2s6.8-15.2,15.2-15.2s15.2,6.8,15.2,15.2S234,872.4,225.7,872.4z"/>
	</g>
	<g>
		<path class="st0" d="M282.8,1062h-2.6c-1.8,0-3.6,0.6-5,1.6c2.1,0.5,4.3,0.8,6.5,0.8h7.1C287.2,1062.9,285.1,1062,282.8,1062z"/>
		<path class="st0" d="M291.6,1070.8v38.2h-10v-37h-0.3v81.4h-1.2c-4.9,0-8.8-4-8.8-8.8v-73.8c0-3,1.5-5.7,3.9-7.3
			c2.1,0.5,4.3,0.8,6.5,0.8h7.1C290.5,1066,291.6,1068.3,291.6,1070.8z"/>
	</g>
	<g>
		<path class="st0" d="M313.9,1062h-2.6c-2.3,0-4.5,0.9-6,2.4h6.9c2.3,0,4.5-0.3,6.6-0.9C317.4,1062.6,315.7,1062,313.9,1062z"/>
		<path class="st0" d="M322.7,1070.8v38.2h-10v-37h-0.3v37h-10v-38.2c0-2.5,1.1-4.8,2.8-6.4h6.9c2.3,0,4.5-0.3,6.6-0.9
			C321.1,1065.1,322.7,1067.8,322.7,1070.8z"/>
	</g>
	<g>
		<path class="st0" d="M327.5,1010v29c0,8.5-6.9,15.4-15.4,15.4h-30.5c-8.5,0-15.4-6.9-15.4-15.4v-29h-10v29
			c0,11.8,8,21.7,18.9,24.5c2.1,0.5,4.3,0.8,6.5,0.8h30.5c2.3,0,4.5-0.3,6.6-0.9c10.8-2.9,18.7-12.8,18.7-24.5v-29H327.5z
			 M312.1,973h-30.5c-6.2,0-11.8,2.2-16.2,5.9h62.9C324,975.2,318.3,973,312.1,973z"/>
	</g>
	<g>
		<path class="st0" d="M296.9,922.4c-13.9,0-25.2,11.3-25.2,25.2c0,13.9,11.3,25.2,25.2,25.2c13.9,0,25.2-11.3,25.2-25.2
			C322,933.7,310.8,922.4,296.9,922.4z M296.9,962.7c-8.4,0-15.2-6.8-15.2-15.2c0-8.4,6.8-15.2,15.2-15.2c8.4,0,15.2,6.8,15.2,15.2
			C312,955.9,305.2,962.7,296.9,962.7z"/>
	</g>
	<g>
		<path class="st0" d="M571.6,883.7c-1.6-1.5-3.7-2.4-6-2.4h-2.6c-1.8,0-3.5,0.5-4.9,1.5c-2.4,1.6-3.9,4.3-3.9,7.3v73.8
			c0,4.9,4,8.8,8.8,8.8h2.6c4.9,0,8.8-4,8.8-8.8v-73.8C574.4,887.6,573.3,885.3,571.6,883.7z M564.4,962.7h-0.3v-71.4h0.3V962.7z"/>
	</g>
	<g>
		<path class="st0" d="M595.1,792.3h-30.5c-12.6,0-23.2,9.3-25.1,21.4h10.2c1.8-6.6,7.8-11.4,14.9-11.4h30.5
			c8.5,0,15.4,6.9,15.4,15.4v40.7c0,8.5-6.9,15.4-15.4,15.4h-30.5c-8.5,0-15.4-6.9-15.4-15.4v-12.5h-10v12.5
			c0,11.7,8,21.6,18.7,24.5c2.1,0.6,4.3,0.9,6.6,0.9h30.5c14,0,25.4-11.4,25.4-25.4v-40.7C620.5,803.7,609.1,792.3,595.1,792.3z"/>
	</g>
	<g>
		<path class="st0" d="M579.9,741.7c-13.9,0-25.2,11.3-25.2,25.2c0,13.9,11.3,25.2,25.2,25.2s25.2-11.3,25.2-25.2
			C605,753,593.8,741.7,579.9,741.7z M579.9,782.1c-8.4,0-15.2-6.8-15.2-15.2c0-8.4,6.8-15.2,15.2-15.2c8.4,0,15.2,6.8,15.2,15.2
			C595,775.3,588.2,782.1,579.9,782.1z"/>
	</g>
	<g>
		<path class="st0" d="M524,981.7v71.4h0.3v-71.4H524z M524.2,1010v-28.3H524v28.3h-10v44.3c0,4.9,4,8.8,8.8,8.8h2.6
			c4.9,0,8.8-3.9,8.8-8.8V1010H524.2z M530.4,973.2c-1.4-1-3.1-1.5-5-1.5h-2.6c-2.3,0-4.5,0.9-6,2.4c-1.4,1.3-2.3,2.9-2.6,4.8h20
			C533.7,976.5,532.3,974.5,530.4,973.2z"/>
	</g>
	<g>
		<path class="st0" d="M493.2,1010v43.1h-0.3V1010h-10v44.3c0,4.9,3.9,8.8,8.8,8.8h2.6c4.9,0,8.8-3.9,8.8-8.8V1010H493.2z
			 M500.4,974.1c-1.6-1.5-3.7-2.4-6-2.4h-2.6c-1.8,0-3.5,0.5-4.9,1.5h0c-1.9,1.3-3.3,3.3-3.7,5.7h20
			C502.7,977,501.7,975.3,500.4,974.1z"/>
	</g>
	<g>
		<path class="st0" d="M523.9,882.7h-30.5c-14,0-25.4,11.4-25.4,25.4v40.7c0,11.7,8,21.6,18.7,24.5h0c2.1,0.6,4.3,0.9,6.6,0.9h30.5
			c2.3,0,4.4-0.3,6.5-0.9c10.9-2.9,18.9-12.8,18.9-24.5V908C549.3,894,537.9,882.7,523.9,882.7z M539.3,948.7
			c0,8.5-6.9,15.4-15.4,15.4h-30.5c-8.5,0-15.4-6.9-15.4-15.4V908c0-8.5,6.9-15.4,15.4-15.4h30.5c8.5,0,15.4,6.9,15.4,15.4V948.7z"
			/>
	</g>
	<g>
		<path class="st0" d="M531.1,845.8h-12.5c3.2,2.8,5.2,6.9,5.2,11.4c0,8.4-6.8,15.2-15.1,15.2c-8.4,0-15.2-6.8-15.2-15.2
			c0-6.4,4-11.9,9.7-14.1v-10.4c-11.2,2.5-19.7,12.6-19.7,24.5c0,13.9,11.3,25.2,25.2,25.2c13.9,0,25.1-11.3,25.1-25.2
			C533.8,853.1,532.8,849.2,531.1,845.8z"/>
	</g>
	<g>
		<path class="st0" d="M459.2,1063.6c-1.4-1-3.1-1.5-5-1.5h-2.7c-2.3,0-4.4,0.9-6,2.4c-1.7,1.6-2.8,3.9-2.8,6.4v73.8
			c0,4.9,3.9,8.8,8.8,8.8h2.7c4.9,0,8.8-4,8.8-8.8v-73.8C463,1067.8,461.5,1065.1,459.2,1063.6z M453,1143.4h-0.3V1072h0.3V1143.4z"
			/>
	</g>
	<g>
		<path class="st0" d="M429.1,1064.4c-1.6-1.5-3.7-2.4-6-2.4h-2.6c-1.8,0-3.5,0.6-4.9,1.5c-2.4,1.6-3.9,4.3-3.9,7.3v73.8
			c0,4.9,3.9,8.8,8.8,8.8h2.6c4.9,0,8.8-4,8.8-8.8v-73.8C431.9,1068.3,430.8,1066,429.1,1064.4z M421.9,1143.4h-0.3V1072h0.3V1143.4
			z"/>
	</g>
	<g>
		<path class="st0" d="M468,1010v29c0,8.5-6.9,15.4-15.4,15.4h-30.5c-8.5,0-15.4-6.9-15.4-15.4v-29h-10v29c0,11.7,8,21.6,18.7,24.5
			c2.1,0.6,4.3,0.9,6.6,0.9h30.5c2.3,0,4.4-0.3,6.5-0.8c10.8-2.9,18.9-12.8,18.9-24.5v-29H468z M452.7,973h-30.5
			c-6.2,0-11.8,2.2-16.2,5.9h62.9C464.5,975.2,458.8,973,452.7,973z"/>
	</g>
	<g>
		<path class="st0" d="M437.4,922.4c-13.9,0-25.2,11.3-25.2,25.2c0,13.9,11.3,25.2,25.2,25.2s25.2-11.3,25.2-25.2
			C462.6,933.7,451.3,922.4,437.4,922.4z M437.4,962.7c-8.4,0-15.2-6.8-15.2-15.2c0-8.4,6.8-15.2,15.2-15.2s15.2,6.8,15.2,15.2
			C452.6,955.9,445.8,962.7,437.4,962.7z"/>
	</g>
	<g>
		<path class="st0" d="M387.9,1153.9c-1.4-1-3.1-1.6-5-1.6h-2.6c-2.3,0-4.5,0.9-6,2.4c-1.7,1.6-2.8,3.9-2.8,6.4v73.8
			c0,4.9,4,8.8,8.8,8.8h2.6c4.9,0,8.8-4,8.8-8.8v-73.8C391.8,1158.2,390.3,1155.5,387.9,1153.9z M381.8,1233.8h-0.3v-71.4h0.3
			V1233.8z"/>
	</g>
	<g>
		<path class="st0" d="M357.9,1154.8c-1.6-1.5-3.7-2.4-6-2.4h-2.6c-1.8,0-3.5,0.6-4.9,1.5c-2.3,1.6-3.9,4.3-3.9,7.3v73.8
			c0,4.9,4,8.8,8.8,8.8h2.6c4.9,0,8.8-4,8.8-8.8v-73.8C360.7,1158.6,359.6,1156.4,357.9,1154.8z M350.7,1233.8h-0.3v-71.4h0.3
			V1233.8z"/>
	</g>
	<g>
		<path class="st0" d="M381.4,1063.3h-30.5c-14,0-25.4,11.4-25.4,25.4v20.3h10v-20.3c0-8.5,6.9-15.4,15.4-15.4h30.5
			c8.5,0,15.4,6.9,15.4,15.4v40.7c0,8.5-6.9,15.3-15.3,15.4v7.6h-1.2c-2.3,0-4.5,0.9-6,2.4h7.2c2.2,0,4.4-0.3,6.5-0.8
			c10.9-2.9,18.9-12.8,18.9-24.5v-40.7C406.8,1074.7,395.4,1063.3,381.4,1063.3z M349.2,1152.3c-1.8,0-3.5,0.6-4.9,1.5
			c2.1,0.6,4.4,0.9,6.7,0.9h7c-1.6-1.5-3.7-2.4-6-2.4H349.2z"/>
	</g>
	<g>
		<path class="st0" d="M366.2,1012.8c-13.9,0-25.2,11.3-25.2,25.2c0,13.9,11.3,25.2,25.2,25.2c13.9,0,25.1-11.3,25.1-25.2
			C391.3,1024,380.1,1012.8,366.2,1012.8z M366.2,1053.1c-8.4,0-15.2-6.8-15.2-15.2c0-8.3,6.8-15.2,15.2-15.2
			c8.4,0,15.1,6.8,15.1,15.2C381.3,1046.3,374.5,1053.1,366.2,1053.1z"/>
	</g>
	<path class="st0" d="M220.4,980.5v29.5h-10v-28.3h-0.3v28.3h-10v-29.5c0-0.5,0.1-1.1,0.2-1.6h20
		C220.3,979.4,220.4,979.9,220.4,980.5z"/>
	<rect x="210.1" y="981.7" class="st0" width="0.3" height="28.3"/>
	<path class="st0" d="M352.6,1002.1v11.7h-10v-11.7c0-8.5-6.9-15.4-15.4-15.4h-30.5c-8.5,0-15.4,6.9-15.4,15.4v11.7h-10v-11.7
		c0-7.8,3.6-14.8,9.1-19.5h62.9C349,987.2,352.6,994.2,352.6,1002.1z"/>
	<path class="st0" d="M251.4,980.5v29.5h-10v-28.3h-0.3v28.3h-10v-29.5c0-0.5,0.1-1.1,0.1-1.6h20
		C251.4,979.4,251.4,979.9,251.4,980.5z"/>
	<rect x="241.2" y="981.7" class="st0" width="0.3" height="28.3"/>
	<path class="st0" d="M486,1002.1v11.6h-10v-11.6c0-8.5-6.9-15.4-15.4-15.4h-30.5c-8.5,0-15.4,6.9-15.4,15.4v11.6h-10v-11.6
		c0-7.8,3.6-14.8,9.2-19.5h62.9C482.5,987.2,486,994.2,486,1002.1z"/>
	<path class="st0" d="M513.1,996.1v29.5h-10v-28.3h-0.3v28.3h-10v-29.5c0-0.5,0.1-1.1,0.2-1.6h20C513.1,995,513.1,995.5,513.1,996.1
		z"/>
	<path class="st0" d="M544.4,987.3v29.5h-10v-28.3h-0.3v28.3h-10l0.1-31.1h20C544.3,986.2,544.4,986.7,544.4,987.3z"/>
	<path class="st0" d="M532.5,832.1h-12.5c-2.7-2.3-6.1-3.7-9.9-3.7c-1.9,0-3.8,0.4-5.5,1V819c1.8-0.4,3.6-0.6,5.5-0.6
		C519.9,818.4,528.4,823.9,532.5,832.1z"/>
	<path class="st0" d="M518.6,845.8h-15.4v-2.7c1.7-0.7,3.6-1,5.5-1C512.4,842.1,515.9,843.5,518.6,845.8z"/>
	<path class="st0" d="M559.4,822c-0.3,1.3-0.5,2.6-0.5,4v28.1h-10v-28.1c0-1.4,0.1-2.7,0.3-4H559.4z"/>
	<path class="st0" d="M291.6,1109v35.5c0,4.9-4,8.8-8.8,8.8h-1.5v-10h0.3V1109H291.6z"/>
	<rect x="281.3" y="1109" class="st0" width="0.3" height="34.4"/>
	<path class="st0" d="M322.1,1135.2v35.5c0,4.9-3.9,8.8-8.8,8.8h-2.6c-4.9,0-8.8-4-8.8-8.8v-35.5h10v34.4h0.3v-34.4H322.1z"/>
	<path class="st0" d="M386.5,1144.1v7.6h-1.2c-2.3,0-4.5,0.9-6,2.4h-16.4c-1.6-1.5-3.7-2.4-6-2.4h-2.6c-1.8,0-3.5,0.6-4.9,1.5
		c-10.8-2.9-18.7-12.8-18.7-24.5v-20.3h10v20.3c0,8.5,6.9,15.4,15.4,15.4H386.5z"/>
	<path class="st0" d="M357.9,1154.8c1.7,1.6,2.8,3.9,2.8,6.4v1.2h-20.3v-1.2c0-3,1.5-5.7,3.9-7.3c1.4-1,3.1-1.5,4.9-1.5h2.6
		C354.2,1152.3,356.3,1153.3,357.9,1154.8z"/>
	<path class="st0" d="M381.5,1152.3v10h-10v-1.2c0-2.5,1.1-4.8,2.8-6.4c1.6-1.5,3.7-2.4,6-2.4H381.5z"/>
	<rect x="374.1" y="1109" class="st0" width="2.4" height="12.5"/>
	<rect x="435.4" y="1030.4" class="st0" width="7.3" height="9.2"/>
	<rect x="215.3" y="921.6" class="st0" width="15.8" height="10.9"/>
	<rect x="157.2" y="825.2" class="st0" width="9" height="18.7"/>
	<rect x="385.2" y="903.6" class="st0" width="11.6" height="6.1"/>
	<rect x="357.9" y="949.4" class="st0" width="2.8" height="3"/>
	<rect x="390.1" y="845.8" class="st0" width="16.7" height="11.4"/>
	<rect x="360.7" y="952.4" class="st0" width="15.8" height="17.7"/>
	<rect x="195.1" y="1072" class="st0" width="11.2" height="0"/>
	<rect x="291.6" y="1022.8" class="st0" width="5.3" height="12.1"/>
	<rect x="318.8" y="1126.2" class="st0" width="3.3" height="8.9"/>
	<rect x="312.5" y="1213.7" class="st0" width="10.1" height="3.2"/>
	<rect x="524.2" y="783.7" class="st0" width="10" height="18.6"/>
	<rect x="463" y="829.7" class="st0" width="20.5" height="12.4"/>
	<rect x="67.4" y="1007.8" class="st1" width="12" height="31.8"/>
	<g>
		<g>
			<path class="st1" d="M93.5,616.7l43-29C121.6,596.4,107.3,606.1,93.5,616.7z M-69.9,972.7c1,18.9,3.3,37.5,6.8,55.9L-69.9,972.7z
				 M137.4,616.7H93.5c-14.5,11.1-28.2,23.2-41.3,36.3c-38.5,38.5-68.7,83.3-89.9,133.3c-21.9,51.7-33,106.6-33,163.2
				c0,7.8,0.2,15.5,0.6,23.2h25c-0.5-7.7-0.7-15.4-0.7-23.2C-45.6,809.7,27.5,686.7,137.4,616.7z M99,1286.3
				c3.8,2.9,7.7,5.6,11.7,8.4L99,1286.3z M-37.6,1028.5h-25.5c5.5,28.8,14,56.9,25.5,84.1c21.1,49.9,51.4,94.8,89.9,133.3
				c14.7,14.7,30.3,28.1,46.7,40.4v-12.6h25.6C42.6,1216.8-16.9,1129.7-37.6,1028.5z M735.1,786.2c-5.3-12.5-11.1-24.7-17.6-36.5
				h-28.9c28.2,47.8,46.6,102.1,52.5,160h25.1C762.2,867.1,751.8,825.7,735.1,786.2z M645.3,652.9c-38.5-38.5-83.4-68.7-133.3-89.9
				c-51.7-21.9-106.6-33-163.2-33c-56.6,0-111.5,11.1-163.2,33c-16.9,7.2-33.3,15.4-49,24.6h55.3c48.1-20.9,101.1-32.5,156.9-32.5
				c130.9,0,247.1,64.1,318.8,162.5h30.7C682.9,694.5,665.2,672.9,645.3,652.9z M742.4,972.7c-3.9,67.4-24.9,130.4-58.7,184.6
				c-5.3,8.6-11,16.9-16.9,25c-71.8,97.8-187.6,161.5-318,161.5c-69,0-133.9-17.8-190.4-49.1h-47.7c23.4,16.2,48.4,29.9,74.9,41.1
				c51.7,21.9,106.6,33,163.2,33c56.6,0,111.5-11.1,163.2-33c49.9-21.1,94.8-51.3,133.3-89.8c19.6-19.6,37.1-40.9,52.3-63.7
				c5.5-8.1,10.6-16.5,15.5-25c8.2-14.4,15.6-29.2,22.1-44.6c18.9-44.6,29.7-91.6,32.3-140H742.4z"/>
		</g>
		<path class="st1" d="M-50.3,1028.5h-25.5l-6.8-55.9h25C-56.5,991.7-54.1,1010.3-50.3,1028.5z"/>
		<path class="st1" d="M723.2,733.7h-28.9c-6.5-11-13.5-21.7-21-32H704C710.9,712,717.3,722.7,723.2,733.7z"/>
		<path class="st1" d="M781.6,943.3c0,7.8-0.2,15.5-0.6,23.2h-25c0.5-7.7,0.7-15.4,0.7-23.2c0-13.4-0.7-26.7-2-39.8h25.1
			C780.9,916.7,781.6,930,781.6,943.3z"/>
		<path class="st1" d="M768.1,909.7v39.8c0-13.4-0.6-26.6-1.9-39.8H768.1z"/>
		<path class="st1" d="M767.4,972.7c0.4-7.7,0.6-15.5,0.6-23.2v23.2H767.4z"/>
		<path class="st1" d="M197.3,594.9c-19,8.3-37.2,18-54.5,29H99l43-29H197.3z"/>
		<path class="st1" d="M167.1,1284.2h-47.7l-11.7-8.4v-12.6h25.6C144.2,1270.7,155.5,1277.7,167.1,1284.2z"/>
		<path class="st1" d="M721.4,1207.5c-4.9,8.5-10,16.9-15.5,25h-30.8c6-8.1,11.6-16.4,16.9-25H721.4z"/>
		<rect x="590.6" y="1098" class="st1" width="15.4" height="8.1"/>
		<rect x="323.9" y="1213.7" class="st1" width="33.4" height="6.4"/>
		<rect x="-46" y="995.7" class="st1" width="12" height="4.9"/>
		<rect x="99" y="587.7" class="st1" width="19.7" height="11.1"/>
		<rect x="662" y="733.7" class="st1" width="7" height="34.8"/>
		<rect x="721.4" y="915.7" class="st1" width="17.6" height="13.9"/>
		<rect x="711" y="966.6" class="st1" width="10.4" height="19.1"/>
		<rect x="781.6" y="886.7" class="st1" width="20.4" height="7"/>
		<rect x="711" y="1175.7" class="st1" width="19.2" height="16"/>
		<rect x="662" y="1157.4" class="st1" width="43" height="13.3"/>
		<rect x="598.3" y="1228.7" class="st1" width="7.7" height="10"/>
		<rect x="541" y="1245.7" class="st1" width="23" height="7"/>
		<rect x="93.5" y="1312.7" class="st1" width="21.5" height="9"/>
		<rect x="70" y="1284.2" class="st1" width="10" height="19.5"/>
		<rect x="-94" y="1046.7" class="st1" width="11.3" height="12"/>
		<rect x="-99" y="949.4" class="st1" width="16.3" height="11.6"/>
		<rect x="136.6" y="1220" class="st1" width="11.6" height="8.6"/>
		<rect x="358.2" y="684.7" class="st1" width="13.9" height="11"/>
	</g>
	<g>
		<path class="st1" d="M128.3,883.7c-1.6-1.5-3.7-2.4-6-2.4h-2.6c-1.8,0-3.6,0.6-5,1.5c-2.3,1.6-3.8,4.3-3.8,7.3v73.8
			c0,4.9,4,8.8,8.8,8.8h2.6c4.9,0,8.8-4,8.8-8.8v-73.8C131.1,887.6,130.1,885.3,128.3,883.7z M121.1,962.7h-0.3v-71.4h0.3V962.7z"/>
	</g>
	<g>
		<path class="st1" d="M158.3,882.8c-1.4-1-3.1-1.5-4.9-1.5h-2.6c-2.3,0-4.4,0.9-6,2.4c-1.7,1.6-2.8,3.9-2.8,6.4v73.8
			c0,4.9,4,8.8,8.8,8.8h2.6c4.9,0,8.8-4,8.8-8.8v-73.8C162.2,887.1,160.7,884.4,158.3,882.8z M152.2,962.7h-0.3v-71.4h0.3V962.7z"/>
	</g>
	<g>
		<path class="st1" d="M151.7,792.3h-30.5c-14,0-25.4,11.4-25.4,25.4v40.7c0,11.7,8,21.7,18.9,24.5c2.1,0.6,4.3,0.8,6.5,0.8h30.5
			c2.3,0,4.5-0.3,6.6-0.9c10.8-2.9,18.7-12.8,18.7-24.5v-40.7C177,803.7,165.7,792.3,151.7,792.3z M167,858.3
			c0,8.5-6.9,15.4-15.4,15.4h-30.5c-8.5,0-15.4-6.9-15.4-15.4v-40.7c0-8.5,6.9-15.4,15.4-15.4h30.5c8.5,0,15.4,6.9,15.4,15.4V858.3z
			"/>
	</g>
	<g>
		<path class="st1" d="M136.4,741.7c-13.9,0-25.2,11.3-25.2,25.2c0,13.9,11.3,25.2,25.2,25.2c13.9,0,25.1-11.3,25.1-25.2
			C161.6,753,150.3,741.7,136.4,741.7z M136.4,782.1c-8.4,0-15.2-6.8-15.2-15.2c0-8.4,6.8-15.2,15.2-15.2c8.3,0,15.1,6.8,15.1,15.2
			C151.6,775.3,144.8,782.1,136.4,782.1z"/>
	</g>
	<g>
		<path class="st1" d="M199.6,974.1c-1.6-1.5-3.7-2.4-6-2.4h-2.7c-1.8,0-3.6,0.6-5,1.5c-1.9,1.3-3.3,3.3-3.7,5.7h20
			C201.9,977,200.9,975.3,199.6,974.1z M192.4,1010v43.1h-0.3V1010h-10v44.3c0,4.9,3.9,8.8,8.8,8.8h2.7c4.9,0,8.8-3.9,8.8-8.8V1010
			H192.4z"/>
	</g>
	<g>
		<path class="st1" d="M229.5,973.2c-1.4-1-3.1-1.5-4.9-1.5H222c-2.3,0-4.5,0.9-6,2.4c-1.3,1.3-2.3,2.9-2.6,4.8h20
			C232.9,976.5,231.5,974.5,229.5,973.2z M223.4,1010v43.1h-0.3V1010h-10v44.3c0,4.9,3.9,8.8,8.8,8.8h2.6c4.9,0,8.8-3.9,8.8-8.8
			V1010H223.4z"/>
	</g>
	<g>
		<path class="st1" d="M222.9,882.7h-30.5c-14,0-25.4,11.4-25.4,25.4v40.7c0,11.8,8,21.7,18.9,24.5c2.1,0.6,4.3,0.9,6.5,0.9h30.5
			c2.3,0,4.5-0.3,6.7-0.9c10.8-2.9,18.7-12.8,18.7-24.5V908C248.3,894,236.9,882.7,222.9,882.7z M238.3,948.7
			c0,8.5-6.9,15.4-15.4,15.4h-30.5c-8.5,0-15.4-6.9-15.4-15.4V908c0-8.5,6.9-15.4,15.4-15.4h30.5c8.5,0,15.4,6.9,15.4,15.4V948.7z"
			/>
	</g>
	<g>
		<path class="st1" d="M207.7,832.1c-13.9,0-25.2,11.3-25.2,25.2s11.3,25.2,25.2,25.2s25.2-11.3,25.2-25.2S221.5,832.1,207.7,832.1z
			 M207.7,872.4c-8.4,0-15.2-6.8-15.2-15.2s6.8-15.2,15.2-15.2s15.2,6.8,15.2,15.2S216,872.4,207.7,872.4z"/>
	</g>
	<g>
		<path class="st1" d="M264.8,1062h-2.6c-1.8,0-3.6,0.6-5,1.6c2.1,0.5,4.3,0.8,6.5,0.8h7.1C269.2,1062.9,267.1,1062,264.8,1062z"/>
		<path class="st1" d="M273.6,1070.8v38.2h-10v-37h-0.3v81.4h-1.2c-4.9,0-8.8-4-8.8-8.8v-73.8c0-3,1.5-5.7,3.9-7.3
			c2.1,0.5,4.3,0.8,6.5,0.8h7.1C272.5,1066,273.6,1068.3,273.6,1070.8z"/>
	</g>
	<g>
		<path class="st1" d="M295.9,1062h-2.6c-2.3,0-4.5,0.9-6,2.4h6.9c2.3,0,4.5-0.3,6.6-0.9C299.4,1062.6,297.7,1062,295.9,1062z"/>
		<path class="st1" d="M304.7,1070.8v38.2h-10v-37h-0.3v37h-10v-38.2c0-2.5,1.1-4.8,2.8-6.4h6.9c2.3,0,4.5-0.3,6.6-0.9
			C303.1,1065.1,304.7,1067.8,304.7,1070.8z"/>
	</g>
	<g>
		<path class="st1" d="M309.5,1010v29c0,8.5-6.9,15.4-15.4,15.4h-30.5c-8.5,0-15.4-6.9-15.4-15.4v-29h-10v29
			c0,11.8,8,21.7,18.9,24.5c2.1,0.5,4.3,0.8,6.5,0.8h30.5c2.3,0,4.5-0.3,6.6-0.9c10.8-2.9,18.7-12.8,18.7-24.5v-29H309.5z
			 M294.1,973h-30.5c-6.2,0-11.8,2.2-16.2,5.9h62.9C306,975.2,300.3,973,294.1,973z"/>
	</g>
	<g>
		<path class="st1" d="M278.9,922.4c-13.9,0-25.2,11.3-25.2,25.2c0,13.9,11.3,25.2,25.2,25.2c13.9,0,25.2-11.3,25.2-25.2
			C304,933.7,292.8,922.4,278.9,922.4z M278.9,962.7c-8.4,0-15.2-6.8-15.2-15.2c0-8.4,6.8-15.2,15.2-15.2c8.4,0,15.2,6.8,15.2,15.2
			C294,955.9,287.2,962.7,278.9,962.7z"/>
	</g>
	<g>
		<path class="st1" d="M553.6,883.7c-1.6-1.5-3.7-2.4-6-2.4h-2.6c-1.8,0-3.5,0.5-4.9,1.5c-2.4,1.6-3.9,4.3-3.9,7.3v73.8
			c0,4.9,4,8.8,8.8,8.8h2.6c4.9,0,8.8-4,8.8-8.8v-73.8C556.4,887.6,555.3,885.3,553.6,883.7z M546.4,962.7h-0.3v-71.4h0.3V962.7z"/>
	</g>
	<g>
		<path class="st1" d="M577.1,792.3h-30.5c-12.6,0-23.2,9.3-25.1,21.4h10.2c1.8-6.6,7.8-11.4,14.9-11.4h30.5
			c8.5,0,15.4,6.9,15.4,15.4v40.7c0,8.5-6.9,15.4-15.4,15.4h-30.5c-8.5,0-15.4-6.9-15.4-15.4v-12.5h-10v12.5
			c0,11.7,8,21.6,18.7,24.5c2.1,0.6,4.3,0.9,6.6,0.9h30.5c14,0,25.4-11.4,25.4-25.4v-40.7C602.5,803.7,591.1,792.3,577.1,792.3z"/>
	</g>
	<g>
		<path class="st1" d="M561.9,741.7c-13.9,0-25.2,11.3-25.2,25.2c0,13.9,11.3,25.2,25.2,25.2s25.2-11.3,25.2-25.2
			C587,753,575.8,741.7,561.9,741.7z M561.9,782.1c-8.4,0-15.2-6.8-15.2-15.2c0-8.4,6.8-15.2,15.2-15.2c8.4,0,15.2,6.8,15.2,15.2
			C577,775.3,570.2,782.1,561.9,782.1z"/>
	</g>
	<g>
		<path class="st1" d="M506,981.7v71.4h0.3v-71.4H506z M506.2,1010v-28.3H506v28.3h-10v44.3c0,4.9,4,8.8,8.8,8.8h2.6
			c4.9,0,8.8-3.9,8.8-8.8V1010H506.2z M512.4,973.2c-1.4-1-3.1-1.5-5-1.5h-2.6c-2.3,0-4.5,0.9-6,2.4c-1.4,1.3-2.3,2.9-2.6,4.8h20
			C515.7,976.5,514.3,974.5,512.4,973.2z"/>
	</g>
	<g>
		<path class="st1" d="M475.2,1010v43.1h-0.3V1010h-10v44.3c0,4.9,3.9,8.8,8.8,8.8h2.6c4.9,0,8.8-3.9,8.8-8.8V1010H475.2z
			 M482.4,974.1c-1.6-1.5-3.7-2.4-6-2.4h-2.6c-1.8,0-3.5,0.5-4.9,1.5h0c-1.9,1.3-3.3,3.3-3.7,5.7h20
			C484.7,977,483.7,975.3,482.4,974.1z"/>
	</g>
	<g>
		<path class="st1" d="M505.9,882.7h-30.5c-14,0-25.4,11.4-25.4,25.4v40.7c0,11.7,8,21.6,18.7,24.5h0c2.1,0.6,4.3,0.9,6.6,0.9h30.5
			c2.3,0,4.4-0.3,6.5-0.9c10.9-2.9,18.9-12.8,18.9-24.5V908C531.3,894,519.9,882.7,505.9,882.7z M521.3,948.7
			c0,8.5-6.9,15.4-15.4,15.4h-30.5c-8.5,0-15.4-6.9-15.4-15.4V908c0-8.5,6.9-15.4,15.4-15.4h30.5c8.5,0,15.4,6.9,15.4,15.4V948.7z"
			/>
	</g>
	<g>
		<path class="st1" d="M513.1,845.8h-12.5c3.2,2.8,5.2,6.9,5.2,11.4c0,8.4-6.8,15.2-15.1,15.2c-8.4,0-15.2-6.8-15.2-15.2
			c0-6.4,4-11.9,9.7-14.1v-10.4c-11.2,2.5-19.7,12.6-19.7,24.5c0,13.9,11.3,25.2,25.2,25.2c13.9,0,25.1-11.3,25.1-25.2
			C515.8,853.1,514.8,849.2,513.1,845.8z"/>
	</g>
	<g>
		<path class="st1" d="M441.2,1063.6c-1.4-1-3.1-1.5-5-1.5h-2.7c-2.3,0-4.4,0.9-6,2.4c-1.7,1.6-2.8,3.9-2.8,6.4v73.8
			c0,4.9,3.9,8.8,8.8,8.8h2.7c4.9,0,8.8-4,8.8-8.8v-73.8C445,1067.8,443.5,1065.1,441.2,1063.6z M435,1143.4h-0.3V1072h0.3V1143.4z"
			/>
	</g>
	<g>
		<path class="st1" d="M411.1,1064.4c-1.6-1.5-3.7-2.4-6-2.4h-2.6c-1.8,0-3.5,0.6-4.9,1.5c-2.4,1.6-3.9,4.3-3.9,7.3v73.8
			c0,4.9,3.9,8.8,8.8,8.8h2.6c4.9,0,8.8-4,8.8-8.8v-73.8C413.9,1068.3,412.8,1066,411.1,1064.4z M403.9,1143.4h-0.3V1072h0.3V1143.4
			z"/>
	</g>
	<g>
		<path class="st1" d="M450,1010v29c0,8.5-6.9,15.4-15.4,15.4h-30.5c-8.5,0-15.4-6.9-15.4-15.4v-29h-10v29c0,11.7,8,21.6,18.7,24.5
			c2.1,0.6,4.3,0.9,6.6,0.9h30.5c2.3,0,4.4-0.3,6.5-0.8c10.8-2.9,18.9-12.8,18.9-24.5v-29H450z M434.7,973h-30.5
			c-6.2,0-11.8,2.2-16.2,5.9h62.9C446.5,975.2,440.8,973,434.7,973z"/>
	</g>
	<g>
		<path class="st1" d="M419.4,922.4c-13.9,0-25.2,11.3-25.2,25.2c0,13.9,11.3,25.2,25.2,25.2s25.2-11.3,25.2-25.2
			C444.6,933.7,433.3,922.4,419.4,922.4z M419.4,962.7c-8.4,0-15.2-6.8-15.2-15.2c0-8.4,6.8-15.2,15.2-15.2s15.2,6.8,15.2,15.2
			C434.6,955.9,427.8,962.7,419.4,962.7z"/>
	</g>
	<g>
		<path class="st1" d="M369.9,1153.9c-1.4-1-3.1-1.6-5-1.6h-2.6c-2.3,0-4.5,0.9-6,2.4c-1.7,1.6-2.8,3.9-2.8,6.4v73.8
			c0,4.9,4,8.8,8.8,8.8h2.6c4.9,0,8.8-4,8.8-8.8v-73.8C373.8,1158.2,372.3,1155.5,369.9,1153.9z M363.8,1233.8h-0.3v-71.4h0.3
			V1233.8z"/>
	</g>
	<g>
		<path class="st1" d="M339.9,1154.8c-1.6-1.5-3.7-2.4-6-2.4h-2.6c-1.8,0-3.5,0.6-4.9,1.5c-2.3,1.6-3.9,4.3-3.9,7.3v73.8
			c0,4.9,4,8.8,8.8,8.8h2.6c4.9,0,8.8-4,8.8-8.8v-73.8C342.7,1158.6,341.6,1156.4,339.9,1154.8z M332.7,1233.8h-0.3v-71.4h0.3
			V1233.8z"/>
	</g>
	<g>
		<path class="st1" d="M363.4,1063.3h-30.5c-14,0-25.4,11.4-25.4,25.4v20.3h10v-20.3c0-8.5,6.9-15.4,15.4-15.4h30.5
			c8.5,0,15.4,6.9,15.4,15.4v40.7c0,8.5-6.9,15.3-15.3,15.4v7.6h-1.2c-2.3,0-4.5,0.9-6,2.4h7.2c2.2,0,4.4-0.3,6.5-0.8
			c10.9-2.9,18.9-12.8,18.9-24.5v-40.7C388.8,1074.7,377.4,1063.3,363.4,1063.3z M331.2,1152.3c-1.8,0-3.5,0.6-4.9,1.5
			c2.1,0.6,4.4,0.9,6.7,0.9h7c-1.6-1.5-3.7-2.4-6-2.4H331.2z"/>
	</g>
	<g>
		<path class="st1" d="M348.2,1012.8c-13.9,0-25.2,11.3-25.2,25.2c0,13.9,11.3,25.2,25.2,25.2c13.9,0,25.1-11.3,25.1-25.2
			C373.3,1024,362.1,1012.8,348.2,1012.8z M348.2,1053.1c-8.4,0-15.2-6.8-15.2-15.2c0-8.3,6.8-15.2,15.2-15.2
			c8.4,0,15.1,6.8,15.1,15.2C363.3,1046.3,356.5,1053.1,348.2,1053.1z"/>
	</g>
	<path class="st1" d="M202.4,980.5v29.5h-10v-28.3h-0.3v28.3h-10v-29.5c0-0.5,0.1-1.1,0.2-1.6h20
		C202.3,979.4,202.4,979.9,202.4,980.5z"/>
	<rect x="192.1" y="981.7" class="st1" width="0.3" height="28.3"/>
	<path class="st1" d="M334.6,1002.1v11.7h-10v-11.7c0-8.5-6.9-15.4-15.4-15.4h-30.5c-8.5,0-15.4,6.9-15.4,15.4v11.7h-10v-11.7
		c0-7.8,3.6-14.8,9.1-19.5h62.9C331,987.2,334.6,994.2,334.6,1002.1z"/>
	<path class="st1" d="M233.4,980.5v29.5h-10v-28.3h-0.3v28.3h-10v-29.5c0-0.5,0.1-1.1,0.1-1.6h20
		C233.4,979.4,233.4,979.9,233.4,980.5z"/>
	<rect x="223.2" y="981.7" class="st1" width="0.3" height="28.3"/>
	<path class="st1" d="M468,1002.1v11.6h-10v-11.6c0-8.5-6.9-15.4-15.4-15.4h-30.5c-8.5,0-15.4,6.9-15.4,15.4v11.6h-10v-11.6
		c0-7.8,3.6-14.8,9.2-19.5h62.9C464.5,987.2,468,994.2,468,1002.1z"/>
	<path class="st1" d="M495.1,996.1v29.5h-10v-28.3h-0.3v28.3h-10v-29.5c0-0.5,0.1-1.1,0.2-1.6h20C495.1,995,495.1,995.5,495.1,996.1
		z"/>
	<path class="st1" d="M526.4,987.3v29.5h-10v-28.3h-0.3v28.3h-10l0.1-31.1h20C526.3,986.2,526.4,986.7,526.4,987.3z"/>
	<path class="st1" d="M514.5,832.1h-12.5c-2.7-2.3-6.1-3.7-9.9-3.7c-1.9,0-3.8,0.4-5.5,1V819c1.8-0.4,3.6-0.6,5.5-0.6
		C501.9,818.4,510.4,823.9,514.5,832.1z"/>
	<path class="st1" d="M500.6,845.8h-15.4v-2.7c1.7-0.7,3.6-1,5.5-1C494.4,842.1,497.9,843.5,500.6,845.8z"/>
	<path class="st1" d="M541.4,822c-0.3,1.3-0.5,2.6-0.5,4v28.1h-10v-28.1c0-1.4,0.1-2.7,0.3-4H541.4z"/>
	<path class="st1" d="M273.6,1109v35.5c0,4.9-4,8.8-8.8,8.8h-1.5v-10h0.3V1109H273.6z"/>
	<rect x="263.3" y="1109" class="st1" width="0.3" height="34.4"/>
	<path class="st1" d="M304.1,1135.2v35.5c0,4.9-3.9,8.8-8.8,8.8h-2.6c-4.9,0-8.8-4-8.8-8.8v-35.5h10v34.4h0.3v-34.4H304.1z"/>
	<path class="st1" d="M368.5,1144.1v7.6h-1.2c-2.3,0-4.5,0.9-6,2.4h-16.4c-1.6-1.5-3.7-2.4-6-2.4h-2.6c-1.8,0-3.5,0.6-4.9,1.5
		c-10.8-2.9-18.7-12.8-18.7-24.5v-20.3h10v20.3c0,8.5,6.9,15.4,15.4,15.4H368.5z"/>
	<path class="st1" d="M339.9,1154.8c1.7,1.6,2.8,3.9,2.8,6.4v1.2h-20.3v-1.2c0-3,1.5-5.7,3.9-7.3c1.4-1,3.1-1.5,4.9-1.5h2.6
		C336.2,1152.3,338.3,1153.3,339.9,1154.8z"/>
	<path class="st1" d="M363.5,1152.3v10h-10v-1.2c0-2.5,1.1-4.8,2.8-6.4c1.6-1.5,3.7-2.4,6-2.4H363.5z"/>
	<rect x="356.1" y="1109" class="st1" width="2.4" height="12.5"/>
	<rect x="417.4" y="1030.4" class="st1" width="7.3" height="9.2"/>
	<rect x="197.3" y="921.6" class="st1" width="15.8" height="10.9"/>
	<rect x="139.2" y="825.2" class="st1" width="9" height="18.7"/>
	<rect x="367.2" y="903.6" class="st1" width="11.6" height="6.1"/>
	<rect x="339.9" y="949.4" class="st1" width="2.8" height="3"/>
	<rect x="372.1" y="845.8" class="st1" width="16.7" height="11.4"/>
	<rect x="342.7" y="952.4" class="st1" width="15.8" height="17.7"/>
	<rect x="177.1" y="1072" class="st1" width="11.2" height="0"/>
	<rect x="273.6" y="1022.8" class="st1" width="5.3" height="12.1"/>
	<rect x="300.8" y="1126.2" class="st1" width="3.3" height="8.9"/>
	<rect x="294.5" y="1213.7" class="st1" width="10.1" height="3.2"/>
	<rect x="506.2" y="783.7" class="st1" width="10" height="18.6"/>
	<rect x="445" y="829.7" class="st1" width="20.5" height="12.4"/>
	<rect x="650.8" y="1012.5" class="st0" width="33.7" height="11.2"/>
	<rect x="681" y="1043.6" class="st0" width="7" height="12.4"/>
	<rect x="76.4" y="1007.8" class="st1" width="12" height="31.8"/>
	<rect x="662" y="1043.6" class="st1" width="7" height="12.4"/>
	<g>
		<g>
			<path class="st2" d="M102.5,616.7l43-29C130.6,596.4,116.3,606.1,102.5,616.7z M-60.9,972.7c1,18.9,3.3,37.5,6.8,55.9
				L-60.9,972.7z M146.4,616.7h-43.9c-14.5,11.1-28.2,23.2-41.3,36.3c-38.5,38.5-68.7,83.3-89.9,133.3c-21.9,51.7-33,106.6-33,163.2
				c0,7.8,0.2,15.5,0.6,23.2h25c-0.5-7.7-0.7-15.4-0.7-23.2C-36.6,809.7,36.5,686.7,146.4,616.7z M108,1286.3
				c3.8,2.9,7.7,5.6,11.7,8.4L108,1286.3z M-28.6,1028.5h-25.5c5.5,28.8,14,56.9,25.5,84.1c21.1,49.9,51.4,94.8,89.9,133.3
				c14.7,14.7,30.3,28.1,46.7,40.4v-12.6h25.6C51.6,1216.8-7.9,1129.7-28.6,1028.5z M744.1,786.2c-5.3-12.5-11.1-24.7-17.6-36.5
				h-28.9c28.2,47.8,46.6,102.1,52.5,160h25.1C771.2,867.1,760.8,825.7,744.1,786.2z M654.3,652.9c-38.5-38.5-83.4-68.7-133.3-89.9
				c-51.7-21.9-106.6-33-163.2-33c-56.6,0-111.5,11.1-163.2,33c-16.9,7.2-33.3,15.4-49,24.6h55.3c48.1-20.9,101.1-32.5,156.9-32.5
				c130.9,0,247.1,64.1,318.8,162.5h30.7C691.9,694.5,674.2,672.9,654.3,652.9z M751.4,972.7c-3.9,67.4-24.9,130.4-58.7,184.6
				c-5.3,8.6-11,16.9-16.9,25c-71.8,97.8-187.6,161.5-318,161.5c-69,0-133.9-17.8-190.4-49.1h-47.7c23.4,16.2,48.4,29.9,74.9,41.1
				c51.7,21.9,106.6,33,163.2,33c56.6,0,111.5-11.1,163.2-33c49.9-21.1,94.8-51.3,133.3-89.8c19.6-19.6,37.1-40.9,52.3-63.7
				c5.5-8.1,10.6-16.5,15.5-25c8.2-14.4,15.6-29.2,22.1-44.6c18.9-44.6,29.7-91.6,32.3-140H751.4z"/>
		</g>
		<path class="st2" d="M-41.3,1028.5h-25.5l-6.8-55.9h25C-47.5,991.7-45.1,1010.3-41.3,1028.5z"/>
		<path class="st2" d="M732.2,733.7h-28.9c-6.5-11-13.5-21.7-21-32H713C719.9,712,726.3,722.7,732.2,733.7z"/>
		<path class="st2" d="M790.6,943.3c0,7.8-0.2,15.5-0.6,23.2h-25c0.5-7.7,0.7-15.4,0.7-23.2c0-13.4-0.7-26.7-2-39.8h25.1
			C789.9,916.7,790.6,930,790.6,943.3z"/>
		<path class="st2" d="M777.1,909.7v39.8c0-13.4-0.6-26.6-1.9-39.8H777.1z"/>
		<path class="st2" d="M776.4,972.7c0.4-7.7,0.6-15.5,0.6-23.2v23.2H776.4z"/>
		<path class="st2" d="M206.3,594.9c-19,8.3-37.2,18-54.5,29H108l43-29H206.3z"/>
		<path class="st2" d="M176.1,1284.2h-47.7l-11.7-8.4v-12.6h25.6C153.2,1270.7,164.5,1277.7,176.1,1284.2z"/>
		<path class="st2" d="M730.4,1207.5c-4.9,8.5-10,16.9-15.5,25h-30.8c6-8.1,11.6-16.4,16.9-25H730.4z"/>
		<rect x="599.6" y="1098" class="st2" width="15.4" height="8.1"/>
		<rect x="332.9" y="1213.7" class="st2" width="33.4" height="6.4"/>
		<rect x="-37" y="995.7" class="st2" width="12" height="4.9"/>
		<rect x="108" y="587.7" class="st2" width="19.7" height="11.1"/>
		<rect x="671" y="733.7" class="st2" width="7" height="34.8"/>
		<rect x="730.4" y="915.7" class="st2" width="17.6" height="13.9"/>
		<rect x="720" y="966.6" class="st2" width="10.4" height="19.1"/>
		<rect x="790.6" y="886.7" class="st2" width="20.4" height="7"/>
		<rect x="720" y="1175.7" class="st2" width="19.2" height="16"/>
		<rect x="671" y="1157.4" class="st2" width="43" height="13.3"/>
		<rect x="607.3" y="1228.7" class="st2" width="7.7" height="10"/>
		<rect x="550" y="1245.7" class="st2" width="23" height="7"/>
		<rect x="102.5" y="1312.7" class="st2" width="21.5" height="9"/>
		<rect x="79" y="1284.2" class="st2" width="10" height="19.5"/>
		<rect x="-85" y="1046.7" class="st2" width="11.3" height="12"/>
		<rect x="-90" y="949.4" class="st2" width="16.3" height="11.6"/>
		<rect x="145.6" y="1220" class="st2" width="11.6" height="8.6"/>
		<rect x="367.2" y="684.7" class="st2" width="13.9" height="11"/>
	</g>
	<rect x="640.8" y="1012.5" class="st2" width="33.7" height="11.2"/>
	<rect x="671" y="1043.6" class="st2" width="7" height="12.4"/>
	<g>
		<path class="st2" d="M137.3,883.7c-1.6-1.5-3.7-2.4-6-2.4h-2.6c-1.8,0-3.6,0.6-5,1.5c-2.3,1.6-3.8,4.3-3.8,7.3v73.8
			c0,4.9,4,8.8,8.8,8.8h2.6c4.9,0,8.8-4,8.8-8.8v-73.8C140.1,887.6,139.1,885.3,137.3,883.7z M130.1,962.7h-0.3v-71.4h0.3V962.7z"/>
	</g>
	<g>
		<path class="st2" d="M167.3,882.8c-1.4-1-3.1-1.5-4.9-1.5h-2.6c-2.3,0-4.4,0.9-6,2.4c-1.7,1.6-2.8,3.9-2.8,6.4v73.8
			c0,4.9,4,8.8,8.8,8.8h2.6c4.9,0,8.8-4,8.8-8.8v-73.8C171.2,887.1,169.7,884.4,167.3,882.8z M161.2,962.7h-0.3v-71.4h0.3V962.7z"/>
	</g>
	<g>
		<path class="st2" d="M160.7,792.3h-30.5c-14,0-25.4,11.4-25.4,25.4v40.7c0,11.7,8,21.7,18.9,24.5c2.1,0.6,4.3,0.8,6.5,0.8h30.5
			c2.3,0,4.5-0.3,6.6-0.9c10.8-2.9,18.7-12.8,18.7-24.5v-40.7C186,803.7,174.7,792.3,160.7,792.3z M176,858.3
			c0,8.5-6.9,15.4-15.4,15.4h-30.5c-8.5,0-15.4-6.9-15.4-15.4v-40.7c0-8.5,6.9-15.4,15.4-15.4h30.5c8.5,0,15.4,6.9,15.4,15.4V858.3z
			"/>
	</g>
	<g>
		<path class="st2" d="M145.4,741.7c-13.9,0-25.2,11.3-25.2,25.2c0,13.9,11.3,25.2,25.2,25.2c13.9,0,25.1-11.3,25.1-25.2
			C170.6,753,159.3,741.7,145.4,741.7z M145.4,782.1c-8.4,0-15.2-6.8-15.2-15.2c0-8.4,6.8-15.2,15.2-15.2c8.3,0,15.1,6.8,15.1,15.2
			C160.6,775.3,153.8,782.1,145.4,782.1z"/>
	</g>
	<g>
		<path class="st2" d="M208.6,974.1c-1.6-1.5-3.7-2.4-6-2.4h-2.7c-1.8,0-3.6,0.6-5,1.5c-1.9,1.3-3.3,3.3-3.7,5.7h20
			C210.9,977,209.9,975.3,208.6,974.1z M201.4,1010v43.1h-0.3V1010h-10v44.3c0,4.9,3.9,8.8,8.8,8.8h2.7c4.9,0,8.8-3.9,8.8-8.8V1010
			H201.4z"/>
	</g>
	<g>
		<path class="st2" d="M238.5,973.2c-1.4-1-3.1-1.5-4.9-1.5H231c-2.3,0-4.5,0.9-6,2.4c-1.3,1.3-2.3,2.9-2.6,4.8h20
			C241.9,976.5,240.5,974.5,238.5,973.2z M232.4,1010v43.1h-0.3V1010h-10v44.3c0,4.9,3.9,8.8,8.8,8.8h2.6c4.9,0,8.8-3.9,8.8-8.8
			V1010H232.4z"/>
	</g>
	<g>
		<path class="st2" d="M231.9,882.7h-30.5c-14,0-25.4,11.4-25.4,25.4v40.7c0,11.8,8,21.7,18.9,24.5c2.1,0.6,4.3,0.9,6.5,0.9h30.5
			c2.3,0,4.5-0.3,6.7-0.9c10.8-2.9,18.7-12.8,18.7-24.5V908C257.3,894,245.9,882.7,231.9,882.7z M247.3,948.7
			c0,8.5-6.9,15.4-15.4,15.4h-30.5c-8.5,0-15.4-6.9-15.4-15.4V908c0-8.5,6.9-15.4,15.4-15.4h30.5c8.5,0,15.4,6.9,15.4,15.4V948.7z"
			/>
	</g>
	<g>
		<path class="st2" d="M216.7,832.1c-13.9,0-25.2,11.3-25.2,25.2s11.3,25.2,25.2,25.2s25.2-11.3,25.2-25.2S230.5,832.1,216.7,832.1z
			 M216.7,872.4c-8.4,0-15.2-6.8-15.2-15.2s6.8-15.2,15.2-15.2s15.2,6.8,15.2,15.2S225,872.4,216.7,872.4z"/>
	</g>
	<g>
		<path class="st2" d="M273.8,1062h-2.6c-1.8,0-3.6,0.6-5,1.6c2.1,0.5,4.3,0.8,6.5,0.8h7.1C278.2,1062.9,276.1,1062,273.8,1062z"/>
		<path class="st2" d="M282.6,1070.8v38.2h-10v-37h-0.3v81.4h-1.2c-4.9,0-8.8-4-8.8-8.8v-73.8c0-3,1.5-5.7,3.9-7.3
			c2.1,0.5,4.3,0.8,6.5,0.8h7.1C281.5,1066,282.6,1068.3,282.6,1070.8z"/>
	</g>
	<g>
		<path class="st2" d="M304.9,1062h-2.6c-2.3,0-4.5,0.9-6,2.4h6.9c2.3,0,4.5-0.3,6.6-0.9C308.4,1062.6,306.7,1062,304.9,1062z"/>
		<path class="st2" d="M313.7,1070.8v38.2h-10v-37h-0.3v37h-10v-38.2c0-2.5,1.1-4.8,2.8-6.4h6.9c2.3,0,4.5-0.3,6.6-0.9
			C312.1,1065.1,313.7,1067.8,313.7,1070.8z"/>
	</g>
	<g>
		<path class="st2" d="M318.5,1010v29c0,8.5-6.9,15.4-15.4,15.4h-30.5c-8.5,0-15.4-6.9-15.4-15.4v-29h-10v29
			c0,11.8,8,21.7,18.9,24.5c2.1,0.5,4.3,0.8,6.5,0.8h30.5c2.3,0,4.5-0.3,6.6-0.9c10.8-2.9,18.7-12.8,18.7-24.5v-29H318.5z
			 M303.1,973h-30.5c-6.2,0-11.8,2.2-16.2,5.9h62.9C315,975.2,309.3,973,303.1,973z"/>
	</g>
	<g>
		<path class="st2" d="M287.9,922.4c-13.9,0-25.2,11.3-25.2,25.2c0,13.9,11.3,25.2,25.2,25.2c13.9,0,25.2-11.3,25.2-25.2
			C313,933.7,301.8,922.4,287.9,922.4z M287.9,962.7c-8.4,0-15.2-6.8-15.2-15.2c0-8.4,6.8-15.2,15.2-15.2c8.4,0,15.2,6.8,15.2,15.2
			C303,955.9,296.2,962.7,287.9,962.7z"/>
	</g>
	<g>
		<path class="st2" d="M587.7,972.7H585c-4.9,0-8.8-4-8.8-8.8v-73.8c0-4.9,4-8.8,8.8-8.8h2.6c4.9,0,8.8,4,8.8,8.8v73.8
			C596.5,968.8,592.5,972.7,587.7,972.7z M586.2,962.7h0.3v-71.4h-0.3V962.7z"/>
	</g>
	<g>
		<path class="st2" d="M562.6,883.7c-1.6-1.5-3.7-2.4-6-2.4h-2.6c-1.8,0-3.5,0.5-4.9,1.5c-2.4,1.6-3.9,4.3-3.9,7.3v73.8
			c0,4.9,4,8.8,8.8,8.8h2.6c4.9,0,8.8-4,8.8-8.8v-73.8C565.4,887.6,564.3,885.3,562.6,883.7z M555.4,962.7h-0.3v-71.4h0.3V962.7z"/>
	</g>
	<g>
		<path class="st2" d="M586.1,792.3h-30.5c-12.6,0-23.2,9.3-25.1,21.4h10.2c1.8-6.6,7.8-11.4,14.9-11.4h30.5
			c8.5,0,15.4,6.9,15.4,15.4v40.7c0,8.5-6.9,15.4-15.4,15.4h-30.5c-8.5,0-15.4-6.9-15.4-15.4v-12.5h-10v12.5
			c0,11.7,8,21.6,18.7,24.5c2.1,0.6,4.3,0.9,6.6,0.9h30.5c14,0,25.4-11.4,25.4-25.4v-40.7C611.5,803.7,600.1,792.3,586.1,792.3z"/>
	</g>
	<g>
		<path class="st2" d="M570.9,741.7c-13.9,0-25.2,11.3-25.2,25.2c0,13.9,11.3,25.2,25.2,25.2s25.2-11.3,25.2-25.2
			C596,753,584.8,741.7,570.9,741.7z M570.9,782.1c-8.4,0-15.2-6.8-15.2-15.2c0-8.4,6.8-15.2,15.2-15.2c8.4,0,15.2,6.8,15.2,15.2
			C586,775.3,579.2,782.1,570.9,782.1z"/>
	</g>
	<g>
		<path class="st2" d="M515,981.7v71.4h0.3v-71.4H515z M515.2,1010v-28.3H515v28.3h-10v44.3c0,4.9,4,8.8,8.8,8.8h2.6
			c4.9,0,8.8-3.9,8.8-8.8V1010H515.2z M521.4,973.2c-1.4-1-3.1-1.5-5-1.5h-2.6c-2.3,0-4.5,0.9-6,2.4c-1.4,1.3-2.3,2.9-2.6,4.8h20
			C524.7,976.5,523.3,974.5,521.4,973.2z"/>
	</g>
	<g>
		<path class="st2" d="M484.2,1010v43.1h-0.3V1010h-10v44.3c0,4.9,3.9,8.8,8.8,8.8h2.6c4.9,0,8.8-3.9,8.8-8.8V1010H484.2z
			 M491.4,974.1c-1.6-1.5-3.7-2.4-6-2.4h-2.6c-1.8,0-3.5,0.5-4.9,1.5h0c-1.9,1.3-3.3,3.3-3.7,5.7h20
			C493.7,977,492.7,975.3,491.4,974.1z"/>
	</g>
	<g>
		<path class="st2" d="M514.9,882.7h-30.5c-14,0-25.4,11.4-25.4,25.4v40.7c0,11.7,8,21.6,18.7,24.5h0c2.1,0.6,4.3,0.9,6.6,0.9h30.5
			c2.3,0,4.4-0.3,6.5-0.9c10.9-2.9,18.9-12.8,18.9-24.5V908C540.3,894,528.9,882.7,514.9,882.7z M530.3,948.7
			c0,8.5-6.9,15.4-15.4,15.4h-30.5c-8.5,0-15.4-6.9-15.4-15.4V908c0-8.5,6.9-15.4,15.4-15.4h30.5c8.5,0,15.4,6.9,15.4,15.4V948.7z"
			/>
	</g>
	<g>
		<path class="st2" d="M522.1,845.8h-12.5c3.2,2.8,5.2,6.9,5.2,11.4c0,8.4-6.8,15.2-15.1,15.2c-8.4,0-15.2-6.8-15.2-15.2
			c0-6.4,4-11.9,9.7-14.1v-10.4c-11.2,2.5-19.7,12.6-19.7,24.5c0,13.9,11.3,25.2,25.2,25.2c13.9,0,25.1-11.3,25.1-25.2
			C524.8,853.1,523.8,849.2,522.1,845.8z"/>
	</g>
	<g>
		<path class="st2" d="M450.2,1063.6c-1.4-1-3.1-1.5-5-1.5h-2.7c-2.3,0-4.4,0.9-6,2.4c-1.7,1.6-2.8,3.9-2.8,6.4v73.8
			c0,4.9,3.9,8.8,8.8,8.8h2.7c4.9,0,8.8-4,8.8-8.8v-73.8C454,1067.8,452.5,1065.1,450.2,1063.6z M444,1143.4h-0.3V1072h0.3V1143.4z"
			/>
	</g>
	<g>
		<path class="st2" d="M420.1,1064.4c-1.6-1.5-3.7-2.4-6-2.4h-2.6c-1.8,0-3.5,0.6-4.9,1.5c-2.4,1.6-3.9,4.3-3.9,7.3v73.8
			c0,4.9,3.9,8.8,8.8,8.8h2.6c4.9,0,8.8-4,8.8-8.8v-73.8C422.9,1068.3,421.8,1066,420.1,1064.4z M412.9,1143.4h-0.3V1072h0.3V1143.4
			z"/>
	</g>
	<g>
		<path class="st2" d="M459,1010v29c0,8.5-6.9,15.4-15.4,15.4h-30.5c-8.5,0-15.4-6.9-15.4-15.4v-29h-10v29c0,11.7,8,21.6,18.7,24.5
			c2.1,0.6,4.3,0.9,6.6,0.9h30.5c2.3,0,4.4-0.3,6.5-0.8c10.8-2.9,18.9-12.8,18.9-24.5v-29H459z M443.7,973h-30.5
			c-6.2,0-11.8,2.2-16.2,5.9h62.9C455.5,975.2,449.8,973,443.7,973z"/>
	</g>
	<g>
		<path class="st2" d="M428.4,922.4c-13.9,0-25.2,11.3-25.2,25.2c0,13.9,11.3,25.2,25.2,25.2s25.2-11.3,25.2-25.2
			C453.6,933.7,442.3,922.4,428.4,922.4z M428.4,962.7c-8.4,0-15.2-6.8-15.2-15.2c0-8.4,6.8-15.2,15.2-15.2s15.2,6.8,15.2,15.2
			C443.6,955.9,436.8,962.7,428.4,962.7z"/>
	</g>
	<g>
		<path class="st2" d="M378.9,1153.9c-1.4-1-3.1-1.6-5-1.6h-2.6c-2.3,0-4.5,0.9-6,2.4c-1.7,1.6-2.8,3.9-2.8,6.4v73.8
			c0,4.9,4,8.8,8.8,8.8h2.6c4.9,0,8.8-4,8.8-8.8v-73.8C382.8,1158.2,381.3,1155.5,378.9,1153.9z M372.8,1233.8h-0.3v-71.4h0.3
			V1233.8z"/>
	</g>
	<g>
		<path class="st2" d="M348.9,1154.8c-1.6-1.5-3.7-2.4-6-2.4h-2.6c-1.8,0-3.5,0.6-4.9,1.5c-2.3,1.6-3.9,4.3-3.9,7.3v73.8
			c0,4.9,4,8.8,8.8,8.8h2.6c4.9,0,8.8-4,8.8-8.8v-73.8C351.7,1158.6,350.6,1156.4,348.9,1154.8z M341.7,1233.8h-0.3v-71.4h0.3
			V1233.8z"/>
	</g>
	<g>
		<path class="st2" d="M372.4,1063.3h-30.5c-14,0-25.4,11.4-25.4,25.4v20.3h10v-20.3c0-8.5,6.9-15.4,15.4-15.4h30.5
			c8.5,0,15.4,6.9,15.4,15.4v40.7c0,8.5-6.9,15.3-15.3,15.4v7.6h-1.2c-2.3,0-4.5,0.9-6,2.4h7.2c2.2,0,4.4-0.3,6.5-0.8
			c10.9-2.9,18.9-12.8,18.9-24.5v-40.7C397.8,1074.7,386.4,1063.3,372.4,1063.3z M340.2,1152.3c-1.8,0-3.5,0.6-4.9,1.5
			c2.1,0.6,4.4,0.9,6.7,0.9h7c-1.6-1.5-3.7-2.4-6-2.4H340.2z"/>
	</g>
	<g>
		<path class="st2" d="M357.2,1012.8c-13.9,0-25.2,11.3-25.2,25.2c0,13.9,11.3,25.2,25.2,25.2c13.9,0,25.1-11.3,25.1-25.2
			C382.3,1024,371.1,1012.8,357.2,1012.8z M357.2,1053.1c-8.4,0-15.2-6.8-15.2-15.2c0-8.3,6.8-15.2,15.2-15.2
			c8.4,0,15.1,6.8,15.1,15.2C372.3,1046.3,365.5,1053.1,357.2,1053.1z"/>
	</g>
	<path class="st2" d="M211.4,980.5v29.5h-10v-28.3h-0.3v28.3h-10v-29.5c0-0.5,0.1-1.1,0.2-1.6h20
		C211.3,979.4,211.4,979.9,211.4,980.5z"/>
	<rect x="201.1" y="981.7" class="st2" width="0.3" height="28.3"/>
	<path class="st2" d="M343.6,1002.1v11.7h-10v-11.7c0-8.5-6.9-15.4-15.4-15.4h-30.5c-8.5,0-15.4,6.9-15.4,15.4v11.7h-10v-11.7
		c0-7.8,3.6-14.8,9.1-19.5h62.9C340,987.2,343.6,994.2,343.6,1002.1z"/>
	<path class="st2" d="M242.4,980.5v29.5h-10v-28.3h-0.3v28.3h-10v-29.5c0-0.5,0.1-1.1,0.1-1.6h20
		C242.4,979.4,242.4,979.9,242.4,980.5z"/>
	<rect x="232.2" y="981.7" class="st2" width="0.3" height="28.3"/>
	<path class="st2" d="M477,1002.1v11.6h-10v-11.6c0-8.5-6.9-15.4-15.4-15.4h-30.5c-8.5,0-15.4,6.9-15.4,15.4v11.6h-10v-11.6
		c0-7.8,3.6-14.8,9.2-19.5h62.9C473.5,987.2,477,994.2,477,1002.1z"/>
	<path class="st2" d="M504.1,996.1v29.5h-10v-28.3h-0.3v28.3h-10v-29.5c0-0.5,0.1-1.1,0.2-1.6h20C504.1,995,504.1,995.5,504.1,996.1
		z"/>
	<path class="st2" d="M535.4,987.3v29.5h-10v-28.3h-0.3v28.3h-10l0.1-31.1h20C535.3,986.2,535.4,986.7,535.4,987.3z"/>
	<path class="st2" d="M523.5,832.1h-12.5c-2.7-2.3-6.1-3.7-9.9-3.7c-1.9,0-3.8,0.4-5.5,1V819c1.8-0.4,3.6-0.6,5.5-0.6
		C510.9,818.4,519.4,823.9,523.5,832.1z"/>
	<path class="st2" d="M509.6,845.8h-15.4v-2.7c1.7-0.7,3.6-1,5.5-1C503.4,842.1,506.9,843.5,509.6,845.8z"/>
	<path class="st2" d="M550.4,822c-0.3,1.3-0.5,2.6-0.5,4v28.1h-10v-28.1c0-1.4,0.1-2.7,0.3-4H550.4z"/>
	<path class="st2" d="M282.6,1109v35.5c0,4.9-4,8.8-8.8,8.8h-1.5v-10h0.3V1109H282.6z"/>
	<rect x="272.3" y="1109" class="st2" width="0.3" height="34.4"/>
	<path class="st2" d="M313.1,1135.2v35.5c0,4.9-3.9,8.8-8.8,8.8h-2.6c-4.9,0-8.8-4-8.8-8.8v-35.5h10v34.4h0.3v-34.4H313.1z"/>
	<path class="st2" d="M377.5,1144.1v7.6h-1.2c-2.3,0-4.5,0.9-6,2.4h-16.4c-1.6-1.5-3.7-2.4-6-2.4h-2.6c-1.8,0-3.5,0.6-4.9,1.5
		c-10.8-2.9-18.7-12.8-18.7-24.5v-20.3h10v20.3c0,8.5,6.9,15.4,15.4,15.4H377.5z"/>
	<path class="st2" d="M348.9,1154.8c1.7,1.6,2.8,3.9,2.8,6.4v1.2h-20.3v-1.2c0-3,1.5-5.7,3.9-7.3c1.4-1,3.1-1.5,4.9-1.5h2.6
		C345.2,1152.3,347.3,1153.3,348.9,1154.8z"/>
	<path class="st2" d="M372.5,1152.3v10h-10v-1.2c0-2.5,1.1-4.8,2.8-6.4c1.6-1.5,3.7-2.4,6-2.4H372.5z"/>
	<rect x="365.1" y="1109" class="st2" width="2.4" height="12.5"/>
	<rect x="426.4" y="1030.4" class="st2" width="7.3" height="9.2"/>
	<rect x="206.3" y="921.6" class="st2" width="15.8" height="10.9"/>
	<rect x="148.2" y="825.2" class="st2" width="9" height="18.7"/>
	<rect x="376.2" y="903.6" class="st2" width="11.6" height="6.1"/>
	<rect x="348.9" y="949.4" class="st2" width="2.8" height="3"/>
	<rect x="381.1" y="845.8" class="st2" width="16.7" height="11.4"/>
	<rect x="351.7" y="952.4" class="st2" width="15.8" height="17.7"/>
	<rect x="186.1" y="1072" class="st2" width="11.2" height="0"/>
	<rect x="282.6" y="1022.8" class="st2" width="5.3" height="12.1"/>
	<rect x="309.8" y="1126.2" class="st2" width="3.3" height="8.9"/>
	<rect x="303.5" y="1213.7" class="st2" width="10.1" height="3.2"/>
	<rect x="576.2" y="844" class="st2" width="0" height="7.6"/>
	<rect x="515.2" y="783.7" class="st2" width="10" height="18.6"/>
	<rect x="454" y="829.7" class="st2" width="20.5" height="12.4"/>
</g>
</svg>
