<?xml version="1.0" encoding="utf-8"?>
<!-- Generator: Adobe Illustrator 19.0.0, SVG Export Plug-In . SVG Version: 6.00 Build 0)  -->
<svg version="1.1" id="Layer_1" xmlns="http://www.w3.org/2000/svg" xmlns:xlink="http://www.w3.org/1999/xlink" x="0px" y="0px"
	 viewBox="-519 521.5 959.5 959.5" style="enable-background:new -519 521.5 959.5 959.5;" xml:space="preserve">
<style type="text/css">
	.st0{fill:#FECAFF;}
	.st1{fill:#FF93A2;}
	.st2{fill:#C8000F;}
</style>
<g>
	<rect x="67.6" y="808.2" class="st0" width="9" height="7.3"/>
	<rect x="72.1" y="790" class="st0" width="4.5" height="6"/>
	<rect x="65.6" y="776" class="st0" width="14" height="5"/>
	<g>
		<g>
			<path class="st0" d="M-309.1,650.6l43-29C-281,630.3-295.4,640-309.1,650.6z M-472.6,1006.6c1,18.9,3.3,37.5,6.8,55.9
				L-472.6,1006.6z M-265.2,650.6h-43.9c-14.5,11.1-28.3,23.2-41.3,36.3c-38.5,38.5-68.7,83.3-89.9,133.3
				c-21.9,51.7-33,106.6-33,163.2c0,7.8,0.2,15.5,0.6,23.2h25c-0.5-7.7-0.7-15.4-0.7-23.2C-448.2,843.6-375.2,720.6-265.2,650.6z
				 M-303.7,1320.2c3.8,2.9,7.7,5.6,11.7,8.4L-303.7,1320.2z M-440.2,1062.5h-25.5c5.5,28.8,14,56.9,25.5,84.1
				c21.1,49.9,51.4,94.8,89.9,133.3c14.7,14.7,30.3,28.2,46.7,40.4v-12.6h25.6C-360.1,1250.7-419.6,1163.6-440.2,1062.5z
				 M332.4,820.1c-5.3-12.5-11.1-24.7-17.6-36.5h-28.9c28.2,47.8,46.6,102.1,52.5,160h25.2C359.6,901,349.2,859.6,332.4,820.1z
				 M242.6,686.9c-38.5-38.5-83.4-68.7-133.3-89.9C57.6,575.1,2.7,564-53.9,564s-111.5,11.1-163.2,33c-16.9,7.2-33.3,15.4-49,24.6
				h55.3c48.1-20.9,101.1-32.5,156.9-32.5c130.9,0,247.1,64.1,318.8,162.5h30.7C280.2,728.4,262.5,706.8,242.6,686.9z M339.7,1006.6
				c-3.9,67.4-24.9,130.4-58.7,184.6c-5.3,8.6-11,16.9-16.9,25c-71.8,97.8-187.6,161.5-318,161.5c-69,0-133.9-17.8-190.4-49.1H-292
				c23.4,16.2,48.4,29.9,74.9,41.1c51.7,21.9,106.6,33,163.2,33s111.5-11.1,163.2-33c49.9-21.1,94.8-51.3,133.3-89.8
				c19.6-19.6,37.1-40.9,52.3-63.7c5.5-8.1,10.6-16.5,15.5-25c8.2-14.4,15.6-29.2,22.1-44.6c18.9-44.6,29.7-91.6,32.3-140H339.7z"/>
		</g>
		<path class="st0" d="M-453,1062.5h-25.5l-6.8-55.9h25C-459.2,1025.6-456.7,1044.3-453,1062.5z"/>
		<path class="st0" d="M320.6,767.6h-28.9c-6.5-11-13.5-21.7-21-32h30.7C308.2,746,314.7,756.6,320.6,767.6z"/>
		<path class="st0" d="M378.9,977.2c0,7.8-0.2,15.5-0.6,23.2h-25c0.5-7.7,0.7-15.4,0.7-23.2c0-13.4-0.7-26.7-2-39.8h25.1
			C378.3,950.6,378.9,963.9,378.9,977.2z"/>
		<path class="st0" d="M365.4,943.6v39.8c0-13.4-0.6-26.6-1.9-39.8H365.4z"/>
		<path class="st0" d="M364.8,1006.6c0.4-7.7,0.6-15.5,0.6-23.2v23.2H364.8z"/>
		<path class="st0" d="M-205.3,628.8c-19,8.3-37.2,18-54.5,29h-43.9l43-29H-205.3z"/>
		<path class="st0" d="M-235.5,1318.1h-47.7l-11.7-8.4v-12.6h25.6C-258.5,1304.6-247.2,1311.7-235.5,1318.1z"/>
		<path class="st0" d="M318.7,1241.5c-4.9,8.5-10,16.9-15.5,25h-30.8c6-8.1,11.6-16.4,16.9-25H318.7z"/>
		<path class="st0" d="M194.7,1072.9h-26.3c-4-10.7-9.6-20.6-16.5-29.4h30.2C187.3,1052.7,191.6,1062.6,194.7,1072.9z"/>
		<rect x="161.3" y="1080.6" class="st0" width="11.9" height="12"/>
		<rect x="187.9" y="1131.9" class="st0" width="15.4" height="8.1"/>
		<rect x="-78.8" y="1247.6" class="st0" width="33.4" height="6.4"/>
		<rect x="-448.7" y="1029.6" class="st0" width="12" height="4.9"/>
		<rect x="-303.7" y="621.6" class="st0" width="19.7" height="11.1"/>
		<rect x="259.3" y="767.6" class="st0" width="7" height="34.8"/>
		<rect x="318.7" y="949.6" class="st0" width="17.6" height="13.9"/>
		<rect x="308.3" y="1000.5" class="st0" width="10.4" height="19.1"/>
		<rect x="378.9" y="920.6" class="st0" width="20.4" height="7"/>
		<rect x="308.3" y="1209.6" class="st0" width="19.2" height="16"/>
		<rect x="259.3" y="1191.3" class="st0" width="43" height="13.3"/>
		<rect x="195.6" y="1262.6" class="st0" width="7.7" height="10"/>
		<rect x="138.3" y="1279.6" class="st0" width="23" height="7"/>
		<rect x="-309.1" y="1346.6" class="st0" width="21.5" height="9"/>
		<rect x="-332.7" y="1318.1" class="st0" width="10" height="19.5"/>
		<rect x="-496.7" y="1080.6" class="st0" width="11.3" height="12"/>
		<rect x="-501.7" y="983.4" class="st0" width="16.3" height="11.6"/>
		<rect x="-266.1" y="1254" class="st0" width="11.6" height="8.6"/>
		<rect x="-44.5" y="718.6" class="st0" width="13.9" height="11"/>
	</g>
	<g id="XMLID_1_">
		<g id="XMLID_3_">
			<g id="XMLID_6_">
				<g id="XMLID_7_">
					<path class="st0" d="M-79.8,1233h-84.3c0,0,2.4-41-14.7-88.6c-14.3-39.9-48.5-36.2-78.8-91.8c-13-23.9-20-64.3-23.3-100.2h34
						v-28.3h-35.9c-1-21.7-0.6-38.8,0.4-44.7c6.5-36.7,34.9-20.1,43.4,13.7c9.5,37.8,14.8,94.1,33.9,118.3
						c19.1,24.1,48.1,44,47.6,34.5c-0.5-9.5-39.6-57.4-48.1-71.9c-8.5-14.6,14-27.8,25.6-14.2c11.6,13.6,91.6,87.9,97.3,120.7
						c0.4,2,0.7,4.1,1,6.2H-99v26.9h19.8C-75.7,1167-79.8,1233-79.8,1233z"/>
				</g>
			</g>
			<g id="XMLID_4_">
				<g id="XMLID_5_">
					<path class="st0" d="M168,879.4c-6.5-36.7-34.9-20.1-43.4,13.7c-9.5,37.8-14.8,94.1-33.9,118.3c-19.1,24.1-48.1,44-47.6,34.5
						c0.5-9.5,39.6-57.4,48.1-71.9c8.5-14.6-14-27.8-25.6-14.2c-11.6,13.6-91.6,87.9-97.3,120.7c-9.3,53.9-3.1,152.6-3.1,152.6h84.3
						c0,0-0.8-13.9,1.9-35H27v-37.5h32.2c1.5-5.3,3.2-10.7,5.2-16.1c14.3-39.9,48.5-36.2,78.8-91.8
						C168.6,1005.8,171,896.4,168,879.4z M62,1080.6H43v-18.1h19V1080.6z"/>
				</g>
			</g>
		</g>
		<path class="st0" d="M-63.1,799.3v57.4l-48.6-40.1c-0.1-0.1-0.2-0.2-0.3-0.3v-35.9h-46.8c11.3-9.3,25-14.8,39.7-14.8
			C-96.1,765.7-75.7,778.9-63.1,799.3z"/>
		<path class="st0" d="M-65,893.2c0.6,0.5,1.3,1,1.9,1.3v31.2l-48.6-40.1c-6.3-5.2-15.5-4.3-20.7,2c-2.3,2.7-3.4,6.1-3.4,9.3
			c0,4.2,1.8,8.4,5.3,11.3l65.4,54c0.6,0.5,1.3,1,1.9,1.3v77C-174,939.3-187.3,875.5-188.3,855c-0.2-2.4-0.3-4.7-0.3-7.1
			c0-1.5,0-3.1,0.1-4.6h63.1L-65,893.2z"/>
		<path id="XMLID_2_" class="st0" d="M73.3,846.5H39.7c0.8,3.7,1.2,7.6,1.2,11.6c0,5.8-0.9,11.3-2.5,16.4
			C34.2,889.7,22.2,915.2-11,950c-4.7,5-13.3,1.7-13.3-5.1V833.9c0-1.4,0.4-2.7,1.1-3.9c6.6-10.2,16.7-16.8,28.1-16.8
			c1.2,0,2.3,0.1,3.4,0.2v-29.8h38.8c-11.9-11.2-26.9-17.9-43.3-17.9c-23.2,0-43.7,13.4-56.3,34.1v240.8
			c83.7-76.3,111.8-131.4,121-162.7c3.1-9.3,4.8-19.4,4.8-30C73.3,847.4,73.3,847,73.3,846.5z"/>
	</g>
	<path class="st0" d="M84.9,843.3H51.4C47.5,825.5,35.1,812,20,810.2v-29.8h38.8C74.5,795.2,84.6,817.9,84.9,843.3z"/>
	<path class="st0" d="M-260.1,929.5v28.3h-34c-0.9-9.9-1.6-19.5-2-28.3H-260.1z"/>
	<path class="st0" d="M-69.3,1113.5h-19.8v-26.9H-72C-70.8,1094.9-70,1104-69.3,1113.5z"/>
	<path class="st0" d="M68.5,1172.6c-3.9,13.8-6.2,26.6-7.6,37.5H36.4v-37.5H68.5z"/>
	<path class="st0" d="M-138,793v35.9c-6.2-4.9-15.3-3.9-20.3,2.3c-2.3,2.7-3.4,6-3.4,9.3c0,4.2,1.8,8.4,5.3,11.3l4.9,4.1h-63.1
		c1.2-26,12.6-48.8,29.7-62.9H-138z"/>
	<rect x="-4" y="850.5" class="st0" width="14.4" height="13.1"/>
	<rect x="87.6" y="811.2" class="st0" width="19.4" height="4.3"/>
	<rect x="-125.8" y="802.4" class="st0" width="8.8" height="26.2"/>
	<rect x="-309.1" y="911.5" class="st0" width="15.2" height="12.6"/>
	<rect x="-327.7" y="968.9" class="st0" width="35.7" height="7.6"/>
	<rect x="-63.1" y="1119.5" class="st0" width="10.5" height="5"/>
	<rect x="67.6" y="1159.5" class="st0" width="20" height="3"/>
	<rect x="-69.3" y="1140" class="st0" width="7.2" height="10.5"/>
	<rect x="80.6" y="911.5" class="st0" width="10" height="9.1"/>
</g>
<g>
	<rect x="84.6" y="808.2" class="st1" width="9" height="7.3"/>
	<rect x="89.1" y="790" class="st1" width="4.5" height="6"/>
	<rect x="82.6" y="776" class="st1" width="14" height="5"/>
	<g>
		<g>
			<path class="st1" d="M-292.1,650.6l43-29C-264,630.3-278.4,640-292.1,650.6z M-455.6,1006.6c1,18.9,3.3,37.5,6.8,55.9
				L-455.6,1006.6z M-248.2,650.6h-43.9c-14.5,11.1-28.3,23.2-41.3,36.3c-38.5,38.5-68.7,83.3-89.9,133.3
				c-21.9,51.7-33,106.6-33,163.2c0,7.8,0.2,15.5,0.6,23.2h25c-0.5-7.7-0.7-15.4-0.7-23.2C-431.2,843.6-358.2,720.6-248.2,650.6z
				 M-286.7,1320.2c3.8,2.9,7.7,5.6,11.7,8.4L-286.7,1320.2z M-423.2,1062.5h-25.5c5.5,28.8,14,56.9,25.5,84.1
				c21.1,49.9,51.4,94.8,89.9,133.3c14.7,14.7,30.3,28.2,46.7,40.4v-12.6h25.6C-343.1,1250.7-402.6,1163.6-423.2,1062.5z
				 M349.4,820.1c-5.3-12.5-11.1-24.7-17.6-36.5h-28.9c28.2,47.8,46.6,102.1,52.5,160h25.2C376.6,901,366.2,859.6,349.4,820.1z
				 M259.6,686.9c-38.5-38.5-83.4-68.7-133.3-89.9c-51.7-21.9-106.6-33-163.2-33s-111.5,11.1-163.2,33c-16.9,7.2-33.3,15.4-49,24.6
				h55.3c48.1-20.9,101.1-32.5,156.9-32.5c130.9,0,247.1,64.1,318.8,162.5h30.7C297.2,728.4,279.5,706.8,259.6,686.9z M356.7,1006.6
				c-3.9,67.4-24.9,130.4-58.7,184.6c-5.3,8.6-11,16.9-16.9,25c-71.8,97.8-187.6,161.5-318,161.5c-69,0-133.9-17.8-190.4-49.1H-275
				c23.4,16.2,48.4,29.9,74.9,41.1c51.7,21.9,106.6,33,163.2,33s111.5-11.1,163.2-33c49.9-21.1,94.8-51.3,133.3-89.8
				c19.6-19.6,37.1-40.9,52.3-63.7c5.5-8.1,10.6-16.5,15.5-25c8.2-14.4,15.6-29.2,22.1-44.6c18.9-44.6,29.7-91.6,32.3-140H356.7z"/>
		</g>
		<path class="st1" d="M-436,1062.5h-25.5l-6.8-55.9h25C-442.2,1025.6-439.7,1044.3-436,1062.5z"/>
		<path class="st1" d="M337.6,767.6h-28.9c-6.5-11-13.5-21.7-21-32h30.7C325.2,746,331.7,756.6,337.6,767.6z"/>
		<path class="st1" d="M395.9,977.2c0,7.8-0.2,15.5-0.6,23.2h-25c0.5-7.7,0.7-15.4,0.7-23.2c0-13.4-0.7-26.7-2-39.8h25.1
			C395.3,950.6,395.9,963.9,395.9,977.2z"/>
		<path class="st1" d="M382.4,943.6v39.8c0-13.4-0.6-26.6-1.9-39.8H382.4z"/>
		<path class="st1" d="M381.8,1006.6c0.4-7.7,0.6-15.5,0.6-23.2v23.2H381.8z"/>
		<path class="st1" d="M-188.3,628.8c-19,8.3-37.2,18-54.5,29h-43.9l43-29H-188.3z"/>
		<path class="st1" d="M-218.5,1318.1h-47.7l-11.7-8.4v-12.6h25.6C-241.5,1304.6-230.2,1311.7-218.5,1318.1z"/>
		<path class="st1" d="M335.7,1241.5c-4.9,8.5-10,16.9-15.5,25h-30.8c6-8.1,11.6-16.4,16.9-25H335.7z"/>
		<path class="st1" d="M211.7,1072.9h-26.3c-4-10.7-9.6-20.6-16.5-29.4h30.2C204.3,1052.7,208.6,1062.6,211.7,1072.9z"/>
		<rect x="178.3" y="1080.6" class="st1" width="11.9" height="12"/>
		<rect x="204.9" y="1131.9" class="st1" width="15.4" height="8.1"/>
		<rect x="-61.8" y="1247.6" class="st1" width="33.4" height="6.4"/>
		<rect x="-431.7" y="1029.6" class="st1" width="12" height="4.9"/>
		<rect x="-286.7" y="621.6" class="st1" width="19.7" height="11.1"/>
		<rect x="276.3" y="767.6" class="st1" width="7" height="34.8"/>
		<rect x="335.7" y="949.6" class="st1" width="17.6" height="13.9"/>
		<rect x="325.3" y="1000.5" class="st1" width="10.4" height="19.1"/>
		<rect x="395.9" y="920.6" class="st1" width="20.4" height="7"/>
		<rect x="325.3" y="1209.6" class="st1" width="19.2" height="16"/>
		<rect x="276.3" y="1191.3" class="st1" width="43" height="13.3"/>
		<rect x="212.6" y="1262.6" class="st1" width="7.7" height="10"/>
		<rect x="155.3" y="1279.6" class="st1" width="23" height="7"/>
		<rect x="-292.1" y="1346.6" class="st1" width="21.5" height="9"/>
		<rect x="-315.7" y="1318.1" class="st1" width="10" height="19.5"/>
		<rect x="-479.7" y="1080.6" class="st1" width="11.3" height="12"/>
		<rect x="-484.7" y="983.4" class="st1" width="16.3" height="11.6"/>
		<rect x="-249.1" y="1254" class="st1" width="11.6" height="8.6"/>
		<rect x="-27.5" y="718.6" class="st1" width="13.9" height="11"/>
	</g>
	<g id="XMLID_8_">
		<g id="XMLID_10_">
			<g id="XMLID_13_">
				<g id="XMLID_14_">
					<path class="st1" d="M-62.8,1233h-84.3c0,0,2.4-41-14.7-88.6c-14.3-39.9-48.5-36.2-78.8-91.8c-13-23.9-20-64.3-23.3-100.2h34
						v-28.3h-35.9c-1-21.7-0.6-38.8,0.4-44.7c6.5-36.7,34.9-20.1,43.4,13.7c9.5,37.8,14.8,94.1,33.9,118.3
						c19.1,24.1,48.1,44,47.6,34.5c-0.5-9.5-39.6-57.4-48.1-71.9c-8.5-14.6,14-27.8,25.6-14.2c11.6,13.6,91.6,87.9,97.3,120.7
						c0.4,2,0.7,4.1,1,6.2H-82v26.9h19.8C-58.7,1167-62.8,1233-62.8,1233z"/>
				</g>
			</g>
			<g id="XMLID_11_">
				<g id="XMLID_12_">
					<path class="st1" d="M185,879.4c-6.5-36.7-34.9-20.1-43.4,13.7c-9.5,37.8-14.8,94.1-33.9,118.3c-19.1,24.1-48.1,44-47.6,34.5
						c0.5-9.5,39.6-57.4,48.1-71.9c8.5-14.6-14-27.8-25.6-14.2c-11.6,13.6-91.6,87.9-97.3,120.7c-9.3,53.9-3.1,152.6-3.1,152.6h84.3
						c0,0-0.8-13.9,1.9-35H44v-37.5h32.2c1.5-5.3,3.2-10.7,5.2-16.1c14.3-39.9,48.5-36.2,78.8-91.8
						C185.6,1005.8,188,896.4,185,879.4z M79,1080.6H60v-18.1h19V1080.6z"/>
				</g>
			</g>
		</g>
		<path class="st1" d="M-46.1,799.3v57.4l-48.6-40.1c-0.1-0.1-0.2-0.2-0.3-0.3v-35.9h-46.8c11.3-9.3,25-14.8,39.7-14.8
			C-79.1,765.7-58.7,778.9-46.1,799.3z"/>
		<path class="st1" d="M-48,893.2c0.6,0.5,1.3,1,1.9,1.3v31.2l-48.6-40.1c-6.3-5.2-15.5-4.3-20.7,2c-2.3,2.7-3.4,6.1-3.4,9.3
			c0,4.2,1.8,8.4,5.3,11.3l65.4,54c0.6,0.5,1.3,1,1.9,1.3v77C-157,939.3-170.3,875.5-171.3,855c-0.2-2.4-0.3-4.7-0.3-7.1
			c0-1.5,0-3.1,0.1-4.6h63.1L-48,893.2z"/>
		<path id="XMLID_9_" class="st1" d="M90.3,846.5H56.7c0.8,3.7,1.2,7.6,1.2,11.6c0,5.8-0.9,11.3-2.5,16.4
			C51.2,889.7,39.2,915.2,6,950c-4.7,5-13.3,1.7-13.3-5.1V833.9c0-1.4,0.4-2.7,1.1-3.9c6.6-10.2,16.7-16.8,28.1-16.8
			c1.2,0,2.3,0.1,3.4,0.2v-29.8h38.8c-11.9-11.2-26.9-17.9-43.3-17.9c-23.2,0-43.7,13.4-56.3,34.1v240.8
			c83.7-76.3,111.8-131.4,121-162.7c3.1-9.3,4.8-19.4,4.8-30C90.3,847.4,90.3,847,90.3,846.5z"/>
	</g>
	<path class="st1" d="M101.9,843.3H68.4C64.5,825.5,52.1,812,37,810.2v-29.8h38.8C91.5,795.2,101.6,817.9,101.9,843.3z"/>
	<path class="st1" d="M-243.1,929.5v28.3h-34c-0.9-9.9-1.6-19.5-2-28.3H-243.1z"/>
	<path class="st1" d="M-52.3,1113.5h-19.8v-26.9H-55C-53.8,1094.9-53,1104-52.3,1113.5z"/>
	<path class="st1" d="M85.5,1172.6c-3.9,13.8-6.2,26.6-7.6,37.5H53.4v-37.5H85.5z"/>
	<path class="st1" d="M-121,793v35.9c-6.2-4.9-15.3-3.9-20.3,2.3c-2.3,2.7-3.4,6-3.4,9.3c0,4.2,1.8,8.4,5.3,11.3l4.9,4.1h-63.1
		c1.2-26,12.6-48.8,29.7-62.9H-121z"/>
	<rect x="13" y="850.5" class="st1" width="14.4" height="13.1"/>
	<rect x="104.6" y="811.2" class="st1" width="19.4" height="4.3"/>
	<rect x="-108.8" y="802.4" class="st1" width="8.8" height="26.2"/>
	<rect x="-292.1" y="911.5" class="st1" width="15.2" height="12.6"/>
	<rect x="-310.7" y="968.9" class="st1" width="35.7" height="7.6"/>
	<rect x="-46.1" y="1119.5" class="st1" width="10.5" height="5"/>
	<rect x="84.6" y="1159.5" class="st1" width="20" height="3"/>
	<rect x="-52.3" y="1140" class="st1" width="7.2" height="10.5"/>
	<rect x="97.6" y="911.5" class="st1" width="10" height="9.1"/>
</g>
<title>sponsors</title>
<g>
	<rect x="76.6" y="808.2" class="st1" width="9" height="7.3"/>
	<rect x="81.1" y="790" class="st1" width="4.5" height="6"/>
	<rect x="74.6" y="776" class="st0" width="14" height="5"/>
	<g>
		<g>
			<path class="st2" d="M-300.1,650.6l43-29C-272,630.3-286.4,640-300.1,650.6z M-463.6,1006.6c1,18.9,3.3,37.5,6.8,55.9
				L-463.6,1006.6z M-256.2,650.6h-43.9c-14.5,11.1-28.3,23.2-41.3,36.3c-38.5,38.5-68.7,83.3-89.9,133.3
				c-21.9,51.7-33,106.6-33,163.2c0,7.8,0.2,15.5,0.6,23.2h25c-0.5-7.7-0.7-15.4-0.7-23.2C-439.2,843.6-366.2,720.6-256.2,650.6z
				 M-294.7,1320.2c3.8,2.9,7.7,5.6,11.7,8.4L-294.7,1320.2z M-431.2,1062.5h-25.5c5.5,28.8,14,56.9,25.5,84.1
				c21.1,49.9,51.4,94.8,89.9,133.3c14.7,14.7,30.3,28.2,46.7,40.4v-12.6h25.6C-351.1,1250.7-410.6,1163.6-431.2,1062.5z
				 M341.4,820.1c-5.3-12.5-11.1-24.7-17.6-36.5h-28.9c28.2,47.8,46.6,102.1,52.5,160h25.2C368.6,901,358.2,859.6,341.4,820.1z
				 M251.6,686.9c-38.5-38.5-83.4-68.7-133.3-89.9c-51.7-21.9-106.6-33-163.2-33s-111.5,11.1-163.2,33c-16.9,7.2-33.3,15.4-49,24.6
				h55.3c48.1-20.9,101.1-32.5,156.9-32.5c130.9,0,247.1,64.1,318.8,162.5h30.7C289.2,728.4,271.5,706.8,251.6,686.9z M348.7,1006.6
				c-3.9,67.4-24.9,130.4-58.7,184.6c-5.3,8.6-11,16.9-16.9,25c-71.8,97.8-187.6,161.5-318,161.5c-69,0-133.9-17.8-190.4-49.1H-283
				c23.4,16.2,48.4,29.9,74.9,41.1c51.7,21.9,106.6,33,163.2,33s111.5-11.1,163.2-33c49.9-21.1,94.8-51.3,133.3-89.8
				c19.6-19.6,37.1-40.9,52.3-63.7c5.5-8.1,10.6-16.5,15.5-25c8.2-14.4,15.6-29.2,22.1-44.6c18.9-44.6,29.7-91.6,32.3-140H348.7z"/>
		</g>
		<path class="st2" d="M-444,1062.5h-25.5l-6.8-55.9h25C-450.2,1025.6-447.7,1044.3-444,1062.5z"/>
		<path class="st2" d="M329.6,767.6h-28.9c-6.5-11-13.5-21.7-21-32h30.7C317.2,746,323.7,756.6,329.6,767.6z"/>
		<path class="st2" d="M387.9,977.2c0,7.8-0.2,15.5-0.6,23.2h-25c0.5-7.7,0.7-15.4,0.7-23.2c0-13.4-0.7-26.7-2-39.8h25.1
			C387.3,950.6,387.9,963.9,387.9,977.2z"/>
		<path class="st2" d="M374.4,943.6v39.8c0-13.4-0.6-26.6-1.9-39.8H374.4z"/>
		<path class="st2" d="M373.8,1006.6c0.4-7.7,0.6-15.5,0.6-23.2v23.2H373.8z"/>
		<path class="st2" d="M-196.3,628.8c-19,8.3-37.2,18-54.5,29h-43.9l43-29H-196.3z"/>
		<path class="st2" d="M-226.5,1318.1h-47.7l-11.7-8.4v-12.6h25.6C-249.5,1304.6-238.2,1311.7-226.5,1318.1z"/>
		<path class="st2" d="M327.7,1241.5c-4.9,8.5-10,16.9-15.5,25h-30.8c6-8.1,11.6-16.4,16.9-25H327.7z"/>
		<path class="st2" d="M203.7,1072.9h-26.3c-4-10.7-9.6-20.6-16.5-29.4h30.2C196.3,1052.7,200.6,1062.6,203.7,1072.9z"/>
		<rect x="170.3" y="1080.6" class="st2" width="11.9" height="12"/>
		<rect x="196.9" y="1131.9" class="st2" width="15.4" height="8.1"/>
		<rect x="-69.8" y="1247.6" class="st2" width="33.4" height="6.4"/>
		<rect x="-439.7" y="1029.6" class="st2" width="12" height="4.9"/>
		<rect x="-294.7" y="621.6" class="st2" width="19.7" height="11.1"/>
		<rect x="268.3" y="767.6" class="st2" width="7" height="34.8"/>
		<rect x="327.7" y="949.6" class="st2" width="17.6" height="13.9"/>
		<rect x="317.3" y="1000.5" class="st2" width="10.4" height="19.1"/>
		<rect x="387.9" y="920.6" class="st2" width="20.4" height="7"/>
		<rect x="317.3" y="1209.6" class="st2" width="19.2" height="16"/>
		<rect x="268.3" y="1191.3" class="st2" width="43" height="13.3"/>
		<rect x="204.6" y="1262.6" class="st2" width="7.7" height="10"/>
		<rect x="147.3" y="1279.6" class="st2" width="23" height="7"/>
		<rect x="-300.1" y="1346.6" class="st2" width="21.5" height="9"/>
		<rect x="-323.7" y="1318.1" class="st2" width="10" height="19.5"/>
		<rect x="-487.7" y="1080.6" class="st2" width="11.3" height="12"/>
		<rect x="-492.7" y="983.4" class="st2" width="16.3" height="11.6"/>
		<rect x="-257.1" y="1254" class="st2" width="11.6" height="8.6"/>
		<rect x="-35.5" y="718.6" class="st2" width="13.9" height="11"/>
	</g>
	<g id="XMLID_36_">
		<g id="XMLID_17_">
			<g id="XMLID_26_">
				<g id="XMLID_32_">
					<path class="st2" d="M-70.8,1233h-84.3c0,0,2.4-41-14.7-88.6c-14.3-39.9-48.5-36.2-78.8-91.8c-13-23.9-20-64.3-23.3-100.2h34
						v-28.3h-35.9c-1-21.7-0.6-38.8,0.4-44.7c6.5-36.7,34.9-20.1,43.4,13.7c9.5,37.8,14.8,94.1,33.9,118.3
						c19.1,24.1,48.1,44,47.6,34.5c-0.5-9.5-39.6-57.4-48.1-71.9c-8.5-14.6,14-27.8,25.6-14.2c11.6,13.6,91.6,87.9,97.3,120.7
						c0.4,2,0.7,4.1,1,6.2H-90v26.9h19.8C-66.7,1167-70.8,1233-70.8,1233z"/>
				</g>
			</g>
			<g id="XMLID_18_">
				<g id="XMLID_24_">
					<path class="st2" d="M177,879.4c-6.5-36.7-34.9-20.1-43.4,13.7c-9.5,37.8-14.8,94.1-33.9,118.3c-19.1,24.1-48.1,44-47.6,34.5
						c0.5-9.5,39.6-57.4,48.1-71.9c8.5-14.6-14-27.8-25.6-14.2c-11.6,13.6-91.6,87.9-97.3,120.7c-9.3,53.9-3.1,152.6-3.1,152.6h84.3
						c0,0-0.8-13.9,1.9-35H36v-37.5h32.2c1.5-5.3,3.2-10.7,5.2-16.1c14.3-39.9,48.5-36.2,78.8-91.8
						C177.6,1005.8,180,896.4,177,879.4z M71,1080.6H52v-18.1h19V1080.6z"/>
				</g>
			</g>
		</g>
		<path class="st2" d="M-54.1,799.3v57.4l-48.6-40.1c-0.1-0.1-0.2-0.2-0.3-0.3v-35.9h-46.8c11.3-9.3,25-14.8,39.7-14.8
			C-87.1,765.7-66.7,778.9-54.1,799.3z"/>
		<path class="st2" d="M-56,893.2c0.6,0.5,1.3,1,1.9,1.3v31.2l-48.6-40.1c-6.3-5.2-15.5-4.3-20.7,2c-2.3,2.7-3.4,6.1-3.4,9.3
			c0,4.2,1.8,8.4,5.3,11.3l65.4,54c0.6,0.5,1.3,1,1.9,1.3v77C-165,939.3-178.3,875.5-179.3,855c-0.2-2.4-0.3-4.7-0.3-7.1
			c0-1.5,0-3.1,0.1-4.6h63.1L-56,893.2z"/>
		<path id="XMLID_33_" class="st2" d="M82.3,846.5H48.7c0.8,3.7,1.2,7.6,1.2,11.6c0,5.8-0.9,11.3-2.5,16.4
			C43.2,889.7,31.2,915.2-2,950c-4.7,5-13.3,1.7-13.3-5.1V833.9c0-1.4,0.4-2.7,1.1-3.9c6.6-10.2,16.7-16.8,28.1-16.8
			c1.2,0,2.3,0.1,3.4,0.2v-29.8h38.8c-11.9-11.2-26.9-17.9-43.3-17.9c-23.2,0-43.7,13.4-56.3,34.1v240.8
			c83.7-76.3,111.8-131.4,121-162.7c3.1-9.3,4.8-19.4,4.8-30C82.3,847.4,82.3,847,82.3,846.5z"/>
	</g>
	<path class="st2" d="M93.9,843.3H60.4C56.5,825.5,44.1,812,29,810.2v-29.8h38.8C83.5,795.2,93.6,817.9,93.9,843.3z"/>
	<path class="st2" d="M-251.1,929.5v28.3h-34c-0.9-9.9-1.6-19.5-2-28.3H-251.1z"/>
	<path class="st2" d="M-60.3,1113.5h-19.8v-26.9H-63C-61.8,1094.9-61,1104-60.3,1113.5z"/>
	<path class="st2" d="M77.5,1172.6c-3.9,13.8-6.2,26.6-7.6,37.5H45.4v-37.5H77.5z"/>
	<path class="st2" d="M-129,793v35.9c-6.2-4.9-15.3-3.9-20.3,2.3c-2.3,2.7-3.4,6-3.4,9.3c0,4.2,1.8,8.4,5.3,11.3l4.9,4.1h-63.1
		c1.2-26,12.6-48.8,29.7-62.9H-129z"/>
	<rect x="5" y="850.5" class="st2" width="14.4" height="13.1"/>
	<rect x="96.6" y="811.2" class="st2" width="19.4" height="4.3"/>
	<rect x="-116.8" y="802.4" class="st2" width="8.8" height="26.2"/>
	<rect x="-300.1" y="911.5" class="st2" width="15.2" height="12.6"/>
	<rect x="-318.7" y="968.9" class="st2" width="35.7" height="7.6"/>
	<rect x="-54.1" y="1119.5" class="st2" width="10.5" height="5"/>
	<rect x="76.6" y="1159.5" class="st2" width="20" height="3"/>
	<rect x="-60.3" y="1140" class="st2" width="7.2" height="10.5"/>
	<rect x="89.6" y="911.5" class="st2" width="10" height="9.1"/>
</g>
</svg>
