<?xml version="1.0" encoding="iso-8859-1"?>
<!-- Generator: Adobe Illustrator 19.0.0, SVG Export Plug-In . SVG Version: 6.00 Build 0)  -->
<svg version="1.1" id="Layer_1" xmlns="http://www.w3.org/2000/svg" xmlns:xlink="http://www.w3.org/1999/xlink" x="0px" y="0px"
	 viewBox="-114 475.89 970.11 970.11" style="enable-background:new -114 475.89 970.11 970.11;" xml:space="preserve">
<title>Intra</title>
<g>
	<rect x="583.343" y="831.281" style="fill:#FF93A2;" width="45.501" height="14.63"/>
	<rect x="605.661" y="876.7" style="fill:#FF93A2;" width="5.958" height="6.886"/>
	<rect x="587.661" y="876.7" style="fill:#FF93A2;" width="5.958" height="6.886"/>
	<g>
		<g>
			<path style="fill:#FF93A2;" d="M120.253,603.2l43.03-29C148.353,582.95,133.993,592.63,120.253,603.2z M-43.207,959.2
				c1.01,18.86,3.28,37.49,6.79,55.86L-43.207,959.2z M164.123,603.2h-43.87c-14.46,11.12-28.24,23.21-41.29,36.26
				c-38.5,38.51-68.73,83.35-89.85,133.28c-21.87,51.7-32.96,106.62-32.96,163.22c0,7.78,0.21,15.53,0.64,23.24h25.04
				c-0.45-7.69-0.68-15.44-0.68-23.24C-18.847,796.24,54.203,673.25,164.123,603.2z M125.703,1272.84
				c3.84,2.86,7.73,5.64,11.67,8.36L125.703,1272.84z M-10.867,1015.06h-25.55c5.49,28.78,14.01,56.9,25.53,84.12
				c21.12,49.93,51.35,94.77,89.85,133.28c14.69,14.68,30.28,28.15,46.74,40.38v-12.64h25.6
				C69.293,1203.33,9.793,1116.18-10.867,1015.06z M761.813,772.74c-5.29-12.5-11.15-24.69-17.58-36.54h-28.91
				c28.22,47.82,46.64,102.08,52.46,160h25.14C788.943,853.62,778.523,812.24,761.813,772.74z M671.963,639.46
				c-38.51-38.5-83.35-68.73-133.28-89.85c-51.7-21.87-106.62-32.96-163.22-32.96c-56.6,0-111.52,11.09-163.22,32.96
				c-16.92,7.16-33.26,15.36-48.96,24.59h55.32c48.09-20.94,101.15-32.55,156.86-32.55c130.88,0,247.07,64.1,318.83,162.55h30.69
				C709.613,681.03,691.893,659.4,671.963,639.46z M769.093,959.2c-3.94,67.44-24.9,130.38-58.65,184.58
				c-5.32,8.56-10.97,16.9-16.93,25c-71.81,97.85-187.64,161.49-318.05,161.49c-68.99,0-133.89-17.81-190.36-49.07h-47.73
				c23.4,16.18,48.42,29.92,74.87,41.11c51.7,21.87,106.62,32.96,163.22,32.96c56.6,0,111.52-11.09,163.22-32.96
				c49.93-21.12,94.77-51.35,133.28-89.85c19.63-19.63,37.11-40.91,52.32-63.68c5.45-8.14,10.61-16.48,15.47-25
				c8.2-14.36,15.56-29.24,22.06-44.6c18.86-44.59,29.71-91.58,32.32-139.98H769.093z"/>
		</g>
		<path style="fill:#FF93A2;" d="M-23.642,1015.06h-25.55l-6.79-55.86h25.04C-29.832,978.21-27.372,996.86-23.642,1015.06z"/>
		<path style="fill:#FF93A2;" d="M749.953,720.2h-28.91c-6.49-11.02-13.51-21.7-21.03-32h30.69
			C737.603,698.56,744.013,709.23,749.953,720.2z"/>
		<path style="fill:#FF93A2;" d="M808.268,929.84c0,7.78-0.21,15.53-0.64,23.24h-25.04c0.45-7.69,0.68-15.44,0.68-23.24
			c0-13.42-0.67-26.68-1.99-39.76h25.14C807.648,903.23,808.268,916.49,808.268,929.84z"/>
		<path style="fill:#FF93A2;" d="M794.773,896.2v39.76c0-13.35-0.62-26.61-1.85-39.76H794.773z"/>
		<path style="fill:#FF93A2;" d="M794.133,959.2c0.43-7.71,0.64-15.46,0.64-23.24v23.24H794.133z"/>
		<path style="fill:#FF93A2;" d="M224.053,581.425c-18.98,8.26-37.19,17.97-54.48,29h-43.87l43.03-29H224.053z"/>
		<path style="fill:#FF93A2;" d="M193.823,1270.7h-47.73l-11.67-8.36v-12.64h25.6C170.903,1257.25,182.183,1264.26,193.823,1270.7z"
			/>
		<path style="fill:#FF93A2;" d="M748.103,1194.07c-4.86,8.52-10.02,16.86-15.47,25h-30.77c5.96-8.1,11.61-16.44,16.93-25H748.103z"
			/>
		<path style="fill:#FF93A2;" d="M624.033,1025.535h-26.33c-3.96-10.69-9.57-20.59-16.5-29.39h30.16
			C616.703,1005.305,620.983,1015.165,624.033,1025.535z"/>
		<rect x="590.703" y="1033.2" style="fill:#FF93A2;" width="11.915" height="12"/>
		<rect x="617.266" y="1084.526" style="fill:#FF93A2;" width="15.437" height="8.129"/>
		<rect x="350.573" y="1200.2" style="fill:#FF93A2;" width="33.38" height="6.37"/>
		<rect x="-19.297" y="982.2" style="fill:#FF93A2;" width="12" height="4.93"/>
		<rect x="125.703" y="574.2" style="fill:#FF93A2;" width="19.726" height="11.096"/>
		<rect x="688.703" y="720.2" style="fill:#FF93A2;" width="7" height="34.775"/>
		<rect x="748.103" y="902.2" style="fill:#FF93A2;" width="17.6" height="13.88"/>
		<rect x="737.703" y="953.08" style="fill:#FF93A2;" width="10.4" height="19.12"/>
		<rect x="808.268" y="873.2" style="fill:#FF93A2;" width="20.435" height="7"/>
		<rect x="737.703" y="1162.2" style="fill:#FF93A2;" width="19.2" height="16"/>
		<rect x="688.703" y="1143.95" style="fill:#FF93A2;" width="43.028" height="13.285"/>
		<rect x="624.985" y="1215.2" style="fill:#FF93A2;" width="7.719" height="10"/>
		<rect x="567.703" y="1232.2" style="fill:#FF93A2;" width="23" height="7"/>
		<rect x="120.253" y="1299.2" style="fill:#FF93A2;" width="21.515" height="9"/>
		<rect x="96.703" y="1270.7" style="fill:#FF93A2;" width="10" height="19.5"/>
		<rect x="-67.297" y="1033.2" style="fill:#FF93A2;" width="11.315" height="12"/>
		<rect x="-72.297" y="935.955" style="fill:#FF93A2;" width="16.315" height="11.625"/>
		<rect x="163.283" y="1206.57" style="fill:#FF93A2;" width="11.595" height="8.63"/>
		<rect x="384.863" y="671.2" style="fill:#FF93A2;" width="13.923" height="11"/>
	</g>
	<rect x="596.661" y="876.7" style="fill:#FF93A2;" width="5.958" height="6.886"/>
	<g>
		<g>
			<path style="fill:#FF93A2;" d="M224.74,955.521v136.35H195v-136.35c0-8.21,6.66-14.87,14.87-14.87S224.74,947.311,224.74,955.521
				z"/>
			<path style="fill:#FF93A2;" d="M556.24,955.521v165.74c0,8.21-6.66,14.87-14.87,14.87H264.1v-29.73h262.4v-150.88
				c0-8.21,6.66-14.87,14.87-14.87S556.24,947.311,556.24,955.521z"/>
			<path style="fill:#FF93A2;" d="M229.78,855.541h32.44l-110.49,110.49c-2.91,2.9-6.71,4.36-10.52,4.36
				c-3.8,0-7.61-1.46-10.51-4.36c-5.81-5.8-5.81-15.22,0-21.03l89.46-89.46l9.62-9.62V855.541z"/>
			<path style="fill:#FF93A2;" d="M491.7,816.201h-25.95v16.1l-16.1-16.1l-74.05-74.04l-80.41,80.41h-42.06l111.95-111.95
				c5.81-5.8,15.22-5.81,21.03,0L491.7,816.201z"/>
			<path style="fill:#FF93A2;" d="M620.52,966.031c-5.8,5.8-15.22,5.81-21.02,0L489,855.541h42.05l89.47,89.46
				C626.33,950.811,626.33,960.221,620.52,966.031z"/>
		</g>
		<g>
			<path style="fill:#FF93A2;" d="M392.67,940.281l-7.07-0.83c-0.97-3.68-2.42-7.21-4.28-10.51l4.36-5.51
				c1.61-2.03,1.43-4.93-0.39-6.77l-8.48-8.48c-1.83-1.83-4.73-1.99-6.77-0.38l-5.34,4.23c-3.46-2.03-7.17-3.59-11.06-4.63
				l-0.81-6.92c-0.3-2.57-2.47-4.51-5.05-4.51h-12.03c-2.58,0-4.76,1.94-5.06,4.51l-0.81,6.92c-3.99,1.06-7.79,2.68-11.34,4.79
				l-5.54-4.39c-2.04-1.61-4.94-1.43-6.77,0.38l-8.5,8.5c-1.84,1.84-2,4.74-0.39,6.77l4.64,5.87c-1.86,3.34-3.27,6.91-4.19,10.62
				l-7.42,0.84c-2.58,0.31-4.51,2.48-4.51,5.06v12.03c0,2.58,1.93,4.75,4.51,5.06l7.82,0.9c0.99,3.39,2.36,6.65,4.09,9.72
				l-4.94,6.22c-1.61,2.04-1.43,4.94,0.39,6.77l8.5,8.5c1.83,1.84,4.73,2,6.77,0.39l6.18-4.9c3.19,1.84,6.57,3.27,10.1,4.27
				l0.93,7.96c0.3,2.58,2.47,4.52,5.05,4.52h12.03c2.58,0,4.76-1.94,5.06-4.52l0.89-7.67c3.78-0.99,7.41-2.46,10.82-4.38l5.98,4.74
				c2.04,1.61,4.94,1.43,6.77-0.39l7.93-7.93h-42.97v-16.06c-10.96,0-19.89-8.93-19.89-19.89c0-10.96,8.93-19.89,19.89-19.89
				c10.96,0,19.89,8.93,19.89,19.89c0,10.96-8.93,19.89-19.89,19.89h40.77c1.23-2.51,2.23-5.12,2.96-7.82l7.17-0.83
				c2.58-0.3,4.51-2.48,4.51-5.05v-12.03C397.18,942.761,395.25,940.581,392.67,940.281z"/>
			<path style="fill:#FF93A2;" d="M472.96,990.671c-0.12-1.44-0.85-2.71-1.92-3.54h-31.23c2.52,2.6,4.2,6.06,4.52,9.95
				c0.77,8.95-5.9,16.84-14.85,17.59c-8.95,0.77-16.84-5.9-17.59-14.85c-0.42-4.87,1.37-9.43,4.53-12.69H392.7
				c-0.54,1.68-0.97,3.4-1.26,5.15l-5.24,1.07c-2.5,0.51-4.23,2.82-4.03,5.36l0.71,8.28c0.22,2.54,2.29,4.54,4.85,4.62l5.66,0.18
				c1.03,2.7,2.38,5.26,4.01,7.66l-3.16,4.77c-1.41,2.14-1.01,4.98,0.95,6.63l6.34,5.36c1.96,1.65,4.84,1.57,6.69-0.18l4.15-3.89
				c2.72,1.27,5.59,2.22,8.53,2.78l1.15,5.68c0.5,2.5,2.82,4.23,5.36,4.03l8.28-0.7c2.54-0.23,4.53-2.3,4.61-4.86l0.18-5.56
				c3.02-1.07,5.89-2.52,8.53-4.31l4.57,3.02c2.13,1.41,4.98,1.01,6.63-0.95l5.36-6.34c1.65-1.96,1.57-4.84-0.18-6.69l-3.69-3.91
				c1.35-2.86,2.34-5.89,2.9-8.99l5.04-1.03c2.5-0.5,4.23-2.82,4.03-5.36L472.96,990.671z M460.69,966.801l-6.35-5.36
				c-1.95-1.66-4.83-1.58-6.68,0.18l-3.51,3.28c-2.96-1.43-6.11-2.44-9.35-3.02l-0.99-4.84c-0.5-2.49-2.82-4.23-5.36-4.03
				l-8.28,0.71c-2.54,0.22-4.53,2.3-4.61,4.86l-0.16,4.91c-3.19,1.15-6.19,2.72-8.93,4.7l-4.19-2.78c-2.14-1.41-4.98-1.01-6.63,0.94
				l-3.96,4.72h70.76C462.59,969.491,461.98,967.881,460.69,966.801z"/>
			<path style="fill:#FF93A2;" d="M392.51,1037.421l-3.27-0.42c-0.62-2.46-1.55-4.84-2.76-7.06l2.04-2.5
				c1.61-1.99,1.49-4.85-0.3-6.68l-3.57-3.65c-1.79-1.84-4.66-2.04-6.69-0.47l-2.44,1.88c-2.3-1.39-4.75-2.46-7.33-3.19l-0.33-3.16
				c-0.26-2.54-2.39-4.49-4.95-4.51l-5.1-0.06c-2.56-0.04-4.73,1.85-5.06,4.39l-0.4,3.14c-2.66,0.69-5.22,1.74-7.6,3.11l-2.52-2.06
				c-1.99-1.61-4.85-1.49-6.68,0.3l-3.67,3.59c-1.84,1.79-2.04,4.65-0.47,6.69l2.16,2.78c-1.25,2.22-2.24,4.57-2.88,7.05l-3.53,0.37
				c-2.54,0.26-4.49,2.39-4.51,4.95l-0.06,5.1c-0.04,2.56,1.85,4.73,4.39,5.06l3.75,0.48c0.62,2.28,1.51,4.45,2.66,6.51l-2.42,2.98
				c-1.61,2-1.49,4.86,0.3,6.69l3.57,3.65c1.79,1.83,4.65,2.03,6.69,0.46l3-2.32c1.92,1.13,3.93,2.05,6.04,2.73
				c0.21,0.07,0.43,0.14,0.65,0.2l0.4,3.86c0.27,2.54,2.4,4.5,4.96,4.52l5.1,0.06c2.18,0.03,4.08-1.34,4.79-3.32h-3.36v-15.33h25.31
				c-0.11-0.18-0.22-0.35-0.35-0.51l-2.15-2.8c0.42-0.7,0.81-1.41,1.16-2.14c0.79-1.58,1.42-3.22,1.9-4.92l3.35-0.34
				c2.53-0.26,4.49-2.4,4.51-4.96l0.06-5.09C396.94,1039.921,395.05,1037.741,392.51,1037.421z M359.74,1057.711
				c-7.31-0.08-13.17-6.11-13.09-13.42c0.08-7.31,6.1-13.18,13.42-13.1c7.31,0.08,13.17,6.11,13.09,13.42
				C373.08,1051.931,367.06,1057.791,359.74,1057.711z"/>
		</g>
	</g>
	<rect x="526.5" y="984.661" style="fill:#FF93A2;" width="29.74" height="30.4"/>
	<path style="fill:#FF93A2;" d="M251.6,1124.505v29.73h-54.23c-8.21,0-14.87-6.66-14.87-14.87v-29.39h29.74v14.53H251.6z"/>
	<polygon style="fill:#FF93A2;" points="551.05,820.54 509,820.54 469.65,781.2 511.7,781.2 	"/>
	<path style="fill:#FF93A2;" d="M394.113,989.66l-0.57,0.57h-42.97v-16.06h40.77c-0.46,0.96-0.97,1.9-1.5,2.82l4.66,5.9
		C396.113,984.93,395.953,987.83,394.113,989.66z"/>
	<path style="fill:#FF93A2;" d="M479.843,990.23h-31.23c-3.28-3.39-8.01-5.34-13.07-4.9c-4.08,0.34-7.68,2.17-10.32,4.9h-23.72
		c0.41-1.29,0.89-2.55,1.44-3.79l-3.67-3.91c-1.75-1.85-1.83-4.74-0.18-6.69l1.4-1.67h70.76c-0.07,0.83-0.35,1.64-0.85,2.37
		l-2.76,4.16c1.75,2.57,3.16,5.36,4.21,8.3l5.06,0.16C478.023,989.19,479.033,989.59,479.843,990.23z"/>
	<polygon style="fill:#FF93A2;" points="296.805,833.571 263.835,866.541 231.395,866.541 231.395,856.921 254.745,833.571 	"/>
	<path style="fill:#FF93A2;" d="M396.352,1083.041l-3.65,3.56c-1.83,1.8-4.69,1.92-6.69,0.3l-2.82-2.27
		c-2.29,1.25-4.71,2.19-7.25,2.82l-0.46,3.67c-0.05,0.37-0.14,0.73-0.27,1.07h-3.36v-15.33h25.31
		C398.352,1078.831,398.032,1081.391,396.352,1083.041z"/>
	<rect x="253.13" y="1023.871" style="fill:#FF93A2;" width="10.97" height="21.329"/>
	<rect x="224.74" y="1105.241" style="fill:#FF93A2;" width="0" height="2"/>
	<rect x="253.13" y="1088.59" style="fill:#FF93A2;" width="5.485" height="4.065"/>
	<rect x="371.852" y="1065.908" style="fill:#FF93A2;" width="10.302" height="2.667"/>
	<rect x="462.45" y="971.071" style="fill:#FF93A2;" width="26.55" height="1.129"/>
	<rect x="346.649" y="959.2" style="fill:#FF93A2;" width="3.924" height="3.44"/>
	<rect x="420.443" y="996.145" style="fill:#FF93A2;" width="1.333" height="0"/>
	<rect x="359.905" y="1045.2" style="fill:#FF93A2;" width="2.538" height="0"/>
	<rect x="388.42" y="1063.241" style="fill:#FF93A2;" width="3.27" height="9.333"/>
	<rect x="417.776" y="1063.241" style="fill:#FF93A2;" width="2.667" height="4.667"/>
	<rect x="457.776" y="1057.712" style="fill:#FF93A2;" width="15.909" height="14.863"/>
	<rect x="489" y="1019.241" style="fill:#FF93A2;" width="2.7" height="4.63"/>
	<rect x="451.11" y="929.241" style="fill:#FF93A2;" width="6.667" height="11.41"/>
	<rect x="415.11" y="908.156" style="fill:#FF93A2;" width="4" height="7.924"/>
	<rect x="489" y="838.596" style="fill:#FF93A2;" width="6.11" height="7.315"/>
	<rect x="475.725" y="823.241" style="fill:#FF93A2;" width="16.33" height="5.333"/>
	<rect x="510.35" y="838.596" style="fill:#FF93A2;" width="6.76" height="3.658"/>
	<rect x="262.22" y="825.908" style="fill:#FF93A2;" width="19.557" height="2.667"/>
	<rect x="239.11" y="832.301" style="fill:#FF93A2;" width="2" height="9.952"/>
	<rect x="285.86" y="855.541" style="fill:#FF93A2;" width="10.945" height="7.7"/>
	<rect x="565.343" y="831.281" style="fill:#FECAFF;" width="45.501" height="14.63"/>
	<rect x="587.661" y="876.7" style="fill:#FECAFF;" width="5.958" height="6.886"/>
	<rect x="569.661" y="876.7" style="fill:#FECAFF;" width="5.958" height="6.886"/>
	<g>
		<g>
			<path style="fill:#FECAFF;" d="M100.253,603.2l43.03-29C128.353,582.95,113.993,592.63,100.253,603.2z M-63.207,959.2
				c1.01,18.86,3.28,37.49,6.79,55.86L-63.207,959.2z M144.123,603.2h-43.87c-14.46,11.12-28.24,23.21-41.29,36.26
				c-38.5,38.51-68.73,83.35-89.85,133.28c-21.87,51.7-32.96,106.62-32.96,163.22c0,7.78,0.21,15.53,0.64,23.24h25.04
				c-0.45-7.69-0.68-15.44-0.68-23.24C-38.847,796.24,34.203,673.25,144.123,603.2z M105.703,1272.84
				c3.84,2.86,7.73,5.64,11.67,8.36L105.703,1272.84z M-30.867,1015.06h-25.55c5.49,28.78,14.01,56.9,25.53,84.12
				c21.12,49.93,51.35,94.77,89.85,133.28c14.69,14.68,30.28,28.15,46.74,40.38v-12.64h25.6
				C49.293,1203.33-10.207,1116.18-30.867,1015.06z M741.813,772.74c-5.29-12.5-11.15-24.69-17.58-36.54h-28.91
				c28.22,47.82,46.64,102.08,52.46,160h25.14C768.943,853.62,758.523,812.24,741.813,772.74z M651.963,639.46
				c-38.51-38.5-83.35-68.73-133.28-89.85c-51.7-21.87-106.62-32.96-163.22-32.96c-56.6,0-111.52,11.09-163.22,32.96
				c-16.92,7.16-33.26,15.36-48.96,24.59h55.32c48.09-20.94,101.15-32.55,156.86-32.55c130.88,0,247.07,64.1,318.83,162.55h30.69
				C689.613,681.03,671.893,659.4,651.963,639.46z M749.093,959.2c-3.94,67.44-24.9,130.38-58.65,184.58
				c-5.32,8.56-10.97,16.9-16.93,25c-71.81,97.85-187.64,161.49-318.05,161.49c-68.99,0-133.89-17.81-190.36-49.07h-47.73
				c23.4,16.18,48.42,29.92,74.87,41.11c51.7,21.87,106.62,32.96,163.22,32.96c56.6,0,111.52-11.09,163.22-32.96
				c49.93-21.12,94.77-51.35,133.28-89.85c19.63-19.63,37.11-40.91,52.32-63.68c5.45-8.14,10.61-16.48,15.47-25
				c8.2-14.36,15.56-29.24,22.06-44.6c18.86-44.59,29.71-91.58,32.32-139.98H749.093z"/>
		</g>
		<path style="fill:#FECAFF;" d="M-43.642,1015.06h-25.55l-6.79-55.86h25.04C-49.832,978.21-47.372,996.86-43.642,1015.06z"/>
		<path style="fill:#FECAFF;" d="M729.953,720.2h-28.91c-6.49-11.02-13.51-21.7-21.03-32h30.69
			C717.603,698.56,724.013,709.23,729.953,720.2z"/>
		<path style="fill:#FECAFF;" d="M788.268,929.84c0,7.78-0.21,15.53-0.64,23.24h-25.04c0.45-7.69,0.68-15.44,0.68-23.24
			c0-13.42-0.67-26.68-1.99-39.76h25.14C787.648,903.23,788.268,916.49,788.268,929.84z"/>
		<path style="fill:#FECAFF;" d="M774.773,896.2v39.76c0-13.35-0.62-26.61-1.85-39.76H774.773z"/>
		<path style="fill:#FECAFF;" d="M774.133,959.2c0.43-7.71,0.64-15.46,0.64-23.24v23.24H774.133z"/>
		<path style="fill:#FECAFF;" d="M204.053,581.425c-18.98,8.26-37.19,17.97-54.48,29h-43.87l43.03-29H204.053z"/>
		<path style="fill:#FECAFF;" d="M173.823,1270.7h-47.73l-11.67-8.36v-12.64h25.6C150.903,1257.25,162.183,1264.26,173.823,1270.7z"
			/>
		<path style="fill:#FECAFF;" d="M728.103,1194.07c-4.86,8.52-10.02,16.86-15.47,25h-30.77c5.96-8.1,11.61-16.44,16.93-25H728.103z"
			/>
		<path style="fill:#FECAFF;" d="M604.033,1025.535h-26.33c-3.96-10.69-9.57-20.59-16.5-29.39h30.16
			C596.703,1005.305,600.983,1015.165,604.033,1025.535z"/>
		<rect x="570.703" y="1033.2" style="fill:#FECAFF;" width="11.915" height="12"/>
		<rect x="597.266" y="1084.526" style="fill:#FECAFF;" width="15.437" height="8.129"/>
		<rect x="330.573" y="1200.2" style="fill:#FECAFF;" width="33.38" height="6.37"/>
		<rect x="-39.297" y="982.2" style="fill:#FECAFF;" width="12" height="4.93"/>
		<rect x="105.703" y="574.2" style="fill:#FECAFF;" width="19.726" height="11.096"/>
		<rect x="668.703" y="720.2" style="fill:#FECAFF;" width="7" height="34.775"/>
		<rect x="728.103" y="902.2" style="fill:#FECAFF;" width="17.6" height="13.88"/>
		<rect x="717.703" y="953.08" style="fill:#FECAFF;" width="10.4" height="19.12"/>
		<rect x="788.268" y="873.2" style="fill:#FECAFF;" width="20.435" height="7"/>
		<rect x="717.703" y="1162.2" style="fill:#FECAFF;" width="19.2" height="16"/>
		<rect x="668.703" y="1143.95" style="fill:#FECAFF;" width="43.028" height="13.285"/>
		<rect x="604.985" y="1215.2" style="fill:#FECAFF;" width="7.719" height="10"/>
		<rect x="547.703" y="1232.2" style="fill:#FECAFF;" width="23" height="7"/>
		<rect x="100.253" y="1299.2" style="fill:#FECAFF;" width="21.515" height="9"/>
		<rect x="76.703" y="1270.7" style="fill:#FECAFF;" width="10" height="19.5"/>
		<rect x="-87.297" y="1033.2" style="fill:#FECAFF;" width="11.315" height="12"/>
		<rect x="-92.297" y="935.955" style="fill:#FECAFF;" width="16.315" height="11.625"/>
		<rect x="143.283" y="1206.57" style="fill:#FECAFF;" width="11.595" height="8.63"/>
		<rect x="364.863" y="671.2" style="fill:#FECAFF;" width="13.923" height="11"/>
	</g>
	<rect x="578.661" y="876.7" style="fill:#FECAFF;" width="5.958" height="6.886"/>
	<g>
		<g>
			<path style="fill:#FECAFF;" d="M206.74,955.521v136.35H177v-136.35c0-8.21,6.66-14.87,14.87-14.87S206.74,947.311,206.74,955.521
				z"/>
			<path style="fill:#FECAFF;" d="M538.24,955.521v165.74c0,8.21-6.66,14.87-14.87,14.87H246.1v-29.73h262.4v-150.88
				c0-8.21,6.66-14.87,14.87-14.87S538.24,947.311,538.24,955.521z"/>
			<path style="fill:#FECAFF;" d="M211.78,855.541h32.44l-110.49,110.49c-2.91,2.9-6.71,4.36-10.52,4.36
				c-3.8,0-7.61-1.46-10.51-4.36c-5.81-5.8-5.81-15.22,0-21.03l89.46-89.46l9.62-9.62V855.541z"/>
			<path style="fill:#FECAFF;" d="M473.7,816.201h-25.95v16.1l-16.1-16.1l-74.05-74.04l-80.41,80.41h-42.06l111.95-111.95
				c5.81-5.8,15.22-5.81,21.03,0L473.7,816.201z"/>
			<path style="fill:#FECAFF;" d="M602.52,966.031c-5.8,5.8-15.22,5.81-21.02,0L471,855.541h42.05l89.47,89.46
				C608.33,950.811,608.33,960.221,602.52,966.031z"/>
		</g>
		<g>
			<path style="fill:#FECAFF;" d="M374.67,940.281l-7.07-0.83c-0.97-3.68-2.42-7.21-4.28-10.51l4.36-5.51
				c1.61-2.03,1.43-4.93-0.39-6.77l-8.48-8.48c-1.83-1.83-4.73-1.99-6.77-0.38l-5.34,4.23c-3.46-2.03-7.17-3.59-11.06-4.63
				l-0.81-6.92c-0.3-2.57-2.47-4.51-5.05-4.51h-12.03c-2.58,0-4.76,1.94-5.06,4.51l-0.81,6.92c-3.99,1.06-7.79,2.68-11.34,4.79
				l-5.54-4.39c-2.04-1.61-4.94-1.43-6.77,0.38l-8.5,8.5c-1.84,1.84-2,4.74-0.39,6.77l4.64,5.87c-1.86,3.34-3.27,6.91-4.19,10.62
				l-7.42,0.84c-2.58,0.31-4.51,2.48-4.51,5.06v12.03c0,2.58,1.93,4.75,4.51,5.06l7.82,0.9c0.99,3.39,2.36,6.65,4.09,9.72
				l-4.94,6.22c-1.61,2.04-1.43,4.94,0.39,6.77l8.5,8.5c1.83,1.84,4.73,2,6.77,0.39l6.18-4.9c3.19,1.84,6.57,3.27,10.1,4.27
				l0.93,7.96c0.3,2.58,2.47,4.52,5.05,4.52h12.03c2.58,0,4.76-1.94,5.06-4.52l0.89-7.67c3.78-0.99,7.41-2.46,10.82-4.38l5.98,4.74
				c2.04,1.61,4.94,1.43,6.77-0.39l7.93-7.93h-42.97v-16.06c-10.96,0-19.89-8.93-19.89-19.89c0-10.96,8.93-19.89,19.89-19.89
				c10.96,0,19.89,8.93,19.89,19.89c0,10.96-8.93,19.89-19.89,19.89h40.77c1.23-2.51,2.23-5.12,2.96-7.82l7.17-0.83
				c2.58-0.3,4.51-2.48,4.51-5.05v-12.03C379.18,942.761,377.25,940.581,374.67,940.281z"/>
			<path style="fill:#FECAFF;" d="M454.96,990.671c-0.12-1.44-0.85-2.71-1.92-3.54h-31.23c2.52,2.6,4.2,6.06,4.52,9.95
				c0.77,8.95-5.9,16.84-14.85,17.59c-8.95,0.77-16.84-5.9-17.59-14.85c-0.42-4.87,1.37-9.43,4.53-12.69H374.7
				c-0.54,1.68-0.97,3.4-1.26,5.15l-5.24,1.07c-2.5,0.51-4.23,2.82-4.03,5.36l0.71,8.28c0.22,2.54,2.29,4.54,4.85,4.62l5.66,0.18
				c1.03,2.7,2.38,5.26,4.01,7.66l-3.16,4.77c-1.41,2.14-1.01,4.98,0.95,6.63l6.34,5.36c1.96,1.65,4.84,1.57,6.69-0.18l4.15-3.89
				c2.72,1.27,5.59,2.22,8.53,2.78l1.15,5.68c0.5,2.5,2.82,4.23,5.36,4.03l8.28-0.7c2.54-0.23,4.53-2.3,4.61-4.86l0.18-5.56
				c3.02-1.07,5.89-2.52,8.53-4.31l4.57,3.02c2.13,1.41,4.98,1.01,6.63-0.95l5.36-6.34c1.65-1.96,1.57-4.84-0.18-6.69l-3.69-3.91
				c1.35-2.86,2.34-5.89,2.9-8.99l5.04-1.03c2.5-0.5,4.23-2.82,4.03-5.36L454.96,990.671z M442.69,966.801l-6.35-5.36
				c-1.95-1.66-4.83-1.58-6.68,0.18l-3.51,3.28c-2.96-1.43-6.11-2.44-9.35-3.02l-0.99-4.84c-0.5-2.49-2.82-4.23-5.36-4.03
				l-8.28,0.71c-2.54,0.22-4.53,2.3-4.61,4.86l-0.16,4.91c-3.19,1.15-6.19,2.72-8.93,4.7l-4.19-2.78c-2.14-1.41-4.98-1.01-6.63,0.94
				l-3.96,4.72h70.76C444.59,969.491,443.98,967.881,442.69,966.801z"/>
			<path style="fill:#FECAFF;" d="M374.51,1037.421l-3.27-0.42c-0.62-2.46-1.55-4.84-2.76-7.06l2.04-2.5
				c1.61-1.99,1.49-4.85-0.3-6.68l-3.57-3.65c-1.79-1.84-4.66-2.04-6.69-0.47l-2.44,1.88c-2.3-1.39-4.75-2.46-7.33-3.19l-0.33-3.16
				c-0.26-2.54-2.39-4.49-4.95-4.51l-5.1-0.06c-2.56-0.04-4.73,1.85-5.06,4.39l-0.4,3.14c-2.66,0.69-5.22,1.74-7.6,3.11l-2.52-2.06
				c-1.99-1.61-4.85-1.49-6.68,0.3l-3.67,3.59c-1.84,1.79-2.04,4.65-0.47,6.69l2.16,2.78c-1.25,2.22-2.24,4.57-2.88,7.05l-3.53,0.37
				c-2.54,0.26-4.49,2.39-4.51,4.95l-0.06,5.1c-0.04,2.56,1.85,4.73,4.39,5.06l3.75,0.48c0.62,2.28,1.51,4.45,2.66,6.51l-2.42,2.98
				c-1.61,2-1.49,4.86,0.3,6.69l3.57,3.65c1.79,1.83,4.65,2.03,6.69,0.46l3-2.32c1.92,1.13,3.93,2.05,6.04,2.73
				c0.21,0.07,0.43,0.14,0.65,0.2l0.4,3.86c0.27,2.54,2.4,4.5,4.96,4.52l5.1,0.06c2.18,0.03,4.08-1.34,4.79-3.32h-3.36v-15.33h25.31
				c-0.11-0.18-0.22-0.35-0.35-0.51l-2.15-2.8c0.42-0.7,0.81-1.41,1.16-2.14c0.79-1.58,1.42-3.22,1.9-4.92l3.35-0.34
				c2.53-0.26,4.49-2.4,4.51-4.96l0.06-5.09C378.94,1039.921,377.05,1037.741,374.51,1037.421z M341.74,1057.711
				c-7.31-0.08-13.17-6.11-13.09-13.42c0.08-7.31,6.1-13.18,13.42-13.1c7.31,0.08,13.17,6.11,13.09,13.42
				C355.08,1051.931,349.06,1057.791,341.74,1057.711z"/>
		</g>
	</g>
	<rect x="508.5" y="984.661" style="fill:#FECAFF;" width="29.74" height="30.4"/>
	<path style="fill:#FECAFF;" d="M233.6,1124.505v29.73h-54.23c-8.21,0-14.87-6.66-14.87-14.87v-29.39h29.74v14.53H233.6z"/>
	<polygon style="fill:#FECAFF;" points="533.05,820.54 491,820.54 451.65,781.2 493.7,781.2 	"/>
	<path style="fill:#FECAFF;" d="M376.113,989.66l-0.57,0.57h-42.97v-16.06h40.77c-0.46,0.96-0.97,1.9-1.5,2.82l4.66,5.9
		C378.113,984.93,377.953,987.83,376.113,989.66z"/>
	<path style="fill:#FECAFF;" d="M461.843,990.23h-31.23c-3.28-3.39-8.01-5.34-13.07-4.9c-4.08,0.34-7.68,2.17-10.32,4.9h-23.72
		c0.41-1.29,0.89-2.55,1.44-3.79l-3.67-3.91c-1.75-1.85-1.83-4.74-0.18-6.69l1.4-1.67h70.76c-0.07,0.83-0.35,1.64-0.85,2.37
		l-2.76,4.16c1.75,2.57,3.16,5.36,4.21,8.3l5.06,0.16C460.023,989.19,461.033,989.59,461.843,990.23z"/>
	<polygon style="fill:#FECAFF;" points="278.805,833.571 245.835,866.541 213.395,866.541 213.395,856.921 236.745,833.571 	"/>
	<path style="fill:#FECAFF;" d="M378.352,1083.041l-3.65,3.56c-1.83,1.8-4.69,1.92-6.69,0.3l-2.82-2.27
		c-2.29,1.25-4.71,2.19-7.25,2.82l-0.46,3.67c-0.05,0.37-0.14,0.73-0.27,1.07h-3.36v-15.33h25.31
		C380.352,1078.831,380.032,1081.391,378.352,1083.041z"/>
	<rect x="235.13" y="1023.871" style="fill:#FECAFF;" width="10.97" height="21.329"/>
	<rect x="206.74" y="1105.241" style="fill:#FECAFF;" width="0" height="2"/>
	<rect x="235.13" y="1088.59" style="fill:#FECAFF;" width="5.485" height="4.065"/>
	<rect x="353.852" y="1065.908" style="fill:#FECAFF;" width="10.302" height="2.667"/>
	<rect x="444.45" y="971.071" style="fill:#FECAFF;" width="26.55" height="1.129"/>
	<rect x="328.649" y="959.2" style="fill:#FECAFF;" width="3.924" height="3.44"/>
	<rect x="402.443" y="996.145" style="fill:#FECAFF;" width="1.333" height="0"/>
	<rect x="341.905" y="1045.2" style="fill:#FECAFF;" width="2.538" height="0"/>
	<rect x="370.42" y="1063.241" style="fill:#FECAFF;" width="3.27" height="9.333"/>
	<rect x="399.776" y="1063.241" style="fill:#FECAFF;" width="2.667" height="4.667"/>
	<rect x="439.776" y="1057.712" style="fill:#FECAFF;" width="15.909" height="14.863"/>
	<rect x="471" y="1019.241" style="fill:#FECAFF;" width="2.7" height="4.63"/>
	<rect x="433.11" y="929.241" style="fill:#FECAFF;" width="6.667" height="11.41"/>
	<rect x="397.11" y="908.156" style="fill:#FECAFF;" width="4" height="7.924"/>
	<rect x="471" y="838.596" style="fill:#FECAFF;" width="6.11" height="7.315"/>
	<rect x="457.725" y="823.241" style="fill:#FECAFF;" width="16.33" height="5.333"/>
	<rect x="492.35" y="838.596" style="fill:#FECAFF;" width="6.76" height="3.658"/>
	<rect x="244.22" y="825.908" style="fill:#FECAFF;" width="19.557" height="2.667"/>
	<rect x="221.11" y="832.301" style="fill:#FECAFF;" width="2" height="9.952"/>
	<rect x="267.86" y="855.541" style="fill:#FECAFF;" width="10.945" height="7.7"/>
	<rect x="572.343" y="831.281" style="fill:#FF93A2;" width="45.501" height="14.63"/>
	<rect x="594.661" y="876.7" style="fill:#FF93A2;" width="5.958" height="6.886"/>
	<rect x="576.661" y="876.7" style="fill:#FECAFF;" width="5.958" height="6.886"/>
	<g>
		<g>
			<path style="fill:#C8000F;" d="M109.253,603.2l43.03-29C137.353,582.95,122.993,592.63,109.253,603.2z M-54.207,959.2
				c1.01,18.86,3.28,37.49,6.79,55.86L-54.207,959.2z M153.123,603.2h-43.87c-14.46,11.12-28.24,23.21-41.29,36.26
				c-38.5,38.51-68.73,83.35-89.85,133.28c-21.87,51.7-32.96,106.62-32.96,163.22c0,7.78,0.21,15.53,0.64,23.24h25.04
				c-0.45-7.69-0.68-15.44-0.68-23.24C-29.847,796.24,43.203,673.25,153.123,603.2z M114.703,1272.84
				c3.84,2.86,7.73,5.64,11.67,8.36L114.703,1272.84z M-21.867,1015.06h-25.55c5.49,28.78,14.01,56.9,25.53,84.12
				c21.12,49.93,51.35,94.77,89.85,133.28c14.69,14.68,30.28,28.15,46.74,40.38v-12.64h25.6
				C58.293,1203.33-1.207,1116.18-21.867,1015.06z M750.813,772.74c-5.29-12.5-11.15-24.69-17.58-36.54h-28.91
				c28.22,47.82,46.64,102.08,52.46,160h25.14C777.943,853.62,767.523,812.24,750.813,772.74z M660.963,639.46
				c-38.51-38.5-83.35-68.73-133.28-89.85c-51.7-21.87-106.62-32.96-163.22-32.96c-56.6,0-111.52,11.09-163.22,32.96
				c-16.92,7.16-33.26,15.36-48.96,24.59h55.32c48.09-20.94,101.15-32.55,156.86-32.55c130.88,0,247.07,64.1,318.83,162.55h30.69
				C698.613,681.03,680.893,659.4,660.963,639.46z M758.093,959.2c-3.94,67.44-24.9,130.38-58.65,184.58
				c-5.32,8.56-10.97,16.9-16.93,25c-71.81,97.85-187.64,161.49-318.05,161.49c-68.99,0-133.89-17.81-190.36-49.07h-47.73
				c23.4,16.18,48.42,29.92,74.87,41.11c51.7,21.87,106.62,32.96,163.22,32.96c56.6,0,111.52-11.09,163.22-32.96
				c49.93-21.12,94.77-51.35,133.28-89.85c19.63-19.63,37.11-40.91,52.32-63.68c5.45-8.14,10.61-16.48,15.47-25
				c8.2-14.36,15.56-29.24,22.06-44.6c18.86-44.59,29.71-91.58,32.32-139.98H758.093z"/>
		</g>
		<path style="fill:#C8000F;" d="M-34.642,1015.06h-25.55l-6.79-55.86h25.04C-40.832,978.21-38.372,996.86-34.642,1015.06z"/>
		<path style="fill:#C8000F;" d="M738.953,720.2h-28.91c-6.49-11.02-13.51-21.7-21.03-32h30.69
			C726.603,698.56,733.013,709.23,738.953,720.2z"/>
		<path style="fill:#C8000F;" d="M797.268,929.84c0,7.78-0.21,15.53-0.64,23.24h-25.04c0.45-7.69,0.68-15.44,0.68-23.24
			c0-13.42-0.67-26.68-1.99-39.76h25.14C796.648,903.23,797.268,916.49,797.268,929.84z"/>
		<path style="fill:#C8000F;" d="M783.773,896.2v39.76c0-13.35-0.62-26.61-1.85-39.76H783.773z"/>
		<path style="fill:#C8000F;" d="M783.133,959.2c0.43-7.71,0.64-15.46,0.64-23.24v23.24H783.133z"/>
		<path style="fill:#C8000F;" d="M213.053,581.425c-18.98,8.26-37.19,17.97-54.48,29h-43.87l43.03-29H213.053z"/>
		<path style="fill:#C8000F;" d="M182.823,1270.7h-47.73l-11.67-8.36v-12.64h25.6C159.903,1257.25,171.183,1264.26,182.823,1270.7z"
			/>
		<path style="fill:#C8000F;" d="M737.103,1194.07c-4.86,8.52-10.02,16.86-15.47,25h-30.77c5.96-8.1,11.61-16.44,16.93-25H737.103z"
			/>
		<path style="fill:#C8000F;" d="M613.033,1025.535h-26.33c-3.96-10.69-9.57-20.59-16.5-29.39h30.16
			C605.703,1005.305,609.983,1015.165,613.033,1025.535z"/>
		<rect x="579.703" y="1033.2" style="fill:#C8000F;" width="11.915" height="12"/>
		<rect x="606.266" y="1084.526" style="fill:#C8000F;" width="15.437" height="8.129"/>
		<rect x="339.573" y="1200.2" style="fill:#C8000F;" width="33.38" height="6.37"/>
		<rect x="-30.297" y="982.2" style="fill:#C8000F;" width="12" height="4.93"/>
		<rect x="114.703" y="574.2" style="fill:#C8000F;" width="19.726" height="11.096"/>
		<rect x="677.703" y="720.2" style="fill:#C8000F;" width="7" height="34.775"/>
		<rect x="737.103" y="902.2" style="fill:#C8000F;" width="17.6" height="13.88"/>
		<rect x="726.703" y="953.08" style="fill:#C8000F;" width="10.4" height="19.12"/>
		<rect x="797.268" y="873.2" style="fill:#C8000F;" width="20.435" height="7"/>
		<rect x="726.703" y="1162.2" style="fill:#C8000F;" width="19.2" height="16"/>
		<rect x="677.703" y="1143.95" style="fill:#C8000F;" width="43.028" height="13.285"/>
		<rect x="613.985" y="1215.2" style="fill:#C8000F;" width="7.719" height="10"/>
		<rect x="556.703" y="1232.2" style="fill:#C8000F;" width="23" height="7"/>
		<rect x="109.253" y="1299.2" style="fill:#C8000F;" width="21.515" height="9"/>
		<rect x="85.703" y="1270.7" style="fill:#C8000F;" width="10" height="19.5"/>
		<rect x="-78.297" y="1033.2" style="fill:#C8000F;" width="11.315" height="12"/>
		<rect x="-83.297" y="935.955" style="fill:#C8000F;" width="16.315" height="11.625"/>
		<rect x="152.283" y="1206.57" style="fill:#C8000F;" width="11.595" height="8.63"/>
		<rect x="373.863" y="671.2" style="fill:#C8000F;" width="13.923" height="11"/>
	</g>
	<rect x="585.661" y="876.7" style="fill:#C8000F;" width="5.958" height="6.886"/>
	<g>
		<g>
			<path style="fill:#C8000F;" d="M213.74,955.521v136.35H184v-136.35c0-8.21,6.66-14.87,14.87-14.87S213.74,947.311,213.74,955.521
				z"/>
			<path style="fill:#C8000F;" d="M545.24,955.521v165.74c0,8.21-6.66,14.87-14.87,14.87H253.1v-29.73h262.4v-150.88
				c0-8.21,6.66-14.87,14.87-14.87S545.24,947.311,545.24,955.521z"/>
			<path style="fill:#C8000F;" d="M218.78,855.541h32.44l-110.49,110.49c-2.91,2.9-6.71,4.36-10.52,4.36
				c-3.8,0-7.61-1.46-10.51-4.36c-5.81-5.8-5.81-15.22,0-21.03l89.46-89.46l9.62-9.62V855.541z"/>
			<path style="fill:#C8000F;" d="M480.7,816.201h-25.95v16.1l-16.1-16.1l-74.05-74.04l-80.41,80.41h-42.06l111.95-111.95
				c5.81-5.8,15.22-5.81,21.03,0L480.7,816.201z"/>
			<path style="fill:#C8000F;" d="M609.52,966.031c-5.8,5.8-15.22,5.81-21.02,0L478,855.541h42.05l89.47,89.46
				C615.33,950.811,615.33,960.221,609.52,966.031z"/>
		</g>
		<g>
			<path style="fill:#C8000F;" d="M381.67,940.281l-7.07-0.83c-0.97-3.68-2.42-7.21-4.28-10.51l4.36-5.51
				c1.61-2.03,1.43-4.93-0.39-6.77l-8.48-8.48c-1.83-1.83-4.73-1.99-6.77-0.38l-5.34,4.23c-3.46-2.03-7.17-3.59-11.06-4.63
				l-0.81-6.92c-0.3-2.57-2.47-4.51-5.05-4.51h-12.03c-2.58,0-4.76,1.94-5.06,4.51l-0.81,6.92c-3.99,1.06-7.79,2.68-11.34,4.79
				l-5.54-4.39c-2.04-1.61-4.94-1.43-6.77,0.38l-8.5,8.5c-1.84,1.84-2,4.74-0.39,6.77l4.64,5.87c-1.86,3.34-3.27,6.91-4.19,10.62
				l-7.42,0.84c-2.58,0.31-4.51,2.48-4.51,5.06v12.03c0,2.58,1.93,4.75,4.51,5.06l7.82,0.9c0.99,3.39,2.36,6.65,4.09,9.72
				l-4.94,6.22c-1.61,2.04-1.43,4.94,0.39,6.77l8.5,8.5c1.83,1.84,4.73,2,6.77,0.39l6.18-4.9c3.19,1.84,6.57,3.27,10.1,4.27
				l0.93,7.96c0.3,2.58,2.47,4.52,5.05,4.52h12.03c2.58,0,4.76-1.94,5.06-4.52l0.89-7.67c3.78-0.99,7.41-2.46,10.82-4.38l5.98,4.74
				c2.04,1.61,4.94,1.43,6.77-0.39l7.93-7.93h-42.97v-16.06c-10.96,0-19.89-8.93-19.89-19.89c0-10.96,8.93-19.89,19.89-19.89
				c10.96,0,19.89,8.93,19.89,19.89c0,10.96-8.93,19.89-19.89,19.89h40.77c1.23-2.51,2.23-5.12,2.96-7.82l7.17-0.83
				c2.58-0.3,4.51-2.48,4.51-5.05v-12.03C386.18,942.761,384.25,940.581,381.67,940.281z"/>
			<path style="fill:#C8000F;" d="M461.96,990.671c-0.12-1.44-0.85-2.71-1.92-3.54h-31.23c2.52,2.6,4.2,6.06,4.52,9.95
				c0.77,8.95-5.9,16.84-14.85,17.59c-8.95,0.77-16.84-5.9-17.59-14.85c-0.42-4.87,1.37-9.43,4.53-12.69H381.7
				c-0.54,1.68-0.97,3.4-1.26,5.15l-5.24,1.07c-2.5,0.51-4.23,2.82-4.03,5.36l0.71,8.28c0.22,2.54,2.29,4.54,4.85,4.62l5.66,0.18
				c1.03,2.7,2.38,5.26,4.01,7.66l-3.16,4.77c-1.41,2.14-1.01,4.98,0.95,6.63l6.34,5.36c1.96,1.65,4.84,1.57,6.69-0.18l4.15-3.89
				c2.72,1.27,5.59,2.22,8.53,2.78l1.15,5.68c0.5,2.5,2.82,4.23,5.36,4.03l8.28-0.7c2.54-0.23,4.53-2.3,4.61-4.86l0.18-5.56
				c3.02-1.07,5.89-2.52,8.53-4.31l4.57,3.02c2.13,1.41,4.98,1.01,6.63-0.95l5.36-6.34c1.65-1.96,1.57-4.84-0.18-6.69l-3.69-3.91
				c1.35-2.86,2.34-5.89,2.9-8.99l5.04-1.03c2.5-0.5,4.23-2.82,4.03-5.36L461.96,990.671z M449.69,966.801l-6.35-5.36
				c-1.95-1.66-4.83-1.58-6.68,0.18l-3.51,3.28c-2.96-1.43-6.11-2.44-9.35-3.02l-0.99-4.84c-0.5-2.49-2.82-4.23-5.36-4.03
				l-8.28,0.71c-2.54,0.22-4.53,2.3-4.61,4.86l-0.16,4.91c-3.19,1.15-6.19,2.72-8.93,4.7l-4.19-2.78c-2.14-1.41-4.98-1.01-6.63,0.94
				l-3.96,4.72h70.76C451.59,969.491,450.98,967.881,449.69,966.801z"/>
			<path style="fill:#C8000F;" d="M381.51,1037.421l-3.27-0.42c-0.62-2.46-1.55-4.84-2.76-7.06l2.04-2.5
				c1.61-1.99,1.49-4.85-0.3-6.68l-3.57-3.65c-1.79-1.84-4.66-2.04-6.69-0.47l-2.44,1.88c-2.3-1.39-4.75-2.46-7.33-3.19l-0.33-3.16
				c-0.26-2.54-2.39-4.49-4.95-4.51l-5.1-0.06c-2.56-0.04-4.73,1.85-5.06,4.39l-0.4,3.14c-2.66,0.69-5.22,1.74-7.6,3.11l-2.52-2.06
				c-1.99-1.61-4.85-1.49-6.68,0.3l-3.67,3.59c-1.84,1.79-2.04,4.65-0.47,6.69l2.16,2.78c-1.25,2.22-2.24,4.57-2.88,7.05l-3.53,0.37
				c-2.54,0.26-4.49,2.39-4.51,4.95l-0.06,5.1c-0.04,2.56,1.85,4.73,4.39,5.06l3.75,0.48c0.62,2.28,1.51,4.45,2.66,6.51l-2.42,2.98
				c-1.61,2-1.49,4.86,0.3,6.69l3.57,3.65c1.79,1.83,4.65,2.03,6.69,0.46l3-2.32c1.92,1.13,3.93,2.05,6.04,2.73
				c0.21,0.07,0.43,0.14,0.65,0.2l0.4,3.86c0.27,2.54,2.4,4.5,4.96,4.52l5.1,0.06c2.18,0.03,4.08-1.34,4.79-3.32h-3.36v-15.33h25.31
				c-0.11-0.18-0.22-0.35-0.35-0.51l-2.15-2.8c0.42-0.7,0.81-1.41,1.16-2.14c0.79-1.58,1.42-3.22,1.9-4.92l3.35-0.34
				c2.53-0.26,4.49-2.4,4.51-4.96l0.06-5.09C385.94,1039.921,384.05,1037.741,381.51,1037.421z M348.74,1057.711
				c-7.31-0.08-13.17-6.11-13.09-13.42c0.08-7.31,6.1-13.18,13.42-13.1c7.31,0.08,13.17,6.11,13.09,13.42
				C362.08,1051.931,356.06,1057.791,348.74,1057.711z"/>
		</g>
	</g>
	<rect x="515.5" y="984.661" style="fill:#C8000F;" width="29.74" height="30.4"/>
	<path style="fill:#C8000F;" d="M240.6,1124.505v29.73h-54.23c-8.21,0-14.87-6.66-14.87-14.87v-29.39h29.74v14.53H240.6z"/>
	<polygon style="fill:#C8000F;" points="540.05,820.54 498,820.54 458.65,781.2 500.7,781.2 	"/>
	<path style="fill:#C8000F;" d="M383.113,989.66l-0.57,0.57h-42.97v-16.06h40.77c-0.46,0.96-0.97,1.9-1.5,2.82l4.66,5.9
		C385.113,984.93,384.953,987.83,383.113,989.66z"/>
	<path style="fill:#C8000F;" d="M468.843,990.23h-31.23c-3.28-3.39-8.01-5.34-13.07-4.9c-4.08,0.34-7.68,2.17-10.32,4.9h-23.72
		c0.41-1.29,0.89-2.55,1.44-3.79l-3.67-3.91c-1.75-1.85-1.83-4.74-0.18-6.69l1.4-1.67h70.76c-0.07,0.83-0.35,1.64-0.85,2.37
		l-2.76,4.16c1.75,2.57,3.16,5.36,4.21,8.3l5.06,0.16C467.023,989.19,468.033,989.59,468.843,990.23z"/>
	<polygon style="fill:#C8000F;" points="285.805,833.571 252.835,866.541 220.395,866.541 220.395,856.921 243.745,833.571 	"/>
	<path style="fill:#C8000F;" d="M385.352,1083.041l-3.65,3.56c-1.83,1.8-4.69,1.92-6.69,0.3l-2.82-2.27
		c-2.29,1.25-4.71,2.19-7.25,2.82l-0.46,3.67c-0.05,0.37-0.14,0.73-0.27,1.07h-3.36v-15.33h25.31
		C387.352,1078.831,387.032,1081.391,385.352,1083.041z"/>
	<rect x="242.13" y="1023.871" style="fill:#C8000F;" width="10.97" height="21.329"/>
	<rect x="213.74" y="1105.241" style="fill:#C8000F;" width="0" height="2"/>
	<rect x="242.13" y="1088.59" style="fill:#C8000F;" width="5.485" height="4.065"/>
	<rect x="360.852" y="1065.908" style="fill:#C8000F;" width="10.302" height="2.667"/>
	<rect x="451.45" y="971.071" style="fill:#C8000F;" width="26.55" height="1.129"/>
	<rect x="335.649" y="959.2" style="fill:#C8000F;" width="3.924" height="3.44"/>
	<rect x="409.443" y="996.145" style="fill:#C8000F;" width="1.333" height="0"/>
	<rect x="348.905" y="1045.2" style="fill:#C8000F;" width="2.538" height="0"/>
	<rect x="377.42" y="1063.241" style="fill:#C8000F;" width="3.27" height="9.333"/>
	<rect x="406.776" y="1063.241" style="fill:#C8000F;" width="2.667" height="4.667"/>
	<rect x="446.776" y="1057.712" style="fill:#C8000F;" width="15.909" height="14.863"/>
	<rect x="478" y="1019.241" style="fill:#C8000F;" width="2.7" height="4.63"/>
	<rect x="440.11" y="929.241" style="fill:#C8000F;" width="6.667" height="11.41"/>
	<rect x="404.11" y="908.156" style="fill:#C8000F;" width="4" height="7.924"/>
	<rect x="478" y="838.596" style="fill:#C8000F;" width="6.11" height="7.315"/>
	<rect x="464.725" y="823.241" style="fill:#C8000F;" width="16.33" height="5.333"/>
	<rect x="499.35" y="838.596" style="fill:#C8000F;" width="6.76" height="3.658"/>
	<rect x="251.22" y="825.908" style="fill:#C8000F;" width="19.557" height="2.667"/>
	<rect x="228.11" y="832.301" style="fill:#C8000F;" width="2" height="9.952"/>
	<rect x="274.86" y="855.541" style="fill:#C8000F;" width="10.945" height="7.7"/>
</g>
</svg>
