<?xml version="1.0" encoding="iso-8859-1"?>
<!-- Generator: Adobe Illustrator 19.0.0, SVG Export Plug-In . SVG Version: 6.00 Build 0)  -->
<svg version="1.1" id="Layer_1" xmlns="http://www.w3.org/2000/svg" xmlns:xlink="http://www.w3.org/1999/xlink" x="0px" y="0px"
	 viewBox="-128 490.76 941.24 941.24" style="enable-background:new -128 490.76 941.24 941.24;" xml:space="preserve">
<title>Mega_event_icon</title>
<g>
	<g>
		<g>
			<path style="fill:#FF93A2;" d="M92.05,632.858l43.03-29C120.15,612.608,105.79,622.288,92.05,632.858z M-71.41,988.858
				c1.01,18.86,3.28,37.49,6.79,55.86L-71.41,988.858z M135.92,632.858H92.05c-14.46,11.12-28.24,23.21-41.29,36.26
				c-38.5,38.51-68.73,83.35-89.85,133.28c-21.87,51.7-32.96,106.62-32.96,163.22c0,7.78,0.21,15.53,0.64,23.24h25.04
				c-0.45-7.69-0.68-15.44-0.68-23.24C-47.05,825.898,26,702.908,135.92,632.858z M97.5,1302.498c3.84,2.86,7.73,5.64,11.67,8.36
				L97.5,1302.498z M-39.07,1044.718h-25.55c5.49,28.78,14.01,56.9,25.53,84.12c21.12,49.93,51.35,94.77,89.85,133.28
				c14.69,14.68,30.28,28.15,46.74,40.38v-12.64h25.6C41.09,1232.988-18.41,1145.838-39.07,1044.718z M733.61,802.398
				c-5.29-12.5-11.15-24.69-17.58-36.54h-28.91c28.22,47.82,46.64,102.08,52.46,160h25.14
				C760.74,883.278,750.32,841.898,733.61,802.398z M643.76,669.118c-38.51-38.5-83.35-68.73-133.28-89.85
				c-51.7-21.87-106.62-32.96-163.22-32.96c-56.6,0-111.52,11.09-163.22,32.96c-16.92,7.16-33.26,15.36-48.96,24.59h55.32
				c48.09-20.94,101.15-32.55,156.86-32.55c130.88,0,247.07,64.1,318.83,162.55h30.69C681.41,710.688,663.69,689.058,643.76,669.118
				z M740.89,988.858c-3.94,67.44-24.9,130.38-58.65,184.58c-5.32,8.56-10.97,16.9-16.93,25
				c-71.81,97.85-187.64,161.49-318.05,161.49c-68.99,0-133.89-17.81-190.36-49.07h-47.73c23.4,16.18,48.42,29.92,74.87,41.11
				c51.7,21.87,106.62,32.96,163.22,32.96c56.6,0,111.52-11.09,163.22-32.96c49.93-21.12,94.77-51.35,133.28-89.85
				c19.63-19.63,37.11-40.91,52.32-63.68c5.45-8.14,10.61-16.48,15.47-25c8.2-14.36,15.56-29.24,22.06-44.6
				c18.86-44.59,29.71-91.58,32.32-139.98H740.89z"/>
		</g>
		<path style="fill:#FF93A2;" d="M-51.845,1044.718h-25.55l-6.79-55.86h25.04C-58.035,1007.868-55.575,1026.518-51.845,1044.718z"/>
		<path style="fill:#FF93A2;" d="M721.75,749.858h-28.91c-6.49-11.02-13.51-21.7-21.03-32h30.69
			C709.4,728.218,715.81,738.888,721.75,749.858z"/>
		<path style="fill:#FF93A2;" d="M780.065,959.498c0,7.78-0.21,15.53-0.64,23.24h-25.04c0.45-7.69,0.68-15.44,0.68-23.24
			c0-13.42-0.67-26.68-1.99-39.76h25.14C779.445,932.888,780.065,946.148,780.065,959.498z"/>
		<path style="fill:#FF93A2;" d="M766.57,925.858v39.76c0-13.35-0.62-26.61-1.85-39.76H766.57z"/>
		<path style="fill:#FF93A2;" d="M765.93,988.858c0.43-7.71,0.64-15.46,0.64-23.24v23.24H765.93z"/>
		<path style="fill:#FF93A2;" d="M195.85,611.083c-18.98,8.26-37.19,17.97-54.48,29H97.5l43.03-29H195.85z"/>
		<path style="fill:#FF93A2;" d="M165.62,1300.358h-47.73l-11.67-8.36v-12.64h25.6C142.7,1286.908,153.98,1293.918,165.62,1300.358z
			"/>
		<path style="fill:#FF93A2;" d="M719.9,1223.728c-4.86,8.52-10.02,16.86-15.47,25h-30.77c5.96-8.1,11.61-16.44,16.93-25H719.9z"/>
		<path style="fill:#FF93A2;" d="M595.83,1055.193H569.5c-3.96-10.69-9.57-20.59-16.5-29.39h30.16
			C588.5,1034.963,592.78,1044.823,595.83,1055.193z"/>
		<rect x="562.5" y="1062.858" style="fill:#FF93A2;" width="11.915" height="12"/>
		<rect x="589.063" y="1114.184" style="fill:#FF93A2;" width="15.437" height="8.129"/>
		<rect x="322.37" y="1229.858" style="fill:#FF93A2;" width="33.38" height="6.37"/>
		<rect x="-47.5" y="1011.858" style="fill:#FF93A2;" width="12" height="4.93"/>
		<rect x="97.5" y="603.858" style="fill:#FF93A2;" width="19.726" height="11.096"/>
		<rect x="660.5" y="749.858" style="fill:#FF93A2;" width="7" height="34.775"/>
		<rect x="719.9" y="931.858" style="fill:#FF93A2;" width="17.6" height="13.88"/>
		<rect x="709.5" y="982.738" style="fill:#FF93A2;" width="10.4" height="19.12"/>
		<rect x="780.065" y="902.858" style="fill:#FF93A2;" width="20.435" height="7"/>
		<rect x="709.5" y="1191.858" style="fill:#FF93A2;" width="19.2" height="16"/>
		<rect x="660.5" y="1173.608" style="fill:#FF93A2;" width="43.028" height="13.285"/>
		<rect x="596.781" y="1244.858" style="fill:#FF93A2;" width="7.719" height="10"/>
		<rect x="539.5" y="1261.858" style="fill:#FF93A2;" width="23" height="7"/>
		<rect x="92.05" y="1328.858" style="fill:#FF93A2;" width="21.515" height="9"/>
		<rect x="68.5" y="1300.358" style="fill:#FF93A2;" width="10" height="19.5"/>
		<rect x="-95.5" y="1062.858" style="fill:#FF93A2;" width="11.315" height="12"/>
		<rect x="-100.5" y="965.613" style="fill:#FF93A2;" width="16.315" height="11.625"/>
		<rect x="135.08" y="1236.228" style="fill:#FF93A2;" width="11.595" height="8.63"/>
		<rect x="356.66" y="700.858" style="fill:#FF93A2;" width="13.923" height="11"/>
	</g>
	<g>
		<g>
			<path style="fill:#FF93A2;" d="M551.837,832.307c3.37,0,6.09-2.72,6.09-6.09v-53.8c0-3.37-2.72-6.09-6.09-6.09h-141.88v-7.37
				c0-3.36-2.72-6.09-6.09-6.09h-107.61c-3.37,0-6.09,2.73-6.09,6.09v7.37h-73.12c-3.37,0-6.09,2.72-6.09,6.09
				c0,3.36,2.72,6.09,6.09,6.09h73.12v7.36c0,3.36,2.72,6.09,6.09,6.09h107.61c3.37,0,6.09-2.73,6.09-6.09v-7.37l135.79,0.01v41.62
				h-391.37v-41.62h38.42c3.36,0,6.09-2.73,6.09-6.09c0-3.37-2.73-6.09-6.09-6.09h-44.51c-3.37,0-6.09,2.72-6.09,6.09v53.8
				c0,3.37,2.72,6.09,6.09,6.09h7.36v81.33c0,0.01,0,0.01,0,0.02v59.96h12.18v-38.44l13.66,22.2l-9.99,16.24h14.3l2.84-4.62
				l2.84,4.62l4.31,7l8.86,14.39h-8.86v12.18h27.12v74.6c0,0.01,0,0.01,0,0.02v9.49h12.18v-3.4h229.95v14.72h-200.07v12.18h200.07
				v26.91h12.18v-134.52h61.15c0,0,0.01,0,0.02,0s0.02,0,0.02,0h7.34v134.52h12.18v-140.61c0-3.37-2.72-6.09-6.09-6.09h-7.36v-162.7
				H551.837z M397.777,779.777h-95.43v-14.73h95.43V779.777z M527.487,832.307l-16,26.01l-16.01-26.01H527.487z M495.477,907.567
				l16.01-26.01l16,26.01H495.477z M527.487,919.747l-16,26.01l-16.01-26.01H527.487z M490.667,847.737l13.67,22.2l-13.67,22.2
				V847.737z M204.647,832.307l-16.01,26.01l-16-26.01H204.647z M204.647,907.567h-32.01l16-26.01L204.647,907.567z
				 M167.827,847.737l13.66,22.2l-13.66,22.2V847.737z M188.637,945.757l-16-26.01h32.01L188.637,945.757z M209.457,979.577
				l-13.67-22.2l13.67-22.21V979.577z M209.457,892.147l-13.67-22.21l13.67-22.2V892.147z M344.587,1075.717l5.47-5.48l5.48,5.48
				H344.587z M478.487,913.637c0,0.01,0,0.01,0,0.02v81.34h-7.36c-3.36,0.01-6.09,2.73-6.09,6.1v74.62h-92.28l-16.61-16.61v-68.94
				l11.67-11.67c2.38-2.38,2.38-6.23,0-8.61c-2.38-2.38-6.23-2.38-8.61,0l-13.45,13.44c0,0.01,0,0.01-0.01,0.02l-6.72,6.72
				c-2.38,2.37-2.38,6.23,0,8.61c1.19,1.19,2.75,1.78,4.31,1.78c0.21,0,0.42-0.01,0.63-0.03v58.68l-16.61,16.61h-92.27v-74.62
				c0-3.37-2.73-6.09-6.09-6.09h-7.36v-162.7h33.74v14.73h-12.93c-1.62,0-3.16,0.64-4.31,1.78c-1.14,1.14-1.78,2.69-1.78,4.31v19.02
				c0,1.62,0.64,3.17,1.78,4.31l24.23,24.23l-0.45,0.45c-2.38,2.37-2.38,6.23,0,8.61c1.19,1.19,2.75,1.78,4.31,1.78
				c1.56,0,3.12-0.59,4.31-1.78l4.75-4.76l19.03-19.02l4.75-4.76c2.38-2.38,2.38-6.23,0-8.61c-2.38-2.38-6.23-2.38-8.61,0
				l-0.45,0.45l-22.45-22.45v-18.29h165v18.29l-22.44,22.45l-0.45-0.45c-2.38-2.38-6.24-2.38-8.61,0c-2.38,2.38-2.38,6.23,0,8.61
				l28.53,28.54c1.19,1.19,2.75,1.78,4.31,1.78s3.12-0.59,4.31-1.78c2.37-2.38,2.37-6.24,0-8.62l-0.45-0.44l24.23-24.23
				c1.14-1.14,1.78-2.69,1.78-4.31v-19.02c0-1.62-0.64-3.17-1.78-4.31c-1.15-1.14-2.69-1.78-4.31-1.78h-12.94v-14.73h33.75V913.637z
				 M258.947,859.217l22.45,22.44l-10.42,10.41l-22.44-22.44v-10.41H258.947z M441.177,859.217h10.41v10.41l-22.45,22.44
				l-10.41-10.41L441.177,859.217z M490.667,935.177l13.67,22.2l-13.67,22.2V935.177z M495.477,994.997l16.01-26l16,26H495.477z
				 M532.297,979.577l-13.66-22.2l13.66-22.21V979.577z M532.297,892.147l-13.66-22.21l13.66-22.2V892.147z M409.957,1135.617
				c0-3.37-2.72-6.09-6.09-6.09h-107.61c-3.37,0-6.09,2.72-6.09,6.09v20.81h-55.08v-34.11h-12.18v34.11h-68.53v-141.24h-12.18
				v147.33c0,3.36,2.72,6.09,6.09,6.09h80.7c0,0,0,0,0.01,0h222.59v-12.18h-41.63V1135.617z M397.777,1156.427h-95.43v-14.72h95.43
				V1156.427z"/>
		</g>
	</g>
	<path style="fill:#FF93A2;" d="M564.652,1155.157v20.81c0,3.36-2.72,6.09-6.09,6.09h-80.7c-0.01,0-0.01,0-0.01,0h-19.54v-12.18
		h13.45v-14.72h12.18v14.72h68.53v-14.72H564.652z"/>
	<polygon style="fill:#FF93A2;" points="195.787,973.617 195.787,980.617 191.477,973.617 	"/>
	<path style="fill:#FF93A2;" d="M184.47,983.343v12.18h-41.41v8h-12.18v-14.09c0-3.37,2.72-6.09,6.09-6.09h7.36v-21.39h12.18v5.96
		l3.67-5.96h14.3l-13.16,21.39H184.47z"/>
	<path style="fill:#FF93A2;" d="M256.967,1109.994v12.18h-29.88v7.52h-12.18v-13.61c0-0.01,0-0.01,0-0.02v-17.39h12.18v11.32
		H256.967z"/>
	<rect x="180.478" y="1033.55" style="fill:#FF93A2;" width="5.87" height="0"/>
	<rect x="165.62" y="1003.523" style="fill:#FF93A2;" width="2.207" height="8.335"/>
	<rect x="242.907" y="1098.674" style="fill:#FF93A2;" width="5.63" height="0"/>
	<rect x="248.537" y="1122.313" style="fill:#FF93A2;" width="8.43" height="11.983"/>
	<rect x="448.55" y="1149.067" style="fill:#FF93A2;" width="9.762" height="6.09"/>
	<rect x="525.467" y="1149.067" style="fill:#FF93A2;" width="6.83" height="7.36"/>
	<rect x="544" y="1149.067" style="fill:#FF93A2;" width="30.415" height="3.045"/>
	<rect x="448.55" y="1182.057" style="fill:#FF93A2;" width="4.881" height="17.801"/>
	<rect x="150.907" y="1003.523" style="fill:#FF93A2;" width="3.75" height="4.168"/>
	<g>
		<g>
			<path style="fill:#FECAFF;" d="M76.05,632.858l43.03-29C104.15,612.608,89.79,622.288,76.05,632.858z M-87.41,988.858
				c1.01,18.86,3.28,37.49,6.79,55.86L-87.41,988.858z M119.92,632.858H76.05c-14.46,11.12-28.24,23.21-41.29,36.26
				c-38.5,38.51-68.73,83.35-89.85,133.28c-21.87,51.7-32.96,106.62-32.96,163.22c0,7.78,0.21,15.53,0.64,23.24h25.04
				c-0.45-7.69-0.68-15.44-0.68-23.24C-63.05,825.898,10,702.908,119.92,632.858z M81.5,1302.498c3.84,2.86,7.73,5.64,11.67,8.36
				L81.5,1302.498z M-55.07,1044.718h-25.55c5.49,28.78,14.01,56.9,25.53,84.12c21.12,49.93,51.35,94.77,89.85,133.28
				c14.69,14.68,30.28,28.15,46.74,40.38v-12.64h25.6C25.09,1232.988-34.41,1145.838-55.07,1044.718z M717.61,802.398
				c-5.29-12.5-11.15-24.69-17.58-36.54h-28.91c28.22,47.82,46.64,102.08,52.46,160h25.14
				C744.74,883.278,734.32,841.898,717.61,802.398z M627.76,669.118c-38.51-38.5-83.35-68.73-133.28-89.85
				c-51.7-21.87-106.62-32.96-163.22-32.96c-56.6,0-111.52,11.09-163.22,32.96c-16.92,7.16-33.26,15.36-48.96,24.59h55.32
				c48.09-20.94,101.15-32.55,156.86-32.55c130.88,0,247.07,64.1,318.83,162.55h30.69C665.41,710.688,647.69,689.058,627.76,669.118
				z M724.89,988.858c-3.94,67.44-24.9,130.38-58.65,184.58c-5.32,8.56-10.97,16.9-16.93,25
				c-71.81,97.85-187.64,161.49-318.05,161.49c-68.99,0-133.89-17.81-190.36-49.07H93.17c23.4,16.18,48.42,29.92,74.87,41.11
				c51.7,21.87,106.62,32.96,163.22,32.96c56.6,0,111.52-11.09,163.22-32.96c49.93-21.12,94.77-51.35,133.28-89.85
				c19.63-19.63,37.11-40.91,52.32-63.68c5.45-8.14,10.61-16.48,15.47-25c8.2-14.36,15.56-29.24,22.06-44.6
				c18.86-44.59,29.71-91.58,32.32-139.98H724.89z"/>
		</g>
		<path style="fill:#FECAFF;" d="M-67.845,1044.718h-25.55l-6.79-55.86h25.04C-74.035,1007.868-71.575,1026.518-67.845,1044.718z"/>
		<path style="fill:#FECAFF;" d="M705.75,749.858h-28.91c-6.49-11.02-13.51-21.7-21.03-32h30.69
			C693.4,728.218,699.81,738.888,705.75,749.858z"/>
		<path style="fill:#FECAFF;" d="M764.065,959.498c0,7.78-0.21,15.53-0.64,23.24h-25.04c0.45-7.69,0.68-15.44,0.68-23.24
			c0-13.42-0.67-26.68-1.99-39.76h25.14C763.445,932.888,764.065,946.148,764.065,959.498z"/>
		<path style="fill:#FECAFF;" d="M750.57,925.858v39.76c0-13.35-0.62-26.61-1.85-39.76H750.57z"/>
		<path style="fill:#FECAFF;" d="M749.93,988.858c0.43-7.71,0.64-15.46,0.64-23.24v23.24H749.93z"/>
		<path style="fill:#FECAFF;" d="M179.85,611.083c-18.98,8.26-37.19,17.97-54.48,29H81.5l43.03-29H179.85z"/>
		<path style="fill:#FECAFF;" d="M149.62,1300.358h-47.73l-11.67-8.36v-12.64h25.6C126.7,1286.908,137.98,1293.918,149.62,1300.358z
			"/>
		<path style="fill:#FECAFF;" d="M703.9,1223.728c-4.86,8.52-10.02,16.86-15.47,25h-30.77c5.96-8.1,11.61-16.44,16.93-25H703.9z"/>
		<path style="fill:#FECAFF;" d="M579.83,1055.193H553.5c-3.96-10.69-9.57-20.59-16.5-29.39h30.16
			C572.5,1034.963,576.78,1044.823,579.83,1055.193z"/>
		<rect x="546.5" y="1062.858" style="fill:#FECAFF;" width="11.915" height="12"/>
		<rect x="573.063" y="1114.184" style="fill:#FECAFF;" width="15.437" height="8.129"/>
		<rect x="306.37" y="1229.858" style="fill:#FECAFF;" width="33.38" height="6.37"/>
		<rect x="-63.5" y="1011.858" style="fill:#FECAFF;" width="12" height="4.93"/>
		<rect x="81.5" y="603.858" style="fill:#FECAFF;" width="19.726" height="11.096"/>
		<rect x="644.5" y="749.858" style="fill:#FECAFF;" width="7" height="34.775"/>
		<rect x="703.9" y="931.858" style="fill:#FECAFF;" width="17.6" height="13.88"/>
		<rect x="693.5" y="982.738" style="fill:#FECAFF;" width="10.4" height="19.12"/>
		<rect x="764.065" y="902.858" style="fill:#FECAFF;" width="20.435" height="7"/>
		<rect x="693.5" y="1191.858" style="fill:#FECAFF;" width="19.2" height="16"/>
		<rect x="644.5" y="1173.608" style="fill:#FECAFF;" width="43.028" height="13.285"/>
		<rect x="580.781" y="1244.858" style="fill:#FECAFF;" width="7.719" height="10"/>
		<rect x="523.5" y="1261.858" style="fill:#FECAFF;" width="23" height="7"/>
		<rect x="76.05" y="1328.858" style="fill:#FECAFF;" width="21.515" height="9"/>
		<rect x="52.5" y="1300.358" style="fill:#FECAFF;" width="10" height="19.5"/>
		<rect x="-111.5" y="1062.858" style="fill:#FECAFF;" width="11.315" height="12"/>
		<rect x="-116.5" y="965.613" style="fill:#FECAFF;" width="16.315" height="11.625"/>
		<rect x="119.08" y="1236.228" style="fill:#FECAFF;" width="11.595" height="8.63"/>
		<rect x="340.66" y="700.858" style="fill:#FECAFF;" width="13.923" height="11"/>
	</g>
	<g>
		<g>
			<path style="fill:#FECAFF;" d="M535.837,832.307c3.37,0,6.09-2.72,6.09-6.09v-53.8c0-3.37-2.72-6.09-6.09-6.09h-141.88v-7.37
				c0-3.36-2.72-6.09-6.09-6.09h-107.61c-3.37,0-6.09,2.73-6.09,6.09v7.37h-73.12c-3.37,0-6.09,2.72-6.09,6.09
				c0,3.36,2.72,6.09,6.09,6.09h73.12v7.36c0,3.36,2.72,6.09,6.09,6.09h107.61c3.37,0,6.09-2.73,6.09-6.09v-7.37l135.79,0.01v41.62
				h-391.37v-41.62h38.42c3.36,0,6.09-2.73,6.09-6.09c0-3.37-2.73-6.09-6.09-6.09h-44.51c-3.37,0-6.09,2.72-6.09,6.09v53.8
				c0,3.37,2.72,6.09,6.09,6.09h7.36v81.33c0,0.01,0,0.01,0,0.02v59.96h12.18v-38.44l13.66,22.2l-9.99,16.24h14.3l2.84-4.62
				l2.84,4.62l4.31,7l8.86,14.39h-8.86v12.18h27.12v74.6c0,0.01,0,0.01,0,0.02v9.49h12.18v-3.4h229.95v14.72h-200.07v12.18h200.07
				v26.91h12.18v-134.52h61.15c0,0,0.01,0,0.02,0s0.02,0,0.02,0h7.34v134.52h12.18v-140.61c0-3.37-2.72-6.09-6.09-6.09h-7.36v-162.7
				H535.837z M381.777,779.777h-95.43v-14.73h95.43V779.777z M511.487,832.307l-16,26.01l-16.01-26.01H511.487z M479.477,907.567
				l16.01-26.01l16,26.01H479.477z M511.487,919.747l-16,26.01l-16.01-26.01H511.487z M474.667,847.737l13.67,22.2l-13.67,22.2
				V847.737z M188.647,832.307l-16.01,26.01l-16-26.01H188.647z M188.647,907.567h-32.01l16-26.01L188.647,907.567z
				 M151.827,847.737l13.66,22.2l-13.66,22.2V847.737z M172.637,945.757l-16-26.01h32.01L172.637,945.757z M193.457,979.577
				l-13.67-22.2l13.67-22.21V979.577z M193.457,892.147l-13.67-22.21l13.67-22.2V892.147z M328.587,1075.717l5.47-5.48l5.48,5.48
				H328.587z M462.487,913.637c0,0.01,0,0.01,0,0.02v81.34h-7.36c-3.36,0.01-6.09,2.73-6.09,6.1v74.62h-92.28l-16.61-16.61v-68.94
				l11.67-11.67c2.38-2.38,2.38-6.23,0-8.61c-2.38-2.38-6.23-2.38-8.61,0l-13.45,13.44c0,0.01,0,0.01-0.01,0.02l-6.72,6.72
				c-2.38,2.37-2.38,6.23,0,8.61c1.19,1.19,2.75,1.78,4.31,1.78c0.21,0,0.42-0.01,0.63-0.03v58.68l-16.61,16.61h-92.27v-74.62
				c0-3.37-2.73-6.09-6.09-6.09h-7.36v-162.7h33.74v14.73h-12.93c-1.62,0-3.16,0.64-4.31,1.78c-1.14,1.14-1.78,2.69-1.78,4.31v19.02
				c0,1.62,0.64,3.17,1.78,4.31l24.23,24.23l-0.45,0.45c-2.38,2.37-2.38,6.23,0,8.61c1.19,1.19,2.75,1.78,4.31,1.78
				c1.56,0,3.12-0.59,4.31-1.78l4.75-4.76l19.03-19.02l4.75-4.76c2.38-2.38,2.38-6.23,0-8.61c-2.38-2.38-6.23-2.38-8.61,0
				l-0.45,0.45l-22.45-22.45v-18.29h165v18.29l-22.44,22.45l-0.45-0.45c-2.38-2.38-6.24-2.38-8.61,0c-2.38,2.38-2.38,6.23,0,8.61
				l28.53,28.54c1.19,1.19,2.75,1.78,4.31,1.78s3.12-0.59,4.31-1.78c2.37-2.38,2.37-6.24,0-8.62l-0.45-0.44l24.23-24.23
				c1.14-1.14,1.78-2.69,1.78-4.31v-19.02c0-1.62-0.64-3.17-1.78-4.31c-1.15-1.14-2.69-1.78-4.31-1.78h-12.94v-14.73h33.75V913.637z
				 M242.947,859.217l22.45,22.44l-10.42,10.41l-22.44-22.44v-10.41H242.947z M425.177,859.217h10.41v10.41l-22.45,22.44
				l-10.41-10.41L425.177,859.217z M474.667,935.177l13.67,22.2l-13.67,22.2V935.177z M479.477,994.997l16.01-26l16,26H479.477z
				 M516.297,979.577l-13.66-22.2l13.66-22.21V979.577z M516.297,892.147l-13.66-22.21l13.66-22.2V892.147z M393.957,1135.617
				c0-3.37-2.72-6.09-6.09-6.09h-107.61c-3.37,0-6.09,2.72-6.09,6.09v20.81h-55.08v-34.11h-12.18v34.11h-68.53v-141.24h-12.18
				v147.33c0,3.36,2.72,6.09,6.09,6.09h80.7c0,0,0,0,0.01,0h222.59v-12.18h-41.63V1135.617z M381.777,1156.427h-95.43v-14.72h95.43
				V1156.427z"/>
		</g>
	</g>
	<path style="fill:#FECAFF;" d="M548.652,1155.157v20.81c0,3.36-2.72,6.09-6.09,6.09h-80.7c-0.01,0-0.01,0-0.01,0h-19.54v-12.18
		h13.45v-14.72h12.18v14.72h68.53v-14.72H548.652z"/>
	<polygon style="fill:#FECAFF;" points="179.787,973.617 179.787,980.617 175.477,973.617 	"/>
	<path style="fill:#FECAFF;" d="M168.47,983.343v12.18h-41.41v8h-12.18v-14.09c0-3.37,2.72-6.09,6.09-6.09h7.36v-21.39h12.18v5.96
		l3.67-5.96h14.3l-13.16,21.39H168.47z"/>
	<path style="fill:#FECAFF;" d="M240.967,1109.994v12.18h-29.88v7.52h-12.18v-13.61c0-0.01,0-0.01,0-0.02v-17.39h12.18v11.32
		H240.967z"/>
	<rect x="164.478" y="1033.55" style="fill:#FECAFF;" width="5.87" height="0"/>
	<rect x="149.62" y="1003.523" style="fill:#FECAFF;" width="2.207" height="8.335"/>
	<rect x="226.907" y="1098.674" style="fill:#FECAFF;" width="5.63" height="0"/>
	<rect x="232.537" y="1122.313" style="fill:#FECAFF;" width="8.43" height="11.983"/>
	<rect x="432.55" y="1149.067" style="fill:#FECAFF;" width="9.762" height="6.09"/>
	<rect x="509.467" y="1149.067" style="fill:#FECAFF;" width="6.83" height="7.36"/>
	<rect x="528" y="1149.067" style="fill:#FECAFF;" width="30.415" height="3.045"/>
	<rect x="432.55" y="1182.057" style="fill:#FECAFF;" width="4.881" height="17.801"/>
	<rect x="134.907" y="1003.523" style="fill:#FECAFF;" width="3.75" height="4.168"/>
	<g>
		<g>
			<path style="fill:#C8000F;" d="M84.05,632.858l43.03-29C112.15,612.608,97.79,622.288,84.05,632.858z M-79.41,988.858
				c1.01,18.86,3.28,37.49,6.79,55.86L-79.41,988.858z M127.92,632.858H84.05c-14.46,11.12-28.24,23.21-41.29,36.26
				c-38.5,38.51-68.73,83.35-89.85,133.28c-21.87,51.7-32.96,106.62-32.96,163.22c0,7.78,0.21,15.53,0.64,23.24h25.04
				c-0.45-7.69-0.68-15.44-0.68-23.24C-55.05,825.898,18,702.908,127.92,632.858z M89.5,1302.498c3.84,2.86,7.73,5.64,11.67,8.36
				L89.5,1302.498z M-47.07,1044.718h-25.55c5.49,28.78,14.01,56.9,25.53,84.12c21.12,49.93,51.35,94.77,89.85,133.28
				c14.69,14.68,30.28,28.15,46.74,40.38v-12.64h25.6C33.09,1232.988-26.41,1145.838-47.07,1044.718z M725.61,802.398
				c-5.29-12.5-11.15-24.69-17.58-36.54h-28.91c28.22,47.82,46.64,102.08,52.46,160h25.14
				C752.74,883.278,742.32,841.898,725.61,802.398z M635.76,669.118c-38.51-38.5-83.35-68.73-133.28-89.85
				c-51.7-21.87-106.62-32.96-163.22-32.96c-56.6,0-111.52,11.09-163.22,32.96c-16.92,7.16-33.26,15.36-48.96,24.59h55.32
				c48.09-20.94,101.15-32.55,156.86-32.55c130.88,0,247.07,64.1,318.83,162.55h30.69C673.41,710.688,655.69,689.058,635.76,669.118
				z M732.89,988.858c-3.94,67.44-24.9,130.38-58.65,184.58c-5.32,8.56-10.97,16.9-16.93,25
				c-71.81,97.85-187.64,161.49-318.05,161.49c-68.99,0-133.89-17.81-190.36-49.07h-47.73c23.4,16.18,48.42,29.92,74.87,41.11
				c51.7,21.87,106.62,32.96,163.22,32.96c56.6,0,111.52-11.09,163.22-32.96c49.93-21.12,94.77-51.35,133.28-89.85
				c19.63-19.63,37.11-40.91,52.32-63.68c5.45-8.14,10.61-16.48,15.47-25c8.2-14.36,15.56-29.24,22.06-44.6
				c18.86-44.59,29.71-91.58,32.32-139.98H732.89z"/>
		</g>
		<path style="fill:#C8000F;" d="M-59.845,1044.718h-25.55l-6.79-55.86h25.04C-66.035,1007.868-63.575,1026.518-59.845,1044.718z"/>
		<path style="fill:#C8000F;" d="M713.75,749.858h-28.91c-6.49-11.02-13.51-21.7-21.03-32h30.69
			C701.4,728.218,707.81,738.888,713.75,749.858z"/>
		<path style="fill:#C8000F;" d="M772.065,959.498c0,7.78-0.21,15.53-0.64,23.24h-25.04c0.45-7.69,0.68-15.44,0.68-23.24
			c0-13.42-0.67-26.68-1.99-39.76h25.14C771.445,932.888,772.065,946.148,772.065,959.498z"/>
		<path style="fill:#C8000F;" d="M758.57,925.858v39.76c0-13.35-0.62-26.61-1.85-39.76H758.57z"/>
		<path style="fill:#C8000F;" d="M757.93,988.858c0.43-7.71,0.64-15.46,0.64-23.24v23.24H757.93z"/>
		<path style="fill:#C8000F;" d="M187.85,611.083c-18.98,8.26-37.19,17.97-54.48,29H89.5l43.03-29H187.85z"/>
		<path style="fill:#C8000F;" d="M157.62,1300.358h-47.73l-11.67-8.36v-12.64h25.6C134.7,1286.908,145.98,1293.918,157.62,1300.358z
			"/>
		<path style="fill:#C8000F;" d="M711.9,1223.728c-4.86,8.52-10.02,16.86-15.47,25h-30.77c5.96-8.1,11.61-16.44,16.93-25H711.9z"/>
		<path style="fill:#C8000F;" d="M587.83,1055.193H561.5c-3.96-10.69-9.57-20.59-16.5-29.39h30.16
			C580.5,1034.963,584.78,1044.823,587.83,1055.193z"/>
		<rect x="554.5" y="1062.858" style="fill:#C8000F;" width="11.915" height="12"/>
		<rect x="581.063" y="1114.184" style="fill:#C8000F;" width="15.437" height="8.129"/>
		<rect x="314.37" y="1229.858" style="fill:#C8000F;" width="33.38" height="6.37"/>
		<rect x="-55.5" y="1011.858" style="fill:#C8000F;" width="12" height="4.93"/>
		<rect x="89.5" y="603.858" style="fill:#C8000F;" width="19.726" height="11.096"/>
		<rect x="652.5" y="749.858" style="fill:#C8000F;" width="7" height="34.775"/>
		<rect x="711.9" y="931.858" style="fill:#C8000F;" width="17.6" height="13.88"/>
		<rect x="701.5" y="982.738" style="fill:#C8000F;" width="10.4" height="19.12"/>
		<rect x="772.065" y="902.858" style="fill:#C8000F;" width="20.435" height="7"/>
		<rect x="701.5" y="1191.858" style="fill:#C8000F;" width="19.2" height="16"/>
		<rect x="652.5" y="1173.608" style="fill:#C8000F;" width="43.028" height="13.285"/>
		<rect x="588.781" y="1244.858" style="fill:#C8000F;" width="7.719" height="10"/>
		<rect x="531.5" y="1261.858" style="fill:#C8000F;" width="23" height="7"/>
		<rect x="84.05" y="1328.858" style="fill:#C8000F;" width="21.515" height="9"/>
		<rect x="60.5" y="1300.358" style="fill:#C8000F;" width="10" height="19.5"/>
		<rect x="-103.5" y="1062.858" style="fill:#C8000F;" width="11.315" height="12"/>
		<rect x="-108.5" y="965.613" style="fill:#C8000F;" width="16.315" height="11.625"/>
		<rect x="127.08" y="1236.228" style="fill:#C8000F;" width="11.595" height="8.63"/>
		<rect x="348.66" y="700.858" style="fill:#C8000F;" width="13.923" height="11"/>
	</g>
	<g>
		<g>
			<path style="fill:#C8000F;" d="M543.837,832.307c3.37,0,6.09-2.72,6.09-6.09v-53.8c0-3.37-2.72-6.09-6.09-6.09h-141.88v-7.37
				c0-3.36-2.72-6.09-6.09-6.09h-107.61c-3.37,0-6.09,2.73-6.09,6.09v7.37h-73.12c-3.37,0-6.09,2.72-6.09,6.09
				c0,3.36,2.72,6.09,6.09,6.09h73.12v7.36c0,3.36,2.72,6.09,6.09,6.09h107.61c3.37,0,6.09-2.73,6.09-6.09v-7.37l135.79,0.01v41.62
				h-391.37v-41.62h38.42c3.36,0,6.09-2.73,6.09-6.09c0-3.37-2.73-6.09-6.09-6.09h-44.51c-3.37,0-6.09,2.72-6.09,6.09v53.8
				c0,3.37,2.72,6.09,6.09,6.09h7.36v81.33c0,0.01,0,0.01,0,0.02v59.96h12.18v-38.44l13.66,22.2l-9.99,16.24h14.3l2.84-4.62
				l2.84,4.62l4.31,7l8.86,14.39h-8.86v12.18h27.12v74.6c0,0.01,0,0.01,0,0.02v9.49h12.18v-3.4h229.95v14.72h-200.07v12.18h200.07
				v26.91h12.18v-134.52h61.15c0,0,0.01,0,0.02,0s0.02,0,0.02,0h7.34v134.52h12.18v-140.61c0-3.37-2.72-6.09-6.09-6.09h-7.36v-162.7
				H543.837z M389.777,779.777h-95.43v-14.73h95.43V779.777z M519.487,832.307l-16,26.01l-16.01-26.01H519.487z M487.477,907.567
				l16.01-26.01l16,26.01H487.477z M519.487,919.747l-16,26.01l-16.01-26.01H519.487z M482.667,847.737l13.67,22.2l-13.67,22.2
				V847.737z M196.647,832.307l-16.01,26.01l-16-26.01H196.647z M196.647,907.567h-32.01l16-26.01L196.647,907.567z
				 M159.827,847.737l13.66,22.2l-13.66,22.2V847.737z M180.637,945.757l-16-26.01h32.01L180.637,945.757z M201.457,979.577
				l-13.67-22.2l13.67-22.21V979.577z M201.457,892.147l-13.67-22.21l13.67-22.2V892.147z M336.587,1075.717l5.47-5.48l5.48,5.48
				H336.587z M470.487,913.637c0,0.01,0,0.01,0,0.02v81.34h-7.36c-3.36,0.01-6.09,2.73-6.09,6.1v74.62h-92.28l-16.61-16.61v-68.94
				l11.67-11.67c2.38-2.38,2.38-6.23,0-8.61c-2.38-2.38-6.23-2.38-8.61,0l-13.45,13.44c0,0.01,0,0.01-0.01,0.02l-6.72,6.72
				c-2.38,2.37-2.38,6.23,0,8.61c1.19,1.19,2.75,1.78,4.31,1.78c0.21,0,0.42-0.01,0.63-0.03v58.68l-16.61,16.61h-92.27v-74.62
				c0-3.37-2.73-6.09-6.09-6.09h-7.36v-162.7h33.74v14.73h-12.93c-1.62,0-3.16,0.64-4.31,1.78c-1.14,1.14-1.78,2.69-1.78,4.31v19.02
				c0,1.62,0.64,3.17,1.78,4.31l24.23,24.23l-0.45,0.45c-2.38,2.37-2.38,6.23,0,8.61c1.19,1.19,2.75,1.78,4.31,1.78
				c1.56,0,3.12-0.59,4.31-1.78l4.75-4.76l19.03-19.02l4.75-4.76c2.38-2.38,2.38-6.23,0-8.61c-2.38-2.38-6.23-2.38-8.61,0
				l-0.45,0.45l-22.45-22.45v-18.29h165v18.29l-22.44,22.45l-0.45-0.45c-2.38-2.38-6.24-2.38-8.61,0c-2.38,2.38-2.38,6.23,0,8.61
				l28.53,28.54c1.19,1.19,2.75,1.78,4.31,1.78s3.12-0.59,4.31-1.78c2.37-2.38,2.37-6.24,0-8.62l-0.45-0.44l24.23-24.23
				c1.14-1.14,1.78-2.69,1.78-4.31v-19.02c0-1.62-0.64-3.17-1.78-4.31c-1.15-1.14-2.69-1.78-4.31-1.78h-12.94v-14.73h33.75V913.637z
				 M250.947,859.217l22.45,22.44l-10.42,10.41l-22.44-22.44v-10.41H250.947z M433.177,859.217h10.41v10.41l-22.45,22.44
				l-10.41-10.41L433.177,859.217z M482.667,935.177l13.67,22.2l-13.67,22.2V935.177z M487.477,994.997l16.01-26l16,26H487.477z
				 M524.297,979.577l-13.66-22.2l13.66-22.21V979.577z M524.297,892.147l-13.66-22.21l13.66-22.2V892.147z M401.957,1135.617
				c0-3.37-2.72-6.09-6.09-6.09h-107.61c-3.37,0-6.09,2.72-6.09,6.09v20.81h-55.08v-34.11h-12.18v34.11h-68.53v-141.24h-12.18
				v147.33c0,3.36,2.72,6.09,6.09,6.09h80.7c0,0,0,0,0.01,0h222.59v-12.18h-41.63V1135.617z M389.777,1156.427h-95.43v-14.72h95.43
				V1156.427z"/>
		</g>
	</g>
	<path style="fill:#C8000F;" d="M556.652,1155.157v20.81c0,3.36-2.72,6.09-6.09,6.09h-80.7c-0.01,0-0.01,0-0.01,0h-19.54v-12.18
		h13.45v-14.72h12.18v14.72h68.53v-14.72H556.652z"/>
	<polygon style="fill:#C8000F;" points="187.787,973.617 187.787,980.617 183.477,973.617 	"/>
	<path style="fill:#C8000F;" d="M176.47,983.343v12.18h-41.41v8h-12.18v-14.09c0-3.37,2.72-6.09,6.09-6.09h7.36v-21.39h12.18v5.96
		l3.67-5.96h14.3l-13.16,21.39H176.47z"/>
	<path style="fill:#C8000F;" d="M248.967,1109.994v12.18h-29.88v7.52h-12.18v-13.61c0-0.01,0-0.01,0-0.02v-17.39h12.18v11.32
		H248.967z"/>
	<rect x="172.478" y="1033.55" style="fill:#C8000F;" width="5.87" height="0"/>
	<rect x="157.62" y="1003.523" style="fill:#C8000F;" width="2.207" height="8.335"/>
	<rect x="234.907" y="1098.674" style="fill:#C8000F;" width="5.63" height="0"/>
	<rect x="240.537" y="1122.313" style="fill:#C8000F;" width="8.43" height="11.983"/>
	<rect x="440.55" y="1149.067" style="fill:#C8000F;" width="9.762" height="6.09"/>
	<rect x="517.467" y="1149.067" style="fill:#C8000F;" width="6.83" height="7.36"/>
	<rect x="536" y="1149.067" style="fill:#C8000F;" width="30.415" height="3.045"/>
	<rect x="440.55" y="1182.057" style="fill:#C8000F;" width="4.881" height="17.801"/>
	<rect x="142.907" y="1003.523" style="fill:#C8000F;" width="3.75" height="4.168"/>
</g>
</svg>
