<?xml version="1.0" encoding="iso-8859-1"?>
<!-- Generator: Adobe Illustrator 19.0.0, SVG Export Plug-In . SVG Version: 6.00 Build 0)  -->
<svg version="1.1" id="Layer_1" xmlns="http://www.w3.org/2000/svg" xmlns:xlink="http://www.w3.org/1999/xlink" x="0px" y="0px"
	 viewBox="-103 465.47 991.53 991.53" style="enable-background:new -103 465.47 991.53 991.53;" xml:space="preserve">
<title>merchandise</title>
<g>
	<g>
		<g>
			<path style="fill:#FF93A2;" d="M147.823,616.753l43.03-29C175.923,596.503,161.563,606.183,147.823,616.753z M-15.637,972.753
				c1.01,18.86,3.28,37.49,6.79,55.86L-15.637,972.753z M191.693,616.753h-43.87c-14.46,11.12-28.24,23.21-41.29,36.26
				c-38.5,38.51-68.73,83.35-89.85,133.28c-21.87,51.7-32.96,106.62-32.96,163.22c0,7.78,0.21,15.53,0.64,23.24h25.04
				c-0.45-7.69-0.68-15.44-0.68-23.24C8.723,809.793,81.773,686.803,191.693,616.753z M153.273,1286.393
				c3.84,2.86,7.73,5.64,11.67,8.36L153.273,1286.393z M16.703,1028.613h-25.55c5.49,28.78,14.01,56.9,25.53,84.12
				c21.12,49.93,51.35,94.77,89.85,133.28c14.69,14.68,30.28,28.15,46.74,40.38v-12.64h25.6
				C96.863,1216.883,37.363,1129.733,16.703,1028.613z M789.383,786.293c-5.29-12.5-11.15-24.69-17.58-36.54h-28.91
				c28.22,47.82,46.64,102.08,52.46,160h25.14C816.513,867.173,806.093,825.793,789.383,786.293z M699.533,653.013
				c-38.51-38.5-83.35-68.73-133.28-89.85c-51.7-21.87-106.62-32.96-163.22-32.96c-56.6,0-111.52,11.09-163.22,32.96
				c-16.92,7.16-33.26,15.36-48.96,24.59h55.32c48.09-20.94,101.15-32.55,156.86-32.55c130.88,0,247.07,64.1,318.83,162.55h30.69
				C737.183,694.583,719.463,672.953,699.533,653.013z M796.663,972.753c-3.94,67.44-24.9,130.38-58.65,184.58
				c-5.32,8.56-10.97,16.9-16.93,25c-71.81,97.85-187.64,161.49-318.05,161.49c-68.99,0-133.89-17.81-190.36-49.07h-47.73
				c23.4,16.18,48.42,29.92,74.87,41.11c51.7,21.87,106.62,32.96,163.22,32.96c56.6,0,111.52-11.09,163.22-32.96
				c49.93-21.12,94.77-51.35,133.28-89.85c19.63-19.63,37.11-40.91,52.32-63.68c5.45-8.14,10.61-16.48,15.47-25
				c8.2-14.36,15.56-29.24,22.06-44.6c18.86-44.59,29.71-91.58,32.32-139.98H796.663z"/>
		</g>
		<path style="fill:#FF93A2;" d="M3.928,1028.613h-25.55l-6.79-55.86h25.04C-2.262,991.763,0.198,1010.413,3.928,1028.613z"/>
		<path style="fill:#FF93A2;" d="M777.523,733.753h-28.91c-6.49-11.02-13.51-21.7-21.03-32h30.69
			C765.173,712.113,771.583,722.783,777.523,733.753z"/>
		<path style="fill:#FF93A2;" d="M835.838,943.393c0,7.78-0.21,15.53-0.64,23.24h-25.04c0.45-7.69,0.68-15.44,0.68-23.24
			c0-13.42-0.67-26.68-1.99-39.76h25.14C835.218,916.783,835.838,930.043,835.838,943.393z"/>
		<path style="fill:#FF93A2;" d="M822.343,909.753v39.76c0-13.35-0.62-26.61-1.85-39.76H822.343z"/>
		<path style="fill:#FF93A2;" d="M821.703,972.753c0.43-7.71,0.64-15.46,0.64-23.24v23.24H821.703z"/>
		<path style="fill:#FF93A2;" d="M251.623,594.978c-18.98,8.26-37.19,17.97-54.48,29h-43.87l43.03-29H251.623z"/>
		<path style="fill:#FF93A2;" d="M221.393,1284.253h-47.73l-11.67-8.36v-12.64h25.6
			C198.473,1270.802,209.753,1277.813,221.393,1284.253z"/>
		<path style="fill:#FF93A2;" d="M775.673,1207.623c-4.86,8.52-10.02,16.86-15.47,25h-30.77c5.96-8.1,11.61-16.44,16.93-25H775.673z
			"/>
		<path style="fill:#FF93A2;" d="M651.603,1039.088h-26.33c-3.96-10.69-9.57-20.59-16.5-29.39h30.16
			C644.273,1018.858,648.553,1028.718,651.603,1039.088z"/>
		<rect x="618.273" y="1046.753" style="fill:#FF93A2;" width="11.915" height="12"/>
		<rect x="644.836" y="1098.078" style="fill:#FF93A2;" width="15.437" height="8.129"/>
		<rect x="378.143" y="1213.753" style="fill:#FF93A2;" width="33.38" height="6.37"/>
		<rect x="8.273" y="995.753" style="fill:#FF93A2;" width="12" height="4.93"/>
		<rect x="153.273" y="587.753" style="fill:#FF93A2;" width="19.726" height="11.096"/>
		<rect x="716.273" y="733.753" style="fill:#FF93A2;" width="7" height="34.775"/>
		<rect x="775.673" y="915.753" style="fill:#FF93A2;" width="17.6" height="13.88"/>
		<rect x="765.273" y="966.633" style="fill:#FF93A2;" width="10.4" height="19.12"/>
		<rect x="835.838" y="886.753" style="fill:#FF93A2;" width="20.435" height="7"/>
		<rect x="765.273" y="1175.753" style="fill:#FF93A2;" width="19.2" height="16"/>
		<rect x="716.273" y="1157.503" style="fill:#FF93A2;" width="43.028" height="13.285"/>
		<rect x="652.555" y="1228.753" style="fill:#FF93A2;" width="7.719" height="10"/>
		<rect x="595.273" y="1245.753" style="fill:#FF93A2;" width="23" height="7"/>
		<rect x="147.823" y="1312.753" style="fill:#FF93A2;" width="21.515" height="9"/>
		<rect x="124.273" y="1284.253" style="fill:#FF93A2;" width="10" height="19.5"/>
		<rect x="-39.727" y="1046.753" style="fill:#FF93A2;" width="11.315" height="12"/>
		<rect x="-44.727" y="949.508" style="fill:#FF93A2;" width="16.315" height="11.625"/>
		<rect x="190.853" y="1220.123" style="fill:#FF93A2;" width="11.595" height="8.63"/>
		<rect x="412.433" y="684.753" style="fill:#FF93A2;" width="13.923" height="11"/>
	</g>
	<g>
		<g>
			<path style="fill:#FF93A2;" d="M260.968,883.581c-4.89,0-8.84,3.96-8.84,8.84v30.27h17.68v-30.27
				C269.808,887.541,265.848,883.581,260.968,883.581z M260.968,883.581c-4.89,0-8.84,3.96-8.84,8.84v30.27h17.68v-30.27
				C269.808,887.541,265.848,883.581,260.968,883.581z M260.968,883.581c-4.89,0-8.84,3.96-8.84,8.84v30.27h17.68v-30.27
				C269.808,887.541,265.848,883.581,260.968,883.581z M260.968,883.581c-4.89,0-8.84,3.96-8.84,8.84v30.27h17.68v-30.27
				C269.808,887.541,265.848,883.581,260.968,883.581z M269.808,1152.671v-176.48h-17.33v185.76c0,4.88,3.96,8.84,8.84,8.84h210.39
				v-18.12H269.808z M260.968,883.581c-4.89,0-8.84,3.96-8.84,8.84v30.27h17.68v-30.27
				C269.808,887.541,265.848,883.581,260.968,883.581z M532.428,1006.191v100.02h17.95v-100.02H532.428z M624.248,871.791
				c-0.11-0.11-0.21-0.21-0.32-0.32l-93-82.65c-0.85-0.77-1.84-1.37-2.92-1.77l-67.27-24.04c-4.58-1.67-9.66,0.7-11.32,5.29
				c-0.3,0.83-0.48,1.7-0.52,2.58c0,1.43-1.58,26.11-20.32,39.31h24.49c5.93-7.8,10.14-16.99,12.09-27.03l55.34,19.98l83.89,75.32
				l-54.28,54.98v-41.02c0-4.88-3.95-8.84-8.84-8.84c-4.88,0-8.84,3.96-8.84,8.84v108.26h17.95v-42.05l73.55-74.34
				C627.468,880.931,627.608,875.331,624.248,871.791z M394.828,829.751v-11.82c-39.02-4.58-41.58-45.21-41.66-47.05
				c-0.27-4.88-4.43-8.62-9.3-8.36c-0.84,0.05-1.67,0.21-2.46,0.49l-67.18,24.31c-1.08,0.39-2.07,0.99-2.92,1.77l-92.38,82.38
				c-3.54,3.37-3.68,8.96-0.32,12.5c0.11,0.11,0.21,0.22,0.32,0.32l37.99,38.4h24.51l-43.67-44.23l84.16-75.32l55.33-19.98
				c6.86,35.33,41.05,58.4,76.37,51.55c5.34-1.04,10.44-2.72,15.22-4.96H394.828z M260.968,883.581c-4.89,0-8.84,3.96-8.84,8.84
				v30.27h17.68v-30.27C269.808,887.541,265.848,883.581,260.968,883.581z M260.968,883.581c-4.89,0-8.84,3.96-8.84,8.84v30.27
				h17.68v-30.27C269.808,887.541,265.848,883.581,260.968,883.581z M260.968,883.581c-4.89,0-8.84,3.96-8.84,8.84v30.27h17.68
				v-30.27C269.808,887.541,265.848,883.581,260.968,883.581z M260.968,883.581c-4.89,0-8.84,3.96-8.84,8.84v30.27h17.68v-30.27
				C269.808,887.541,265.848,883.581,260.968,883.581z M260.968,883.581c-4.89,0-8.84,3.96-8.84,8.84v30.27h17.68v-30.27
				C269.808,887.541,265.848,883.581,260.968,883.581z M260.968,883.581c-4.89,0-8.84,3.96-8.84,8.84v30.27h17.68v-30.27
				C269.808,887.541,265.848,883.581,260.968,883.581z"/>
		</g>
	</g>
	<path style="fill:#FF93A2;" d="M540.378,1098.078v55.74c0,4.88-3.96,8.84-8.84,8.84h-69.83v-18.12h60.72v-46.46H540.378z"/>
	<polygon style="fill:#FF93A2;" points="265.142,928.57 265.142,982.07 247.812,982.07 247.812,964.51 212.252,928.57 
		236.762,928.57 247.462,939.41 247.462,928.57 	"/>
	<path style="fill:#FF93A2;" d="M458.965,816.418c-6.34,8.33-14.64,15.08-24.23,19.56h-34.01v-11.82c2.01,0.24,4.12,0.38,6.33,0.42
		c11.81-0.19,20.72-3.44,27.42-8.16H458.965z"/>
	<rect x="275.535" y="928.57" style="fill:#FF93A2;" width="6" height="6.563"/>
	<rect x="275.535" y="957.524" style="fill:#FF93A2;" width="12" height="3.608"/>
	<rect x="202.448" y="928.57" style="fill:#FF93A2;" width="3.087" height="6.563"/>
	<rect x="224.202" y="957.524" style="fill:#FF93A2;" width="9.333" height="9.108"/>
	<rect x="486.202" y="1125.524" style="fill:#FF93A2;" width="14.842" height="4.844"/>
	<rect x="506.202" y="1170.788" style="fill:#FF93A2;" width="4" height="4.965"/>
	<rect x="394.833" y="806.191" style="fill:#FF93A2;" width="10.035" height="2.667"/>
	<rect x="422.202" y="851.524" style="fill:#FF93A2;" width="4.155" height="1.333"/>
	<rect x="458.965" y="829.753" style="fill:#FF93A2;" width="5.903" height="12.847"/>
	<rect x="453.535" y="858.858" style="fill:#FF93A2;" width="11.333" height="4"/>
	<rect x="455.868" y="1000.681" style="fill:#FF93A2;" width="67.56" height="5.51"/>
	<g>
		<g>
			<path style="fill:#FECAFF;" d="M128.823,616.753l43.03-29C156.923,596.503,142.563,606.183,128.823,616.753z M-34.637,972.753
				c1.01,18.86,3.28,37.49,6.79,55.86L-34.637,972.753z M172.693,616.753h-43.87c-14.46,11.12-28.24,23.21-41.29,36.26
				c-38.5,38.51-68.73,83.35-89.85,133.28c-21.87,51.7-32.96,106.62-32.96,163.22c0,7.78,0.21,15.53,0.64,23.24h25.04
				c-0.45-7.69-0.68-15.44-0.68-23.24C-10.277,809.793,62.773,686.803,172.693,616.753z M134.273,1286.393
				c3.84,2.86,7.73,5.64,11.67,8.36L134.273,1286.393z M-2.297,1028.613h-25.55c5.49,28.78,14.01,56.9,25.53,84.12
				c21.12,49.93,51.35,94.77,89.85,133.28c14.69,14.68,30.28,28.15,46.74,40.38v-12.64h25.6
				C77.863,1216.883,18.363,1129.733-2.297,1028.613z M770.383,786.293c-5.29-12.5-11.15-24.69-17.58-36.54h-28.91
				c28.22,47.82,46.64,102.08,52.46,160h25.14C797.513,867.173,787.093,825.793,770.383,786.293z M680.533,653.013
				c-38.51-38.5-83.35-68.73-133.28-89.85c-51.7-21.87-106.62-32.96-163.22-32.96c-56.6,0-111.52,11.09-163.22,32.96
				c-16.92,7.16-33.26,15.36-48.96,24.59h55.32c48.09-20.94,101.15-32.55,156.86-32.55c130.88,0,247.07,64.1,318.83,162.55h30.69
				C718.183,694.583,700.463,672.953,680.533,653.013z M777.663,972.753c-3.94,67.44-24.9,130.38-58.65,184.58
				c-5.32,8.56-10.97,16.9-16.93,25c-71.81,97.85-187.64,161.49-318.05,161.49c-68.99,0-133.89-17.81-190.36-49.07h-47.73
				c23.4,16.18,48.42,29.92,74.87,41.11c51.7,21.87,106.62,32.96,163.22,32.96c56.6,0,111.52-11.09,163.22-32.96
				c49.93-21.12,94.77-51.35,133.28-89.85c19.63-19.63,37.11-40.91,52.32-63.68c5.45-8.14,10.61-16.48,15.47-25
				c8.2-14.36,15.56-29.24,22.06-44.6c18.86-44.59,29.71-91.58,32.32-139.98H777.663z"/>
		</g>
		<path style="fill:#FECAFF;" d="M-15.072,1028.613h-25.55l-6.79-55.86h25.04C-21.262,991.763-18.802,1010.413-15.072,1028.613z"/>
		<path style="fill:#FECAFF;" d="M758.523,733.753h-28.91c-6.49-11.02-13.51-21.7-21.03-32h30.69
			C746.173,712.113,752.583,722.783,758.523,733.753z"/>
		<path style="fill:#FECAFF;" d="M816.838,943.393c0,7.78-0.21,15.53-0.64,23.24h-25.04c0.45-7.69,0.68-15.44,0.68-23.24
			c0-13.42-0.67-26.68-1.99-39.76h25.14C816.218,916.783,816.838,930.043,816.838,943.393z"/>
		<path style="fill:#FECAFF;" d="M803.343,909.753v39.76c0-13.35-0.62-26.61-1.85-39.76H803.343z"/>
		<path style="fill:#FECAFF;" d="M802.703,972.753c0.43-7.71,0.64-15.46,0.64-23.24v23.24H802.703z"/>
		<path style="fill:#FECAFF;" d="M232.623,594.978c-18.98,8.26-37.19,17.97-54.48,29h-43.87l43.03-29H232.623z"/>
		<path style="fill:#FECAFF;" d="M202.393,1284.253h-47.73l-11.67-8.36v-12.64h25.6
			C179.473,1270.802,190.753,1277.813,202.393,1284.253z"/>
		<path style="fill:#FECAFF;" d="M756.673,1207.623c-4.86,8.52-10.02,16.86-15.47,25h-30.77c5.96-8.1,11.61-16.44,16.93-25H756.673z
			"/>
		<path style="fill:#FECAFF;" d="M632.603,1039.088h-26.33c-3.96-10.69-9.57-20.59-16.5-29.39h30.16
			C625.273,1018.858,629.553,1028.718,632.603,1039.088z"/>
		<rect x="599.273" y="1046.753" style="fill:#FECAFF;" width="11.915" height="12"/>
		<rect x="625.836" y="1098.078" style="fill:#FECAFF;" width="15.437" height="8.129"/>
		<rect x="359.143" y="1213.753" style="fill:#FECAFF;" width="33.38" height="6.37"/>
		<rect x="-10.727" y="995.753" style="fill:#FECAFF;" width="12" height="4.93"/>
		<rect x="134.273" y="587.753" style="fill:#FECAFF;" width="19.726" height="11.096"/>
		<rect x="697.273" y="733.753" style="fill:#FECAFF;" width="7" height="34.775"/>
		<rect x="756.673" y="915.753" style="fill:#FECAFF;" width="17.6" height="13.88"/>
		<rect x="746.273" y="966.633" style="fill:#FECAFF;" width="10.4" height="19.12"/>
		<rect x="816.838" y="886.753" style="fill:#FECAFF;" width="20.435" height="7"/>
		<rect x="746.273" y="1175.753" style="fill:#FECAFF;" width="19.2" height="16"/>
		<rect x="697.273" y="1157.503" style="fill:#FECAFF;" width="43.028" height="13.285"/>
		<rect x="633.555" y="1228.753" style="fill:#FECAFF;" width="7.719" height="10"/>
		<rect x="576.273" y="1245.753" style="fill:#FECAFF;" width="23" height="7"/>
		<rect x="128.823" y="1312.753" style="fill:#FECAFF;" width="21.515" height="9"/>
		<rect x="105.273" y="1284.253" style="fill:#FECAFF;" width="10" height="19.5"/>
		<rect x="-58.727" y="1046.753" style="fill:#FECAFF;" width="11.315" height="12"/>
		<rect x="-63.727" y="949.508" style="fill:#FECAFF;" width="16.315" height="11.625"/>
		<rect x="171.853" y="1220.123" style="fill:#FECAFF;" width="11.595" height="8.63"/>
		<rect x="393.433" y="684.753" style="fill:#FECAFF;" width="13.923" height="11"/>
	</g>
	<g>
		<g>
			<path style="fill:#FECAFF;" d="M241.968,883.581c-4.89,0-8.84,3.96-8.84,8.84v30.27h17.68v-30.27
				C250.808,887.541,246.848,883.581,241.968,883.581z M241.968,883.581c-4.89,0-8.84,3.96-8.84,8.84v30.27h17.68v-30.27
				C250.808,887.541,246.848,883.581,241.968,883.581z M241.968,883.581c-4.89,0-8.84,3.96-8.84,8.84v30.27h17.68v-30.27
				C250.808,887.541,246.848,883.581,241.968,883.581z M241.968,883.581c-4.89,0-8.84,3.96-8.84,8.84v30.27h17.68v-30.27
				C250.808,887.541,246.848,883.581,241.968,883.581z M250.808,1152.671v-176.48h-17.33v185.76c0,4.88,3.96,8.84,8.84,8.84h210.39
				v-18.12H250.808z M241.968,883.581c-4.89,0-8.84,3.96-8.84,8.84v30.27h17.68v-30.27
				C250.808,887.541,246.848,883.581,241.968,883.581z M513.428,1006.191v100.02h17.95v-100.02H513.428z M605.248,871.791
				c-0.11-0.11-0.21-0.21-0.32-0.32l-93-82.65c-0.85-0.77-1.84-1.37-2.92-1.77l-67.27-24.04c-4.58-1.67-9.66,0.7-11.32,5.29
				c-0.3,0.83-0.48,1.7-0.52,2.58c0,1.43-1.58,26.11-20.32,39.31h24.49c5.93-7.8,10.14-16.99,12.09-27.03l55.34,19.98l83.89,75.32
				l-54.28,54.98v-41.02c0-4.88-3.95-8.84-8.84-8.84c-4.88,0-8.84,3.96-8.84,8.84v108.26h17.95v-42.05l73.55-74.34
				C608.468,880.931,608.608,875.331,605.248,871.791z M375.828,829.751v-11.82c-39.02-4.58-41.58-45.21-41.66-47.05
				c-0.27-4.88-4.43-8.62-9.3-8.36c-0.84,0.05-1.67,0.21-2.46,0.49l-67.18,24.31c-1.08,0.39-2.07,0.99-2.92,1.77l-92.38,82.38
				c-3.54,3.37-3.68,8.96-0.32,12.5c0.11,0.11,0.21,0.22,0.32,0.32l37.99,38.4h24.51l-43.67-44.23l84.16-75.32l55.33-19.98
				c6.86,35.33,41.05,58.4,76.37,51.55c5.34-1.04,10.44-2.72,15.22-4.96H375.828z M241.968,883.581c-4.89,0-8.84,3.96-8.84,8.84
				v30.27h17.68v-30.27C250.808,887.541,246.848,883.581,241.968,883.581z M241.968,883.581c-4.89,0-8.84,3.96-8.84,8.84v30.27
				h17.68v-30.27C250.808,887.541,246.848,883.581,241.968,883.581z M241.968,883.581c-4.89,0-8.84,3.96-8.84,8.84v30.27h17.68
				v-30.27C250.808,887.541,246.848,883.581,241.968,883.581z M241.968,883.581c-4.89,0-8.84,3.96-8.84,8.84v30.27h17.68v-30.27
				C250.808,887.541,246.848,883.581,241.968,883.581z M241.968,883.581c-4.89,0-8.84,3.96-8.84,8.84v30.27h17.68v-30.27
				C250.808,887.541,246.848,883.581,241.968,883.581z M241.968,883.581c-4.89,0-8.84,3.96-8.84,8.84v30.27h17.68v-30.27
				C250.808,887.541,246.848,883.581,241.968,883.581z"/>
		</g>
	</g>
	<path style="fill:#FECAFF;" d="M521.378,1098.078v55.74c0,4.88-3.96,8.84-8.84,8.84h-69.83v-18.12h60.72v-46.46H521.378z"/>
	<polygon style="fill:#FECAFF;" points="246.142,928.57 246.142,982.07 228.812,982.07 228.812,964.51 193.252,928.57 
		217.762,928.57 228.462,939.41 228.462,928.57 	"/>
	<path style="fill:#FECAFF;" d="M439.965,816.418c-6.34,8.33-14.64,15.08-24.23,19.56h-34.01v-11.82c2.01,0.24,4.12,0.38,6.33,0.42
		c11.81-0.19,20.72-3.44,27.42-8.16H439.965z"/>
	<rect x="256.535" y="928.57" style="fill:#FECAFF;" width="6" height="6.563"/>
	<rect x="256.535" y="957.524" style="fill:#FECAFF;" width="12" height="3.608"/>
	<rect x="183.448" y="928.57" style="fill:#FECAFF;" width="3.087" height="6.563"/>
	<rect x="205.202" y="957.524" style="fill:#FECAFF;" width="9.333" height="9.108"/>
	<rect x="467.202" y="1125.524" style="fill:#FECAFF;" width="14.842" height="4.844"/>
	<rect x="487.202" y="1170.788" style="fill:#FECAFF;" width="4" height="4.965"/>
	<rect x="375.833" y="806.191" style="fill:#FECAFF;" width="10.035" height="2.667"/>
	<rect x="403.202" y="851.524" style="fill:#FECAFF;" width="4.155" height="1.333"/>
	<rect x="439.965" y="829.753" style="fill:#FECAFF;" width="5.903" height="12.847"/>
	<rect x="434.535" y="858.858" style="fill:#FECAFF;" width="11.333" height="4"/>
	<rect x="436.868" y="1000.681" style="fill:#FECAFF;" width="67.56" height="5.51"/>
	<g>
		<g>
			<path style="fill:#C8000F;" d="M139.823,616.753l43.03-29C167.923,596.503,153.563,606.183,139.823,616.753z M-23.637,972.753
				c1.01,18.86,3.28,37.49,6.79,55.86L-23.637,972.753z M183.693,616.753h-43.87c-14.46,11.12-28.24,23.21-41.29,36.26
				c-38.5,38.51-68.73,83.35-89.85,133.28c-21.87,51.7-32.96,106.62-32.96,163.22c0,7.78,0.21,15.53,0.64,23.24h25.04
				c-0.45-7.69-0.68-15.44-0.68-23.24C0.723,809.793,73.773,686.803,183.693,616.753z M145.273,1286.393
				c3.84,2.86,7.73,5.64,11.67,8.36L145.273,1286.393z M8.703,1028.613h-25.55c5.49,28.78,14.01,56.9,25.53,84.12
				c21.12,49.93,51.35,94.77,89.85,133.28c14.69,14.68,30.28,28.15,46.74,40.38v-12.64h25.6
				C88.863,1216.883,29.363,1129.733,8.703,1028.613z M781.383,786.293c-5.29-12.5-11.15-24.69-17.58-36.54h-28.91
				c28.22,47.82,46.64,102.08,52.46,160h25.14C808.513,867.173,798.093,825.793,781.383,786.293z M691.533,653.013
				c-38.51-38.5-83.35-68.73-133.28-89.85c-51.7-21.87-106.62-32.96-163.22-32.96c-56.6,0-111.52,11.09-163.22,32.96
				c-16.92,7.16-33.26,15.36-48.96,24.59h55.32c48.09-20.94,101.15-32.55,156.86-32.55c130.88,0,247.07,64.1,318.83,162.55h30.69
				C729.183,694.583,711.463,672.953,691.533,653.013z M788.663,972.753c-3.94,67.44-24.9,130.38-58.65,184.58
				c-5.32,8.56-10.97,16.9-16.93,25c-71.81,97.85-187.64,161.49-318.05,161.49c-68.99,0-133.89-17.81-190.36-49.07h-47.73
				c23.4,16.18,48.42,29.92,74.87,41.11c51.7,21.87,106.62,32.96,163.22,32.96c56.6,0,111.52-11.09,163.22-32.96
				c49.93-21.12,94.77-51.35,133.28-89.85c19.63-19.63,37.11-40.91,52.32-63.68c5.45-8.14,10.61-16.48,15.47-25
				c8.2-14.36,15.56-29.24,22.06-44.6c18.86-44.59,29.71-91.58,32.32-139.98H788.663z"/>
		</g>
		<path style="fill:#C8000F;" d="M-4.072,1028.613h-25.55l-6.79-55.86h25.04C-10.262,991.763-7.802,1010.413-4.072,1028.613z"/>
		<path style="fill:#C8000F;" d="M769.523,733.753h-28.91c-6.49-11.02-13.51-21.7-21.03-32h30.69
			C757.173,712.113,763.583,722.783,769.523,733.753z"/>
		<path style="fill:#C8000F;" d="M827.838,943.393c0,7.78-0.21,15.53-0.64,23.24h-25.04c0.45-7.69,0.68-15.44,0.68-23.24
			c0-13.42-0.67-26.68-1.99-39.76h25.14C827.218,916.783,827.838,930.043,827.838,943.393z"/>
		<path style="fill:#C8000F;" d="M814.343,909.753v39.76c0-13.35-0.62-26.61-1.85-39.76H814.343z"/>
		<path style="fill:#C8000F;" d="M813.703,972.753c0.43-7.71,0.64-15.46,0.64-23.24v23.24H813.703z"/>
		<path style="fill:#C8000F;" d="M243.623,594.978c-18.98,8.26-37.19,17.97-54.48,29h-43.87l43.03-29H243.623z"/>
		<path style="fill:#C8000F;" d="M213.393,1284.253h-47.73l-11.67-8.36v-12.64h25.6
			C190.473,1270.802,201.753,1277.813,213.393,1284.253z"/>
		<path style="fill:#C8000F;" d="M767.673,1207.623c-4.86,8.52-10.02,16.86-15.47,25h-30.77c5.96-8.1,11.61-16.44,16.93-25H767.673z
			"/>
		<path style="fill:#C8000F;" d="M643.603,1039.088h-26.33c-3.96-10.69-9.57-20.59-16.5-29.39h30.16
			C636.273,1018.858,640.553,1028.718,643.603,1039.088z"/>
		<rect x="610.273" y="1046.753" style="fill:#C8000F;" width="11.915" height="12"/>
		<rect x="636.836" y="1098.078" style="fill:#C8000F;" width="15.437" height="8.129"/>
		<rect x="370.143" y="1213.753" style="fill:#C8000F;" width="33.38" height="6.37"/>
		<rect x="0.273" y="995.753" style="fill:#C8000F;" width="12" height="4.93"/>
		<rect x="145.273" y="587.753" style="fill:#C8000F;" width="19.726" height="11.096"/>
		<rect x="708.273" y="733.753" style="fill:#C8000F;" width="7" height="34.775"/>
		<rect x="767.673" y="915.753" style="fill:#C8000F;" width="17.6" height="13.88"/>
		<rect x="757.273" y="966.633" style="fill:#C8000F;" width="10.4" height="19.12"/>
		<rect x="827.838" y="886.753" style="fill:#C8000F;" width="20.435" height="7"/>
		<rect x="757.273" y="1175.753" style="fill:#C8000F;" width="19.2" height="16"/>
		<rect x="708.273" y="1157.503" style="fill:#C8000F;" width="43.028" height="13.285"/>
		<rect x="644.555" y="1228.753" style="fill:#C8000F;" width="7.719" height="10"/>
		<rect x="587.273" y="1245.753" style="fill:#C8000F;" width="23" height="7"/>
		<rect x="139.823" y="1312.753" style="fill:#C8000F;" width="21.515" height="9"/>
		<rect x="116.273" y="1284.253" style="fill:#C8000F;" width="10" height="19.5"/>
		<rect x="-47.727" y="1046.753" style="fill:#C8000F;" width="11.315" height="12"/>
		<rect x="-52.727" y="949.508" style="fill:#C8000F;" width="16.315" height="11.625"/>
		<rect x="182.853" y="1220.123" style="fill:#C8000F;" width="11.595" height="8.63"/>
		<rect x="404.433" y="684.753" style="fill:#C8000F;" width="13.923" height="11"/>
	</g>
	<g>
		<g>
			<path style="fill:#C8000F;" d="M252.968,883.581c-4.89,0-8.84,3.96-8.84,8.84v30.27h17.68v-30.27
				C261.808,887.541,257.848,883.581,252.968,883.581z M252.968,883.581c-4.89,0-8.84,3.96-8.84,8.84v30.27h17.68v-30.27
				C261.808,887.541,257.848,883.581,252.968,883.581z M252.968,883.581c-4.89,0-8.84,3.96-8.84,8.84v30.27h17.68v-30.27
				C261.808,887.541,257.848,883.581,252.968,883.581z M252.968,883.581c-4.89,0-8.84,3.96-8.84,8.84v30.27h17.68v-30.27
				C261.808,887.541,257.848,883.581,252.968,883.581z M261.808,1152.671v-176.48h-17.33v185.76c0,4.88,3.96,8.84,8.84,8.84h210.39
				v-18.12H261.808z M252.968,883.581c-4.89,0-8.84,3.96-8.84,8.84v30.27h17.68v-30.27
				C261.808,887.541,257.848,883.581,252.968,883.581z M524.428,1006.191v100.02h17.95v-100.02H524.428z M616.248,871.791
				c-0.11-0.11-0.21-0.21-0.32-0.32l-93-82.65c-0.85-0.77-1.84-1.37-2.92-1.77l-67.27-24.04c-4.58-1.67-9.66,0.7-11.32,5.29
				c-0.3,0.83-0.48,1.7-0.52,2.58c0,1.43-1.58,26.11-20.32,39.31h24.49c5.93-7.8,10.14-16.99,12.09-27.03l55.34,19.98l83.89,75.32
				l-54.28,54.98v-41.02c0-4.88-3.95-8.84-8.84-8.84c-4.88,0-8.84,3.96-8.84,8.84v108.26h17.95v-42.05l73.55-74.34
				C619.468,880.931,619.608,875.331,616.248,871.791z M386.828,829.751v-11.82c-39.02-4.58-41.58-45.21-41.66-47.05
				c-0.27-4.88-4.43-8.62-9.3-8.36c-0.84,0.05-1.67,0.21-2.46,0.49l-67.18,24.31c-1.08,0.39-2.07,0.99-2.92,1.77l-92.38,82.38
				c-3.54,3.37-3.68,8.96-0.32,12.5c0.11,0.11,0.21,0.22,0.32,0.32l37.99,38.4h24.51l-43.67-44.23l84.16-75.32l55.33-19.98
				c6.86,35.33,41.05,58.4,76.37,51.55c5.34-1.04,10.44-2.72,15.22-4.96H386.828z M252.968,883.581c-4.89,0-8.84,3.96-8.84,8.84
				v30.27h17.68v-30.27C261.808,887.541,257.848,883.581,252.968,883.581z M252.968,883.581c-4.89,0-8.84,3.96-8.84,8.84v30.27
				h17.68v-30.27C261.808,887.541,257.848,883.581,252.968,883.581z M252.968,883.581c-4.89,0-8.84,3.96-8.84,8.84v30.27h17.68
				v-30.27C261.808,887.541,257.848,883.581,252.968,883.581z M252.968,883.581c-4.89,0-8.84,3.96-8.84,8.84v30.27h17.68v-30.27
				C261.808,887.541,257.848,883.581,252.968,883.581z M252.968,883.581c-4.89,0-8.84,3.96-8.84,8.84v30.27h17.68v-30.27
				C261.808,887.541,257.848,883.581,252.968,883.581z M252.968,883.581c-4.89,0-8.84,3.96-8.84,8.84v30.27h17.68v-30.27
				C261.808,887.541,257.848,883.581,252.968,883.581z"/>
		</g>
	</g>
	<path style="fill:#C8000F;" d="M532.378,1098.078v55.74c0,4.88-3.96,8.84-8.84,8.84h-69.83v-18.12h60.72v-46.46H532.378z"/>
	<polygon style="fill:#C8000F;" points="257.142,928.57 257.142,982.07 239.812,982.07 239.812,964.51 204.252,928.57 
		228.762,928.57 239.462,939.41 239.462,928.57 	"/>
	<path style="fill:#C8000F;" d="M450.965,816.418c-6.34,8.33-14.64,15.08-24.23,19.56h-34.01v-11.82c2.01,0.24,4.12,0.38,6.33,0.42
		c11.81-0.19,20.72-3.44,27.42-8.16H450.965z"/>
	<rect x="267.535" y="928.57" style="fill:#C8000F;" width="6" height="6.563"/>
	<rect x="267.535" y="957.524" style="fill:#C8000F;" width="12" height="3.608"/>
	<rect x="194.448" y="928.57" style="fill:#C8000F;" width="3.087" height="6.563"/>
	<rect x="216.202" y="957.524" style="fill:#C8000F;" width="9.333" height="9.108"/>
	<rect x="478.202" y="1125.524" style="fill:#C8000F;" width="14.842" height="4.844"/>
	<rect x="498.202" y="1170.788" style="fill:#C8000F;" width="4" height="4.965"/>
	<rect x="386.833" y="806.191" style="fill:#C8000F;" width="10.035" height="2.667"/>
	<rect x="414.202" y="851.524" style="fill:#C8000F;" width="4.155" height="1.333"/>
	<rect x="450.965" y="829.753" style="fill:#C8000F;" width="5.903" height="12.847"/>
	<rect x="445.535" y="858.858" style="fill:#C8000F;" width="11.333" height="4"/>
	<rect x="447.868" y="1000.681" style="fill:#C8000F;" width="67.56" height="5.51"/>
</g>
</svg>
