<?xml version="1.0" encoding="utf-8"?>
<!-- Generator: Adobe Illustrator 19.0.0, SVG Export Plug-In . SVG Version: 6.00 Build 0)  -->
<svg version="1.1" id="Layer_1" xmlns="http://www.w3.org/2000/svg" xmlns:xlink="http://www.w3.org/1999/xlink" x="0px" y="0px"
	 viewBox="-119 481.5 959.5 959.5" style="enable-background:new -119 481.5 959.5 959.5;" xml:space="preserve">
<style type="text/css">
	.st0{fill:#FF93A2;}
	.st1{fill:#FECAFF;}
	.st2{fill:#C8000F;}
</style>
<title>schedule &amp;amp; registration</title>
<g>
	<g>
		<g>
			<path class="st0" d="M110.4,615l43-29C138.5,594.8,124.2,604.4,110.4,615z M-53,971c1,18.9,3.3,37.5,6.8,55.9L-53,971z
				 M154.3,615h-43.9c-14.5,11.1-28.2,23.2-41.3,36.3c-38.5,38.5-68.7,83.3-89.9,133.3c-21.9,51.7-33,106.6-33,163.2
				c0,7.8,0.2,15.5,0.6,23.2h25c-0.5-7.7-0.7-15.4-0.7-23.2C-28.7,808,44.4,685.1,154.3,615z M115.9,1284.6
				c3.8,2.9,7.7,5.6,11.7,8.4L115.9,1284.6z M-20.7,1026.9h-25.5c5.5,28.8,14,56.9,25.5,84.1c21.1,49.9,51.4,94.8,89.9,133.3
				c14.7,14.7,30.3,28.1,46.7,40.4V1272h25.6C59.5,1215.1,0,1128-20.7,1026.9z M752,784.5c-5.3-12.5-11.1-24.7-17.6-36.5h-28.9
				c28.2,47.8,46.6,102.1,52.5,160h25.1C779.1,865.4,768.7,824,752,784.5z M662.2,651.3c-38.5-38.5-83.4-68.7-133.3-89.9
				c-51.7-21.9-106.6-33-163.2-33c-56.6,0-111.5,11.1-163.2,33c-16.9,7.2-33.3,15.4-49,24.6h55.3c48.1-20.9,101.1-32.5,156.9-32.5
				c130.9,0,247.1,64.1,318.8,162.5h30.7C699.8,692.8,682.1,671.2,662.2,651.3z M759.3,971c-3.9,67.4-24.9,130.4-58.7,184.6
				c-5.3,8.6-11,16.9-16.9,25c-71.8,97.8-187.6,161.5-318,161.5c-69,0-133.9-17.8-190.4-49.1h-47.7c23.4,16.2,48.4,29.9,74.9,41.1
				c51.7,21.9,106.6,33,163.2,33c56.6,0,111.5-11.1,163.2-33c49.9-21.1,94.8-51.3,133.3-89.8c19.6-19.6,37.1-40.9,52.3-63.7
				c5.5-8.1,10.6-16.5,15.5-25c8.2-14.4,15.6-29.2,22.1-44.6c18.9-44.6,29.7-91.6,32.3-140H759.3z"/>
		</g>
		<path class="st0" d="M-33.4,1026.9H-59l-6.8-55.9h25C-39.6,990-37.2,1008.7-33.4,1026.9z"/>
		<path class="st0" d="M740.1,732h-28.9c-6.5-11-13.5-21.7-21-32h30.7C727.8,710.4,734.2,721,740.1,732z"/>
		<path class="st0" d="M798.5,941.6c0,7.8-0.2,15.5-0.6,23.2h-25c0.5-7.7,0.7-15.4,0.7-23.2c0-13.4-0.7-26.7-2-39.8h25.1
			C797.8,915,798.5,928.3,798.5,941.6z"/>
		<path class="st0" d="M785,908v39.8c0-13.4-0.6-26.6-1.9-39.8H785z"/>
		<path class="st0" d="M784.3,971c0.4-7.7,0.6-15.5,0.6-23.2V971H784.3z"/>
		<path class="st0" d="M214.2,593.2c-19,8.3-37.2,18-54.5,29h-43.9l43-29H214.2z"/>
		<path class="st0" d="M184,1282.5h-47.7l-11.7-8.4v-12.6h25.6C161.1,1269.1,172.4,1276.1,184,1282.5z"/>
		<path class="st0" d="M738.3,1205.9c-4.9,8.5-10,16.9-15.5,25h-30.8c6-8.1,11.6-16.4,16.9-25H738.3z"/>
		<path class="st0" d="M614.2,1037.3h-26.3c-4-10.7-9.6-20.6-16.5-29.4h30.2C606.9,1017.1,611.2,1027,614.2,1037.3z"/>
		<rect x="580.9" y="1045" class="st0" width="11.9" height="12"/>
		<rect x="607.5" y="1096.3" class="st0" width="15.4" height="8.1"/>
		<rect x="340.8" y="1212" class="st0" width="33.4" height="6.4"/>
		<rect x="-29.1" y="994" class="st0" width="12" height="4.9"/>
		<rect x="115.9" y="586" class="st0" width="19.7" height="11.1"/>
		<rect x="678.9" y="732" class="st0" width="7" height="34.8"/>
		<rect x="738.3" y="914" class="st0" width="17.6" height="13.9"/>
		<rect x="727.9" y="964.9" class="st0" width="10.4" height="19.1"/>
		<rect x="798.5" y="885" class="st0" width="20.4" height="7"/>
		<rect x="727.9" y="1174" class="st0" width="19.2" height="16"/>
		<rect x="678.9" y="1155.8" class="st0" width="43" height="13.3"/>
		<rect x="615.2" y="1227" class="st0" width="7.7" height="10"/>
		<rect x="557.9" y="1244" class="st0" width="23" height="7"/>
		<rect x="110.4" y="1311" class="st0" width="21.5" height="9"/>
		<rect x="86.9" y="1282.5" class="st0" width="10" height="19.5"/>
		<rect x="-77.1" y="1045" class="st0" width="11.3" height="12"/>
		<rect x="-82.1" y="947.8" class="st0" width="16.3" height="11.6"/>
		<rect x="153.5" y="1218.4" class="st0" width="11.6" height="8.6"/>
		<rect x="375.1" y="683" class="st0" width="13.9" height="11"/>
	</g>
	<g>
		<g>
			<path class="st1" d="M93.4,615l43-29C121.5,594.8,107.2,604.4,93.4,615z M-70,971c1,18.9,3.3,37.5,6.8,55.9L-70,971z M137.3,615
				H93.4c-14.5,11.1-28.2,23.2-41.3,36.3c-38.5,38.5-68.7,83.3-89.9,133.3c-21.9,51.7-33,106.6-33,163.2c0,7.8,0.2,15.5,0.6,23.2h25
				c-0.5-7.7-0.7-15.4-0.7-23.2C-45.7,808,27.4,685.1,137.3,615z M98.9,1284.6c3.8,2.9,7.7,5.6,11.7,8.4L98.9,1284.6z M-37.7,1026.9
				h-25.5c5.5,28.8,14,56.9,25.5,84.1c21.1,49.9,51.4,94.8,89.9,133.3c14.7,14.7,30.3,28.1,46.7,40.4V1272h25.6
				C42.5,1215.1-17,1128-37.7,1026.9z M735,784.5c-5.3-12.5-11.1-24.7-17.6-36.5h-28.9c28.2,47.8,46.6,102.1,52.5,160h25.1
				C762.1,865.4,751.7,824,735,784.5z M645.2,651.3c-38.5-38.5-83.4-68.7-133.3-89.9c-51.7-21.9-106.6-33-163.2-33
				c-56.6,0-111.5,11.1-163.2,33c-16.9,7.2-33.3,15.4-49,24.6h55.3c48.1-20.9,101.1-32.5,156.9-32.5c130.9,0,247.1,64.1,318.8,162.5
				h30.7C682.8,692.8,665.1,671.2,645.2,651.3z M742.3,971c-3.9,67.4-24.9,130.4-58.7,184.6c-5.3,8.6-11,16.9-16.9,25
				c-71.8,97.8-187.6,161.5-318,161.5c-69,0-133.9-17.8-190.4-49.1h-47.7c23.4,16.2,48.4,29.9,74.9,41.1
				c51.7,21.9,106.6,33,163.2,33c56.6,0,111.5-11.1,163.2-33c49.9-21.1,94.8-51.3,133.3-89.8c19.6-19.6,37.1-40.9,52.3-63.7
				c5.5-8.1,10.6-16.5,15.5-25c8.2-14.4,15.6-29.2,22.1-44.6c18.9-44.6,29.7-91.6,32.3-140H742.3z"/>
		</g>
		<path class="st1" d="M-50.4,1026.9H-76l-6.8-55.9h25C-56.6,990-54.2,1008.7-50.4,1026.9z"/>
		<path class="st1" d="M723.1,732h-28.9c-6.5-11-13.5-21.7-21-32h30.7C710.8,710.4,717.2,721,723.1,732z"/>
		<path class="st1" d="M781.5,941.6c0,7.8-0.2,15.5-0.6,23.2h-25c0.5-7.7,0.7-15.4,0.7-23.2c0-13.4-0.7-26.7-2-39.8h25.1
			C780.8,915,781.5,928.3,781.5,941.6z"/>
		<path class="st1" d="M768,908v39.8c0-13.4-0.6-26.6-1.9-39.8H768z"/>
		<path class="st1" d="M767.3,971c0.4-7.7,0.6-15.5,0.6-23.2V971H767.3z"/>
		<path class="st1" d="M197.2,593.2c-19,8.3-37.2,18-54.5,29H98.9l43-29H197.2z"/>
		<path class="st1" d="M167,1282.5h-47.7l-11.7-8.4v-12.6h25.6C144.1,1269.1,155.4,1276.1,167,1282.5z"/>
		<path class="st1" d="M721.3,1205.9c-4.9,8.5-10,16.9-15.5,25h-30.8c6-8.1,11.6-16.4,16.9-25H721.3z"/>
		<path class="st1" d="M597.2,1037.3h-26.3c-4-10.7-9.6-20.6-16.5-29.4h30.2C589.9,1017.1,594.2,1027,597.2,1037.3z"/>
		<rect x="563.9" y="1045" class="st1" width="11.9" height="12"/>
		<rect x="590.5" y="1096.3" class="st1" width="15.4" height="8.1"/>
		<rect x="323.8" y="1212" class="st1" width="33.4" height="6.4"/>
		<rect x="-46.1" y="994" class="st1" width="12" height="4.9"/>
		<rect x="98.9" y="586" class="st1" width="19.7" height="11.1"/>
		<rect x="661.9" y="732" class="st1" width="7" height="34.8"/>
		<rect x="721.3" y="914" class="st1" width="17.6" height="13.9"/>
		<rect x="710.9" y="964.9" class="st1" width="10.4" height="19.1"/>
		<rect x="781.5" y="885" class="st1" width="20.4" height="7"/>
		<rect x="710.9" y="1174" class="st1" width="19.2" height="16"/>
		<rect x="661.9" y="1155.8" class="st1" width="43" height="13.3"/>
		<rect x="598.2" y="1227" class="st1" width="7.7" height="10"/>
		<rect x="540.9" y="1244" class="st1" width="23" height="7"/>
		<rect x="93.4" y="1311" class="st1" width="21.5" height="9"/>
		<rect x="69.9" y="1282.5" class="st1" width="10" height="19.5"/>
		<rect x="-94.1" y="1045" class="st1" width="11.3" height="12"/>
		<rect x="-99.1" y="947.8" class="st1" width="16.3" height="11.6"/>
		<rect x="136.5" y="1218.4" class="st1" width="11.6" height="8.6"/>
		<rect x="358.1" y="683" class="st1" width="13.9" height="11"/>
	</g>
	<g>
		<g>
			<g>
				<path class="st0" d="M336.8,1028.8l-32.6,32.6c-1.6,1.6-3.7,2.4-5.8,2.4c-1.3,0-2.6-0.3-3.7-0.9c-0.7-0.4-1.4-0.9-2-1.5
					l-16.3-16.3c-3.2-3.2-3.2-8.4,0-11.5c3.2-3.2,8.4-3.2,11.5,0l10.5,10.5l8.2-8.2l18.7-18.7c3.2-3.2,8.4-3.2,11.5,0
					C340,1020.4,340,1025.6,336.8,1028.8z"/>
			</g>
		</g>
		<g>
			<g>
				<path class="st0" d="M336.8,925.5l-32.6,32.6c-1.6,1.6-3.7,2.4-5.8,2.4c-1.3,0-2.6-0.3-3.7-0.9c-0.7-0.4-1.4-0.9-2-1.5
					l-16.3-16.3c-3.2-3.2-3.2-8.4,0-11.5c3.2-3.2,8.4-3.2,11.5,0l10.5,10.5l8.2-8.1l18.7-18.7c3.2-3.2,8.4-3.2,11.5,0
					S340,922.3,336.8,925.5z"/>
			</g>
		</g>
		<g>
			<g>
				<path class="st0" d="M464.1,927.9h-20.5v18.8h-44.5c-7.3,0-13.2-5.9-13.2-13.2c0-7.3,5.9-13.2,13.2-13.2h52.9
					C457.4,920.2,462,923.3,464.1,927.9z"/>
			</g>
		</g>
		<g>
			<g>
				<path class="st0" d="M465.3,1039.3c0,7.3-5.9,13.2-13.2,13.2h-52.9c-7.3,0-13.2-5.9-13.2-13.2c0-7.3,5.9-13.2,13.2-13.2h43v11.2
					h23.1C465.3,1038,465.3,1038.6,465.3,1039.3z"/>
			</g>
		</g>
		<g>
			<g>
				<path class="st0" d="M491.8,787.9h-52.9v-13.2c0-7.3-5.9-13.2-13.2-13.2h-28.7c-5.5-15.4-20.2-26.5-37.4-26.5
					s-32,11.1-37.5,26.5h-21.4v40.9h-73.5v-14.4c-14.6,0-26.5,11.9-26.5,26.5V1132c0,14.6,11.9,26.5,26.5,26.5h216.5V1132H227.1
					V814.3H280v13.2c0,7.3,5.9,13.2,13.2,13.2h132.3c7.3,0,13.2-5.9,13.2-13.2v-13.2h52.9v113.5h26.5V814.3
					C518.3,799.8,506.4,787.9,491.8,787.9z M412.4,814.3H306.5v-26.5H333c7.3,0,13.2-5.9,13.2-13.2c0-7.3,5.9-13.2,13.2-13.2
					c7.3,0,13.2,5.9,13.2,13.2c0,7.3,5.9,13.2,13.2,13.2h26.5V814.3z M491.8,967.6v136.8h26.5V967.6H491.8z"/>
			</g>
		</g>
	</g>
	<path class="st0" d="M520.3,1109.5v27.5c0,14.6-11.9,26.5-26.5,26.5h-48.2V1137h48.2v-27.5H520.3z"/>
	<path class="st0" d="M473.3,935.4c0,7.3-5.9,13.2-13.2,13.2h-8.5v-18.8h20.5C472.9,931.6,473.3,933.5,473.3,935.4z"/>
	<rect x="499.8" y="929.9" class="st0" width="26.5" height="39.8"/>
	<path class="st0" d="M294.6,753v40.9h-73.5v-14.4H274v-13.2c0-7.3,5.9-13.2,13.2-13.2H294.6z"/>
	<path class="st0" d="M306.5,932.6v23.1l-2.4,2.4c-1.6,1.6-3.7,2.4-5.8,2.4c-1.3,0-2.6-0.3-3.7-0.9V937l3.7,3.7L306.5,932.6z"/>
	<path class="st0" d="M298.4,1044.1l8.2-8.2v23.1l-2.4,2.4c-1.6,1.6-3.7,2.4-5.8,2.4c-1.3,0-2.6-0.3-3.7-0.9v-22.5L298.4,1044.1z"/>
	<rect x="327.3" y="946.7" class="st0" width="3.7" height="3.1"/>
	<rect x="297.3" y="914" class="st0" width="6.7" height="0.3"/>
	<rect x="358.3" y="932.6" class="st0" width="4" height="5"/>
	<rect x="445.6" y="937.6" class="st0" width="2.7" height="4"/>
	<rect x="327.3" y="1029" class="st0" width="18" height="3.7"/>
	<rect x="325.6" y="1051" class="st0" width="3.5" height="3.3"/>
	<rect x="339.2" y="1065.3" class="st0" width="3.5" height="5.7"/>
	<rect x="373.6" y="954.6" class="st0" width="6.3" height="4"/>
	<rect x="437.3" y="951.6" class="st0" width="9.7" height="3"/>
	<rect x="483" y="941.6" class="st0" width="4.7" height="5"/>
	<rect x="372.3" y="995" class="st0" width="6" height="5"/>
	<rect x="448.3" y="1026.9" class="st0" width="6.6" height="3.9"/>
	<rect x="459.3" y="1029" class="st0" width="9.3" height="3.7"/>
	<rect x="262.3" y="896.3" class="st0" width="9.3" height="5"/>
	<rect x="267" y="796.3" class="st0" width="13.7" height="2.7"/>
	<rect x="246" y="796.3" class="st0" width="4.3" height="6"/>
	<g>
		<g>
			<path class="st2" d="M101.4,615l43-29C129.5,594.8,115.2,604.4,101.4,615z M-62,971c1,18.9,3.3,37.5,6.8,55.9L-62,971z
				 M145.3,615h-43.9c-14.5,11.1-28.2,23.2-41.3,36.3c-38.5,38.5-68.7,83.3-89.9,133.3c-21.9,51.7-33,106.6-33,163.2
				c0,7.8,0.2,15.5,0.6,23.2h25c-0.5-7.7-0.7-15.4-0.7-23.2C-37.7,808,35.4,685.1,145.3,615z M106.9,1284.6
				c3.8,2.9,7.7,5.6,11.7,8.4L106.9,1284.6z M-29.7,1026.9h-25.5c5.5,28.8,14,56.9,25.5,84.1c21.1,49.9,51.4,94.8,89.9,133.3
				c14.7,14.7,30.3,28.1,46.7,40.4V1272h25.6C50.5,1215.1-9,1128-29.7,1026.9z M743,784.5c-5.3-12.5-11.1-24.7-17.6-36.5h-28.9
				c28.2,47.8,46.6,102.1,52.5,160h25.1C770.1,865.4,759.7,824,743,784.5z M653.2,651.3c-38.5-38.5-83.4-68.7-133.3-89.9
				c-51.7-21.9-106.6-33-163.2-33c-56.6,0-111.5,11.1-163.2,33c-16.9,7.2-33.3,15.4-49,24.6h55.3c48.1-20.9,101.1-32.5,156.9-32.5
				c130.9,0,247.1,64.1,318.8,162.5h30.7C690.8,692.8,673.1,671.2,653.2,651.3z M750.3,971c-3.9,67.4-24.9,130.4-58.7,184.6
				c-5.3,8.6-11,16.9-16.9,25c-71.8,97.8-187.6,161.5-318,161.5c-69,0-133.9-17.8-190.4-49.1h-47.7c23.4,16.2,48.4,29.9,74.9,41.1
				c51.7,21.9,106.6,33,163.2,33c56.6,0,111.5-11.1,163.2-33c49.9-21.1,94.8-51.3,133.3-89.8c19.6-19.6,37.1-40.9,52.3-63.7
				c5.5-8.1,10.6-16.5,15.5-25c8.2-14.4,15.6-29.2,22.1-44.6c18.9-44.6,29.7-91.6,32.3-140H750.3z"/>
		</g>
		<path class="st2" d="M-42.4,1026.9H-68l-6.8-55.9h25C-48.6,990-46.2,1008.7-42.4,1026.9z"/>
		<path class="st2" d="M731.1,732h-28.9c-6.5-11-13.5-21.7-21-32h30.7C718.8,710.4,725.2,721,731.1,732z"/>
		<path class="st2" d="M789.5,941.6c0,7.8-0.2,15.5-0.6,23.2h-25c0.5-7.7,0.7-15.4,0.7-23.2c0-13.4-0.7-26.7-2-39.8h25.1
			C788.8,915,789.5,928.3,789.5,941.6z"/>
		<path class="st2" d="M776,908v39.8c0-13.4-0.6-26.6-1.9-39.8H776z"/>
		<path class="st2" d="M775.3,971c0.4-7.7,0.6-15.5,0.6-23.2V971H775.3z"/>
		<path class="st2" d="M205.2,593.2c-19,8.3-37.2,18-54.5,29h-43.9l43-29H205.2z"/>
		<path class="st2" d="M175,1282.5h-47.7l-11.7-8.4v-12.6h25.6C152.1,1269.1,163.4,1276.1,175,1282.5z"/>
		<path class="st2" d="M729.3,1205.9c-4.9,8.5-10,16.9-15.5,25h-30.8c6-8.1,11.6-16.4,16.9-25H729.3z"/>
		<path class="st2" d="M605.2,1037.3h-26.3c-4-10.7-9.6-20.6-16.5-29.4h30.2C597.9,1017.1,602.2,1027,605.2,1037.3z"/>
		<rect x="571.9" y="1045" class="st2" width="11.9" height="12"/>
		<rect x="598.5" y="1096.3" class="st2" width="15.4" height="8.1"/>
		<rect x="331.8" y="1212" class="st2" width="33.4" height="6.4"/>
		<rect x="-38.1" y="994" class="st2" width="12" height="4.9"/>
		<rect x="106.9" y="586" class="st2" width="19.7" height="11.1"/>
		<rect x="669.9" y="732" class="st2" width="7" height="34.8"/>
		<rect x="729.3" y="914" class="st2" width="17.6" height="13.9"/>
		<rect x="718.9" y="964.9" class="st2" width="10.4" height="19.1"/>
		<rect x="789.5" y="885" class="st2" width="20.4" height="7"/>
		<rect x="718.9" y="1174" class="st2" width="19.2" height="16"/>
		<rect x="669.9" y="1155.8" class="st2" width="43" height="13.3"/>
		<rect x="606.2" y="1227" class="st2" width="7.7" height="10"/>
		<rect x="548.9" y="1244" class="st2" width="23" height="7"/>
		<rect x="101.4" y="1311" class="st2" width="21.5" height="9"/>
		<rect x="77.9" y="1282.5" class="st2" width="10" height="19.5"/>
		<rect x="-86.1" y="1045" class="st2" width="11.3" height="12"/>
		<rect x="-91.1" y="947.8" class="st2" width="16.3" height="11.6"/>
		<rect x="144.5" y="1218.4" class="st2" width="11.6" height="8.6"/>
		<rect x="366.1" y="683" class="st2" width="13.9" height="11"/>
	</g>
	<g>
		<g>
			<g>
				<path class="st2" d="M328.8,1028.8l-32.6,32.6c-1.6,1.6-3.7,2.4-5.8,2.4c-1.3,0-2.6-0.3-3.7-0.9c-0.7-0.4-1.4-0.9-2-1.5
					l-16.3-16.3c-3.2-3.2-3.2-8.4,0-11.5c3.2-3.2,8.4-3.2,11.5,0l10.5,10.5l8.2-8.2l18.7-18.7c3.2-3.2,8.4-3.2,11.5,0
					C332,1020.4,332,1025.6,328.8,1028.8z"/>
			</g>
		</g>
		<g>
			<g>
				<path class="st2" d="M328.8,925.5l-32.6,32.6c-1.6,1.6-3.7,2.4-5.8,2.4c-1.3,0-2.6-0.3-3.7-0.9c-0.7-0.4-1.4-0.9-2-1.5
					l-16.3-16.3c-3.2-3.2-3.2-8.4,0-11.5c3.2-3.2,8.4-3.2,11.5,0l10.5,10.5l8.2-8.1l18.7-18.7c3.2-3.2,8.4-3.2,11.5,0
					S332,922.3,328.8,925.5z"/>
			</g>
		</g>
		<g>
			<g>
				<path class="st2" d="M456.1,927.9h-20.5v18.8h-44.5c-7.3,0-13.2-5.9-13.2-13.2c0-7.3,5.9-13.2,13.2-13.2h52.9
					C449.4,920.2,454,923.3,456.1,927.9z"/>
			</g>
		</g>
		<g>
			<g>
				<path class="st2" d="M457.3,1039.3c0,7.3-5.9,13.2-13.2,13.2h-52.9c-7.3,0-13.2-5.9-13.2-13.2c0-7.3,5.9-13.2,13.2-13.2h43v11.2
					h23.1C457.3,1038,457.3,1038.6,457.3,1039.3z"/>
			</g>
		</g>
		<g>
			<g>
				<path class="st2" d="M483.8,787.9h-52.9v-13.2c0-7.3-5.9-13.2-13.2-13.2h-28.7c-5.5-15.4-20.2-26.5-37.4-26.5
					s-32,11.1-37.5,26.5h-21.4v40.9h-73.5v-14.4c-14.6,0-26.5,11.9-26.5,26.5V1132c0,14.6,11.9,26.5,26.5,26.5h216.5V1132H219.1
					V814.3H272v13.2c0,7.3,5.9,13.2,13.2,13.2h132.3c7.3,0,13.2-5.9,13.2-13.2v-13.2h52.9v113.5h26.5V814.3
					C510.3,799.8,498.4,787.9,483.8,787.9z M404.4,814.3H298.5v-26.5H325c7.3,0,13.2-5.9,13.2-13.2c0-7.3,5.9-13.2,13.2-13.2
					c7.3,0,13.2,5.9,13.2,13.2c0,7.3,5.9,13.2,13.2,13.2h26.5V814.3z M483.8,967.6v136.8h26.5V967.6H483.8z"/>
			</g>
		</g>
	</g>
	<path class="st2" d="M512.3,1109.5v27.5c0,14.6-11.9,26.5-26.5,26.5h-48.2V1137h48.2v-27.5H512.3z"/>
	<path class="st2" d="M465.3,935.4c0,7.3-5.9,13.2-13.2,13.2h-8.5v-18.8h20.5C464.9,931.6,465.3,933.5,465.3,935.4z"/>
	<rect x="491.8" y="929.9" class="st2" width="26.5" height="39.8"/>
	<path class="st2" d="M286.6,753v40.9h-73.5v-14.4H266v-13.2c0-7.3,5.9-13.2,13.2-13.2H286.6z"/>
	<path class="st2" d="M298.5,932.6v23.1l-2.4,2.4c-1.6,1.6-3.7,2.4-5.8,2.4c-1.3,0-2.6-0.3-3.7-0.9V937l3.7,3.7L298.5,932.6z"/>
	<path class="st2" d="M290.4,1044.1l8.2-8.2v23.1l-2.4,2.4c-1.6,1.6-3.7,2.4-5.8,2.4c-1.3,0-2.6-0.3-3.7-0.9v-22.5L290.4,1044.1z"/>
	<rect x="319.3" y="946.7" class="st2" width="3.7" height="3.1"/>
	<rect x="289.3" y="914" class="st2" width="6.7" height="0.3"/>
	<rect x="350.3" y="932.6" class="st2" width="4" height="5"/>
	<rect x="437.6" y="937.6" class="st2" width="2.7" height="4"/>
	<rect x="319.3" y="1029" class="st2" width="18" height="3.7"/>
	<rect x="317.6" y="1051" class="st2" width="3.5" height="3.3"/>
	<rect x="331.2" y="1065.3" class="st2" width="3.5" height="5.7"/>
	<rect x="365.6" y="954.6" class="st2" width="6.3" height="4"/>
	<rect x="429.3" y="951.6" class="st2" width="9.7" height="3"/>
	<rect x="475" y="941.6" class="st2" width="4.7" height="5"/>
	<rect x="364.3" y="995" class="st2" width="6" height="5"/>
	<rect x="440.3" y="1026.9" class="st2" width="6.6" height="3.9"/>
	<rect x="451.3" y="1029" class="st2" width="9.3" height="3.7"/>
	<rect x="254.3" y="896.3" class="st2" width="9.3" height="5"/>
	<rect x="259" y="796.3" class="st2" width="13.7" height="2.7"/>
	<rect x="238" y="796.3" class="st2" width="4.3" height="6"/>
</g>
</svg>
