<?xml version="1.0" encoding="utf-8"?>
<!-- Generator: Adobe Illustrator 19.0.0, SVG Export Plug-In . SVG Version: 6.00 Build 0)  -->
<svg version="1.1" id="Layer_1" xmlns="http://www.w3.org/2000/svg" xmlns:xlink="http://www.w3.org/1999/xlink" x="0px" y="0px"
	 viewBox="-119 481.5 959.5 959.5" style="enable-background:new -119 481.5 959.5 959.5;" xml:space="preserve">
<style type="text/css">
	.st0{fill:#FF93A2;}
	.st1{fill:#FECAFF;}
	.st2{fill:#C8000F;}
</style>
<g>
	<title>about us</title>
	<g>
		<g>
			<path class="st0" d="M115.3,628.5l43-29C143.4,608.2,129,617.9,115.3,628.5z M-48.2,984.5c1,18.9,3.3,37.5,6.8,55.9L-48.2,984.5z
				 M159.2,628.5h-43.9c-14.5,11.1-28.2,23.2-41.3,36.3C35.5,703.3,5.3,748.1-15.8,798c-21.9,51.7-33,106.6-33,163.2
				c0,7.8,0.2,15.5,0.6,23.2h25c-0.5-7.7-0.7-15.4-0.7-23.2C-23.8,821.5,49.2,698.5,159.2,628.5z M120.7,1298.1
				c3.8,2.9,7.7,5.6,11.7,8.4L120.7,1298.1z M-15.8,1040.3h-25.6c5.5,28.8,14,56.9,25.5,84.1c21.1,49.9,51.4,94.8,89.9,133.3
				c14.7,14.7,30.3,28.2,46.7,40.4v-12.6h25.6C64.3,1228.6,4.8,1141.5-15.8,1040.3z M756.9,798c-5.3-12.5-11.1-24.7-17.6-36.5h-28.9
				c28.2,47.8,46.6,102.1,52.5,160H788C784,878.9,773.6,837.5,756.9,798z M667,664.8c-38.5-38.5-83.4-68.7-133.3-89.9
				c-51.7-21.9-106.6-33-163.2-33S259,553,207.3,574.9c-16.9,7.2-33.3,15.4-49,24.6h55.3c48.1-20.9,101.1-32.5,156.9-32.5
				c130.9,0,247.1,64.1,318.8,162.5H720C704.7,706.3,686.9,684.7,667,664.8z M764.1,984.5c-3.9,67.4-24.9,130.4-58.7,184.6
				c-5.3,8.6-11,16.9-16.9,25c-71.8,97.8-187.6,161.5-318.1,161.5c-69,0-133.9-17.8-190.4-49.1h-47.7c23.4,16.2,48.4,29.9,74.9,41.1
				c51.7,21.9,106.6,33,163.2,33s111.5-11.1,163.2-33c49.9-21.1,94.8-51.3,133.3-89.8c19.6-19.6,37.1-40.9,52.3-63.7
				c5.5-8.1,10.6-16.5,15.5-25c8.2-14.4,15.6-29.2,22.1-44.6c18.9-44.6,29.7-91.6,32.3-140H764.1z"/>
		</g>
		<path class="st0" d="M499.8,1127.5c-4.5,11.6-9.1,17.3-14,17.3c-1.6,0-2.3-0.8-2.3-2.5c0-0.9,0.2-1.8,0.4-2.6
			c0.3-1.2,0.4-1.9,0.5-2.2l14.1-55.7h-4.3l-5.8,0.6c-4.4,0.4-8.5,0.6-12.4,0.6h-12l-1.3,5.4h10.9l-11.8,44.9
			c-0.8,2.9-1.3,5.9-1.4,8.9c0,7.8,5.5,11.7,16.5,11.7c12.6,0,21.8-7.7,27.7-23.1L499.8,1127.5z M490.1,1040.3c-3.4,0-6.6,1.3-9,3.7
			c-2.4,2.3-3.8,5.5-3.7,8.8c0,7,5.7,12.7,12.7,12.7c3.3,0,6.5-1.3,8.8-3.8c2.4-2.4,3.7-5.6,3.7-9
			C502.5,1046,496.9,1040.4,490.1,1040.3z"/>
		<g>
			<path class="st0" d="M607.1,1065.5h-26.3c4.3,11.7,6.7,24.4,6.7,37.6c0,59.8-48.6,108.4-108.4,108.4s-108.4-48.7-108.4-108.4
				c0-59.8,48.6-108.4,108.4-108.4c34.5,0,65.3,16.2,85.2,41.4h30.2c-23.1-39.7-66.2-66.4-115.4-66.4
				c-73.6,0-133.4,59.9-133.4,133.4c0,73.6,59.9,133.4,133.4,133.4c73.6,0,133.4-59.9,133.4-133.4
				C612.5,1090.1,610.6,1077.5,607.1,1065.5z"/>
		</g>
		<g>
			<path class="st0" d="M286.5,685.9c-52,0-94.3,42.3-94.3,94.4c0,52,42.3,94.3,94.3,94.3c32.3,0,60.9-16.3,77.9-41.1h-33.5
				c-12,10.1-27.5,16.1-44.4,16.1c-38.2,0-69.3-31.1-69.3-69.3s31.1-69.4,69.3-69.4s69.3,31.1,69.3,69.4c0,13.3-3.8,25.7-10.2,36.2
				h28c4.7-11.2,7.2-23.4,7.2-36.2C380.8,728.2,338.5,685.9,286.5,685.9z M373.6,816.5l-9.3,17C368,828.2,371.1,822.5,373.6,816.5z"
				/>
		</g>
		<g>
			<path class="st0" d="M438.3,992.5c-4-14-9.9-27.2-17.4-39.3c-4.5-7.3-9.5-14.2-15.2-20.6v7.8h-27.3c4.2,4,8.1,8.3,11.8,12.8
				c8.7,10.8,15.8,23.1,20.9,36.6c-7.1,4.1-16.7,10.7-26.5,20.4c-22.4,22.4-35.8,52.1-38.9,85.9c0,0.1,0,0.3,0,0.4
				c-0.1,1.3-1,21.4,6.9,47h26.5c-8.8-23.6-8.4-43.5-8.4-45.5c6-65.5,54.8-88.1,60.4-90.5c0.5-0.2,2-0.9,3.5-2.2
				C438.2,1002.1,439.6,997.1,438.3,992.5z M153.5,1036.1c0-73.3,59.6-132.9,132.9-132.9c24.1,0,47.1,6.6,67,18.3h41.7
				c-4.3-4.1-8.9-7.9-13.7-11.5c-27.6-20.8-60.5-31.8-95-31.8c-87.1,0-157.9,70.8-157.9,157.9v145.5c0,6.9,5.6,12.5,12.5,12.5h177.7
				v-25H153.5V1036.1z M395.6,1174.1c-6.5-8.6-11.3-17.4-14.8-26v46h4.8c4.7,0,9.1-2.7,11.2-6.9
				C399,1182.9,398.5,1177.8,395.6,1174.1z"/>
		</g>
		<path class="st0" d="M420.9,953.1h-30.7c-7.9-9.8-17.1-18.5-27.4-25.7h38.3C408.7,935.4,415.3,944,420.9,953.1z"/>
		<path class="st0" d="M376.6,1173.4v46h-62v-25h44.3c-4.6-8.8-8-17.5-10.5-25.6h26.5C375.4,1170.3,376,1171.8,376.6,1173.4z"/>
		<path class="st0" d="M380.8,1143.5v4.6c-0.6-1.5-1.3-3.1-1.8-4.6H380.8z"/>
		<path class="st0" d="M-28.6,1040.3h-25.5l-6.8-55.9h25C-34.8,1003.5-32.3,1022.1-28.6,1040.3z"/>
		<path class="st0" d="M745,745.5h-28.9c-6.5-11-13.5-21.7-21-32h30.7C732.6,723.8,739.1,734.5,745,745.5z"/>
		<path class="st0" d="M803.3,955.1c0,7.8-0.2,15.5-0.6,23.2h-25c0.5-7.7,0.7-15.4,0.7-23.2c0-13.4-0.7-26.7-2-39.8h25.1
			C802.7,928.5,803.3,941.8,803.3,955.1z"/>
		<path class="st0" d="M789.8,921.5v39.8c0-13.4-0.6-26.6-1.9-39.8H789.8z"/>
		<path class="st0" d="M789.2,984.5c0.4-7.7,0.6-15.5,0.6-23.2v23.2H789.2z"/>
		<path class="st0" d="M219.1,606.7c-19,8.3-37.2,18-54.5,29h-43.9l43-29H219.1z"/>
		<path class="st0" d="M188.9,1296h-47.7l-11.7-8.4V1275h25.6C165.9,1282.5,177.2,1289.6,188.9,1296z"/>
		<path class="st0" d="M743.1,1219.4c-4.9,8.5-10,16.9-15.5,25h-30.8c6-8.1,11.6-16.4,16.9-25H743.1z"/>
		<path class="st0" d="M619.1,1050.8h-26.3c-4-10.7-9.6-20.6-16.5-29.4h30.2C611.7,1030.6,616,1040.5,619.1,1050.8z"/>
		<path class="st0" d="M378.4,970.7h-86.7v-18.8h61.7c3.2,1.9,6.3,3.9,9.3,6C368.3,961.7,373.6,966,378.4,970.7z"/>
		<path class="st0" d="M405.7,921.5v11c-1.5-1.7-3-3.4-4.6-5c-2-2-4-4.1-6-6H405.7z"/>
		<path class="st0" d="M373.6,825l-9.3,17h-33.5c5.8-4.8,10.7-10.6,14.7-17H373.6z"/>
		<rect x="389.5" y="890.5" class="st0" width="10.9" height="3"/>
		<rect x="389.5" y="813.5" class="st0" width="8.7" height="16"/>
		<rect x="389.5" y="852.5" class="st0" width="5.5" height="6"/>
		<rect x="314.6" y="996.5" class="st0" width="16.3" height="1"/>
		<rect x="526.7" y="1065.5" class="st0" width="13" height="5"/>
		<rect x="468.3" y="1108.1" class="st0" width="22.5" height="3.4"/>
		<rect x="585.7" y="1058.5" class="st0" width="11.9" height="12"/>
		<rect x="612.3" y="1109.8" class="st0" width="15.4" height="8.1"/>
		<rect x="335.1" y="1182.5" class="st0" width="17.1" height="5"/>
		<rect x="345.6" y="1225.5" class="st0" width="33.4" height="6.4"/>
		<rect x="-24.3" y="1007.5" class="st0" width="12" height="4.9"/>
		<rect x="120.7" y="599.5" class="st0" width="19.7" height="11.1"/>
		<rect x="683.7" y="745.5" class="st0" width="7" height="34.8"/>
		<rect x="743.1" y="927.5" class="st0" width="17.6" height="13.9"/>
		<rect x="732.7" y="978.4" class="st0" width="10.4" height="19.1"/>
		<rect x="803.3" y="898.5" class="st0" width="20.4" height="7"/>
		<rect x="732.7" y="1187.5" class="st0" width="19.2" height="16"/>
		<rect x="683.7" y="1169.2" class="st0" width="43" height="13.3"/>
		<rect x="620" y="1240.5" class="st0" width="7.7" height="10"/>
		<rect x="562.7" y="1257.5" class="st0" width="23" height="7"/>
		<rect x="115.3" y="1324.5" class="st0" width="21.5" height="9"/>
		<rect x="91.7" y="1296" class="st0" width="10" height="19.5"/>
		<rect x="-72.3" y="1058.5" class="st0" width="11.3" height="12"/>
		<rect x="-77.3" y="961.2" class="st0" width="16.3" height="11.6"/>
		<rect x="253.7" y="745.5" class="st0" width="8.1" height="4"/>
		<rect x="257.8" y="800.5" class="st0" width="13" height="13"/>
		<rect x="295.7" y="761.5" class="st0" width="12" height="27"/>
		<rect x="176.7" y="1007.5" class="st0" width="12.1" height="28.6"/>
		<rect x="182.8" y="1064.5" class="st0" width="26.9" height="6"/>
		<rect x="158.3" y="1231.9" class="st0" width="11.6" height="8.6"/>
		<rect x="379.9" y="696.5" class="st0" width="13.9" height="11"/>
		<rect x="443.7" y="761.5" class="st0" width="16.5" height="13.5"/>
		<rect x="526.7" y="874.6" class="st0" width="24" height="8.9"/>
	</g>
	<g>
		<g>
			<path class="st1" d="M93.3,628.5l43-29C121.4,608.2,107,617.9,93.3,628.5z M-70.2,984.5c1,18.9,3.3,37.5,6.8,55.9L-70.2,984.5z
				 M137.2,628.5H93.3c-14.5,11.1-28.2,23.2-41.3,36.3C13.5,703.3-16.7,748.1-37.8,798c-21.9,51.7-33,106.6-33,163.2
				c0,7.8,0.2,15.5,0.6,23.2h25c-0.5-7.7-0.7-15.4-0.7-23.2C-45.8,821.5,27.2,698.5,137.2,628.5z M98.7,1298.1
				c3.8,2.9,7.7,5.6,11.7,8.4L98.7,1298.1z M-37.8,1040.3h-25.6c5.5,28.8,14,56.9,25.5,84.1c21.1,49.9,51.4,94.8,89.9,133.3
				c14.7,14.7,30.3,28.2,46.7,40.4v-12.6h25.6C42.3,1228.6-17.2,1141.5-37.8,1040.3z M734.9,798c-5.3-12.5-11.1-24.7-17.6-36.5
				h-28.9c28.2,47.8,46.6,102.1,52.5,160H766C762,878.9,751.6,837.5,734.9,798z M645,664.8c-38.5-38.5-83.4-68.7-133.3-89.9
				c-51.7-21.9-106.6-33-163.2-33S237,553,185.3,574.9c-16.9,7.2-33.3,15.4-49,24.6h55.3c48.1-20.9,101.1-32.5,156.9-32.5
				c130.9,0,247.1,64.1,318.8,162.5H698C682.7,706.3,664.9,684.7,645,664.8z M742.1,984.5c-3.9,67.4-24.9,130.4-58.7,184.6
				c-5.3,8.6-11,16.9-16.9,25c-71.8,97.8-187.6,161.5-318.1,161.5c-69,0-133.9-17.8-190.4-49.1h-47.7c23.4,16.2,48.4,29.9,74.9,41.1
				c51.7,21.9,106.6,33,163.2,33s111.5-11.1,163.2-33c49.9-21.1,94.8-51.3,133.3-89.8c19.6-19.6,37.1-40.9,52.3-63.7
				c5.5-8.1,10.6-16.5,15.5-25c8.2-14.4,15.6-29.2,22.1-44.6c18.9-44.6,29.7-91.6,32.3-140H742.1z"/>
		</g>
		<path class="st1" d="M477.8,1127.5c-4.5,11.6-9.1,17.3-14,17.3c-1.6,0-2.3-0.8-2.3-2.5c0-0.9,0.2-1.8,0.4-2.6
			c0.3-1.2,0.4-1.9,0.5-2.2l14.1-55.7h-4.3l-5.8,0.6c-4.4,0.4-8.5,0.6-12.4,0.6h-12l-1.3,5.4h10.9l-11.8,44.9
			c-0.8,2.9-1.3,5.9-1.4,8.9c0,7.8,5.5,11.7,16.5,11.7c12.6,0,21.8-7.7,27.7-23.1L477.8,1127.5z M468.1,1040.3c-3.4,0-6.6,1.3-9,3.7
			c-2.4,2.3-3.8,5.5-3.7,8.8c0,7,5.7,12.7,12.7,12.7c3.3,0,6.5-1.3,8.8-3.8c2.4-2.4,3.7-5.6,3.7-9
			C480.5,1046,474.9,1040.4,468.1,1040.3z"/>
		<g>
			<path class="st1" d="M585.1,1065.5h-26.3c4.3,11.7,6.7,24.4,6.7,37.6c0,59.8-48.6,108.4-108.4,108.4s-108.4-48.7-108.4-108.4
				c0-59.8,48.6-108.4,108.4-108.4c34.5,0,65.3,16.2,85.2,41.4h30.2c-23.1-39.7-66.2-66.4-115.4-66.4
				c-73.6,0-133.4,59.9-133.4,133.4c0,73.6,59.9,133.4,133.4,133.4c73.6,0,133.4-59.9,133.4-133.4
				C590.5,1090.1,588.6,1077.5,585.1,1065.5z"/>
		</g>
		<g>
			<path class="st1" d="M264.5,685.9c-52,0-94.3,42.3-94.3,94.4c0,52,42.3,94.3,94.3,94.3c32.3,0,60.9-16.3,77.9-41.1h-33.5
				c-12,10.1-27.5,16.1-44.4,16.1c-38.2,0-69.3-31.1-69.3-69.3s31.1-69.4,69.3-69.4s69.3,31.1,69.3,69.4c0,13.3-3.8,25.7-10.2,36.2
				h28c4.7-11.2,7.2-23.4,7.2-36.2C358.8,728.2,316.5,685.9,264.5,685.9z M351.6,816.5l-9.3,17C346,828.2,349.1,822.5,351.6,816.5z"
				/>
		</g>
		<g>
			<path class="st1" d="M416.3,992.5c-4-14-9.9-27.2-17.4-39.3c-4.5-7.3-9.5-14.2-15.2-20.6v7.8h-27.3c4.2,4,8.1,8.3,11.8,12.8
				c8.7,10.8,15.8,23.1,20.9,36.6c-7.1,4.1-16.7,10.7-26.5,20.4c-22.4,22.4-35.8,52.1-38.9,85.9c0,0.1,0,0.3,0,0.4
				c-0.1,1.3-1,21.4,6.9,47h26.5c-8.8-23.6-8.4-43.5-8.4-45.5c6-65.5,54.8-88.1,60.4-90.5c0.5-0.2,2-0.9,3.5-2.2
				C416.2,1002.1,417.6,997.1,416.3,992.5z M131.5,1036.1c0-73.3,59.6-132.9,132.9-132.9c24.1,0,47.1,6.6,67,18.3h41.7
				c-4.3-4.1-8.9-7.9-13.7-11.5c-27.6-20.8-60.5-31.8-95-31.8c-87.1,0-157.9,70.8-157.9,157.9v145.5c0,6.9,5.6,12.5,12.5,12.5h177.7
				v-25H131.5V1036.1z M373.6,1174.1c-6.5-8.6-11.3-17.4-14.8-26v46h4.8c4.7,0,9.1-2.7,11.2-6.9
				C377,1182.9,376.5,1177.8,373.6,1174.1z"/>
		</g>
		<path class="st1" d="M398.9,953.1h-30.7c-7.9-9.8-17.1-18.5-27.4-25.7h38.3C386.7,935.4,393.3,944,398.9,953.1z"/>
		<path class="st1" d="M354.6,1173.4v46h-62v-25h44.3c-4.6-8.8-8-17.5-10.5-25.6h26.5C353.4,1170.3,354,1171.8,354.6,1173.4z"/>
		<path class="st1" d="M358.8,1143.5v4.6c-0.6-1.5-1.3-3.1-1.8-4.6H358.8z"/>
		<path class="st1" d="M-50.6,1040.3h-25.5l-6.8-55.9h25C-56.8,1003.5-54.3,1022.1-50.6,1040.3z"/>
		<path class="st1" d="M723,745.5h-28.9c-6.5-11-13.5-21.7-21-32h30.7C710.6,723.8,717.1,734.5,723,745.5z"/>
		<path class="st1" d="M781.3,955.1c0,7.8-0.2,15.5-0.6,23.2h-25c0.5-7.7,0.7-15.4,0.7-23.2c0-13.4-0.7-26.7-2-39.8h25.1
			C780.7,928.5,781.3,941.8,781.3,955.1z"/>
		<path class="st1" d="M767.8,921.5v39.8c0-13.4-0.6-26.6-1.9-39.8H767.8z"/>
		<path class="st1" d="M767.2,984.5c0.4-7.7,0.6-15.5,0.6-23.2v23.2H767.2z"/>
		<path class="st1" d="M197.1,606.7c-19,8.3-37.2,18-54.5,29H98.7l43-29H197.1z"/>
		<path class="st1" d="M166.9,1296h-47.7l-11.7-8.4V1275h25.6C143.9,1282.5,155.2,1289.6,166.9,1296z"/>
		<path class="st1" d="M721.1,1219.4c-4.9,8.5-10,16.9-15.5,25h-30.8c6-8.1,11.6-16.4,16.9-25H721.1z"/>
		<path class="st1" d="M597.1,1050.8h-26.3c-4-10.7-9.6-20.6-16.5-29.4h30.2C589.7,1030.6,594,1040.5,597.1,1050.8z"/>
		<path class="st1" d="M356.4,970.7h-86.7v-18.8h61.7c3.2,1.9,6.3,3.9,9.3,6C346.3,961.7,351.6,966,356.4,970.7z"/>
		<path class="st1" d="M383.7,921.5v11c-1.5-1.7-3-3.4-4.6-5c-2-2-4-4.1-6-6H383.7z"/>
		<path class="st1" d="M351.6,825l-9.3,17h-33.5c5.8-4.8,10.7-10.6,14.7-17H351.6z"/>
		<rect x="367.5" y="890.5" class="st1" width="10.9" height="3"/>
		<rect x="367.5" y="813.5" class="st1" width="8.7" height="16"/>
		<rect x="367.5" y="852.5" class="st1" width="5.5" height="6"/>
		<rect x="292.6" y="996.5" class="st1" width="16.3" height="1"/>
		<rect x="504.7" y="1065.5" class="st1" width="13" height="5"/>
		<rect x="446.3" y="1108.1" class="st1" width="22.5" height="3.4"/>
		<rect x="563.7" y="1058.5" class="st1" width="11.9" height="12"/>
		<rect x="590.3" y="1109.8" class="st1" width="15.4" height="8.1"/>
		<rect x="313.1" y="1182.5" class="st1" width="17.1" height="5"/>
		<rect x="323.6" y="1225.5" class="st1" width="33.4" height="6.4"/>
		<rect x="-46.3" y="1007.5" class="st1" width="12" height="4.9"/>
		<rect x="98.7" y="599.5" class="st1" width="19.7" height="11.1"/>
		<rect x="661.7" y="745.5" class="st1" width="7" height="34.8"/>
		<rect x="721.1" y="927.5" class="st1" width="17.6" height="13.9"/>
		<rect x="710.7" y="978.4" class="st1" width="10.4" height="19.1"/>
		<rect x="781.3" y="898.5" class="st1" width="20.4" height="7"/>
		<rect x="710.7" y="1187.5" class="st1" width="19.2" height="16"/>
		<rect x="661.7" y="1169.2" class="st1" width="43" height="13.3"/>
		<rect x="598" y="1240.5" class="st1" width="7.7" height="10"/>
		<rect x="540.7" y="1257.5" class="st1" width="23" height="7"/>
		<rect x="93.3" y="1324.5" class="st1" width="21.5" height="9"/>
		<rect x="69.7" y="1296" class="st1" width="10" height="19.5"/>
		<rect x="-94.3" y="1058.5" class="st1" width="11.3" height="12"/>
		<rect x="-99.3" y="961.2" class="st1" width="16.3" height="11.6"/>
		<rect x="231.7" y="745.5" class="st1" width="8.1" height="4"/>
		<rect x="235.8" y="800.5" class="st1" width="13" height="13"/>
		<rect x="273.7" y="761.5" class="st1" width="12" height="27"/>
		<rect x="154.7" y="1007.5" class="st1" width="12.1" height="28.6"/>
		<rect x="160.8" y="1064.5" class="st1" width="26.9" height="6"/>
		<rect x="136.3" y="1231.9" class="st1" width="11.6" height="8.6"/>
		<rect x="357.9" y="696.5" class="st1" width="13.9" height="11"/>
		<rect x="421.7" y="761.5" class="st1" width="16.5" height="13.5"/>
		<rect x="504.7" y="874.6" class="st1" width="24" height="8.9"/>
	</g>
	<g>
		<g>
			<path class="st2" d="M103.3,628.5l43-29C131.4,608.2,117,617.9,103.3,628.5z M-60.2,984.5c1,18.9,3.3,37.5,6.8,55.9L-60.2,984.5z
				 M147.2,628.5h-43.9c-14.5,11.1-28.2,23.2-41.3,36.3C23.5,703.3-6.7,748.1-27.8,798c-21.9,51.7-33,106.6-33,163.2
				c0,7.8,0.2,15.5,0.6,23.2h25c-0.5-7.7-0.7-15.4-0.7-23.2C-35.8,821.5,37.2,698.5,147.2,628.5z M108.7,1298.1
				c3.8,2.9,7.7,5.6,11.7,8.4L108.7,1298.1z M-27.8,1040.3h-25.6c5.5,28.8,14,56.9,25.5,84.1c21.1,49.9,51.4,94.8,89.9,133.3
				c14.7,14.7,30.3,28.2,46.7,40.4v-12.6h25.6C52.3,1228.6-7.2,1141.5-27.8,1040.3z M744.9,798c-5.3-12.5-11.1-24.7-17.6-36.5h-28.9
				c28.2,47.8,46.6,102.1,52.5,160H776C772,878.9,761.6,837.5,744.9,798z M655,664.8c-38.5-38.5-83.4-68.7-133.3-89.9
				c-51.7-21.9-106.6-33-163.2-33S247,553,195.3,574.9c-16.9,7.2-33.3,15.4-49,24.6h55.3c48.1-20.9,101.1-32.5,156.9-32.5
				c130.9,0,247.1,64.1,318.8,162.5H708C692.7,706.3,674.9,684.7,655,664.8z M752.1,984.5c-3.9,67.4-24.9,130.4-58.7,184.6
				c-5.3,8.6-11,16.9-16.9,25c-71.8,97.8-187.6,161.5-318.1,161.5c-69,0-133.9-17.8-190.4-49.1h-47.7c23.4,16.2,48.4,29.9,74.9,41.1
				c51.7,21.9,106.6,33,163.2,33s111.5-11.1,163.2-33c49.9-21.1,94.8-51.3,133.3-89.8c19.6-19.6,37.1-40.9,52.3-63.7
				c5.5-8.1,10.6-16.5,15.5-25c8.2-14.4,15.6-29.2,22.1-44.6c18.9-44.6,29.7-91.6,32.3-140H752.1z"/>
		</g>
		<path class="st2" d="M487.8,1127.5c-4.5,11.6-9.1,17.3-14,17.3c-1.6,0-2.3-0.8-2.3-2.5c0-0.9,0.2-1.8,0.4-2.6
			c0.3-1.2,0.4-1.9,0.5-2.2l14.1-55.7h-4.3l-5.8,0.6c-4.4,0.4-8.5,0.6-12.4,0.6h-12l-1.3,5.4h10.9l-11.8,44.9
			c-0.8,2.9-1.3,5.9-1.4,8.9c0,7.8,5.5,11.7,16.5,11.7c12.6,0,21.8-7.7,27.7-23.1L487.8,1127.5z M478.1,1040.3c-3.4,0-6.6,1.3-9,3.7
			c-2.4,2.3-3.8,5.5-3.7,8.8c0,7,5.7,12.7,12.7,12.7c3.3,0,6.5-1.3,8.8-3.8c2.4-2.4,3.7-5.6,3.7-9
			C490.5,1046,484.9,1040.4,478.1,1040.3z"/>
		<g>
			<path class="st2" d="M595.1,1065.5h-26.3c4.3,11.7,6.7,24.4,6.7,37.6c0,59.8-48.6,108.4-108.4,108.4s-108.4-48.7-108.4-108.4
				c0-59.8,48.6-108.4,108.4-108.4c34.5,0,65.3,16.2,85.2,41.4h30.2c-23.1-39.7-66.2-66.4-115.4-66.4
				c-73.6,0-133.4,59.9-133.4,133.4c0,73.6,59.9,133.4,133.4,133.4c73.6,0,133.4-59.9,133.4-133.4
				C600.5,1090.1,598.6,1077.5,595.1,1065.5z"/>
		</g>
		<g>
			<path class="st2" d="M274.5,685.9c-52,0-94.3,42.3-94.3,94.4c0,52,42.3,94.3,94.3,94.3c32.3,0,60.9-16.3,77.9-41.1h-33.5
				c-12,10.1-27.5,16.1-44.4,16.1c-38.2,0-69.3-31.1-69.3-69.3s31.1-69.4,69.3-69.4s69.3,31.1,69.3,69.4c0,13.3-3.8,25.7-10.2,36.2
				h28c4.7-11.2,7.2-23.4,7.2-36.2C368.8,728.2,326.5,685.9,274.5,685.9z M361.6,816.5l-9.3,17C356,828.2,359.1,822.5,361.6,816.5z"
				/>
		</g>
		<g>
			<path class="st2" d="M426.3,992.5c-4-14-9.9-27.2-17.4-39.3c-4.5-7.3-9.5-14.2-15.2-20.6v7.8h-27.3c4.2,4,8.1,8.3,11.8,12.8
				c8.7,10.8,15.8,23.1,20.9,36.6c-7.1,4.1-16.7,10.7-26.5,20.4c-22.4,22.4-35.8,52.1-38.9,85.9c0,0.1,0,0.3,0,0.4
				c-0.1,1.3-1,21.4,6.9,47h26.5c-8.8-23.6-8.4-43.5-8.4-45.5c6-65.5,54.8-88.1,60.4-90.5c0.5-0.2,2-0.9,3.5-2.2
				C426.2,1002.1,427.6,997.1,426.3,992.5z M141.5,1036.1c0-73.3,59.6-132.9,132.9-132.9c24.1,0,47.1,6.6,67,18.3h41.7
				c-4.3-4.1-8.9-7.9-13.7-11.5c-27.6-20.8-60.5-31.8-95-31.8c-87.1,0-157.9,70.8-157.9,157.9v145.5c0,6.9,5.6,12.5,12.5,12.5h177.7
				v-25H141.5V1036.1z M383.6,1174.1c-6.5-8.6-11.3-17.4-14.8-26v46h4.8c4.7,0,9.1-2.7,11.2-6.9
				C387,1182.9,386.5,1177.8,383.6,1174.1z"/>
		</g>
		<path class="st2" d="M408.9,953.1h-30.7c-7.9-9.8-17.1-18.5-27.4-25.7h38.3C396.7,935.4,403.3,944,408.9,953.1z"/>
		<path class="st2" d="M364.6,1173.4v46h-62v-25h44.3c-4.6-8.8-8-17.5-10.5-25.6h26.5C363.4,1170.3,364,1171.8,364.6,1173.4z"/>
		<path class="st2" d="M368.8,1143.5v4.6c-0.6-1.5-1.3-3.1-1.8-4.6H368.8z"/>
		<path class="st2" d="M-40.6,1040.3h-25.5l-6.8-55.9h25C-46.8,1003.5-44.3,1022.1-40.6,1040.3z"/>
		<path class="st2" d="M733,745.5h-28.9c-6.5-11-13.5-21.7-21-32h30.7C720.6,723.8,727.1,734.5,733,745.5z"/>
		<path class="st2" d="M791.3,955.1c0,7.8-0.2,15.5-0.6,23.2h-25c0.5-7.7,0.7-15.4,0.7-23.2c0-13.4-0.7-26.7-2-39.8h25.1
			C790.7,928.5,791.3,941.8,791.3,955.1z"/>
		<path class="st2" d="M777.8,921.5v39.8c0-13.4-0.6-26.6-1.9-39.8H777.8z"/>
		<path class="st2" d="M777.2,984.5c0.4-7.7,0.6-15.5,0.6-23.2v23.2H777.2z"/>
		<path class="st2" d="M207.1,606.7c-19,8.3-37.2,18-54.5,29h-43.9l43-29H207.1z"/>
		<path class="st2" d="M176.9,1296h-47.7l-11.7-8.4V1275h25.6C153.9,1282.5,165.2,1289.6,176.9,1296z"/>
		<path class="st2" d="M731.1,1219.4c-4.9,8.5-10,16.9-15.5,25h-30.8c6-8.1,11.6-16.4,16.9-25H731.1z"/>
		<path class="st2" d="M607.1,1050.8h-26.3c-4-10.7-9.6-20.6-16.5-29.4h30.2C599.7,1030.6,604,1040.5,607.1,1050.8z"/>
		<path class="st2" d="M366.4,970.7h-86.7v-18.8h61.7c3.2,1.9,6.3,3.9,9.3,6C356.3,961.7,361.6,966,366.4,970.7z"/>
		<path class="st2" d="M393.7,921.5v11c-1.5-1.7-3-3.4-4.6-5c-2-2-4-4.1-6-6H393.7z"/>
		<path class="st2" d="M361.6,825l-9.3,17h-33.5c5.8-4.8,10.7-10.6,14.7-17H361.6z"/>
		<rect x="377.5" y="890.5" class="st2" width="10.9" height="3"/>
		<rect x="377.5" y="813.5" class="st2" width="8.7" height="16"/>
		<rect x="377.5" y="852.5" class="st2" width="5.5" height="6"/>
		<rect x="302.6" y="996.5" class="st2" width="16.3" height="1"/>
		<rect x="514.7" y="1065.5" class="st2" width="13" height="5"/>
		<rect x="456.3" y="1108.1" class="st2" width="22.5" height="3.4"/>
		<rect x="573.7" y="1058.5" class="st2" width="11.9" height="12"/>
		<rect x="600.3" y="1109.8" class="st2" width="15.4" height="8.1"/>
		<rect x="323.1" y="1182.5" class="st2" width="17.1" height="5"/>
		<rect x="333.6" y="1225.5" class="st2" width="33.4" height="6.4"/>
		<rect x="-36.3" y="1007.5" class="st2" width="12" height="4.9"/>
		<rect x="108.7" y="599.5" class="st2" width="19.7" height="11.1"/>
		<rect x="671.7" y="745.5" class="st2" width="7" height="34.8"/>
		<rect x="731.1" y="927.5" class="st2" width="17.6" height="13.9"/>
		<rect x="720.7" y="978.4" class="st2" width="10.4" height="19.1"/>
		<rect x="791.3" y="898.5" class="st2" width="20.4" height="7"/>
		<rect x="720.7" y="1187.5" class="st2" width="19.2" height="16"/>
		<rect x="671.7" y="1169.2" class="st2" width="43" height="13.3"/>
		<rect x="608" y="1240.5" class="st2" width="7.7" height="10"/>
		<rect x="550.7" y="1257.5" class="st2" width="23" height="7"/>
		<rect x="103.3" y="1324.5" class="st2" width="21.5" height="9"/>
		<rect x="79.7" y="1296" class="st2" width="10" height="19.5"/>
		<rect x="-84.3" y="1058.5" class="st2" width="11.3" height="12"/>
		<rect x="-89.3" y="961.2" class="st2" width="16.3" height="11.6"/>
		<rect x="241.7" y="745.5" class="st2" width="8.1" height="4"/>
		<rect x="245.8" y="800.5" class="st2" width="13" height="13"/>
		<rect x="283.7" y="761.5" class="st2" width="12" height="27"/>
		<rect x="164.7" y="1007.5" class="st2" width="12.1" height="28.6"/>
		<rect x="170.8" y="1064.5" class="st2" width="26.9" height="6"/>
		<rect x="146.3" y="1231.9" class="st2" width="11.6" height="8.6"/>
		<rect x="367.9" y="696.5" class="st2" width="13.9" height="11"/>
		<rect x="431.7" y="761.5" class="st2" width="16.5" height="13.5"/>
		<rect x="514.7" y="874.6" class="st2" width="24" height="8.9"/>
	</g>
</g>
</svg>
